<svg width="24" height="24" viewBox="0 0 24 24" fill="none" xmlns="http://www.w3.org/2000/svg">
<path d="M20.0389 16.857C22.5904 14.58 24.0004 12 24.0004 12C24.0004 12 19.5004 3.75 12.0004 3.75C10.5597 3.75377 9.13514 4.05399 7.81543 4.632L8.97043 5.7885C9.94202 5.43637 10.967 5.25421 12.0004 5.25C15.1804 5.25 17.8189 7.002 19.7524 8.9355C20.684 9.87012 21.5183 10.8969 22.2424 12C22.1564 12.13 22.0589 12.274 21.9499 12.432C21.4474 13.152 20.7049 14.112 19.7524 15.0645C19.5054 15.3125 19.2469 15.5555 18.9769 15.7935L20.0389 16.857Z" fill="#240076"/>
<path d="M16.9451 13.7636C17.2798 12.8273 17.3418 11.8153 17.1238 10.8452C16.9058 9.87509 16.4169 8.98684 15.7138 8.28378C15.0108 7.58073 14.1225 7.09177 13.1524 6.8738C12.1823 6.65583 11.1703 6.71782 10.2341 7.05256L11.4686 8.28706C12.045 8.20454 12.6328 8.25742 13.1853 8.4415C13.7377 8.62558 14.2398 8.9358 14.6515 9.34757C15.0633 9.75935 15.3735 10.2614 15.5576 10.8138C15.7417 11.3663 15.7946 11.9541 15.7121 12.5306L16.9451 13.7636ZM12.5306 15.7121L13.7636 16.9451C12.8273 17.2798 11.8153 17.3418 10.8452 17.1238C9.87509 16.9058 8.98684 16.4169 8.28378 15.7138C7.58073 15.0108 7.09177 14.1225 6.8738 13.1524C6.65583 12.1823 6.71782 11.1703 7.05256 10.2341L8.28706 11.4686C8.20454 12.045 8.25742 12.6328 8.4415 13.1853C8.62558 13.7377 8.9358 14.2398 9.34757 14.6515C9.75935 15.0633 10.2614 15.3735 10.8138 15.5576C11.3663 15.7417 11.9541 15.7946 12.5306 15.7121Z" fill="#240076"/>
<path d="M5.025 8.20475C4.755 8.44475 4.496 8.68825 4.248 8.93525C3.31645 9.86987 2.48217 10.8966 1.758 11.9998L2.0505 12.4318C2.553 13.1518 3.2955 14.1118 4.248 15.0643C6.1815 16.9978 8.8215 18.7498 12 18.7498C13.074 18.7498 14.085 18.5503 15.03 18.2098L16.185 19.3678C14.8653 19.9458 13.4407 20.246 12 20.2498C4.5 20.2498 0 11.9998 0 11.9998C0 11.9998 1.4085 9.41825 3.9615 7.14275L5.0235 8.20625L5.025 8.20475ZM20.469 21.5308L2.469 3.53075L3.531 2.46875L21.531 20.4688L20.469 21.5308Z" fill="#240076"/>
</svg>
