<svg width="19" height="14" viewBox="0 0 19 14" fill="none" xmlns="http://www.w3.org/2000/svg">
<path d="M1.5 6.25066C1.30109 6.25066 1.11032 6.32968 0.96967 6.47033C0.829018 6.61098 0.75 6.80175 0.75 7.00066C0.75 7.19957 0.829018 7.39034 0.96967 7.53099C1.11032 7.67164 1.30109 7.75066 1.5 7.75066L10.75 7.75066L10.75 13.0007C10.7501 13.1489 10.7942 13.2938 10.8766 13.417C10.959 13.5402 11.0761 13.6362 11.2131 13.6929C11.35 13.7497 11.5007 13.7645 11.6461 13.7356C11.7915 13.7067 11.9251 13.6354 12.03 13.5307L18.03 7.53066C18.1705 7.39003 18.2493 7.19941 18.2493 7.00066C18.2493 6.80191 18.1705 6.61129 18.03 6.47066L12.03 0.470658C11.9251 0.365902 11.7915 0.294579 11.6461 0.265695C11.5007 0.236811 11.35 0.25166 11.2131 0.308372C11.0761 0.365083 10.959 0.461111 10.8766 0.584327C10.7942 0.707542 10.7501 0.852419 10.75 1.00066V6.25066L1.5 6.25066Z" fill="white"/>
</svg>
