<svg width="19" height="15" viewBox="0 0 19 15" fill="none" xmlns="http://www.w3.org/2000/svg">
<path d="M1.5 6.75066C1.30109 6.75066 1.11032 6.82968 0.96967 6.97033C0.829018 7.11098 0.75 7.30175 0.75 7.50066C0.75 7.69957 0.829018 7.89034 0.96967 8.03099C1.11032 8.17164 1.30109 8.25066 1.5 8.25066L10.75 8.25066L10.75 13.5007C10.7501 13.6489 10.7942 13.7938 10.8766 13.917C10.959 14.0402 11.0761 14.1362 11.2131 14.1929C11.35 14.2497 11.5007 14.2645 11.6461 14.2356C11.7915 14.2067 11.9251 14.1354 12.03 14.0307L18.03 8.03066C18.1705 7.89003 18.2493 7.69941 18.2493 7.50066C18.2493 7.30191 18.1705 7.11129 18.03 6.97066L12.03 0.970658C11.9251 0.865902 11.7915 0.794579 11.6461 0.765695C11.5007 0.736811 11.35 0.75166 11.2131 0.808372C11.0761 0.865083 10.959 0.961111 10.8766 1.08433C10.7942 1.20754 10.7501 1.35242 10.75 1.50066V6.75066L1.5 6.75066Z" fill="white"/>
</svg>
