<svg width="64" height="64" viewBox="0 0 64 64" fill="none" xmlns="http://www.w3.org/2000/svg">
<g clip-path="url(#clip0_455_1094)">
<path d="M64 0H0V64H64V0Z" fill="#240076"/>
<g style="mix-blend-mode:multiply" opacity="0.47">
<g style="mix-blend-mode:multiply" opacity="0.47">
<path d="M47.9623 21.3383L58.9489 18.3963C59.5675 18.2306 60.0949 17.8262 60.4151 17.2719C60.7353 16.7176 60.8221 16.059 60.6563 15.4408C60.4906 14.8226 60.0858 14.2956 59.5312 13.9756C58.9766 13.6556 58.3175 13.5689 57.6989 13.7345L40.3876 18.3697C40.0813 18.4518 39.7619 18.4727 39.4474 18.4313C39.1331 18.39 38.8299 18.2871 38.5553 18.1286C38.2807 17.9702 38.04 17.7592 37.8469 17.5078C37.6539 17.2564 37.5123 16.9695 37.4302 16.6634C37.2645 16.0452 37.3513 15.3866 37.6715 14.8324C37.9916 14.2782 38.5189 13.8738 39.1375 13.7081L47.0174 11.5975C47.3237 11.5155 47.6109 11.374 47.8625 11.1811C48.1141 10.9882 48.3252 10.7477 48.4838 10.4732C48.6424 10.1988 48.7453 9.89582 48.7867 9.58164C48.8281 9.2674 48.8072 8.94817 48.7251 8.64199C48.5594 8.02382 48.1547 7.49678 47.6 7.17678C47.0454 6.85678 46.3863 6.77012 45.7677 6.93575L5.73739 17.6543C5.43109 17.7363 5.14395 17.8778 4.89237 18.0707C4.64078 18.2636 4.42969 18.5041 4.27113 18.7785C4.11257 19.0529 4.00965 19.3559 3.96826 19.6701C3.92687 19.9843 3.9478 20.3036 4.02987 20.6096C4.1119 20.9158 4.25346 21.2028 4.4465 21.4543C4.63954 21.7058 4.88025 21.9168 5.15491 22.0753C5.42957 22.2338 5.73277 22.3366 6.04722 22.3781C6.36166 22.4194 6.68118 22.3985 6.98755 22.3164L13.2204 20.6475C13.839 20.4819 14.4981 20.5686 15.0527 20.8886C15.6073 21.2086 16.0121 21.7357 16.1778 22.3539C16.2599 22.66 16.2809 22.9792 16.2395 23.2934C16.198 23.6076 16.0951 23.9105 15.9365 24.185C15.778 24.4594 15.5669 24.6999 15.3154 24.8928C15.0638 25.0858 14.7766 25.2272 14.4703 25.3093L3.8015 28.166C3.1829 28.3317 2.65548 28.7361 2.33526 29.2904C2.01504 29.8446 1.92825 30.5033 2.09398 31.1215C2.17605 31.4276 2.31764 31.7145 2.51069 31.966C2.70373 32.2174 2.94443 32.4283 3.21906 32.5868C3.49368 32.7452 3.79685 32.8481 4.11125 32.8894C4.42564 32.9308 4.74512 32.9099 5.05142 32.8278L11.7095 31.0449C12.3282 30.8793 12.9873 30.966 13.5419 31.2861C14.0965 31.6061 14.5012 32.1331 14.667 32.7513C14.7491 33.0574 14.77 33.3766 14.7286 33.6908C14.6872 34.0051 14.5843 34.308 14.4258 34.5824C14.2672 34.8568 14.0561 35.0974 13.8045 35.2903C13.5529 35.4832 13.2658 35.6247 12.9595 35.7067L12.4871 35.8332C12.1806 35.9153 11.8934 36.0568 11.6418 36.2499C11.3901 36.4429 11.179 36.6836 11.0204 36.9582C10.8619 37.2328 10.7591 37.5359 10.7178 37.8503C10.6766 38.1646 10.6977 38.4839 10.7799 38.7901C10.862 39.0962 11.0036 39.3832 11.1966 39.6346C11.3897 39.886 11.6304 40.097 11.905 40.2554C12.1796 40.4139 12.4828 40.5167 12.7972 40.5582C13.1116 40.5995 13.4311 40.5786 13.7374 40.4966L14.1854 40.3766C14.4917 40.2947 14.8112 40.2737 15.1255 40.3151C15.44 40.3564 15.7431 40.4593 16.0177 40.6177C16.2923 40.7762 16.533 40.9871 16.726 41.2386C16.9191 41.49 17.0607 41.777 17.1427 42.083C17.2248 42.3891 17.2458 42.7084 17.2044 43.0226C17.163 43.3368 17.0601 43.6397 16.9015 43.9142C16.743 44.1886 16.5319 44.4292 16.2803 44.6221C16.0288 44.815 15.7416 44.9565 15.4353 45.0385L8.80169 46.8147C8.18313 46.9804 7.65571 47.3848 7.33552 47.9391C7.01533 48.4933 6.92854 49.152 7.0943 49.7702C7.26006 50.3884 7.6648 50.9155 8.21942 51.2354C8.77405 51.5554 9.43312 51.6421 10.0517 51.4765L22.173 48.2307C22.4793 48.1487 22.7988 48.1278 23.1132 48.1692C23.4276 48.2105 23.7308 48.3134 24.0054 48.4718C24.28 48.6303 24.5207 48.8412 24.7138 49.0927C24.9068 49.3441 25.0484 49.631 25.1305 49.9371C25.2126 50.2433 25.2335 50.5625 25.1921 50.8767C25.1507 51.191 25.0478 51.494 24.8892 51.7684C24.7306 52.0428 24.5195 52.2834 24.2679 52.4763C24.0162 52.6693 23.7291 52.8107 23.4227 52.8927L21.4801 53.4128C20.8615 53.5784 20.3341 53.9829 20.0139 54.5372C19.6937 55.0914 19.6069 55.7501 19.7727 56.3683C19.8547 56.6744 19.9964 56.9613 20.1894 57.2127C20.3824 57.4641 20.6231 57.6751 20.8978 57.8335C21.1724 57.992 21.4755 58.0948 21.79 58.1361C22.1043 58.1775 22.4238 58.1566 22.7301 58.0746L53.5941 49.8101C54.2128 49.6444 54.7401 49.2399 55.0604 48.6857C55.3806 48.1315 55.4673 47.4728 55.3015 46.8546C55.2195 46.5485 55.0779 46.2615 54.8848 46.0101C54.6918 45.7587 54.4511 45.5477 54.1765 45.3893C53.9018 45.2309 53.5987 45.128 53.2843 45.0866C52.9699 45.0453 52.6504 45.0662 52.3441 45.1482L51.4362 45.3914C50.8176 45.557 50.1586 45.4703 49.6039 45.1505C49.0493 44.8305 48.6446 44.3036 48.4787 43.6855C48.3967 43.3794 48.3758 43.0601 48.4172 42.7459C48.4586 42.4318 48.5616 42.1288 48.7202 41.8543C48.8787 41.5799 49.0898 41.3393 49.3415 41.1464C49.593 40.9536 49.8802 40.8121 50.1866 40.7301L56.1568 39.1312C56.4631 39.0492 56.7502 38.9077 57.0018 38.7148C57.2534 38.5219 57.4645 38.2813 57.6231 38.0069C57.7817 37.7324 57.8846 37.4294 57.9259 37.1153C57.9673 36.8011 57.9464 36.4818 57.8643 36.1757C57.7822 35.8696 57.6407 35.5827 57.4476 35.3312C57.2546 35.0798 57.0139 34.8689 56.7392 34.7104C56.4646 34.5519 56.1614 34.4491 55.8471 34.4078C55.5326 34.3664 55.2132 34.3873 54.9069 34.4693L46.4414 36.7359C46.1351 36.8179 45.8156 36.8388 45.5012 36.7974C45.1868 36.7561 44.8837 36.6533 44.6091 36.4948C44.3344 36.3363 44.0937 36.1254 43.9006 35.874C43.7076 35.6225 43.566 35.3356 43.4839 35.0295C43.3184 34.4113 43.4053 33.7528 43.7255 33.1987C44.0457 32.6446 44.5731 32.2402 45.1916 32.0746L51.1857 30.4695C51.492 30.3875 51.7792 30.246 52.0307 30.0531C52.2823 29.8602 52.4934 29.6197 52.6519 29.3452C52.8105 29.0707 52.9134 28.7678 52.9548 28.4536C52.9962 28.1394 52.9752 27.8202 52.8931 27.5141C52.8112 27.2079 52.6697 26.9208 52.4766 26.6693C52.2837 26.4177 52.043 26.2067 51.7683 26.0481C51.4937 25.8895 51.1905 25.7866 50.8761 25.7452C50.5616 25.7038 50.2421 25.7247 49.9357 25.8067L49.2124 26.0004C48.5938 26.166 47.9347 26.0794 47.3801 25.7594C46.8254 25.4394 46.4207 24.9123 46.2549 24.2942C46.1728 23.988 46.1518 23.6687 46.1932 23.3545C46.2345 23.0403 46.3374 22.7373 46.496 22.4629C46.6545 22.1884 46.8656 21.9478 47.1172 21.7548C47.3688 21.5619 47.6559 21.4204 47.9623 21.3383Z" fill="#76D1FF"/>
</g>
<g style="mix-blend-mode:multiply" opacity="0.47">
<path d="M58.0585 23.6317L57.4231 23.8018C56.135 24.1467 55.3705 25.4699 55.7157 26.7572L55.7158 26.7577C56.061 28.045 57.3851 28.8089 58.6732 28.464L59.3086 28.2939C60.5968 27.9489 61.3613 26.6257 61.016 25.3384L61.016 25.338C60.6708 24.0507 59.3467 23.2867 58.0585 23.6317Z" fill="#76D1FF"/>
</g>
</g>
<g style="mix-blend-mode:multiply" opacity="0.33">
<g style="mix-blend-mode:multiply" opacity="0.33">
<path d="M9.32873 43.4161L10.1518 42.2404C10.163 42.2244 10.1801 42.2135 10.1994 42.2101C10.2187 42.2067 10.2385 42.2111 10.2545 42.2223L11.0946 42.8097C11.1106 42.8209 11.1215 42.838 11.125 42.8572C11.1283 42.8765 11.1239 42.8963 11.1127 42.9123L10.2897 44.0879C10.2087 44.2037 10.0849 44.2825 9.94563 44.3071C9.80643 44.3318 9.66313 44.3 9.54729 44.2191L9.45993 44.1579C9.34409 44.077 9.26518 43.9533 9.24054 43.8142C9.21596 43.6751 9.24771 43.5318 9.32873 43.4161Z" fill="#4E4E4E"/>
<path d="M9.32873 43.4161L10.1518 42.2404C10.163 42.2244 10.1801 42.2135 10.1994 42.2101C10.2187 42.2067 10.2385 42.2111 10.2545 42.2223L11.0946 42.8097C11.1106 42.8209 11.1215 42.838 11.125 42.8572C11.1283 42.8765 11.1239 42.8963 11.1127 42.9123L10.2897 44.0879C10.2087 44.2037 10.0849 44.2825 9.94563 44.3071C9.80643 44.3318 9.66313 44.3 9.54729 44.2191L9.45993 44.1579C9.34409 44.077 9.26518 43.9533 9.24054 43.8142C9.21596 43.6751 9.24771 43.5318 9.32873 43.4161Z" stroke="#46505C" stroke-width="0.426667" stroke-linecap="round" stroke-linejoin="round"/>
</g>
<g style="mix-blend-mode:multiply" opacity="0.33">
<path d="M9.32873 43.4161L10.1518 42.2404C10.163 42.2244 10.1801 42.2135 10.1994 42.2101C10.2187 42.2067 10.2385 42.2111 10.2545 42.2223L11.0946 42.8097C11.1106 42.8209 11.1215 42.838 11.125 42.8572C11.1283 42.8765 11.1239 42.8963 11.1127 42.9123L10.2897 44.0879C10.2087 44.2037 10.0849 44.2825 9.94563 44.3071C9.80643 44.3318 9.66313 44.3 9.54729 44.2191L9.45993 44.1579C9.34409 44.077 9.26518 43.9533 9.24054 43.8142C9.21596 43.6751 9.24771 43.5318 9.32873 43.4161Z" fill="#4E4E4E"/>
<path d="M9.32873 43.4161L10.1518 42.2404C10.163 42.2244 10.1801 42.2135 10.1994 42.2101C10.2187 42.2067 10.2385 42.2111 10.2545 42.2223L11.0946 42.8097C11.1106 42.8209 11.1215 42.838 11.125 42.8572C11.1283 42.8765 11.1239 42.8963 11.1127 42.9123L10.2897 44.0879C10.2087 44.2037 10.0849 44.2825 9.94563 44.3071C9.80643 44.3318 9.66313 44.3 9.54729 44.2191L9.45993 44.1579C9.34409 44.077 9.26518 43.9533 9.24054 43.8142C9.21596 43.6751 9.24771 43.5318 9.32873 43.4161Z" stroke="#46505C" stroke-width="0.426667" stroke-linecap="round" stroke-linejoin="round"/>
</g>
<g style="mix-blend-mode:multiply" opacity="0.33">
<path d="M12.4904 43.4371C14.4095 43.4371 15.9652 41.8825 15.9652 39.9647C15.9652 38.0469 14.4095 36.4922 12.4904 36.4922C10.5713 36.4922 9.01562 38.0469 9.01562 39.9647C9.01562 41.8825 10.5713 43.4371 12.4904 43.4371Z" fill="#4E4E4E"/>
<path d="M12.4904 43.4371C14.4095 43.4371 15.9652 41.8825 15.9652 39.9647C15.9652 38.0469 14.4095 36.4922 12.4904 36.4922C10.5713 36.4922 9.01562 38.0469 9.01562 39.9647C9.01562 41.8825 10.5713 43.4371 12.4904 43.4371Z" stroke="#46505C" stroke-width="0.426667" stroke-linecap="round" stroke-linejoin="round"/>
</g>
<g style="mix-blend-mode:multiply" opacity="0.33">
<path d="M12.4904 43.4371C14.4095 43.4371 15.9652 41.8825 15.9652 39.9647C15.9652 38.0469 14.4095 36.4922 12.4904 36.4922C10.5713 36.4922 9.01562 38.0469 9.01562 39.9647C9.01562 41.8825 10.5713 43.4371 12.4904 43.4371Z" fill="#4E4E4E"/>
<path d="M12.4904 43.4371C14.4095 43.4371 15.9652 41.8825 15.9652 39.9647C15.9652 38.0469 14.4095 36.4922 12.4904 36.4922C10.5713 36.4922 9.01562 38.0469 9.01562 39.9647C9.01562 41.8825 10.5713 43.4371 12.4904 43.4371Z" stroke="#46505C" stroke-width="0.426667" stroke-linecap="round" stroke-linejoin="round"/>
</g>
<g style="mix-blend-mode:multiply" opacity="0.33">
<path d="M12.4897 42.6672C13.9834 42.6672 15.1942 41.4571 15.1942 39.9644C15.1942 38.4718 13.9834 37.2617 12.4897 37.2617C10.996 37.2617 9.78516 38.4718 9.78516 39.9644C9.78516 41.4571 10.996 42.6672 12.4897 42.6672Z" fill="#4E4E4E"/>
<path d="M12.4897 42.6672C13.9834 42.6672 15.1942 41.4571 15.1942 39.9644C15.1942 38.4718 13.9834 37.2617 12.4897 37.2617C10.996 37.2617 9.78516 38.4718 9.78516 39.9644C9.78516 41.4571 10.996 42.6672 12.4897 42.6672Z" stroke="#46505C" stroke-width="0.426667" stroke-linecap="round" stroke-linejoin="round"/>
</g>
<g style="mix-blend-mode:multiply" opacity="0.33">
<path d="M12.4897 42.6672C13.9834 42.6672 15.1942 41.4571 15.1942 39.9644C15.1942 38.4718 13.9834 37.2617 12.4897 37.2617C10.996 37.2617 9.78516 38.4718 9.78516 39.9644C9.78516 41.4571 10.996 42.6672 12.4897 42.6672Z" fill="#4E4E4E"/>
<path d="M12.4897 42.6672C13.9834 42.6672 15.1942 41.4571 15.1942 39.9644C15.1942 38.4718 13.9834 37.2617 12.4897 37.2617C10.996 37.2617 9.78516 38.4718 9.78516 39.9644C9.78516 41.4571 10.996 42.6672 12.4897 42.6672Z" stroke="#46505C" stroke-width="0.426667" stroke-linecap="round" stroke-linejoin="round"/>
</g>
<g style="mix-blend-mode:multiply" opacity="0.33">
<path d="M10.7211 39.4041C10.7573 39.3227 10.7964 39.2428 10.8363 39.1647C11.0176 38.8096 11.2345 38.4414 11.5806 38.2238C11.8745 38.0389 12.2855 37.9666 12.604 38.1301C12.8803 38.2719 13.0467 38.5634 13.2988 38.7449C13.4687 38.8489 13.6452 38.9416 13.8272 39.0225C14.011 39.1052 14.1564 39.2546 14.2339 39.4405C14.3193 39.701 14.1786 39.979 14.1772 40.2531C14.1767 40.4044 14.2188 40.5528 14.2985 40.6814C14.3488 40.7415 14.3812 40.8146 14.3918 40.8923C14.3842 40.942 14.3631 40.9888 14.3308 41.0275C14.2987 41.0661 14.2565 41.0953 14.2089 41.1119C13.9288 41.2442 13.6016 41.1964 13.2936 41.1632C12.9856 41.1299 12.6444 41.1229 12.4009 41.3143C12.3012 41.4062 12.2089 41.5057 12.1248 41.6119C12.0892 41.6652 12.0423 41.7099 11.9875 41.7429C11.9326 41.776 11.8711 41.7964 11.8075 41.8029C11.7437 41.8094 11.6794 41.8018 11.619 41.7804C11.5586 41.7592 11.5036 41.7248 11.4581 41.6798C11.2373 41.4951 11.0458 41.278 10.8899 41.0359C10.7262 40.8312 10.6105 40.5923 10.5515 40.3369C10.4962 40.0198 10.5884 39.7025 10.7211 39.4041Z" fill="#4E4E4E"/>
<path d="M10.7211 39.4041C10.7573 39.3227 10.7964 39.2428 10.8363 39.1647C11.0176 38.8096 11.2345 38.4414 11.5806 38.2238C11.8745 38.0389 12.2855 37.9666 12.604 38.1301C12.8803 38.2719 13.0467 38.5634 13.2988 38.7449C13.4687 38.8489 13.6452 38.9416 13.8272 39.0225C14.011 39.1052 14.1564 39.2546 14.2339 39.4405C14.3193 39.701 14.1786 39.979 14.1772 40.2531C14.1767 40.4044 14.2188 40.5528 14.2985 40.6814C14.3488 40.7415 14.3812 40.8146 14.3918 40.8923C14.3842 40.942 14.3631 40.9888 14.3308 41.0275C14.2987 41.0661 14.2565 41.0953 14.2089 41.1119C13.9288 41.2442 13.6016 41.1964 13.2936 41.1632C12.9856 41.1299 12.6444 41.1229 12.4009 41.3143C12.3012 41.4062 12.2089 41.5057 12.1248 41.6119C12.0892 41.6652 12.0423 41.7099 11.9875 41.7429C11.9326 41.776 11.8711 41.7964 11.8075 41.8029C11.7437 41.8094 11.6794 41.8018 11.619 41.7804C11.5586 41.7592 11.5036 41.7248 11.4581 41.6798C11.2373 41.4951 11.0458 41.278 10.8899 41.0359C10.7262 40.8312 10.6105 40.5923 10.5515 40.3369C10.4962 40.0198 10.5884 39.7025 10.7211 39.4041Z" stroke="#46505C" stroke-width="0.426667" stroke-linecap="round" stroke-linejoin="round"/>
</g>
<g style="mix-blend-mode:multiply" opacity="0.33">
<path d="M13.037 42.0094C13.1297 42.0094 13.2049 41.9342 13.2049 41.8416C13.2049 41.7489 13.1297 41.6738 13.037 41.6738C12.9443 41.6738 12.8691 41.7489 12.8691 41.8416C12.8691 41.9342 12.9443 42.0094 13.037 42.0094Z" fill="#4E4E4E"/>
<path d="M13.037 42.0094C13.1297 42.0094 13.2049 41.9342 13.2049 41.8416C13.2049 41.7489 13.1297 41.6738 13.037 41.6738C12.9443 41.6738 12.8691 41.7489 12.8691 41.8416C12.8691 41.9342 12.9443 42.0094 13.037 42.0094Z" stroke="#46505C" stroke-width="0.426667" stroke-linecap="round" stroke-linejoin="round"/>
</g>
<g style="mix-blend-mode:multiply" opacity="0.33">
<path d="M12.6006 42.0214C12.6648 42.0214 12.7169 41.9694 12.7169 41.9053C12.7169 41.8411 12.6648 41.7891 12.6006 41.7891C12.5364 41.7891 12.4844 41.8411 12.4844 41.9053C12.4844 41.9694 12.5364 42.0214 12.6006 42.0214Z" fill="#4E4E4E"/>
<path d="M12.6006 42.0214C12.6648 42.0214 12.7169 41.9694 12.7169 41.9053C12.7169 41.8411 12.6648 41.7891 12.6006 41.7891C12.5364 41.7891 12.4844 41.8411 12.4844 41.9053C12.4844 41.9694 12.5364 42.0214 12.6006 42.0214Z" stroke="#46505C" stroke-width="0.426667" stroke-linecap="round" stroke-linejoin="round"/>
</g>
<g style="mix-blend-mode:multiply" opacity="0.33">
<path d="M13.4335 41.7927C13.4917 41.7927 13.5389 41.7455 13.5389 41.6873C13.5389 41.6292 13.4917 41.582 13.4335 41.582C13.3754 41.582 13.3281 41.6292 13.3281 41.6873C13.3281 41.7455 13.3754 41.7927 13.4335 41.7927Z" fill="#4E4E4E"/>
<path d="M13.4335 41.7927C13.4917 41.7927 13.5389 41.7455 13.5389 41.6873C13.5389 41.6292 13.4917 41.582 13.4335 41.582C13.3754 41.582 13.3281 41.6292 13.3281 41.6873C13.3281 41.7455 13.3754 41.7927 13.4335 41.7927Z" stroke="#46505C" stroke-width="0.426667" stroke-linecap="round" stroke-linejoin="round"/>
</g>
<g style="mix-blend-mode:multiply" opacity="0.33">
<path d="M12.2318 42.024C12.2734 42.024 12.3073 41.9902 12.3073 41.9485C12.3073 41.9068 12.2734 41.873 12.2318 41.873C12.19 41.873 12.1562 41.9068 12.1562 41.9485C12.1562 41.9902 12.19 42.024 12.2318 42.024Z" fill="#4E4E4E"/>
<path d="M12.2318 42.024C12.2734 42.024 12.3073 41.9902 12.3073 41.9485C12.3073 41.9068 12.2734 41.873 12.2318 41.873C12.19 41.873 12.1562 41.9068 12.1562 41.9485C12.1562 41.9902 12.19 42.024 12.2318 42.024Z" stroke="#46505C" stroke-width="0.426667" stroke-linecap="round" stroke-linejoin="round"/>
</g>
<g style="mix-blend-mode:multiply" opacity="0.33">
<path d="M13.7668 41.6215C13.7923 41.6215 13.8129 41.6008 13.8129 41.5754C13.8129 41.55 13.7923 41.5293 13.7668 41.5293C13.7414 41.5293 13.7207 41.55 13.7207 41.5754C13.7207 41.6008 13.7414 41.6215 13.7668 41.6215Z" fill="#4E4E4E"/>
<path d="M13.7668 41.6215C13.7923 41.6215 13.8129 41.6008 13.8129 41.5754C13.8129 41.55 13.7923 41.5293 13.7668 41.5293C13.7414 41.5293 13.7207 41.55 13.7207 41.5754C13.7207 41.6008 13.7414 41.6215 13.7668 41.6215Z" stroke="#46505C" stroke-width="0.426667" stroke-linecap="round" stroke-linejoin="round"/>
</g>
<g style="mix-blend-mode:multiply" opacity="0.33">
<path d="M10.3914 39.433C10.4511 39.433 10.4995 39.3846 10.4995 39.3249C10.4995 39.2652 10.4511 39.2168 10.3914 39.2168C10.3317 39.2168 10.2832 39.2652 10.2832 39.3249C10.2832 39.3846 10.3317 39.433 10.3914 39.433Z" fill="#4E4E4E"/>
<path d="M10.3914 39.433C10.4511 39.433 10.4995 39.3846 10.4995 39.3249C10.4995 39.2652 10.4511 39.2168 10.3914 39.2168C10.3317 39.2168 10.2832 39.2652 10.2832 39.3249C10.2832 39.3846 10.3317 39.433 10.3914 39.433Z" stroke="#46505C" stroke-width="0.426667" stroke-linecap="round" stroke-linejoin="round"/>
</g>
<g style="mix-blend-mode:multiply" opacity="0.33">
<path d="M13.3361 38.1702C13.3923 38.1702 13.4379 38.1247 13.4379 38.0685C13.4379 38.0124 13.3923 37.9668 13.3361 37.9668C13.2799 37.9668 13.2344 38.0124 13.2344 38.0685C13.2344 38.1247 13.2799 38.1702 13.3361 38.1702Z" fill="#4E4E4E"/>
<path d="M13.3361 38.1702C13.3923 38.1702 13.4379 38.1247 13.4379 38.0685C13.4379 38.0124 13.3923 37.9668 13.3361 37.9668C13.2799 37.9668 13.2344 38.0124 13.2344 38.0685C13.2344 38.1247 13.2799 38.1702 13.3361 38.1702Z" stroke="#46505C" stroke-width="0.426667" stroke-linecap="round" stroke-linejoin="round"/>
</g>
<g style="mix-blend-mode:multiply" opacity="0.33">
<path d="M13.9965 38.6608C14.0473 38.6608 14.0886 38.6195 14.0886 38.5687C14.0886 38.5178 14.0473 38.4766 13.9965 38.4766C13.9456 38.4766 13.9043 38.5178 13.9043 38.5687C13.9043 38.6195 13.9456 38.6608 13.9965 38.6608Z" fill="#4E4E4E"/>
<path d="M13.9965 38.6608C14.0473 38.6608 14.0886 38.6195 14.0886 38.5687C14.0886 38.5178 14.0473 38.4766 13.9965 38.4766C13.9456 38.4766 13.9043 38.5178 13.9043 38.5687C13.9043 38.6195 13.9456 38.6608 13.9965 38.6608Z" stroke="#46505C" stroke-width="0.426667" stroke-linecap="round" stroke-linejoin="round"/>
</g>
<g style="mix-blend-mode:multiply" opacity="0.33">
<path d="M14.0735 38.8697C14.0958 38.8697 14.1138 38.8517 14.1138 38.8294C14.1138 38.8071 14.0958 38.7891 14.0735 38.7891C14.0513 38.7891 14.0332 38.8071 14.0332 38.8294C14.0332 38.8517 14.0513 38.8697 14.0735 38.8697Z" fill="#4E4E4E"/>
<path d="M14.0735 38.8697C14.0958 38.8697 14.1138 38.8517 14.1138 38.8294C14.1138 38.8071 14.0958 38.7891 14.0735 38.7891C14.0513 38.7891 14.0332 38.8071 14.0332 38.8294C14.0332 38.8517 14.0513 38.8697 14.0735 38.8697Z" stroke="#46505C" stroke-width="0.426667" stroke-linecap="round" stroke-linejoin="round"/>
</g>
</g>
<path d="M8.573 42.5609L9.39655 41.385C9.40781 41.369 9.4249 41.3581 9.44417 41.3546C9.4635 41.3512 9.48334 41.3557 9.49934 41.3669L10.3397 41.9546C10.3557 41.9658 10.3667 41.983 10.3701 42.0022C10.3734 42.0215 10.369 42.0414 10.3578 42.0574L9.53421 43.2333C9.45313 43.3491 9.32929 43.4279 9.19002 43.4525C9.05069 43.4771 8.90733 43.4454 8.79149 43.3643L8.70407 43.3032C8.58823 43.2221 8.50932 43.0984 8.48468 42.9592C8.4601 42.82 8.49185 42.6767 8.573 42.5609Z" fill="white" stroke="#E6F3FF" stroke-width="0.213333" stroke-miterlimit="10"/>
<path opacity="0.18" d="M9.49899 41.3687C9.48293 41.3576 9.46309 41.3532 9.44382 41.3566C9.42456 41.36 9.40747 41.371 9.39627 41.387L9.02539 41.9163C9.1676 42.0517 9.31979 42.1762 9.48075 42.2888C9.64165 42.4012 9.81073 42.5015 9.98654 42.5888L10.3574 42.0593C10.363 42.0513 10.367 42.0424 10.3691 42.033C10.3712 42.0235 10.3714 42.0137 10.3697 42.0042C10.368 41.9946 10.3645 41.9855 10.3592 41.9774C10.354 41.9692 10.3472 41.9621 10.3393 41.9566L9.49899 41.3687Z" fill="#4E4E4E" stroke="#46505C" stroke-width="0.426667" stroke-linecap="round" stroke-linejoin="round"/>
<path d="M8.573 42.5609L9.39655 41.385C9.40781 41.369 9.4249 41.3581 9.44417 41.3546C9.4635 41.3512 9.48334 41.3557 9.49934 41.3669L10.3397 41.9546C10.3557 41.9658 10.3667 41.983 10.3701 42.0022C10.3734 42.0215 10.369 42.0414 10.3578 42.0574L9.53422 43.2333C9.45313 43.3491 9.32929 43.4279 9.19002 43.4525C9.05069 43.4771 8.90733 43.4454 8.79149 43.3643L8.70407 43.3032C8.58823 43.2221 8.50932 43.0984 8.48468 42.9592C8.4601 42.82 8.49185 42.6767 8.573 42.5609Z" stroke="#46505C" stroke-width="0.426667" stroke-linecap="round" stroke-linejoin="round"/>
<path d="M11.7189 42.5661C13.6379 42.5661 15.1936 41.0114 15.1936 39.0935C15.1936 37.1758 13.6379 35.6211 11.7189 35.6211C9.79979 35.6211 8.24414 37.1758 8.24414 39.0935C8.24414 41.0114 9.79979 42.5661 11.7189 42.5661Z" fill="white" stroke="#E6F3FF" stroke-width="0.213333" stroke-miterlimit="10"/>
<path d="M11.7189 42.5661C13.6379 42.5661 15.1936 41.0114 15.1936 39.0935C15.1936 37.1758 13.6379 35.6211 11.7189 35.6211C9.79979 35.6211 8.24414 37.1758 8.24414 39.0935C8.24414 41.0114 9.79979 42.5661 11.7189 42.5661Z" stroke="#46505C" stroke-width="0.426667" stroke-linecap="round" stroke-linejoin="round"/>
<path d="M11.7182 41.7961C13.2119 41.7961 14.4227 40.5861 14.4227 39.0934C14.4227 37.6007 13.2119 36.3906 11.7182 36.3906C10.2245 36.3906 9.01367 37.6007 9.01367 39.0934C9.01367 40.5861 10.2245 41.7961 11.7182 41.7961Z" fill="#845B5B"/>
<path d="M11.7182 41.7961C13.2119 41.7961 14.4227 40.5861 14.4227 39.0934C14.4227 37.6007 13.2119 36.3906 11.7182 36.3906C10.2245 36.3906 9.01367 37.6007 9.01367 39.0934C9.01367 40.5861 10.2245 41.7961 11.7182 41.7961Z" stroke="#46505C" stroke-width="0.213333" stroke-linecap="round" stroke-linejoin="round"/>
<g style="mix-blend-mode:multiply" opacity="0.33">
<path d="M9.95161 38.533C9.98777 38.4516 10.0269 38.3717 10.0668 38.2935C10.2482 37.9385 10.4651 37.5703 10.8111 37.3527C11.1051 37.1678 11.516 37.0955 11.8345 37.2589C12.1108 37.4007 12.2773 37.6924 12.5293 37.8737C12.6993 37.9775 12.8758 38.0701 13.0578 38.1508C13.2415 38.2335 13.3869 38.3828 13.4646 38.5685C13.5499 38.8291 13.4092 39.1071 13.4077 39.3812C13.4073 39.5325 13.4493 39.6808 13.529 39.8094C13.5794 39.8695 13.6118 39.9426 13.6225 40.0203C13.6148 40.0701 13.5937 40.1168 13.5615 40.1556C13.5293 40.1943 13.4871 40.2235 13.4395 40.24C13.1593 40.3722 12.8322 40.3245 12.5241 40.2912C12.2161 40.2578 11.8751 40.251 11.6314 40.4423C11.5318 40.5342 11.4394 40.6337 11.3553 40.7399C11.3197 40.7932 11.2728 40.8379 11.218 40.871C11.1631 40.9039 11.1017 40.9245 11.0379 40.9309C10.9743 40.9374 10.9099 40.9298 10.8495 40.9085C10.7891 40.8873 10.7341 40.8529 10.6886 40.808C10.4678 40.6231 10.2763 40.4059 10.1205 40.1639C9.95686 39.9593 9.84133 39.7207 9.78233 39.4655C9.72613 39.1487 9.81906 38.8313 9.95161 38.533Z" fill="#845B5B"/>
</g>
<g style="mix-blend-mode:multiply" opacity="0.33">
<path d="M12.2656 41.1384C12.3583 41.1384 12.4335 41.0632 12.4335 40.9705C12.4335 40.8779 12.3583 40.8027 12.2656 40.8027C12.1729 40.8027 12.0977 40.8779 12.0977 40.9705C12.0977 41.0632 12.1729 41.1384 12.2656 41.1384Z" fill="#845B5B"/>
</g>
<g style="mix-blend-mode:multiply" opacity="0.33">
<path d="M11.8272 41.1504C11.8914 41.1504 11.9435 41.0983 11.9435 41.0341C11.9435 40.97 11.8914 40.918 11.8272 40.918C11.763 40.918 11.7109 40.97 11.7109 41.0341C11.7109 41.0983 11.763 41.1504 11.8272 41.1504Z" fill="#845B5B"/>
</g>
<g style="mix-blend-mode:multiply" opacity="0.33">
<path d="M12.662 40.9216C12.7202 40.9216 12.7674 40.8744 12.7674 40.8162C12.7674 40.758 12.7202 40.7109 12.662 40.7109C12.6038 40.7109 12.5566 40.758 12.5566 40.8162C12.5566 40.8744 12.6038 40.9216 12.662 40.9216Z" fill="#845B5B"/>
</g>
<g style="mix-blend-mode:multiply" opacity="0.33">
<path d="M11.4603 41.1529C11.502 41.1529 11.5358 41.1191 11.5358 41.0774C11.5358 41.0357 11.502 41.002 11.4603 41.002C11.4186 41.002 11.3848 41.0357 11.3848 41.0774C11.3848 41.1191 11.4186 41.1529 11.4603 41.1529Z" fill="#845B5B"/>
</g>
<g style="mix-blend-mode:multiply" opacity="0.33">
<path d="M12.9953 40.7504C13.0208 40.7504 13.0414 40.7298 13.0414 40.7043C13.0414 40.6788 13.0208 40.6582 12.9953 40.6582C12.9698 40.6582 12.9492 40.6788 12.9492 40.7043C12.9492 40.7298 12.9698 40.7504 12.9953 40.7504Z" fill="#845B5B"/>
</g>
<g style="mix-blend-mode:multiply" opacity="0.33">
<path d="M9.61988 38.5619C9.67959 38.5619 9.72804 38.5135 9.72804 38.4538C9.72804 38.3941 9.67959 38.3457 9.61988 38.3457C9.5601 38.3457 9.51172 38.3941 9.51172 38.4538C9.51172 38.5135 9.5601 38.5619 9.61988 38.5619Z" fill="#845B5B"/>
</g>
<g style="mix-blend-mode:multiply" opacity="0.33">
<path d="M12.5647 37.2991C12.6208 37.2991 12.6664 37.2536 12.6664 37.1974C12.6664 37.1413 12.6208 37.0957 12.5647 37.0957C12.5085 37.0957 12.4629 37.1413 12.4629 37.1974C12.4629 37.2536 12.5085 37.2991 12.5647 37.2991Z" fill="#845B5B"/>
</g>
<g style="mix-blend-mode:multiply" opacity="0.33">
<path d="M13.2269 37.7916C13.2778 37.7916 13.3191 37.7504 13.3191 37.6995C13.3191 37.6486 13.2778 37.6074 13.2269 37.6074C13.176 37.6074 13.1348 37.6486 13.1348 37.6995C13.1348 37.7504 13.176 37.7916 13.2269 37.7916Z" fill="#845B5B"/>
</g>
<g style="mix-blend-mode:multiply" opacity="0.33">
<path d="M13.302 38.0006C13.3243 38.0006 13.3424 37.9825 13.3424 37.9602C13.3424 37.938 13.3243 37.9199 13.302 37.9199C13.2798 37.9199 13.2617 37.938 13.2617 37.9602C13.2617 37.9825 13.2798 38.0006 13.302 38.0006Z" fill="#845B5B"/>
</g>
<path d="M11.9555 39.5299C12.0733 39.5299 12.1688 39.4345 12.1688 39.3167C12.1688 39.199 12.0733 39.1035 11.9555 39.1035C11.8377 39.1035 11.7422 39.199 11.7422 39.3167C11.7422 39.4345 11.8377 39.5299 11.9555 39.5299Z" fill="#845B5B"/>
<path d="M11.26 38.8712C11.4662 38.8712 11.6333 38.7041 11.6333 38.4981C11.6333 38.292 11.4662 38.125 11.26 38.125C11.0538 38.125 10.8867 38.292 10.8867 38.4981C10.8867 38.7041 11.0538 38.8712 11.26 38.8712Z" fill="#845B5B"/>
<g style="mix-blend-mode:multiply" opacity="0.33">
<g style="mix-blend-mode:multiply" opacity="0.33">
<path d="M45.2225 27.9102H20.4758C19.651 27.9102 18.9824 28.5783 18.9824 29.4025V31.2656C18.9824 32.0898 19.651 32.7579 20.4758 32.7579H45.2225C46.0472 32.7579 46.7158 32.0898 46.7158 31.2656V29.4025C46.7158 28.5783 46.0472 27.9102 45.2225 27.9102Z" fill="#4E4E4E"/>
<path d="M45.2225 27.9102H20.4758C19.651 27.9102 18.9824 28.5783 18.9824 29.4025V31.2656C18.9824 32.0898 19.651 32.7579 20.4758 32.7579H45.2225C46.0472 32.7579 46.7158 32.0898 46.7158 31.2656V29.4025C46.7158 28.5783 46.0472 27.9102 45.2225 27.9102Z" stroke="black" stroke-width="0.106667" stroke-linecap="round" stroke-linejoin="round"/>
</g>
<g style="mix-blend-mode:multiply" opacity="0.33">
<path d="M45.2225 27.9102H20.4758C19.651 27.9102 18.9824 28.5783 18.9824 29.4025V31.2656C18.9824 32.0898 19.651 32.7579 20.4758 32.7579H45.2225C46.0472 32.7579 46.7158 32.0898 46.7158 31.2656V29.4025C46.7158 28.5783 46.0472 27.9102 45.2225 27.9102Z" fill="#4E4E4E"/>
</g>
<g style="mix-blend-mode:multiply" opacity="0.17">
<path d="M20.4757 27.9102H45.2224C45.6184 27.9102 45.9982 28.0674 46.2783 28.3473C46.5584 28.6271 46.7157 29.0067 46.7157 29.4025V31.5811C46.7157 31.8228 46.6196 32.0546 46.4486 32.2255C46.2776 32.3964 46.0457 32.4924 45.8038 32.4924H19.8944C19.6525 32.4924 19.4206 32.3964 19.2496 32.2255C19.0785 32.0546 18.9824 31.8228 18.9824 31.5811V29.4025C18.9824 29.0067 19.1398 28.6271 19.4199 28.3473C19.6999 28.0674 20.0797 27.9102 20.4758 27.9102H20.4757Z" fill="#4E4E4E"/>
</g>
<g style="mix-blend-mode:multiply" opacity="0.33">
<path d="M45.2225 27.9102H20.4758C19.651 27.9102 18.9824 28.5783 18.9824 29.4025V31.2656C18.9824 32.0898 19.651 32.7579 20.4758 32.7579H45.2225C46.0472 32.7579 46.7158 32.0898 46.7158 31.2656V29.4025C46.7158 28.5783 46.0472 27.9102 45.2225 27.9102Z" fill="#4E4E4E"/>
<path d="M45.2225 27.9102H20.4758C19.651 27.9102 18.9824 28.5783 18.9824 29.4025V31.2656C18.9824 32.0898 19.651 32.7579 20.4758 32.7579H45.2225C46.0472 32.7579 46.7158 32.0898 46.7158 31.2656V29.4025C46.7158 28.5783 46.0472 27.9102 45.2225 27.9102Z" stroke="#46505C" stroke-width="0.426667" stroke-linecap="round" stroke-linejoin="round"/>
</g>
<g style="mix-blend-mode:multiply" opacity="0.33">
<path d="M44.7937 32.1816V28.457H20.9004V32.1816H44.7937Z" fill="#4E4E4E"/>
</g>
<g style="mix-blend-mode:multiply" opacity="0.33">
<path d="M44.7937 32.1816V28.457H20.9004V32.1816H44.7937Z" fill="#4E4E4E"/>
<path d="M44.7937 32.1816V28.457H20.9004V32.1816H44.7937Z" stroke="#46505C" stroke-width="0.106667" stroke-linecap="round" stroke-linejoin="round"/>
</g>
<g style="mix-blend-mode:multiply" opacity="0.33">
<path d="M45.2224 32.7578H20.4758C19.651 32.7578 18.9824 33.426 18.9824 34.2502V49.6C18.9824 50.4242 19.651 51.0923 20.4758 51.0923H45.2224C46.0472 51.0923 46.7158 50.4242 46.7158 49.6V34.2502C46.7158 33.426 46.0472 32.7578 45.2224 32.7578Z" fill="#4E4E4E"/>
</g>
<g style="mix-blend-mode:multiply" opacity="0.33">
<path d="M46.2882 49.6014V34.2515C46.2882 33.6628 45.8106 33.1855 45.2215 33.1855H20.4749C19.8858 33.1855 19.4082 33.6628 19.4082 34.2515V49.6014C19.4082 50.19 19.8858 50.6673 20.4749 50.6673H45.2215C45.8106 50.6673 46.2882 50.19 46.2882 49.6014Z" fill="#4E4E4E"/>
<path d="M46.2882 49.6014V34.2515C46.2882 33.6628 45.8106 33.1855 45.2215 33.1855H20.4749C19.8858 33.1855 19.4082 33.6628 19.4082 34.2515V49.6014C19.4082 50.19 19.8858 50.6673 20.4749 50.6673H45.2215C45.8106 50.6673 46.2882 50.19 46.2882 49.6014Z" stroke="#E6F3FF" stroke-width="0.213333" stroke-miterlimit="10"/>
</g>
<g style="mix-blend-mode:multiply" opacity="0.33">
<path d="M31.1376 50.2598H34.5616C34.6748 50.2598 34.7833 50.3046 34.8633 50.3846C34.9433 50.4646 34.9882 50.573 34.9882 50.6861V51.0933H30.7109V50.6861C30.7109 50.573 30.7559 50.4646 30.8359 50.3846C30.9159 50.3046 31.0245 50.2598 31.1376 50.2598Z" fill="#4E4E4E"/>
</g>
<g style="mix-blend-mode:multiply" opacity="0.33">
<path d="M45.2224 32.7578H20.4758C19.651 32.7578 18.9824 33.426 18.9824 34.2502V49.6C18.9824 50.4242 19.651 51.0923 20.4758 51.0923H45.2224C46.0472 51.0923 46.7158 50.4242 46.7158 49.6V34.2502C46.7158 33.426 46.0472 32.7578 45.2224 32.7578Z" fill="#4E4E4E"/>
<path d="M45.2224 32.7578H20.4758C19.651 32.7578 18.9824 33.426 18.9824 34.2502V49.6C18.9824 50.4242 19.651 51.0923 20.4758 51.0923H45.2224C46.0472 51.0923 46.7158 50.4242 46.7158 49.6V34.2502C46.7158 33.426 46.0472 32.7578 45.2224 32.7578Z" stroke="#46505C" stroke-width="0.426667" stroke-linecap="round" stroke-linejoin="round"/>
</g>
<g style="mix-blend-mode:multiply" opacity="0.33">
<path d="M44.7935 34.1895H20.9001C20.7234 34.1895 20.5801 34.3326 20.5801 34.5092V43.6765C20.5801 43.8531 20.7234 43.9962 20.9001 43.9962H44.7935C44.9702 43.9962 45.1135 43.8531 45.1135 43.6765V34.5092C45.1135 34.3326 44.9702 34.1895 44.7935 34.1895Z" fill="#4E4E4E"/>
</g>
<g style="mix-blend-mode:multiply" opacity="0.33">
<path d="M25.2851 41.5977H24.0051C23.9462 41.5977 23.8984 41.6453 23.8984 41.7042V42.9834C23.8984 43.0423 23.9462 43.09 24.0051 43.09H25.2851C25.344 43.09 25.3917 43.0423 25.3917 42.9834V41.7042C25.3917 41.6453 25.344 41.5977 25.2851 41.5977Z" fill="#4E4E4E"/>
<path d="M25.2851 41.5977H24.0051C23.9462 41.5977 23.8984 41.6453 23.8984 41.7042V42.9834C23.8984 43.0423 23.9462 43.09 24.0051 43.09H25.2851C25.344 43.09 25.3917 43.0423 25.3917 42.9834V41.7042C25.3917 41.6453 25.344 41.5977 25.2851 41.5977Z" stroke="#626C84" stroke-width="0.106667" stroke-linecap="round" stroke-linejoin="round"/>
</g>
<g style="mix-blend-mode:multiply" opacity="0.33">
<path d="M22.9745 41.5977H21.6945C21.6356 41.5977 21.5879 41.6453 21.5879 41.7042V42.9834C21.5879 43.0423 21.6356 43.09 21.6945 43.09H22.9745C23.0335 43.09 23.0812 43.0423 23.0812 42.9834V41.7042C23.0812 41.6453 23.0335 41.5977 22.9745 41.5977Z" fill="#4E4E4E"/>
<path d="M22.9745 41.5977H21.6945C21.6356 41.5977 21.5879 41.6453 21.5879 41.7042V42.9834C21.5879 43.0423 21.6356 43.09 21.6945 43.09H22.9745C23.0335 43.09 23.0812 43.0423 23.0812 42.9834V41.7042C23.0812 41.6453 23.0335 41.5977 22.9745 41.5977Z" stroke="#626C84" stroke-width="0.106667" stroke-linecap="round" stroke-linejoin="round"/>
</g>
<g style="mix-blend-mode:multiply" opacity="0.33">
<path d="M36.8242 41.5977H26.3117C26.2528 41.5977 26.2051 41.6453 26.2051 41.7042V42.9834C26.2051 43.0423 26.2528 43.09 26.3117 43.09H36.8242C36.883 43.09 36.9308 43.0423 36.9308 42.9834V41.7042C36.9308 41.6453 36.883 41.5977 36.8242 41.5977Z" fill="#4E4E4E"/>
<path d="M36.8242 41.5977H26.3117C26.2528 41.5977 26.2051 41.6453 26.2051 41.7042V42.9834C26.2051 43.0423 26.2528 43.09 26.3117 43.09H36.8242C36.883 43.09 36.9308 43.0423 36.9308 42.9834V41.7042C36.9308 41.6453 36.883 41.5977 36.8242 41.5977Z" stroke="#626C84" stroke-width="0.106667" stroke-linecap="round" stroke-linejoin="round"/>
</g>
<g style="mix-blend-mode:multiply" opacity="0.33">
<path d="M39.1328 41.5977H37.8528C37.7939 41.5977 37.7461 41.6453 37.7461 41.7042V42.9834C37.7461 43.0423 37.7939 43.09 37.8528 43.09H39.1328C39.1917 43.09 39.2395 43.0423 39.2395 42.9834V41.7042C39.2395 41.6453 39.1917 41.5977 39.1328 41.5977Z" fill="#4E4E4E"/>
<path d="M39.1328 41.5977H37.8528C37.7939 41.5977 37.7461 41.6453 37.7461 41.7042V42.9834C37.7461 43.0423 37.7939 43.09 37.8528 43.09H39.1328C39.1917 43.09 39.2395 43.0423 39.2395 42.9834V41.7042C39.2395 41.6453 39.1917 41.5977 39.1328 41.5977Z" stroke="#626C84" stroke-width="0.106667" stroke-linecap="round" stroke-linejoin="round"/>
</g>
<g style="mix-blend-mode:multiply" opacity="0.33">
<path d="M42.5088 42.4375H41.6554C41.5966 42.4375 41.5488 42.4852 41.5488 42.5441V42.9838C41.5488 43.0427 41.5966 43.0904 41.6554 43.0904H42.5088C42.5677 43.0904 42.6154 43.0427 42.6154 42.9838V42.5441C42.6154 42.4852 42.5677 42.4375 42.5088 42.4375Z" fill="#4E4E4E"/>
<path d="M42.5088 42.4375H41.6554C41.5966 42.4375 41.5488 42.4852 41.5488 42.5441V42.9838C41.5488 43.0427 41.5966 43.0904 41.6554 43.0904H42.5088C42.5677 43.0904 42.6154 43.0427 42.6154 42.9838V42.5441C42.6154 42.4852 42.5677 42.4375 42.5088 42.4375Z" stroke="#626C84" stroke-width="0.106667" stroke-linecap="round" stroke-linejoin="round"/>
</g>
<g style="mix-blend-mode:multiply" opacity="0.33">
<path d="M42.5088 41.5977H41.6554C41.5966 41.5977 41.5488 41.6453 41.5488 41.7042V42.144C41.5488 42.2028 41.5966 42.2505 41.6554 42.2505H42.5088C42.5677 42.2505 42.6154 42.2028 42.6154 42.144V41.7042C42.6154 41.6453 42.5677 41.5977 42.5088 41.5977Z" fill="#4E4E4E"/>
<path d="M42.5088 41.5977H41.6554C41.5966 41.5977 41.5488 41.6453 41.5488 41.7042V42.144C41.5488 42.2028 41.5966 42.2505 41.6554 42.2505H42.5088C42.5677 42.2505 42.6154 42.2028 42.6154 42.144V41.7042C42.6154 41.6453 42.5677 41.5977 42.5088 41.5977Z" stroke="#626C84" stroke-width="0.106667" stroke-linecap="round" stroke-linejoin="round"/>
</g>
<g style="mix-blend-mode:multiply" opacity="0.33">
<path d="M44.001 42.4375H43.1477C43.0888 42.4375 43.041 42.4852 43.041 42.5441V42.9838C43.041 43.0427 43.0888 43.0904 43.1477 43.0904H44.001C44.06 43.0904 44.1077 43.0427 44.1077 42.9838V42.5441C44.1077 42.4852 44.06 42.4375 44.001 42.4375Z" fill="#4E4E4E"/>
<path d="M44.001 42.4375H43.1477C43.0888 42.4375 43.041 42.4852 43.041 42.5441V42.9838C43.041 43.0427 43.0888 43.0904 43.1477 43.0904H44.001C44.06 43.0904 44.1077 43.0427 44.1077 42.9838V42.5441C44.1077 42.4852 44.06 42.4375 44.001 42.4375Z" stroke="#626C84" stroke-width="0.106667" stroke-linecap="round" stroke-linejoin="round"/>
</g>
<g style="mix-blend-mode:multiply" opacity="0.33">
<path d="M41.0127 42.4375H40.1594C40.1005 42.4375 40.0527 42.4852 40.0527 42.5441V42.9838C40.0527 43.0427 40.1005 43.0904 40.1594 43.0904H41.0127C41.0717 43.0904 41.1194 43.0427 41.1194 42.9838V42.5441C41.1194 42.4852 41.0717 42.4375 41.0127 42.4375Z" fill="#4E4E4E"/>
<path d="M41.0127 42.4375H40.1594C40.1005 42.4375 40.0527 42.4852 40.0527 42.5441V42.9838C40.0527 43.0427 40.1005 43.0904 40.1594 43.0904H41.0127C41.0717 43.0904 41.1194 43.0427 41.1194 42.9838V42.5441C41.1194 42.4852 41.0717 42.4375 41.0127 42.4375Z" stroke="#626C84" stroke-width="0.106667" stroke-linecap="round" stroke-linejoin="round"/>
</g>
<g style="mix-blend-mode:multiply" opacity="0.33">
<path d="M25.0713 39.4746H21.6965C21.6376 39.4746 21.5898 39.5224 21.5898 39.5812V40.8603C21.5898 40.9192 21.6376 40.967 21.6965 40.967H25.0713C25.1302 40.967 25.178 40.9192 25.178 40.8603V39.5812C25.178 39.5224 25.1302 39.4746 25.0713 39.4746Z" fill="#4E4E4E"/>
<path d="M25.0713 39.4746H21.6965C21.6376 39.4746 21.5898 39.5224 21.5898 39.5812V40.8603C21.5898 40.9192 21.6376 40.967 21.6965 40.967H25.0713C25.1302 40.967 25.178 40.9192 25.178 40.8603V39.5812C25.178 39.5224 25.1302 39.4746 25.0713 39.4746Z" stroke="#626C84" stroke-width="0.106667" stroke-linecap="round" stroke-linejoin="round"/>
</g>
<g style="mix-blend-mode:multiply" opacity="0.33">
<path d="M27.3965 39.4746H26.1165C26.0576 39.4746 26.0098 39.5224 26.0098 39.5812V40.8603C26.0098 40.9192 26.0576 40.967 26.1165 40.967H27.3965C27.4553 40.967 27.5031 40.9192 27.5031 40.8603V39.5812C27.5031 39.5224 27.4553 39.4746 27.3965 39.4746Z" fill="#4E4E4E"/>
<path d="M27.3965 39.4746H26.1165C26.0576 39.4746 26.0098 39.5224 26.0098 39.5812V40.8603C26.0098 40.9192 26.0576 40.967 26.1165 40.967H27.3965C27.4553 40.967 27.5031 40.9192 27.5031 40.8603V39.5812C27.5031 39.5224 27.4553 39.4746 27.3965 39.4746Z" stroke="#626C84" stroke-width="0.106667" stroke-linecap="round" stroke-linejoin="round"/>
</g>
<g style="mix-blend-mode:multiply" opacity="0.33">
<path d="M29.707 39.4746H28.427C28.3681 39.4746 28.3203 39.5224 28.3203 39.5812V40.8603C28.3203 40.9192 28.3681 40.967 28.427 40.967H29.707C29.7659 40.967 29.8137 40.9192 29.8137 40.8603V39.5812C29.8137 39.5224 29.7659 39.4746 29.707 39.4746Z" fill="#4E4E4E"/>
<path d="M29.707 39.4746H28.427C28.3681 39.4746 28.3203 39.5224 28.3203 39.5812V40.8603C28.3203 40.9192 28.3681 40.967 28.427 40.967H29.707C29.7659 40.967 29.8137 40.9192 29.8137 40.8603V39.5812C29.8137 39.5224 29.7659 39.4746 29.707 39.4746Z" stroke="#626C84" stroke-width="0.106667" stroke-linecap="round" stroke-linejoin="round"/>
</g>
<g style="mix-blend-mode:multiply" opacity="0.33">
<path d="M32.0156 39.4746H30.7356C30.6766 39.4746 30.6289 39.5224 30.6289 39.5812V40.8603C30.6289 40.9192 30.6766 40.967 30.7356 40.967H32.0156C32.0745 40.967 32.1223 40.9192 32.1223 40.8603V39.5812C32.1223 39.5224 32.0745 39.4746 32.0156 39.4746Z" fill="#4E4E4E"/>
<path d="M32.0156 39.4746H30.7356C30.6766 39.4746 30.6289 39.5224 30.6289 39.5812V40.8603C30.6289 40.9192 30.6766 40.967 30.7356 40.967H32.0156C32.0745 40.967 32.1223 40.9192 32.1223 40.8603V39.5812C32.1223 39.5224 32.0745 39.4746 32.0156 39.4746Z" stroke="#626C84" stroke-width="0.106667" stroke-linecap="round" stroke-linejoin="round"/>
</g>
<g style="mix-blend-mode:multiply" opacity="0.33">
<path d="M34.3222 39.4746H33.0422C32.9833 39.4746 32.9355 39.5224 32.9355 39.5812V40.8603C32.9355 40.9192 32.9833 40.967 33.0422 40.967H34.3222C34.3811 40.967 34.4289 40.9192 34.4289 40.8603V39.5812C34.4289 39.5224 34.3811 39.4746 34.3222 39.4746Z" fill="#4E4E4E"/>
<path d="M34.3222 39.4746H33.0422C32.9833 39.4746 32.9355 39.5224 32.9355 39.5812V40.8603C32.9355 40.9192 32.9833 40.967 33.0422 40.967H34.3222C34.3811 40.967 34.4289 40.9192 34.4289 40.8603V39.5812C34.4289 39.5224 34.3811 39.4746 34.3222 39.4746Z" stroke="#626C84" stroke-width="0.106667" stroke-linecap="round" stroke-linejoin="round"/>
</g>
<g style="mix-blend-mode:multiply" opacity="0.33">
<path d="M36.6308 39.4746H35.3508C35.2919 39.4746 35.2441 39.5224 35.2441 39.5812V40.8603C35.2441 40.9192 35.2919 40.967 35.3508 40.967H36.6308C36.6897 40.967 36.7374 40.9192 36.7374 40.8603V39.5812C36.7374 39.5224 36.6897 39.4746 36.6308 39.4746Z" fill="#4E4E4E"/>
<path d="M36.6308 39.4746H35.3508C35.2919 39.4746 35.2441 39.5224 35.2441 39.5812V40.8603C35.2441 40.9192 35.2919 40.967 35.3508 40.967H36.6308C36.6897 40.967 36.7374 40.9192 36.7374 40.8603V39.5812C36.7374 39.5224 36.6897 39.4746 36.6308 39.4746Z" stroke="#626C84" stroke-width="0.106667" stroke-linecap="round" stroke-linejoin="round"/>
</g>
<g style="mix-blend-mode:multiply" opacity="0.33">
<path d="M38.9394 39.4746H37.6594C37.6005 39.4746 37.5527 39.5224 37.5527 39.5812V40.8603C37.5527 40.9192 37.6005 40.967 37.6594 40.967H38.9394C38.9983 40.967 39.046 40.9192 39.046 40.8603V39.5812C39.046 39.5224 38.9983 39.4746 38.9394 39.4746Z" fill="#4E4E4E"/>
<path d="M38.9394 39.4746H37.6594C37.6005 39.4746 37.5527 39.5224 37.5527 39.5812V40.8603C37.5527 40.9192 37.6005 40.967 37.6594 40.967H38.9394C38.9983 40.967 39.046 40.9192 39.046 40.8603V39.5812C39.046 39.5224 38.9983 39.4746 38.9394 39.4746Z" stroke="#626C84" stroke-width="0.106667" stroke-linecap="round" stroke-linejoin="round"/>
</g>
<g style="mix-blend-mode:multiply" opacity="0.33">
<path d="M43.9994 39.4746H40.1594C40.1005 39.4746 40.0527 39.5224 40.0527 39.5812V40.8603C40.0527 40.9192 40.1005 40.967 40.1594 40.967H43.9994C44.0583 40.967 44.1061 40.9192 44.1061 40.8603V39.5812C44.1061 39.5224 44.0583 39.4746 43.9994 39.4746Z" fill="#4E4E4E"/>
<path d="M43.9994 39.4746H40.1594C40.1005 39.4746 40.0527 39.5224 40.0527 39.5812V40.8603C40.0527 40.9192 40.1005 40.967 40.1594 40.967H43.9994C44.0583 40.967 44.1061 40.9192 44.1061 40.8603V39.5812C44.1061 39.5224 44.0583 39.4746 43.9994 39.4746Z" stroke="#626C84" stroke-width="0.106667" stroke-linecap="round" stroke-linejoin="round"/>
</g>
<g style="mix-blend-mode:multiply" opacity="0.33">
<path d="M26.5624 37.291H25.2824C25.2235 37.291 25.1758 37.3387 25.1758 37.3976V38.6767C25.1758 38.7356 25.2235 38.7833 25.2824 38.7833H26.5624C26.6214 38.7833 26.6691 38.7356 26.6691 38.6767V37.3976C26.6691 37.3387 26.6214 37.291 26.5624 37.291Z" fill="#4E4E4E"/>
<path d="M26.5624 37.291H25.2824C25.2235 37.291 25.1758 37.3387 25.1758 37.3976V38.6767C25.1758 38.7356 25.2235 38.7833 25.2824 38.7833H26.5624C26.6214 38.7833 26.6691 38.7356 26.6691 38.6767V37.3976C26.6691 37.3387 26.6214 37.291 26.5624 37.291Z" stroke="#626C84" stroke-width="0.106667" stroke-linecap="round" stroke-linejoin="round"/>
</g>
<g style="mix-blend-mode:multiply" opacity="0.33">
<path d="M24.2545 37.291H21.6945C21.6356 37.291 21.5879 37.3387 21.5879 37.3976V38.6767C21.5879 38.7356 21.6356 38.7833 21.6945 38.7833H24.2545C24.3135 38.7833 24.3612 38.7356 24.3612 38.6767V37.3976C24.3612 37.3387 24.3135 37.291 24.2545 37.291Z" fill="#4E4E4E"/>
<path d="M24.2545 37.291H21.6945C21.6356 37.291 21.5879 37.3387 21.5879 37.3976V38.6767C21.5879 38.7356 21.6356 38.7833 21.6945 38.7833H24.2545C24.3135 38.7833 24.3612 38.7356 24.3612 38.6767V37.3976C24.3612 37.3387 24.3135 37.291 24.2545 37.291Z" stroke="#626C84" stroke-width="0.106667" stroke-linecap="round" stroke-linejoin="round"/>
</g>
<g style="mix-blend-mode:multiply" opacity="0.33">
<path d="M28.873 37.291H27.593C27.5341 37.291 27.4863 37.3387 27.4863 37.3976V38.6767C27.4863 38.7356 27.5341 38.7833 27.593 38.7833H28.873C28.9319 38.7833 28.9796 38.7356 28.9796 38.6767V37.3976C28.9796 37.3387 28.9319 37.291 28.873 37.291Z" fill="#4E4E4E"/>
<path d="M28.873 37.291H27.593C27.5341 37.291 27.4863 37.3387 27.4863 37.3976V38.6767C27.4863 38.7356 27.5341 38.7833 27.593 38.7833H28.873C28.9319 38.7833 28.9796 38.7356 28.9796 38.6767V37.3976C28.9796 37.3387 28.9319 37.291 28.873 37.291Z" stroke="#626C84" stroke-width="0.106667" stroke-linecap="round" stroke-linejoin="round"/>
</g>
<g style="mix-blend-mode:multiply" opacity="0.33">
<path d="M31.1797 37.291H29.8997C29.8407 37.291 29.793 37.3387 29.793 37.3976V38.6767C29.793 38.7356 29.8407 38.7833 29.8997 38.7833H31.1797C31.2385 38.7833 31.2863 38.7356 31.2863 38.6767V37.3976C31.2863 37.3387 31.2385 37.291 31.1797 37.291Z" fill="#4E4E4E"/>
<path d="M31.1797 37.291H29.8997C29.8407 37.291 29.793 37.3387 29.793 37.3976V38.6767C29.793 38.7356 29.8407 38.7833 29.8997 38.7833H31.1797C31.2385 38.7833 31.2863 38.7356 31.2863 38.6767V37.3976C31.2863 37.3387 31.2385 37.291 31.1797 37.291Z" stroke="#626C84" stroke-width="0.106667" stroke-linecap="round" stroke-linejoin="round"/>
</g>
<g style="mix-blend-mode:multiply" opacity="0.33">
<path d="M33.4882 37.291H32.2083C32.1493 37.291 32.1016 37.3387 32.1016 37.3976V38.6767C32.1016 38.7356 32.1493 38.7833 32.2083 38.7833H33.4882C33.5471 38.7833 33.5949 38.7356 33.5949 38.6767V37.3976C33.5949 37.3387 33.5471 37.291 33.4882 37.291Z" fill="#4E4E4E"/>
<path d="M33.4882 37.291H32.2083C32.1493 37.291 32.1016 37.3387 32.1016 37.3976V38.6767C32.1016 38.7356 32.1493 38.7833 32.2083 38.7833H33.4882C33.5471 38.7833 33.5949 38.7356 33.5949 38.6767V37.3976C33.5949 37.3387 33.5471 37.291 33.4882 37.291Z" stroke="#626C84" stroke-width="0.106667" stroke-linecap="round" stroke-linejoin="round"/>
</g>
<g style="mix-blend-mode:multiply" opacity="0.33">
<path d="M35.7968 37.291H34.5168C34.4579 37.291 34.4102 37.3387 34.4102 37.3976V38.6767C34.4102 38.7356 34.4579 38.7833 34.5168 38.7833H35.7968C35.8557 38.7833 35.9035 38.7356 35.9035 38.6767V37.3976C35.9035 37.3387 35.8557 37.291 35.7968 37.291Z" fill="#4E4E4E"/>
<path d="M35.7968 37.291H34.5168C34.4579 37.291 34.4102 37.3387 34.4102 37.3976V38.6767C34.4102 38.7356 34.4579 38.7833 34.5168 38.7833H35.7968C35.8557 38.7833 35.9035 38.7356 35.9035 38.6767V37.3976C35.9035 37.3387 35.8557 37.291 35.7968 37.291Z" stroke="#626C84" stroke-width="0.106667" stroke-linecap="round" stroke-linejoin="round"/>
</g>
<g style="mix-blend-mode:multiply" opacity="0.33">
<path d="M38.1054 37.291H36.8254C36.7666 37.291 36.7188 37.3387 36.7188 37.3976V38.6767C36.7188 38.7356 36.7666 38.7833 36.8254 38.7833H38.1054C38.1644 38.7833 38.2121 38.7356 38.2121 38.6767V37.3976C38.2121 37.3387 38.1644 37.291 38.1054 37.291Z" fill="#4E4E4E"/>
<path d="M38.1054 37.291H36.8254C36.7666 37.291 36.7188 37.3387 36.7188 37.3976V38.6767C36.7188 38.7356 36.7666 38.7833 36.8254 38.7833H38.1054C38.1644 38.7833 38.2121 38.7356 38.2121 38.6767V37.3976C38.2121 37.3387 38.1644 37.291 38.1054 37.291Z" stroke="#626C84" stroke-width="0.106667" stroke-linecap="round" stroke-linejoin="round"/>
</g>
<g style="mix-blend-mode:multiply" opacity="0.33">
<path d="M40.4121 37.291H39.1321C39.0732 37.291 39.0254 37.3387 39.0254 37.3976V38.6767C39.0254 38.7356 39.0732 38.7833 39.1321 38.7833H40.4121C40.471 38.7833 40.5188 38.7356 40.5188 38.6767V37.3976C40.5188 37.3387 40.471 37.291 40.4121 37.291Z" fill="#4E4E4E"/>
<path d="M40.4121 37.291H39.1321C39.0732 37.291 39.0254 37.3387 39.0254 37.3976V38.6767C39.0254 38.7356 39.0732 38.7833 39.1321 38.7833H40.4121C40.471 38.7833 40.5188 38.7356 40.5188 38.6767V37.3976C40.5188 37.3387 40.471 37.291 40.4121 37.291Z" stroke="#626C84" stroke-width="0.106667" stroke-linecap="round" stroke-linejoin="round"/>
</g>
<g style="mix-blend-mode:multiply" opacity="0.33">
<path d="M44.0007 37.291H41.4407C41.3817 37.291 41.334 37.3387 41.334 37.3976V38.6767C41.334 38.7356 41.3817 38.7833 41.4407 38.7833H44.0007C44.0596 38.7833 44.1074 38.7356 44.1074 38.6767V37.3976C44.1074 37.3387 44.0596 37.291 44.0007 37.291Z" fill="#4E4E4E"/>
<path d="M44.0007 37.291H41.4407C41.3817 37.291 41.334 37.3387 41.334 37.3976V38.6767C41.334 38.7356 41.3817 38.7833 41.4407 38.7833H44.0007C44.0596 38.7833 44.1074 38.7356 44.1074 38.6767V37.3976C44.1074 37.3387 44.0596 37.291 44.0007 37.291Z" stroke="#626C84" stroke-width="0.106667" stroke-linecap="round" stroke-linejoin="round"/>
</g>
<g style="mix-blend-mode:multiply" opacity="0.33">
<path d="M25.3105 35.2012H24.0305C23.9716 35.2012 23.9238 35.2489 23.9238 35.3078V36.5869C23.9238 36.6458 23.9716 36.6935 24.0305 36.6935H25.3105C25.3694 36.6935 25.4171 36.6458 25.4171 36.5869V35.3078C25.4171 35.2489 25.3694 35.2012 25.3105 35.2012Z" fill="#4E4E4E"/>
<path d="M25.3105 35.2012H24.0305C23.9716 35.2012 23.9238 35.2489 23.9238 35.3078V36.5869C23.9238 36.6458 23.9716 36.6935 24.0305 36.6935H25.3105C25.3694 36.6935 25.4171 36.6458 25.4171 36.5869V35.3078C25.4171 35.2489 25.3694 35.2012 25.3105 35.2012Z" stroke="#626C84" stroke-width="0.106667" stroke-linecap="round" stroke-linejoin="round"/>
</g>
<g style="mix-blend-mode:multiply" opacity="0.33">
<path d="M22.9765 35.2012H21.6965C21.6376 35.2012 21.5898 35.2489 21.5898 35.3078V36.5869C21.5898 36.6458 21.6376 36.6935 21.6965 36.6935H22.9765C23.0354 36.6935 23.0832 36.6458 23.0832 36.5869V35.3078C23.0832 35.2489 23.0354 35.2012 22.9765 35.2012Z" fill="#4E4E4E"/>
<path d="M22.9765 35.2012H21.6965C21.6376 35.2012 21.5898 35.2489 21.5898 35.3078V36.5869C21.5898 36.6458 21.6376 36.6935 21.6965 36.6935H22.9765C23.0354 36.6935 23.0832 36.6458 23.0832 36.5869V35.3078C23.0832 35.2489 23.0354 35.2012 22.9765 35.2012Z" stroke="#626C84" stroke-width="0.106667" stroke-linecap="round" stroke-linejoin="round"/>
</g>
<g style="mix-blend-mode:multiply" opacity="0.33">
<path d="M27.6483 35.2012H26.3683C26.3095 35.2012 26.2617 35.2489 26.2617 35.3078V36.5869C26.2617 36.6458 26.3095 36.6935 26.3683 36.6935H27.6483C27.7073 36.6935 27.755 36.6458 27.755 36.5869V35.3078C27.755 35.2489 27.7073 35.2012 27.6483 35.2012Z" fill="#4E4E4E"/>
<path d="M27.6483 35.2012H26.3683C26.3095 35.2012 26.2617 35.2489 26.2617 35.3078V36.5869C26.2617 36.6458 26.3095 36.6935 26.3683 36.6935H27.6483C27.7073 36.6935 27.755 36.6458 27.755 36.5869V35.3078C27.755 35.2489 27.7073 35.2012 27.6483 35.2012Z" stroke="#626C84" stroke-width="0.106667" stroke-linecap="round" stroke-linejoin="round"/>
</g>
<g style="mix-blend-mode:multiply" opacity="0.33">
<path d="M29.9843 35.2012H28.7043C28.6454 35.2012 28.5977 35.2489 28.5977 35.3078V36.5869C28.5977 36.6458 28.6454 36.6935 28.7043 36.6935H29.9843C30.0432 36.6935 30.091 36.6458 30.091 36.5869V35.3078C30.091 35.2489 30.0432 35.2012 29.9843 35.2012Z" fill="#4E4E4E"/>
<path d="M29.9843 35.2012H28.7043C28.6454 35.2012 28.5977 35.2489 28.5977 35.3078V36.5869C28.5977 36.6458 28.6454 36.6935 28.7043 36.6935H29.9843C30.0432 36.6935 30.091 36.6458 30.091 36.5869V35.3078C30.091 35.2489 30.0432 35.2012 29.9843 35.2012Z" stroke="#626C84" stroke-width="0.106667" stroke-linecap="round" stroke-linejoin="round"/>
</g>
<g style="mix-blend-mode:multiply" opacity="0.33">
<path d="M32.3203 35.2012H31.0403C30.9814 35.2012 30.9336 35.2489 30.9336 35.3078V36.5869C30.9336 36.6458 30.9814 36.6935 31.0403 36.6935H32.3203C32.3792 36.6935 32.427 36.6458 32.427 36.5869V35.3078C32.427 35.2489 32.3792 35.2012 32.3203 35.2012Z" fill="#4E4E4E"/>
<path d="M32.3203 35.2012H31.0403C30.9814 35.2012 30.9336 35.2489 30.9336 35.3078V36.5869C30.9336 36.6458 30.9814 36.6935 31.0403 36.6935H32.3203C32.3792 36.6935 32.427 36.6458 32.427 36.5869V35.3078C32.427 35.2489 32.3792 35.2012 32.3203 35.2012Z" stroke="#626C84" stroke-width="0.106667" stroke-linecap="round" stroke-linejoin="round"/>
</g>
<g style="mix-blend-mode:multiply" opacity="0.33">
<path d="M34.6562 35.2012H33.3762C33.3173 35.2012 33.2695 35.2489 33.2695 35.3078V36.5869C33.2695 36.6458 33.3173 36.6935 33.3762 36.6935H34.6562C34.7152 36.6935 34.7629 36.6458 34.7629 36.5869V35.3078C34.7629 35.2489 34.7152 35.2012 34.6562 35.2012Z" fill="#4E4E4E"/>
<path d="M34.6562 35.2012H33.3762C33.3173 35.2012 33.2695 35.2489 33.2695 35.3078V36.5869C33.2695 36.6458 33.3173 36.6935 33.3762 36.6935H34.6562C34.7152 36.6935 34.7629 36.6458 34.7629 36.5869V35.3078C34.7629 35.2489 34.7152 35.2012 34.6562 35.2012Z" stroke="#626C84" stroke-width="0.106667" stroke-linecap="round" stroke-linejoin="round"/>
</g>
<g style="mix-blend-mode:multiply" opacity="0.33">
<path d="M36.9922 35.2012H35.7122C35.6533 35.2012 35.6055 35.2489 35.6055 35.3078V36.5869C35.6055 36.6458 35.6533 36.6935 35.7122 36.6935H36.9922C37.0511 36.6935 37.0988 36.6458 37.0988 36.5869V35.3078C37.0988 35.2489 37.0511 35.2012 36.9922 35.2012Z" fill="#4E4E4E"/>
<path d="M36.9922 35.2012H35.7122C35.6533 35.2012 35.6055 35.2489 35.6055 35.3078V36.5869C35.6055 36.6458 35.6533 36.6935 35.7122 36.6935H36.9922C37.0511 36.6935 37.0988 36.6458 37.0988 36.5869V35.3078C37.0988 35.2489 37.0511 35.2012 36.9922 35.2012Z" stroke="#626C84" stroke-width="0.106667" stroke-linecap="round" stroke-linejoin="round"/>
</g>
<g style="mix-blend-mode:multiply" opacity="0.33">
<path d="M39.3281 35.2012H38.0481C37.9892 35.2012 37.9414 35.2489 37.9414 35.3078V36.5869C37.9414 36.6458 37.9892 36.6935 38.0481 36.6935H39.3281C39.387 36.6935 39.4348 36.6458 39.4348 36.5869V35.3078C39.4348 35.2489 39.387 35.2012 39.3281 35.2012Z" fill="#4E4E4E"/>
<path d="M39.3281 35.2012H38.0481C37.9892 35.2012 37.9414 35.2489 37.9414 35.3078V36.5869C37.9414 36.6458 37.9892 36.6935 38.0481 36.6935H39.3281C39.387 36.6935 39.4348 36.6458 39.4348 36.5869V35.3078C39.4348 35.2489 39.387 35.2012 39.3281 35.2012Z" stroke="#626C84" stroke-width="0.106667" stroke-linecap="round" stroke-linejoin="round"/>
</g>
<g style="mix-blend-mode:multiply" opacity="0.33">
<path d="M41.666 35.2012H40.386C40.3271 35.2012 40.2793 35.2489 40.2793 35.3078V36.5869C40.2793 36.6458 40.3271 36.6935 40.386 36.6935H41.666C41.7249 36.6935 41.7727 36.6458 41.7727 36.5869V35.3078C41.7727 35.2489 41.7249 35.2012 41.666 35.2012Z" fill="#4E4E4E"/>
<path d="M41.666 35.2012H40.386C40.3271 35.2012 40.2793 35.2489 40.2793 35.3078V36.5869C40.2793 36.6458 40.3271 36.6935 40.386 36.6935H41.666C41.7249 36.6935 41.7727 36.6458 41.7727 36.5869V35.3078C41.7727 35.2489 41.7249 35.2012 41.666 35.2012Z" stroke="#626C84" stroke-width="0.106667" stroke-linecap="round" stroke-linejoin="round"/>
</g>
<g style="mix-blend-mode:multiply" opacity="0.33">
<path d="M44.0019 35.2012H42.7219C42.663 35.2012 42.6152 35.2489 42.6152 35.3078V36.5869C42.6152 36.6458 42.663 36.6935 42.7219 36.6935H44.0019C44.0608 36.6935 44.1086 36.6458 44.1086 36.5869V35.3078C44.1086 35.2489 44.0608 35.2012 44.0019 35.2012Z" fill="#4E4E4E"/>
<path d="M44.0019 35.2012H42.7219C42.663 35.2012 42.6152 35.2489 42.6152 35.3078V36.5869C42.6152 36.6458 42.663 36.6935 42.7219 36.6935H44.0019C44.0608 36.6935 44.1086 36.6458 44.1086 36.5869V35.3078C44.1086 35.2489 44.0608 35.2012 44.0019 35.2012Z" stroke="#626C84" stroke-width="0.106667" stroke-linecap="round" stroke-linejoin="round"/>
</g>
<g style="mix-blend-mode:multiply" opacity="0.33">
<path d="M25.2851 41.5977H24.0051C23.9462 41.5977 23.8984 41.6453 23.8984 41.7042V42.9834C23.8984 43.0423 23.9462 43.09 24.0051 43.09H25.2851C25.344 43.09 25.3917 43.0423 25.3917 42.9834V41.7042C25.3917 41.6453 25.344 41.5977 25.2851 41.5977Z" fill="#4E4E4E"/>
</g>
<g style="mix-blend-mode:multiply" opacity="0.33">
<path d="M22.9745 41.5977H21.6945C21.6356 41.5977 21.5879 41.6453 21.5879 41.7042V42.9834C21.5879 43.0423 21.6356 43.09 21.6945 43.09H22.9745C23.0335 43.09 23.0812 43.0423 23.0812 42.9834V41.7042C23.0812 41.6453 23.0335 41.5977 22.9745 41.5977Z" fill="#4E4E4E"/>
</g>
<g style="mix-blend-mode:multiply" opacity="0.33">
<path d="M36.8242 41.5977H26.3117C26.2528 41.5977 26.2051 41.6453 26.2051 41.7042V42.9834C26.2051 43.0423 26.2528 43.09 26.3117 43.09H36.8242C36.883 43.09 36.9308 43.0423 36.9308 42.9834V41.7042C36.9308 41.6453 36.883 41.5977 36.8242 41.5977Z" fill="#4E4E4E"/>
</g>
<g style="mix-blend-mode:multiply" opacity="0.33">
<path d="M39.1328 41.5977H37.8528C37.7939 41.5977 37.7461 41.6453 37.7461 41.7042V42.9834C37.7461 43.0423 37.7939 43.09 37.8528 43.09H39.1328C39.1917 43.09 39.2395 43.0423 39.2395 42.9834V41.7042C39.2395 41.6453 39.1917 41.5977 39.1328 41.5977Z" fill="#4E4E4E"/>
</g>
<g style="mix-blend-mode:multiply" opacity="0.33">
<path d="M42.5088 42.4375H41.6554C41.5966 42.4375 41.5488 42.4852 41.5488 42.5441V42.9838C41.5488 43.0427 41.5966 43.0904 41.6554 43.0904H42.5088C42.5677 43.0904 42.6154 43.0427 42.6154 42.9838V42.5441C42.6154 42.4852 42.5677 42.4375 42.5088 42.4375Z" fill="#4E4E4E"/>
</g>
<g style="mix-blend-mode:multiply" opacity="0.33">
<path d="M42.5088 41.5977H41.6554C41.5966 41.5977 41.5488 41.6453 41.5488 41.7042V42.144C41.5488 42.2028 41.5966 42.2505 41.6554 42.2505H42.5088C42.5677 42.2505 42.6154 42.2028 42.6154 42.144V41.7042C42.6154 41.6453 42.5677 41.5977 42.5088 41.5977Z" fill="#4E4E4E"/>
</g>
<g style="mix-blend-mode:multiply" opacity="0.33">
<path d="M44.001 42.4375H43.1477C43.0888 42.4375 43.041 42.4852 43.041 42.5441V42.9838C43.041 43.0427 43.0888 43.0904 43.1477 43.0904H44.001C44.06 43.0904 44.1077 43.0427 44.1077 42.9838V42.5441C44.1077 42.4852 44.06 42.4375 44.001 42.4375Z" fill="#4E4E4E"/>
</g>
<g style="mix-blend-mode:multiply" opacity="0.33">
<path d="M41.0127 42.4375H40.1594C40.1005 42.4375 40.0527 42.4852 40.0527 42.5441V42.9838C40.0527 43.0427 40.1005 43.0904 40.1594 43.0904H41.0127C41.0717 43.0904 41.1194 43.0427 41.1194 42.9838V42.5441C41.1194 42.4852 41.0717 42.4375 41.0127 42.4375Z" fill="#4E4E4E"/>
</g>
<g style="mix-blend-mode:multiply" opacity="0.33">
<path d="M25.0713 39.4746H21.6965C21.6376 39.4746 21.5898 39.5224 21.5898 39.5812V40.8603C21.5898 40.9192 21.6376 40.967 21.6965 40.967H25.0713C25.1302 40.967 25.178 40.9192 25.178 40.8603V39.5812C25.178 39.5224 25.1302 39.4746 25.0713 39.4746Z" fill="#4E4E4E"/>
</g>
<g style="mix-blend-mode:multiply" opacity="0.33">
<path d="M27.3965 39.4746H26.1165C26.0576 39.4746 26.0098 39.5224 26.0098 39.5812V40.8603C26.0098 40.9192 26.0576 40.967 26.1165 40.967H27.3965C27.4553 40.967 27.5031 40.9192 27.5031 40.8603V39.5812C27.5031 39.5224 27.4553 39.4746 27.3965 39.4746Z" fill="#4E4E4E"/>
</g>
<g style="mix-blend-mode:multiply" opacity="0.33">
<path d="M29.707 39.4746H28.427C28.3681 39.4746 28.3203 39.5224 28.3203 39.5812V40.8603C28.3203 40.9192 28.3681 40.967 28.427 40.967H29.707C29.7659 40.967 29.8137 40.9192 29.8137 40.8603V39.5812C29.8137 39.5224 29.7659 39.4746 29.707 39.4746Z" fill="#4E4E4E"/>
</g>
<g style="mix-blend-mode:multiply" opacity="0.33">
<path d="M32.0156 39.4746H30.7356C30.6766 39.4746 30.6289 39.5224 30.6289 39.5812V40.8603C30.6289 40.9192 30.6766 40.967 30.7356 40.967H32.0156C32.0745 40.967 32.1223 40.9192 32.1223 40.8603V39.5812C32.1223 39.5224 32.0745 39.4746 32.0156 39.4746Z" fill="#4E4E4E"/>
</g>
<g style="mix-blend-mode:multiply" opacity="0.33">
<path d="M34.3222 39.4746H33.0422C32.9833 39.4746 32.9355 39.5224 32.9355 39.5812V40.8603C32.9355 40.9192 32.9833 40.967 33.0422 40.967H34.3222C34.3811 40.967 34.4289 40.9192 34.4289 40.8603V39.5812C34.4289 39.5224 34.3811 39.4746 34.3222 39.4746Z" fill="#4E4E4E"/>
</g>
<g style="mix-blend-mode:multiply" opacity="0.33">
<path d="M36.6308 39.4746H35.3508C35.2919 39.4746 35.2441 39.5224 35.2441 39.5812V40.8603C35.2441 40.9192 35.2919 40.967 35.3508 40.967H36.6308C36.6897 40.967 36.7374 40.9192 36.7374 40.8603V39.5812C36.7374 39.5224 36.6897 39.4746 36.6308 39.4746Z" fill="#4E4E4E"/>
</g>
<g style="mix-blend-mode:multiply" opacity="0.33">
<path d="M38.9394 39.4746H37.6594C37.6005 39.4746 37.5527 39.5224 37.5527 39.5812V40.8603C37.5527 40.9192 37.6005 40.967 37.6594 40.967H38.9394C38.9983 40.967 39.046 40.9192 39.046 40.8603V39.5812C39.046 39.5224 38.9983 39.4746 38.9394 39.4746Z" fill="#4E4E4E"/>
</g>
<g style="mix-blend-mode:multiply" opacity="0.33">
<path d="M43.9994 39.4746H40.1594C40.1005 39.4746 40.0527 39.5224 40.0527 39.5812V40.8603C40.0527 40.9192 40.1005 40.967 40.1594 40.967H43.9994C44.0583 40.967 44.1061 40.9192 44.1061 40.8603V39.5812C44.1061 39.5224 44.0583 39.4746 43.9994 39.4746Z" fill="#4E4E4E"/>
</g>
<g style="mix-blend-mode:multiply" opacity="0.33">
<path d="M26.5624 37.291H25.2824C25.2235 37.291 25.1758 37.3387 25.1758 37.3976V38.6767C25.1758 38.7356 25.2235 38.7833 25.2824 38.7833H26.5624C26.6214 38.7833 26.6691 38.7356 26.6691 38.6767V37.3976C26.6691 37.3387 26.6214 37.291 26.5624 37.291Z" fill="#4E4E4E"/>
</g>
<g style="mix-blend-mode:multiply" opacity="0.33">
<path d="M24.2545 37.291H21.6945C21.6356 37.291 21.5879 37.3387 21.5879 37.3976V38.6767C21.5879 38.7356 21.6356 38.7833 21.6945 38.7833H24.2545C24.3135 38.7833 24.3612 38.7356 24.3612 38.6767V37.3976C24.3612 37.3387 24.3135 37.291 24.2545 37.291Z" fill="#4E4E4E"/>
</g>
<g style="mix-blend-mode:multiply" opacity="0.33">
<path d="M28.873 37.291H27.593C27.5341 37.291 27.4863 37.3387 27.4863 37.3976V38.6767C27.4863 38.7356 27.5341 38.7833 27.593 38.7833H28.873C28.9319 38.7833 28.9796 38.7356 28.9796 38.6767V37.3976C28.9796 37.3387 28.9319 37.291 28.873 37.291Z" fill="#4E4E4E"/>
</g>
<g style="mix-blend-mode:multiply" opacity="0.33">
<path d="M31.1797 37.291H29.8997C29.8407 37.291 29.793 37.3387 29.793 37.3976V38.6767C29.793 38.7356 29.8407 38.7833 29.8997 38.7833H31.1797C31.2385 38.7833 31.2863 38.7356 31.2863 38.6767V37.3976C31.2863 37.3387 31.2385 37.291 31.1797 37.291Z" fill="#4E4E4E"/>
</g>
<g style="mix-blend-mode:multiply" opacity="0.33">
<path d="M33.4882 37.291H32.2083C32.1493 37.291 32.1016 37.3387 32.1016 37.3976V38.6767C32.1016 38.7356 32.1493 38.7833 32.2083 38.7833H33.4882C33.5471 38.7833 33.5949 38.7356 33.5949 38.6767V37.3976C33.5949 37.3387 33.5471 37.291 33.4882 37.291Z" fill="#4E4E4E"/>
</g>
<g style="mix-blend-mode:multiply" opacity="0.33">
<path d="M35.7968 37.291H34.5168C34.4579 37.291 34.4102 37.3387 34.4102 37.3976V38.6767C34.4102 38.7356 34.4579 38.7833 34.5168 38.7833H35.7968C35.8557 38.7833 35.9035 38.7356 35.9035 38.6767V37.3976C35.9035 37.3387 35.8557 37.291 35.7968 37.291Z" fill="#4E4E4E"/>
</g>
<g style="mix-blend-mode:multiply" opacity="0.33">
<path d="M38.1054 37.291H36.8254C36.7666 37.291 36.7188 37.3387 36.7188 37.3976V38.6767C36.7188 38.7356 36.7666 38.7833 36.8254 38.7833H38.1054C38.1644 38.7833 38.2121 38.7356 38.2121 38.6767V37.3976C38.2121 37.3387 38.1644 37.291 38.1054 37.291Z" fill="#4E4E4E"/>
</g>
<g style="mix-blend-mode:multiply" opacity="0.33">
<path d="M40.4121 37.291H39.1321C39.0732 37.291 39.0254 37.3387 39.0254 37.3976V38.6767C39.0254 38.7356 39.0732 38.7833 39.1321 38.7833H40.4121C40.471 38.7833 40.5188 38.7356 40.5188 38.6767V37.3976C40.5188 37.3387 40.471 37.291 40.4121 37.291Z" fill="#4E4E4E"/>
</g>
<g style="mix-blend-mode:multiply" opacity="0.33">
<path d="M44.0007 37.291H41.4407C41.3817 37.291 41.334 37.3387 41.334 37.3976V38.6767C41.334 38.7356 41.3817 38.7833 41.4407 38.7833H44.0007C44.0596 38.7833 44.1074 38.7356 44.1074 38.6767V37.3976C44.1074 37.3387 44.0596 37.291 44.0007 37.291Z" fill="#4E4E4E"/>
</g>
<g style="mix-blend-mode:multiply" opacity="0.33">
<path d="M25.3105 35.2012H24.0305C23.9716 35.2012 23.9238 35.2489 23.9238 35.3078V36.5869C23.9238 36.6458 23.9716 36.6935 24.0305 36.6935H25.3105C25.3694 36.6935 25.4171 36.6458 25.4171 36.5869V35.3078C25.4171 35.2489 25.3694 35.2012 25.3105 35.2012Z" fill="#4E4E4E"/>
</g>
<g style="mix-blend-mode:multiply" opacity="0.33">
<path d="M22.9765 35.2012H21.6965C21.6376 35.2012 21.5898 35.2489 21.5898 35.3078V36.5869C21.5898 36.6458 21.6376 36.6935 21.6965 36.6935H22.9765C23.0354 36.6935 23.0832 36.6458 23.0832 36.5869V35.3078C23.0832 35.2489 23.0354 35.2012 22.9765 35.2012Z" fill="#4E4E4E"/>
</g>
<g style="mix-blend-mode:multiply" opacity="0.33">
<path d="M27.6483 35.2012H26.3683C26.3095 35.2012 26.2617 35.2489 26.2617 35.3078V36.5869C26.2617 36.6458 26.3095 36.6935 26.3683 36.6935H27.6483C27.7073 36.6935 27.755 36.6458 27.755 36.5869V35.3078C27.755 35.2489 27.7073 35.2012 27.6483 35.2012Z" fill="#4E4E4E"/>
</g>
<g style="mix-blend-mode:multiply" opacity="0.33">
<path d="M29.9843 35.2012H28.7043C28.6454 35.2012 28.5977 35.2489 28.5977 35.3078V36.5869C28.5977 36.6458 28.6454 36.6935 28.7043 36.6935H29.9843C30.0432 36.6935 30.091 36.6458 30.091 36.5869V35.3078C30.091 35.2489 30.0432 35.2012 29.9843 35.2012Z" fill="#4E4E4E"/>
</g>
<g style="mix-blend-mode:multiply" opacity="0.33">
<path d="M32.3203 35.2012H31.0403C30.9814 35.2012 30.9336 35.2489 30.9336 35.3078V36.5869C30.9336 36.6458 30.9814 36.6935 31.0403 36.6935H32.3203C32.3792 36.6935 32.427 36.6458 32.427 36.5869V35.3078C32.427 35.2489 32.3792 35.2012 32.3203 35.2012Z" fill="#4E4E4E"/>
</g>
<g style="mix-blend-mode:multiply" opacity="0.33">
<path d="M34.6562 35.2012H33.3762C33.3173 35.2012 33.2695 35.2489 33.2695 35.3078V36.5869C33.2695 36.6458 33.3173 36.6935 33.3762 36.6935H34.6562C34.7152 36.6935 34.7629 36.6458 34.7629 36.5869V35.3078C34.7629 35.2489 34.7152 35.2012 34.6562 35.2012Z" fill="#4E4E4E"/>
</g>
<g style="mix-blend-mode:multiply" opacity="0.33">
<path d="M36.9922 35.2012H35.7122C35.6533 35.2012 35.6055 35.2489 35.6055 35.3078V36.5869C35.6055 36.6458 35.6533 36.6935 35.7122 36.6935H36.9922C37.0511 36.6935 37.0988 36.6458 37.0988 36.5869V35.3078C37.0988 35.2489 37.0511 35.2012 36.9922 35.2012Z" fill="#4E4E4E"/>
</g>
<g style="mix-blend-mode:multiply" opacity="0.33">
<path d="M39.3281 35.2012H38.0481C37.9892 35.2012 37.9414 35.2489 37.9414 35.3078V36.5869C37.9414 36.6458 37.9892 36.6935 38.0481 36.6935H39.3281C39.387 36.6935 39.4348 36.6458 39.4348 36.5869V35.3078C39.4348 35.2489 39.387 35.2012 39.3281 35.2012Z" fill="#4E4E4E"/>
</g>
<g style="mix-blend-mode:multiply" opacity="0.33">
<path d="M41.666 35.2012H40.386C40.3271 35.2012 40.2793 35.2489 40.2793 35.3078V36.5869C40.2793 36.6458 40.3271 36.6935 40.386 36.6935H41.666C41.7249 36.6935 41.7727 36.6458 41.7727 36.5869V35.3078C41.7727 35.2489 41.7249 35.2012 41.666 35.2012Z" fill="#4E4E4E"/>
</g>
<g style="mix-blend-mode:multiply" opacity="0.33">
<path d="M44.0019 35.2012H42.7219C42.663 35.2012 42.6152 35.2489 42.6152 35.3078V36.5869C42.6152 36.6458 42.663 36.6935 42.7219 36.6935H44.0019C44.0608 36.6935 44.1086 36.6458 44.1086 36.5869V35.3078C44.1086 35.2489 44.0608 35.2012 44.0019 35.2012Z" fill="#4E4E4E"/>
</g>
<g style="mix-blend-mode:multiply" opacity="0.33">
<path d="M23.7812 31.8008H41.9146V33.2341C41.9146 33.3471 41.8696 33.4556 41.7896 33.5356C41.7096 33.6156 41.6011 33.6605 41.4879 33.6605H24.2079C24.0948 33.6605 23.9862 33.6156 23.9062 33.5356C23.8262 33.4556 23.7812 33.3471 23.7812 33.2341V31.8008Z" fill="#4E4E4E"/>
</g>
<g style="mix-blend-mode:multiply" opacity="0.25">
<path d="M41.4879 33.235H24.2079C24.0948 33.235 23.9862 33.19 23.9062 33.1101C23.8262 33.0301 23.7812 32.9217 23.7812 32.8086V33.235C23.7812 33.348 23.8262 33.4565 23.9062 33.5365C23.9862 33.6164 24.0948 33.6613 24.2079 33.6613H41.4879C41.6011 33.6613 41.7096 33.6164 41.7896 33.5365C41.8696 33.4565 41.9146 33.348 41.9146 33.235V32.8086C41.9146 32.9217 41.8696 33.0301 41.7896 33.1101C41.7096 33.19 41.6011 33.235 41.4879 33.235Z" fill="#4E4E4E"/>
</g>
<g style="mix-blend-mode:multiply" opacity="0.33">
<path d="M23.7812 31.8008H41.9146V33.2341C41.9146 33.3471 41.8696 33.4556 41.7896 33.5356C41.7096 33.6156 41.6011 33.6605 41.4879 33.6605H24.2079C24.0948 33.6605 23.9862 33.6156 23.9062 33.5356C23.8262 33.4556 23.7812 33.3471 23.7812 33.2341V31.8008Z" fill="#4E4E4E"/>
<path d="M23.7812 31.8008H41.9146V33.2341C41.9146 33.3471 41.8696 33.4556 41.7896 33.5356C41.7096 33.6156 41.6011 33.6605 41.4879 33.6605H24.2079C24.0948 33.6605 23.9862 33.6156 23.9062 33.5356C23.8262 33.4556 23.7812 33.3471 23.7812 33.2341V31.8008Z" stroke="#46505C" stroke-width="0.213333" stroke-linecap="round" stroke-linejoin="round"/>
</g>
<g style="mix-blend-mode:multiply" opacity="0.33">
<path d="M36.5804 44.5293H29.1138C28.9959 44.5293 28.9004 44.6248 28.9004 44.7425V49.7525C28.9004 49.8702 28.9959 49.9657 29.1138 49.9657H36.5804C36.6982 49.9657 36.7938 49.8702 36.7938 49.7525V44.7425C36.7938 44.6248 36.6982 44.5293 36.5804 44.5293Z" fill="#4E4E4E"/>
</g>
<g style="mix-blend-mode:multiply" opacity="0.33">
<path d="M36.5804 44.5293H29.1138C28.9959 44.5293 28.9004 44.6248 28.9004 44.7425V49.7525C28.9004 49.8702 28.9959 49.9657 29.1138 49.9657H36.5804C36.6982 49.9657 36.7938 49.8702 36.7938 49.7525V44.7425C36.7938 44.6248 36.6982 44.5293 36.5804 44.5293Z" fill="#4E4E4E"/>
<path d="M36.5804 44.5293H29.1138C28.9959 44.5293 28.9004 44.6248 28.9004 44.7425V49.7525C28.9004 49.8702 28.9959 49.9657 29.1138 49.9657H36.5804C36.6982 49.9657 36.7938 49.8702 36.7938 49.7525V44.7425C36.7938 44.6248 36.6982 44.5293 36.5804 44.5293Z" stroke="#626C84" stroke-width="0.106667" stroke-linecap="round" stroke-linejoin="round"/>
</g>
</g>
<path d="M44.3729 14.2734H19.6262C18.8014 14.2734 18.1328 14.9416 18.1328 15.7658V30.2628C18.1328 31.087 18.8014 31.7552 19.6262 31.7552H44.3729C45.1976 31.7552 45.8662 31.087 45.8662 30.2628V15.7658C45.8662 14.9416 45.1976 14.2734 44.3729 14.2734Z" stroke="black" stroke-width="0.106667" stroke-linecap="round" stroke-linejoin="round"/>
<path d="M44.3729 14.2734H19.6262C18.8014 14.2734 18.1328 14.9416 18.1328 15.7658V30.2628C18.1328 31.087 18.8014 31.7552 19.6262 31.7552H44.3729C45.1976 31.7552 45.8662 31.087 45.8662 30.2628V15.7658C45.8662 14.9416 45.1976 14.2734 44.3729 14.2734Z" fill="#626C84"/>
<path d="M44.3729 14.2734H19.6262C18.8014 14.2734 18.1328 14.9416 18.1328 15.7658V30.2628C18.1328 31.087 18.8014 31.7552 19.6262 31.7552H44.3729C45.1976 31.7552 45.8662 31.087 45.8662 30.2628V15.7658C45.8662 14.9416 45.1976 14.2734 44.3729 14.2734Z" fill="#626C84"/>
<g style="mix-blend-mode:multiply" opacity="0.17">
<path d="M44.3729 14.2734H19.6262C18.8014 14.2734 18.1328 14.9416 18.1328 15.7658V29.3052C18.1328 30.1294 18.8014 30.7975 19.6262 30.7975H44.3729C45.1976 30.7975 45.8662 30.1294 45.8662 29.3052V15.7658C45.8662 14.9416 45.1976 14.2734 44.3729 14.2734Z" fill="#626C84"/>
</g>
<path opacity="0.1" d="M19.6262 14.6998H44.3729C44.7689 14.6998 45.1488 14.857 45.4288 15.1369C45.7089 15.4167 45.8662 15.7963 45.8662 16.1922V30.2627V15.7657C45.8662 15.3699 45.7089 14.9904 45.4288 14.7105C45.1488 14.4306 44.7689 14.2734 44.3729 14.2734H19.6262C19.2301 14.2734 18.8503 14.4306 18.5703 14.7105C18.2902 14.9904 18.1328 15.3699 18.1328 15.7657V16.1922C18.1328 15.7963 18.2902 15.4167 18.5703 15.1369C18.8503 14.857 19.2301 14.6998 19.6262 14.6998Z" fill="white"/>
<g opacity="0.1">
<path opacity="0.1" d="M26.584 31.7552H28.298L41.0077 14.2734H39.2937L26.584 31.7552Z" fill="white"/>
<path opacity="0.1" d="M29.2871 31.7552H29.8145L42.5242 14.2734H41.9967L29.2871 31.7552Z" fill="white"/>
</g>
<path d="M44.3729 14.2734H19.6262C18.8014 14.2734 18.1328 14.9416 18.1328 15.7658V30.2628C18.1328 31.087 18.8014 31.7552 19.6262 31.7552H44.3729C45.1976 31.7552 45.8662 31.087 45.8662 30.2628V15.7658C45.8662 14.9416 45.1976 14.2734 44.3729 14.2734Z" stroke="#46505C" stroke-width="0.426667" stroke-linecap="round" stroke-linejoin="round"/>
<path d="M43.946 29.6752V16.2441H20.0527V29.6752H43.946Z" fill="#FD848E"/>
<g opacity="0.06">
<path opacity="0.06" d="M28.2051 29.6732H29.9191L39.6838 16.2422H37.9698L28.2051 29.6732Z" fill="white"/>
<path opacity="0.06" d="M30.9082 29.6732H31.4356L41.2004 16.2422H40.673L30.9082 29.6732Z" fill="white"/>
</g>
<path d="M43.946 29.6752V16.2441H20.0527V29.6752H43.946Z" stroke="#46505C" stroke-width="0.106667" stroke-linecap="round" stroke-linejoin="round"/>
<path d="M44.3729 31.7559H19.6262C18.8014 31.7559 18.1328 32.424 18.1328 33.2482V48.598C18.1328 49.4222 18.8014 50.0903 19.6262 50.0903H44.3729C45.1976 50.0903 45.8662 49.4222 45.8662 48.598V33.2482C45.8662 32.424 45.1976 31.7559 44.3729 31.7559Z" fill="#E6F3FF"/>
<path d="M45.4405 48.5974V33.2476C45.4405 32.6589 44.963 32.1816 44.3739 32.1816H19.6272C19.0381 32.1816 18.5605 32.6589 18.5605 33.2476V48.5974C18.5605 49.1861 19.0381 49.6634 19.6272 49.6634H44.3739C44.963 49.6634 45.4405 49.1861 45.4405 48.5974Z" fill="white" stroke="#E6F3FF" stroke-width="0.213333" stroke-miterlimit="10"/>
<path d="M30.288 49.2559H33.712C33.8252 49.2559 33.9336 49.3008 34.0137 49.3807C34.0937 49.4607 34.1386 49.5691 34.1386 49.6822V50.0895H29.8613V49.6822C29.8613 49.5691 29.9063 49.4607 29.9863 49.3807C30.0663 49.3008 30.1749 49.2559 30.288 49.2559Z" fill="#E6F3FF"/>
<path d="M44.3729 31.7559H19.6262C18.8014 31.7559 18.1328 32.424 18.1328 33.2482V48.598C18.1328 49.4222 18.8014 50.0903 19.6262 50.0903H44.3729C45.1976 50.0903 45.8662 49.4222 45.8662 48.598V33.2482C45.8662 32.424 45.1976 31.7559 44.3729 31.7559Z" stroke="#46505C" stroke-width="0.426667" stroke-linecap="round" stroke-linejoin="round"/>
<path d="M43.9458 33.1855H20.0524C19.8757 33.1855 19.7324 33.3287 19.7324 33.5054V42.6726C19.7324 42.8492 19.8757 42.9924 20.0524 42.9924H43.9458C44.1225 42.9924 44.2658 42.8492 44.2658 42.6726V33.5054C44.2658 33.3287 44.1225 33.1855 43.9458 33.1855Z" fill="#E6F3FF"/>
<path d="M24.4355 40.5938H23.1555C23.0966 40.5938 23.0488 40.6415 23.0488 40.7004V41.9795C23.0488 42.0384 23.0966 42.0861 23.1555 42.0861H24.4355C24.4944 42.0861 24.5421 42.0384 24.5421 41.9795V40.7004C24.5421 40.6415 24.4944 40.5938 24.4355 40.5938Z" stroke="#626C84" stroke-width="0.106667" stroke-linecap="round" stroke-linejoin="round"/>
<path d="M22.1269 40.5938H20.8469C20.788 40.5938 20.7402 40.6415 20.7402 40.7004V41.9795C20.7402 42.0384 20.788 42.0861 20.8469 42.0861H22.1269C22.1858 42.0861 22.2336 42.0384 22.2336 41.9795V40.7004C22.2336 40.6415 22.1858 40.5938 22.1269 40.5938Z" stroke="#626C84" stroke-width="0.106667" stroke-linecap="round" stroke-linejoin="round"/>
<path d="M35.9765 40.5938H25.464C25.4052 40.5938 25.3574 40.6415 25.3574 40.7004V41.9795C25.3574 42.0384 25.4052 42.0861 25.464 42.0861H35.9765C36.0354 42.0861 36.0832 42.0384 36.0832 41.9795V40.7004C36.0832 40.6415 36.0354 40.5938 35.9765 40.5938Z" stroke="#626C84" stroke-width="0.106667" stroke-linecap="round" stroke-linejoin="round"/>
<path d="M38.2851 40.5938H37.0051C36.9462 40.5938 36.8984 40.6415 36.8984 40.7004V41.9795C36.8984 42.0384 36.9462 42.0861 37.0051 42.0861H38.2851C38.344 42.0861 38.3918 42.0384 38.3918 41.9795V40.7004C38.3918 40.6415 38.344 40.5938 38.2851 40.5938Z" stroke="#626C84" stroke-width="0.106667" stroke-linecap="round" stroke-linejoin="round"/>
<path d="M41.6592 41.4336H40.8058C40.747 41.4336 40.6992 41.4813 40.6992 41.5402V41.9799C40.6992 42.0388 40.747 42.0865 40.8058 42.0865H41.6592C41.7181 42.0865 41.7659 42.0388 41.7659 41.9799V41.5402C41.7659 41.4813 41.7181 41.4336 41.6592 41.4336Z" stroke="#626C84" stroke-width="0.106667" stroke-linecap="round" stroke-linejoin="round"/>
<path d="M41.6592 40.5938H40.8058C40.747 40.5938 40.6992 40.6415 40.6992 40.7004V41.1401C40.6992 41.1989 40.747 41.2467 40.8058 41.2467H41.6592C41.7181 41.2467 41.7659 41.1989 41.7659 41.1401V40.7004C41.7659 40.6415 41.7181 40.5938 41.6592 40.5938Z" stroke="#626C84" stroke-width="0.106667" stroke-linecap="round" stroke-linejoin="round"/>
<path d="M43.1534 41.4336H42.3C42.2411 41.4336 42.1934 41.4813 42.1934 41.5402V41.9799C42.1934 42.0388 42.2411 42.0865 42.3 42.0865H43.1534C43.2122 42.0865 43.26 42.0388 43.26 41.9799V41.5402C43.26 41.4813 43.2122 41.4336 43.1534 41.4336Z" stroke="#626C84" stroke-width="0.106667" stroke-linecap="round" stroke-linejoin="round"/>
<path d="M40.1651 41.4336H39.3118C39.2529 41.4336 39.2051 41.4813 39.2051 41.5402V41.9799C39.2051 42.0388 39.2529 42.0865 39.3118 42.0865H40.1651C40.224 42.0865 40.2718 42.0388 40.2718 41.9799V41.5402C40.2718 41.4813 40.224 41.4336 40.1651 41.4336Z" stroke="#626C84" stroke-width="0.106667" stroke-linecap="round" stroke-linejoin="round"/>
<path d="M24.2218 38.4707H20.8469C20.788 38.4707 20.7402 38.5184 20.7402 38.5773V39.8565C20.7402 39.9154 20.788 39.9631 20.8469 39.9631H24.2218C24.2807 39.9631 24.3284 39.9154 24.3284 39.8565V38.5773C24.3284 38.5184 24.2807 38.4707 24.2218 38.4707Z" stroke="#626C84" stroke-width="0.106667" stroke-linecap="round" stroke-linejoin="round"/>
<path d="M26.5507 38.4707H25.2707C25.2118 38.4707 25.1641 38.5184 25.1641 38.5773V39.8565C25.1641 39.9154 25.2118 39.9631 25.2707 39.9631H26.5507C26.6096 39.9631 26.6574 39.9154 26.6574 39.8565V38.5773C26.6574 38.5184 26.6096 38.4707 26.5507 38.4707Z" stroke="#626C84" stroke-width="0.106667" stroke-linecap="round" stroke-linejoin="round"/>
<path d="M28.8574 38.4707H27.5774C27.5185 38.4707 27.4707 38.5184 27.4707 38.5773V39.8565C27.4707 39.9154 27.5185 39.9631 27.5774 39.9631H28.8574C28.9163 39.9631 28.9641 39.9154 28.9641 39.8565V38.5773C28.9641 38.5184 28.9163 38.4707 28.8574 38.4707Z" stroke="#626C84" stroke-width="0.106667" stroke-linecap="round" stroke-linejoin="round"/>
<path d="M31.1659 38.4707H29.8859C29.827 38.4707 29.7793 38.5184 29.7793 38.5773V39.8565C29.7793 39.9154 29.827 39.9631 29.8859 39.9631H31.1659C31.2249 39.9631 31.2726 39.9154 31.2726 39.8565V38.5773C31.2726 38.5184 31.2249 38.4707 31.1659 38.4707Z" stroke="#626C84" stroke-width="0.106667" stroke-linecap="round" stroke-linejoin="round"/>
<path d="M33.4745 38.4707H32.1945C32.1356 38.4707 32.0879 38.5184 32.0879 38.5773V39.8565C32.0879 39.9154 32.1356 39.9631 32.1945 39.9631H33.4745C33.5335 39.9631 33.5812 39.9154 33.5812 39.8565V38.5773C33.5812 38.5184 33.5335 38.4707 33.4745 38.4707Z" stroke="#626C84" stroke-width="0.106667" stroke-linecap="round" stroke-linejoin="round"/>
<path d="M35.7812 38.4707H34.5012C34.4423 38.4707 34.3945 38.5184 34.3945 38.5773V39.8565C34.3945 39.9154 34.4423 39.9631 34.5012 39.9631H35.7812C35.8401 39.9631 35.8878 39.9154 35.8878 39.8565V38.5773C35.8878 38.5184 35.8401 38.4707 35.7812 38.4707Z" stroke="#626C84" stroke-width="0.106667" stroke-linecap="round" stroke-linejoin="round"/>
<path d="M38.0897 38.4707H36.8097C36.7509 38.4707 36.7031 38.5184 36.7031 38.5773V39.8565C36.7031 39.9154 36.7509 39.9631 36.8097 39.9631H38.0897C38.1487 39.9631 38.1964 39.9154 38.1964 39.8565V38.5773C38.1964 38.5184 38.1487 38.4707 38.0897 38.4707Z" stroke="#626C84" stroke-width="0.106667" stroke-linecap="round" stroke-linejoin="round"/>
<path d="M43.1518 38.4707H39.3118C39.2529 38.4707 39.2051 38.5184 39.2051 38.5773V39.8565C39.2051 39.9154 39.2529 39.9631 39.3118 39.9631H43.1518C43.2106 39.9631 43.2585 39.9154 43.2585 39.8565V38.5773C43.2585 38.5184 43.2106 38.4707 43.1518 38.4707Z" stroke="#626C84" stroke-width="0.106667" stroke-linecap="round" stroke-linejoin="round"/>
<path d="M25.7148 36.2871H24.4348C24.3759 36.2871 24.3281 36.3349 24.3281 36.3937V37.6728C24.3281 37.7317 24.3759 37.7795 24.4348 37.7795H25.7148C25.7737 37.7795 25.8214 37.7317 25.8214 37.6728V36.3937C25.8214 36.3349 25.7737 36.2871 25.7148 36.2871Z" stroke="#626C84" stroke-width="0.106667" stroke-linecap="round" stroke-linejoin="round"/>
<path d="M23.4069 36.2871H20.8469C20.788 36.2871 20.7402 36.3349 20.7402 36.3937V37.6728C20.7402 37.7317 20.788 37.7795 20.8469 37.7795H23.4069C23.4658 37.7795 23.5136 37.7317 23.5136 37.6728V36.3937C23.5136 36.3349 23.4658 36.2871 23.4069 36.2871Z" stroke="#626C84" stroke-width="0.106667" stroke-linecap="round" stroke-linejoin="round"/>
<path d="M28.0233 36.2871H26.7433C26.6845 36.2871 26.6367 36.3349 26.6367 36.3937V37.6728C26.6367 37.7317 26.6845 37.7795 26.7433 37.7795H28.0233C28.0823 37.7795 28.13 37.7317 28.13 37.6728V36.3937C28.13 36.3349 28.0823 36.2871 28.0233 36.2871Z" stroke="#626C84" stroke-width="0.106667" stroke-linecap="round" stroke-linejoin="round"/>
<path d="M30.3319 36.2871H29.0519C28.9931 36.2871 28.9453 36.3349 28.9453 36.3937V37.6728C28.9453 37.7317 28.9931 37.7795 29.0519 37.7795H30.3319C30.3909 37.7795 30.4386 37.7317 30.4386 37.6728V36.3937C30.4386 36.3349 30.3909 36.2871 30.3319 36.2871Z" stroke="#626C84" stroke-width="0.106667" stroke-linecap="round" stroke-linejoin="round"/>
<path d="M32.6406 36.2871H31.3606C31.3016 36.2871 31.2539 36.3349 31.2539 36.3937V37.6728C31.2539 37.7317 31.3016 37.7795 31.3606 37.7795H32.6406C32.6995 37.7795 32.7472 37.7317 32.7472 37.6728V36.3937C32.7472 36.3349 32.6995 36.2871 32.6406 36.2871Z" stroke="#626C84" stroke-width="0.106667" stroke-linecap="round" stroke-linejoin="round"/>
<path d="M34.9472 36.2871H33.6672C33.6084 36.2871 33.5605 36.3349 33.5605 36.3937V37.6728C33.5605 37.7317 33.6084 37.7795 33.6672 37.7795H34.9472C35.0062 37.7795 35.0539 37.7317 35.0539 37.6728V36.3937C35.0539 36.3349 35.0062 36.2871 34.9472 36.2871Z" stroke="#626C84" stroke-width="0.106667" stroke-linecap="round" stroke-linejoin="round"/>
<path d="M37.2558 36.2871H35.9758C35.9169 36.2871 35.8691 36.3349 35.8691 36.3937V37.6728C35.8691 37.7317 35.9169 37.7795 35.9758 37.7795H37.2558C37.3148 37.7795 37.3625 37.7317 37.3625 37.6728V36.3937C37.3625 36.3349 37.3148 36.2871 37.2558 36.2871Z" stroke="#626C84" stroke-width="0.106667" stroke-linecap="round" stroke-linejoin="round"/>
<path d="M39.5644 36.2871H38.2844C38.2255 36.2871 38.1777 36.3349 38.1777 36.3937V37.6728C38.1777 37.7317 38.2255 37.7795 38.2844 37.7795H39.5644C39.6233 37.7795 39.6711 37.7317 39.6711 37.6728V36.3937C39.6711 36.3349 39.6233 36.2871 39.5644 36.2871Z" stroke="#626C84" stroke-width="0.106667" stroke-linecap="round" stroke-linejoin="round"/>
<path d="M43.153 36.2871H40.593C40.5341 36.2871 40.4863 36.3349 40.4863 36.3937V37.6728C40.4863 37.7317 40.5341 37.7795 40.593 37.7795H43.153C43.2119 37.7795 43.2597 37.7317 43.2597 37.6728V36.3937C43.2597 36.3349 43.2119 36.2871 43.153 36.2871Z" stroke="#626C84" stroke-width="0.106667" stroke-linecap="round" stroke-linejoin="round"/>
<path d="M24.4628 34.1992H23.1828C23.1239 34.1992 23.0762 34.2469 23.0762 34.3058V35.5849C23.0762 35.6438 23.1239 35.6915 23.1828 35.6915H24.4628C24.5217 35.6915 24.5695 35.6438 24.5695 35.5849V34.3058C24.5695 34.2469 24.5217 34.1992 24.4628 34.1992Z" stroke="#626C84" stroke-width="0.106667" stroke-linecap="round" stroke-linejoin="round"/>
<path d="M22.1269 34.1992H20.8469C20.788 34.1992 20.7402 34.2469 20.7402 34.3058V35.5849C20.7402 35.6438 20.788 35.6915 20.8469 35.6915H22.1269C22.1858 35.6915 22.2336 35.6438 22.2336 35.5849V34.3058C22.2336 34.2469 22.1858 34.1992 22.1269 34.1992Z" stroke="#626C84" stroke-width="0.106667" stroke-linecap="round" stroke-linejoin="round"/>
<path d="M26.8008 34.1992H25.5208C25.4618 34.1992 25.4141 34.2469 25.4141 34.3058V35.5849C25.4141 35.6438 25.4618 35.6915 25.5208 35.6915H26.8008C26.8596 35.6915 26.9074 35.6438 26.9074 35.5849V34.3058C26.9074 34.2469 26.8596 34.1992 26.8008 34.1992Z" stroke="#626C84" stroke-width="0.106667" stroke-linecap="round" stroke-linejoin="round"/>
<path d="M29.1366 34.1992H27.8566C27.7977 34.1992 27.75 34.2469 27.75 34.3058V35.5849C27.75 35.6438 27.7977 35.6915 27.8566 35.6915H29.1366C29.1956 35.6915 29.2433 35.6438 29.2433 35.5849V34.3058C29.2433 34.2469 29.1956 34.1992 29.1366 34.1992Z" stroke="#626C84" stroke-width="0.106667" stroke-linecap="round" stroke-linejoin="round"/>
<path d="M31.4726 34.1992H30.1926C30.1337 34.1992 30.0859 34.2469 30.0859 34.3058V35.5849C30.0859 35.6438 30.1337 35.6915 30.1926 35.6915H31.4726C31.5315 35.6915 31.5792 35.6438 31.5792 35.5849V34.3058C31.5792 34.2469 31.5315 34.1992 31.4726 34.1992Z" stroke="#626C84" stroke-width="0.106667" stroke-linecap="round" stroke-linejoin="round"/>
<path d="M33.8086 34.1992H32.5286C32.4697 34.1992 32.4219 34.2469 32.4219 34.3058V35.5849C32.4219 35.6438 32.4697 35.6915 32.5286 35.6915H33.8086C33.8675 35.6915 33.9152 35.6438 33.9152 35.5849V34.3058C33.9152 34.2469 33.8675 34.1992 33.8086 34.1992Z" stroke="#626C84" stroke-width="0.106667" stroke-linecap="round" stroke-linejoin="round"/>
<path d="M36.1445 34.1992H34.8645C34.8056 34.1992 34.7578 34.2469 34.7578 34.3058V35.5849C34.7578 35.6438 34.8056 35.6915 34.8645 35.6915H36.1445C36.2034 35.6915 36.2511 35.6438 36.2511 35.5849V34.3058C36.2511 34.2469 36.2034 34.1992 36.1445 34.1992Z" stroke="#626C84" stroke-width="0.106667" stroke-linecap="round" stroke-linejoin="round"/>
<path d="M38.4804 34.1992H37.2004C37.1416 34.1992 37.0938 34.2469 37.0938 34.3058V35.5849C37.0938 35.6438 37.1416 35.6915 37.2004 35.6915H38.4804C38.5394 35.6915 38.5871 35.6438 38.5871 35.5849V34.3058C38.5871 34.2469 38.5394 34.1992 38.4804 34.1992Z" stroke="#626C84" stroke-width="0.106667" stroke-linecap="round" stroke-linejoin="round"/>
<path d="M40.8164 34.1992H39.5364C39.4774 34.1992 39.4297 34.2469 39.4297 34.3058V35.5849C39.4297 35.6438 39.4774 35.6915 39.5364 35.6915H40.8164C40.8753 35.6915 40.923 35.6438 40.923 35.5849V34.3058C40.923 34.2469 40.8753 34.1992 40.8164 34.1992Z" stroke="#626C84" stroke-width="0.106667" stroke-linecap="round" stroke-linejoin="round"/>
<path d="M43.1523 34.1992H41.8723C41.8134 34.1992 41.7656 34.2469 41.7656 34.3058V35.5849C41.7656 35.6438 41.8134 35.6915 41.8723 35.6915H43.1523C43.2112 35.6915 43.259 35.6438 43.259 35.5849V34.3058C43.259 34.2469 43.2112 34.1992 43.1523 34.1992Z" stroke="#626C84" stroke-width="0.106667" stroke-linecap="round" stroke-linejoin="round"/>
<path d="M24.4355 40.5938H23.1555C23.0966 40.5938 23.0488 40.6415 23.0488 40.7004V41.9795C23.0488 42.0384 23.0966 42.0861 23.1555 42.0861H24.4355C24.4944 42.0861 24.5421 42.0384 24.5421 41.9795V40.7004C24.5421 40.6415 24.4944 40.5938 24.4355 40.5938Z" fill="#626C84"/>
<path d="M22.1269 40.5938H20.8469C20.788 40.5938 20.7402 40.6415 20.7402 40.7004V41.9795C20.7402 42.0384 20.788 42.0861 20.8469 42.0861H22.1269C22.1858 42.0861 22.2336 42.0384 22.2336 41.9795V40.7004C22.2336 40.6415 22.1858 40.5938 22.1269 40.5938Z" fill="#626C84"/>
<path d="M35.9765 40.5938H25.464C25.4052 40.5938 25.3574 40.6415 25.3574 40.7004V41.9795C25.3574 42.0384 25.4052 42.0861 25.464 42.0861H35.9765C36.0354 42.0861 36.0832 42.0384 36.0832 41.9795V40.7004C36.0832 40.6415 36.0354 40.5938 35.9765 40.5938Z" fill="#626C84"/>
<path d="M38.2851 40.5938H37.0051C36.9462 40.5938 36.8984 40.6415 36.8984 40.7004V41.9795C36.8984 42.0384 36.9462 42.0861 37.0051 42.0861H38.2851C38.344 42.0861 38.3918 42.0384 38.3918 41.9795V40.7004C38.3918 40.6415 38.344 40.5938 38.2851 40.5938Z" fill="#626C84"/>
<path d="M41.6592 41.4336H40.8058C40.747 41.4336 40.6992 41.4813 40.6992 41.5402V41.9799C40.6992 42.0388 40.747 42.0865 40.8058 42.0865H41.6592C41.7181 42.0865 41.7659 42.0388 41.7659 41.9799V41.5402C41.7659 41.4813 41.7181 41.4336 41.6592 41.4336Z" fill="#626C84"/>
<path d="M41.6592 40.5938H40.8058C40.747 40.5938 40.6992 40.6415 40.6992 40.7004V41.1401C40.6992 41.1989 40.747 41.2467 40.8058 41.2467H41.6592C41.7181 41.2467 41.7659 41.1989 41.7659 41.1401V40.7004C41.7659 40.6415 41.7181 40.5938 41.6592 40.5938Z" fill="#626C84"/>
<path d="M43.1534 41.4336H42.3C42.2411 41.4336 42.1934 41.4813 42.1934 41.5402V41.9799C42.1934 42.0388 42.2411 42.0865 42.3 42.0865H43.1534C43.2122 42.0865 43.26 42.0388 43.26 41.9799V41.5402C43.26 41.4813 43.2122 41.4336 43.1534 41.4336Z" fill="#626C84"/>
<path d="M40.1651 41.4336H39.3118C39.2529 41.4336 39.2051 41.4813 39.2051 41.5402V41.9799C39.2051 42.0388 39.2529 42.0865 39.3118 42.0865H40.1651C40.224 42.0865 40.2718 42.0388 40.2718 41.9799V41.5402C40.2718 41.4813 40.224 41.4336 40.1651 41.4336Z" fill="#626C84"/>
<path d="M24.2218 38.4707H20.8469C20.788 38.4707 20.7402 38.5184 20.7402 38.5773V39.8565C20.7402 39.9154 20.788 39.9631 20.8469 39.9631H24.2218C24.2807 39.9631 24.3284 39.9154 24.3284 39.8565V38.5773C24.3284 38.5184 24.2807 38.4707 24.2218 38.4707Z" fill="#626C84"/>
<path d="M26.5507 38.4707H25.2707C25.2118 38.4707 25.1641 38.5184 25.1641 38.5773V39.8565C25.1641 39.9154 25.2118 39.9631 25.2707 39.9631H26.5507C26.6096 39.9631 26.6574 39.9154 26.6574 39.8565V38.5773C26.6574 38.5184 26.6096 38.4707 26.5507 38.4707Z" fill="#626C84"/>
<path d="M28.8574 38.4707H27.5774C27.5185 38.4707 27.4707 38.5184 27.4707 38.5773V39.8565C27.4707 39.9154 27.5185 39.9631 27.5774 39.9631H28.8574C28.9163 39.9631 28.9641 39.9154 28.9641 39.8565V38.5773C28.9641 38.5184 28.9163 38.4707 28.8574 38.4707Z" fill="#626C84"/>
<path d="M31.1659 38.4707H29.8859C29.827 38.4707 29.7793 38.5184 29.7793 38.5773V39.8565C29.7793 39.9154 29.827 39.9631 29.8859 39.9631H31.1659C31.2249 39.9631 31.2726 39.9154 31.2726 39.8565V38.5773C31.2726 38.5184 31.2249 38.4707 31.1659 38.4707Z" fill="#626C84"/>
<path d="M33.4745 38.4707H32.1945C32.1356 38.4707 32.0879 38.5184 32.0879 38.5773V39.8565C32.0879 39.9154 32.1356 39.9631 32.1945 39.9631H33.4745C33.5335 39.9631 33.5812 39.9154 33.5812 39.8565V38.5773C33.5812 38.5184 33.5335 38.4707 33.4745 38.4707Z" fill="#626C84"/>
<path d="M35.7812 38.4707H34.5012C34.4423 38.4707 34.3945 38.5184 34.3945 38.5773V39.8565C34.3945 39.9154 34.4423 39.9631 34.5012 39.9631H35.7812C35.8401 39.9631 35.8878 39.9154 35.8878 39.8565V38.5773C35.8878 38.5184 35.8401 38.4707 35.7812 38.4707Z" fill="#626C84"/>
<path d="M38.0897 38.4707H36.8097C36.7509 38.4707 36.7031 38.5184 36.7031 38.5773V39.8565C36.7031 39.9154 36.7509 39.9631 36.8097 39.9631H38.0897C38.1487 39.9631 38.1964 39.9154 38.1964 39.8565V38.5773C38.1964 38.5184 38.1487 38.4707 38.0897 38.4707Z" fill="#626C84"/>
<path d="M43.1518 38.4707H39.3118C39.2529 38.4707 39.2051 38.5184 39.2051 38.5773V39.8565C39.2051 39.9154 39.2529 39.9631 39.3118 39.9631H43.1518C43.2106 39.9631 43.2585 39.9154 43.2585 39.8565V38.5773C43.2585 38.5184 43.2106 38.4707 43.1518 38.4707Z" fill="#626C84"/>
<path d="M25.7148 36.2871H24.4348C24.3759 36.2871 24.3281 36.3349 24.3281 36.3937V37.6728C24.3281 37.7317 24.3759 37.7795 24.4348 37.7795H25.7148C25.7737 37.7795 25.8214 37.7317 25.8214 37.6728V36.3937C25.8214 36.3349 25.7737 36.2871 25.7148 36.2871Z" fill="#626C84"/>
<path d="M23.4069 36.2871H20.8469C20.788 36.2871 20.7402 36.3349 20.7402 36.3937V37.6728C20.7402 37.7317 20.788 37.7795 20.8469 37.7795H23.4069C23.4658 37.7795 23.5136 37.7317 23.5136 37.6728V36.3937C23.5136 36.3349 23.4658 36.2871 23.4069 36.2871Z" fill="#626C84"/>
<path d="M28.0233 36.2871H26.7433C26.6845 36.2871 26.6367 36.3349 26.6367 36.3937V37.6728C26.6367 37.7317 26.6845 37.7795 26.7433 37.7795H28.0233C28.0823 37.7795 28.13 37.7317 28.13 37.6728V36.3937C28.13 36.3349 28.0823 36.2871 28.0233 36.2871Z" fill="#626C84"/>
<path d="M30.3319 36.2871H29.0519C28.9931 36.2871 28.9453 36.3349 28.9453 36.3937V37.6728C28.9453 37.7317 28.9931 37.7795 29.0519 37.7795H30.3319C30.3909 37.7795 30.4386 37.7317 30.4386 37.6728V36.3937C30.4386 36.3349 30.3909 36.2871 30.3319 36.2871Z" fill="#626C84"/>
<path d="M32.6406 36.2871H31.3606C31.3016 36.2871 31.2539 36.3349 31.2539 36.3937V37.6728C31.2539 37.7317 31.3016 37.7795 31.3606 37.7795H32.6406C32.6995 37.7795 32.7472 37.7317 32.7472 37.6728V36.3937C32.7472 36.3349 32.6995 36.2871 32.6406 36.2871Z" fill="#626C84"/>
<path d="M34.9472 36.2871H33.6672C33.6084 36.2871 33.5605 36.3349 33.5605 36.3937V37.6728C33.5605 37.7317 33.6084 37.7795 33.6672 37.7795H34.9472C35.0062 37.7795 35.0539 37.7317 35.0539 37.6728V36.3937C35.0539 36.3349 35.0062 36.2871 34.9472 36.2871Z" fill="#626C84"/>
<path d="M37.2558 36.2871H35.9758C35.9169 36.2871 35.8691 36.3349 35.8691 36.3937V37.6728C35.8691 37.7317 35.9169 37.7795 35.9758 37.7795H37.2558C37.3148 37.7795 37.3625 37.7317 37.3625 37.6728V36.3937C37.3625 36.3349 37.3148 36.2871 37.2558 36.2871Z" fill="#626C84"/>
<path d="M39.5644 36.2871H38.2844C38.2255 36.2871 38.1777 36.3349 38.1777 36.3937V37.6728C38.1777 37.7317 38.2255 37.7795 38.2844 37.7795H39.5644C39.6233 37.7795 39.6711 37.7317 39.6711 37.6728V36.3937C39.6711 36.3349 39.6233 36.2871 39.5644 36.2871Z" fill="#626C84"/>
<path d="M43.153 36.2871H40.593C40.5341 36.2871 40.4863 36.3349 40.4863 36.3937V37.6728C40.4863 37.7317 40.5341 37.7795 40.593 37.7795H43.153C43.2119 37.7795 43.2597 37.7317 43.2597 37.6728V36.3937C43.2597 36.3349 43.2119 36.2871 43.153 36.2871Z" fill="#626C84"/>
<path d="M24.4628 34.1992H23.1828C23.1239 34.1992 23.0762 34.2469 23.0762 34.3058V35.5849C23.0762 35.6438 23.1239 35.6915 23.1828 35.6915H24.4628C24.5217 35.6915 24.5695 35.6438 24.5695 35.5849V34.3058C24.5695 34.2469 24.5217 34.1992 24.4628 34.1992Z" fill="#626C84"/>
<path d="M22.1269 34.1992H20.8469C20.788 34.1992 20.7402 34.2469 20.7402 34.3058V35.5849C20.7402 35.6438 20.788 35.6915 20.8469 35.6915H22.1269C22.1858 35.6915 22.2336 35.6438 22.2336 35.5849V34.3058C22.2336 34.2469 22.1858 34.1992 22.1269 34.1992Z" fill="#626C84"/>
<path d="M26.8008 34.1992H25.5208C25.4618 34.1992 25.4141 34.2469 25.4141 34.3058V35.5849C25.4141 35.6438 25.4618 35.6915 25.5208 35.6915H26.8008C26.8596 35.6915 26.9074 35.6438 26.9074 35.5849V34.3058C26.9074 34.2469 26.8596 34.1992 26.8008 34.1992Z" fill="#626C84"/>
<path d="M29.1366 34.1992H27.8566C27.7977 34.1992 27.75 34.2469 27.75 34.3058V35.5849C27.75 35.6438 27.7977 35.6915 27.8566 35.6915H29.1366C29.1956 35.6915 29.2433 35.6438 29.2433 35.5849V34.3058C29.2433 34.2469 29.1956 34.1992 29.1366 34.1992Z" fill="#626C84"/>
<path d="M31.4726 34.1992H30.1926C30.1337 34.1992 30.0859 34.2469 30.0859 34.3058V35.5849C30.0859 35.6438 30.1337 35.6915 30.1926 35.6915H31.4726C31.5315 35.6915 31.5792 35.6438 31.5792 35.5849V34.3058C31.5792 34.2469 31.5315 34.1992 31.4726 34.1992Z" fill="#626C84"/>
<path d="M33.8086 34.1992H32.5286C32.4697 34.1992 32.4219 34.2469 32.4219 34.3058V35.5849C32.4219 35.6438 32.4697 35.6915 32.5286 35.6915H33.8086C33.8675 35.6915 33.9152 35.6438 33.9152 35.5849V34.3058C33.9152 34.2469 33.8675 34.1992 33.8086 34.1992Z" fill="#626C84"/>
<path d="M36.1445 34.1992H34.8645C34.8056 34.1992 34.7578 34.2469 34.7578 34.3058V35.5849C34.7578 35.6438 34.8056 35.6915 34.8645 35.6915H36.1445C36.2034 35.6915 36.2511 35.6438 36.2511 35.5849V34.3058C36.2511 34.2469 36.2034 34.1992 36.1445 34.1992Z" fill="#626C84"/>
<path d="M38.4804 34.1992H37.2004C37.1416 34.1992 37.0938 34.2469 37.0938 34.3058V35.5849C37.0938 35.6438 37.1416 35.6915 37.2004 35.6915H38.4804C38.5394 35.6915 38.5871 35.6438 38.5871 35.5849V34.3058C38.5871 34.2469 38.5394 34.1992 38.4804 34.1992Z" fill="#626C84"/>
<path d="M40.8164 34.1992H39.5364C39.4774 34.1992 39.4297 34.2469 39.4297 34.3058V35.5849C39.4297 35.6438 39.4774 35.6915 39.5364 35.6915H40.8164C40.8753 35.6915 40.923 35.6438 40.923 35.5849V34.3058C40.923 34.2469 40.8753 34.1992 40.8164 34.1992Z" fill="#626C84"/>
<path d="M43.1523 34.1992H41.8723C41.8134 34.1992 41.7656 34.2469 41.7656 34.3058V35.5849C41.7656 35.6438 41.8134 35.6915 41.8723 35.6915H43.1523C43.2112 35.6915 43.259 35.6438 43.259 35.5849V34.3058C43.259 34.2469 43.2112 34.1992 43.1523 34.1992Z" fill="#626C84"/>
<path d="M22.9336 30.7969H41.067V32.2302C41.067 32.3432 41.022 32.4517 40.942 32.5317C40.862 32.6116 40.7534 32.6565 40.6403 32.6565H23.3603C23.2471 32.6565 23.1386 32.6116 23.0586 32.5317C22.9786 32.4517 22.9336 32.3432 22.9336 32.2302V30.7969Z" fill="#626C84"/>
<path opacity="0.12" d="M41.067 30.7969H22.9336V31.0101H41.067V30.7969Z" fill="white"/>
<g style="mix-blend-mode:multiply" opacity="0.25">
<path d="M40.6403 32.2311H23.3603C23.2471 32.2311 23.1386 32.1862 23.0586 32.1062C22.9786 32.0263 22.9336 31.9178 22.9336 31.8047V32.2311C22.9336 32.3441 22.9786 32.4526 23.0586 32.5326C23.1386 32.6126 23.2471 32.6575 23.3603 32.6575H40.6403C40.7534 32.6575 40.862 32.6126 40.942 32.5326C41.022 32.4526 41.067 32.3441 41.067 32.2311V31.8047C41.067 31.9178 41.022 32.0263 40.942 32.1062C40.862 32.1862 40.7534 32.2311 40.6403 32.2311Z" fill="#626C84"/>
</g>
<path d="M22.9336 30.7969H41.067V32.2302C41.067 32.3432 41.022 32.4517 40.942 32.5317C40.862 32.6116 40.7534 32.6565 40.6403 32.6565H23.3603C23.2471 32.6565 23.1386 32.6116 23.0586 32.5317C22.9786 32.4517 22.9336 32.3432 22.9336 32.2302V30.7969Z" stroke="#46505C" stroke-width="0.213333" stroke-linecap="round" stroke-linejoin="round"/>
<path d="M35.7327 43.5254H28.266C28.1482 43.5254 28.0527 43.6208 28.0527 43.7386V48.7486C28.0527 48.8663 28.1482 48.9617 28.266 48.9617H35.7327C35.8506 48.9617 35.946 48.8663 35.946 48.7486V43.7386C35.946 43.6208 35.8506 43.5254 35.7327 43.5254Z" fill="#E6F3FF"/>
<path d="M35.7327 43.5254H28.266C28.1482 43.5254 28.0527 43.6208 28.0527 43.7386V48.7486C28.0527 48.8663 28.1482 48.9617 28.266 48.9617H35.7327C35.8506 48.9617 35.946 48.8663 35.946 48.7486V43.7386C35.946 43.6208 35.8506 43.5254 35.7327 43.5254Z" stroke="#626C84" stroke-width="0.106667" stroke-linecap="round" stroke-linejoin="round"/>
<path opacity="0.52" d="M31.9997 15.6747C32.1764 15.6747 32.3197 15.5315 32.3197 15.3549C32.3197 15.1783 32.1764 15.0352 31.9997 15.0352C31.823 15.0352 31.6797 15.1783 31.6797 15.3549C31.6797 15.5315 31.823 15.6747 31.9997 15.6747Z" fill="white"/>
<path d="M31.9997 15.6747C32.1764 15.6747 32.3197 15.5315 32.3197 15.3549C32.3197 15.1783 32.1764 15.0352 31.9997 15.0352C31.823 15.0352 31.6797 15.1783 31.6797 15.3549C31.6797 15.5315 31.823 15.6747 31.9997 15.6747Z" stroke="#46505C" stroke-width="0.106667" stroke-linecap="round" stroke-linejoin="round"/>
<path d="M38.6522 17.6016H37.3722C37.3134 17.6016 37.2656 17.6493 37.2656 17.7082C37.2656 17.7671 37.3134 17.8147 37.3722 17.8147H38.6522C38.7112 17.8147 38.7589 17.7671 38.7589 17.7082C38.7589 17.6493 38.7112 17.6016 38.6522 17.6016Z" fill="white"/>
<path d="M41.4218 17.6016H40.1418C40.0829 17.6016 40.0352 17.6493 40.0352 17.7082C40.0352 17.7671 40.0829 17.8147 40.1418 17.8147H41.4218C41.4807 17.8147 41.5285 17.7671 41.5285 17.7082C41.5285 17.6493 41.4807 17.6016 41.4218 17.6016Z" fill="white"/>
<path d="M35.8808 17.6016H34.6008C34.5419 17.6016 34.4941 17.6493 34.4941 17.7082C34.4941 17.7671 34.5419 17.8147 34.6008 17.8147H35.8808C35.9397 17.8147 35.9875 17.7671 35.9875 17.7082C35.9875 17.6493 35.9397 17.6016 35.8808 17.6016Z" fill="white"/>
<path d="M22.1057 18.2792C22.3907 18.2792 22.6217 18.0484 22.6217 17.7636C22.6217 17.4789 22.3907 17.248 22.1057 17.248C21.8208 17.248 21.5898 17.4789 21.5898 17.7636C21.5898 18.0484 21.8208 18.2792 22.1057 18.2792Z" fill="white"/>
<g opacity="0.72">
<path opacity="0.72" d="M37.394 23.4102H26.5957V23.7987H37.394V23.4102Z" fill="white"/>
<path opacity="0.72" d="M36.0281 22.1211H27.9609V22.5153H36.0281V22.1211Z" fill="white"/>
</g>
<path d="M33.857 26.4297H30.7839C30.461 26.4297 30.1992 26.6913 30.1992 27.0139C30.1992 27.3366 30.461 27.5982 30.7839 27.5982H33.857C34.1799 27.5982 34.4417 27.3366 34.4417 27.0139C34.4417 26.6913 34.1799 26.4297 33.857 26.4297Z" stroke="white" stroke-width="0.106667" stroke-miterlimit="10"/>
</g>
<defs>
<clipPath id="clip0_455_1094">
<rect width="64" height="64" rx="32" fill="white"/>
</clipPath>
</defs>
</svg>
