<svg width="65" height="56" viewBox="0 0 65 56" fill="none" xmlns="http://www.w3.org/2000/svg">
<path d="M32.5 55.6959C50.1731 55.6959 64.5 47.4244 64.5 37.221C64.5 27.0176 50.1731 18.7461 32.5 18.7461C14.8269 18.7461 0.5 27.0176 0.5 37.221C0.5 47.4244 14.8269 55.6959 32.5 55.6959Z" fill="#F5F5F5"/>
<path d="M50.6376 49.4685C54.0716 49.4685 56.8554 47.8609 56.8554 45.8778C56.8554 43.8947 54.0716 42.2871 50.6376 42.2871C47.2037 42.2871 44.4199 43.8947 44.4199 45.8778C44.4199 47.8609 47.2037 49.4685 50.6376 49.4685Z" fill="#E0E0E0"/>
<path d="M5.12137 37.0062L21.7225 46.5895C21.9345 46.6972 22.1689 46.7533 22.4067 46.7533C22.6445 46.7533 22.879 46.6972 23.091 46.5895L54.3471 28.5422C54.725 28.3237 54.725 27.9698 54.3471 27.7514L37.7513 18.1668C37.5391 18.0597 37.3048 18.0039 37.0671 18.0039C36.8294 18.0039 36.595 18.0597 36.3829 18.1668L5.12137 36.2155C4.7434 36.4339 4.7434 36.7878 5.12137 37.0062Z" fill="#E0E0E0"/>
<path d="M11.6981 1.2246L10.7599 1.76072C10.7652 1.71355 10.7679 1.66612 10.768 1.61865V1.30904C10.768 0.750127 10.4289 0.492787 10.0093 0.735384C9.82427 0.851991 9.66911 1.01036 9.55632 1.19779C9.48797 0.488766 9.01081 0.184515 8.43046 0.518253C7.80319 0.881478 7.29521 1.85187 7.29521 2.68822V3.15867C7.2914 3.34725 7.32417 3.53478 7.39171 3.71088L6.61031 4.16123C6.48208 4.25295 6.37719 4.37351 6.30409 4.51319C6.23099 4.65288 6.19172 4.80778 6.18945 4.96542C6.18945 5.27637 6.3771 5.41844 6.61031 5.28441L11.7035 2.34644C11.8316 2.25457 11.9364 2.13398 12.0094 1.99433C12.0825 1.85468 12.1219 1.69985 12.1244 1.54225C12.119 1.23264 11.93 1.08923 11.6981 1.2246Z" fill="#EBEBEB"/>
<path d="M17.7299 2.86053L17.0209 3.26262C17.0251 3.22703 17.0273 3.19124 17.0276 3.1554V2.92755C17.0276 2.50535 16.7703 2.31234 16.4539 2.49462C16.3146 2.58239 16.198 2.70179 16.1135 2.84311C16.0612 2.30698 15.7007 2.07913 15.2624 2.33111C14.7893 2.59917 14.4059 3.33768 14.4059 3.96897V4.32281C14.4034 4.46553 14.428 4.60742 14.4783 4.74099L13.8899 5.08009C13.7933 5.1495 13.7142 5.24056 13.6591 5.34599C13.6039 5.45141 13.5742 5.56828 13.5723 5.68725C13.5723 5.92181 13.7143 6.02903 13.8899 5.92717L17.7299 3.71029C17.8268 3.6411 17.906 3.55009 17.9612 3.44462C18.0164 3.33914 18.046 3.22216 18.0476 3.10313C18.0476 2.86991 17.9055 2.76269 17.7299 2.86053Z" fill="#EBEBEB"/>
<path d="M54.7145 41.8336C54.7145 41.8336 54.6488 39.9572 55.3565 38.381C56.0642 36.8048 57.1927 35.7245 58.3588 35.4551C59.5249 35.1857 60.6373 36.1252 59.4874 37.0634C58.3374 38.0017 56.2076 39.09 55.5897 42.0306L54.7145 41.8336Z" fill="#259C77"/>
<g opacity="0.15">
<path d="M54.7145 41.8336C54.7145 41.8336 54.6488 39.9572 55.3565 38.381C56.0642 36.8048 57.1927 35.7245 58.3588 35.4551C59.5249 35.1857 60.6373 36.1252 59.4874 37.0634C58.3374 38.0017 56.2076 39.09 55.5897 42.0306L54.7145 41.8336Z" fill="black"/>
</g>
<path d="M54.9899 41.3028H54.9765C54.96 41.2987 54.9458 41.2882 54.937 41.2736C54.9282 41.2591 54.9255 41.2416 54.9296 41.2251C55.7177 37.9748 57.897 36.3423 58.9398 35.9335C58.955 35.9298 58.9711 35.9317 58.985 35.939C58.9989 35.9462 59.0097 35.9584 59.0153 35.973C59.0209 35.9877 59.021 36.0039 59.0154 36.0186C59.0099 36.0333 58.9992 36.0454 58.9854 36.0528C57.9654 36.4549 55.8289 38.0566 55.0529 41.2559C55.0495 41.2698 55.0413 41.2821 55.0298 41.2907C55.0183 41.2992 55.0042 41.3035 54.9899 41.3028Z" fill="white"/>
<path d="M60.1425 40.6127C60.046 40.8446 59.798 40.9706 59.5675 41.0711C59.3369 41.1716 59.0863 41.2788 58.967 41.4987C58.7244 41.9436 59.1573 42.5495 58.896 42.9837C58.8346 43.0708 58.7561 43.1444 58.6653 43.2002C58.5745 43.2559 58.4733 43.2927 58.3679 43.3081C58.195 43.3456 58.0181 43.3496 57.8425 43.3697C57.7588 43.37 57.6751 43.3655 57.5919 43.3563C57.3465 43.3083 57.0922 43.3422 56.8681 43.4528C56.525 43.6579 56.4298 44.1002 56.2274 44.4447C56.1019 44.6488 55.9336 44.8232 55.7341 44.9561C55.5347 45.0889 55.3088 45.1769 55.0721 45.214C54.678 45.2757 54.0843 45.2033 53.977 45.0317C53.8966 44.8977 54.1111 44.4956 54.1111 44.3401C54.1138 43.945 54.1538 43.551 54.2303 43.1633C54.2718 42.9877 54.2921 42.8077 54.2907 42.6272C54.284 42.4248 54.2786 42.2251 54.2746 42.0214C54.2706 41.8176 54.2156 41.6327 54.288 41.4102C54.3674 41.201 54.4772 41.0045 54.6137 40.8272C54.7415 40.6484 54.8706 40.4697 55.001 40.291C55.1473 40.0773 55.3192 39.8824 55.513 39.7107C55.6882 39.5686 55.8905 39.4639 56.1077 39.4031C56.3248 39.3422 56.5521 39.3265 56.7756 39.3568C57.1442 39.4078 57.5088 39.6048 57.8867 39.578C58.2647 39.5512 58.6132 39.444 58.9898 39.46C59.189 39.4601 59.3856 39.5055 59.5646 39.5928C59.7437 39.6801 59.9005 39.8071 60.0232 39.964C60.095 40.0539 60.1434 40.1602 60.1642 40.2734C60.1851 40.3866 60.1776 40.5031 60.1425 40.6127Z" fill="#259C77"/>
<path d="M54.2756 44.0412C54.2684 44.0395 54.2616 44.0364 54.2556 44.032C54.2496 44.0276 54.2445 44.0221 54.2406 44.0157C54.2368 44.0094 54.2342 44.0023 54.2331 43.995C54.2319 43.9876 54.2323 43.9801 54.2341 43.9729C55.0584 40.5149 58.6638 39.9238 59.5122 39.9627C59.5196 39.963 59.5269 39.9648 59.5336 39.968C59.5403 39.9711 59.5463 39.9756 59.5513 39.981C59.5563 39.9865 59.5601 39.9929 59.5626 39.9999C59.5651 40.0069 59.5662 40.0143 59.5659 40.0216C59.5655 40.029 59.5637 40.0363 59.5606 40.043C59.5574 40.0497 59.553 40.0557 59.5475 40.0607C59.542 40.0657 59.5356 40.0695 59.5286 40.072C59.5217 40.0745 59.5143 40.0756 59.5069 40.0753C58.6772 40.0377 55.1509 40.6114 54.344 43.9984C54.3424 44.0057 54.3394 44.0127 54.3351 44.0188C54.3308 44.025 54.3252 44.0302 54.3189 44.0342C54.3125 44.0382 54.3054 44.0409 54.298 44.0421C54.2905 44.0433 54.2829 44.043 54.2756 44.0412Z" fill="white"/>
<path d="M58.25 42.1957C58.2389 42.1941 58.2285 42.189 58.2205 42.181C57.8787 41.9002 57.4791 41.6983 57.0503 41.5896C56.6214 41.481 56.1739 41.4683 55.7396 41.5524C55.7323 41.5536 55.7248 41.5534 55.7176 41.5517C55.7104 41.5501 55.7036 41.547 55.6975 41.5427C55.6915 41.5384 55.6864 41.533 55.6824 41.5267C55.6785 41.5204 55.6758 41.5134 55.6746 41.5061C55.6734 41.4988 55.6736 41.4914 55.6753 41.4841C55.6769 41.4769 55.68 41.4701 55.6843 41.4641C55.6886 41.458 55.694 41.4529 55.7003 41.449C55.7066 41.445 55.7135 41.4424 55.7209 41.4411C56.1724 41.3541 56.6376 41.368 57.0832 41.4818C57.5288 41.5955 57.9437 41.8064 58.2983 42.0992C58.3071 42.1075 58.3131 42.1184 58.3152 42.1304C58.3173 42.1423 58.3155 42.1546 58.3101 42.1655C58.3047 42.1763 58.2959 42.1851 58.2851 42.1906C58.2743 42.196 58.262 42.1978 58.25 42.1957Z" fill="white"/>
<path d="M7.5433 32.789C7.85425 30.8723 7.33957 26.7884 4.75678 26.9854C4.19385 27.0256 3.61484 27.5939 4.22066 28.3981C4.71121 29.0575 5.22723 29.6995 5.62933 30.4193C6.05153 31.1766 6.03142 32.0612 6.18154 32.9109C6.24587 33.2674 6.3799 33.699 6.73643 33.766C6.8497 33.7785 6.9642 33.7589 7.06684 33.7093C7.16947 33.6598 7.25608 33.5824 7.31678 33.4859C7.43527 33.2913 7.50983 33.0731 7.53525 32.8466L7.5433 32.789Z" fill="#259C77"/>
<path opacity="0.15" d="M7.5433 32.789C7.85425 30.8723 7.33957 26.7884 4.75678 26.9854C4.19385 27.0256 3.61484 27.5939 4.22066 28.3981C4.71121 29.0575 5.22723 29.6995 5.62933 30.4193C6.05153 31.1766 6.03142 32.0612 6.18154 32.9109C6.24587 33.2674 6.3799 33.699 6.73643 33.766C6.8497 33.7785 6.9642 33.7589 7.06684 33.7093C7.16947 33.6598 7.25608 33.5824 7.31678 33.4859C7.43527 33.2913 7.50983 33.0731 7.53525 32.8466L7.5433 32.789Z" fill="black"/>
<path d="M6.7344 32.6295C6.71734 32.6246 6.70295 32.613 6.69441 32.5974C6.68586 32.5818 6.68386 32.5635 6.68883 32.5464C7.31074 30.284 5.59514 27.8379 5.10994 27.4532C5.09593 27.4424 5.08679 27.4264 5.08453 27.4088C5.08227 27.3912 5.08707 27.3735 5.09788 27.3594C5.10895 27.3457 5.12488 27.3368 5.14237 27.3345C5.15985 27.3323 5.17752 27.3369 5.1917 27.3474C5.69164 27.7387 7.45951 30.2424 6.8175 32.5746C6.81518 32.5832 6.81118 32.5912 6.80573 32.5982C6.80028 32.6052 6.79349 32.6111 6.78576 32.6154C6.77803 32.6198 6.76951 32.6226 6.76069 32.6236C6.75188 32.6247 6.74294 32.6239 6.7344 32.6215V32.6295Z" fill="white"/>
<path d="M6.49924 31.2738C6.49924 31.239 6.49924 31.2028 6.49924 31.1666C6.4942 30.8983 6.39988 30.6394 6.23117 30.4308C6.16415 30.3547 6.08808 30.2872 6.00466 30.2297C5.70417 30.0179 5.3579 29.8802 4.99406 29.8276C4.83002 29.8137 4.66733 29.7868 4.50753 29.7472C4.05316 29.5998 3.70334 29.1588 3.31063 28.8961C2.88039 28.5932 1.79339 28.3251 1.43017 28.9041C1.1621 29.3223 1.96629 29.8718 2.51448 30.4267C3.06267 30.9816 3.36156 31.5352 2.97019 32.0673C2.63377 32.523 2.54799 32.9867 3.2597 33.4826C3.89232 33.9223 4.79436 33.8137 4.81848 34.5938C4.83188 35.0387 5.31976 35.7116 6.05961 35.595C6.31159 35.5548 6.61182 35.2559 6.76328 35.0656C6.92923 34.85 7.04714 34.6014 7.10908 34.3364C7.20696 33.9601 7.22432 33.5673 7.16001 33.1838C7.1338 32.9919 7.07246 32.8065 6.97907 32.6369C6.8705 32.4613 6.66543 32.33 6.50862 32.1933C6.48512 32.1747 6.46475 32.1526 6.4483 32.1276C6.42571 32.0752 6.421 32.0168 6.4349 31.9614C6.47183 31.7339 6.49332 31.5042 6.49924 31.2738Z" fill="#259C77"/>
<path d="M6.29048 34.4313C6.2771 34.4276 6.26522 34.4198 6.25655 34.409C6.24788 34.3981 6.24287 34.3848 6.24223 34.371C6.13232 32.2265 3.40881 29.5887 2.28964 29.0512C2.28171 29.0474 2.27462 29.042 2.26878 29.0354C2.26293 29.0288 2.25845 29.0211 2.25558 29.0127C2.25272 29.0044 2.25153 28.9956 2.25209 28.9868C2.25264 28.978 2.25493 28.9694 2.25882 28.9614C2.26254 28.9536 2.2678 28.9465 2.27428 28.9407C2.28077 28.9348 2.28835 28.9304 2.29658 28.9275C2.30482 28.9246 2.31354 28.9234 2.32225 28.924C2.33095 28.9245 2.33946 28.9268 2.34728 28.9306C3.48922 29.4775 6.26368 32.1675 6.37626 34.3643C6.3768 34.373 6.37559 34.3817 6.3727 34.39C6.36982 34.3983 6.3653 34.4059 6.35944 34.4124C6.35357 34.4189 6.34646 34.4241 6.33853 34.4278C6.3306 34.4315 6.32201 34.4336 6.31327 34.4339C6.30557 34.4345 6.29785 34.4335 6.29048 34.4313Z" fill="white"/>
<path d="M3.70938 32.5204C3.69978 32.5172 3.69098 32.5119 3.68358 32.505C3.67619 32.498 3.67036 32.4896 3.66649 32.4802C3.66026 32.4637 3.66069 32.4453 3.66769 32.4291C3.67468 32.4128 3.68771 32.3999 3.70402 32.3931C4.3371 32.1857 5.01724 32.1694 5.65954 32.3462C5.6763 32.3512 5.69045 32.3625 5.69897 32.3778C5.70748 32.3931 5.70969 32.4111 5.70511 32.428C5.70041 32.445 5.68918 32.4594 5.67387 32.4682C5.65857 32.477 5.64041 32.4794 5.62335 32.4749C5.00631 32.3097 4.35465 32.3264 3.74691 32.5231C3.73439 32.5256 3.72142 32.5247 3.70938 32.5204Z" fill="white"/>
<path d="M6.23129 33.7002C5.99941 33.8798 6.02488 34.1358 6.30635 34.2979L21.7628 43.2231C21.9371 43.3113 22.1298 43.3573 22.3251 43.3573C22.5205 43.3573 22.7131 43.3113 22.8874 43.2231L52.4279 26.1689C52.7134 26.0041 52.7362 25.7441 52.4936 25.5645C52.6389 25.6741 52.7586 25.8141 52.8442 25.9748C52.9299 26.1355 52.9794 26.3128 52.9895 26.4946V27.2372C52.9794 27.4325 52.9231 27.6227 52.8252 27.7921C52.7274 27.9615 52.5907 28.1052 52.4266 28.2116L22.8901 45.2644C22.7156 45.3529 22.5227 45.3991 22.3271 45.3991C22.1315 45.3991 21.9386 45.3529 21.7642 45.2644L6.30769 36.3406C6.1437 36.2345 6.00727 36.0909 5.90963 35.9217C5.81199 35.7525 5.75594 35.5626 5.74609 35.3675V34.6223C5.75643 34.4429 5.80508 34.2677 5.88878 34.1087C5.97247 33.9496 6.08926 33.8103 6.23129 33.7002Z" fill="#259C77"/>
<path opacity="0.5" d="M6.23129 33.7002C5.99941 33.8798 6.02488 34.1358 6.30635 34.2979L21.7628 43.2231C21.9371 43.3113 22.1298 43.3573 22.3251 43.3573C22.5205 43.3573 22.7131 43.3113 22.8874 43.2231L52.4279 26.1689C52.7134 26.0041 52.7362 25.7441 52.4936 25.5645C52.6389 25.6741 52.7586 25.8141 52.8442 25.9748C52.9299 26.1355 52.9794 26.3128 52.9895 26.4946V27.2372C52.9794 27.4325 52.9231 27.6227 52.8252 27.7921C52.7274 27.9615 52.5907 28.1052 52.4266 28.2116L22.8901 45.2644C22.7156 45.3529 22.5227 45.3991 22.3271 45.3991C22.1315 45.3991 21.9386 45.3529 21.7642 45.2644L6.30769 36.3406C6.1437 36.2345 6.00727 36.0909 5.90963 35.9217C5.81199 35.7525 5.75594 35.5626 5.74609 35.3675V34.6223C5.75643 34.4429 5.80508 34.2677 5.88878 34.1087C5.97247 33.9496 6.08926 33.8103 6.23129 33.7002Z" fill="black"/>
<path d="M6.30643 34.2974L21.7629 43.2225C21.9372 43.3107 22.1298 43.3567 22.3252 43.3567C22.5205 43.3567 22.7132 43.3107 22.8875 43.2225L52.428 26.1684C52.7376 25.9888 52.7376 25.6979 52.428 25.5197L36.9715 16.5932C36.7972 16.505 36.6046 16.459 36.4092 16.459C36.2139 16.459 36.0213 16.505 35.847 16.5932L6.30643 33.6487C5.99682 33.8283 5.99682 34.1191 6.30643 34.2974ZM33.4692 18.9012C33.7373 18.747 34.0054 18.8368 34.2734 18.991L48.328 27.1052C48.596 27.258 48.596 27.5073 48.328 27.6615L25.3335 40.94C25.1839 41.0154 25.0186 41.0547 24.851 41.0547C24.6834 41.0547 24.5182 41.0154 24.3685 40.94L10.3153 32.8257C10.0472 32.6716 10.0472 32.4236 10.3153 32.2695L33.4692 18.9012Z" fill="#259C77"/>
<path opacity="0.3" d="M6.30643 34.2974L21.7629 43.2225C21.9372 43.3107 22.1298 43.3567 22.3252 43.3567C22.5205 43.3567 22.7132 43.3107 22.8875 43.2225L52.428 26.1684C52.7376 25.9888 52.7376 25.6979 52.428 25.5197L36.9715 16.5932C36.7972 16.505 36.6046 16.459 36.4092 16.459C36.2139 16.459 36.0213 16.505 35.847 16.5932L6.30643 33.6487C5.99682 33.8283 5.99682 34.1191 6.30643 34.2974ZM33.4692 18.9012C33.7373 18.747 34.0054 18.8368 34.2734 18.991L48.328 27.1052C48.596 27.258 48.596 27.5073 48.328 27.6615L25.3335 40.94C25.1839 41.0154 25.0186 41.0547 24.851 41.0547C24.6834 41.0547 24.5182 41.0154 24.3685 40.94L10.3153 32.8257C10.0472 32.6716 10.0472 32.4236 10.3153 32.2695L33.4692 18.9012Z" fill="black"/>
<path d="M52.494 25.5625C52.6393 25.6722 52.759 25.8122 52.8446 25.9728C52.9303 26.1335 52.9798 26.3109 52.9899 26.4927V27.2352C52.9796 27.4305 52.9232 27.6206 52.8253 27.79C52.7275 27.9593 52.591 28.1031 52.4269 28.2096L22.8904 45.2638C22.7166 45.3552 22.5225 45.4013 22.3262 45.3978V43.3552C22.5218 43.3594 22.7152 43.3132 22.8878 43.2211L52.4283 26.167C52.7138 26.0021 52.7406 25.7421 52.494 25.5625Z" fill="#259C77"/>
<path opacity="0.6" d="M52.494 25.5625C52.6393 25.6722 52.759 25.8122 52.8446 25.9728C52.9303 26.1335 52.9798 26.3109 52.9899 26.4927V27.2352C52.9796 27.4305 52.9232 27.6206 52.8253 27.79C52.7275 27.9593 52.591 28.1031 52.4269 28.2096L22.8904 45.2638C22.7166 45.3552 22.5225 45.4013 22.3262 45.3978V43.3552C22.5218 43.3594 22.7152 43.3132 22.8878 43.2211L52.4283 26.167C52.7138 26.0021 52.7406 25.7421 52.494 25.5625Z" fill="black"/>
<path d="M43.2232 21.9323C43.0141 21.8116 43.0141 21.6173 43.2232 21.4967C43.3399 21.4372 43.4689 21.4062 43.5999 21.4062C43.7308 21.4062 43.8598 21.4372 43.9765 21.4967C44.1842 21.6173 44.1842 21.8116 43.9765 21.9323C43.8596 21.9911 43.7307 22.0217 43.5999 22.0217C43.469 22.0217 43.3401 21.9911 43.2232 21.9323Z" fill="black"/>
<path d="M15.4948 38.5314C15.1741 38.5376 14.8572 38.4619 14.574 38.3116C14.3153 38.1615 14.1719 37.9591 14.1719 37.7406C14.1719 37.5221 14.3139 37.3197 14.574 37.171C14.8596 37.0262 15.1754 36.9509 15.4956 36.9512C15.8158 36.9514 16.1315 37.0272 16.4169 37.1723C16.6756 37.3211 16.819 37.5235 16.819 37.7419C16.819 37.9604 16.6769 38.1628 16.4169 38.3129C16.1331 38.463 15.8157 38.5382 15.4948 38.5314ZM15.4948 37.0825C15.1974 37.0764 14.9035 37.1466 14.641 37.2862C14.4252 37.4109 14.3072 37.5717 14.3072 37.7406C14.3072 37.9095 14.4252 38.0703 14.641 38.195C14.9056 38.3291 15.1981 38.399 15.4948 38.399C15.7914 38.399 16.0839 38.3291 16.3485 38.195C16.5643 38.0703 16.6823 37.9095 16.6823 37.7406C16.6823 37.5717 16.5643 37.4109 16.3485 37.2862C16.0859 37.147 15.792 37.0769 15.4948 37.0825Z" fill="#E6E6E6"/>
<path d="M43.5879 23.3771L40.6768 21.6963C40.5039 21.5971 40.4945 21.439 40.658 21.3451C40.7531 21.2988 40.8578 21.2756 40.9636 21.2774C41.0693 21.2793 41.1731 21.3062 41.2665 21.3559L44.1763 23.0366C44.3506 23.1358 44.3586 23.294 44.1964 23.3878C44.1012 23.4334 43.9966 23.4562 43.8909 23.4544C43.7853 23.4525 43.6816 23.426 43.5879 23.3771Z" fill="black"/>
<path d="M33.4683 18.9003C33.7363 18.7462 34.0044 18.836 34.2724 18.9901L48.327 27.1044C48.595 27.2572 48.595 27.5065 48.327 27.6606L25.3326 40.9391C25.1829 41.0145 25.0176 41.0538 24.85 41.0538C24.6824 41.0538 24.5172 41.0145 24.3675 40.9391L10.3143 32.8249C10.0463 32.6707 10.0463 32.4228 10.3143 32.2686L33.4683 18.9003Z" fill="#FAFAFA"/>
<path d="M11.1603 27.67L10.6979 27.402C10.6852 27.3968 10.6747 27.3873 10.6684 27.3751L10.3789 26.6755L10.7555 26.457L10.7448 26.4905L11.1603 27.67Z" fill="#259C77"/>
<g opacity="0.4">
<path d="M11.1603 27.67L10.6979 27.402C10.6852 27.3968 10.6747 27.3873 10.6684 27.3751L10.3789 26.6755L10.7555 26.457L10.7448 26.4905L11.1603 27.67Z" fill="black"/>
</g>
<path d="M10.6973 26.4915L11.1369 27.6468C11.1431 27.6578 11.1524 27.6668 11.1635 27.6727C11.1747 27.6786 11.1874 27.6811 11.2 27.68C11.2126 27.6789 11.2246 27.6741 11.2346 27.6663C11.2445 27.6586 11.252 27.6481 11.2562 27.6361L11.7266 25.9004L10.6973 26.4915Z" fill="#259C77"/>
<path opacity="0.2" d="M10.6973 26.4915L11.1369 27.6468C11.1431 27.6578 11.1524 27.6668 11.1635 27.6727C11.1747 27.6786 11.1874 27.6811 11.2 27.68C11.2126 27.6789 11.2246 27.6741 11.2346 27.6663C11.2445 27.6586 11.252 27.6481 11.2562 27.6361L11.7266 25.9004L10.6973 26.4915Z" fill="black"/>
<path d="M17.7728 10.387C17.7676 10.2798 17.737 10.1753 17.6837 10.0821C17.6303 9.98897 17.5557 9.90973 17.4659 9.8509L17.222 9.71016C17.1266 9.66188 17.0212 9.63672 16.9144 9.63672C16.8075 9.63672 16.7021 9.66188 16.6068 9.71016L8.83428 14.1949C8.74424 14.2534 8.66945 14.3326 8.61608 14.4259C8.56271 14.5191 8.53229 14.6237 8.52734 14.731V26.3917C8.53229 26.499 8.56271 26.6036 8.61608 26.6968C8.66945 26.7901 8.74424 26.8692 8.83428 26.9278L9.08491 27.0726C9.18003 27.1209 9.28519 27.146 9.39185 27.146C9.49851 27.146 9.60367 27.1209 9.69878 27.0726L17.4458 22.5959C17.5421 22.5345 17.6222 22.4508 17.6794 22.3519C17.7366 22.253 17.7691 22.1418 17.7742 22.0277L17.7728 10.387Z" fill="#259C77"/>
<path opacity="0.3" d="M9.71705 27.0569L17.4466 22.595C17.5421 22.5327 17.6216 22.4488 17.6787 22.3501C17.7357 22.2513 17.7687 22.1406 17.775 22.0267V10.4116C17.775 10.2025 17.6289 10.118 17.448 10.2226L9.71705 14.6805C9.62155 14.7428 9.54207 14.8267 9.48502 14.9254C9.42797 15.0241 9.39497 15.1349 9.38867 15.2488V26.8679C9.38867 27.077 9.53611 27.1615 9.71705 27.0569Z" fill="black"/>
<path d="M10.5696 25.4881L16.601 22.0099C16.6732 21.9627 16.7333 21.8992 16.7764 21.8244C16.8194 21.7497 16.8443 21.6658 16.849 21.5797V11.9294C16.849 11.7699 16.7377 11.7069 16.601 11.786L10.5696 15.2682C10.4971 15.3151 10.4367 15.3786 10.3934 15.4534C10.35 15.5282 10.325 15.6121 10.3203 15.6984V25.3487C10.3203 25.5028 10.4316 25.5671 10.5696 25.4881Z" fill="#259C77"/>
<path opacity="0.5" d="M8.52734 26.3942C8.53229 26.5015 8.56271 26.6061 8.61608 26.6993C8.66945 26.7925 8.74424 26.8717 8.83428 26.9303L9.08491 27.0751C9.17134 27.119 9.26613 27.1439 9.36297 27.1483C9.4598 27.1527 9.55646 27.1364 9.64651 27.1005C9.50175 27.1555 9.39185 27.0724 9.39185 26.8981V15.2267C9.39585 15.1198 9.42674 15.0156 9.48165 14.9238L8.61715 14.4238C8.56164 14.5154 8.5307 14.6197 8.52734 14.7267V26.3942Z" fill="black"/>
<path opacity="0.1" d="M17.7721 10.3675C17.7721 10.2188 17.6381 10.1102 17.4464 10.2201L9.69943 14.6927C9.60788 14.7491 9.53331 14.8292 9.48364 14.9246L8.61914 14.426C8.66957 14.3319 8.74402 14.2528 8.83493 14.1968L16.6007 9.71212C16.6961 9.66383 16.8014 9.63867 16.9083 9.63867C17.0152 9.63867 17.1206 9.66383 17.2159 9.71212L17.4666 9.85687C17.5526 9.91352 17.6248 9.98886 17.6777 10.0773C17.7306 10.1657 17.7629 10.2649 17.7721 10.3675Z" fill="black"/>
<path d="M16.9238 18.2829C16.1008 18.307 13.9014 18.1851 13.9014 18.1851C13.2211 17.8085 12.6541 17.2566 12.2593 16.5867C11.8644 15.9169 11.6563 15.1535 11.6563 14.3759V13.6937C11.6513 13.0644 11.861 12.4522 12.2509 11.9582C12.6408 11.4643 13.1876 11.1181 13.8008 10.9769C14.1712 10.8928 14.5557 10.8931 14.9259 10.9779C15.2961 11.0627 15.6425 11.2297 15.9394 11.4666C16.2362 11.7034 16.476 12.0041 16.6408 12.3462C16.8057 12.6884 16.8914 13.0633 16.8916 13.443C16.8916 13.7781 16.9506 14.081 17.2039 14.3236C17.3445 14.446 17.4987 14.5517 17.6636 14.6386C17.8986 14.7676 18.1072 14.9394 18.2788 15.1452C18.3643 15.2486 18.4275 15.3685 18.4645 15.4974C18.5014 15.6264 18.5112 15.7616 18.4933 15.8945C18.459 16.0643 18.3772 16.221 18.2574 16.3462C18.2455 16.3522 18.2353 16.361 18.2276 16.3719C18.2199 16.3828 18.2149 16.3954 18.2132 16.4086C18.2115 16.4218 18.2131 16.4352 18.2177 16.4477C18.2224 16.4602 18.23 16.4713 18.24 16.4802C18.4598 16.8206 18.5509 17.275 18.366 17.6369C18.2408 17.8634 18.0402 18.0389 17.799 18.1328C17.5598 18.2261 17.3064 18.2773 17.0498 18.2843L16.9238 18.2829Z" fill="#263238"/>
<path d="M12.8854 18.6075C12.8477 18.9097 12.7299 19.1963 12.5442 19.4376C12.3585 19.6789 12.1117 19.8662 11.8292 19.98L10.698 25.4123L10.32 25.6294L10.3066 19.1959C10.6364 17.5581 11.202 17.3677 12.2166 17.0742C12.2152 17.0782 13.0395 17.605 12.8854 18.6075Z" fill="#B16668"/>
<path d="M22.3147 18.3798C21.7916 19.2928 21.2216 20.1781 20.6071 21.0323C20.4543 21.2347 20.0294 21.7949 19.8029 21.8512C19.5201 21.9209 19.2789 21.6971 19.1328 21.5939C18.6194 21.2373 15.9643 18.5969 15.9643 18.5969C15.1373 17.4443 15.3464 16.7098 15.4576 16.7098C15.5689 16.7098 16.4173 16.4873 17.1438 17.1963C17.6919 17.7324 19.5684 19.6719 19.5684 19.6719C20.012 19.1518 20.3029 18.8945 20.7452 18.3718C20.9596 18.1184 21.2813 17.845 21.3027 17.4952C21.3004 17.3353 21.2861 17.1758 21.2599 17.018C21.233 16.6534 21.256 16.2868 21.3282 15.9284C21.33 15.9121 21.3345 15.8962 21.3416 15.8815C21.3537 15.8613 21.372 15.8458 21.3939 15.8372C21.4346 15.8257 21.478 15.8281 21.5173 15.8438C21.5566 15.8596 21.5895 15.8879 21.611 15.9243C21.6524 15.9982 21.6749 16.081 21.6767 16.1656C21.6788 16.2505 21.697 16.3341 21.7303 16.4122C21.7379 16.4279 21.7489 16.4416 21.7625 16.4524C21.7779 16.4615 21.7955 16.4662 21.8134 16.4658C21.9153 16.4658 21.9689 16.3573 22.0051 16.2768C22.0925 16.0899 22.1633 15.8958 22.2168 15.6965C22.253 15.5625 22.316 15.4284 22.3616 15.2944C22.381 15.2133 22.4245 15.14 22.4862 15.084C22.547 15.0532 22.6148 15.0393 22.6827 15.0438C22.7507 15.0483 22.8161 15.0709 22.8723 15.1094C22.9401 15.1425 23.0043 15.1824 23.0639 15.2287C23.2367 15.3882 23.3509 15.6011 23.3883 15.8332C23.4367 16.1015 23.4188 16.3776 23.336 16.6374C23.2311 17.0034 23.0588 17.3466 22.828 17.6493C22.6498 17.8933 22.4621 18.1238 22.3147 18.3798Z" fill="#B16668"/>
<path d="M16.4626 20.2288L16.409 21.3385L16.5725 22.0208L13.9267 23.5487L11.2461 25.0928L12.1468 22.2379L11.8224 19.9808C11.8573 19.9513 12.254 19.5519 12.3827 18.6083C12.5033 17.7063 12.2781 17.1688 12.2084 17.079C12.2446 17.067 13.0488 16.8498 13.0488 16.8498L14.7631 16.7158L15.4734 16.7051C16.0819 17.1502 16.5577 17.7526 16.8499 18.4475C17.2762 19.4903 16.4626 20.2288 16.4626 20.2288Z" fill="#FAFAFA"/>
<path opacity="0.1" d="M12.7174 23.5208C12.8313 23.0128 13.4586 22.738 13.2106 22.533C12.9626 22.3279 12.3287 21.0412 12.263 20.4501C12.2231 19.9917 12.2231 19.5307 12.263 19.0723C12.1062 19.8403 11.7751 20.1753 11.7443 20.2021L12.0687 22.4592L11.168 25.3141L13.4974 23.9738C12.96 23.9792 12.6517 23.8116 12.7174 23.5208Z" fill="black"/>
<path opacity="0.9" d="M16.027 12.2795C15.9761 12.7768 15.4199 13.3009 14.5916 13.7633C13.7633 14.2257 13.1387 14.2083 13.1387 14.2083C15.2363 13.1226 15.7469 11.8145 15.7469 11.8145C16.027 11.9364 16.027 12.2795 16.027 12.2795Z" fill="#259C77"/>
<path d="M16.0279 12.2793C16.1995 12.4522 16.43 12.9052 16.4112 14.4238C16.3911 15.7078 15.9783 16.0322 15.7692 16.1206C15.5601 16.2091 15.1581 16.1608 14.7653 16.0979V16.7238C14.7653 16.7238 15.3015 17.3269 15.2639 17.6794C15.2264 18.0319 14.6889 18.2933 13.6797 17.5454C13.1891 17.1795 13.0511 16.8565 13.0511 16.8565V15.1704C13.0511 15.1704 12.8219 15.3955 12.4292 15.0564C12.1035 14.7763 11.9922 14.3018 12.2415 14.0445C12.3062 13.9833 12.3845 13.9384 12.47 13.9134C12.5555 13.8884 12.6457 13.8842 12.7331 13.9009C12.8206 13.9177 12.9028 13.955 12.973 14.0098C13.0432 14.0646 13.0994 14.1353 13.1369 14.2161C13.1369 14.2161 13.7614 14.2348 14.5911 13.7724C15.4208 13.31 15.9756 12.7792 16.0279 12.2793Z" fill="#B16668"/>
<path d="M14.9278 14.0579C14.9312 14.1014 14.9171 14.1445 14.8887 14.1777C14.8603 14.2109 14.8199 14.2314 14.7764 14.2348C14.7326 14.2359 14.6902 14.2199 14.6581 14.19C14.626 14.1602 14.6069 14.1191 14.6048 14.0753C14.602 14.0532 14.6038 14.0307 14.61 14.0093C14.6162 13.9879 14.6268 13.968 14.6411 13.9509C14.6554 13.9338 14.6731 13.9198 14.693 13.9098C14.7129 13.8998 14.7347 13.894 14.757 13.8928C14.7792 13.8916 14.8015 13.895 14.8224 13.9028C14.8433 13.9106 14.8623 13.9226 14.8784 13.9381C14.8944 13.9536 14.9071 13.9722 14.9156 13.9929C14.9241 14.0135 14.9283 14.0356 14.9278 14.0579Z" fill="#263238"/>
<path d="M14.9507 15.1602L15.3796 15.2942C15.3723 15.3229 15.3593 15.3499 15.3413 15.3735C15.3233 15.397 15.3007 15.4167 15.2749 15.4312C15.2491 15.4458 15.2206 15.4549 15.1911 15.4581C15.1616 15.4612 15.1318 15.4584 15.1035 15.4497C15.0455 15.4306 14.9972 15.3897 14.9687 15.3357C14.9402 15.2817 14.9337 15.2188 14.9507 15.1602Z" fill="#9A4A4D"/>
<path d="M16.2952 13.603L15.9668 13.3791C15.9803 13.3574 15.998 13.3386 16.0189 13.3238C16.0399 13.3091 16.0635 13.2987 16.0886 13.2933C16.1136 13.2879 16.1395 13.2877 16.1646 13.2925C16.1897 13.2973 16.2136 13.3072 16.2349 13.3215C16.2793 13.3515 16.3104 13.3976 16.3217 13.4501C16.3329 13.5026 16.3234 13.5573 16.2952 13.603Z" fill="#263238"/>
<path d="M16.224 13.9858C16.2242 14.0172 16.2152 14.048 16.1981 14.0744C16.1809 14.1008 16.1564 14.1216 16.1276 14.1342C16.0988 14.1468 16.0669 14.1507 16.0359 14.1453C16.0049 14.14 15.9762 14.1257 15.9532 14.1042C15.9303 14.0827 15.9141 14.0549 15.9068 14.0243C15.8994 13.9937 15.9012 13.9617 15.9119 13.9321C15.9226 13.9025 15.9418 13.8767 15.967 13.8579C15.9922 13.8391 16.0224 13.8281 16.0538 13.8263C16.0754 13.8255 16.097 13.8291 16.1173 13.8367C16.1376 13.8444 16.1562 13.8559 16.172 13.8707C16.1878 13.8855 16.2005 13.9033 16.2094 13.9231C16.2184 13.9428 16.2233 13.9641 16.224 13.9858Z" fill="#263238"/>
<path d="M15.4955 13.8164L15.4941 14.8672L16.0048 14.7064L15.4955 13.8164Z" fill="#9A4A4D"/>
<path d="M14.7651 16.0939C14.3523 16.043 13.5012 15.8058 13.3672 15.4707C13.4214 15.6401 13.5262 15.7888 13.6674 15.8969C13.9234 16.1127 14.7678 16.3513 14.7678 16.3513L14.7651 16.0939Z" fill="#9A4A4D"/>
<path d="M13.1426 14.7359C13.2282 14.7359 13.3104 14.7018 13.371 14.6413C13.4316 14.5807 13.4656 14.4985 13.4656 14.4129C13.4656 14.3272 13.4316 14.245 13.371 14.1845C13.3104 14.1239 13.2282 14.0898 13.1426 14.0898V14.7359Z" fill="#263238"/>
<path d="M24.2281 36.1817L23.7656 35.9137C23.7532 35.9081 23.7429 35.8987 23.7362 35.8869L23.4453 35.1872L23.8233 34.9688L23.8112 35.0023L24.2281 36.1817Z" fill="#259C77"/>
<g opacity="0.4">
<path d="M24.2281 36.1817L23.7656 35.9137C23.7532 35.9081 23.7429 35.8987 23.7362 35.8869L23.4453 35.1872L23.8233 34.9688L23.8112 35.0023L24.2281 36.1817Z" fill="black"/>
</g>
<path d="M23.7656 35.0051L24.2052 36.1605C24.2115 36.1715 24.2207 36.1805 24.2319 36.1864C24.2431 36.1923 24.2558 36.1948 24.2684 36.1937C24.281 36.1926 24.293 36.1878 24.3029 36.18C24.3129 36.1722 24.3204 36.1617 24.3245 36.1498L24.7883 34.4141L23.7656 35.0051Z" fill="#259C77"/>
<path opacity="0.2" d="M23.7656 35.0051L24.2052 36.1605C24.2115 36.1715 24.2207 36.1805 24.2319 36.1864C24.2431 36.1923 24.2558 36.1948 24.2684 36.1937C24.281 36.1926 24.293 36.1878 24.3029 36.18C24.3129 36.1722 24.3204 36.1617 24.3245 36.1498L24.7883 34.4141L23.7656 35.0051Z" fill="black"/>
<path d="M30.8392 18.8988C30.8343 18.7915 30.8039 18.6869 30.7505 18.5937C30.6971 18.5005 30.6223 18.4213 30.5323 18.3627L30.2817 18.218C30.1866 18.1697 30.0814 18.1445 29.9747 18.1445C29.8681 18.1445 29.7629 18.1697 29.6678 18.218L21.902 22.7027C21.8118 22.7612 21.7368 22.8403 21.6832 22.9335C21.6296 23.0267 21.599 23.1314 21.5938 23.2388V34.9062C21.599 35.0136 21.6296 35.1182 21.6832 35.2115C21.7368 35.3047 21.8118 35.3838 21.902 35.4423L22.1513 35.5871C22.2467 35.6354 22.352 35.6605 22.4589 35.6605C22.5658 35.6605 22.6712 35.6354 22.7665 35.5871L30.5135 31.1091C30.6096 31.0478 30.6895 30.9643 30.7464 30.8656C30.8033 30.7669 30.8356 30.656 30.8406 30.5422L30.8392 18.8988Z" fill="#259C77"/>
<path opacity="0.6" d="M23.6353 33.9995L29.6667 30.5214C29.7389 30.4742 29.799 30.4106 29.8421 30.3359C29.8851 30.2612 29.91 30.1773 29.9147 30.0912V20.4409C29.9147 20.2828 29.8034 20.2184 29.6667 20.2975L23.6353 23.7823C23.5637 23.8294 23.5041 23.8926 23.4613 23.9668C23.4185 24.0411 23.3936 24.1243 23.3887 24.2099V33.8601C23.3887 34.0143 23.4986 34.0786 23.6353 33.9995Z" fill="white"/>
<path opacity="0.1" d="M21.5938 34.9069C21.599 35.0143 21.6296 35.1189 21.6832 35.2121C21.7368 35.3054 21.8118 35.3845 21.902 35.443L22.1513 35.5878C22.2381 35.6313 22.3331 35.656 22.4301 35.6604C22.5271 35.6648 22.6239 35.6487 22.7143 35.6132C22.5695 35.6682 22.4596 35.5851 22.4596 35.4108V23.7501C22.4634 23.643 22.4948 23.5387 22.5507 23.4472L21.6849 22.9473C21.63 23.0391 21.5991 23.1433 21.5951 23.2502L21.5938 34.9069Z" fill="black"/>
<path opacity="0.6" d="M30.8399 18.8821C30.8399 18.7334 30.6978 18.6248 30.5129 18.7347L22.7672 23.2073C22.6759 23.2633 22.601 23.3424 22.5501 23.4365L21.6855 22.9379C21.7369 22.844 21.8117 22.765 21.9027 22.7087L29.6685 18.2227C29.7638 18.1751 29.8689 18.1504 29.9754 18.1504C30.0819 18.1504 30.187 18.1751 30.2823 18.2227L30.5343 18.3675C30.6205 18.4249 30.6928 18.5009 30.7457 18.59C30.7986 18.6791 30.8308 18.7789 30.8399 18.8821Z" fill="white"/>
<path d="M29.9089 30.0912V26.9026C29.5805 25.892 28.8875 25.0905 27.8086 25.1923L28.8044 27.6934L29.5537 30.5804L29.6555 30.5214C29.7287 30.4748 29.7899 30.4115 29.8339 30.3367C29.8779 30.262 29.9036 30.1778 29.9089 30.0912Z" fill="#37474F"/>
<path d="M24.7549 25.6724C24.5016 25.785 24.3528 26.1509 24.2563 26.4096C24.1017 26.8106 24.0113 27.2335 23.9883 27.6627L24.1076 31.1583L24.0647 33.7505L29.56 30.5806C29.56 30.5806 29.4849 28.0823 29.4849 27.1829C29.4849 27.1427 29.4849 27.1012 29.4849 27.0596C29.4588 26.618 29.2886 26.1971 29.0006 25.8614C28.7125 25.5257 28.3224 25.2936 27.8899 25.2006C27.5776 25.1296 25.7133 25.3708 25.7133 25.3708L24.759 25.6724H24.7549Z" fill="#455A64"/>
<path d="M27.9193 28.9483C27.9129 28.8482 27.899 28.7488 27.8777 28.6507C27.8509 28.5427 27.8348 28.4323 27.8295 28.321C27.8329 28.2081 27.845 28.0957 27.8657 27.9846C27.9247 27.6066 27.9434 27.1804 27.662 26.8802C27.6325 26.848 27.536 26.8494 27.5695 26.911C27.6688 27.0791 27.7309 27.2665 27.7518 27.4605C27.7588 27.6564 27.7435 27.8525 27.7062 28.0449C27.6881 28.1503 27.68 28.2571 27.6821 28.3639C27.6924 28.4619 27.7094 28.5591 27.733 28.6548C27.7551 28.7454 27.7725 28.8371 27.7853 28.9295C27.7853 28.9751 27.7946 29.022 27.796 29.0636C27.79 29.117 27.79 29.171 27.796 29.2244C27.8054 29.2593 27.8563 29.2887 27.8791 29.2499C27.9174 29.1543 27.9312 29.0506 27.9193 28.9483Z" fill="#37474F"/>
<path d="M27.5552 27.1948C27.5445 27.101 27.5056 26.9388 27.393 26.916C27.3743 26.916 27.3662 26.9321 27.3702 26.9468C27.3928 26.9949 27.4116 27.0447 27.4265 27.0956C27.4358 27.151 27.4402 27.207 27.4399 27.2632C27.4387 27.3806 27.4238 27.4976 27.3957 27.6116C27.3555 27.7685 27.2617 27.9105 27.2215 28.0673C27.1561 28.2479 27.1528 28.445 27.2121 28.6276C27.2201 28.6464 27.2469 28.6584 27.2576 28.637C27.2961 28.5249 27.3151 28.407 27.3139 28.2885C27.326 28.1895 27.3499 28.0923 27.385 27.999C27.45 27.8627 27.5016 27.7204 27.5391 27.5741C27.5624 27.4491 27.5679 27.3214 27.5552 27.1948Z" fill="#37474F"/>
<path d="M26.1895 21.4469C26.1895 21.7605 26.2824 22.0671 26.4567 22.3278C26.6309 22.5886 26.8785 22.7918 27.1683 22.9118C27.458 23.0318 27.7768 23.0632 28.0844 23.002C28.392 22.9409 28.6745 22.7899 28.8962 22.5681C29.118 22.3464 29.269 22.0638 29.3302 21.7563C29.3914 21.4487 29.36 21.1299 29.2399 20.8401C29.1199 20.5504 28.9167 20.3028 28.656 20.1285C28.3952 19.9543 28.0886 19.8613 27.775 19.8613C27.3545 19.8613 26.9512 20.0284 26.6539 20.3257C26.3565 20.6231 26.1895 21.0264 26.1895 21.4469Z" fill="#263238"/>
<path d="M25.0332 22.5723C25.0332 22.5723 25.2905 23.7785 25.3937 23.9783C25.4622 24.1004 25.5749 24.1916 25.7087 24.2329L25.6913 23.3832L25.0332 22.5723Z" fill="#263238"/>
<path d="M25.3637 20.8424C25.3535 20.8042 25.3353 20.7686 25.3104 20.7378C25.2854 20.7071 25.2543 20.682 25.219 20.6641C25.1702 20.6462 25.118 20.6393 25.0662 20.644C24.9194 20.6492 24.7783 20.7019 24.6641 20.7942C24.6086 20.8406 24.5635 20.8983 24.5318 20.9635C24.5002 21.0286 24.4827 21.0997 24.4805 21.1721C24.4878 21.2697 24.5161 21.3646 24.5635 21.4502C24.611 21.5358 24.6764 21.6101 24.7552 21.668C24.6865 21.7028 24.6322 21.7607 24.6018 21.8315C24.5714 21.9023 24.5669 21.9816 24.589 22.0554C24.6233 22.1671 24.6894 22.2663 24.7794 22.3409C24.8496 22.4185 24.9278 22.4886 25.0126 22.55C25.0707 22.5783 25.1343 22.5934 25.1989 22.5942C25.304 22.601 25.4086 22.613 25.5125 22.6304L25.4522 21.9602C25.4361 21.7779 25.4187 21.5957 25.4026 21.4134C25.4026 21.333 25.3852 21.2512 25.3812 21.1708C25.387 21.0632 25.3807 20.9553 25.3624 20.8491L25.3637 20.8424Z" fill="#263238"/>
<path d="M25.6657 22.6287C25.5692 22.6863 25.4312 22.4946 25.3105 22.3753C25.1899 22.256 24.8012 22.0791 24.6055 22.4893C24.4098 22.8994 24.7784 23.461 25.0854 23.5615C25.6215 23.7277 25.6952 23.3873 25.6952 23.3873L25.7341 25.5318C26.3935 26.3775 28.223 26.3118 27.4604 25.4299V24.6673C27.6966 24.7048 27.936 24.7169 28.1748 24.7035C28.5648 24.6431 28.8101 24.3362 28.928 23.914C29.1184 23.2358 29.1961 22.689 29.0286 21.3567C28.853 19.8944 27.1521 19.8824 26.2354 20.4573C25.3186 21.0323 25.6657 22.6287 25.6657 22.6287Z" fill="#FFA8A7"/>
<path d="M27.4094 26.7475C26.7357 26.3776 26.1579 25.8552 25.7219 25.2223V24.9395C25.7219 24.9395 24.9379 25.0936 24.6685 25.3523C24.3991 25.611 24.4004 25.7101 24.4004 25.7101L24.7864 25.6739C24.7864 25.6739 25.0545 25.6069 25.5196 26.0291C26.1173 26.572 27.0649 27.0156 27.4094 26.7475Z" fill="#37474F"/>
<path d="M27.4563 25.0102V25.427C27.5243 25.5839 27.5625 25.7521 27.5689 25.9229C27.555 26.2036 27.5022 26.481 27.4121 26.7472C27.4121 26.7472 27.5676 26.7472 27.774 26.514C28.1211 26.128 28.0313 25.4806 28.0005 25.2796C27.9697 25.0785 27.7485 24.9097 27.455 24.8359L27.4563 25.0102Z" fill="#37474F"/>
<path d="M25.1634 21.3791C25.1366 21.2371 25.2157 21.099 25.1983 20.957C25.1808 20.8149 25.0897 20.7492 25.0495 20.6299C25.022 20.5442 25.0146 20.4534 25.0279 20.3643C25.0411 20.2753 25.0747 20.1906 25.1259 20.1166C25.1784 20.0434 25.246 19.9823 25.3242 19.9374C25.4023 19.8925 25.4892 19.865 25.5789 19.8566C25.626 19.8496 25.674 19.8522 25.72 19.8642C25.7661 19.8762 25.8092 19.8973 25.847 19.9262C25.8406 19.8102 25.8779 19.6959 25.9515 19.6059C26.044 19.4885 26.1768 19.4097 26.3241 19.3848C26.4015 19.3747 26.4801 19.3788 26.556 19.3968C26.5774 19.3968 26.757 19.4531 26.753 19.4772C26.7721 19.3777 26.8207 19.2861 26.8923 19.2145C26.964 19.1428 27.0556 19.0943 27.1551 19.0751C27.2546 19.0598 27.3564 19.0706 27.4504 19.1066C27.5444 19.1425 27.6274 19.2024 27.6912 19.2802C27.7718 19.2198 27.8667 19.1814 27.9666 19.1689C28.0665 19.1565 28.168 19.1703 28.2609 19.2092C28.3545 19.2447 28.4384 19.3017 28.5062 19.3754C28.5398 19.4119 28.5694 19.4519 28.5946 19.4947C28.6187 19.5349 28.6214 19.5858 28.6442 19.622C28.7916 19.571 28.9502 19.5618 29.1026 19.5952C29.2339 19.6302 29.3511 19.7049 29.4384 19.809C29.5257 19.9131 29.5788 20.0415 29.5905 20.1769C29.611 20.3298 29.5721 20.4847 29.4819 20.6098C29.4206 20.6868 29.3392 20.7454 29.2468 20.7792C29.1543 20.813 29.0544 20.8207 28.9578 20.8015C28.9357 20.9061 28.8854 21.0027 28.8123 21.0808C28.7392 21.159 28.6462 21.2157 28.5433 21.2448C28.4404 21.2739 28.3314 21.2743 28.2283 21.246C28.1251 21.2177 28.0317 21.1618 27.958 21.0843C27.9167 21.1639 27.8564 21.232 27.7824 21.2826C27.644 21.3645 27.4799 21.3913 27.3227 21.3577C27.1702 21.3321 27.0297 21.2594 26.9206 21.15C26.9127 21.2424 26.8753 21.3299 26.8141 21.3996C26.7528 21.4693 26.6708 21.5176 26.5801 21.5373C26.3973 21.5713 26.2093 21.5649 26.0293 21.5185C26.1138 21.628 26.1535 21.7655 26.1405 21.9032C26.133 21.9717 26.1023 22.0356 26.0536 22.0844C26.0049 22.1331 25.941 22.1638 25.8724 22.1713C25.9093 22.315 25.9093 22.4658 25.8724 22.6096C25.8619 22.668 25.8322 22.7213 25.788 22.761C25.6205 22.8883 25.4221 22.4688 25.3216 22.379C25.2599 22.3214 25.2639 22.19 25.2599 22.111C25.2559 22.0319 25.2599 21.9541 25.2599 21.8764C25.2712 21.827 25.2789 21.7768 25.2827 21.7263C25.2505 21.6057 25.1862 21.4971 25.1634 21.3791Z" fill="#263238"/>
<path d="M25.048 20.7697L24.4609 20.4547C24.4796 20.4152 24.5061 20.3798 24.5388 20.3509C24.5715 20.3219 24.6097 20.2998 24.6512 20.286C24.6927 20.2722 24.7365 20.267 24.7801 20.2707C24.8236 20.2743 24.866 20.2868 24.9046 20.3073C24.9833 20.3512 25.042 20.4237 25.0687 20.5098C25.0954 20.5959 25.088 20.6889 25.048 20.7697Z" fill="#263238"/>
<path d="M27.4563 24.6634C27.4563 24.6634 26.5864 24.4878 26.2822 24.327C26.1032 24.2335 25.9566 24.0882 25.8613 23.9102C25.9067 24.0882 25.9879 24.2551 26.0999 24.4007C26.3224 24.6849 27.4563 24.8953 27.4563 24.8953V24.6634Z" fill="#F28F8F"/>
<path d="M27.4088 22.4128C27.4073 22.4468 27.3957 22.4797 27.3757 22.5073C27.3556 22.5348 27.3278 22.5559 27.2959 22.5679C27.264 22.5798 27.2292 22.5822 27.1959 22.5746C27.1627 22.567 27.1324 22.5498 27.1088 22.5251C27.0853 22.5004 27.0694 22.4694 27.0634 22.4359C27.0573 22.4023 27.0611 22.3677 27.0745 22.3363C27.0879 22.3049 27.1102 22.2782 27.1387 22.2594C27.1671 22.2406 27.2005 22.2305 27.2346 22.2305C27.258 22.231 27.2811 22.2361 27.3025 22.2456C27.324 22.255 27.3433 22.2686 27.3595 22.2855C27.3757 22.3024 27.3884 22.3224 27.3968 22.3442C27.4053 22.3661 27.4094 22.3893 27.4088 22.4128Z" fill="#263238"/>
<path d="M27.228 21.7588L26.8554 21.9652C26.8287 21.914 26.8229 21.8544 26.8391 21.7989C26.8553 21.7435 26.8924 21.6964 26.9425 21.6677C26.9671 21.6543 26.9942 21.6461 27.022 21.6435C27.0499 21.6409 27.078 21.6439 27.1047 21.6524C27.1313 21.6609 27.156 21.6747 27.1772 21.693C27.1984 21.7113 27.2157 21.7337 27.228 21.7588Z" fill="#263238"/>
<path d="M27.3763 23.6152L27.7783 23.7653C27.7699 23.792 27.7562 23.8166 27.738 23.8379C27.7198 23.8591 27.6976 23.8765 27.6726 23.889C27.6476 23.9015 27.6204 23.9088 27.5925 23.9106C27.5646 23.9124 27.5367 23.9086 27.5103 23.8994C27.4549 23.8794 27.4097 23.8383 27.3845 23.785C27.3594 23.7317 27.3564 23.6707 27.3763 23.6152Z" fill="#F28F8F"/>
<path d="M28.9186 21.8998L28.5781 21.6318C28.594 21.6088 28.6143 21.5892 28.638 21.5744C28.6617 21.5595 28.6881 21.5496 28.7157 21.5454C28.7433 21.5411 28.7715 21.5425 28.7986 21.5495C28.8256 21.5566 28.8509 21.569 28.873 21.5862C28.9201 21.6221 28.9512 21.6751 28.9598 21.7337C28.9683 21.7923 28.9535 21.852 28.9186 21.8998Z" fill="#263238"/>
<path d="M28.8131 22.3638C28.8134 22.3872 28.8091 22.4104 28.8005 22.4321C28.7918 22.4538 28.779 22.4735 28.7627 22.4902C28.7463 22.5069 28.7269 22.5202 28.7054 22.5293C28.6839 22.5385 28.6608 22.5433 28.6375 22.5434C28.6014 22.5445 28.5659 22.5348 28.5354 22.5155C28.5049 22.4962 28.4809 22.4683 28.4664 22.4352C28.4519 22.4022 28.4476 22.3656 28.4541 22.3301C28.4606 22.2946 28.4775 22.2619 28.5027 22.2361C28.5279 22.2103 28.5603 22.1926 28.5956 22.1854C28.6309 22.1781 28.6676 22.1815 28.701 22.1953C28.7343 22.209 28.7628 22.2324 28.7828 22.2624C28.8028 22.2925 28.8133 22.3278 28.8131 22.3638Z" fill="#263238"/>
<path d="M27.9258 22.1973L27.9821 23.2467L28.5303 23.0591L27.9258 22.1973Z" fill="#F28F8F"/>
<path d="M31.3407 30.4695L31.2067 30.3542C31.187 30.3415 31.1647 30.3335 31.1414 30.331C31.1181 30.3284 31.0946 30.3313 31.0727 30.3395L29.6198 30.7376C29.5467 30.7621 29.4798 30.8021 29.4236 30.8548C29.3674 30.9076 29.3232 30.9718 29.2941 31.0432L28.2486 34.0575C28.2354 34.082 28.23 34.11 28.2334 34.1376C28.2368 34.1652 28.2486 34.1911 28.2674 34.2117L28.4014 34.331C28.421 34.3437 28.4433 34.3518 28.4666 34.3546C28.4898 34.3574 28.5134 34.3548 28.5354 34.347L29.9964 33.9543C30.0693 33.9299 30.1362 33.8902 30.1923 33.8377C30.2485 33.7852 30.2928 33.7212 30.3221 33.6501L31.3675 30.6357C31.393 30.554 31.3796 30.4977 31.3407 30.4695Z" fill="#455A64"/>
<path d="M28.3828 34.1711L29.4282 31.1567C29.4575 31.0856 29.5018 31.0216 29.558 30.9691C29.6142 30.9167 29.681 30.8769 29.7539 30.8525L31.2068 30.4504C31.3409 30.4142 31.4132 30.4906 31.3677 30.6233L30.3222 33.6376C30.2929 33.7088 30.2487 33.7727 30.1925 33.8252C30.1363 33.8777 30.0695 33.9175 29.9965 33.9419L28.5436 34.3373C28.4096 34.3802 28.3372 34.3038 28.3828 34.1711Z" fill="#37474F"/>
<path d="M29.5966 30.9352C29.5219 30.9926 29.464 31.069 29.4291 31.1564L28.3836 34.1708C28.3716 34.1948 28.3666 34.2218 28.3692 34.2486C28.3718 34.2754 28.3819 34.3009 28.3984 34.3222L28.2643 34.211C28.2454 34.1905 28.2332 34.1647 28.2296 34.1371C28.226 34.1095 28.2311 34.0814 28.2442 34.0568L29.2897 31.0411C29.3218 30.9591 29.375 30.887 29.4438 30.832L29.5966 30.9352Z" fill="#263238"/>
<path d="M22.2637 33.4458L23.616 31.895C23.616 31.895 27.31 32.478 27.7241 32.4848C28.1383 32.4915 28.4412 32.1001 28.7079 31.7583C28.8171 31.6504 28.958 31.5804 29.11 31.5586L28.9652 31.9754C28.9478 32.0237 29.1395 32.088 29.1636 32.0961C29.2879 32.1367 29.4176 32.1584 29.5483 32.1604C29.8407 32.1673 30.1315 32.1134 30.4021 32.0022C30.547 31.9278 30.7011 31.8729 30.8604 31.8387C30.888 31.8323 30.9169 31.8356 30.9422 31.8481C30.9824 31.8722 30.9864 31.9272 30.9851 31.9741C30.9677 32.4715 30.7689 32.9454 30.4262 33.3064C30.3522 33.385 30.2705 33.456 30.1822 33.5181C29.6904 33.8599 29.0818 33.8559 28.5109 33.817C28.2955 33.8036 28.0797 33.7956 27.8635 33.7929C26.5058 33.7822 22.8923 33.6012 22.2637 33.4458Z" fill="#FFA8A7"/>
<path d="M26.7514 32.3691L27.7245 32.4857C27.5341 32.7163 27.3934 33.4749 27.5636 33.7899H26.3654C26.2407 33.2403 26.2903 32.7498 26.7514 32.3691Z" fill="#455A64"/>
<path d="M23.825 31.6275C23.5315 31.578 24.7364 31.8259 25.4656 31.9666C26.1169 32.0926 26.6919 32.169 26.7509 32.3687C26.7509 32.3687 26.3649 33.2038 26.4829 33.756C26.4829 33.756 26.4078 33.8592 25.7805 33.89C25.1533 33.9208 22.5209 33.7426 22.1697 33.5415C21.8186 33.3405 21.6912 33.0858 21.7824 32.5229L23.825 31.6275Z" fill="#37474F"/>
<path d="M21.7802 32.5221C21.7869 32.4162 22.0858 29.6672 22.4504 27.7425C22.6983 26.4451 23.3805 25.8661 24.3938 25.7106L24.7517 25.6543C25.383 26.0564 24.8964 28.036 24.2638 29.1177L23.8885 31.9672L22.2239 33.3745C21.7306 33.2753 21.7708 32.6722 21.7802 32.5221Z" fill="#37474F"/>
<path d="M35.4898 21.1798L35.0274 20.9117C35.0152 20.9058 35.005 20.8965 34.9979 20.8849L34.707 20.1853L35.085 19.9668L35.0729 20.0003L35.4898 21.1798Z" fill="#259C77"/>
<g opacity="0.4">
<path d="M35.4898 21.1798L35.0274 20.9117C35.0152 20.9058 35.005 20.8965 34.9979 20.8849L34.707 20.1853L35.085 19.9668L35.0729 20.0003L35.4898 21.1798Z" fill="white"/>
</g>
<path d="M35.0273 20.0012L35.467 21.1566C35.4732 21.1676 35.4824 21.1766 35.4936 21.1825C35.5048 21.1884 35.5175 21.1909 35.5301 21.1898C35.5427 21.1886 35.5547 21.1839 35.5646 21.1761C35.5746 21.1683 35.5821 21.1578 35.5863 21.1459L36.05 19.4102L35.0273 20.0012Z" fill="#259C77"/>
<path opacity="0.6" d="M35.0273 20.0012L35.467 21.1566C35.4732 21.1676 35.4824 21.1766 35.4936 21.1825C35.5048 21.1884 35.5175 21.1909 35.5301 21.1898C35.5427 21.1886 35.5547 21.1839 35.5646 21.1761C35.5746 21.1683 35.5821 21.1578 35.5863 21.1459L36.05 19.4102L35.0273 20.0012Z" fill="white"/>
<path d="M42.1001 3.8969C42.0952 3.78959 42.0647 3.685 42.0114 3.59178C41.958 3.49855 41.8832 3.41937 41.7932 3.36078L41.5439 3.21602C41.4485 3.16774 41.3432 3.14258 41.2363 3.14258C41.1294 3.14258 41.024 3.16774 40.9287 3.21602L33.1696 7.70473C33.0794 7.76326 33.0044 7.8424 32.9508 7.93561C32.8972 8.02883 32.8665 8.13346 32.8613 8.24086V19.9083C32.8665 20.0157 32.8972 20.1203 32.9508 20.2135C33.0044 20.3068 33.0794 20.3859 33.1696 20.4444L33.4189 20.5892C33.5142 20.6375 33.6196 20.6626 33.7265 20.6626C33.8334 20.6626 33.9388 20.6375 34.0341 20.5892L41.7811 16.1112C41.8772 16.0499 41.957 15.9664 42.014 15.8677C42.0709 15.769 42.1032 15.6581 42.1082 15.5442L42.1001 3.8969Z" fill="#259C77"/>
<path opacity="0.6" d="M34.0452 20.5667L41.7748 16.1048C41.8701 16.0424 41.9494 15.9584 42.0062 15.8597C42.063 15.761 42.0958 15.6502 42.1018 15.5365V3.92133C42.1018 3.71224 41.9557 3.6278 41.7748 3.73234L34.0452 8.19157C33.9495 8.25335 33.8698 8.33695 33.8127 8.43551C33.7556 8.53408 33.7228 8.64478 33.7168 8.75852V20.3777C33.7168 20.5868 33.8629 20.6712 34.0452 20.5667Z" fill="white"/>
<path opacity="0.6" d="M34.8965 18.9976L40.9279 15.5195C41.0001 15.4722 41.0602 15.4087 41.1033 15.3339C41.1463 15.2592 41.1712 15.1754 41.1759 15.0892V5.43896C41.1759 5.2808 41.0646 5.21646 40.9279 5.29554L34.8965 8.78036C34.8243 8.82758 34.7642 8.89113 34.7212 8.96587C34.6781 9.04062 34.6532 9.12446 34.6485 9.2106V18.8609C34.6445 19.0123 34.7598 19.0793 34.8965 18.9976Z" fill="white"/>
<path opacity="0.4" d="M32.8555 19.9043C32.8607 20.0117 32.8913 20.1164 32.9449 20.2096C32.9985 20.3028 33.0735 20.3819 33.1637 20.4404L33.413 20.5852C33.4998 20.6287 33.5948 20.6535 33.6918 20.6579C33.7888 20.6623 33.8856 20.6462 33.976 20.6107C33.8312 20.6656 33.7213 20.5825 33.7213 20.4069V8.74621C33.7243 8.63913 33.7553 8.5347 33.8111 8.4433L32.9453 7.94336C32.8904 8.03518 32.8595 8.13936 32.8555 8.24627V19.9043Z" fill="white"/>
<path opacity="0.8" d="M42.1016 3.88018C42.1016 3.73141 41.9595 3.62284 41.7759 3.73275L34.0289 8.20537C33.9376 8.26134 33.8627 8.3404 33.8118 8.43457L32.9473 7.93597C32.9986 7.84206 33.0734 7.76308 33.1644 7.70678L40.9302 3.22075C41.0255 3.17319 41.1306 3.14844 41.2371 3.14844C41.3436 3.14844 41.4487 3.17319 41.544 3.22075L41.796 3.3655C41.8825 3.42271 41.9548 3.49872 42.0078 3.58784C42.0607 3.67697 42.0928 3.77691 42.1016 3.88018Z" fill="white"/>
<path d="M41.0123 7.41464C41.3535 5.96872 40.458 4.51991 39.0121 4.17864C37.5662 3.83738 36.1174 4.73287 35.7761 6.1788C35.4349 7.62472 36.3304 9.07353 37.7763 9.4148C39.2222 9.75607 40.671 8.86057 41.0123 7.41464Z" fill="#263238"/>
<path d="M37.5248 7.40839C37.5248 7.40839 37.0865 7.22745 37.0918 6.95537C37.0915 6.92041 37.099 6.88583 37.1138 6.85415C37.1286 6.82247 37.1503 6.7945 37.1773 6.77227C37.2042 6.75004 37.2358 6.73413 37.2698 6.72569C37.3037 6.71725 37.3391 6.7165 37.3733 6.72349C37.4927 6.88752 37.6338 7.03452 37.7928 7.16043C37.959 7.25962 37.6588 7.47809 37.5248 7.40839Z" fill="#259C77"/>
<path d="M36.0952 10.7578C35.4506 10.8918 34.9788 11.0674 34.6504 12.6343V18.8493C34.6504 19.0048 34.7576 19.0691 34.8916 18.9954L35.0257 18.9176L36.055 13.9866C36.0979 13.9679 37.0536 13.1824 37.2171 12.1182C37.3699 11.1184 36.0952 10.7578 36.0952 10.7578Z" fill="#FFBDA7"/>
<path d="M39.8867 10.1825C40.2808 10.1557 40.4349 10.1986 40.7418 10.5015C40.9031 10.6599 41.0469 10.8352 41.1707 11.0242V13.2585L39.9484 13.1768L39.8867 10.1825Z" fill="#259C77"/>
<path opacity="0.1" d="M39.8867 10.1825C40.2808 10.1557 40.4349 10.1986 40.7418 10.5015C40.9031 10.6599 41.0469 10.8352 41.1707 11.0242V13.2585L39.9484 13.1768L39.8867 10.1825Z" fill="black"/>
<path d="M40.7429 15.14L40.8769 13.9846C41.0431 13.8586 41.1449 13.6696 41.279 13.3721C41.3927 13.0236 41.3794 12.6461 41.2415 12.3065C41.0927 11.9581 41.0123 11.7892 40.9439 11.6618C40.6761 11.1149 40.3186 10.6166 39.8864 10.1875L39.0983 10.2344L37.4108 10.4368L36.0933 10.7612C37.0436 12.1015 36.0531 13.9886 36.0531 13.9886L36.545 15.597C36.545 15.597 35.9754 16.8261 35.6523 17.7281C35.8148 17.9412 36.0354 18.1028 36.2877 18.1932L40.8353 15.5675C40.7991 15.4134 40.7656 15.2673 40.7429 15.14Z" fill="#259C77"/>
<path opacity="0.05" d="M37.3457 13.6582C37.3457 13.6877 37.5387 14.1367 38.2397 14.2868C38.9407 14.4369 39.5224 14.1943 39.8347 13.8137C39.8347 13.8137 39.5666 14.7733 38.2544 14.5187C37.3859 14.3511 37.3457 13.6582 37.3457 13.6582Z" fill="black"/>
<path opacity="0.05" d="M37.0814 16.207C37.4341 16.2621 37.7928 16.2671 38.1469 16.2217C38.234 16.211 38.3359 16.1869 38.3734 16.1065C38.4297 15.9845 38.2944 15.8652 38.1804 15.7942C37.8246 15.5692 37.4974 15.3019 37.206 14.998C37.0205 14.8223 36.8747 14.6088 36.7785 14.3721C36.6444 13.9982 36.7302 13.5894 36.7584 13.194C36.781 12.884 36.7693 12.5725 36.7235 12.2651C36.6916 11.9757 36.5869 11.699 36.4193 11.4609C36.7436 12.6753 36.0547 13.9901 36.0547 13.9901L36.5466 15.5985C36.5466 15.5985 36.4782 15.7432 36.3777 15.9711C36.5942 16.0958 36.8334 16.176 37.0814 16.207Z" fill="black"/>
<path d="M40.7434 15.1406C40.6791 15.2264 40.2797 15.729 39.1082 15.8671C37.9368 16.0051 36.5469 15.599 36.5469 15.599C36.5469 15.599 35.866 16.7678 35.5872 17.8011C35.4746 18.2166 35.3594 18.7327 35.3594 18.7327L40.8372 15.5695L40.7434 15.1406Z" fill="#37474F"/>
<path d="M36.0952 10.7582C35.8628 10.7519 35.6339 10.8159 35.4385 10.9419C35.1034 11.1523 34.9024 11.411 34.6504 12.372V15.4976C34.6504 15.4976 34.9895 15.8541 35.7575 15.7456C35.736 15.7094 36.1596 13.9066 36.1596 13.9066C36.4771 13.3104 36.6145 12.6347 36.555 11.9618C36.4705 11.0906 36.0952 10.7582 36.0952 10.7582Z" fill="#259C77"/>
<path opacity="0.1" d="M36.0952 10.7582C35.8628 10.7519 35.6339 10.8159 35.4385 10.9419C35.1034 11.1523 34.9024 11.411 34.6504 12.372V15.4976C34.6504 15.4976 34.9895 15.8541 35.7575 15.7456C35.736 15.7094 36.1596 13.9066 36.1596 13.9066C36.4771 13.3104 36.6145 12.6347 36.555 11.9618C36.4705 11.0906 36.0952 10.7582 36.0952 10.7582Z" fill="black"/>
<path d="M40.357 5.78906C40.5299 5.96196 40.7658 6.41633 40.7417 7.93357C40.7203 9.21625 40.3074 9.54194 40.0983 9.62906C39.8893 9.71618 39.4872 9.66927 39.0958 9.60762V10.2335C39.0958 10.2335 39.6319 10.8353 39.5944 11.1892C39.5569 11.543 39.0194 11.8017 38.0115 11.0552C37.5196 10.6893 37.399 10.4962 37.399 10.4962L37.3789 8.68012C37.3789 8.68012 37.1497 8.90529 36.7569 8.56619C36.4326 8.28741 36.32 7.8116 36.5693 7.5556C36.634 7.4944 36.7123 7.44947 36.7978 7.4245C36.8833 7.39954 36.9735 7.39526 37.0609 7.41202C37.1484 7.42878 37.2306 7.46609 37.3008 7.52089C37.371 7.57568 37.4271 7.64638 37.4646 7.72716C37.4646 7.72716 38.0906 7.74458 38.9189 7.28217C39.7472 6.81976 40.3048 6.28766 40.357 5.78906Z" fill="#FFBDA7"/>
<path d="M37.411 10.4322L36.5586 10.6413C36.5586 10.6413 37.5035 11.8476 38.7942 11.9602C40.085 12.0727 40.4375 11.3597 39.4818 10.207L39.0985 10.2298L37.411 10.4322Z" fill="#FFBDA7"/>
<path d="M35.7075 6.79883C35.7075 7.44084 35.607 8.78517 36.6887 9.4875C37.6657 10.1228 38.1429 9.58534 38.1429 9.58534C38.0577 9.61193 37.9678 9.61958 37.8793 9.60777C37.7909 9.59597 37.7061 9.56498 37.6309 9.51698C37.387 9.34274 37.3829 9.0519 37.3829 8.67259C37.3168 8.7336 37.2377 8.77879 37.1516 8.80474C37.0654 8.8307 36.9745 8.83674 36.8857 8.82241C36.7969 8.80808 36.7125 8.77375 36.6389 8.72203C36.5653 8.6703 36.5044 8.60252 36.4608 8.52381C36.4524 8.51041 36.4448 8.49654 36.438 8.48226C36.1284 7.89655 35.7075 6.79883 35.7075 6.79883Z" fill="#263238"/>
<path d="M39.2572 7.56641C39.2577 7.59792 39.2489 7.62888 39.2319 7.65543C39.2149 7.68198 39.1905 7.70297 39.1618 7.71577C39.133 7.72858 39.101 7.73265 39.07 7.72747C39.0389 7.72229 39.01 7.7081 38.9869 7.68665C38.9638 7.6652 38.9475 7.63744 38.9401 7.60682C38.9327 7.5762 38.9344 7.54406 38.945 7.51441C38.9557 7.48475 38.9748 7.45888 39.0001 7.44001C39.0253 7.42114 39.0555 7.4101 39.087 7.40826C39.1304 7.40716 39.1725 7.42309 39.2043 7.45265C39.2361 7.4822 39.2551 7.52304 39.2572 7.56641Z" fill="#263238"/>
<path d="M39.2795 8.66992L39.7084 8.80395C39.7011 8.83275 39.6879 8.85975 39.6698 8.88332C39.6516 8.90688 39.6289 8.92653 39.603 8.94106C39.5771 8.95559 39.5484 8.96472 39.5189 8.96787C39.4893 8.97103 39.4594 8.96816 39.431 8.95943C39.3729 8.94063 39.3244 8.89977 39.2961 8.84563C39.2678 8.79149 39.2618 8.7284 39.2795 8.66992Z" fill="#F0997A"/>
<path d="M40.6233 7.11219L40.2949 6.88836C40.3085 6.86674 40.3263 6.84807 40.3473 6.83343C40.3682 6.81879 40.3918 6.80848 40.4168 6.80311C40.4418 6.79774 40.4676 6.79742 40.4927 6.80216C40.5178 6.8069 40.5417 6.81662 40.563 6.83073C40.6072 6.86099 40.6381 6.90706 40.6493 6.95943C40.6605 7.0118 40.6512 7.06648 40.6233 7.11219Z" fill="#263238"/>
<path d="M40.5527 7.49223C40.5546 7.51376 40.5521 7.53542 40.5454 7.55597C40.5387 7.57652 40.528 7.59553 40.5139 7.61188C40.4998 7.62824 40.4826 7.64161 40.4632 7.65122C40.4439 7.66082 40.4228 7.66646 40.4013 7.66781C40.3578 7.66926 40.3155 7.65345 40.2836 7.62382C40.2517 7.59419 40.2328 7.55315 40.2311 7.50966C40.2292 7.48813 40.2317 7.46646 40.2384 7.44592C40.245 7.42537 40.2557 7.40636 40.2698 7.39001C40.284 7.37365 40.3012 7.36028 40.3205 7.35067C40.3399 7.34107 40.3609 7.33543 40.3825 7.33408C40.426 7.33263 40.4683 7.34844 40.5002 7.37807C40.5321 7.4077 40.551 7.44874 40.5527 7.49223Z" fill="#263238"/>
<path d="M39.7728 7.32422L39.7715 8.37637L40.2821 8.21419L39.7728 7.32422Z" fill="#F0997A"/>
<path d="M39.0946 9.60505C38.6804 9.55412 37.8293 9.31555 37.6953 8.98047C37.7491 9.15005 37.854 9.2989 37.9955 9.40669C38.2515 9.62248 39.0959 9.86239 39.0959 9.86239L39.0946 9.60505Z" fill="#F0997A"/>
<path d="M37.4707 8.24698C37.5529 8.24169 37.6301 8.20528 37.6865 8.14516C37.7428 8.08504 37.7742 8.00571 37.7742 7.9233C37.7742 7.84088 37.7428 7.76155 37.6865 7.70143C37.6301 7.64131 37.5529 7.6049 37.4707 7.59961V8.24698Z" fill="#263238"/>
<path d="M25.9446 11.9012L25.4406 10.9536L25.8427 9.78347V9.06641L24.6016 9.78347V10.5005L25.1377 11.4254C25.1463 11.4394 25.1589 11.4506 25.1739 11.4575L25.9446 11.9012Z" fill="#263238"/>
<path d="M28.0324 5.26292C28.0255 5.13404 27.9883 5.0086 27.9238 4.89681C27.8593 4.78503 27.7693 4.69004 27.6612 4.61957L27.3582 4.44399C27.2429 4.38579 27.1155 4.35547 26.9863 4.35547C26.8571 4.35547 26.7297 4.38579 26.6144 4.44399L23.3882 6.30837C23.2798 6.37897 23.1896 6.47415 23.1248 6.58616C23.0601 6.69817 23.0227 6.82387 23.0156 6.95306V10.6818C23.0227 10.811 23.0601 10.9367 23.1248 11.0487C23.1896 11.1607 23.2798 11.2559 23.3882 11.3265L23.6911 11.5021C23.8065 11.5603 23.9339 11.5906 24.0631 11.5906C24.1923 11.5906 24.3197 11.5603 24.435 11.5021L25.388 10.9512L25.9241 11.8734C25.9319 11.8865 25.9432 11.8971 25.9567 11.904C25.9703 11.9109 25.9856 11.9139 26.0007 11.9125C26.0159 11.9111 26.0303 11.9054 26.0424 11.8961C26.0545 11.8868 26.0636 11.8743 26.0689 11.8599L26.6238 10.2328L27.6612 9.63503C27.7692 9.56419 27.8592 9.46894 27.9237 9.35695C27.9881 9.24496 28.0254 9.11938 28.0324 8.99034V5.26292Z" fill="#37474F"/>
<path d="M23.0124 10.6819C23.0195 10.8111 23.0569 10.9368 23.1217 11.0488C23.1864 11.1609 23.2766 11.256 23.3851 11.3266L23.688 11.5022C23.7929 11.5551 23.9079 11.585 24.0252 11.5901C24.1426 11.5952 24.2597 11.5753 24.3688 11.5317C24.1933 11.5974 24.0592 11.4995 24.0592 11.2864V7.5523C24.0635 7.42244 24.1013 7.2959 24.1691 7.18506L23.1197 6.58594C23.0519 6.69678 23.014 6.82332 23.0098 6.95318L23.0124 10.6819Z" fill="#263238"/>
<path d="M28.0193 5.15705C27.9764 5.00024 27.8317 4.94931 27.6601 5.04849L24.4313 6.91287C24.319 6.98001 24.2265 7.07575 24.1632 7.19031L23.1191 6.58717C23.1832 6.47321 23.2755 6.37766 23.3872 6.30972L26.6147 4.44401C26.7303 4.38579 26.8579 4.35547 26.9873 4.35547C27.1167 4.35547 27.2443 4.38579 27.3599 4.44401L27.6628 4.61959C27.7556 4.68032 27.835 4.75928 27.8963 4.85168C27.9576 4.94408 27.9995 5.04797 28.0193 5.15705Z" fill="#455A64"/>
<path d="M26.664 8.55949C26.8563 8.1305 26.9541 7.66517 26.9508 7.19505C27.0453 7.04951 27.1243 6.89454 27.1867 6.73264C27.1071 6.82767 27.0172 6.91354 26.9186 6.98864C27.0197 6.84837 27.0904 6.68862 27.1264 6.51953C27.0397 6.64014 26.9389 6.74993 26.8262 6.84657C26.7766 6.80906 26.7161 6.78876 26.6539 6.78876C26.5918 6.78876 26.5313 6.80906 26.4817 6.84657C26.1761 7.02215 25.9523 7.53147 26.0206 7.88531C25.6279 8.08636 25.2808 8.03677 25.0476 7.79015C24.9242 8.14399 24.9832 8.48041 25.1937 8.54609C25.1291 8.58433 25.0536 8.5999 24.9792 8.59032C24.9792 8.88519 25.1307 9.06747 25.3585 8.99241C25.2981 9.05204 25.2253 9.09778 25.1454 9.12644C25.1523 9.17408 25.1715 9.2191 25.201 9.25709C25.2306 9.29507 25.2695 9.32472 25.314 9.3431C25.3585 9.36149 25.407 9.36799 25.4547 9.36196C25.5025 9.35594 25.5478 9.33759 25.5864 9.30873C25.4269 9.59818 25.1828 9.832 24.8867 9.97888C25.0104 10.0061 25.1383 10.0083 25.2628 9.98529C25.3874 9.96227 25.5061 9.91452 25.6118 9.84485C26.0783 9.57679 26.4375 9.08757 26.6667 8.56083" fill="#F5F5F5"/>
<path d="M36.9374 30.9955L36.4334 30.0479L36.8355 28.8778V28.1621L35.5957 28.8778V29.5949L36.1318 30.5184C36.1397 30.5331 36.1525 30.5445 36.168 30.5506L36.9374 30.9955Z" fill="#263238"/>
<path d="M39.024 24.358C39.0172 24.2289 38.98 24.1033 38.9155 23.9912C38.851 23.8792 38.761 23.784 38.6527 23.7133L38.3498 23.5377C38.2345 23.4795 38.1071 23.4492 37.9779 23.4492C37.8487 23.4492 37.7213 23.4795 37.6059 23.5377L34.3785 25.4021C34.27 25.4726 34.1797 25.5678 34.1149 25.6798C34.0502 25.7919 34.0128 25.9176 34.0059 26.0468V29.7769C34.0128 29.9061 34.0502 30.0319 34.1149 30.1439C34.1797 30.2559 34.27 30.3511 34.3785 30.4216L34.6814 30.5958C34.7965 30.6547 34.924 30.6853 35.0533 30.6853C35.1826 30.6853 35.3101 30.6547 35.4253 30.5958L36.3782 30.045L36.9143 30.9671C36.9219 30.9803 36.9331 30.991 36.9465 30.9981C36.96 31.0051 36.9752 31.008 36.9904 31.0066C37.0055 31.0052 37.0199 30.9995 37.0318 30.9901C37.0438 30.9807 37.0528 30.9681 37.0578 30.9537L37.6207 29.3292L38.6581 28.7315C38.7663 28.6608 38.8564 28.5656 38.9209 28.4535C38.9854 28.3415 39.0226 28.2159 39.0294 28.0868L39.024 24.358Z" fill="#37474F"/>
<path d="M34.0046 29.7776C34.0116 29.9069 34.049 30.0326 34.1137 30.1446C34.1785 30.2567 34.2688 30.3518 34.3772 30.4223L34.6802 30.5966C34.7849 30.6494 34.8996 30.6793 35.0167 30.6844C35.1339 30.6895 35.2508 30.6696 35.3597 30.6261C35.1855 30.6931 35.0514 30.5939 35.0514 30.3821V26.652C35.0557 26.5226 35.0936 26.3965 35.1613 26.2861L34.1105 25.6816C34.0439 25.7924 34.0065 25.9183 34.002 26.0475L34.0046 29.7776Z" fill="#263238"/>
<path d="M39.0129 24.2527C38.97 24.0946 38.8252 24.0437 38.6537 24.1428L35.4248 26.0086C35.3122 26.0753 35.2196 26.1711 35.1568 26.286L34.1113 25.6815C34.175 25.5673 34.2674 25.4716 34.3794 25.4041L37.6069 23.5397C37.7222 23.4815 37.8496 23.4512 37.9788 23.4512C38.108 23.4512 38.2354 23.4815 38.3507 23.5397L38.655 23.7139C38.7479 23.7749 38.8276 23.8541 38.8891 23.9467C38.9506 24.0393 38.9927 24.1434 39.0129 24.2527Z" fill="#455A64"/>
<path d="M37.0755 26.1663C37.3704 25.9961 37.4052 25.9773 37.5218 25.917C37.5841 25.8803 37.6536 25.8574 37.7256 25.85C37.771 25.8458 37.8164 25.8587 37.8529 25.8862C37.8921 25.9174 37.9206 25.96 37.9346 26.0081C37.9605 26.0891 37.9732 26.1738 37.9722 26.2588C37.9722 26.4102 37.9789 26.4558 37.9789 26.8485C37.9789 27.2412 37.9789 27.2881 37.9722 27.4463C37.9709 27.5453 37.9583 27.6437 37.9346 27.7398C37.9162 27.8152 37.8888 27.8881 37.8529 27.957C37.8188 28.0231 37.776 28.0845 37.7256 28.1392C37.666 28.2049 37.5974 28.2617 37.5218 28.3081C37.4052 28.3832 37.3704 28.4046 37.0755 28.5762C36.7806 28.7477 36.7471 28.7652 36.6305 28.8255C36.5682 28.8622 36.4987 28.885 36.4268 28.8925C36.3813 28.897 36.3358 28.884 36.2995 28.8563C36.2599 28.8255 36.2312 28.7827 36.2177 28.7343C36.1911 28.6535 36.178 28.5688 36.1788 28.4837C36.1788 28.3322 36.1788 28.2867 36.1788 27.894C36.1788 27.5013 36.1788 27.4543 36.1788 27.2962C36.1804 27.1972 36.1934 27.0987 36.2177 27.0027C36.2355 26.9271 36.263 26.8541 36.2995 26.7855C36.3331 26.7191 36.376 26.6577 36.4268 26.6032C36.4864 26.5376 36.555 26.4807 36.6305 26.4344C36.7471 26.3593 36.782 26.3379 37.0755 26.1663ZM37.0755 25.8982C36.7766 26.0711 36.7391 26.0939 36.6225 26.1663C36.5229 26.2278 36.4327 26.3032 36.3544 26.3901C36.277 26.4749 36.2112 26.5695 36.1587 26.6716C36.1035 26.7774 36.0612 26.8894 36.0327 27.0053C36.0007 27.1316 35.9831 27.2611 35.9805 27.3913C35.9805 27.5508 35.9805 27.6018 35.9805 27.9998C35.9805 28.3979 35.9805 28.4489 35.9805 28.6016C35.9803 28.7128 35.9979 28.8232 36.0327 28.9287C36.0549 29.0025 36.0988 29.0679 36.1587 29.1163C36.2147 29.1587 36.2845 29.1788 36.3544 29.1726C36.4488 29.1633 36.5402 29.1341 36.6225 29.0868C36.7391 29.0265 36.7766 29.0064 37.0755 28.8335C37.3744 28.6606 37.4133 28.6378 37.5299 28.5655C37.6294 28.504 37.7197 28.4286 37.7979 28.3416C37.8773 28.2571 37.9445 28.1619 37.9976 28.0588C38.0562 27.9537 38.1012 27.8415 38.1317 27.7251C38.1626 27.5986 38.1796 27.4692 38.1826 27.3391C38.1826 27.1796 38.1826 27.1286 38.1826 26.7292C38.1826 26.3298 38.1826 26.2816 38.1826 26.1288C38.1824 26.0178 38.1653 25.9075 38.1317 25.8017C38.1077 25.7267 38.0608 25.6611 37.9976 25.6141C37.9423 25.5715 37.8729 25.5514 37.8033 25.5578C37.7089 25.5671 37.6175 25.5963 37.5352 25.6436C37.4186 25.7039 37.3811 25.724 37.0809 25.8969" fill="white"/>
<path d="M37.0754 26.6157C36.7631 26.7966 36.5098 27.2858 36.5098 27.6973C36.5098 28.1088 36.7631 28.3045 37.0754 28.1249C37.3877 27.9453 37.641 27.4547 37.641 27.0432C37.641 26.6317 37.389 26.4361 37.0754 26.6157ZM37.0754 27.8595C36.873 27.9774 36.7081 27.8528 36.7081 27.582C36.7102 27.4446 36.7445 27.3096 36.8083 27.1878C36.8721 27.0661 36.9636 26.961 37.0754 26.881C37.2791 26.7631 37.4426 26.8877 37.4426 27.1585C37.4409 27.296 37.4067 27.4311 37.3429 27.5529C37.2791 27.6747 37.1874 27.7798 37.0754 27.8595Z" fill="white"/>
<path d="M37.7954 26.1692C37.7946 26.2188 37.782 26.2676 37.7587 26.3114C37.7354 26.3552 37.7021 26.3928 37.6614 26.4212C37.589 26.4641 37.5273 26.4212 37.5273 26.322C37.5285 26.2723 37.5412 26.2235 37.5645 26.1795C37.5877 26.1356 37.6209 26.0976 37.6614 26.0687C37.7351 26.0272 37.7954 26.0687 37.7954 26.1692Z" fill="white"/>
<path d="M16.5403 32.698L16.0363 31.7504L16.4384 30.5804V29.8633L15.1973 30.5804V31.2961L15.7334 32.2209C15.7423 32.2347 15.7548 32.2458 15.7696 32.2531L16.5403 32.698Z" fill="#263238"/>
<path d="M18.6289 26.0588C18.6216 25.9297 18.5841 25.8041 18.5194 25.6921C18.4546 25.5801 18.3645 25.4849 18.2562 25.4141L17.9533 25.2399C17.8382 25.1811 17.7107 25.1504 17.5814 25.1504C17.4521 25.1504 17.3246 25.1811 17.2095 25.2399L13.9806 27.1043C13.8725 27.1747 13.7825 27.2697 13.718 27.3815C13.6535 27.4933 13.6163 27.6187 13.6094 27.7476V31.4777C13.6164 31.6068 13.6536 31.7323 13.7181 31.8443C13.7826 31.9563 13.8726 32.0516 13.9806 32.1224L14.2836 32.2966C14.3987 32.3555 14.5262 32.3861 14.6555 32.3861C14.7848 32.3861 14.9123 32.3555 15.0274 32.2966L15.9804 31.7471L16.5165 32.6693C16.5241 32.6824 16.5352 32.6932 16.5487 32.7002C16.5622 32.7072 16.5774 32.7102 16.5925 32.7088C16.6077 32.7074 16.6221 32.7016 16.634 32.6922C16.646 32.6828 16.655 32.6702 16.6599 32.6558L17.2229 31.0314L18.2589 30.4336C18.3672 30.3628 18.4573 30.2676 18.522 30.1557C18.5868 30.0437 18.6243 29.9181 18.6315 29.7889L18.6289 26.0588Z" fill="#37474F"/>
<path d="M13.6094 31.478C13.6164 31.607 13.6536 31.7326 13.7181 31.8446C13.7826 31.9566 13.8726 32.0518 13.9806 32.1227L14.2836 32.2969C14.3885 32.3496 14.5034 32.3796 14.6207 32.3849C14.738 32.3903 14.8552 32.3708 14.9644 32.3277C14.7889 32.3934 14.6562 32.2942 14.6562 32.0825V28.3524C14.6607 28.2232 14.6981 28.0972 14.7647 27.9865L13.7179 27.3887C13.6513 27.4995 13.614 27.6254 13.6094 27.7546V31.478Z" fill="#263238"/>
<path d="M18.6163 25.9538C18.572 25.7957 18.4286 25.7461 18.2571 25.8452L15.0269 27.7096C14.917 27.7776 14.8268 27.8733 14.7655 27.9871L13.7188 27.3893C13.7804 27.2758 13.8705 27.1802 13.9801 27.1118L17.2076 25.2448C17.3232 25.1866 17.4508 25.1562 17.5802 25.1562C17.7096 25.1562 17.8372 25.1866 17.9528 25.2448L18.2571 25.4204C18.3495 25.4808 18.4289 25.5591 18.4906 25.6507C18.5523 25.7424 18.595 25.8454 18.6163 25.9538Z" fill="#455A64"/>
<path d="M16.3606 30.9021L16.8391 30.6246V29.0243L17.1742 28.8313L17.2104 28.2751L16.8391 28.4882V28.1826C16.8391 28.0566 16.8592 27.9949 16.9504 27.9427L17.2104 27.7926V27.2363L16.878 27.428C16.7141 27.5147 16.5784 27.6464 16.4867 27.8077C16.3951 27.9689 16.3513 28.1529 16.3606 28.3381V28.7656L16.1113 28.909V29.4519L16.3606 29.3071V30.9021Z" fill="white"/>
<path d="M52.5753 11.4031L52.0687 10.4555L52.4708 9.28543V8.56836L51.2363 9.29213V10.0079L51.7725 10.9327C51.7811 10.9468 51.7937 10.9579 51.8086 10.9648L52.5753 11.4031Z" fill="#263238"/>
<path d="M56.6338 4.95331C56.6272 4.82344 56.5901 4.69695 56.5256 4.58403C56.4611 4.47111 56.371 4.37493 56.2625 4.30326L55.9556 4.12634C55.8407 4.06644 55.7131 4.03516 55.5836 4.03516C55.4541 4.03516 55.3265 4.06644 55.2117 4.12634L50.0099 7.15545C49.9016 7.22757 49.8115 7.32403 49.7471 7.43713C49.6826 7.55023 49.6455 7.67684 49.6387 7.80684V10.1671C49.6453 10.2972 49.6823 10.4239 49.7468 10.537C49.8113 10.6501 49.9014 10.7466 50.0099 10.8185L50.3115 10.9954C50.4264 11.0543 50.5537 11.0849 50.6828 11.0849C50.8119 11.0849 50.9391 11.0543 51.054 10.9954L52.0057 10.4392L52.5418 11.3707C52.5493 11.3839 52.5605 11.3947 52.574 11.4017C52.5875 11.4087 52.6027 11.4117 52.6178 11.4102C52.6329 11.4088 52.6473 11.4031 52.6593 11.3937C52.6713 11.3843 52.6802 11.3717 52.6852 11.3573L53.2468 9.71679L56.2612 7.965C56.3697 7.89332 56.4598 7.79714 56.5243 7.68422C56.5888 7.57131 56.6258 7.44481 56.6324 7.31494L56.6338 4.95331Z" fill="#37474F"/>
<path d="M49.6445 10.1111C49.6514 10.24 49.6887 10.3654 49.7532 10.4772C49.8177 10.589 49.9077 10.684 50.0158 10.7545L50.3187 10.9301C50.4236 10.9829 50.5386 11.0129 50.656 11.0179C50.7734 11.023 50.8905 11.0031 50.9996 10.9595C50.824 11.0266 50.6913 10.9274 50.6913 10.7143V8.37407C50.6957 8.24441 50.733 8.11801 50.7999 8.00683L49.7531 7.40234C49.6863 7.51353 49.6489 7.63993 49.6445 7.76959V10.1111Z" fill="#263238"/>
<path d="M56.6264 4.81254C56.5822 4.65304 56.4388 4.60211 56.2672 4.7013L51.0641 7.73175C50.9517 7.79993 50.8592 7.89656 50.7961 8.01187L49.752 7.40203C49.8132 7.28747 49.9033 7.19091 50.0133 7.1219L55.2164 4.09145C55.3316 4.03263 55.459 4.00195 55.5884 4.00195C55.7177 4.00195 55.8451 4.03263 55.9603 4.09145L56.2632 4.26837C56.3574 4.32984 56.4381 4.40975 56.5005 4.50327C56.5629 4.5968 56.6058 4.70201 56.6264 4.81254Z" fill="#455A64"/>
<path d="M52.3366 7.61151C52.3416 7.6076 52.3477 7.60547 52.3541 7.60547C52.3604 7.60547 52.3665 7.6076 52.3715 7.61151C52.3768 7.61754 52.3808 7.62455 52.3833 7.63214C52.3858 7.63974 52.3868 7.64776 52.3862 7.65574V9.45846C52.3858 9.47941 52.3808 9.50001 52.3715 9.51878C52.3647 9.53638 52.3525 9.55139 52.3366 9.56167L52.1905 9.64611C52.1857 9.65026 52.1795 9.65254 52.1731 9.65254C52.1667 9.65254 52.1605 9.65026 52.1557 9.64611C52.1504 9.64008 52.1464 9.63307 52.1439 9.62547C52.1413 9.61788 52.1403 9.60986 52.1409 9.60188V8.86604L51.5941 9.18102V9.91819C51.5935 9.93955 51.5885 9.96055 51.5794 9.97985C51.5722 9.99691 51.5601 10.0114 51.5445 10.0214L51.3984 10.1058C51.3936 10.11 51.3874 10.1123 51.381 10.1123C51.3746 10.1123 51.3684 10.11 51.3636 10.1058C51.3582 10.0996 51.3543 10.0924 51.352 10.0845C51.3496 10.0766 51.349 10.0684 51.3502 10.0603V8.25754C51.35 8.23625 51.3545 8.21517 51.3636 8.19589C51.3712 8.17876 51.3832 8.16396 51.3984 8.153L51.5445 8.06856C51.5495 8.06464 51.5556 8.06252 51.5619 8.06252C51.5683 8.06252 51.5744 8.06464 51.5794 8.06856C51.5846 8.07458 51.5886 8.0816 51.5912 8.08919C51.5937 8.09678 51.5947 8.10481 51.5941 8.11279V8.82986L52.1409 8.51488V7.79781C52.1412 7.77642 52.1462 7.75535 52.1557 7.73616C52.1629 7.71877 52.175 7.70386 52.1905 7.69327L52.3366 7.61151Z" fill="#FAFAFA"/>
<path d="M52.6055 8.68314C52.6058 8.57874 52.6161 8.47461 52.6363 8.37218C52.6559 8.27206 52.6855 8.17416 52.7248 8.08C52.7593 7.99435 52.8043 7.91331 52.8588 7.83874C52.9094 7.77306 52.9717 7.71719 53.0424 7.67388C53.0968 7.63836 53.1612 7.62143 53.226 7.62563C53.2802 7.63193 53.3302 7.65765 53.3668 7.69801C53.4101 7.74815 53.4409 7.80787 53.4566 7.87225C53.4792 7.95475 53.49 8.04003 53.4887 8.12557V8.25156C53.4883 8.2725 53.4833 8.2931 53.474 8.31187C53.4672 8.32947 53.455 8.34448 53.4391 8.35476L52.8347 8.70324C52.833 8.73849 52.839 8.77369 52.8521 8.80645C52.8608 8.82962 52.8768 8.84936 52.8977 8.86274C52.9181 8.87387 52.9418 8.87765 52.9647 8.87346C52.9923 8.86993 53.0189 8.86032 53.0424 8.84531C53.0777 8.82628 53.1098 8.80186 53.1376 8.77294C53.1604 8.74862 53.1802 8.72162 53.1965 8.69252C53.2062 8.67504 53.2175 8.65845 53.2301 8.64293C53.2432 8.63203 53.2589 8.62465 53.2756 8.62148L53.4204 8.53838C53.4256 8.53436 53.4319 8.53218 53.4385 8.53218C53.445 8.53218 53.4514 8.53436 53.4566 8.53838C53.462 8.54454 53.466 8.55181 53.4683 8.55969C53.4706 8.56756 53.4712 8.57584 53.47 8.58395C53.4656 8.62387 53.4562 8.66306 53.4418 8.70056C53.4211 8.75803 53.3946 8.81326 53.3627 8.86542C53.3245 8.92861 53.2796 8.98748 53.2287 9.041C53.1778 9.09883 53.1175 9.14775 53.0505 9.18575C52.9959 9.22121 52.9319 9.23942 52.8668 9.23803C52.8144 9.23127 52.7666 9.20493 52.7328 9.16431C52.6897 9.10912 52.6595 9.04502 52.6443 8.97667C52.6192 8.88082 52.6062 8.78221 52.6055 8.68314ZM53.0491 8.01298C53.0152 8.03276 52.9848 8.05813 52.9593 8.08804C52.935 8.11816 52.9144 8.15099 52.8977 8.18588C52.8806 8.21953 52.8676 8.25507 52.8588 8.29177C52.8503 8.32385 52.8445 8.35657 52.8414 8.38961L53.2502 8.15371C53.2477 8.12662 53.2432 8.09974 53.2368 8.07329C53.2316 8.0495 53.2205 8.02739 53.2046 8.00896C53.1969 8.00067 53.1875 7.99402 53.1772 7.98942C53.1668 7.98481 53.1556 7.98234 53.1443 7.98215C53.1117 7.98313 53.0799 7.99235 53.0518 8.00896L53.0491 8.01298Z" fill="#FAFAFA"/>
<path d="M53.9307 8.57059C53.9302 8.59154 53.9252 8.61214 53.9159 8.63091C53.9091 8.64851 53.8969 8.66352 53.8811 8.6738L53.747 8.75288C53.7422 8.75703 53.736 8.75931 53.7296 8.75931C53.7232 8.75931 53.717 8.75703 53.7122 8.75288C53.7069 8.74685 53.7029 8.73984 53.7004 8.73224C53.6978 8.72465 53.6968 8.71663 53.6974 8.70865V6.87912C53.6979 6.85775 53.7029 6.83672 53.7122 6.81746C53.719 6.80021 53.7312 6.78563 53.747 6.77591L53.8811 6.69549C53.886 6.69158 53.8922 6.68945 53.8985 6.68945C53.9048 6.68945 53.9109 6.69158 53.9159 6.69549C53.9213 6.70172 53.9254 6.70896 53.9279 6.71679C53.9304 6.72462 53.9314 6.73287 53.9307 6.74107V8.57059Z" fill="#FAFAFA"/>
<path d="M54.4156 8.28991C54.4152 8.31086 54.4102 8.33145 54.4009 8.35023C54.3941 8.36744 54.3824 8.38233 54.3674 8.39312L54.2334 8.47219C54.2285 8.47635 54.2223 8.47863 54.2159 8.47863C54.2095 8.47863 54.2034 8.47635 54.1985 8.47219C54.1932 8.46617 54.1892 8.45915 54.1867 8.45156C54.1842 8.44397 54.1832 8.43594 54.1838 8.42796V6.59575C54.1842 6.57438 54.1892 6.55335 54.1985 6.5341C54.2053 6.51685 54.2176 6.50227 54.2334 6.49255L54.3674 6.41213C54.3721 6.40832 54.378 6.40625 54.3841 6.40625C54.3902 6.40625 54.3961 6.40832 54.4009 6.41213C54.4062 6.41816 54.4102 6.42517 54.4127 6.43276C54.4152 6.44036 54.4162 6.44838 54.4156 6.45636V8.28991Z" fill="#FAFAFA"/>
<path d="M55.0799 6.50161C55.134 6.46784 55.1958 6.44846 55.2595 6.44531C55.3109 6.44519 55.3607 6.46323 55.4002 6.49625C55.4415 6.53301 55.4736 6.57891 55.494 6.63028C55.5192 6.69951 55.5328 6.77242 55.5342 6.84607C55.5342 6.86215 55.5342 6.8836 55.5342 6.90906V7.06454C55.5342 7.09 55.5342 7.11145 55.5342 7.12887C55.5299 7.21945 55.516 7.30931 55.4927 7.39694C55.4708 7.48264 55.4398 7.56577 55.4002 7.64489C55.362 7.72047 55.3147 7.79112 55.2595 7.85532C55.2091 7.91615 55.1483 7.96745 55.0799 8.00678C55.0263 8.04173 54.9642 8.06121 54.9003 8.06307C54.8513 8.06306 54.8039 8.046 54.7662 8.01482C54.7237 7.97923 54.6913 7.93298 54.6724 7.88079C54.6474 7.81146 54.6334 7.73865 54.6309 7.665C54.6309 7.64892 54.6309 7.62881 54.6309 7.60469C54.6309 7.58056 54.6309 7.55375 54.6309 7.52829C54.6309 7.50282 54.6309 7.47602 54.6309 7.44921C54.6309 7.4224 54.6309 7.40096 54.6309 7.38353C54.634 7.29294 54.6475 7.203 54.6711 7.11547C54.6941 7.02889 54.726 6.9449 54.7662 6.86483C54.8018 6.78889 54.8469 6.71774 54.9003 6.65306C54.9513 6.59296 55.012 6.54177 55.0799 6.50161ZM55.2997 7.00288C55.2985 6.957 55.2894 6.91167 55.2729 6.86885C55.263 6.84328 55.2445 6.82196 55.2206 6.80854C55.2 6.79776 55.1762 6.7949 55.1536 6.8005C55.1278 6.80755 55.103 6.81791 55.0799 6.83132C55.0535 6.84712 55.0288 6.86553 55.0061 6.88628C54.9797 6.91145 54.9572 6.94035 54.9391 6.97206C54.916 7.00952 54.8983 7.05015 54.8869 7.09269C54.8721 7.1442 54.8635 7.19729 54.8614 7.25084C54.8614 7.26693 54.8614 7.28569 54.8614 7.30848V7.44251C54.8614 7.46574 54.8614 7.48316 54.8614 7.49478C54.8613 7.54067 54.8699 7.58616 54.8869 7.62881C54.8964 7.65494 54.9149 7.6768 54.9391 7.69047C54.9609 7.69792 54.9844 7.69792 55.0061 7.69047C55.0321 7.68393 55.057 7.67354 55.0799 7.65964C55.1065 7.64429 55.1313 7.62585 55.1536 7.60469C55.1796 7.57967 55.2021 7.55127 55.2206 7.52025C55.2433 7.48253 55.2609 7.44197 55.2729 7.39962C55.2875 7.34801 55.2964 7.29499 55.2997 7.24146C55.2997 7.22672 55.2997 7.20929 55.2997 7.18517V7.05114C55.301 7.03505 55.2997 7.01227 55.2997 7.00288Z" fill="#FAFAFA"/>
<path d="M55.9416 7.08843C55.9464 7.08428 55.9526 7.08199 55.959 7.08199C55.9654 7.08199 55.9716 7.08428 55.9764 7.08843C55.9814 7.09456 55.9852 7.10162 55.9875 7.10921C55.9898 7.1168 55.9906 7.12477 55.9898 7.13266V7.37794C55.99 7.39923 55.9854 7.4203 55.9764 7.43959C55.9688 7.45672 55.9568 7.47152 55.9416 7.48248L55.7861 7.57228C55.7812 7.57644 55.7751 7.57872 55.7687 7.57872C55.7623 7.57872 55.7561 7.57644 55.7512 7.57228C55.746 7.56626 55.742 7.55924 55.7394 7.55165C55.7369 7.54406 55.7359 7.53603 55.7365 7.52805V7.28143C55.7368 7.26004 55.7418 7.23897 55.7512 7.21978C55.7584 7.20239 55.7705 7.18748 55.7861 7.17689L55.9416 7.08843ZM55.9818 6.82037C55.9813 6.84174 55.9763 6.86277 55.967 6.88202C55.9602 6.89927 55.948 6.91385 55.9322 6.92357L55.7982 7.00399C55.7934 7.0078 55.7875 7.00987 55.7814 7.00987C55.7753 7.00987 55.7694 7.0078 55.7646 7.00399C55.7593 6.99776 55.7552 6.99052 55.7527 6.98269C55.7501 6.97487 55.7492 6.96661 55.7499 6.95842V5.72131C55.7502 5.69991 55.7552 5.67885 55.7646 5.65965C55.7715 5.64244 55.7831 5.62755 55.7982 5.61676L55.9322 5.53769C55.937 5.53353 55.9432 5.53125 55.9496 5.53125C55.956 5.53125 55.9622 5.53353 55.967 5.53769C55.9723 5.54371 55.9763 5.55072 55.9789 5.55832C55.9814 5.56591 55.9824 5.57393 55.9818 5.58192V6.82037Z" fill="#FAFAFA"/>
<path d="M53.4551 20.5078C54.4134 20.5078 54.8946 20.8255 55.2953 21.7007C55.6787 22.5384 56.9037 24.9335 56.8394 25.5219C56.775 26.1103 54.3316 28.6127 54.3316 28.6127L53.6333 27.779L55.1546 25.278L53.6682 23.171L53.4551 20.5078Z" fill="#FFA8A7"/>
<path d="M53.5357 20.5084C53.5357 20.5084 54.4739 20.4119 54.9149 20.9668C55.3559 21.5217 55.7834 22.6529 55.7834 22.6529C55.7834 22.6529 55.3465 23.9101 54.1858 24.0656C53.025 24.2211 53.5357 20.5084 53.5357 20.5084Z" fill="#455A64"/>
<path d="M51.1129 46.2871C51.1129 46.2871 51.2215 46.6115 51.2805 46.8943C51.3274 47.1194 51.3931 47.4961 51.314 47.665C51.2349 47.8338 50.9199 47.9437 50.4347 47.9397C50.1211 47.9397 49.6305 48.1475 49.2955 48.3311C48.9604 48.5147 48.2232 48.5992 47.8627 48.5549C47.4311 48.5053 46.9848 48.2587 46.9151 48.0831C46.8454 47.9075 46.781 47.6663 47.9551 47.299C47.9645 47.299 49.3692 46.846 49.8611 46.3126L51.1129 46.2871Z" fill="#263238"/>
<path d="M51.1144 45.8848L49.8626 45.9102V46.0027C49.8634 46.1107 49.8381 46.2174 49.7889 46.3135C49.7397 46.4097 49.6679 46.4925 49.5798 46.5549C48.9713 46.9771 47.9714 47.3001 47.9566 47.3028L47.769 47.3645C47.5666 47.5253 47.7382 47.7987 48.2207 47.8416C48.7032 47.8845 50.2057 47.3873 50.5381 47.2291C50.7123 47.1511 50.8599 47.0237 50.9623 46.8626C51.0648 46.7016 51.1177 46.5139 51.1144 46.323C51.1131 46.1609 51.1144 45.8848 51.1144 45.8848Z" fill="#FFA8A7"/>
<path d="M54.4136 44.4706C54.5021 44.5067 54.5195 44.6743 54.5235 45.0067C54.5235 45.2587 54.5704 45.6996 54.2675 45.7787C53.9646 45.8578 53.5277 45.8028 53.3427 45.5602C53.1108 45.2587 52.9553 44.9933 52.6229 44.622C52.3348 44.3003 52.0211 44.0001 51.9139 43.5565C51.8161 43.1544 51.9139 42.9868 52.19 42.8796C52.4661 42.7724 52.7262 42.8595 53.1068 43.1758C53.2139 43.2475 53.3285 43.3073 53.4486 43.3541C53.7032 43.4332 54.3251 44.4357 54.4136 44.4706Z" fill="#263238"/>
<path d="M54.4207 44.1611L54.41 44.5699C54.41 44.5699 54.1312 45.106 53.3592 44.5699C53.3418 44.5297 53.2734 43.7402 53.2734 43.7402L54.4207 44.1611Z" fill="#FFA8A7"/>
<path d="M53.4489 43.3554C53.3285 43.3092 53.2139 43.2493 53.1071 43.1771C52.7948 43.0793 52.1394 43.1932 52.4369 43.6368C52.6833 44.0055 52.9977 44.3239 53.3631 44.5751C53.7129 44.7439 53.8349 44.5348 53.8349 44.5348L53.7116 43.5779C53.6425 43.4843 53.5526 43.4081 53.4489 43.3554Z" fill="#FFA8A7"/>
<path d="M55.1539 38.5935C55.1539 37.2465 54.8524 36.6527 54.8524 36.6527C54.8524 36.6527 55.0011 34.7991 55.1539 33.0647C55.5185 28.9405 55.1713 28.7449 54.587 27.3335C54.587 27.3335 49.5755 26.6634 49.2525 28.8079C48.5462 33.5204 48.7794 36.7573 48.8263 37.7142C48.8732 38.6712 48.9871 39.2328 49.2766 41.2352C49.4951 42.7592 49.8677 45.9974 49.8677 45.9974C50.562 46.3914 51.074 46.9517 51.1196 45.9505C51.1651 44.9493 51.834 41.7848 51.8192 40.683C51.8065 39.8665 51.6857 39.0553 51.46 38.2705C51.46 38.2705 51.9104 33.8783 52.0256 33.1773C52.0256 33.1773 52.153 34.5779 52.1999 35.5336C52.2468 36.4892 52.5095 37.41 52.736 39.1886C52.937 40.7313 53.2721 43.9547 53.2721 43.9547C53.9664 44.3475 54.3591 45.035 54.4221 44.1598C54.4851 43.2846 55.1539 39.9097 55.1539 38.5935Z" fill="#FFA8A7"/>
<path opacity="0.1" d="M52.0195 33.1796L52.3077 31.3688C52.8864 31.3005 53.4439 31.1095 53.9429 30.8086C53.9429 30.8086 53.5837 31.3447 52.6307 31.5645L52.3399 33.6635L52.2219 35.8616L52.0195 33.1796Z" fill="black"/>
<path d="M51.2129 19.6293L51.4072 21.6531L53.2153 21.5406L53.0706 19.2969L51.2129 19.6293Z" fill="#FFA8A7"/>
<path d="M54.8392 21.3637C54.6556 20.8275 54.2817 20.5139 53.4547 20.5059L53.1491 20.5152C53.0915 20.8128 52.2001 21.0514 51.3209 20.7498C51.1962 20.7806 50.8558 20.8423 50.6641 20.8677L50.2433 20.9281C49.6026 21.1345 49.3198 22.2282 49.2582 23.9612C49.2367 24.5509 49.3037 25.205 49.427 26.4233C49.3587 28.1926 49.2461 29.6803 49.2461 29.6803C49.2461 29.6803 50.3103 30.1293 52.4843 29.8478C54.4304 29.5972 55.0309 28.6094 54.9625 28.7528C54.7896 27.9976 54.551 27.259 54.2495 26.5453L54.1155 25.8323C55.1408 23.358 55.1126 22.1598 54.8392 21.3637Z" fill="#259C77"/>
<path d="M54.1154 25.834C54.1154 25.834 53.9947 26.6703 52.4373 26.8272C50.1588 27.0577 49.427 26.4251 49.427 26.4251L49.3988 27.0952C49.1441 28.4891 48.4512 31.9351 48.4941 33.4081C48.4941 33.4081 48.9793 33.5931 49.3841 32.7527C49.3841 32.7527 49.3291 33.4081 50.2941 33.766C51.0916 34.0608 51.9414 33.6601 52.1907 33.6038L52.2135 33.4202C52.2135 33.4202 54.0618 33.8893 55.2386 32.8492C55.2386 32.8492 55.65 30.5345 55.2386 28.8845C54.9772 27.8364 54.492 27.0188 54.2481 26.5497L54.1154 25.834Z" fill="#455A64"/>
<path d="M54.1094 33.4192C53.5733 33.4768 52.9233 33.2852 52.8938 33.0667C52.8643 32.8482 53.2624 31.1366 53.2624 31.1366C53.844 30.9863 54.3564 30.6409 54.7139 30.1582C53.8427 30.7774 52.6606 30.6863 52.6606 30.6863L52.2129 33.4192C52.8376 33.5569 53.4847 33.5569 54.1094 33.4192Z" fill="#37474F"/>
<path d="M54.1149 25.834C54.1149 25.834 53.9299 26.4117 52.8938 26.6703C50.8633 27.177 49.4264 26.4251 49.4264 26.4251C49.3961 26.6588 49.384 26.8945 49.3903 27.1301C49.3903 27.1301 51.0107 27.9142 52.599 27.5322C54.1872 27.1502 54.2663 26.606 54.2663 26.606C54.2663 26.606 54.1846 26.0953 54.1149 25.834Z" fill="#37474F"/>
<path d="M50.6644 20.8691C49.816 20.9737 49.1753 21.1721 48.7732 21.9414C48.0307 23.3675 47.3284 24.6327 46.8338 25.1581C46.3057 25.7144 44.251 26.414 43.7631 26.3363C43.2752 26.2585 42.8169 25.7479 42.5662 25.8913C42.3156 26.0347 42.8946 26.4006 42.8651 26.5212C42.8356 26.6419 41.9269 26.5105 41.506 26.221C41.0852 25.9315 40.8439 26.7571 41.3841 27.3871C41.9242 28.017 42.9214 28.1765 44.0258 27.9594C45.1302 27.7423 47.1943 27.2397 47.9945 26.5038C48.7857 25.795 49.4693 24.9746 50.0237 24.0685C51.4083 22.3663 50.6644 20.8691 50.6644 20.8691Z" fill="#FFA8A7"/>
<path d="M50.7962 20.85C50.7962 20.85 49.7507 20.7723 49.2468 21.2776C48.7428 21.7829 48.2871 22.697 48.2871 22.697C48.2871 22.697 48.5873 23.6633 50.0295 24.0721C50.3924 23.8092 50.6627 23.438 50.8015 23.0119C51.0589 22.2587 50.9811 21.1368 50.7962 20.85Z" fill="#455A64"/>
<path d="M48.8983 15.7392C48.8829 15.6442 48.8829 15.5473 48.8983 15.4523C48.9205 15.3291 48.9693 15.2122 49.0413 15.1098C49.1134 15.0074 49.2069 14.9219 49.3154 14.8594C49.4239 14.7968 49.5447 14.7587 49.6694 14.7477C49.7941 14.7367 49.9198 14.753 50.0375 14.7956C50.0027 14.6098 50.0311 14.4177 50.118 14.2499C50.205 14.0821 50.3455 13.9481 50.5174 13.8694C50.6512 13.819 50.7939 13.7959 50.9368 13.8014C51.0797 13.8069 51.2201 13.841 51.3497 13.9016C51.5051 13.9561 51.6343 14.0671 51.7116 14.2126C51.8034 14.0595 51.9381 13.9368 52.099 13.8595C52.2599 13.7822 52.4399 13.7538 52.6168 13.7778C52.7936 13.8018 52.9596 13.877 53.0941 13.9943C53.2286 14.1116 53.3258 14.2658 53.3736 14.4377C53.6484 14.3761 54.037 14.498 54.1603 14.7715C54.2944 15.0824 54.1295 15.4671 54.1939 15.7941C54.2354 16.0046 54.3279 16.2029 54.3641 16.416C54.4042 16.6549 54.4271 16.8963 54.4324 17.1385C54.4713 18.137 52.1539 18.7857 52.1981 19.4706L50.9624 17.9668C50.9624 17.9051 50.7881 17.7483 50.7493 17.6987C50.6742 17.5995 50.6085 17.4936 50.5415 17.3891C50.3217 17.0554 50.0402 16.8798 49.6891 16.7082C49.4471 16.5966 49.2376 16.425 49.0806 16.2096C48.9837 16.0693 48.9213 15.9081 48.8983 15.7392Z" fill="#263238"/>
<path d="M49.8729 17.4102C49.8729 17.4102 49.4708 18.0053 49.5245 18.0683C49.6182 18.1305 49.722 18.1758 49.8314 18.2023L49.8729 17.4102Z" fill="#F28F8F"/>
<path d="M51.097 15.5254C50.707 15.7224 50.0342 16.0883 49.8613 17.497C49.6843 18.9432 50.0114 19.4458 50.2124 19.6415C50.3465 19.7755 51.0461 19.8157 51.4107 19.7045C51.8677 19.5704 52.8555 19.0852 53.3193 18.3387C53.8634 17.4608 53.976 16.2893 53.3474 15.8309C52.4615 15.1796 51.4254 15.3578 51.097 15.5254Z" fill="#FFA8A7"/>
<path d="M50.9241 15.4829C50.7596 15.5434 50.6064 15.6313 50.4711 15.7429C50.4037 15.7994 50.3493 15.8698 50.3116 15.9493C50.2811 16.023 50.2696 16.1032 50.2781 16.1825C50.2896 16.2908 50.3294 16.3943 50.3933 16.4824C50.4573 16.5706 50.5433 16.6405 50.6427 16.6851C50.5903 16.7568 50.5544 16.8391 50.5375 16.9262C50.5205 17.0133 50.5231 17.1031 50.5448 17.1891C50.616 17.3888 50.739 17.566 50.9014 17.7024C50.909 17.7122 50.9192 17.7196 50.9308 17.7239C50.9423 17.7253 50.9539 17.7244 50.9649 17.7211C50.976 17.7179 50.9863 17.7125 50.9952 17.7051C51.2391 17.5416 51.3906 17.2588 51.735 17.3727C52.1894 17.5215 52.1478 18.1152 51.7913 18.4195C51.699 18.5065 51.5844 18.5662 51.4601 18.592C51.3359 18.6178 51.207 18.6087 51.0877 18.5656C51.0877 18.5656 51.0997 19.2961 51.735 19.5842C51.735 19.5842 52.44 19.8107 53.0901 19.6016C53.3287 19.2974 53.7308 18.9087 54.0605 18.5616C55.1488 17.4183 55.2118 15.7563 53.6061 15.2309C53.5512 15.2135 53.4949 15.196 53.4386 15.1813C52.6602 14.9807 51.8362 15.0585 51.1091 15.4011C51.0474 15.4306 50.9858 15.4601 50.9241 15.4829Z" fill="#263238"/>
<path d="M50.8746 18.2114C50.8326 18.197 50.7939 18.1743 50.7607 18.1448C50.7276 18.1153 50.7006 18.0795 50.6814 18.0394C50.6622 17.9994 50.6511 17.956 50.6489 17.9116C50.6466 17.8673 50.6532 17.8229 50.6682 17.7811C50.7001 17.6967 50.764 17.6282 50.846 17.5903C50.9279 17.5525 51.0215 17.5483 51.1065 17.5788L50.8746 18.2114Z" fill="#263238"/>
</svg>
