<svg width="500" height="339" viewBox="0 0 500 339" fill="none" xmlns="http://www.w3.org/2000/svg">
<path d="M449.901 312.65H416.781V312.878H449.901V312.65Z" fill="#EBEBEB"/>
<path d="M331.223 315.121H322.533V315.348H331.223V315.121Z" fill="#EBEBEB"/>
<path d="M415.778 304.215H396.588V304.442H415.778V304.215Z" fill="#EBEBEB"/>
<path d="M95.647 305.74H52.457V305.968H95.647V305.74Z" fill="#EBEBEB"/>
<path d="M110.891 305.74H104.561V305.968H110.891V305.74Z" fill="#EBEBEB"/>
<path d="M225.149 309.576H131.469V309.803H225.149V309.576Z" fill="#EBEBEB"/>
<path d="M238.4 257.476H45.2998C43.7855 257.476 42.3331 256.93 41.2623 255.956C40.1914 254.983 39.5898 253.662 39.5898 252.286V5.53215C39.603 4.16333 40.2104 2.85466 41.2798 1.89099C42.3492 0.927319 43.7941 0.386666 45.2998 0.386719H238.4C239.15 0.386719 239.892 0.520984 240.585 0.78185C241.278 1.04272 241.907 1.42508 242.437 1.90709C242.968 2.38911 243.388 2.96135 243.675 3.59114C243.962 4.22093 244.11 4.89593 244.11 5.5776V252.286C244.11 252.967 243.962 253.642 243.675 254.272C243.388 254.902 242.968 255.474 242.437 255.956C241.907 256.438 241.278 256.82 240.585 257.081C239.892 257.342 239.15 257.476 238.4 257.476ZM45.2998 0.568537C43.8526 0.57094 42.4653 1.09466 41.442 2.025C40.4186 2.95534 39.8425 4.21646 39.8398 5.53215V252.286C39.8425 253.601 40.4186 254.862 41.442 255.793C42.4653 256.723 43.8526 257.247 45.2998 257.249H238.4C239.847 257.247 241.234 256.723 242.258 255.793C243.281 254.862 243.857 253.601 243.86 252.286V5.53215C243.857 4.21646 243.281 2.95534 242.258 2.025C241.234 1.09466 239.847 0.57094 238.4 0.568537H45.2998Z" fill="#EBEBEB"/>
<path d="M454.703 257.476H261.603C260.088 257.476 258.636 256.93 257.565 255.956C256.494 254.983 255.893 253.662 255.893 252.286V5.53215C255.906 4.16333 256.513 2.85466 257.583 1.89099C258.652 0.927319 260.097 0.386666 261.603 0.386719H454.703C456.217 0.386719 457.669 0.933614 458.74 1.90709C459.811 2.88057 460.413 4.2009 460.413 5.5776V252.286C460.413 253.662 459.811 254.983 458.74 255.956C457.669 256.93 456.217 257.476 454.703 257.476ZM261.603 0.568537C260.155 0.57094 258.768 1.09466 257.745 2.025C256.721 2.95534 256.145 4.21646 256.143 5.53215V252.286C256.145 253.601 256.721 254.862 257.745 255.793C258.768 256.723 260.155 257.247 261.603 257.249H454.703C456.15 257.247 457.537 256.723 458.56 255.793C459.584 254.862 460.16 253.601 460.163 252.286V5.53215C460.16 4.21646 459.584 2.95534 458.56 2.025C457.537 1.09466 456.15 0.57094 454.703 0.568537H261.603Z" fill="#EBEBEB"/>
<path d="M500 298.021H0V298.249H500V298.021Z" fill="#EBEBEB"/>
<path d="M80.927 41.5859H79.127V169.194H80.927V41.5859Z" fill="#E0E0E0"/>
<path d="M192.978 41.5859H191.178V169.194H192.978V41.5859Z" fill="#E0E0E0"/>
<path d="M200.029 49.612H72.0789L69.3789 43.8848H202.729L200.029 49.612Z" fill="#EBEBEB"/>
<path d="M200.029 57.4792H72.0789L69.3789 51.752H202.729L200.029 57.4792Z" fill="#EBEBEB"/>
<path d="M200.029 65.3425H72.0789L69.3789 59.6152H202.729L200.029 65.3425Z" fill="#EBEBEB"/>
<path d="M200.029 73.2058H72.0789L69.3789 67.4785H202.729L200.029 73.2058Z" fill="#EBEBEB"/>
<path d="M200.029 81.0671H72.0789L69.3789 75.3398H202.729L200.029 81.0671Z" fill="#EBEBEB"/>
<path d="M200.029 88.9323H72.0789L69.3789 83.2051H202.729L200.029 88.9323Z" fill="#EBEBEB"/>
<path d="M200.029 96.7956H72.0789L69.3789 91.0684H202.729L200.029 96.7956Z" fill="#EBEBEB"/>
<path d="M200.029 104.659H72.0789L69.3789 98.9316H202.729L200.029 104.659Z" fill="#EBEBEB"/>
<path d="M200.029 112.51H72.0789L69.3789 106.783H202.729L200.029 112.51Z" fill="#EBEBEB"/>
<path d="M200.029 120.378H72.0789L69.3789 114.65H202.729L200.029 120.378Z" fill="#EBEBEB"/>
<path d="M200.029 128.241H72.0789L69.3789 122.514H202.729L200.029 128.241Z" fill="#EBEBEB"/>
<path d="M200.029 136.104H72.0789L69.3789 130.377H202.729L200.029 136.104Z" fill="#EBEBEB"/>
<path d="M200.029 143.967H72.0789L69.3789 138.24H202.729L200.029 143.967Z" fill="#EBEBEB"/>
<path d="M200.029 151.833H72.0789L69.3789 146.105H202.729L200.029 151.833Z" fill="#EBEBEB"/>
<path d="M200.029 159.696H72.0789L69.3789 153.969H202.729L200.029 159.696Z" fill="#EBEBEB"/>
<path d="M200.029 167.559H72.0789L69.3789 161.832H202.729L200.029 167.559Z" fill="#EBEBEB"/>
<path d="M202.729 167.561H69.3789V170.833H202.729V167.561Z" fill="#E0E0E0"/>
<path d="M207.38 36.7109H64.7305V44.3473H207.38V36.7109Z" fill="#E0E0E0"/>
<path d="M66.1902 113.586C65.8057 113.586 65.4369 113.447 65.1649 113.2C64.893 112.953 64.7402 112.617 64.7402 112.268V67.7225C64.7402 67.3729 64.893 67.0376 65.1649 66.7904C65.4369 66.5432 65.8057 66.4043 66.1902 66.4043C66.3807 66.4043 66.5692 66.4384 66.7451 66.5046C66.921 66.5709 67.0809 66.668 67.2155 66.7904C67.3502 66.9128 67.457 67.0581 67.5299 67.218C67.6027 67.378 67.6402 67.5494 67.6402 67.7225V112.268C67.6402 112.617 67.4875 112.953 67.2155 113.2C66.9436 113.447 66.5748 113.586 66.1902 113.586Z" fill="#E0E0E0"/>
<path d="M66.7199 42.8242H65.6699V69.2786H66.7199V42.8242Z" fill="#E0E0E0"/>
<path d="M435.318 63.6211H327.428V296.42H435.318V63.6211Z" fill="#EBEBEB"/>
<path d="M430.728 67.8438H332.008V296.434H430.728V67.8438Z" fill="#F0F0F0"/>
<path d="M423.779 200.061H339.479V283.778H423.779V200.061Z" fill="#FAFAFA"/>
<path d="M423.779 78.1582H339.479V161.876H423.779V78.1582Z" fill="#FAFAFA"/>
<path d="M350.088 170.297H340.748V192.424H350.088V170.297Z" fill="#EBEBEB"/>
<path d="M350.09 192.424H351.93V170.297H350.09V192.424Z" fill="#E0E0E0"/>
<path d="M346.997 178.988C346.997 179.696 346.766 180.389 346.333 180.978C345.9 181.567 345.285 182.026 344.565 182.297C343.845 182.568 343.053 182.639 342.289 182.501C341.524 182.363 340.822 182.022 340.271 181.521C339.72 181.02 339.345 180.382 339.193 179.687C339.041 178.992 339.119 178.272 339.417 177.617C339.715 176.963 340.22 176.403 340.868 176.01C341.516 175.616 342.278 175.406 343.057 175.406C344.102 175.406 345.104 175.784 345.843 176.455C346.582 177.127 346.997 178.038 346.997 178.988Z" fill="#E0E0E0"/>
<path d="M346.253 185.176H344.223V189.658H346.253V185.176Z" fill="#E0E0E0"/>
<path d="M355.84 178.986C355.84 180.204 344.21 181.186 342.84 181.186C342.198 181.186 341.583 180.954 341.129 180.542C340.675 180.129 340.42 179.57 340.42 178.986C340.42 178.403 340.675 177.843 341.129 177.43C341.583 177.018 342.198 176.786 342.84 176.786C344.21 176.75 355.84 177.777 355.84 178.986Z" fill="#F0F0F0"/>
<path d="M380.089 55.8294C391.538 55.8294 400.819 47.3921 400.819 36.984C400.819 26.576 391.538 18.1387 380.089 18.1387C368.641 18.1387 359.359 26.576 359.359 36.984C359.359 47.3921 368.641 55.8294 380.089 55.8294Z" fill="#E0E0E0"/>
<path d="M399.181 39.2203C401.016 28.9468 393.342 19.2666 382.041 17.5989C370.74 15.9313 360.091 22.9078 358.257 33.1813C356.423 43.4548 364.097 53.1351 375.398 54.8027C386.699 56.4703 397.347 49.4939 399.181 39.2203Z" fill="#EBEBEB"/>
<path opacity="0.8" d="M395.337 36.3186C395.337 39.3105 394.361 42.2352 392.532 44.7228C390.704 47.2105 388.105 49.1494 385.065 50.2943C382.024 51.4393 378.678 51.7388 375.45 51.1551C372.223 50.5715 369.258 49.1307 366.93 47.0152C364.603 44.8996 363.018 42.2042 362.376 39.2698C361.734 36.3354 362.064 33.2938 363.323 30.5297C364.583 27.7655 366.716 25.403 369.452 23.7408C372.188 22.0786 375.406 21.1914 378.697 21.1914C383.11 21.1914 387.342 22.7852 390.463 25.6221C393.584 28.459 395.337 32.3066 395.337 36.3186Z" fill="white"/>
<path d="M377.804 37.752C377.487 37.4639 377.309 37.0731 377.309 36.6657C377.309 36.2582 377.487 35.8674 377.804 35.5793C378.123 35.2956 378.552 35.1367 378.999 35.1367C379.445 35.1367 379.874 35.2956 380.194 35.5793C380.352 35.7218 380.477 35.8912 380.563 36.0778C380.649 36.2645 380.693 36.4647 380.694 36.667C380.694 36.8693 380.651 37.0697 380.566 37.2567C380.481 37.4436 380.356 37.6135 380.199 37.7566C380.041 37.8996 379.854 38.013 379.649 38.0902C379.443 38.1675 379.223 38.207 379 38.2066C378.778 38.2061 378.557 38.1658 378.352 38.0878C378.147 38.0098 377.96 37.8957 377.804 37.752Z" fill="#E0E0E0"/>
<path d="M378.69 36.1399L388.52 35.8672L388.55 36.7945L379.65 37.0399L378.69 51.1126L377.68 51.058L378.69 36.1399Z" fill="#E0E0E0"/>
<path d="M250.001 338.578C357.084 338.578 443.891 333.97 443.891 328.287C443.891 322.603 357.084 317.996 250.001 317.996C142.919 317.996 56.1113 322.603 56.1113 328.287C56.1113 333.97 142.919 338.578 250.001 338.578Z" fill="#F5F5F5"/>
<path d="M85.9985 318.194C85.9985 317.885 82.4585 286.903 90.2785 260.549L91.2785 260.785C83.5185 286.976 86.9985 317.794 86.9985 318.103L85.9985 318.194Z" fill="#263238"/>
<path d="M94.4761 267.23C94.4761 267.23 83.7061 285.412 85.8561 306.839C85.8561 306.839 90.3361 280.512 94.4761 267.23Z" fill="#240076"/>
<path d="M73.0703 258.23C73.0703 258.23 88.7903 278.33 86.0703 303.994C86.0503 304.021 79.9403 271.749 73.0703 258.23Z" fill="#240076"/>
<path d="M85.9981 310.196C85.9981 310.196 89.3981 283.66 71.3381 275.996C71.2881 275.996 80.9181 282.469 85.9981 310.196Z" fill="#240076"/>
<path d="M87.8476 260.958L87.5176 261.013C87.3976 261.033 87.2836 261.075 87.1828 261.138C87.082 261.2 86.9968 261.281 86.9327 261.375C86.8686 261.47 86.827 261.575 86.8106 261.685C86.7942 261.795 86.8034 261.907 86.8376 262.013L87.2376 263.331C87.2777 263.464 87.3554 263.585 87.4629 263.683C87.5705 263.78 87.7042 263.85 87.8508 263.886C87.9974 263.922 88.1518 263.922 88.2986 263.887C88.4454 263.852 88.5795 263.783 88.6876 263.686L89.2276 263.213C89.3331 263.122 89.4617 263.056 89.6019 263.021C89.7421 262.987 89.8897 262.984 90.0313 263.014C90.1729 263.043 90.3043 263.105 90.4135 263.192C90.5228 263.279 90.6067 263.389 90.6576 263.513L91.3876 265.331C91.4312 265.441 91.5012 265.542 91.5926 265.624C91.6839 265.707 91.7944 265.77 91.9159 265.809C92.0375 265.849 92.1671 265.863 92.2953 265.851C92.4236 265.839 92.5474 265.801 92.6576 265.74L94.3376 264.831C94.45 264.77 94.5457 264.687 94.6177 264.587C94.6896 264.488 94.736 264.375 94.7533 264.257C94.7706 264.139 94.7584 264.019 94.7176 263.906C94.6768 263.793 94.6084 263.69 94.5176 263.604L94.2476 263.349C94.1325 263.237 94.0552 263.097 94.025 262.947C93.9948 262.796 94.0129 262.64 94.0772 262.498C94.1415 262.357 94.2492 262.235 94.3876 262.147C94.5259 262.059 94.6891 262.01 94.8576 262.004H96.3176C96.4412 262.001 96.5626 261.975 96.674 261.926C96.7854 261.877 96.8841 261.808 96.9636 261.722C97.0431 261.636 97.1015 261.535 97.1349 261.427C97.1684 261.319 97.1761 261.206 97.1576 261.095L96.9976 259.958C96.9802 259.833 96.9301 259.714 96.8514 259.61C96.7728 259.506 96.6679 259.42 96.5455 259.361C96.4232 259.301 96.2869 259.269 96.1481 259.267C96.0093 259.265 95.872 259.293 95.7476 259.349L95.6476 259.395C95.4865 259.462 95.3068 259.484 95.1318 259.457C94.9569 259.43 94.795 259.356 94.6674 259.244C94.5399 259.132 94.4525 258.987 94.4168 258.829C94.3812 258.671 94.3989 258.507 94.4676 258.358L94.9476 257.358C95.0015 257.246 95.0258 257.123 95.0184 257C95.0111 256.878 94.9724 256.758 94.9055 256.651C94.8385 256.545 94.7451 256.454 94.6326 256.385C94.5202 256.317 94.3918 256.274 94.2576 256.258L92.7076 256.068C92.5855 256.051 92.4608 256.058 92.3418 256.088C92.2229 256.119 92.1124 256.172 92.0178 256.244C91.9232 256.316 91.8466 256.406 91.7931 256.507C91.7396 256.608 91.7105 256.719 91.7076 256.831C91.6986 257.004 91.6284 257.169 91.5076 257.302C91.3867 257.435 91.2217 257.529 91.0372 257.57C90.8526 257.611 90.6585 257.597 90.4837 257.529C90.309 257.461 90.163 257.344 90.0676 257.195L89.8676 256.868C89.802 256.763 89.7113 256.674 89.6023 256.606C89.4933 256.538 89.3689 256.493 89.2382 256.474C89.1075 256.456 88.974 256.465 88.8475 256.5C88.721 256.535 88.6049 256.595 88.5076 256.677L87.3576 257.658C87.2705 257.733 87.201 257.823 87.1536 257.923C87.1061 258.023 87.0816 258.131 87.0816 258.24C87.0816 258.349 87.1061 258.457 87.1536 258.557C87.201 258.657 87.2705 258.747 87.3576 258.822L88.2776 259.595C88.3942 259.696 88.4782 259.823 88.5205 259.964C88.5627 260.106 88.5616 260.255 88.5173 260.395C88.473 260.536 88.3871 260.662 88.269 260.762C88.151 260.861 88.0052 260.929 87.8476 260.958Z" fill="#240076"/>
<path opacity="0.7" d="M87.8476 260.958L87.5176 261.013C87.3976 261.033 87.2836 261.075 87.1828 261.138C87.082 261.2 86.9968 261.281 86.9327 261.375C86.8686 261.47 86.827 261.575 86.8106 261.685C86.7942 261.795 86.8034 261.907 86.8376 262.013L87.2376 263.331C87.2777 263.464 87.3554 263.585 87.4629 263.683C87.5705 263.78 87.7042 263.85 87.8508 263.886C87.9974 263.922 88.1518 263.922 88.2986 263.887C88.4454 263.852 88.5795 263.783 88.6876 263.686L89.2276 263.213C89.3331 263.122 89.4617 263.056 89.6019 263.021C89.7421 262.987 89.8897 262.984 90.0313 263.014C90.1729 263.043 90.3043 263.105 90.4135 263.192C90.5228 263.279 90.6067 263.389 90.6576 263.513L91.3876 265.331C91.4312 265.441 91.5012 265.542 91.5926 265.624C91.6839 265.707 91.7944 265.77 91.9159 265.809C92.0375 265.849 92.1671 265.863 92.2953 265.851C92.4236 265.839 92.5474 265.801 92.6576 265.74L94.3376 264.831C94.45 264.77 94.5457 264.687 94.6177 264.587C94.6896 264.488 94.736 264.375 94.7533 264.257C94.7706 264.139 94.7584 264.019 94.7176 263.906C94.6768 263.793 94.6084 263.69 94.5176 263.604L94.2476 263.349C94.1325 263.237 94.0552 263.097 94.025 262.947C93.9948 262.796 94.0129 262.64 94.0772 262.498C94.1415 262.357 94.2492 262.235 94.3876 262.147C94.5259 262.059 94.6891 262.01 94.8576 262.004H96.3176C96.4412 262.001 96.5626 261.975 96.674 261.926C96.7854 261.877 96.8841 261.808 96.9636 261.722C97.0431 261.636 97.1015 261.535 97.1349 261.427C97.1684 261.319 97.1761 261.206 97.1576 261.095L96.9976 259.958C96.9802 259.833 96.9301 259.714 96.8514 259.61C96.7728 259.506 96.6679 259.42 96.5455 259.361C96.4232 259.301 96.2869 259.269 96.1481 259.267C96.0093 259.265 95.872 259.293 95.7476 259.349L95.6476 259.395C95.4865 259.462 95.3068 259.484 95.1318 259.457C94.9569 259.43 94.795 259.356 94.6674 259.244C94.5399 259.132 94.4525 258.987 94.4168 258.829C94.3812 258.671 94.3989 258.507 94.4676 258.358L94.9476 257.358C95.0015 257.246 95.0258 257.123 95.0184 257C95.0111 256.878 94.9724 256.758 94.9055 256.651C94.8385 256.545 94.7451 256.454 94.6326 256.385C94.5202 256.317 94.3918 256.274 94.2576 256.258L92.7076 256.068C92.5855 256.051 92.4608 256.058 92.3418 256.088C92.2229 256.119 92.1124 256.172 92.0178 256.244C91.9232 256.316 91.8466 256.406 91.7931 256.507C91.7396 256.608 91.7105 256.719 91.7076 256.831C91.6986 257.004 91.6284 257.169 91.5076 257.302C91.3867 257.435 91.2217 257.529 91.0372 257.57C90.8526 257.611 90.6585 257.597 90.4837 257.529C90.309 257.461 90.163 257.344 90.0676 257.195L89.8676 256.868C89.802 256.763 89.7113 256.674 89.6023 256.606C89.4933 256.538 89.3689 256.493 89.2382 256.474C89.1075 256.456 88.974 256.465 88.8475 256.5C88.721 256.535 88.6049 256.595 88.5076 256.677L87.3576 257.658C87.2705 257.733 87.201 257.823 87.1536 257.923C87.1061 258.023 87.0816 258.131 87.0816 258.24C87.0816 258.349 87.1061 258.457 87.1536 258.557C87.201 258.657 87.2705 258.747 87.3576 258.822L88.2776 259.595C88.3942 259.696 88.4782 259.823 88.5205 259.964C88.5627 260.106 88.5616 260.255 88.5173 260.395C88.473 260.536 88.3871 260.662 88.269 260.762C88.151 260.861 88.0052 260.929 87.8476 260.958Z" fill="white"/>
<path d="M89.288 303.368L90.548 294.504H79.548L80.798 303.368C78.2324 304.171 76.006 305.681 74.4288 307.689C72.8516 309.696 72.0019 312.101 71.998 314.567C72.096 317.308 72.825 319.999 74.138 322.467C74.7614 323.656 75.7443 324.658 76.9716 325.357C78.199 326.055 79.6199 326.422 81.068 326.413H89.068C90.5152 326.423 91.9356 326.058 93.1617 325.359C94.3877 324.66 95.3684 323.656 95.988 322.467C97.3085 320.001 98.0411 317.309 98.138 314.567C98.1381 312.093 97.284 309.682 95.6963 307.672C94.1085 305.663 91.8671 304.157 89.288 303.368Z" fill="#240076"/>
<path opacity="0.7" d="M89.288 303.368L90.548 294.504H79.548L80.798 303.368C78.2324 304.171 76.006 305.681 74.4288 307.689C72.8516 309.696 72.0019 312.101 71.998 314.567C72.096 317.308 72.825 319.999 74.138 322.467C74.7614 323.656 75.7443 324.658 76.9716 325.357C78.199 326.055 79.6199 326.422 81.068 326.413H89.068C90.5152 326.423 91.9356 326.058 93.1617 325.359C94.3877 324.66 95.3684 323.656 95.988 322.467C97.3085 320.001 98.0411 317.309 98.138 314.567C98.1381 312.093 97.284 309.682 95.6963 307.672C94.1085 305.663 91.8671 304.157 89.288 303.368Z" fill="white"/>
<path d="M307.926 217.211V325.856H311.186L314.086 222.765H317.926V217.211H307.926Z" fill="#263238"/>
<path d="M310.816 325.855H313.926L317.926 217.219H313.816L310.816 325.855Z" fill="#263238"/>
<g opacity="0.3">
<path d="M311.416 325.856H313.926L317.646 222.893H314.136L311.416 325.856Z" fill="white"/>
</g>
<path opacity="0.5" d="M307.926 217.211V325.856H311.186L314.086 222.765H317.926V217.211H307.926Z" fill="white"/>
<path d="M112.158 325.858H115.268L119.268 217.367H115.158L112.158 325.858Z" fill="#263238"/>
<path opacity="0.3" d="M112.158 325.858H115.268L119.268 217.367H115.158L112.158 325.858Z" fill="white"/>
<path d="M162.268 217.367V325.858H158.978L155.108 222.631H115.418L112.518 325.858H109.268V217.367H162.268Z" fill="#263238"/>
<path opacity="0.5" d="M162.268 217.367V325.858H158.978L155.108 222.631H115.418L112.518 325.858H109.268V217.367H162.268Z" fill="white"/>
<path d="M162.266 325.858H165.366L166.366 217.367H162.266V325.858Z" fill="#263238"/>
<path opacity="0.3" d="M162.266 325.858H165.366L166.366 217.367H162.266V325.858Z" fill="white"/>
<path d="M317.926 217.367V222.64H353.766L357.636 325.858H360.926V217.367H317.926Z" fill="#263238"/>
<path opacity="0.5" d="M317.926 217.367V222.64H353.766L357.636 325.858H360.926V217.367H317.926Z" fill="white"/>
<path d="M360.928 325.858H364.038L365.038 217.367H360.928V325.858Z" fill="#263238"/>
<g opacity="0.3">
<path d="M360.926 325.858H364.036L365.036 217.367H360.926V325.858Z" fill="white"/>
</g>
<path d="M164.829 217.332L370.479 217.332V210.359L164.829 210.359V217.332Z" fill="#263238"/>
<path opacity="0.8" d="M164.829 217.332L370.479 217.332V210.359L164.829 210.359V217.332Z" fill="white"/>
<path d="M103.825 217.332H169.605V210.359H103.825V217.332Z" fill="#263238"/>
<path opacity="0.6" d="M103.825 217.332H169.605V210.359H103.825V217.332Z" fill="white"/>
<path d="M149.576 208.438V209.402C149.576 209.643 149.682 209.874 149.869 210.045C150.057 210.215 150.311 210.311 150.576 210.311H188.576C188.818 210.311 189.051 210.224 189.223 210.069C189.395 209.914 189.494 209.704 189.496 209.484V208.575C189.496 208.353 189.399 208.14 189.227 207.983C189.054 207.826 188.82 207.738 188.576 207.738H179.126C178.876 207.738 178.629 207.689 178.402 207.594C178.174 207.499 177.973 207.36 177.81 207.188C177.648 207.015 177.528 206.812 177.46 206.593C177.392 206.374 177.377 206.145 177.416 205.92L180.736 188.502H159.136L149.886 207.102C149.686 207.524 149.581 207.978 149.576 208.438Z" fill="#263238"/>
<path opacity="0.2" d="M189.506 208.565V209.474C189.506 209.582 189.482 209.69 189.436 209.79C189.391 209.891 189.324 209.982 189.239 210.059C189.155 210.136 189.054 210.197 188.944 210.238C188.834 210.28 188.715 210.301 188.596 210.301H150.596C150.33 210.301 150.076 210.205 149.889 210.035C149.701 209.864 149.596 209.633 149.596 209.392V208.428C149.599 208.171 149.633 207.915 149.696 207.665C149.753 207.45 149.83 207.24 149.926 207.037L159.176 188.438H180.776L177.426 205.837C177.411 205.94 177.411 206.044 177.426 206.147C177.433 206.501 177.573 206.842 177.822 207.114C178.071 207.387 178.414 207.575 178.796 207.647C178.915 207.66 179.036 207.66 179.156 207.647H188.616C188.742 207.648 188.867 207.674 188.982 207.722C189.097 207.771 189.2 207.84 189.284 207.927C189.368 208.013 189.431 208.115 189.469 208.224C189.507 208.334 189.52 208.45 189.506 208.565Z" fill="white"/>
<path d="M148.675 207.049L157.925 188.449H159.145L149.895 207.049C149.684 207.488 149.575 207.961 149.575 208.44V209.404C149.575 209.645 149.681 209.876 149.868 210.046C150.056 210.217 150.31 210.313 150.575 210.313H149.355C149.09 210.313 148.836 210.217 148.648 210.046C148.461 209.876 148.355 209.645 148.355 209.404V208.44C148.356 207.961 148.464 207.488 148.675 207.049Z" fill="#263238"/>
<path opacity="0.3" d="M159.147 188.449H180.747L179.897 192.895H156.938L159.147 188.449Z" fill="#00451A"/>
<path d="M216.999 190.383H124.849C123.955 190.383 123.098 190.061 122.466 189.486C121.834 188.912 121.479 188.132 121.479 187.32V126.802C121.479 125.989 121.834 125.21 122.466 124.636C123.098 124.061 123.955 123.738 124.849 123.738H216.999C217.892 123.738 218.749 124.061 219.381 124.636C220.013 125.21 220.368 125.989 220.368 126.802V187.338C220.363 188.147 220.006 188.922 219.374 189.493C218.743 190.063 217.889 190.383 216.999 190.383Z" fill="#263238"/>
<g opacity="0.2">
<path d="M216.999 190.383H124.849C123.955 190.383 123.098 190.061 122.466 189.486C121.834 188.912 121.479 188.132 121.479 187.32V126.802C121.479 125.989 121.834 125.21 122.466 124.636C123.098 124.061 123.955 123.738 124.849 123.738H216.999C217.892 123.738 218.749 124.061 219.381 124.636C220.013 125.21 220.368 125.989 220.368 126.802V187.338C220.363 188.147 220.006 188.922 219.374 189.493C218.743 190.063 217.889 190.383 216.999 190.383Z" fill="white"/>
</g>
<path d="M216.926 125.594H124.906C123.895 125.594 123.076 126.339 123.076 127.257V177.284C123.076 178.203 123.895 178.948 124.906 178.948H216.926C217.937 178.948 218.756 178.203 218.756 177.284V127.257C218.756 126.339 217.937 125.594 216.926 125.594Z" fill="#240076"/>
<path opacity="0.6" d="M216.926 125.594H124.906C123.895 125.594 123.076 126.339 123.076 127.257V177.284C123.076 178.203 123.895 178.948 124.906 178.948H216.926C217.937 178.948 218.756 178.203 218.756 177.284V127.257C218.756 126.339 217.937 125.594 216.926 125.594Z" fill="white"/>
<path d="M122.807 123.738H124.807C123.914 123.738 123.057 124.061 122.425 124.636C121.793 125.21 121.438 125.989 121.438 126.802V187.338C121.438 188.151 121.793 188.93 122.425 189.504C123.057 190.079 123.914 190.402 124.807 190.402H122.807C121.914 190.402 121.057 190.079 120.425 189.504C119.793 188.93 119.438 188.151 119.438 187.338V126.802C119.438 125.989 119.793 125.21 120.425 124.636C121.057 124.061 121.914 123.738 122.807 123.738Z" fill="#240076"/>
<path opacity="0.3" d="M122.807 123.738H124.807C123.914 123.738 123.057 124.061 122.425 124.636C121.793 125.21 121.438 125.989 121.438 126.802V187.338C121.438 188.151 121.793 188.93 122.425 189.504C123.057 190.079 123.914 190.402 124.807 190.402H122.807C121.914 190.402 121.057 190.079 120.425 189.504C119.793 188.93 119.438 188.151 119.438 187.338V126.802C119.438 125.989 119.793 125.21 120.425 124.636C121.057 124.061 121.914 123.738 122.807 123.738Z" fill="white"/>
<g opacity="0.2">
<path d="M162.849 125.594H159.309L141.699 178.939H145.239L162.849 125.594Z" fill="white"/>
<path d="M138.118 178.939L155.728 125.594H142.428L124.818 178.939H138.118Z" fill="white"/>
</g>
<path opacity="0.2" d="M156.148 208.567V209.476C156.148 209.71 156.247 209.934 156.423 210.103C156.6 210.273 156.842 210.374 157.098 210.385H188.598C188.84 210.385 189.071 210.298 189.242 210.143C189.413 209.988 189.508 209.777 189.508 209.558V208.649C189.508 208.429 189.413 208.217 189.243 208.061C189.072 207.904 188.841 207.815 188.598 207.812H179.138C179.019 207.826 178.898 207.826 178.778 207.812H157.098C156.869 207.82 156.649 207.899 156.476 208.036C156.303 208.174 156.187 208.361 156.148 208.567Z" fill="white"/>
<path opacity="0.2" d="M149.668 207.658H178.778C178.396 207.588 178.051 207.401 177.802 207.128C177.553 206.855 177.414 206.513 177.408 206.158H150.408L149.668 207.658Z" fill="#00451A"/>
<path d="M221.776 208.203H224.536C224.601 208.206 224.667 208.196 224.729 208.176C224.79 208.155 224.847 208.124 224.895 208.083C224.944 208.043 224.983 207.994 225.01 207.94C225.038 207.885 225.053 207.827 225.056 207.767V205.349C225.053 205.289 225.038 205.23 225.01 205.176C224.983 205.122 224.944 205.073 224.895 205.033C224.847 204.992 224.79 204.961 224.729 204.94C224.667 204.919 224.601 204.91 224.536 204.912H222.536C222.423 204.91 222.313 204.94 222.221 204.999C222.129 205.058 222.06 205.142 222.026 205.24L221.256 207.649C221.236 207.718 221.235 207.79 221.253 207.86C221.27 207.93 221.306 207.994 221.357 208.049C221.408 208.103 221.473 208.146 221.546 208.173C221.619 208.199 221.697 208.21 221.776 208.203Z" fill="#263238"/>
<path d="M217.997 208.203H220.747C220.881 208.208 221.012 208.165 221.111 208.084C221.21 208.002 221.27 207.888 221.277 207.767V205.349C221.27 205.227 221.21 205.114 221.111 205.032C221.012 204.95 220.881 204.908 220.747 204.912H218.747C218.635 204.91 218.524 204.94 218.432 204.999C218.34 205.058 218.272 205.142 218.237 205.24L217.457 207.649C217.437 207.72 217.436 207.794 217.455 207.865C217.473 207.936 217.511 208.002 217.565 208.057C217.618 208.112 217.685 208.154 217.761 208.18C217.836 208.205 217.918 208.213 217.997 208.203Z" fill="#263238"/>
<path d="M214.168 208.203H216.928C216.994 208.206 217.06 208.196 217.121 208.176C217.183 208.155 217.239 208.124 217.288 208.083C217.336 208.043 217.375 207.994 217.403 207.94C217.43 207.885 217.446 207.827 217.448 207.767V205.349C217.446 205.289 217.43 205.23 217.403 205.176C217.375 205.122 217.336 205.073 217.288 205.033C217.239 204.992 217.183 204.961 217.121 204.94C217.06 204.919 216.994 204.91 216.928 204.912H214.928C214.816 204.91 214.705 204.94 214.613 204.999C214.521 205.058 214.453 205.142 214.418 205.24L213.648 207.649C213.629 207.718 213.628 207.79 213.645 207.86C213.663 207.93 213.699 207.994 213.75 208.049C213.801 208.103 213.866 208.146 213.938 208.173C214.011 208.199 214.09 208.21 214.168 208.203Z" fill="#263238"/>
<path d="M210.367 208.203H213.117C213.25 208.208 213.381 208.165 213.48 208.084C213.579 208.002 213.639 207.888 213.647 207.767V205.349C213.639 205.227 213.579 205.114 213.48 205.032C213.381 204.95 213.25 204.908 213.117 204.912H211.117C211.004 204.91 210.894 204.94 210.802 204.999C210.71 205.058 210.641 205.142 210.607 205.24L209.827 207.649C209.806 207.72 209.805 207.794 209.824 207.865C209.843 207.936 209.88 208.002 209.934 208.057C209.987 208.112 210.054 208.154 210.13 208.18C210.206 208.205 210.287 208.213 210.367 208.203Z" fill="#263238"/>
<path d="M206.557 208.203H209.317C209.383 208.206 209.448 208.196 209.51 208.176C209.572 208.155 209.628 208.124 209.676 208.083C209.725 208.043 209.764 207.994 209.791 207.94C209.819 207.885 209.834 207.827 209.837 207.767V205.349C209.834 205.289 209.819 205.23 209.791 205.176C209.764 205.122 209.725 205.073 209.676 205.033C209.628 204.992 209.572 204.961 209.51 204.94C209.448 204.919 209.383 204.91 209.317 204.912H207.317C207.204 204.91 207.094 204.94 207.002 204.999C206.91 205.058 206.842 205.142 206.807 205.24L206.037 207.649C206.017 207.718 206.016 207.79 206.034 207.86C206.052 207.93 206.088 207.994 206.139 208.049C206.19 208.103 206.254 208.146 206.327 208.173C206.4 208.199 206.479 208.21 206.557 208.203Z" fill="#263238"/>
<path d="M202.757 208.203H205.507C205.641 208.208 205.771 208.165 205.87 208.084C205.97 208.002 206.029 207.888 206.037 207.767V205.349C206.029 205.227 205.97 205.114 205.87 205.032C205.771 204.95 205.641 204.908 205.507 204.912H203.507C203.395 204.91 203.284 204.94 203.192 204.999C203.1 205.058 203.032 205.142 202.997 205.24L202.217 207.649C202.197 207.72 202.196 207.794 202.215 207.865C202.233 207.936 202.271 208.002 202.324 208.057C202.378 208.112 202.445 208.154 202.521 208.18C202.596 208.205 202.677 208.213 202.757 208.203Z" fill="#263238"/>
<path d="M198.998 208.203H201.758C201.824 208.206 201.89 208.196 201.951 208.176C202.013 208.155 202.07 208.124 202.118 208.083C202.166 208.043 202.205 207.994 202.233 207.94C202.26 207.885 202.276 207.827 202.278 207.767V205.349C202.276 205.289 202.26 205.23 202.233 205.176C202.205 205.122 202.166 205.073 202.118 205.033C202.07 204.992 202.013 204.961 201.951 204.94C201.89 204.919 201.824 204.91 201.758 204.912H199.758C199.646 204.91 199.535 204.94 199.443 204.999C199.351 205.058 199.283 205.142 199.248 205.24L198.478 207.649C198.459 207.718 198.458 207.79 198.475 207.86C198.493 207.93 198.529 207.994 198.58 208.049C198.631 208.103 198.696 208.146 198.768 208.173C198.841 208.199 198.92 208.21 198.998 208.203Z" fill="#263238"/>
<path d="M195.146 208.203H197.896C198.03 208.208 198.16 208.165 198.259 208.084C198.358 208.002 198.418 207.888 198.426 207.767V205.349C198.418 205.227 198.358 205.114 198.259 205.032C198.16 204.95 198.03 204.908 197.896 204.912H195.896C195.783 204.91 195.673 204.94 195.581 204.999C195.489 205.058 195.421 205.142 195.386 205.24L194.606 207.649C194.585 207.72 194.585 207.794 194.603 207.865C194.622 207.936 194.66 208.002 194.713 208.057C194.766 208.112 194.834 208.154 194.909 208.18C194.985 208.205 195.066 208.213 195.146 208.203Z" fill="#263238"/>
<path d="M191.336 208.203H194.096C194.162 208.206 194.227 208.196 194.289 208.176C194.351 208.155 194.407 208.124 194.456 208.083C194.504 208.043 194.543 207.994 194.571 207.94C194.598 207.885 194.614 207.827 194.616 207.767V205.349C194.614 205.289 194.598 205.23 194.571 205.176C194.543 205.122 194.504 205.073 194.456 205.033C194.407 204.992 194.351 204.961 194.289 204.94C194.227 204.919 194.162 204.91 194.096 204.912H192.096C191.984 204.91 191.873 204.94 191.781 204.999C191.689 205.058 191.621 205.142 191.586 205.24L190.816 207.649C190.797 207.718 190.796 207.79 190.813 207.86C190.831 207.93 190.867 207.994 190.918 208.049C190.969 208.103 191.034 208.146 191.106 208.173C191.179 208.199 191.258 208.21 191.336 208.203Z" fill="#263238"/>
<path d="M187.536 208.203H190.286C190.42 208.208 190.55 208.165 190.649 208.084C190.748 208.002 190.808 207.888 190.816 207.767V205.349C190.808 205.227 190.748 205.114 190.649 205.032C190.55 204.95 190.42 204.908 190.286 204.912H188.286C188.175 204.911 188.067 204.943 187.977 205.002C187.887 205.06 187.82 205.144 187.786 205.24L186.996 207.658C186.977 207.728 186.978 207.801 186.998 207.871C187.017 207.941 187.055 208.006 187.108 208.06C187.161 208.113 187.228 208.154 187.303 208.18C187.377 208.205 187.457 208.213 187.536 208.203Z" fill="#263238"/>
<path d="M183.725 208.203H186.485C186.551 208.206 186.616 208.196 186.678 208.176C186.74 208.155 186.796 208.124 186.844 208.083C186.893 208.043 186.932 207.994 186.959 207.94C186.987 207.885 187.002 207.827 187.005 207.767V205.349C187.002 205.289 186.987 205.23 186.959 205.176C186.932 205.122 186.893 205.073 186.844 205.033C186.796 204.992 186.74 204.961 186.678 204.94C186.616 204.919 186.551 204.91 186.485 204.912H184.485C184.372 204.91 184.262 204.94 184.17 204.999C184.078 205.058 184.009 205.142 183.975 205.24L183.205 207.649C183.185 207.718 183.184 207.79 183.202 207.86C183.22 207.93 183.256 207.994 183.307 208.049C183.358 208.103 183.422 208.146 183.495 208.173C183.568 208.199 183.647 208.21 183.725 208.203Z" fill="#263238"/>
<path d="M179.927 208.203H182.677C182.81 208.208 182.941 208.165 183.04 208.084C183.139 208.002 183.199 207.888 183.207 207.767V205.349C183.199 205.227 183.139 205.114 183.04 205.032C182.941 204.95 182.81 204.908 182.677 204.912H180.677C180.566 204.911 180.457 204.943 180.368 205.002C180.278 205.06 180.211 205.144 180.177 205.24L179.397 207.649C179.377 207.719 179.376 207.792 179.394 207.863C179.412 207.933 179.449 207.998 179.501 208.053C179.553 208.108 179.619 208.15 179.693 208.176C179.767 208.202 179.848 208.212 179.927 208.203Z" fill="#263238"/>
<path d="M176.117 208.203H178.877C178.943 208.206 179.009 208.196 179.07 208.176C179.132 208.155 179.189 208.124 179.237 208.083C179.285 208.043 179.324 207.994 179.352 207.94C179.379 207.885 179.395 207.827 179.397 207.767V205.349C179.395 205.289 179.379 205.23 179.352 205.176C179.324 205.122 179.285 205.073 179.237 205.033C179.189 204.992 179.132 204.961 179.07 204.94C179.009 204.919 178.943 204.91 178.877 204.912H176.877C176.765 204.91 176.654 204.94 176.562 204.999C176.47 205.058 176.402 205.142 176.367 205.24L175.597 207.649C175.578 207.718 175.577 207.79 175.595 207.86C175.612 207.93 175.648 207.994 175.699 208.049C175.75 208.103 175.815 208.146 175.888 208.173C175.96 208.199 176.039 208.21 176.117 208.203Z" fill="#263238"/>
<path d="M172.317 208.203H175.067C175.201 208.208 175.331 208.165 175.43 208.084C175.53 208.002 175.589 207.888 175.597 207.767V205.349C175.589 205.227 175.53 205.114 175.43 205.032C175.331 204.95 175.201 204.908 175.067 204.912H173.067C172.956 204.911 172.848 204.943 172.758 205.002C172.668 205.06 172.601 205.144 172.567 205.24L171.787 207.649C171.767 207.719 171.766 207.792 171.784 207.863C171.803 207.933 171.839 207.998 171.892 208.053C171.944 208.108 172.01 208.15 172.084 208.176C172.158 208.202 172.238 208.212 172.317 208.203Z" fill="#263238"/>
<path d="M168.507 208.203H171.267C171.333 208.206 171.398 208.196 171.46 208.176C171.522 208.155 171.578 208.124 171.627 208.083C171.675 208.043 171.714 207.994 171.742 207.94C171.769 207.885 171.785 207.827 171.787 207.767V205.349C171.785 205.289 171.769 205.23 171.742 205.176C171.714 205.122 171.675 205.073 171.627 205.033C171.578 204.992 171.522 204.961 171.46 204.94C171.398 204.919 171.333 204.91 171.267 204.912H169.267C169.155 204.91 169.044 204.94 168.952 204.999C168.86 205.058 168.792 205.142 168.757 205.24L167.997 207.658C167.98 207.726 167.98 207.796 167.998 207.864C168.016 207.932 168.051 207.994 168.101 208.047C168.151 208.1 168.213 208.142 168.284 208.169C168.354 208.196 168.431 208.208 168.507 208.203Z" fill="#263238"/>
<path d="M165.738 208.459C165.759 208.986 166.008 209.484 166.432 209.845C166.855 210.206 167.418 210.401 167.998 210.386H224.998C225.579 210.408 226.145 210.221 226.574 209.865C227.003 209.509 227.26 209.013 227.288 208.486C227.286 208.232 227.226 207.98 227.11 207.749C226.995 207.517 226.827 207.31 226.618 207.14C226.185 206.791 225.628 206.594 225.048 206.586H167.998C167.786 206.587 167.574 206.611 167.368 206.659C166.919 206.758 166.518 206.988 166.224 207.312C165.93 207.637 165.76 208.039 165.738 208.459Z" fill="#263238"/>
<path opacity="0.2" d="M165.738 208.459C165.759 208.986 166.008 209.484 166.432 209.845C166.855 210.206 167.418 210.401 167.998 210.386H224.998C225.579 210.408 226.145 210.221 226.574 209.865C227.003 209.509 227.26 209.013 227.288 208.486C227.286 208.232 227.226 207.98 227.11 207.749C226.995 207.517 226.827 207.31 226.618 207.14C226.185 206.791 225.628 206.594 225.048 206.586H167.998C167.786 206.587 167.574 206.611 167.368 206.659C166.919 206.758 166.518 206.988 166.224 207.312C165.93 207.637 165.76 208.039 165.738 208.459Z" fill="white"/>
<path d="M165.738 208.456C165.759 208.984 166.008 209.482 166.432 209.843C166.855 210.204 167.418 210.398 167.998 210.384H187.288C187.736 210.28 188.133 210.047 188.42 209.718C188.708 209.39 188.868 208.985 188.878 208.565C188.889 208.454 188.889 208.341 188.878 208.229C188.788 207.839 188.564 207.486 188.238 207.22C188.086 207.104 187.922 207 187.748 206.911L187.478 206.802C187.198 206.703 186.899 206.654 186.598 206.656H167.398C166.944 206.751 166.535 206.978 166.236 207.303C165.936 207.628 165.761 208.033 165.738 208.456Z" fill="#263238"/>
<path d="M344.73 173.548C344.73 173.548 352.09 256.775 352.15 257.248L356.81 306.866H366.94C366.94 306.866 367.25 304.202 367.88 300.439C373.4 267.448 369.48 256.593 369.48 256.593C369.48 256.593 374.34 192.903 376.04 188.103C376.21 187.603 370.51 152.648 344.73 173.548Z" fill="#263238"/>
<g opacity="0.2">
<path d="M344.727 173.546C344.727 173.546 352.087 256.773 352.147 257.246L356.807 306.864H366.937C366.937 306.864 367.247 304.2 367.877 300.437C373.397 267.446 369.477 256.591 369.477 256.591C369.477 256.591 374.337 192.901 376.037 188.101C376.207 187.601 370.507 152.646 344.727 173.546Z" fill="#00451A"/>
</g>
<path d="M344.789 172.397C346.927 179.583 351.955 185.777 358.879 189.751L365.879 193.779C365.879 193.779 402.309 161.86 370.339 154.861C364.149 153.506 344.789 172.397 344.789 172.397Z" fill="#263238"/>
<path d="M436.1 298.723L429.74 302.623L423.79 295.677L417.35 288.159V288.15L424.83 283.486L425.85 284.859L430.86 291.641L436.1 298.723Z" fill="#FF8B7B"/>
<path opacity="0.2" d="M430.86 291.64L423.79 295.676L417.35 288.158L425.01 283.785L425.85 284.858L430.86 291.64Z" fill="#00451A"/>
<path d="M394.069 204.54C394.219 215.531 396.849 235.385 398.519 246.267C398.519 246.267 407.519 256.021 412.449 262.785L427.999 285.994L418.439 291.63L387.999 261.812C379.279 255.794 380.679 252.158 378.469 246.649C373.059 233.194 369.579 218.694 367.199 205.558C366.099 199.467 361.269 179.676 362.949 173.74C365.209 165.704 367.839 151.867 378.209 157.822C386.899 162.785 393.629 170.922 394.069 204.54Z" fill="#263238"/>
<path d="M431.557 288.285L419.737 295.058L414.938 290.567L428.228 282.84L431.557 288.285Z" fill="#240076"/>
<path d="M428.492 302.869L433.302 295.205C433.378 295.069 433.508 294.964 433.666 294.911C433.824 294.859 433.998 294.863 434.152 294.924L441.352 297.496C441.69 297.628 441.956 297.877 442.093 298.187C442.23 298.497 442.226 298.843 442.082 299.151L442.012 299.269C440.282 301.915 439.312 303.105 437.202 306.469C435.912 308.542 433.382 313.278 431.592 316.142C429.802 319.005 426.592 317.542 427.062 316.205C429.142 310.224 428.812 306.869 428.272 304.215C428.168 303.756 428.246 303.28 428.492 302.869Z" fill="#263238"/>
<path d="M427.13 306.97C428.13 306.652 428.89 304.925 429.19 303.934C429.201 303.899 429.2 303.863 429.187 303.829C429.175 303.795 429.152 303.765 429.12 303.743C429.089 303.721 429.05 303.709 429.011 303.709C428.971 303.709 428.932 303.721 428.9 303.743C428.58 303.898 425.831 305.207 425.731 306.189C425.717 306.302 425.737 306.416 425.788 306.519C425.839 306.623 425.919 306.713 426.02 306.779C426.111 306.84 426.208 306.891 426.31 306.934C426.438 306.989 426.576 307.021 426.716 307.027C426.857 307.034 426.998 307.014 427.13 306.97ZM428.66 304.243C428.16 305.561 427.571 306.434 427.011 306.598C426.882 306.628 426.747 306.63 426.618 306.601C426.489 306.572 426.369 306.515 426.27 306.434C426.223 306.411 426.184 306.375 426.161 306.331C426.137 306.287 426.13 306.237 426.141 306.189C426.191 305.661 427.57 304.798 428.66 304.243Z" fill="#240076"/>
<path d="M429.096 304.021C429.126 304.003 429.151 303.979 429.169 303.951C429.186 303.922 429.196 303.89 429.196 303.858C429.192 303.826 429.179 303.796 429.158 303.77C429.137 303.745 429.109 303.725 429.076 303.712C428.986 303.658 426.826 302.558 425.646 302.921C425.5 302.965 425.366 303.038 425.254 303.133C425.142 303.229 425.054 303.346 424.996 303.476C424.919 303.605 424.891 303.754 424.918 303.899C424.946 304.045 425.026 304.177 425.146 304.276C425.212 304.322 425.282 304.361 425.356 304.394C426.612 304.681 427.939 304.549 429.096 304.021ZM428.546 303.858C427.546 304.203 425.866 304.348 425.416 303.994C425.346 303.93 425.266 303.839 425.366 303.621C425.404 303.538 425.461 303.463 425.533 303.402C425.606 303.34 425.692 303.294 425.786 303.267C426.728 303.202 427.67 303.398 428.486 303.83L428.546 303.858Z" fill="#240076"/>
<path d="M324.658 206.16L317.938 205.769C317.938 205.769 313.228 174.987 312.778 173.76C312.158 171.523 308.388 154.36 306.898 149.978L307.618 149.878C306.818 147.623 307.498 145.187 310.108 144.424C312.718 143.66 316.298 144.914 317.108 147.151C318.788 151.696 321.988 168.969 322.468 171.042C322.473 171.09 322.473 171.139 322.468 171.187C323.998 180.196 324.658 206.16 324.658 206.16Z" fill="#FF8B7B"/>
<path d="M324.659 206.16C324.659 208.96 321.859 210.405 319.839 210.596H309.179L308.559 210.46C308.498 210.445 308.443 210.415 308.399 210.374C308.355 210.332 308.324 210.281 308.31 210.225C308.296 210.169 308.298 210.111 308.317 210.056C308.337 210.001 308.372 209.952 308.419 209.914L310.339 208.514C312.459 206.96 315.339 206.451 317.939 205.787L324.659 206.16Z" fill="#FF8B7B"/>
<path d="M311.587 135.039C300.677 139.812 308.297 159.693 308.297 159.693L321.707 158.566C321.707 158.566 323.037 144.148 321.517 139.648C319.907 134.93 316.807 131.939 311.587 135.039Z" fill="#240076"/>
<path opacity="0.2" d="M315.633 159.067C315.633 159.067 312.633 144.522 315.573 141.795C316.434 141.208 317.407 140.77 318.443 140.504C322.033 141.913 321.293 146.613 321.293 146.613L321.713 158.549C320.003 158.795 315.633 159.067 315.633 159.067Z" fill="#00451A"/>
<path d="M313.64 147.721C317.14 153.24 324.64 160.63 344.64 172.003L369.3 154.73C361.01 145.721 355.84 139.721 345.72 120.276C345.246 119.328 344.541 118.489 343.66 117.823C342.778 117.157 341.743 116.681 340.63 116.431C338.765 116.037 336.804 116.307 335.15 117.185C333.32 118.158 331.33 119.276 329.39 120.512C324.97 123.167 320.765 126.108 316.81 129.312C314.05 131.631 311.29 134.285 309.32 136.231C309.32 136.231 309.32 136.54 309.48 137.258C310.174 140.942 311.583 144.485 313.64 147.721Z" fill="#240076"/>
<path opacity="0.2" d="M347.217 122.283C347.547 123.056 347.877 123.838 348.217 124.52C349.856 128.065 351.736 131.514 353.847 134.847C345.847 136.138 337.667 132.12 336.457 129.501C335.687 127.91 343.217 123.347 347.217 122.283Z" fill="#00451A"/>
<path d="M368.451 152.971L371.601 154.343C371.851 154.452 371.801 154.789 371.451 155.016L344.731 173.552C344.481 173.725 344.171 173.752 344.041 173.625L341.881 171.543C341.731 171.407 341.881 171.125 342.111 170.925L367.831 153.116C367.911 153.044 368.01 152.993 368.119 152.968C368.228 152.942 368.342 152.943 368.451 152.971Z" fill="#240076"/>
<path opacity="0.6" d="M368.451 152.971L371.601 154.343C371.851 154.452 371.801 154.789 371.451 155.016L344.731 173.552C344.481 173.725 344.171 173.752 344.041 173.625L341.881 171.543C341.731 171.407 341.881 171.125 342.111 170.925L367.831 153.116C367.911 153.044 368.01 152.993 368.119 152.968C368.228 152.942 368.342 152.943 368.451 152.971Z" fill="white"/>
<path d="M342.105 170.922L367.825 153.113L342.105 170.922Z" fill="#240076"/>
<path d="M367.081 158.442L367.801 157.924C367.961 157.824 368.011 157.669 367.931 157.596L365.091 154.869C365.011 154.787 364.821 154.806 364.671 154.915L363.951 155.424C363.801 155.533 363.751 155.678 363.831 155.76L366.661 158.442C366.719 158.488 366.794 158.513 366.871 158.513C366.948 158.513 367.023 158.488 367.081 158.442Z" fill="#263238"/>
<path d="M347.091 172.333L347.811 171.815C347.961 171.715 348.021 171.56 347.931 171.478L345.101 168.805C345.034 168.766 344.955 168.75 344.877 168.758C344.798 168.766 344.725 168.799 344.671 168.851L343.951 169.36C343.801 169.469 343.741 169.624 343.821 169.696L346.661 172.378C346.741 172.46 346.931 172.442 347.091 172.333Z" fill="#263238"/>
<path d="M317.216 108.496C319.546 112.732 324.456 120.032 329.366 120.514C329.366 120.514 332.226 126.923 326.866 138.769C315.286 136.523 316.786 129.314 316.786 129.314C320.476 125.169 317.786 122.214 314.566 119.905L317.216 108.496Z" fill="#FF8B7B"/>
<path d="M327.681 140.149L328.091 139.24C333.591 127.077 330.771 120.022 330.641 119.74L327.841 120.168L328.141 120.968C328.141 121.031 330.551 126.822 326.071 137.331C317.121 135.177 317.641 128.349 317.691 128.113L315.691 130.122C315.691 130.204 313.861 137.449 326.561 139.913L327.681 140.149Z" fill="#240076"/>
<path opacity="0.6" d="M327.681 140.149L328.091 139.24C333.591 127.077 330.771 120.022 330.641 119.74L327.841 120.168L328.141 120.968C328.141 121.031 330.551 126.822 326.071 137.331C317.121 135.177 317.641 128.349 317.691 128.113L315.691 130.122C315.691 130.204 313.861 137.449 326.561 139.913L327.681 140.149Z" fill="white"/>
<path opacity="0.2" d="M316.926 109.74C318.724 111.97 319.975 114.524 320.596 117.231C321.006 119.104 319.806 122.931 317.596 122.686C316.76 121.617 315.748 120.673 314.596 119.886L316.926 109.74Z" fill="#00451A"/>
<path d="M303.289 129.94C294.009 122.931 291.389 113.204 291.289 104.531C291.289 102.895 291.659 97.6128 293.459 97.5219C307.359 96.7946 291.619 109.476 303.289 129.94Z" fill="#263238"/>
<path d="M314.74 100.495C319.28 106.795 321.35 109.377 320.53 114.741C319.31 122.804 309.81 126.495 303.31 121.55C297.44 117.095 291 107.532 295.53 100.732C296.519 99.2302 297.914 97.9838 299.583 97.1107C301.251 96.2376 303.137 95.7668 305.062 95.7431C306.987 95.7194 308.887 96.1436 310.581 96.9754C312.275 97.8071 313.706 99.0187 314.74 100.495Z" fill="#FF8B7B"/>
<path d="M306.43 119.093C306.43 119.093 307.55 117.047 312.22 112.447C313.67 114.438 314.22 116.62 311.86 118.984C310.86 120.284 308.52 120.42 306.72 119.293C306.619 119.231 306.522 119.164 306.43 119.093Z" fill="#263238"/>
<path d="M311.37 116.751C310.377 117.614 309.792 118.794 309.74 120.042C310.548 119.929 311.285 119.558 311.82 118.997C312.316 118.574 312.716 118.067 312.995 117.504C313.275 116.94 313.43 116.333 313.45 115.715C312.643 115.824 311.906 116.192 311.37 116.751Z" fill="#FF5652"/>
<path d="M306.588 118.85C306.848 118.984 307.143 119.055 307.443 119.055C307.743 119.055 308.037 118.984 308.298 118.85C309.672 117.481 310.888 115.989 311.928 114.395C312.115 114.136 312.219 113.835 312.23 113.526C312.24 113.216 312.157 112.91 311.988 112.641C309.973 114.548 308.165 116.628 306.588 118.85Z" fill="white"/>
<path d="M302.23 112.869C302.533 114.395 302.607 115.952 302.45 117.496C302.885 117.522 303.32 117.461 303.726 117.318C304.131 117.175 304.498 116.954 304.8 116.669L302.23 112.869Z" fill="#FF5652"/>
<path d="M304.767 106.559C304.702 106.576 304.632 106.576 304.567 106.559C304.094 106.421 303.591 106.388 303.1 106.462C302.61 106.537 302.146 106.716 301.747 106.986C301.708 107.016 301.662 107.038 301.613 107.052C301.564 107.066 301.513 107.071 301.462 107.067C301.411 107.063 301.361 107.049 301.316 107.028C301.27 107.006 301.23 106.976 301.197 106.94C301.16 106.909 301.131 106.871 301.111 106.829C301.09 106.786 301.08 106.741 301.08 106.695C301.08 106.649 301.09 106.603 301.111 106.561C301.131 106.519 301.16 106.481 301.197 106.449C301.696 106.105 302.279 105.874 302.897 105.776C303.514 105.678 304.149 105.716 304.747 105.886C304.847 105.917 304.931 105.981 304.983 106.065C305.034 106.148 305.05 106.247 305.027 106.34C305.003 106.391 304.967 106.437 304.922 106.474C304.878 106.512 304.825 106.541 304.767 106.559Z" fill="#263238"/>
<path d="M295.527 112.915H295.457C295.353 112.916 295.251 112.881 295.174 112.817C295.096 112.753 295.047 112.665 295.037 112.57C294.988 111.999 295.091 111.425 295.339 110.898C295.586 110.371 295.97 109.906 296.457 109.543C296.499 109.514 296.546 109.494 296.596 109.482C296.646 109.47 296.698 109.468 296.749 109.474C296.8 109.481 296.849 109.497 296.894 109.521C296.938 109.546 296.977 109.578 297.007 109.615C297.066 109.694 297.091 109.79 297.076 109.884C297.061 109.978 297.008 110.064 296.927 110.125C296.547 110.415 296.249 110.785 296.059 111.203C295.869 111.621 295.793 112.074 295.837 112.525C295.845 112.613 295.818 112.7 295.761 112.772C295.704 112.843 295.622 112.894 295.527 112.915Z" fill="#263238"/>
<path d="M305.632 109.058C306.032 109.549 306.102 110.13 305.722 110.385C305.342 110.64 304.722 110.385 304.342 109.921C303.962 109.458 303.872 108.858 304.252 108.603C304.632 108.349 305.222 108.567 305.632 109.058Z" fill="#263238"/>
<path d="M299.34 113.115C299.74 113.606 299.82 114.188 299.43 114.442C299.04 114.697 298.43 114.442 298.07 113.979C297.71 113.515 297.59 112.906 297.98 112.652C298.37 112.397 298.94 112.652 299.34 113.115Z" fill="#263238"/>
<path d="M298.158 112.605L296.568 113.187C296.568 113.187 297.998 113.615 298.158 112.605Z" fill="#263238"/>
<path d="M304.437 108.566L302.857 109.148C302.857 109.148 304.277 109.539 304.437 108.566Z" fill="#263238"/>
<path d="M317.198 104.65C320.978 106.005 320.528 114.741 320.528 114.741C320.378 115.077 324.648 109.914 322.248 97.8137C320.648 89.7501 305.328 87.1319 294.008 96.7955C291.788 98.6773 293.118 109.632 294.008 107.65C295.008 105.259 301.808 100.696 306.008 99.7137C305.568 99.4773 314.998 103.85 317.198 104.65Z" fill="#263238"/>
<path d="M316.429 97.6592C317.053 97.3387 317.586 96.8896 317.986 96.348C318.385 95.8063 318.639 95.1872 318.727 94.5403C318.816 93.8933 318.736 93.2365 318.495 92.6225C318.254 92.0085 317.858 91.4544 317.339 91.0046C316.254 90.197 314.971 89.6389 313.599 89.3774C312.231 89.1166 310.925 88.6397 309.739 87.9683C308.619 87.2138 308.299 86.2683 308.189 84.6774C307.815 84.9994 307.517 85.3869 307.312 85.8166C307.108 86.2463 307.001 86.7092 306.999 87.1774C305.999 86.4956 305.829 85.5047 305.439 83.3047C305.061 83.8667 304.819 84.4959 304.732 85.1498C304.644 85.8038 304.711 86.4673 304.929 87.0956C304.189 86.8319 303.709 86.3501 303.379 84.2138C302.149 86.941 302.929 89.3319 303.559 89.7319C302.724 89.7445 301.92 90.0252 301.291 90.5242C300.661 91.0233 300.246 91.7087 300.119 92.4592C300.019 93.2097 300.122 93.9708 300.418 94.6771C300.715 95.3834 301.195 96.0137 301.819 96.5137C303.084 97.5032 304.611 98.1768 306.249 98.4683C309.537 99.1497 312.972 98.9508 316.139 97.8955C316.139 97.6592 316.429 97.6592 316.429 97.6592Z" fill="#263238"/>
<path d="M321.861 103.114C322.67 104.371 322.903 105.866 322.511 107.278C321.971 109.15 319.861 109.096 318.511 107.768C317.161 106.441 316.071 104.132 317.351 102.678C317.577 102.425 317.855 102.216 318.17 102.062C318.485 101.908 318.83 101.811 319.185 101.778C319.541 101.745 319.901 101.777 320.243 101.87C320.586 101.963 320.904 102.117 321.181 102.323C321.463 102.543 321.695 102.812 321.861 103.114Z" fill="#FF8B7B"/>
<path d="M310.366 138.123L301.676 139.169L301.796 146.132C301.796 146.132 307.716 144.959 310.126 142.123L310.366 138.123Z" fill="#FF8B7B"/>
<path d="M296.607 142.268L296.207 147.413L301.797 146.132L301.677 139.168L296.607 142.268Z" fill="#FF8B7B"/>
<g opacity="0.2">
<path d="M301.261 145.432C301.201 145.467 301.15 145.514 301.111 145.569L301.261 145.432Z" fill="#00451A"/>
</g>
<path d="M346.569 124.822C347.909 129.968 347.619 139.631 347.439 143.477C347.384 145.286 346.605 147.015 345.249 148.34C343.589 149.913 340.789 151.068 336.249 149.331C331.709 147.595 309.989 143.177 310.039 142.15L310.259 138.177C310.259 138.177 323.429 138.559 337.559 139.995C338.189 133.986 336.919 126.359 337.499 124.331C338.469 121.004 344.869 118.304 346.569 124.822Z" fill="#FF8B7B"/>
<path d="M337.819 116.395C334.819 118.395 334.449 133.513 334.449 133.513L349.769 133.795C349.769 133.795 349.769 123.713 348.469 120.759C346.449 115.986 341.179 114.15 337.819 116.395Z" fill="#240076"/>
<path d="M366.2 319.329L358.4 318.656L357.34 304.129L366.88 303.684L366.2 319.329Z" fill="#FF8B7B"/>
<path opacity="0.2" d="M357.369 303.856L357.909 312.074L366.539 311.529L367.119 303.602L357.369 303.856Z" fill="#00451A"/>
<path d="M356.829 316.579L367.019 315.952C367.202 315.947 367.383 315.994 367.535 316.087C367.688 316.18 367.804 316.314 367.869 316.47L370.629 323.661C370.699 323.83 370.724 324.012 370.701 324.191C370.678 324.371 370.609 324.543 370.498 324.693C370.388 324.843 370.24 324.967 370.066 325.055C369.892 325.142 369.698 325.191 369.499 325.197C365.919 325.361 364.209 325.279 359.689 325.561C356.929 325.733 349.829 326.424 346.019 326.661C342.209 326.897 341.249 323.515 342.779 323.106C349.579 321.288 353.419 319.133 355.419 317.179C355.598 316.998 355.815 316.852 356.057 316.749C356.299 316.646 356.562 316.588 356.829 316.579Z" fill="#263238"/>
<path d="M355.706 317.923C355.748 317.912 355.784 317.89 355.809 317.858C355.835 317.827 355.848 317.789 355.846 317.75C355.847 317.712 355.835 317.676 355.811 317.645C355.788 317.614 355.755 317.59 355.716 317.577C354.986 317.35 351.366 316.259 350.506 316.913C350.423 316.976 350.361 317.059 350.327 317.152C350.294 317.245 350.29 317.346 350.316 317.441C350.342 317.613 350.411 317.777 350.519 317.921C350.626 318.065 350.769 318.183 350.936 318.268C351.558 318.54 352.257 318.629 352.936 318.523C353.881 318.415 354.81 318.214 355.706 317.923ZM351.156 317.077C352.46 317.121 353.749 317.348 354.976 317.75C353.196 318.241 351.786 318.323 351.146 317.968C351.028 317.91 350.927 317.827 350.852 317.725C350.778 317.624 350.731 317.508 350.716 317.386C350.706 317.354 350.706 317.319 350.716 317.287C350.727 317.255 350.748 317.226 350.776 317.204C350.888 317.133 351.02 317.092 351.156 317.086V317.077Z" fill="#240076"/>
<path d="M355.799 317.895C355.815 317.867 355.824 317.835 355.824 317.804C355.824 317.772 355.815 317.741 355.799 317.713C355.799 317.567 354.489 314.322 352.509 314.731C351.989 314.831 351.849 315.085 351.879 315.276C351.879 316.185 354.349 317.631 355.549 317.94H355.629C355.689 317.941 355.749 317.925 355.799 317.895ZM352.799 315.049C354.049 314.931 354.959 316.667 355.319 317.404C354.079 316.958 352.319 315.785 352.319 315.276C352.319 315.176 352.419 315.085 352.639 315.067H352.769L352.799 315.049Z" fill="#240076"/>
<path d="M369.546 309.057L354.946 309.711L353.326 303.848L370.286 302.848L369.546 309.057Z" fill="#240076"/>
<path d="M184.083 318.777L176.723 317.25L180.353 302.377L190.163 305.459L184.083 318.777Z" fill="#FFC3BD"/>
<path opacity="0.2" d="M192.431 300.295L181.701 296.449L179.361 306.44L188.451 309.04L192.431 300.295Z" fill="#00451A"/>
<path d="M214.603 318.775L207.133 317.821L210.203 300.248L220.263 302.566L214.603 318.775Z" fill="#FFC3BD"/>
<path opacity="0.2" d="M222.032 297.24L210.982 294.24L209.262 305.449L218.752 306.977L222.032 297.24Z" fill="#00451A"/>
<path d="M259.108 218.822C259.108 218.822 216.558 223.313 214.648 239.304C212.748 260.149 213.858 254.249 208.648 302.422L221.258 303.058C221.258 303.058 234.088 263.658 232.358 248.004C246.488 248.004 278.838 249.131 283.538 237.54C285.87 231.654 287.006 225.432 286.888 219.177L259.108 218.822Z" fill="#240076"/>
<g opacity="0.2">
<path d="M259.11 218.822C259.11 218.822 216.56 223.313 214.65 239.304C212.75 260.149 213.86 254.249 208.65 302.422L221.26 303.058C221.26 303.058 234.09 263.658 232.36 248.004C246.49 248.004 278.84 249.131 283.54 237.54C285.872 231.654 287.008 225.432 286.89 219.177L259.11 218.822Z" fill="#00451A"/>
</g>
<path d="M221.563 305.002L207.133 302.756L207.633 296.447L224.133 299.529L221.563 305.002Z" fill="#263238"/>
<path d="M207.32 314.452L215.74 315.961C215.894 315.996 216.028 316.081 216.117 316.2C216.205 316.319 216.242 316.464 216.22 316.606L215.52 323.879C215.509 324.051 215.46 324.218 215.375 324.372C215.291 324.526 215.174 324.662 215.03 324.773C214.886 324.885 214.719 324.968 214.538 325.019C214.358 325.07 214.168 325.088 213.98 325.07C211.06 324.497 209.68 324.061 205.98 323.397C203.7 322.988 198.49 321.988 195.32 321.67C192.15 321.352 192.53 317.979 193.9 317.806C200.06 317.061 203.56 316.161 205.9 314.752C206.102 314.617 206.332 314.521 206.576 314.469C206.82 314.418 207.073 314.412 207.32 314.452Z" fill="#263238"/>
<path d="M203.541 315.761C204.204 315.843 204.875 315.861 205.541 315.816C205.575 315.817 205.608 315.808 205.636 315.79C205.663 315.771 205.682 315.745 205.691 315.716C205.706 315.689 205.714 315.659 205.714 315.629C205.714 315.599 205.706 315.57 205.691 315.543C205.481 315.352 203.591 313.725 202.621 313.907C202.509 313.923 202.404 313.968 202.317 314.035C202.231 314.102 202.167 314.19 202.131 314.289C202.053 314.431 202.017 314.591 202.027 314.75C202.038 314.91 202.094 315.064 202.191 315.198C202.545 315.536 203.029 315.738 203.541 315.761ZM205.151 315.516C203.761 315.516 202.781 315.37 202.491 314.998C202.432 314.91 202.401 314.809 202.401 314.707C202.401 314.604 202.432 314.503 202.491 314.416C202.507 314.367 202.537 314.323 202.577 314.288C202.618 314.253 202.667 314.228 202.721 314.216C203.231 314.116 204.371 314.879 205.151 315.516Z" fill="#240076"/>
<path d="M205.551 315.842H205.631C205.66 315.832 205.685 315.816 205.706 315.795C205.727 315.775 205.742 315.75 205.751 315.723C205.751 315.642 206.301 313.705 205.661 312.932C205.583 312.829 205.479 312.744 205.357 312.686C205.235 312.627 205.099 312.596 204.961 312.596C204.811 312.576 204.658 312.603 204.528 312.673C204.397 312.742 204.296 312.85 204.241 312.978C203.931 313.696 204.791 315.287 205.461 315.805C205.472 315.817 205.486 315.827 205.501 315.833C205.517 315.839 205.534 315.842 205.551 315.842ZM205.031 312.923C205.101 312.933 205.169 312.955 205.229 312.99C205.29 313.024 205.341 313.07 205.381 313.123C205.669 313.842 205.7 314.624 205.471 315.36C204.862 314.738 204.54 313.928 204.571 313.096C204.571 313.005 204.681 312.905 204.941 312.914L205.031 312.923Z" fill="#240076"/>
<path d="M244.192 218.822C243.862 218.822 187.992 224.05 187.922 241.277C185.772 254.004 178.852 302.422 178.852 302.422L190.662 305.931C190.662 305.931 209.122 271.995 208.832 249.786C224.202 245.777 263.962 252.513 268.662 240.931C272.512 231.459 270.432 218.822 270.432 218.822H244.192Z" fill="#240076"/>
<path d="M191.349 307.178L177.369 303.005L178.559 297.496L194.169 302.332L191.349 307.178Z" fill="#263238"/>
<path d="M177.211 313.616L185.651 315.216C185.809 315.262 185.943 315.358 186.03 315.486C186.116 315.615 186.149 315.767 186.121 315.916L185.461 323.879C185.341 324.788 184.661 325.334 183.931 325.197C181.011 324.588 179.631 324.116 175.931 323.379C173.651 322.952 167.441 321.561 164.311 320.843C161.181 320.125 161.881 316.47 163.311 316.452C169.501 316.37 173.511 315.443 175.891 313.879C176.079 313.755 176.294 313.667 176.521 313.622C176.748 313.576 176.983 313.574 177.211 313.616Z" fill="#263238"/>
<path d="M173.74 315.333C174.327 315.042 174.88 314.698 175.39 314.306C175.416 314.284 175.435 314.257 175.446 314.226C175.456 314.196 175.458 314.164 175.45 314.133C175.439 314.104 175.419 314.078 175.393 314.059C175.366 314.039 175.334 314.027 175.3 314.024C175.01 313.978 172.43 313.678 171.76 314.351C171.687 314.429 171.637 314.522 171.612 314.622C171.588 314.721 171.591 314.825 171.62 314.924C171.648 315.083 171.722 315.232 171.835 315.357C171.947 315.482 172.094 315.577 172.26 315.633C172.778 315.704 173.305 315.597 173.74 315.333ZM174.87 314.269C173.78 315.051 172.87 315.424 172.4 315.287C172.295 315.247 172.203 315.183 172.134 315.099C172.066 315.016 172.023 314.918 172.01 314.815C171.994 314.766 171.992 314.715 172.004 314.665C172.016 314.616 172.043 314.57 172.08 314.533C172.43 314.215 173.83 314.187 174.87 314.269Z" fill="#240076"/>
<path d="M175.39 314.303L175.46 314.249C175.475 314.227 175.483 314.202 175.483 314.176C175.483 314.15 175.475 314.125 175.46 314.103C175.46 314.04 174.58 312.176 173.57 311.894C173.44 311.854 173.301 311.844 173.165 311.863C173.03 311.882 172.901 311.93 172.79 312.003C172.656 312.069 172.55 312.173 172.49 312.301C172.43 312.428 172.419 312.57 172.46 312.703C172.67 313.449 174.4 314.267 175.29 314.321L175.39 314.303ZM173.06 312.203C173.126 312.177 173.198 312.163 173.27 312.163C173.342 312.163 173.414 312.177 173.48 312.203C174.184 312.626 174.723 313.24 175.02 313.958C174.123 313.785 173.332 313.307 172.81 312.621C172.75 312.549 172.81 312.403 172.99 312.276L173.06 312.203Z" fill="#240076"/>
<path d="M273.122 170.434C274.977 178.598 275.703 186.942 275.282 195.27C275.219 196.728 274.676 198.136 273.722 199.31C272.768 200.484 271.447 201.369 269.932 201.852C259.242 205.188 231.552 206.452 222.592 205.424L226.222 201.943C226.222 201.943 264.222 195.197 263.312 192.497C263.312 192.497 261.512 175.224 260.312 172.697L273.122 170.434Z" fill="#FFC3BD"/>
<path d="M227.003 202.013L220.563 198.186L213.893 202.295C213.893 202.295 218.973 206.267 223.763 205.249L227.003 202.013Z" fill="#FFC3BD"/>
<path d="M214.683 199.522L211.173 201.986C211.114 202.029 211.07 202.088 211.047 202.155C211.024 202.221 211.023 202.293 211.045 202.359C211.066 202.426 211.109 202.486 211.167 202.531C211.226 202.576 211.297 202.605 211.373 202.613L215.513 202.967L220.513 198.186L214.683 199.522Z" fill="#FFC3BD"/>
<path d="M244.001 165.788C244.755 165.947 245.466 166.241 246.092 166.652C246.719 167.064 247.249 167.585 247.652 168.186C248.054 168.786 248.321 169.453 248.436 170.148C248.551 170.843 248.512 171.553 248.321 172.234C247.981 173.47 237.131 196.525 236.601 197.297C233.021 205.261 226.681 204.734 218.011 205.006C211.131 204.934 206.011 205.461 199.271 204.097L200.921 200.825C205.671 200.643 215.741 197.47 221.651 195.961C222.775 195.719 223.828 195.26 224.738 194.613C225.647 193.967 226.392 193.149 226.921 192.216C229.711 186.761 236.141 172.861 237.061 169.579C237.44 168.244 238.378 167.096 239.674 166.381C240.971 165.666 242.524 165.44 244.001 165.752V165.788Z" fill="#FFC3BD"/>
<path d="M201.23 200.868L195.71 198.668L191.08 203.559C191.08 203.559 198.49 205.704 199.78 203.65L201.23 200.868Z" fill="#FFC3BD"/>
<path d="M189.002 202.777L187.642 203.941C187.566 204.011 187.518 204.102 187.507 204.2C187.495 204.298 187.52 204.397 187.578 204.48C187.636 204.563 187.723 204.626 187.826 204.659C187.928 204.691 188.039 204.691 188.142 204.659L191.142 203.559L195.772 198.668L190.892 201.468C190.217 201.848 189.584 202.286 189.002 202.777Z" fill="#FFC3BD"/>
<path d="M249.83 137.467L255.6 140.73L264.16 144.985C264.186 146.954 264.363 148.92 264.69 150.867C265.38 153.339 266.35 155.33 271.15 155.785C271.15 155.785 277.4 159.803 266.33 161.33C255.26 162.858 251.97 158.33 251.97 158.33C255.61 154.021 252.12 142.967 249.83 137.467Z" fill="#FFC3BD"/>
<path d="M269.822 126.848C270.022 127.448 270.532 127.866 270.972 127.757C271.412 127.648 271.612 127.075 271.412 126.475C271.212 125.875 270.692 125.466 270.252 125.566C269.812 125.666 269.622 126.248 269.822 126.848Z" fill="#263238"/>
<path d="M266.78 125.478C266.847 125.469 266.91 125.443 266.961 125.403C267.013 125.362 267.051 125.31 267.07 125.251C267.252 124.807 267.543 124.407 267.921 124.081C268.299 123.755 268.753 123.511 269.25 123.369C269.303 123.358 269.353 123.338 269.397 123.31C269.441 123.282 269.478 123.246 269.507 123.205C269.536 123.163 269.555 123.117 269.564 123.069C269.574 123.021 269.572 122.971 269.56 122.924C269.549 122.876 269.527 122.831 269.496 122.791C269.465 122.751 269.425 122.717 269.38 122.691C269.334 122.664 269.283 122.647 269.23 122.638C269.177 122.63 269.123 122.631 269.07 122.642C268.442 122.812 267.865 123.112 267.386 123.519C266.907 123.926 266.539 124.429 266.31 124.987C266.274 125.079 266.277 125.18 266.32 125.27C266.363 125.36 266.442 125.431 266.54 125.469C266.618 125.49 266.701 125.493 266.78 125.478Z" fill="#263238"/>
<path d="M270.289 127.469C271.39 128.952 272.701 130.297 274.189 131.469C273.85 131.795 273.436 132.05 272.976 132.215C272.516 132.38 272.022 132.451 271.529 132.423L270.289 127.469Z" fill="#ED847E"/>
<path d="M246.732 130.461C249.662 137.734 250.992 142.216 256.402 145.007C258.744 146.266 261.512 146.699 264.182 146.225C265.747 145.942 267.229 145.363 268.532 144.525C270.075 143.512 271.308 142.158 272.114 140.591C272.921 139.024 273.275 137.296 273.142 135.57C272.742 128.443 268.002 117.661 259.002 116.616C257.043 116.332 255.036 116.524 253.185 117.172C251.334 117.821 249.704 118.903 248.461 120.309C247.219 121.715 246.407 123.394 246.108 125.177C245.81 126.96 246.036 128.783 246.762 130.461H246.732Z" fill="#FFC3BD"/>
<path opacity="0.2" d="M264.178 146.204C265.743 145.921 267.225 145.342 268.528 144.504C268.308 144.577 265.528 145.495 264.078 144.822L264.178 146.204Z" fill="#00451A"/>
<path d="M242.862 136.524C245.747 140.399 249.154 143.933 253.002 147.042C255.822 146.269 258.282 145.833 261.162 145.223C262.282 142.278 262.522 133.051 263.592 131.478C264.662 129.905 266.842 127.842 267.782 126.224C268.378 125.081 268.636 123.817 268.531 122.556C268.426 121.295 267.961 120.08 267.182 119.033C265.555 116.956 263.107 115.533 260.352 115.06C257.981 114.63 255.533 114.709 253.202 115.29C250.871 115.87 248.72 116.937 246.922 118.405C245.361 119.55 244.298 121.16 243.922 122.951C240.002 125.342 238.862 131.005 242.862 136.524Z" fill="#263238"/>
<path d="M243.469 119.213C243.293 120.46 243.406 121.726 243.799 122.931C243.318 122.798 242.892 122.536 242.578 122.179C242.264 121.822 242.076 121.387 242.039 120.931C241.999 120.022 242.549 119.577 243.469 119.213Z" fill="#263238"/>
<path d="M261.001 132.08C261.918 133.832 263.428 135.272 265.311 136.189C267.661 137.252 268.661 135.279 267.861 132.843C267.121 130.68 265.051 127.498 262.721 127.461C260.391 127.425 259.821 129.834 261.001 132.08Z" fill="#FFC3BD"/>
<path d="M283.78 158.058C283.03 156.24 279.29 154.085 275.78 154.422H273.45C271.409 154.451 269.374 154.618 267.36 154.922C261.643 155.491 255.967 156.359 250.36 157.522C247.78 158.14 245.29 158.922 243.36 159.594C241.36 159.058 243.17 174.922 243.55 194.422C243.73 203.685 244.01 212.84 244.27 219.149H286.93C286.93 219.149 286.35 207.431 286.47 193.74C286.52 185.522 286.87 165.54 283.78 158.058Z" fill="#263238"/>
<path opacity="0.2" d="M242.602 185.149C242.922 188.631 243.252 192.285 243.602 195.94C248.012 182.813 250.832 169.631 250.832 169.631L242.602 185.149Z" fill="#00451A"/>
<path d="M239.342 161.113C233.852 165.077 228.422 184.476 228.422 184.476L241.502 190.786C245.982 185.486 253.042 173.758 253.092 169.14C253.232 162.04 246.332 156.813 239.342 161.113Z" fill="#263238"/>
<path d="M228.85 324.321C228.854 325.104 228.603 325.87 228.127 326.523C227.651 327.176 226.973 327.685 226.179 327.988C225.384 328.29 224.509 328.371 223.664 328.22C222.819 328.07 222.042 327.694 221.432 327.142C220.821 326.59 220.405 325.885 220.235 325.118C220.066 324.35 220.151 323.554 220.48 322.83C220.808 322.107 221.366 321.488 222.082 321.053C222.797 320.617 223.639 320.385 224.5 320.385C225.072 320.384 225.638 320.485 226.167 320.683C226.695 320.882 227.175 321.173 227.579 321.54C227.983 321.908 228.304 322.344 228.522 322.825C228.74 323.305 228.852 323.82 228.85 324.339V324.321Z" fill="#263238"/>
<path d="M293.744 324.322C293.744 325.104 293.999 325.868 294.477 326.519C294.955 327.169 295.635 327.676 296.429 327.975C297.224 328.275 298.099 328.353 298.943 328.2C299.787 328.048 300.562 327.671 301.17 327.118C301.778 326.565 302.193 325.86 302.361 325.093C302.528 324.326 302.442 323.531 302.113 322.808C301.784 322.086 301.226 321.468 300.511 321.034C299.796 320.599 298.954 320.367 298.094 320.367C296.94 320.367 295.834 320.784 295.018 321.525C294.202 322.267 293.744 323.273 293.744 324.322Z" fill="#263238"/>
<path d="M257.061 323.06C257.061 323.842 257.316 324.607 257.794 325.257C258.272 325.907 258.951 326.414 259.746 326.713C260.541 327.013 261.415 327.091 262.259 326.939C263.103 326.786 263.878 326.409 264.486 325.856C265.095 325.303 265.509 324.599 265.677 323.831C265.845 323.064 265.759 322.269 265.429 321.547C265.1 320.824 264.543 320.206 263.827 319.772C263.112 319.337 262.271 319.105 261.411 319.105C260.257 319.105 259.15 319.522 258.335 320.264C257.519 321.005 257.061 322.011 257.061 323.06Z" fill="#263238"/>
<path d="M303.871 318.106C303.798 318.539 303.556 318.934 303.189 319.218C302.821 319.502 302.353 319.656 301.871 319.651L260.201 319.088L221.201 319.997C220.718 320.002 220.25 319.848 219.883 319.564C219.515 319.28 219.273 318.885 219.201 318.451C219.09 317.969 219.187 317.466 219.472 317.047C219.757 316.628 220.207 316.323 220.731 316.197L242.041 312.097C244.246 311.688 246.49 311.481 248.741 311.479H271.641C273.888 311.479 276.129 311.686 278.331 312.097L302.331 315.888C302.849 316.01 303.297 316.308 303.583 316.72C303.869 317.132 303.972 317.627 303.871 318.106Z" fill="#263238"/>
<path d="M268.971 276.439H253.541V311.448H268.971V276.439Z" fill="#263238"/>
<path d="M266.762 260.15H255.762V276.432H266.762V260.15Z" fill="#240076"/>
<path opacity="0.2" d="M266.762 260.15H255.762V276.432H266.762V260.15Z" fill="#00451A"/>
<path opacity="0.5" d="M266.762 260.15H255.762V276.432H266.762V260.15Z" fill="#00451A"/>
<path opacity="0.5" d="M255.762 264.932L266.762 267.45V260.15H255.762V264.932Z" fill="#00451A"/>
<path d="M224.1 223.314H218.51V244.996H224.1V223.314Z" fill="#240076"/>
<path opacity="0.5" d="M224.1 223.314H218.51V244.996H224.1V223.314Z" fill="#00451A"/>
<path d="M252.133 260.15V172.041C252.132 170.276 252.547 168.532 253.349 166.924C254.151 165.317 255.322 163.885 256.783 162.723L264.173 156.841C266.664 154.86 269.863 153.771 273.173 153.777H286.763L299.763 166.395V260.15H252.133Z" fill="#240076"/>
<path d="M212.382 241.914H273.282V260.15H202.462C201.192 260.148 199.945 259.842 198.847 259.261C197.749 258.68 196.84 257.846 196.211 256.843C195.582 255.84 195.255 254.704 195.264 253.55C195.273 252.395 195.617 251.263 196.262 250.269C197.918 247.722 200.276 245.613 203.103 244.148C205.93 242.683 209.128 241.913 212.382 241.914Z" fill="#240076"/>
<path opacity="0.7" d="M299.782 166.405V260.159H202.462C201.192 260.158 199.945 259.851 198.847 259.27C197.749 258.689 196.84 257.855 196.211 256.852C195.582 255.849 195.255 254.713 195.264 253.559C195.273 252.404 195.617 251.272 196.262 250.278C197.915 247.735 200.268 245.627 203.089 244.162C205.91 242.698 209.103 241.926 212.352 241.923H243.002C245.418 241.923 247.735 241.051 249.443 239.497C251.152 237.944 252.112 235.838 252.112 233.641V172.042C252.11 170.278 252.525 168.535 253.327 166.929C254.129 165.323 255.3 163.892 256.762 162.733L264.152 156.851C266.641 154.866 269.841 153.777 273.152 153.787H286.742L299.782 166.405Z" fill="white"/>
<path d="M261.002 260.15V172.041C261.003 170.276 261.419 168.532 262.22 166.926C263.022 165.319 264.192 163.886 265.652 162.723L273.042 156.841C275.533 154.86 278.732 153.771 282.042 153.777H289.742C291.602 153.777 293.443 154.123 295.151 154.794C296.859 155.464 298.397 156.446 299.672 157.677L304.982 162.823C307.36 165.118 308.683 168.152 308.682 171.305V250.713C308.682 251.952 308.413 253.18 307.892 254.324C307.37 255.469 306.606 256.51 305.642 257.386C304.678 258.262 303.534 258.957 302.274 259.431C301.015 259.906 299.665 260.15 298.302 260.15H261.002Z" fill="#240076"/>
<path opacity="0.5" d="M261.002 260.15V172.041C261.003 170.276 261.419 168.532 262.22 166.926C263.022 165.319 264.192 163.886 265.652 162.723L273.042 156.841C275.533 154.86 278.732 153.771 282.042 153.777H289.742C291.602 153.777 293.443 154.123 295.151 154.794C296.859 155.464 298.397 156.446 299.672 157.677L304.982 162.823C307.36 165.118 308.683 168.152 308.682 171.305V250.713C308.682 251.952 308.413 253.18 307.892 254.324C307.37 255.469 306.606 256.51 305.642 257.386C304.678 258.262 303.534 258.957 302.274 259.431C301.015 259.906 299.665 260.15 298.302 260.15H261.002Z" fill="white"/>
<path d="M240.291 229.751C227.988 225.852 214.595 225.852 202.291 229.751C201.057 230.176 199.695 230.175 198.462 229.748C197.229 229.321 196.211 228.497 195.601 227.433C194.461 225.242 195.991 222.406 199.091 221.415C213.459 216.851 229.104 216.851 243.471 221.415C246.571 222.397 248.101 225.242 246.961 227.433C246.35 228.492 245.336 229.311 244.108 229.738C242.88 230.164 241.523 230.169 240.291 229.751Z" fill="#240076"/>
<path opacity="0.7" d="M240.291 229.751C227.988 225.852 214.595 225.852 202.291 229.751C201.057 230.176 199.695 230.175 198.462 229.748C197.229 229.321 196.211 228.497 195.601 227.433C194.461 225.242 195.991 222.406 199.091 221.415C213.459 216.851 229.104 216.851 243.471 221.415C246.571 222.397 248.101 225.242 246.961 227.433C246.35 228.492 245.336 229.311 244.108 229.738C242.88 230.164 241.523 230.169 240.291 229.751Z" fill="white"/>
<path d="M311 61.2104L338.5 60.9559C339.479 60.956 340.419 60.6062 341.117 59.9821C341.814 59.3579 342.214 58.5094 342.23 57.6195V31.9742C342.25 31.8141 342.25 31.6525 342.23 31.4924C342.093 30.6985 341.645 29.9763 340.969 29.4585C340.293 28.9408 339.434 28.6623 338.55 28.6742L277.26 29.0106C276.28 29.0105 275.34 29.3618 274.644 29.9882C273.947 30.6145 273.551 31.4654 273.54 32.356V57.9922C273.52 58.1524 273.52 58.314 273.54 58.4741C273.677 59.268 274.125 59.9901 274.801 60.5079C275.477 61.0256 276.336 61.3042 277.22 61.2922H302.1L307.03 75.3285L311 61.2104Z" fill="white"/>
<path d="M307.12 76.9381L301.77 61.7109H277.26C276.705 61.7378 276.15 61.6593 275.631 61.4805C275.111 61.3017 274.638 61.0265 274.242 60.6725C273.846 60.3184 273.536 59.8932 273.33 59.424C273.125 58.9549 273.029 58.4519 273.05 57.9473V32.3201C273.068 31.3143 273.517 30.3546 274.301 29.645C275.085 28.9354 276.143 28.5318 277.25 28.5201L338.56 28.1838C339.564 28.1746 340.538 28.4935 341.305 29.0825C342.072 29.6715 342.581 30.4914 342.74 31.3929C342.759 31.5773 342.759 31.763 342.74 31.9474V57.5837C342.719 58.5894 342.267 59.5482 341.481 60.2561C340.695 60.964 339.636 61.3653 338.53 61.3745L311.4 61.62L307.12 76.9381ZM302.5 60.8018L307 73.6472L310.63 60.7564L338.52 60.5018C339.369 60.5019 340.185 60.1975 340.789 59.6547C341.394 59.1119 341.739 58.3743 341.75 57.6018V31.9747C341.765 31.8356 341.765 31.6956 341.75 31.5565C341.63 30.8734 341.243 30.2523 340.661 29.8067C340.079 29.361 339.34 29.1206 338.58 29.1292L277.31 29.4747C276.461 29.4747 275.646 29.7793 275.043 30.3224C274.44 30.8655 274.097 31.6031 274.09 32.3747V58.0018C274.069 58.1406 274.069 58.2812 274.09 58.42C274.207 59.1024 274.592 59.7233 275.172 60.1691C275.752 60.6149 276.49 60.8556 277.25 60.8473L302.5 60.8018Z" fill="#240076"/>
<path d="M314.301 34.1582H286.641V35.0673H314.301V34.1582Z" fill="#240076"/>
<path d="M337.438 34.1582H320.748V35.0673H337.438V34.1582Z" fill="#240076"/>
<path d="M294.451 40.8672H279.301V41.7763H294.451V40.8672Z" fill="#240076"/>
<path d="M336.4 40.8672H299.85V41.7763H336.4V40.8672Z" fill="#240076"/>
<path d="M317.723 47.5762H279.223V48.4853H317.723V47.5762Z" fill="#240076"/>
<path d="M336.32 47.5762H323.74V48.4853H336.32V47.5762Z" fill="#240076"/>
<path d="M289.379 54.2832H279.379V55.1923H289.379V54.2832Z" fill="#240076"/>
<path d="M347.869 65.3211L389.719 64.9847C390.602 64.9731 391.46 65.2519 392.134 65.7698C392.808 66.2877 393.254 67.0098 393.389 67.8029C393.404 67.9632 393.404 68.1244 393.389 68.2847L393.339 93.921C393.326 94.8108 392.929 95.6603 392.233 96.2862C391.537 96.912 390.598 97.2641 389.619 97.2664L363.099 97.5209C357.409 104.93 347.999 106.103 347.999 106.103C347.999 106.103 353.309 101.203 354.279 97.5664H347.859C346.976 97.5764 346.118 97.2972 345.442 96.7798C344.767 96.2624 344.318 95.5413 344.179 94.7482C344.169 94.5877 344.169 94.4269 344.179 94.2664V68.6302C344.202 67.7514 344.6 66.9151 345.289 66.2978C345.977 65.6804 346.902 65.3303 347.869 65.3211Z" fill="white"/>
<path d="M346.569 106.748L347.569 105.793C347.619 105.748 352.249 101.438 353.569 98.0385H347.819C346.816 98.0493 345.842 97.7307 345.076 97.1413C344.31 96.5518 343.803 95.731 343.649 94.8294C343.63 94.645 343.63 94.4593 343.649 94.2749V68.6477C343.668 67.6419 344.117 66.6822 344.901 65.9726C345.685 65.263 346.743 64.8594 347.849 64.8477L389.699 64.5114C390.251 64.4967 390.801 64.5834 391.315 64.7664C391.829 64.9494 392.297 65.2249 392.691 65.5764C393.085 65.9278 393.397 66.348 393.608 66.8117C393.819 67.2754 393.925 67.7731 393.919 68.275L393.869 93.9112C393.849 94.917 393.397 95.8758 392.611 96.5837C391.825 97.2916 390.766 97.6928 389.659 97.7021L363.389 97.9476C359.638 102.478 354.14 105.55 347.999 106.548L346.569 106.748ZM354.869 97.1203L354.719 97.6839C353.999 100.411 351.049 103.693 349.409 105.357C354.744 104.139 359.45 101.28 362.729 97.2658L362.879 97.0749L389.649 96.8203C390.071 96.8227 390.489 96.7496 390.879 96.6052C391.27 96.4607 391.625 96.2478 391.925 95.9785C392.225 95.7092 392.464 95.3888 392.627 95.0357C392.791 94.6825 392.877 94.3035 392.879 93.9203L392.929 68.2932C392.94 68.1539 392.94 68.0142 392.929 67.875C392.814 67.1918 392.43 66.5698 391.849 66.1237C391.268 65.6776 390.53 65.4375 389.769 65.4477L347.909 65.7841C347.059 65.7817 346.242 66.0853 345.637 66.6286C345.031 67.1719 344.687 67.9109 344.679 68.6841V94.3112C344.669 94.4505 344.669 94.5902 344.679 94.7294C344.799 95.411 345.184 96.0308 345.764 96.4762C346.344 96.9217 347.08 97.1631 347.839 97.1567L354.869 97.1203Z" fill="#240076"/>
<path d="M365.009 77.1758H349.859V78.0849H365.009V77.1758Z" fill="#240076"/>
<path d="M382.24 70.4688H354.58V71.3778H382.24V70.4688Z" fill="#240076"/>
<path d="M387.169 77.1758H367.789V78.0849H387.169V77.1758Z" fill="#240076"/>
<path d="M385.662 83.8828H347.162V84.7919H385.662V83.8828Z" fill="#240076"/>
<path d="M357.32 90.5938H347.32V91.5028H357.32V90.5938Z" fill="#240076"/>
<path d="M259.867 93.6031L257.447 100.694L254.267 93.4758C250.348 92.7499 246.869 90.7157 244.518 87.774C242.166 84.8323 241.112 81.1966 241.563 77.5833C242.014 73.9701 243.937 70.6415 246.954 68.2535C249.971 65.8655 253.862 64.5914 257.861 64.6823C261.86 64.7732 265.676 66.2224 268.558 68.7445C271.439 71.2665 273.177 74.6784 273.429 78.3076C273.681 81.9368 272.428 85.5201 269.918 88.3513C267.408 91.1825 263.822 93.0562 259.867 93.6031Z" fill="white"/>
<path d="M257.508 102.05L253.908 93.8683C249.898 93.0654 246.361 90.9341 243.986 87.8897C241.611 84.8453 240.568 81.1059 241.061 77.4005C241.553 73.6951 243.546 70.2891 246.65 67.8465C249.754 65.4038 253.748 64.0995 257.852 64.1878C261.957 64.2761 265.878 65.7506 268.852 68.324C271.825 70.8974 273.638 74.3852 273.938 78.1076C274.237 81.8301 273 85.5204 270.469 88.4593C267.939 91.3982 264.295 93.3751 260.248 94.0046L257.508 102.05ZM257.448 65.0775C253.598 65.0792 249.887 66.3806 247.033 68.7292C244.179 71.0779 242.386 74.3064 242.003 77.7885C241.619 81.2707 242.672 84.7583 244.956 87.5749C247.241 90.3914 250.595 92.3362 254.368 93.0319L254.638 93.0774L257.388 99.3319L259.478 93.1956L259.788 93.1501C263.655 92.6101 267.156 90.763 269.59 87.9781C272.024 85.1931 273.212 81.6756 272.916 78.1288C272.62 74.5821 270.863 71.2674 267.995 68.8477C265.127 66.428 261.361 65.0815 257.448 65.0775Z" fill="#240076"/>
<path d="M259.1 76.9766C259.19 76.0675 258.32 75.5312 257.05 75.5312C256.4 75.5325 255.761 75.6822 255.191 75.9666C254.621 76.2509 254.14 76.6607 253.79 77.1584L250.27 75.3403C251.78 73.3312 254.27 72.0039 257.96 72.0039C261.79 72.0039 264.37 73.4857 264.11 76.2403C263.77 79.7675 259.65 80.2857 259.45 82.3584H255C255.31 79.413 258.94 78.6675 259.1 76.9766ZM254.1 85.9584C254.178 85.2955 254.532 84.6849 255.09 84.2521C255.648 83.8193 256.367 83.5971 257.1 83.6311C257.447 83.5976 257.797 83.6344 258.127 83.7389C258.456 83.8435 258.756 84.0132 259.005 84.2358C259.254 84.4584 259.445 84.7283 259.565 85.0262C259.685 85.324 259.731 85.6424 259.7 85.9584C259.614 86.63 259.252 87.2473 258.686 87.6859C258.12 88.1245 257.392 88.3518 256.65 88.322C256.303 88.3474 255.954 88.3034 255.628 88.193C255.302 88.0827 255.007 87.9087 254.763 87.6834C254.519 87.458 254.332 87.1868 254.216 86.8888C254.099 86.5907 254.056 86.2732 254.09 85.9584H254.1Z" fill="#240076"/>
<path d="M234.609 114.813C235.509 114.813 236.239 114.15 236.239 113.331C236.239 112.513 235.509 111.85 234.609 111.85C233.708 111.85 232.979 112.513 232.979 113.331C232.979 114.15 233.708 114.813 234.609 114.813Z" fill="white"/>
<path d="M234.607 115.274C234.184 115.274 233.77 115.16 233.418 114.946C233.066 114.732 232.792 114.428 232.63 114.073C232.468 113.717 232.425 113.326 232.508 112.949C232.59 112.571 232.794 112.225 233.094 111.953C233.393 111.681 233.774 111.495 234.189 111.42C234.604 111.345 235.035 111.384 235.426 111.531C235.817 111.678 236.151 111.928 236.386 112.247C236.621 112.567 236.747 112.943 236.747 113.328C236.747 113.844 236.521 114.339 236.12 114.704C235.719 115.069 235.174 115.274 234.607 115.274ZM234.607 112.301C234.381 112.301 234.16 112.362 233.972 112.476C233.785 112.591 233.639 112.753 233.553 112.943C233.467 113.133 233.445 113.342 233.489 113.543C233.534 113.744 233.644 113.929 233.804 114.073C233.965 114.218 234.169 114.316 234.391 114.355C234.612 114.394 234.842 114.372 235.05 114.292C235.258 114.212 235.435 114.078 235.56 113.906C235.684 113.735 235.749 113.534 235.747 113.328C235.744 113.055 235.623 112.794 235.409 112.601C235.196 112.409 234.907 112.301 234.607 112.301Z" fill="#240076"/>
<path d="M231.497 107.704C231.711 107.996 231.854 108.326 231.917 108.672C231.98 109.018 231.961 109.372 231.861 109.711C231.762 110.05 231.585 110.366 231.341 110.637C231.097 110.909 230.793 111.131 230.447 111.287C230.102 111.444 229.724 111.532 229.339 111.546C228.954 111.559 228.569 111.498 228.212 111.367C227.854 111.235 227.532 111.036 227.265 110.782C226.999 110.528 226.795 110.226 226.667 109.895C222.829 110.949 218.696 110.655 215.086 109.07C211.475 107.486 208.651 104.727 207.171 101.34C205.691 97.9532 205.664 94.1844 207.095 90.7799C208.526 87.3753 211.31 84.5832 214.897 82.956C218.485 81.3288 222.613 80.9852 226.466 81.9931C230.319 83.001 233.615 85.287 235.702 88.3987C237.789 91.5104 238.515 95.221 237.736 98.7961C236.958 102.371 234.731 105.55 231.497 107.704Z" fill="white"/>
<path d="M229.229 111.984C228.647 111.982 228.076 111.837 227.576 111.565C227.077 111.293 226.666 110.904 226.389 110.439C224.97 110.787 223.508 110.964 222.039 110.966C218.143 110.96 214.375 109.698 211.406 107.405C208.438 105.111 206.46 101.935 205.825 98.44C205.191 94.9454 205.94 91.3595 207.941 88.3201C209.941 85.2806 213.062 82.9848 216.75 81.8409C220.437 80.697 224.451 80.7793 228.078 82.073C231.705 83.3668 234.709 85.7881 236.557 88.9064C238.405 92.0247 238.976 95.6376 238.168 99.1027C237.361 102.568 235.228 105.66 232.149 107.83C232.344 108.215 232.446 108.633 232.449 109.057C232.446 109.833 232.106 110.576 231.503 111.124C230.899 111.673 230.082 111.982 229.229 111.984ZM226.999 109.33L227.159 109.739C227.271 110.001 227.443 110.24 227.663 110.438C227.883 110.637 228.146 110.791 228.435 110.892C228.725 110.992 229.034 111.037 229.344 111.022C229.653 111.007 229.956 110.934 230.232 110.806C230.509 110.679 230.753 110.5 230.948 110.281C231.144 110.063 231.287 109.81 231.369 109.538C231.451 109.266 231.469 108.982 231.422 108.703C231.376 108.425 231.266 108.158 231.099 107.921L230.839 107.566L231.219 107.312C234.359 105.225 236.522 102.143 237.282 98.676C238.041 95.2086 237.341 91.6083 235.32 88.5878C233.298 85.5673 230.103 83.3468 226.367 82.3658C222.63 81.3849 218.625 81.7149 215.144 83.2906C211.662 84.8663 208.958 87.5729 207.567 90.8746C206.176 94.1762 206.199 97.8323 207.632 101.119C209.065 104.406 211.803 107.084 215.305 108.623C218.806 110.162 222.815 110.45 226.539 109.43L226.999 109.33Z" fill="#240076"/>
<path d="M223.709 93.5137C223.799 92.6046 222.929 92.0683 221.659 92.0683C221.009 92.0696 220.37 92.2194 219.8 92.5037C219.231 92.788 218.749 93.1978 218.399 93.6955L214.879 91.8774C216.389 89.8683 218.879 88.541 222.569 88.541C226.399 88.541 228.979 90.0228 228.719 92.7774C228.379 96.3046 224.259 96.8228 224.059 98.8955H219.639C219.919 95.9501 223.549 95.2046 223.709 93.5137ZM218.709 102.496C218.787 101.833 219.142 101.222 219.7 100.789C220.257 100.356 220.976 100.134 221.709 100.168C222.056 100.135 222.407 100.172 222.736 100.276C223.066 100.381 223.366 100.55 223.614 100.773C223.863 100.995 224.054 101.265 224.174 101.563C224.294 101.861 224.34 102.18 224.309 102.496C224.224 103.167 223.862 103.784 223.296 104.223C222.73 104.662 222.002 104.889 221.259 104.859C220.912 104.884 220.564 104.84 220.238 104.73C219.912 104.62 219.616 104.446 219.372 104.22C219.128 103.995 218.941 103.724 218.825 103.426C218.709 103.128 218.666 102.81 218.699 102.496H218.709Z" fill="#240076"/>
</svg>
