<svg width="65" height="48" viewBox="0 0 65 48" fill="none" xmlns="http://www.w3.org/2000/svg">
<path d="M10.4128 43.1433C22.6123 49.5161 42.3902 49.5161 54.5897 43.1433C66.7893 36.7705 66.7878 26.4375 54.5897 20.0647C42.3916 13.692 22.6123 13.692 10.4128 20.0647C-1.78676 26.4375 -1.78531 36.7734 10.4128 43.1433Z" fill="#F5F5F5"/>
<path d="M54.8154 38.2163C54.1334 38.4959 53.3688 38.4959 52.6868 38.2163C52.1044 37.9353 52.1044 37.4883 52.6868 37.1971C53.3685 36.9161 54.1337 36.9161 54.8154 37.1971C55.4036 37.481 55.4036 37.9396 54.8154 38.2163Z" fill="#E0E0E0"/>
<path d="M8.11677 37.4068C8.81073 37.6922 9.58929 37.6922 10.2833 37.4068C10.8817 37.1156 10.8817 36.6584 10.2833 36.373C9.58898 36.0892 8.81104 36.0892 8.11677 36.373C7.51837 36.6584 7.51837 37.1214 8.11677 37.4068Z" fill="#E0E0E0"/>
<path d="M44.8448 34.1528C45.2088 34.1994 45.6296 34.0742 45.8116 33.8325C46.0256 33.5486 45.931 33.1045 46.0343 32.8672C46.1377 32.6299 46.4711 32.6677 46.6269 32.4668C46.7827 32.2659 46.541 31.7854 46.6269 31.5306C46.7128 31.2758 46.9603 31.0327 47.0724 30.858C47.1846 30.6833 47.0724 30.4212 46.6895 30.5537C46.3066 30.6862 46.1071 31.1448 45.7359 31.0676C45.3646 30.9905 45.0472 31.2132 45.0414 31.5816C45.0519 31.7256 45.0237 31.8699 44.9598 31.9994C44.8899 32.113 44.7036 32.1771 44.6191 32.3533L44.8448 34.1528Z" fill="#240076"/>
<path opacity="0.2" d="M44.8448 34.1528C45.2088 34.1994 45.6296 34.0742 45.8116 33.8325C46.0256 33.5486 45.931 33.1045 46.0343 32.8672C46.1377 32.6299 46.4711 32.6677 46.6269 32.4668C46.7827 32.2659 46.541 31.7854 46.6269 31.5306C46.7128 31.2758 46.9603 31.0327 47.0724 30.858C47.1846 30.6833 47.0724 30.4212 46.6895 30.5537C46.3066 30.6862 46.1071 31.1448 45.7359 31.0676C45.3646 30.9905 45.0472 31.2132 45.0414 31.5816C45.0519 31.7256 45.0237 31.8699 44.9598 31.9994C44.8899 32.113 44.7036 32.1771 44.6191 32.3533L44.8448 34.1528Z" fill="black"/>
<path d="M46.9027 30.6582C46.3684 30.9494 44.9182 32.615 44.7988 33.5003" stroke="white" stroke-width="0.035815" stroke-miterlimit="10" stroke-linecap="round"/>
<path d="M11.7988 29.7079L18.3041 25.9515V9.90234L11.7988 13.6587V29.7079Z" fill="#37474F"/>
<path d="M11.799 13.6576L4.70117 9.56055V25.6082L11.799 29.7068V13.6576Z" fill="#455A64"/>
<path d="M18.3043 9.90178L11.2079 5.80469L4.70117 9.56109L11.799 13.6582L18.3043 9.90178Z" fill="#37474F"/>
<path d="M7.35742 27.1469V24.4141L9.19631 25.4711V28.2025L7.35742 27.1469Z" fill="#E0E0E0"/>
<path d="M8.16016 24.875L8.33924 24.9784V27.7098L8.16016 27.6064V24.875Z" fill="#263238"/>
<path d="M11.0551 25.1773V23.6544L9.83789 22.9512V24.4741L11.0551 25.1773Z" fill="#E0E0E0"/>
<path d="M9.83789 24.4741L10.1422 24.2994V23.1273L9.83789 22.9512V24.4741Z" fill="#263238"/>
<path d="M11.0551 24.8278L10.1422 24.3008L9.83789 24.4755L11.0551 25.1787V24.8278Z" fill="#37474F"/>
<path d="M11.0551 28.0958V26.5729L9.83789 25.8711V27.394L11.0551 28.0958Z" fill="#E0E0E0"/>
<path d="M9.83789 27.394L10.1422 27.2179V26.0458L9.83789 25.8711V27.394Z" fill="#263238"/>
<path d="M11.0551 27.7458L10.1422 27.2188L9.83789 27.3949L11.0551 28.0967V27.7458Z" fill="#37474F"/>
<path d="M11.0551 22.3224V20.7994L9.83789 20.0977V21.6206L11.0551 22.3224Z" fill="#E0E0E0"/>
<path d="M9.83789 21.6206L10.1422 21.4444V20.2724L9.83789 20.0977V21.6206Z" fill="#263238"/>
<path d="M11.0551 21.9704L10.1422 21.4434L9.83789 21.6195L11.0551 22.3213V21.9704Z" fill="#37474F"/>
<path d="M11.0551 19.465V17.942L9.83789 17.2402V18.7632L11.0551 19.465Z" fill="#E0E0E0"/>
<path d="M9.83789 18.7632L10.1422 18.587V17.415L9.83789 17.2402V18.7632Z" fill="#263238"/>
<path d="M11.0551 19.113L10.1422 18.5859L9.83789 18.7621L11.0551 19.4639V19.113Z" fill="#37474F"/>
<path d="M11.0551 16.609V15.0846L9.83789 14.3828V15.9058L11.0551 16.609Z" fill="#E0E0E0"/>
<path d="M9.83789 15.9058L10.1422 15.7296V14.559L9.83789 14.3828V15.9058Z" fill="#263238"/>
<path d="M11.0551 16.2575L10.1422 15.7305L9.83789 15.9066L11.0551 16.6099V16.2575Z" fill="#37474F"/>
<path d="M6.66445 22.6441V21.1212L5.44727 20.418V21.9409L6.66445 22.6441Z" fill="#E0E0E0"/>
<path d="M5.44727 21.9409L5.75156 21.7662V20.5941L5.44727 20.418V21.9409Z" fill="#263238"/>
<path d="M6.66445 22.2927L5.75156 21.7656L5.44727 21.9403L6.66445 22.6436V22.2927Z" fill="#37474F"/>
<path d="M6.66445 25.5607V24.0377L5.44727 23.3359V24.8574L6.66445 25.5607Z" fill="#E0E0E0"/>
<path d="M5.44727 24.8574L5.75156 24.6827V23.5107L5.44727 23.3359V24.8574Z" fill="#263238"/>
<path d="M6.66445 25.2107L5.75156 24.6836L5.44727 24.8583L6.66445 25.5615V25.2107Z" fill="#37474F"/>
<path d="M6.66445 19.7618V18.2389L5.44727 17.5371V19.0601L6.66445 19.7618Z" fill="#E0E0E0"/>
<path d="M5.44727 19.0601L5.75156 18.8839V17.7118L5.44727 17.5371V19.0601Z" fill="#263238"/>
<path d="M6.66445 19.4118L5.75156 18.8848L5.44727 19.0609L6.66445 19.7627V19.4118Z" fill="#37474F"/>
<path d="M6.66445 16.8824V15.3595L5.44727 14.6562V16.1792L6.66445 16.8824Z" fill="#E0E0E0"/>
<path d="M5.44727 16.1792L5.75156 16.0045V14.8324L5.44727 14.6562V16.1792Z" fill="#263238"/>
<path d="M6.66445 16.531L5.75156 16.0039L5.44727 16.1786L6.66445 16.8819V16.531Z" fill="#37474F"/>
<path d="M6.66445 14.0001V12.4772L5.44727 11.7754V13.2983L6.66445 14.0001Z" fill="#FAFAFA"/>
<path d="M5.44727 13.2983L5.75156 13.1222V11.9501L5.44727 11.7754V13.2983Z" fill="#263238"/>
<path d="M6.66445 13.6501L5.75156 13.123L5.44727 13.2992L6.66445 14.001V13.6501Z" fill="#37474F"/>
<path d="M7.35742 12.8027L8.06648 13.2119V23.4546L7.35742 23.0469V12.8027Z" fill="#FAFAFA"/>
<path d="M7.35742 12.8027L7.65735 12.976V22.878L7.35742 23.0469V12.8027Z" fill="#263238"/>
<path d="M7.65735 22.877L8.06648 23.1041V23.4535L7.35742 23.0458L7.65735 22.877Z" fill="#37474F"/>
<path d="M8.48633 13.4473L9.19684 13.8549V24.0991L8.48633 23.69V13.4473Z" fill="#FAFAFA"/>
<path d="M8.48633 13.4473L8.78626 13.6205V23.5211L8.48633 23.69V13.4473Z" fill="#263238"/>
<path d="M8.78626 23.5215L9.19684 23.7486V24.0995L8.48633 23.6904L8.78626 23.5215Z" fill="#37474F"/>
<path d="M12.5527 25.1773V23.6544L13.7685 22.9512V24.4741L12.5527 25.1773Z" fill="#E0E0E0"/>
<path d="M13.7672 24.4741L13.4629 24.2994L13.4643 23.1273L13.7672 22.9512V24.4741Z" fill="#455A64"/>
<path d="M12.5527 24.8278L13.4642 24.3008L13.7685 24.4755L12.5527 25.1787V24.8278Z" fill="#263238"/>
<path d="M14.4434 24.09V22.567L15.6605 21.8652V23.3882L14.4434 24.09Z" fill="#E0E0E0"/>
<path d="M15.6598 23.3882L15.3555 23.212V22.04L15.6598 21.8652V23.3882Z" fill="#455A64"/>
<path d="M14.4434 23.74L15.3563 23.2129L15.6605 23.3891L14.4434 24.0908V23.74Z" fill="#263238"/>
<path d="M16.334 23.0035V21.4806L17.5512 20.7773V22.3003L16.334 23.0035Z" fill="#E0E0E0"/>
<path d="M17.5523 22.3003L17.248 22.1256V20.9535L17.5523 20.7773V22.3003Z" fill="#455A64"/>
<path d="M16.334 22.6526L17.2469 22.127L17.5512 22.3017L16.334 23.0049V22.6526Z" fill="#263238"/>
<path d="M12.5527 28.0958V26.5729L13.7685 25.8711V27.394L12.5527 28.0958Z" fill="#E0E0E0"/>
<path d="M13.7672 27.394L13.4629 27.2179L13.4643 26.0458L13.7672 25.8711V27.394Z" fill="#455A64"/>
<path d="M12.5527 27.7458L13.4642 27.2188L13.7685 27.3949L12.5527 28.0967V27.7458Z" fill="#263238"/>
<path d="M14.4434 27.0094V25.485L15.6605 24.7832V26.3061L14.4434 27.0094Z" fill="#E0E0E0"/>
<path d="M15.6598 26.3061L15.3555 26.13V24.9594L15.6598 24.7832V26.3061Z" fill="#455A64"/>
<path d="M14.4434 26.6579L15.3563 26.1309L15.6605 26.307L14.4434 27.0103V26.6579Z" fill="#263238"/>
<path d="M16.334 25.9215V24.3985L17.5512 23.6953V25.2183L16.334 25.9215Z" fill="#E0E0E0"/>
<path d="M17.5523 25.2183L17.248 25.0435V23.8715L17.5523 23.6953V25.2183Z" fill="#455A64"/>
<path d="M16.334 25.572L17.2469 25.0449L17.5512 25.2196L16.334 25.9229V25.572Z" fill="#263238"/>
<path d="M12.5527 22.3224V20.7994L13.7685 20.0977V21.6206L12.5527 22.3224Z" fill="#E0E0E0"/>
<path d="M13.7672 21.6206L13.4629 21.4444L13.4643 20.2724L13.7672 20.0977V21.6206Z" fill="#455A64"/>
<path d="M12.5527 21.9704L13.4642 21.4434L13.7685 21.6195L12.5527 22.3213V21.9704Z" fill="#263238"/>
<path d="M14.4434 21.2228V19.6998L15.6605 18.998V20.521L14.4434 21.2228Z" fill="#E0E0E0"/>
<path d="M15.6598 20.521L15.3555 20.3448V19.1728L15.6598 18.998V20.521Z" fill="#455A64"/>
<path d="M14.4434 20.8708L15.3563 20.3438L15.6605 20.5199L14.4434 21.2217V20.8708Z" fill="#263238"/>
<path d="M16.334 20.1232V18.6002L17.5512 17.8984V19.4214L16.334 20.1232Z" fill="#E0E0E0"/>
<path d="M17.5523 19.4214L17.248 19.2452V18.0732L17.5523 17.8984V19.4214Z" fill="#455A64"/>
<path d="M16.334 19.7712L17.2469 19.2441L17.5512 19.4203L16.334 20.1221V19.7712Z" fill="#263238"/>
<path d="M12.5527 19.465V17.942L13.7685 17.2402V18.7632L12.5527 19.465Z" fill="#E0E0E0"/>
<path d="M13.7672 18.7632L13.4629 18.587L13.4643 17.415L13.7672 17.2402V18.7632Z" fill="#455A64"/>
<path d="M12.5527 19.113L13.4642 18.5859L13.7685 18.7621L12.5527 19.4639V19.113Z" fill="#263238"/>
<path d="M14.4434 18.3531V16.8302L15.6605 16.127V17.6514L14.4434 18.3531Z" fill="#E0E0E0"/>
<path d="M15.6598 17.6514L15.3555 17.4752V16.3031L15.6598 16.127V17.6514Z" fill="#455A64"/>
<path d="M14.4434 18.0036L15.3563 17.4766L15.6605 17.6527L14.4434 18.3545V18.0036Z" fill="#263238"/>
<path d="M16.334 17.2438V15.7208L17.5512 15.0176V16.5405L16.334 17.2438Z" fill="#E0E0E0"/>
<path d="M17.5523 16.5405L17.248 16.3658V15.1938L17.5523 15.0176V16.5405Z" fill="#455A64"/>
<path d="M16.334 16.8923L17.2469 16.3652L17.5512 16.54L16.334 17.2432V16.8923Z" fill="#263238"/>
<path d="M12.5527 16.609V15.0846L13.7685 14.3828V15.9058L12.5527 16.609Z" fill="#E0E0E0"/>
<path d="M13.7672 15.9058L13.4629 15.7296L13.4643 14.559L13.7672 14.3828V15.9058Z" fill="#455A64"/>
<path d="M12.5527 16.2575L13.4642 15.7305L13.7685 15.9066L12.5527 16.6099V16.2575Z" fill="#263238"/>
<path d="M14.4434 15.4859V13.963L15.6605 13.2598V14.7827L14.4434 15.4859Z" fill="#E0E0E0"/>
<path d="M15.6598 14.7827L15.3555 14.608V13.4359L15.6598 13.2598V14.7827Z" fill="#455A64"/>
<path d="M14.4434 15.1345L15.3563 14.6074L15.6605 14.7821L14.4434 15.4854V15.1345Z" fill="#263238"/>
<path d="M16.334 14.3614V12.8385L17.5512 12.1367V13.6597L16.334 14.3614Z" fill="#E0E0E0"/>
<path d="M17.5523 13.6597L17.248 13.4835V12.3114L17.5523 12.1367V13.6597Z" fill="#455A64"/>
<path d="M16.334 14.0114L17.2469 13.4844L17.5512 13.6605L16.334 14.3623V14.0114Z" fill="#263238"/>
<path d="M5.88477 9.56183L11.2078 6.48828L17.1205 9.90253L11.7989 12.9761L5.88477 9.56183Z" fill="#F0F0F0"/>
<path d="M11.207 6.48828V7.17113L16.5286 10.2447L17.1197 9.90253L11.207 6.48828Z" fill="#455A64"/>
<path d="M11.2078 6.48828L5.88477 9.56183L6.47589 9.90253L11.2078 7.17113V6.48828Z" fill="#263238"/>
<path d="M52.8471 29.7079L46.3418 25.9515V9.90234L52.8485 13.6587L52.8471 29.7079Z" fill="#455A64"/>
<path d="M52.8491 13.6576L59.9455 9.56055V25.6082L52.8477 29.7068L52.8491 13.6576Z" fill="#37474F"/>
<path d="M46.3418 9.90178L53.4396 5.80469L59.9449 9.56109L52.8485 13.6582L46.3418 9.90178Z" fill="#37474F"/>
<path d="M57.2896 27.1469V24.4141L55.4492 25.4711L55.4507 28.2025L57.2896 27.1469Z" fill="#E0E0E0"/>
<path d="M56.4862 24.875L56.3086 24.9784V27.7098L56.4862 27.6064V24.875Z" fill="#263238"/>
<path d="M53.5918 25.1773V23.6544L54.809 22.9512V24.4741L53.5918 25.1773Z" fill="#E0E0E0"/>
<path d="M54.8082 24.4741L54.5039 24.2994V23.1273L54.8082 22.9512V24.4741Z" fill="#263238"/>
<path d="M53.5918 24.8278L54.5047 24.3008L54.809 24.4755L53.5918 25.1787V24.8278Z" fill="#455A64"/>
<path d="M53.5918 28.0958V26.5729L54.809 25.8711V27.394L53.5918 28.0958Z" fill="#E0E0E0"/>
<path d="M54.8082 27.394L54.5039 27.2179V26.0458L54.8082 25.8711V27.394Z" fill="#263238"/>
<path d="M53.5918 27.7458L54.5047 27.2188L54.809 27.3949L53.5918 28.0967V27.7458Z" fill="#455A64"/>
<path d="M53.5918 22.3224V20.7994L54.809 20.0977V21.6206L53.5918 22.3224Z" fill="#E0E0E0"/>
<path d="M54.8082 21.6206L54.5039 21.4444V20.2724L54.8082 20.0977V21.6206Z" fill="#263238"/>
<path d="M53.5918 21.9704L54.5047 21.4434L54.809 21.6195L53.5918 22.3213V21.9704Z" fill="#455A64"/>
<path d="M53.5918 19.465V17.942L54.809 17.2402V18.7632L53.5918 19.465Z" fill="#E0E0E0"/>
<path d="M54.8082 18.7632L54.5039 18.587V17.415L54.8082 17.2402V18.7632Z" fill="#263238"/>
<path d="M53.5918 19.113L54.5047 18.5859L54.809 18.7621L53.5918 19.4639V19.113Z" fill="#455A64"/>
<path d="M53.5918 16.609V15.0846L54.809 14.3828V15.9058L53.5918 16.609Z" fill="#E0E0E0"/>
<path d="M54.8082 15.9058L54.5039 15.7296V14.559L54.8082 14.3828V15.9058Z" fill="#263238"/>
<path d="M53.5918 16.2575L54.5047 15.7305L54.809 15.9066L53.5918 16.6099V16.2575Z" fill="#455A64"/>
<path d="M57.9844 22.6441V21.1212L59.2001 20.418V21.9409L57.9844 22.6441Z" fill="#E0E0E0"/>
<path d="M59.1993 21.9409L58.8965 21.7662V20.5941L59.1993 20.418V21.9409Z" fill="#263238"/>
<path d="M57.9844 22.2927L58.8973 21.7656L59.2001 21.9403L57.9844 22.6436V22.2927Z" fill="#455A64"/>
<path d="M57.9844 25.5607V24.0377L59.2001 23.3359V24.8574L57.9844 25.5607Z" fill="#E0E0E0"/>
<path d="M59.1993 24.8574L58.8965 24.6827V23.5107L59.1993 23.3359V24.8574Z" fill="#263238"/>
<path d="M57.9844 25.2107L58.8973 24.6836L59.2001 24.8583L57.9844 25.5615V25.2107Z" fill="#455A64"/>
<path d="M57.9844 19.7618V18.2389L59.2001 17.5371V19.0601L57.9844 19.7618Z" fill="#E0E0E0"/>
<path d="M59.1993 19.0601L58.8965 18.8839V17.7118L59.1993 17.5371V19.0601Z" fill="#263238"/>
<path d="M57.9844 19.4118L58.8973 18.8848L59.2001 19.0609L57.9844 19.7627V19.4118Z" fill="#455A64"/>
<path d="M57.9844 16.8824V15.3595L59.2001 14.6562V16.1792L57.9844 16.8824Z" fill="#E0E0E0"/>
<path d="M59.1993 16.1792L58.8965 16.0045V14.8324L59.1993 14.6562V16.1792Z" fill="#263238"/>
<path d="M57.9844 16.531L58.8973 16.0039L59.2001 16.1786L57.9844 16.8819V16.531Z" fill="#455A64"/>
<path d="M57.9844 14.0001V12.4772L59.2001 11.7754V13.2983L57.9844 14.0001Z" fill="#FAFAFA"/>
<path d="M59.1993 13.2983L58.8965 13.1222V11.9501L59.1993 11.7754V13.2983Z" fill="#263238"/>
<path d="M57.9844 13.6501L58.8973 13.123L59.2001 13.2992L57.9844 14.001V13.6501Z" fill="#455A64"/>
<path d="M57.2886 12.8027L56.5781 13.2119V23.4546L57.2886 23.0469V12.8027Z" fill="#FAFAFA"/>
<path d="M57.2897 12.8027L56.9883 12.976V22.878L57.2897 23.0469V12.8027Z" fill="#263238"/>
<path d="M56.9873 22.877L56.5781 23.1041V23.4535L57.2886 23.0458L56.9873 22.877Z" fill="#455A64"/>
<path d="M56.1602 13.4473L55.4512 13.8549V24.0991L56.1602 23.69V13.4473Z" fill="#FAFAFA"/>
<path d="M56.1593 13.4473L55.8594 13.6205V23.5211L56.1593 23.69V13.4473Z" fill="#263238"/>
<path d="M55.8603 23.5215L55.4512 23.7486V24.0995L56.1602 23.6904L55.8603 23.5215Z" fill="#455A64"/>
<path d="M52.0961 25.1773V23.6544L50.8789 22.9512V24.4741L52.0961 25.1773Z" fill="#E0E0E0"/>
<path d="M50.8789 24.4741L51.1832 24.2994V23.1273L50.8789 22.9512V24.4741Z" fill="#37474F"/>
<path d="M52.0961 24.8278L51.1832 24.3008L50.8789 24.4755L52.0961 25.1787V24.8278Z" fill="#263238"/>
<path d="M50.204 24.09V22.567L48.9883 21.8652V23.3882L50.204 24.09Z" fill="#E0E0E0"/>
<path d="M48.9883 23.3882L49.2911 23.212V22.04L48.9883 21.8652V23.3882Z" fill="#37474F"/>
<path d="M50.204 23.74L49.2911 23.2129L48.9883 23.3891L50.204 24.0908V23.74Z" fill="#263238"/>
<path d="M48.3109 23.0035V21.4806L47.0938 20.7773V22.3003L48.3109 23.0035Z" fill="#E0E0E0"/>
<path d="M47.0938 22.3003L47.398 22.1256V20.9535L47.0938 20.7773V22.3003Z" fill="#37474F"/>
<path d="M48.3109 22.6526L47.398 22.127L47.0938 22.3017L48.3109 23.0049V22.6526Z" fill="#263238"/>
<path d="M52.0961 28.0958V26.5729L50.8789 25.8711V27.394L52.0961 28.0958Z" fill="#E0E0E0"/>
<path d="M50.8789 27.394L51.1832 27.2179V26.0458L50.8789 25.8711V27.394Z" fill="#37474F"/>
<path d="M52.0961 27.7458L51.1832 27.2188L50.8789 27.3949L52.0961 28.0967V27.7458Z" fill="#263238"/>
<path d="M50.204 27.0094V25.485L48.9883 24.7832V26.3061L50.204 27.0094Z" fill="#E0E0E0"/>
<path d="M48.9883 26.3061L49.2911 26.13V24.9594L48.9883 24.7832V26.3061Z" fill="#37474F"/>
<path d="M50.204 26.6579L49.2911 26.1309L48.9883 26.307L50.204 27.0103V26.6579Z" fill="#263238"/>
<path d="M48.3109 25.9215V24.3985L47.0938 23.6953V25.2183L48.3109 25.9215Z" fill="#E0E0E0"/>
<path d="M47.0938 25.2183L47.398 25.0435V23.8715L47.0938 23.6953V25.2183Z" fill="#37474F"/>
<path d="M48.3109 25.572L47.398 25.0449L47.0938 25.2196L48.3109 25.9229V25.572Z" fill="#263238"/>
<path d="M52.0961 22.3224V20.7994L50.8789 20.0977V21.6206L52.0961 22.3224Z" fill="#E0E0E0"/>
<path d="M50.8789 21.6206L51.1832 21.4444V20.2724L50.8789 20.0977V21.6206Z" fill="#37474F"/>
<path d="M52.0961 21.9704L51.1832 21.4434L50.8789 21.6195L52.0961 22.3213V21.9704Z" fill="#263238"/>
<path d="M50.204 21.2228V19.6998L48.9883 18.998V20.521L50.204 21.2228Z" fill="#E0E0E0"/>
<path d="M48.9883 20.521L49.2911 20.3448V19.1728L48.9883 18.998V20.521Z" fill="#37474F"/>
<path d="M50.204 20.8708L49.2911 20.3438L48.9883 20.5199L50.204 21.2217V20.8708Z" fill="#263238"/>
<path d="M48.3109 20.1232V18.6002L47.0938 17.8984V19.4214L48.3109 20.1232Z" fill="#E0E0E0"/>
<path d="M47.0938 19.4214L47.398 19.2452V18.0732L47.0938 17.8984V19.4214Z" fill="#37474F"/>
<path d="M48.3109 19.7712L47.398 19.2441L47.0938 19.4203L48.3109 20.1221V19.7712Z" fill="#263238"/>
<path d="M52.0961 19.465V17.942L50.8789 17.2402V18.7632L52.0961 19.465Z" fill="#E0E0E0"/>
<path d="M50.8789 18.7632L51.1832 18.587V17.415L50.8789 17.2402V18.7632Z" fill="#37474F"/>
<path d="M52.0961 19.113L51.1832 18.5859L50.8789 18.7621L52.0961 19.4639V19.113Z" fill="#263238"/>
<path d="M50.204 18.3531V16.8302L48.9883 16.127V17.6514L50.204 18.3531Z" fill="#E0E0E0"/>
<path d="M48.9883 17.6514L49.2911 17.4752V16.3031L48.9883 16.127V17.6514Z" fill="#37474F"/>
<path d="M50.204 18.0036L49.2911 17.4766L48.9883 17.6527L50.204 18.3545V18.0036Z" fill="#263238"/>
<path d="M48.3109 17.2438V15.7208L47.0938 15.0176V16.5405L48.3109 17.2438Z" fill="#E0E0E0"/>
<path d="M47.0938 16.5405L47.398 16.3658V15.1938L47.0938 15.0176V16.5405Z" fill="#37474F"/>
<path d="M48.3109 16.8923L47.398 16.3652L47.0938 16.54L48.3109 17.2432V16.8923Z" fill="#263238"/>
<path d="M52.0961 16.609V15.0846L50.8789 14.3828V15.9058L52.0961 16.609Z" fill="#E0E0E0"/>
<path d="M50.8789 15.9058L51.1832 15.7296V14.559L50.8789 14.3828V15.9058Z" fill="#37474F"/>
<path d="M52.0961 16.2575L51.1832 15.7305L50.8789 15.9066L52.0961 16.6099V16.2575Z" fill="#263238"/>
<path d="M50.204 15.4859V13.963L48.9883 13.2598V14.7827L50.204 15.4859Z" fill="#E0E0E0"/>
<path d="M48.9883 14.7827L49.2911 14.608V13.4359L48.9883 13.2598V14.7827Z" fill="#37474F"/>
<path d="M50.204 15.1345L49.2911 14.6074L48.9883 14.7821L50.204 15.4854V15.1345Z" fill="#263238"/>
<path d="M48.3109 14.3614V12.8385L47.0938 12.1367V13.6597L48.3109 14.3614Z" fill="#E0E0E0"/>
<path d="M47.0938 13.6597L47.398 13.4835V12.3114L47.0938 12.1367V13.6597Z" fill="#37474F"/>
<path d="M48.3109 14.0114L47.398 13.4844L47.0938 13.6605L48.3109 14.3623V14.0114Z" fill="#263238"/>
<path d="M58.7625 9.56183L53.4395 6.48828L47.5254 9.90253L52.8484 12.9761L58.7625 9.56183Z" fill="#F0F0F0"/>
<path d="M53.4395 6.48828V7.17113L48.1165 10.2447L47.5254 9.90253L53.4395 6.48828Z" fill="#263238"/>
<path d="M53.4395 6.48828L58.7625 9.56183L58.1699 9.90253L53.4395 7.17113V6.48828Z" fill="#455A64"/>
<path d="M43.1991 44.7059C42.4589 45.0101 41.6286 45.0101 40.8884 44.7059C40.2507 44.4016 40.2507 43.9095 40.8884 43.6052C41.6286 43.3009 42.4589 43.3009 43.1991 43.6052C43.8382 43.9095 43.8382 44.4016 43.1991 44.7059Z" fill="#E0E0E0"/>
<path d="M19.3023 43.702C20.0429 44.0064 20.8737 44.0064 21.6143 43.702C22.2521 43.3977 22.2521 42.9056 21.6143 42.6013C20.8737 42.297 20.0429 42.297 19.3023 42.6013C18.6675 42.9056 18.6675 43.3977 19.3023 43.702Z" fill="#E0E0E0"/>
<path d="M32.8145 43.5254L46.9694 35.3531C47.0644 35.3026 47.1439 35.2273 47.1994 35.1351C47.2548 35.0428 47.2841 34.9373 47.2841 34.8297C47.2841 34.7221 47.2548 34.6165 47.1994 34.5243C47.1439 34.4321 47.0644 34.3567 46.9694 34.3063L32.813 26.1339C32.7153 26.0844 32.6073 26.0586 32.4978 26.0586C32.3883 26.0586 32.2803 26.0844 32.1826 26.1339L18.0277 34.3004C17.9326 34.3509 17.8531 34.4262 17.7976 34.5185C17.7422 34.6107 17.7129 34.7162 17.7129 34.8238C17.7129 34.9314 17.7422 35.037 17.7976 35.1292C17.8531 35.2214 17.9326 35.2968 18.0277 35.3473L32.184 43.5196C32.2813 43.57 32.389 43.5968 32.4985 43.5978C32.6081 43.5988 32.7163 43.574 32.8145 43.5254Z" fill="#240076"/>
<path d="M32.8145 43.5254L46.9694 35.3531C47.0644 35.3026 47.1439 35.2273 47.1994 35.1351C47.2548 35.0428 47.2841 34.9373 47.2841 34.8297C47.2841 34.7221 47.2548 34.6165 47.1994 34.5243C47.1439 34.4321 47.0644 34.3567 46.9694 34.3063L32.813 26.1339C32.7153 26.0844 32.6073 26.0586 32.4978 26.0586C32.3883 26.0586 32.2803 26.0844 32.1826 26.1339L18.0277 34.3004C17.9326 34.3509 17.8531 34.4262 17.7976 34.5185C17.7422 34.6107 17.7129 34.7162 17.7129 34.8238C17.7129 34.9314 17.7422 35.037 17.7976 35.1292C17.8531 35.2214 17.9326 35.2968 18.0277 35.3473L32.184 43.5196C32.2813 43.57 32.389 43.5968 32.4985 43.5978C32.6081 43.5988 32.7163 43.574 32.8145 43.5254Z" fill="#240076"/>
<path d="M32.8145 43.5254L46.9694 35.3531C47.0644 35.3026 47.1439 35.2273 47.1994 35.1351C47.2548 35.0428 47.2841 34.9373 47.2841 34.8297C47.2841 34.7221 47.2548 34.6165 47.1994 34.5243C47.1439 34.4321 47.0644 34.3567 46.9694 34.3063L32.813 26.1339C32.7153 26.0844 32.6073 26.0586 32.4978 26.0586C32.3883 26.0586 32.2803 26.0844 32.1826 26.1339L18.0277 34.3004C17.9326 34.3509 17.8531 34.4262 17.7976 34.5185C17.7422 34.6107 17.7129 34.7162 17.7129 34.8238C17.7129 34.9314 17.7422 35.037 17.7976 35.1292C17.8531 35.2214 17.9326 35.2968 18.0277 35.3473L32.184 43.5196C32.2813 43.57 32.389 43.5968 32.4985 43.5978C32.6081 43.5988 32.7163 43.574 32.8145 43.5254Z" fill="#240076"/>
<path opacity="0.2" d="M32.8145 43.5254L46.9694 35.3531C47.0644 35.3026 47.1439 35.2273 47.1994 35.1351C47.2548 35.0428 47.2841 34.9373 47.2841 34.8297C47.2841 34.7221 47.2548 34.6165 47.1994 34.5243C47.1439 34.4321 47.0644 34.3567 46.9694 34.3063L32.813 26.1339C32.7153 26.0844 32.6073 26.0586 32.4978 26.0586C32.3883 26.0586 32.2803 26.0844 32.1826 26.1339L18.0277 34.3004C17.9326 34.3509 17.8531 34.4262 17.7976 34.5185C17.7422 34.6107 17.7129 34.7162 17.7129 34.8238C17.7129 34.9314 17.7422 35.037 17.7976 35.1292C17.8531 35.2214 17.9326 35.2968 18.0277 35.3473L32.184 43.5196C32.2813 43.57 32.389 43.5968 32.4985 43.5978C32.6081 43.5988 32.7163 43.574 32.8145 43.5254Z" fill="black"/>
<path d="M18.0285 34.6702L32.1848 42.8426C32.2825 42.8921 32.3905 42.9179 32.5001 42.9179C32.6096 42.9179 32.7176 42.8921 32.8153 42.8426L46.9702 34.6702C47.0082 34.6573 47.0412 34.6328 47.0646 34.6002C47.088 34.5676 47.1006 34.5284 47.1006 34.4882C47.1006 34.4481 47.088 34.4089 47.0646 34.3763C47.0412 34.3436 47.0082 34.3192 46.9702 34.3063L32.8138 26.1339C32.7161 26.0844 32.6081 26.0586 32.4986 26.0586C32.3891 26.0586 32.2811 26.0844 32.1834 26.1339L18.0285 34.3004C17.9882 34.3118 17.9528 34.3361 17.9276 34.3694C17.9023 34.4028 17.8887 34.4435 17.8887 34.4853C17.8887 34.5272 17.9023 34.5679 17.9276 34.6012C17.9528 34.6346 17.9882 34.6588 18.0285 34.6702Z" fill="#240076"/>
<path d="M34.8652 39.9506L44.9187 34.1457V9.90234L34.8652 15.7073V39.9506Z" fill="#37474F"/>
<path d="M32.4975 41.6585V17.073L20.0781 9.90234V34.4878L32.4975 41.6585Z" fill="#455A64"/>
<path d="M32.4976 31.414L20.0782 24.2434V23.5605L18.8945 24.2434L32.4976 32.0969V31.414Z" fill="#240076"/>
<path opacity="0.5" d="M32.4976 31.414L20.0782 24.2434V23.5605L18.8945 24.2434L32.4976 32.0969V31.414Z" fill="white"/>
<path d="M18.8945 24.2441L32.4976 32.0976V32.7805L18.8945 24.927V24.2441Z" fill="#240076"/>
<path d="M32.498 31.4145L34.864 30.0488L35.4551 30.391L32.498 32.0974V31.4145Z" fill="#240076"/>
<path opacity="0.5" d="M32.498 31.4145L34.864 30.0488L35.4551 30.391L32.498 32.0974V31.4145Z" fill="white"/>
<path d="M32.498 32.7799L35.4551 31.0735V30.3906L32.498 32.097V32.7799Z" fill="#240076"/>
<path opacity="0.2" d="M32.498 32.7799L35.4551 31.0735V30.3906L32.498 32.097V32.7799Z" fill="black"/>
<path d="M32.498 17.0727L34.864 15.707V30.0483L32.498 31.414V17.0727Z" fill="#263238"/>
<path d="M32.498 32.7798L34.864 31.4141V40.2926L32.498 41.6583V32.7798Z" fill="#263238"/>
<path d="M31.3171 29.3659V25.9516L28.9512 24.5859V28.0002L31.3171 29.3659Z" fill="#240076"/>
<path opacity="0.5" d="M31.3171 29.3659V25.9516L28.9512 24.5859V28.0002L31.3171 29.3659Z" fill="white"/>
<path d="M28.9512 28.0002L29.5423 27.6595V24.9266L28.9512 24.5859V28.0002Z" fill="#263238"/>
<path d="M31.3171 28.6817L29.5423 27.6582L28.9512 27.9989L31.3171 29.3646V28.6817Z" fill="#263238"/>
<path d="M27.7676 27.3174V23.9032L24.8105 22.1953V25.6096L27.7676 27.3174Z" fill="#240076"/>
<path opacity="0.5" d="M27.7676 27.3174V23.9032L24.8105 22.1953V25.6096L27.7676 27.3174Z" fill="white"/>
<path d="M25.4017 25.2689L25.4031 22.5375L24.8105 22.1953V25.6096L25.4017 25.2689Z" fill="#263238"/>
<path d="M27.7676 26.6333V27.3161L24.8105 25.6083L25.4017 25.2676L27.7676 26.6333Z" fill="#263238"/>
<path d="M36.3418 36.7066V33.2923L39.2989 31.5859V35.0002L36.3418 36.7066Z" fill="#240076"/>
<path d="M38.709 34.658V31.9266L39.3001 31.5859V35.0002L38.709 34.658Z" fill="#263238"/>
<path d="M36.3418 36.0239V36.7068L39.2989 35.0004L38.7077 34.6582L36.3418 36.0239Z" fill="#263238"/>
<path d="M36.3418 31.0166V27.6024L39.2989 25.8945V29.3088L36.3418 31.0166Z" fill="#240076"/>
<path d="M38.709 28.9681V26.2352L39.3001 25.8945V29.3088L38.709 28.9681Z" fill="#263238"/>
<path d="M36.3418 30.3344V31.0173L39.2989 29.3094L38.7077 28.9688L36.3418 30.3344Z" fill="#263238"/>
<path d="M36.3418 25.3252V21.911L39.2989 20.2031V23.6174L36.3418 25.3252Z" fill="#240076"/>
<path d="M38.709 23.2767V20.5453L39.3001 20.2031V23.6174L38.709 23.2767Z" fill="#263238"/>
<path d="M36.3418 24.643V25.3259L39.2989 23.618L38.7077 23.2773L36.3418 24.643Z" fill="#263238"/>
<path d="M36.3418 19.6338V16.2196L39.2989 14.5117V17.9274L36.3418 19.6338Z" fill="#240076"/>
<path d="M38.709 17.5853V14.8539L39.3001 14.5117V17.9274L38.709 17.5853Z" fill="#263238"/>
<path d="M36.3418 18.9516V19.6345L39.2989 17.9281L38.7077 17.5859L36.3418 18.9516Z" fill="#263238"/>
<path d="M40.5469 34.2788V30.8646L43.5054 29.1582L43.5039 32.5725L40.5469 34.2788Z" fill="#240076"/>
<path d="M42.9141 32.2303V29.4989L43.5066 29.1582L43.5052 32.5725L42.9141 32.2303Z" fill="#263238"/>
<path d="M40.5469 33.5976V34.279L43.5039 32.5726L42.9128 32.2305L40.5469 33.5976Z" fill="#263238"/>
<path d="M40.5469 28.5889V25.1732L43.5054 23.4668L43.5039 26.881L40.5469 28.5889Z" fill="#240076"/>
<path d="M42.9141 26.5403V23.8075L43.5066 23.4668L43.5052 26.881L42.9141 26.5403Z" fill="#263238"/>
<path d="M40.5469 27.9067V28.5896L43.5039 26.8817L42.9128 26.541L40.5469 27.9067Z" fill="#263238"/>
<path d="M40.5469 22.8975V19.4832L43.5054 17.7754L43.5039 21.1911L40.5469 22.8975Z" fill="#240076"/>
<path d="M42.9141 20.8489V18.1175L43.5066 17.7754L43.5052 21.1911L42.9141 20.8489Z" fill="#263238"/>
<path d="M40.5469 22.2153V22.8982L43.5039 21.1918L42.9128 20.8496L40.5469 22.2153Z" fill="#263238"/>
<path d="M40.5469 17.2066V13.7923L43.5054 12.0859L43.5039 15.5002L40.5469 17.2066Z" fill="#240076"/>
<path d="M42.9141 15.158V12.4266L43.5066 12.0859L43.5052 15.5002L42.9141 15.158Z" fill="#263238"/>
<path d="M40.5469 16.5239V17.2068L43.5039 15.5004L42.9128 15.1582L40.5469 16.5239Z" fill="#263238"/>
<path d="M23.6277 24.9264V21.5122L21.2617 20.1465V23.5607L23.6277 24.9264Z" fill="#240076"/>
<path opacity="0.5" d="M23.6277 24.9264V21.5122L21.2617 20.1465V23.5607L23.6277 24.9264Z" fill="white"/>
<path d="M21.8528 23.22L21.2617 23.5607V20.1465L21.8528 20.4886V23.22Z" fill="#263238"/>
<path d="M23.6277 24.2442L21.8528 23.2207L21.2617 23.5614L23.6277 24.9271V24.2442Z" fill="#263238"/>
<path d="M24.8105 31.4479C24.8105 30.484 25.473 30.0837 26.2898 30.5554C27.1066 31.0271 27.7676 32.1904 27.7676 33.1557V38.9272L24.8105 37.2194V31.4479Z" fill="#263238"/>
<path d="M27.766 33.1545C27.766 32.1892 27.105 31.0244 26.2882 30.5541C26.0802 30.4224 25.8384 30.354 25.5922 30.3576C25.4571 30.5831 25.3908 30.8432 25.4015 31.1059V36.8774L27.766 38.2431V33.1545Z" fill="#455A64"/>
<path d="M27.766 33.1545C27.766 32.1892 27.105 31.0244 26.2882 30.5541C26.0802 30.4224 25.8384 30.354 25.5922 30.3576C25.4571 30.5831 25.3908 30.8432 25.4015 31.1059V36.8774L27.766 38.2431V33.1545Z" fill="#240076"/>
<path opacity="0.5" d="M27.766 33.1545C27.766 32.1892 27.105 31.0244 26.2882 30.5541C26.0802 30.4224 25.8384 30.354 25.5922 30.3576C25.4571 30.5831 25.3908 30.8432 25.4015 31.1059V36.8774L27.766 38.2431V33.1545Z" fill="white"/>
<path d="M26.7147 30.877C26.6239 30.7914 26.5265 30.713 26.4235 30.6426V32.1772L25.4043 31.586V31.9398L26.4235 32.5324V36.9571L26.7147 37.1245V32.6984L27.7659 33.3055V33.1599C27.7659 33.0901 27.7659 33.0144 27.7557 32.9488L26.7147 32.349V30.877Z" fill="#455A64"/>
<path d="M32.4983 17.0736V15.025L19.4863 7.51367V9.56222L32.4983 17.0736Z" fill="#240076"/>
<path opacity="0.5" d="M32.4983 17.0736V15.025L19.4863 7.51367V9.56222L32.4983 17.0736Z" fill="white"/>
<path d="M32.498 17.0736V15.025L45.51 7.51367V9.56222L32.498 17.0736Z" fill="#240076"/>
<path opacity="0.2" d="M32.498 17.0736V15.025L45.51 7.51367V9.56222L32.498 17.0736Z" fill="black"/>
<path d="M21.2617 13.4061C21.2617 12.6024 21.7917 12.2558 22.444 12.6329C23.0962 13.01 23.6277 13.9681 23.6277 14.7718V20.1457L21.2617 18.78V13.4061Z" fill="#263238"/>
<path d="M22.4432 12.6319C22.3025 12.5476 22.1439 12.4977 21.9802 12.4863C21.8902 12.6669 21.8462 12.867 21.8521 13.0687V18.4427L23.6269 19.4619V14.7707C23.6269 13.967 23.0969 13.009 22.4432 12.6319Z" fill="#240076"/>
<path opacity="0.5" d="M22.4432 12.6319C22.3025 12.5476 22.1439 12.4977 21.9802 12.4863C21.8902 12.6669 21.8462 12.867 21.8521 13.0687V18.4427L23.6269 19.4619V14.7707C23.6269 13.967 23.0969 13.009 22.4432 12.6319Z" fill="white"/>
<path d="M21.2617 18.7797L21.8528 18.4375L23.6277 19.461V20.1454L21.2617 18.7797Z" fill="#263238"/>
<path d="M24.8105 15.747C24.8105 14.7817 25.473 14.3827 26.2898 14.8545C27.1066 15.3262 27.7676 16.4895 27.7676 17.4548V22.5376L24.8105 20.8298V15.747Z" fill="#263238"/>
<path d="M27.766 17.4533C27.766 16.488 27.105 15.3232 26.2882 14.8529C26.0802 14.7212 25.8384 14.6529 25.5922 14.6564C25.4571 14.8819 25.3908 15.142 25.4015 15.4047V20.4861L27.766 21.8532V17.4533Z" fill="#240076"/>
<path opacity="0.5" d="M27.766 17.4533C27.766 16.488 27.105 15.3232 26.2882 14.8529C26.0802 14.7212 25.8384 14.6529 25.5922 14.6564C25.4571 14.8819 25.3908 15.142 25.4015 15.4047V20.4861L27.766 21.8532V17.4533Z" fill="white"/>
<path d="M25.4031 20.4863L24.8105 20.8285L27.7676 22.5363V21.8535L25.4031 20.4863Z" fill="#263238"/>
<path d="M28.9512 17.8475C28.9512 17.0438 29.4797 16.6973 30.1334 17.0744C30.7871 17.4514 31.3171 18.4095 31.3171 19.2132V24.5871L28.9512 23.2215V17.8475Z" fill="#263238"/>
<path d="M30.1327 17.0733C29.9919 16.9892 29.8333 16.9393 29.6697 16.9277C29.5794 17.1083 29.5354 17.3084 29.5416 17.5101V22.8841L31.3164 23.9033V19.2121C31.3164 18.4085 30.7864 17.4504 30.1327 17.0733Z" fill="#240076"/>
<path opacity="0.5" d="M30.1327 17.0733C29.9919 16.9892 29.8333 16.9393 29.6697 16.9277C29.5794 17.1083 29.5354 17.3084 29.5416 17.5101V22.8841L31.3164 23.9033V19.2121C31.3164 18.4085 30.7864 17.4504 30.1327 17.0733Z" fill="white"/>
<path d="M29.5423 22.877L28.9512 23.2191L31.3171 24.5848V23.902L29.5423 22.877Z" fill="#263238"/>
<path d="M28.9512 33.5467C28.9512 32.743 29.4797 32.3965 30.1334 32.7736C30.7871 33.1507 31.3171 34.1087 31.3171 34.9124V40.975L28.9512 39.6093V33.5467Z" fill="#263238"/>
<path d="M30.1327 32.7745C29.9919 32.6904 29.8333 32.6405 29.6697 32.6289C29.5796 32.8095 29.5356 33.0096 29.5415 33.2113V39.2725L31.3164 40.2917V34.9046C31.3164 34.1096 30.7864 33.1516 30.1327 32.7745Z" fill="#240076"/>
<path opacity="0.5" d="M30.1327 32.7745C29.9919 32.6904 29.8333 32.6405 29.6697 32.6289C29.5796 32.8095 29.5356 33.0096 29.5415 33.2113V39.2725L31.3164 40.2917V34.9046C31.3164 34.1096 30.7864 33.1516 30.1327 32.7745Z" fill="white"/>
<path d="M28.9512 39.6091V37.5605L31.3171 38.9262V40.9748L28.9512 39.6091Z" fill="#37474F"/>
<path d="M28.9512 37.5609L29.5423 37.2188L31.3157 38.2438L31.3171 38.9266L28.9512 37.5609Z" fill="#263238"/>
<path d="M21.2617 29.1072C21.2617 28.3035 21.7917 27.957 22.444 28.3341C23.0962 28.7112 23.6277 29.6692 23.6277 30.4729V36.5356L21.2617 35.1728V29.1072Z" fill="#263238"/>
<path d="M22.4432 28.3311C22.3022 28.2475 22.1437 28.1976 21.9802 28.1855C21.8902 28.3662 21.8462 28.5662 21.8521 28.7679V34.8306L23.6269 35.8498V30.4627C23.6269 29.6692 23.0969 28.7112 22.4432 28.3311Z" fill="#240076"/>
<path opacity="0.5" d="M22.4432 28.3311C22.3022 28.2475 22.1437 28.1976 21.9802 28.1855C21.8902 28.3662 21.8462 28.5662 21.8521 28.7679V34.8306L23.6269 35.8498V30.4627C23.6269 29.6692 23.0969 28.7112 22.4432 28.3311Z" fill="white"/>
<path d="M23.6277 36.5353V34.4868L21.2617 33.1211V35.1696L23.6277 36.5353Z" fill="#37474F"/>
<path d="M21.2617 33.1215L21.8528 32.7793L23.6277 33.8043V34.4871L21.2617 33.1215Z" fill="#263238"/>
<path d="M24.8105 37.218V36.5352L27.7676 38.243V38.9259L24.8105 37.218Z" fill="#37474F"/>
<path d="M24.8105 36.536L25.4031 36.1953L27.7676 37.561V38.2439L24.8105 36.536Z" fill="#263238"/>
<path d="M32.4983 15.0241L45.5103 7.5128L32.4983 0L19.4863 7.5128L32.4983 15.0241Z" fill="#240076"/>
<path opacity="0.7" d="M32.4983 15.0241L45.5103 7.5128L32.4983 0L19.4863 7.5128L32.4983 15.0241Z" fill="white"/>
<path d="M32.4976 13.658L43.1436 7.51233L32.4976 1.36523L21.8516 7.51233L32.4976 13.658Z" fill="#240076"/>
<path d="M32.4976 1.36523V3.41524L23.6264 8.53588L21.8516 7.51233L32.4976 1.36523Z" fill="#240076"/>
<path opacity="0.2" d="M32.4976 1.36523V3.41524L23.6264 8.53588L21.8516 7.51233L32.4976 1.36523Z" fill="black"/>
<path d="M32.498 1.36523L43.1441 7.51233L41.3693 8.53588L32.498 3.41524V1.36523Z" fill="#240076"/>
<path opacity="0.5" d="M32.498 1.36523L43.1441 7.51233L41.3693 8.53588L32.498 3.41524V1.36523Z" fill="white"/>
<path d="M30.7227 3.07422L27.7656 4.78207L31.9064 7.17131L34.8635 5.46492L30.7227 3.07422Z" fill="#455A64"/>
<path d="M27.7656 4.78125V6.8298L31.9064 9.21904V7.17049L27.7656 4.78125Z" fill="#37474F"/>
<path d="M34.8653 5.46484V7.51339L31.9082 9.21979V7.17124L34.8653 5.46484Z" fill="#263238"/>
<path d="M29.7525 4.21899C29.2153 4.52911 29.2153 5.03142 29.7525 5.34154C30.0537 5.49449 30.3867 5.57421 30.7244 5.57421C31.0622 5.57421 31.3951 5.49449 31.6963 5.34154C32.2321 5.03142 32.2321 4.52911 31.6963 4.21899C31.3951 4.06604 31.0622 3.98633 30.7244 3.98633C30.3867 3.98633 30.0537 4.06604 29.7525 4.21899Z" fill="#37474F"/>
<path d="M30.269 4.53994C30.0171 4.67243 30.0171 4.88937 30.269 5.02186C30.4115 5.08806 30.5668 5.12235 30.724 5.12235C30.8811 5.12235 31.0364 5.08806 31.179 5.02186C31.4294 4.88937 31.4294 4.67243 31.179 4.53994C31.0364 4.47375 30.8811 4.43945 30.724 4.43945C30.5668 4.43945 30.4115 4.47375 30.269 4.53994Z" fill="#263238"/>
<path d="M32.8223 7.32422L33.4134 7.66492V9.03207" stroke="#455A64" stroke-width="0.14326" stroke-linecap="round" stroke-linejoin="round"/>
<path d="M33.6816 6.83008L34.2728 7.17077V8.53647" stroke="#455A64" stroke-width="0.14326" stroke-linecap="round" stroke-linejoin="round"/>
<path d="M15.3945 27.4102V32.1158C15.3973 32.1493 15.4091 32.1815 15.4286 32.2089C15.448 32.2363 15.4745 32.2579 15.5052 32.2716C15.5892 32.314 15.6819 32.3361 15.776 32.3361C15.8701 32.3361 15.9628 32.314 16.0468 32.2716C16.0775 32.2579 16.104 32.2363 16.1234 32.2089C16.1429 32.1815 16.1546 32.1493 16.1575 32.1158V27.4131L15.3945 27.4102Z" fill="#37474F"/>
<path d="M17.6143 28.7788C17.6143 29.2661 17.4207 29.7334 17.0761 30.078C16.7316 30.4226 16.2642 30.6162 15.7769 30.6162C15.2896 30.6162 14.8222 30.4226 14.4776 30.078C14.133 29.7334 13.9395 29.2661 13.9395 28.7788C13.9395 26.9006 14.7621 24.8477 15.7769 24.8477C16.7917 24.8477 17.6143 26.8744 17.6143 28.7788Z" fill="#240076"/>
<path d="M17.6134 28.7782C17.6134 28.7301 17.6134 28.6821 17.6134 28.6326V28.5846C17.5991 28.7848 17.5211 28.9751 17.3906 29.1276C17.0426 29.5644 16.2753 30.0391 15.4833 29.71C14.1525 29.1524 14.1161 27.5785 14.4117 26.2754C14.1013 27.0739 13.9419 27.923 13.9414 28.7797C13.9414 29.267 14.135 29.7343 14.4796 30.0789C14.8242 30.4235 15.2915 30.6171 15.7788 30.6171C16.2662 30.6171 16.7335 30.4235 17.0781 30.0789C17.4227 29.7343 17.6163 29.267 17.6163 28.7797L17.6134 28.7782Z" fill="#240076"/>
<path opacity="0.1" d="M17.6134 28.7782C17.6134 28.7301 17.6134 28.6821 17.6134 28.6326V28.5846C17.5991 28.7848 17.5211 28.9751 17.3906 29.1276C17.0426 29.5644 16.2753 30.0391 15.4833 29.71C14.1525 29.1524 14.1161 27.5785 14.4117 26.2754C14.1013 27.0739 13.9419 27.923 13.9414 28.7797C13.9414 29.267 14.135 29.7343 14.4796 30.0789C14.8242 30.4235 15.2915 30.6171 15.7788 30.6171C16.2662 30.6171 16.7335 30.4235 17.0781 30.0789C17.4227 29.7343 17.6163 29.267 17.6163 28.7797L17.6134 28.7782Z" fill="black"/>
<path d="M1.95508 19.1582V23.8624C1.9581 23.8968 1.97039 23.9297 1.99064 23.9577C2.0109 23.9856 2.03836 24.0076 2.0701 24.0211C2.15383 24.0635 2.24635 24.0856 2.34018 24.0856C2.43401 24.0856 2.52653 24.0635 2.61026 24.0211C2.64105 24.0074 2.66765 23.9857 2.68734 23.9584C2.70704 23.931 2.71912 23.8989 2.72237 23.8653V19.1582H1.95508Z" fill="#37474F"/>
<path d="M4.17413 20.5307C4.18105 20.7763 4.13865 21.0207 4.04946 21.2496C3.96027 21.4785 3.82609 21.6872 3.65485 21.8633C3.48361 22.0394 3.2788 22.1794 3.05251 22.275C2.82623 22.3706 2.58308 22.4199 2.33743 22.4199C2.09178 22.4199 1.84863 22.3706 1.62235 22.275C1.39607 22.1794 1.19125 22.0394 1.02001 21.8633C0.848776 21.6872 0.714593 21.4785 0.6254 21.2496C0.536207 21.0207 0.493814 20.7763 0.500728 20.5307C0.500728 18.6525 1.32335 16.5996 2.3367 16.5996C3.35006 16.5996 4.17413 18.6219 4.17413 20.5307Z" fill="#240076"/>
<path d="M63.0437 19.1582V23.8624C63.0404 23.896 63.0283 23.9281 63.0086 23.9555C62.989 23.9828 62.9624 24.0045 62.9316 24.0182C62.8478 24.0606 62.7553 24.0826 62.6615 24.0826C62.5677 24.0826 62.4751 24.0606 62.3914 24.0182C62.3606 24.0045 62.334 23.9828 62.3143 23.9555C62.2946 23.9281 62.2825 23.896 62.2793 23.8624V19.1582H63.0437Z" fill="#37474F"/>
<path d="M60.8249 20.5307C60.818 20.7763 60.8604 21.0207 60.9496 21.2496C61.0388 21.4785 61.173 21.6872 61.3442 21.8633C61.5155 22.0394 61.7203 22.1794 61.9466 22.275C62.1728 22.3706 62.416 22.4199 62.6617 22.4199C62.9073 22.4199 63.1505 22.3706 63.3767 22.275C63.603 22.1794 63.8078 22.0394 63.9791 21.8633C64.1503 21.6872 64.2845 21.4785 64.3737 21.2496C64.4629 21.0207 64.5053 20.7763 64.4984 20.5307C64.4984 18.6525 63.6757 16.5996 62.6624 16.5996C61.649 16.5996 60.8249 18.6219 60.8249 20.5307Z" fill="#240076"/>
<path d="M52.8848 32.4812H54.1616V31.0733C54.1616 30.9894 54.1451 30.9063 54.113 30.8289C54.0808 30.7514 54.0337 30.6811 53.9744 30.6218C53.915 30.5626 53.8445 30.5156 53.767 30.4837C53.6894 30.4517 53.6063 30.4354 53.5225 30.4355C53.3533 30.4355 53.1911 30.5027 53.0715 30.6223C52.952 30.7419 52.8848 30.9041 52.8848 31.0733V32.4812Z" fill="#240076"/>
<g opacity="0.5">
<path d="M52.8848 32.4812H54.1616V31.0733C54.1616 30.9894 54.1451 30.9063 54.113 30.8289C54.0808 30.7514 54.0337 30.6811 53.9744 30.6218C53.915 30.5626 53.8445 30.5156 53.767 30.4837C53.6894 30.4517 53.6063 30.4354 53.5225 30.4355C53.3533 30.4355 53.1911 30.5027 53.0715 30.6223C52.952 30.7419 52.8848 30.9041 52.8848 31.0733V32.4812Z" fill="black"/>
</g>
<path d="M53.055 32.9503C53.1409 32.5222 53.3025 32.0505 53.2938 31.8379L53.1686 31.8452C53.0942 31.8502 53.0238 31.8803 52.9688 31.9305C52.9138 31.9808 52.8774 32.0482 52.8657 32.1218C52.8206 32.3999 52.7522 32.825 52.7201 32.9954C52.6915 33.213 52.6428 33.4274 52.5745 33.636C52.5628 33.6661 52.5405 33.6909 52.5119 33.7059C52.4498 33.7426 52.3938 33.7888 52.346 33.8428C52.2994 33.8835 52.263 33.8923 52.2673 33.9068C52.2744 33.923 52.2874 33.9359 52.3036 33.9429C52.3198 33.9499 52.338 33.9506 52.3547 33.9447C52.392 33.9331 52.4277 33.917 52.461 33.8966C52.4312 33.9607 52.3909 34.0193 52.3416 34.0699C52.2309 34.1864 52.2207 34.2621 52.426 34.2796C52.5542 34.2897 52.6619 34.2184 52.7798 33.9447C52.8249 33.8441 52.8628 33.7405 52.8934 33.6346C52.972 33.3623 53.0215 33.1191 53.055 32.9503Z" fill="#FFA8A7"/>
<path d="M54.9452 36.6312C54.9933 36.605 55.0253 36.6676 55.069 36.7171C55.1068 36.7537 55.1366 36.7978 55.1563 36.8467C55.1548 36.8859 55.1449 36.9244 55.1273 36.9596C55.1098 36.9947 55.0849 37.0257 55.0544 37.0505C54.9815 37.0952 54.9292 37.1669 54.9088 37.25C54.9033 37.3012 54.8834 37.3498 54.8515 37.3903C54.8195 37.4307 54.7768 37.4613 54.7283 37.4786C54.6718 37.5021 54.6112 37.5143 54.5499 37.5143C54.4887 37.5143 54.4281 37.5021 54.3716 37.4786C54.3031 37.4349 54.3716 37.3854 54.4618 37.2485C54.5871 37.0694 54.6846 36.9413 54.6846 36.7739L54.9452 36.6312Z" fill="#263238"/>
<path d="M54.8449 36.4766L54.9468 36.6222C54.9686 36.6534 54.9773 36.6919 54.9711 36.7295C54.9648 36.767 54.9441 36.8006 54.9133 36.8231C54.8822 36.842 54.8455 36.8493 54.8095 36.8437C54.7735 36.8381 54.7407 36.82 54.7168 36.7925L54.5566 36.6163L54.8449 36.4766Z" fill="#FFA8A7"/>
<path d="M52.8848 33.7415C52.8996 34.1273 52.9723 34.5086 53.1003 34.8728C53.1772 35.0819 53.2747 35.2828 53.3914 35.4727C53.4337 35.5455 54.6378 36.7175 54.6378 36.7175C54.6953 36.7128 54.7497 36.6892 54.7926 36.6506C54.8354 36.6119 54.8644 36.5602 54.8751 36.5035C54.8751 36.5035 54.3815 35.6648 54.2738 35.493C54.133 35.3259 53.9698 35.1789 53.7889 35.0563L53.8239 33.5508L52.8848 33.7415Z" fill="#37474F"/>
<path d="M53.3049 37.257L53.0508 37.1992L52.9665 37.5698L53.2207 37.6275L53.3049 37.257Z" fill="#FFA8A7"/>
<path d="M53.1007 33.5332L54.184 33.5754C54.2577 33.7357 54.2893 33.9121 54.2757 34.0879C54.2393 34.6164 53.7384 35.5614 53.7384 35.5614C53.7618 35.7753 53.751 35.9915 53.7064 36.202C53.5925 36.5873 53.4584 36.9664 53.3046 37.3376C53.2554 37.3451 53.2052 37.3418 53.1575 37.328C53.1097 37.3142 53.0655 37.2901 53.0279 37.2576C53.0279 37.2576 53.191 35.8089 53.2347 35.4376C53.2827 35.0358 53.405 34.302 53.405 34.302C53.3239 34.2219 53.2508 34.1341 53.1866 34.0399C53.073 33.8961 53.0147 33.7163 53.0221 33.5332" fill="#37474F"/>
<path d="M54.5977 33.2472C54.561 32.8739 54.5007 32.5034 54.4172 32.1378C54.4073 32.0775 54.3778 32.0222 54.3334 31.9804C54.2889 31.9385 54.2319 31.9125 54.1711 31.9062C53.8173 32.097 53.8203 32.3503 54.1216 32.6561C54.1216 32.6561 54.2469 33.1482 54.2862 33.3841C54.3273 33.5995 54.3468 33.8185 54.3444 34.0378C54.3427 34.0699 54.3286 34.1002 54.3051 34.1222C54.2568 34.1758 54.2166 34.2361 54.1857 34.3013C54.1537 34.3537 54.1202 34.3727 54.1289 34.3858C54.1403 34.3993 54.1564 34.4081 54.174 34.4102C54.1915 34.4124 54.2092 34.4078 54.2236 34.3974C54.2559 34.3755 54.2852 34.3496 54.3109 34.3202C54.3009 34.3897 54.2798 34.457 54.2483 34.5197C54.1755 34.6653 54.1872 34.7396 54.3939 34.6973C54.5191 34.6711 54.6021 34.5707 54.6356 34.2737C54.6504 34.1641 54.6572 34.0537 54.656 33.9432C54.6327 33.6651 54.6152 33.419 54.5977 33.2472Z" fill="#FFA8A7"/>
<path d="M52.9942 37.4446L53.0015 37.4082C52.9753 37.4082 52.8559 37.6033 52.7467 37.6863C52.6375 37.7693 52.5152 37.8319 52.4555 37.8697C52.3958 37.9076 52.489 38.0357 52.671 38.0459C52.7781 38.0521 52.8848 38.0273 52.9782 37.9746C53.0291 37.9265 53.0655 37.8464 53.1063 37.8115C53.1471 37.7766 53.2286 37.7474 53.2519 37.7023C53.267 37.6584 53.272 37.6116 53.2665 37.5655C53.2665 37.5174 53.2665 37.465 53.2475 37.4664V37.4941C53.1992 37.5182 53.1457 37.5297 53.0918 37.5276C53.0524 37.5261 52.9724 37.5159 52.9942 37.4446Z" fill="#263238"/>
<path d="M53.2655 35.1903C53.2655 35.1903 53.3747 34.4201 53.4038 34.3007C53.3168 34.2531 53.2357 34.1954 53.1621 34.1289C53.2126 34.2007 53.2675 34.2693 53.3266 34.3342L53.2655 35.1903Z" fill="#263238"/>
<path d="M53.9203 35.1641C53.868 35.2997 53.8072 35.432 53.7383 35.5601C53.7383 35.5601 53.7514 35.8076 53.7499 35.8513L53.8184 35.911C53.82 35.7991 53.8098 35.6873 53.7878 35.5776C53.8469 35.445 53.8914 35.3063 53.9203 35.1641Z" fill="#263238"/>
<path d="M53.7882 31.8432C53.9163 31.8577 54.0436 31.8786 54.1696 31.9058C53.8173 32.1533 54.1201 32.6556 54.1201 32.6556L53.9323 33.1754C54.0585 33.3409 54.1609 33.5232 54.2366 33.717C54.1376 33.8306 53.5494 34.1742 52.8782 33.7418C52.8782 33.7418 52.9175 33.3632 52.9728 33.0778C52.8767 32.6148 52.8491 32.4518 52.8782 32.3426C52.9568 32.0368 53.1374 31.8417 53.3441 31.8301L53.7882 31.8432Z" fill="#F5F5F5"/>
<path d="M53.1007 30.6934C53.0337 30.7327 52.9551 30.903 52.9551 31.2583C52.9624 31.5597 53.0599 31.6339 53.1094 31.6558C53.187 31.672 53.2674 31.6695 53.3438 31.6485V31.8261C53.3438 31.8261 53.2172 31.9717 53.2259 32.0576C53.2346 32.1435 53.4093 32.1595 53.5273 32.0794C53.6136 32.0124 53.688 31.9312 53.7471 31.8392V31.4243C53.7471 31.4243 53.8025 31.4767 53.8927 31.3966C53.9296 31.3702 53.9547 31.3305 53.9626 31.2858C53.9705 31.2412 53.9605 31.1952 53.9349 31.1578C53.9196 31.1435 53.901 31.133 53.8807 31.1272C53.8605 31.1215 53.8392 31.1206 53.8185 31.1247C53.7979 31.1289 53.7786 31.1379 53.7621 31.1509C53.7456 31.164 53.7325 31.1809 53.7238 31.2C53.6035 31.1952 53.4863 31.1602 53.3831 31.0981C53.3076 31.0576 53.2426 30.9998 53.1936 30.9295C53.1445 30.8592 53.1127 30.7783 53.1007 30.6934Z" fill="#FFA8A7"/>
<path d="M53.2931 31.1828C53.2931 31.1929 53.2971 31.2025 53.3042 31.2096C53.3113 31.2167 53.3209 31.2207 53.3309 31.2207C53.341 31.2207 53.3506 31.2167 53.3577 31.2096C53.3648 31.2025 53.3688 31.1929 53.3688 31.1828C53.3692 31.1777 53.3686 31.1725 53.3669 31.1676C53.3653 31.1626 53.3627 31.1581 53.3594 31.1542C53.356 31.1502 53.3519 31.147 53.3472 31.1447C53.3426 31.1424 53.3376 31.141 53.3324 31.1406C53.327 31.1406 53.3216 31.1417 53.3166 31.1439C53.3117 31.146 53.3072 31.1492 53.3035 31.1531C53.2998 31.1571 53.297 31.1618 53.2952 31.1669C53.2934 31.172 53.2927 31.1774 53.2931 31.1828Z" fill="#263238"/>
<path d="M53.2827 31.4395L53.1953 31.4671C53.1968 31.473 53.1995 31.4786 53.2032 31.4834C53.2069 31.4882 53.2116 31.4923 53.2169 31.4953C53.2222 31.4982 53.228 31.5001 53.2341 31.5008C53.2401 31.5015 53.2463 31.5009 53.2521 31.4991C53.264 31.4951 53.2738 31.4867 53.2795 31.4755C53.2852 31.4644 53.2864 31.4514 53.2827 31.4395Z" fill="#F28F8F"/>
<path d="M52.9828 31.0657L53.0585 31.0133C53.0554 31.0082 53.0513 31.0037 53.0464 31.0002C53.0415 30.9968 53.0359 30.9943 53.0301 30.9931C53.0242 30.9919 53.0181 30.9919 53.0122 30.9931C53.0064 30.9943 53.0008 30.9967 52.9959 31.0002C52.9907 31.0036 52.9862 31.008 52.9827 31.0131C52.9792 31.0183 52.9767 31.0241 52.9755 31.0302C52.9743 31.0363 52.9743 31.0426 52.9756 31.0487C52.9768 31.0548 52.9793 31.0606 52.9828 31.0657Z" fill="#263238"/>
<path d="M53.0001 31.1546C52.9997 31.1597 53.0003 31.1649 53.002 31.1699C53.0036 31.1748 53.0062 31.1793 53.0095 31.1833C53.0129 31.1872 53.017 31.1904 53.0217 31.1927C53.0263 31.195 53.0313 31.1964 53.0365 31.1968C53.0467 31.1968 53.0565 31.1929 53.0638 31.1858C53.0711 31.1787 53.0755 31.1691 53.0758 31.159C53.0758 31.154 53.0748 31.1491 53.0729 31.1445C53.071 31.1399 53.0683 31.1357 53.0647 31.1322C53.0612 31.1287 53.057 31.1259 53.0525 31.124C53.0479 31.1221 53.0429 31.1211 53.038 31.1211C53.033 31.1211 53.0281 31.1221 53.0235 31.124C53.0189 31.1259 53.0147 31.1287 53.0112 31.1322C53.0077 31.1357 53.0049 31.1399 53.003 31.1445C53.0011 31.1491 53.0001 31.154 53.0001 31.159V31.1546Z" fill="#263238"/>
<path d="M53.1794 31.1328L53.1736 31.3614L53.0527 31.325L53.1794 31.1328Z" fill="#F28F8F"/>
<path d="M53.3457 31.6475C53.4433 31.6359 53.6369 31.5777 53.6733 31.502C53.6609 31.5419 53.6365 31.5769 53.6034 31.6024C53.5227 31.65 53.436 31.6867 53.3457 31.7116V31.6475Z" fill="#F28F8F"/>
<path d="M54.0326 32.8984L53.7676 33.2581L53.9306 33.1751L54.0326 32.8984Z" fill="#E0E0E0"/>
<path d="M41.319 39.1411C41.3843 38.7791 41.4029 38.4101 41.3744 38.0433C41.3737 38.0347 41.3702 38.0265 41.3646 38.02C41.3589 38.0134 41.3513 38.0088 41.3429 38.0069C41.3345 38.005 41.3256 38.0057 41.3177 38.0092C41.3097 38.0126 41.3031 38.0184 41.2987 38.0259L41.0177 38.5471C41.0177 38.5471 40.9842 38.9286 40.9492 39.1892C40.9236 39.4268 40.8749 39.6614 40.8036 39.8895C40.7911 39.9219 40.7673 39.9488 40.7367 39.9652C40.6691 40.0045 40.6078 40.0535 40.5547 40.1108C40.5052 40.1559 40.4644 40.1647 40.4702 40.1807C40.4777 40.1984 40.4916 40.2127 40.5092 40.2205C40.5268 40.2284 40.5467 40.2292 40.5649 40.2229C40.6053 40.2105 40.644 40.1929 40.6799 40.1705C40.6479 40.2398 40.6046 40.3033 40.5517 40.3583C40.4309 40.485 40.4207 40.5665 40.642 40.5854C40.7803 40.5971 40.8983 40.5199 41.0264 40.2215C41.0755 40.1124 41.1169 40 41.1502 39.8851C41.2361 39.5881 41.2826 39.3231 41.319 39.1411Z" fill="#B16668"/>
<path d="M42.6331 43.2773C42.6331 43.2773 42.6506 43.2773 42.7045 43.3108C42.7656 43.349 42.819 43.3984 42.8617 43.4564C42.8675 43.4987 42.8643 43.5417 42.8522 43.5826C42.8402 43.6235 42.8196 43.6614 42.7918 43.6938C42.7371 43.7761 42.7082 43.873 42.7088 43.9718C42.7041 44.0356 42.6862 44.0977 42.6561 44.1541C42.626 44.2105 42.5845 44.26 42.5341 44.2994C42.4438 44.362 42.3332 44.4261 42.2822 44.4101C42.2313 44.3941 42.2284 44.3315 42.2924 44.0548C42.3459 43.8725 42.3839 43.6859 42.406 43.4972L42.6331 43.2773Z" fill="#263238"/>
<path d="M42.5938 43.2246L42.6535 43.3047C42.6629 43.317 42.6695 43.3311 42.6727 43.3462C42.676 43.3614 42.6759 43.377 42.6724 43.392C42.6635 43.446 42.6356 43.4951 42.5938 43.5304C42.5699 43.5482 42.5405 43.557 42.5108 43.5551C42.4903 43.5536 42.4704 43.5477 42.4523 43.5379C42.4342 43.5282 42.4184 43.5147 42.406 43.4983L42.3594 43.4357L42.5938 43.2246Z" fill="#B16668"/>
<path d="M41.1464 39.7734L41.819 40.4461H41.8001L41.6458 41.6633C41.7678 41.7459 41.8718 41.8524 41.9515 41.9763C42.0797 42.1743 42.5893 43.2255 42.5893 43.2255C42.5893 43.2255 42.5296 43.46 42.3548 43.4367C42.3548 43.4367 42.084 43.0989 41.7928 42.7291C41.474 42.3228 41.1216 41.8831 41.1027 41.8031C41.0052 41.3663 41.1464 39.7734 41.1464 39.7734Z" fill="#455A64"/>
<path d="M41.9634 41.9746C42.0915 42.1726 42.6011 43.2238 42.6011 43.2238C42.6011 43.2238 42.5414 43.4582 42.3667 43.4349C42.3667 43.4349 42.0959 43.0972 41.8047 42.7273L41.9634 41.9746Z" fill="#37474F"/>
<path d="M41.9097 43.9737C41.8344 43.8998 41.7497 43.8362 41.6578 43.7844C41.6132 43.7814 41.5685 43.7814 41.5239 43.7844C41.4837 43.7844 41.4437 43.78 41.4045 43.7713C41.3241 43.7421 41.2462 43.7066 41.1715 43.665C41.1398 43.6457 41.1055 43.631 41.0696 43.6213C41.007 43.6097 40.9575 43.6082 40.9357 43.6781C40.9289 43.6992 40.9264 43.7215 40.9284 43.7436C40.9276 43.8084 40.9422 43.8724 40.9711 43.9304C40.9999 43.9884 41.0422 44.0386 41.0944 44.077C41.1424 44.1091 41.2065 44.1338 41.2574 44.1629C41.335 44.195 41.4096 44.234 41.4802 44.2794C41.585 44.3697 41.6826 44.4585 41.8296 44.4003C41.8589 44.3919 41.8856 44.3764 41.9072 44.355C41.9289 44.3336 41.9447 44.3071 41.9534 44.278C41.9738 44.2008 41.901 44.0552 41.9097 43.9737Z" fill="#263238"/>
<path d="M41.1528 39.668L42.5942 39.8136C42.6335 40.2296 42.5975 40.6493 42.4879 41.0526C42.3715 41.5753 42.2419 42.1242 42.2419 42.1242C42.3041 42.3262 42.3086 42.5415 42.255 42.7459C42.1429 43.1113 41.9347 44.0825 41.9347 44.0825C41.8684 43.9427 41.7519 43.8331 41.6085 43.7753C41.6085 43.7753 41.6609 43.2642 41.693 42.8944C41.725 42.5246 41.7439 42.2159 41.7556 41.9873C41.7745 41.6233 41.8269 40.4396 41.8269 40.4396H41.808C41.808 40.4396 41.2416 40.1717 41.1484 39.767L41.1528 39.668Z" fill="#455A64"/>
<path d="M41.819 40.4455C41.6562 40.3699 41.5048 40.2719 41.3691 40.1543L41.72 40.4819L41.656 41.5782L41.819 40.4455Z" fill="#37474F"/>
<path d="M41.6819 37.8848C41.4679 37.8848 41.2116 37.9532 41.1097 38.1498C41.0188 38.3994 40.9577 38.6589 40.9277 38.9229C40.9277 38.9229 41.0078 39.0961 41.3077 39.0758L41.6819 37.8848Z" fill="#263238"/>
<path d="M43.0723 39.4642C43.0126 38.8484 42.7899 38.3985 42.7637 38.2441L42.5831 39.0056C42.643 39.2066 42.6916 39.4107 42.7287 39.6171C42.773 39.8518 42.7945 40.0903 42.7928 40.3291C42.7901 40.3637 42.7751 40.3963 42.7506 40.4208C42.6971 40.4782 42.6529 40.5435 42.6195 40.6145C42.5846 40.6727 42.5482 40.6916 42.5584 40.7062C42.5706 40.7208 42.5879 40.7302 42.6068 40.7327C42.6257 40.7351 42.6448 40.7303 42.6603 40.7193C42.6956 40.6956 42.7278 40.6677 42.7564 40.6363C42.7465 40.7115 42.7249 40.7847 42.6923 40.8532C42.6137 41.009 42.6268 41.092 42.8379 41.0454C42.9748 41.0163 43.0651 40.9086 43.1015 40.5853C43.1168 40.4666 43.1241 40.3469 43.1233 40.2272C43.1146 39.9171 43.0898 39.6492 43.0723 39.4642Z" fill="#B16668"/>
<path d="M42.1205 37.8979C42.3739 37.959 42.7204 38.0435 42.8208 38.3143C42.9043 38.5764 42.9738 38.8427 43.029 39.1122C42.9737 39.1657 42.9064 39.2051 42.8326 39.2271C42.7589 39.2492 42.681 39.2532 42.6054 39.2388L42.5471 39.0335L42.5952 39.8183C42.3972 40.0352 41.576 40.0906 41.1465 39.7732C41.1465 39.7732 41.2207 38.6084 41.2207 38.3914C41.2166 38.3276 41.2254 38.2636 41.2465 38.2032C41.2677 38.1428 41.3008 38.0874 41.3439 38.0401C41.387 37.9928 41.4391 37.9546 41.4973 37.928C41.5554 37.9013 41.6183 37.8866 41.6823 37.8848L42.1205 37.8979Z" fill="#37474F"/>
<path d="M42.5461 39.0327L42.418 38.6309L42.5577 39.2322L42.5461 39.0327Z" fill="#263238"/>
<path d="M42.2146 36.7665C42.2374 36.764 42.2605 36.7667 42.2821 36.7742C42.3038 36.7818 42.3235 36.7941 42.3398 36.8102C42.3937 36.8655 42.382 36.9675 42.3398 37.2004L42.1738 37.2193L42.2146 36.7665Z" fill="#263238"/>
<path d="M41.2472 36.6996C41.2111 36.6997 41.1754 36.6922 41.1424 36.6777C41.0914 36.6486 41.0783 36.7068 41.106 36.7563C41.1245 36.7926 41.152 36.8234 41.186 36.8459C41.2199 36.8683 41.2591 36.8816 41.2996 36.8845L41.3462 36.7549L41.2472 36.6996Z" fill="#263238"/>
<path d="M42.1373 37.2197C42.1621 37.2342 42.197 37.1876 42.2276 37.1556C42.2395 37.1418 42.2547 37.1312 42.2718 37.125C42.2889 37.1187 42.3073 37.117 42.3253 37.1199C42.3433 37.1228 42.3602 37.1303 42.3745 37.1417C42.3887 37.153 42.3998 37.1679 42.4067 37.1847C42.4562 37.291 42.3412 37.4322 42.2742 37.4759C42.2556 37.4921 42.2323 37.502 42.2077 37.5041C42.1831 37.5062 42.1584 37.5004 42.1373 37.4876L42.1199 37.8938C42.0897 37.9587 42.0441 38.0153 41.987 38.0584C41.9298 38.1016 41.863 38.13 41.7923 38.1413C41.5535 38.1748 41.603 37.9782 41.6816 37.8807V37.7351C41.6223 37.7479 41.5613 37.7509 41.5011 37.7438C41.4319 37.6937 41.3784 37.6251 41.3467 37.5458C41.2449 37.3444 41.2225 37.1121 41.2841 36.895C41.3686 36.531 41.7602 36.5193 41.9932 36.6664C42.2262 36.8135 42.1373 37.2197 42.1373 37.2197Z" fill="#B16668"/>
<path d="M42.1368 37.2624C42.1485 37.2624 42.1951 37.1838 42.2271 37.1561C42.2591 37.1285 42.214 36.7674 42.214 36.7674C42.2259 36.73 42.2284 36.6902 42.2213 36.6516C42.2142 36.613 42.1977 36.5768 42.1732 36.5461C42.0888 36.4587 41.9272 36.4733 41.8078 36.4689C41.6618 36.4699 41.5172 36.4412 41.3827 36.3845C41.2138 36.3102 41.2007 36.3015 41.1803 36.3757C41.1637 36.4369 41.1615 36.501 41.1739 36.5632C41.1863 36.6253 41.2129 36.6838 41.2516 36.7339L41.3069 36.8242C41.3701 36.8617 41.4417 36.8828 41.5151 36.8853C41.6711 36.8842 41.826 36.8607 41.9752 36.8154C42.0204 36.8154 42.0306 36.8533 42.0553 36.9756C42.0801 37.0979 42.0946 37.261 42.1368 37.2624Z" fill="#263238"/>
<path d="M42.2153 36.7954L42.3609 36.7153C42.3563 36.7052 42.3496 36.6962 42.3414 36.6888C42.3332 36.6814 42.3235 36.6758 42.313 36.6723C42.3025 36.6687 42.2914 36.6673 42.2804 36.6682C42.2693 36.6691 42.2586 36.6722 42.2488 36.6774C42.2291 36.689 42.2147 36.7077 42.2085 36.7297C42.2022 36.7516 42.2047 36.7752 42.2153 36.7954Z" fill="#263238"/>
<path d="M41.6816 37.7376C41.7835 37.718 41.8834 37.6892 41.9801 37.6517C42.0253 37.6283 42.0624 37.5918 42.0864 37.5469C42.0749 37.5917 42.0546 37.6337 42.0267 37.6706C41.9699 37.7434 41.6816 37.7958 41.6816 37.7958V37.7376Z" fill="#9A4A4D"/>
<path d="M41.6719 37.2126C41.6719 37.2246 41.6767 37.2361 41.6851 37.2445C41.6936 37.253 41.7051 37.2577 41.717 37.2577C41.7278 37.2558 41.7375 37.2502 41.7446 37.2418C41.7516 37.2334 41.7554 37.2228 41.7554 37.2119C41.7554 37.2009 41.7516 37.1904 41.7446 37.182C41.7375 37.1736 41.7278 37.1679 41.717 37.166C41.711 37.166 41.705 37.1672 41.6994 37.1696C41.6938 37.1719 41.6888 37.1754 41.6846 37.1797C41.6804 37.1841 41.6771 37.1892 41.6749 37.1949C41.6727 37.2005 41.6717 37.2066 41.6719 37.2126Z" fill="#263238"/>
<path d="M41.7227 37.0455L41.8173 37.0979C41.8237 37.0846 41.8248 37.0695 41.8205 37.0554C41.8162 37.0414 41.8067 37.0295 41.794 37.0222C41.7878 37.0187 41.7811 37.0166 41.774 37.0159C41.767 37.0152 41.7599 37.016 41.7532 37.0181C41.7465 37.0203 41.7403 37.0239 41.7351 37.0286C41.7298 37.0333 41.7256 37.039 41.7227 37.0455Z" fill="#263238"/>
<path d="M41.7015 37.5039L41.5996 37.5418C41.6046 37.5554 41.6146 37.5665 41.6277 37.5728C41.6408 37.579 41.6558 37.5799 41.6695 37.5752C41.683 37.5697 41.6938 37.5592 41.6998 37.546C41.7057 37.5327 41.7063 37.5176 41.7015 37.5039Z" fill="#9A4A4D"/>
<path d="M41.2797 37.0825L41.3671 37.017C41.363 37.0111 41.3578 37.006 41.3517 37.0022C41.3456 36.9984 41.3388 36.9958 41.3317 36.9948C41.3246 36.9937 41.3174 36.994 41.3104 36.9959C41.3035 36.9977 41.297 37.0009 41.2913 37.0054C41.2799 37.0143 41.2723 37.0273 41.2702 37.0416C41.268 37.056 41.2714 37.0706 41.2797 37.0825Z" fill="#263238"/>
<path d="M41.3067 37.1989C41.3067 37.2105 41.3113 37.2216 41.3195 37.2298C41.3277 37.238 41.3388 37.2426 41.3503 37.2426C41.3619 37.2426 41.373 37.238 41.3812 37.2298C41.3894 37.2216 41.394 37.2105 41.394 37.1989C41.3942 37.193 41.3932 37.1871 41.3912 37.1815C41.3891 37.176 41.3859 37.1709 41.3818 37.1666C41.3778 37.1623 41.3729 37.1588 41.3675 37.1563C41.3621 37.1539 41.3563 37.1525 41.3503 37.1523C41.3444 37.1525 41.3386 37.1539 41.3332 37.1563C41.3278 37.1588 41.3229 37.1623 41.3188 37.1666C41.3148 37.1709 41.3116 37.176 41.3095 37.1815C41.3074 37.1871 41.3065 37.193 41.3067 37.1989Z" fill="#263238"/>
<path d="M41.515 37.1934L41.5558 37.4569L41.4102 37.4394L41.515 37.1934Z" fill="#9A4A4D"/>
<path d="M20.6755 36.7147C20.4917 36.7147 20.3154 36.6417 20.1854 36.5117C20.0554 36.3817 19.9824 36.2055 19.9824 36.0217V35.9925C19.9824 35.8381 20.0438 35.69 20.153 35.5807C20.2622 35.4715 20.4104 35.4102 20.5648 35.4102H20.7759C20.9304 35.4102 21.0785 35.4715 21.1877 35.5807C21.297 35.69 21.3583 35.8381 21.3583 35.9925V36.0217C21.3583 36.2037 21.2867 36.3785 21.1589 36.5081C21.0312 36.6378 20.8575 36.712 20.6755 36.7147Z" fill="#263238"/>
<path d="M21.1911 38.1342C21.0994 37.6698 20.9232 37.1573 20.932 36.9258L21.0674 36.9345C21.1483 36.9397 21.225 36.9722 21.285 37.0267C21.3451 37.0812 21.3849 37.1544 21.3979 37.2345C21.4459 37.5373 21.5202 37.9988 21.5435 38.1881C21.5738 38.4244 21.626 38.6574 21.6992 38.8841C21.7118 38.9166 21.7362 38.9432 21.7677 38.9583C21.8341 38.9985 21.8949 39.0475 21.9482 39.1039C21.9977 39.149 22.0385 39.1578 22.0327 39.1738C22.0252 39.1915 22.0113 39.2058 21.9937 39.2136C21.9761 39.2215 21.9562 39.2223 21.938 39.216C21.8978 39.203 21.8592 39.1854 21.823 39.1636C21.855 39.2329 21.8983 39.2964 21.9511 39.3514C22.072 39.4781 22.0822 39.5596 21.8609 39.5786C21.7153 39.5902 21.6046 39.513 21.4765 39.2146C21.4273 39.1055 21.386 38.9931 21.3527 38.8782C21.2814 38.5812 21.2275 38.3177 21.1911 38.1342Z" fill="#B16668"/>
<path d="M20.875 36.9195C21.0033 36.9072 21.1325 36.9277 21.2506 36.9792C21.2985 37.0069 21.3385 37.0463 21.367 37.0936C21.3955 37.141 21.4116 37.1948 21.4137 37.25C21.4414 37.3869 21.4865 37.7465 21.4865 37.7465C21.4865 37.7465 21.4108 37.9125 21.0745 37.844L20.875 36.9195Z" fill="#263238"/>
<path d="M19.9149 42.2715C19.9149 42.2715 19.8974 42.2715 19.8436 42.305C19.7824 42.3431 19.729 42.3925 19.6863 42.4506C19.6806 42.4928 19.6839 42.5358 19.6959 42.5767C19.708 42.6176 19.7285 42.6555 19.7562 42.6879C19.811 42.7703 19.8398 42.8671 19.8392 42.966C19.8439 43.0297 19.8618 43.0918 19.8919 43.1482C19.922 43.2047 19.9636 43.2542 20.0139 43.2936C20.1042 43.3562 20.2163 43.4202 20.2658 43.4042C20.3153 43.3882 20.3197 43.3256 20.2556 43.049C20.2021 42.8666 20.1641 42.6801 20.142 42.4913L19.9149 42.2715Z" fill="#263238"/>
<path d="M19.9544 42.2188L19.8947 42.2988C19.8853 42.3111 19.8787 42.3253 19.8754 42.3404C19.8722 42.3555 19.8723 42.3711 19.8757 42.3862C19.8847 42.4402 19.9125 42.4892 19.9544 42.5245C19.9782 42.5424 20.0076 42.5511 20.0373 42.5493C20.0578 42.5477 20.0778 42.5419 20.0958 42.5321C20.1139 42.5223 20.1297 42.5088 20.1422 42.4925L20.1888 42.4299L19.9544 42.2188Z" fill="#B16668"/>
<path d="M21.3684 38.791L21.0204 38.9221L20.7292 39.4404H20.7481L20.9025 40.6576C20.7804 40.7402 20.6764 40.8467 20.5967 40.9706C20.4686 41.1686 19.959 42.2198 19.959 42.2198C19.959 42.2198 20.0187 42.4542 20.1934 42.4309C20.1934 42.4309 20.4642 42.0932 20.7554 41.7233C21.0037 41.4287 21.2342 41.1195 21.4455 40.7973C21.5795 40.3256 21.3684 38.791 21.3684 38.791Z" fill="#240076"/>
<path d="M20.5908 40.9688C20.4627 41.1668 19.9531 42.218 19.9531 42.218C19.9531 42.218 20.0128 42.4524 20.1875 42.4291C20.1875 42.4291 20.4583 42.0913 20.7495 41.7215L20.5908 40.9688Z" fill="#240076"/>
<path opacity="0.2" d="M20.5908 40.9688C20.4627 41.1668 19.9531 42.218 19.9531 42.218C19.9531 42.218 20.0128 42.4524 20.1875 42.4291C20.1875 42.4291 20.4583 42.0913 20.7495 41.7215L20.5908 40.9688Z" fill="black"/>
<path d="M20.6349 42.9731C20.7187 42.9098 20.8108 42.8584 20.9086 42.8202C20.9535 42.8213 20.9982 42.8252 21.0426 42.8319C21.0822 42.8363 21.1223 42.8363 21.1619 42.8319C21.2458 42.8138 21.3281 42.7889 21.408 42.7576C21.4421 42.7422 21.4785 42.7324 21.5157 42.7285C21.5784 42.7285 21.6279 42.7285 21.641 42.8013C21.6446 42.8235 21.6446 42.8461 21.641 42.8683C21.634 42.9328 21.6118 42.9947 21.5761 43.0489C21.5403 43.1031 21.4922 43.148 21.4357 43.1799C21.3847 43.2046 21.3177 43.2221 21.2639 43.2425C21.1824 43.2641 21.103 43.2928 21.0265 43.3284C20.9115 43.4026 20.8023 43.474 20.6655 43.4012C20.6375 43.3895 20.613 43.3707 20.5943 43.3467C20.5757 43.3227 20.5636 43.2943 20.5592 43.2643C20.5402 43.1799 20.6334 43.0503 20.6349 42.9731Z" fill="#263238"/>
<path d="M21.3266 38.7266L19.9784 38.8125C19.8823 39.1197 19.8837 39.3949 19.99 39.9918C20.0667 40.3762 20.1718 40.7543 20.3045 41.1231C20.2431 41.3259 20.24 41.5418 20.2958 41.7462C20.4064 42.1117 20.6175 43.0362 20.6175 43.0362C20.7156 42.9449 20.8296 42.8723 20.9538 42.8222C20.9538 42.8222 20.8883 42.2646 20.8563 41.8948C20.8243 41.5249 20.8053 41.2163 20.7937 40.9877C20.7748 40.6237 20.7224 39.44 20.7224 39.44H20.7413C20.7413 39.44 21.2349 39.2594 21.3237 38.8576L21.3266 38.7266Z" fill="#240076"/>
<path opacity="0.2" d="M20.7246 39.4396C20.8873 39.3638 21.0387 39.2658 21.1745 39.1484L20.8251 39.476L20.8877 40.5724L20.7246 39.4396Z" fill="black"/>
<path d="M19.5159 38.4565C19.566 38.0461 19.6408 37.6391 19.7401 37.2378C19.7508 37.1785 19.7796 37.1239 19.8227 37.0816C19.8657 37.0394 19.9208 37.0116 19.9803 37.002C20.3632 37.2087 20.3603 37.4839 20.0342 37.8144C20.0342 37.8144 19.8973 38.3502 19.8551 38.6108C19.8107 38.8455 19.7893 39.0839 19.791 39.3228C19.7937 39.3574 19.8087 39.3899 19.8333 39.4145C19.8867 39.4719 19.9309 39.5372 19.9643 39.6081C19.9992 39.6664 20.0356 39.6853 20.0255 39.6999C20.0132 39.7145 19.9959 39.7239 19.9771 39.7264C19.9582 39.7288 19.9391 39.724 19.9235 39.713C19.8883 39.6893 19.856 39.6614 19.8274 39.63C19.8389 39.7049 19.862 39.7776 19.8959 39.8455C19.9745 40.0012 19.9614 40.0828 19.7503 40.0376C19.6134 40.0085 19.5231 39.9008 19.4867 39.5776C19.4714 39.4588 19.4641 39.3391 19.4649 39.2194C19.4736 38.9107 19.4984 38.6428 19.5159 38.4565Z" fill="#B16668"/>
<path d="M20.394 36.9345L19.9805 37.0029C20.3634 37.2723 20.0343 37.8154 20.0343 37.8154L20.2382 38.3817C20.137 38.5178 20.0507 38.6642 19.9805 38.8185C20.1057 38.9277 20.8541 39.1854 21.3695 38.7967C21.3695 38.7967 21.3403 38.5914 21.2792 38.2813C21.384 37.7775 21.4131 37.5999 21.3826 37.482C21.2967 37.15 21.1001 36.9389 20.8759 36.9258L20.394 36.9345Z" fill="#455A64"/>
<path d="M21.1443 35.6836C21.2171 35.7273 21.3074 35.9107 21.2987 36.2966C21.2914 36.6242 21.1851 36.7057 21.1312 36.7334C21.0468 36.7503 20.9597 36.7478 20.8764 36.7261V36.9183C20.8764 36.9183 21.0133 37.0784 21.0045 37.1687C20.9958 37.259 20.8065 37.2808 20.677 37.192C20.5831 37.1199 20.5024 37.0322 20.4382 36.9328V36.4815C20.4382 36.4815 20.3799 36.5382 20.2795 36.4523C20.2395 36.4237 20.2124 36.3804 20.204 36.332C20.1955 36.2835 20.2064 36.2337 20.2343 36.1932C20.2511 36.1784 20.2711 36.1676 20.2928 36.1618C20.3144 36.1559 20.3371 36.1552 20.3591 36.1595C20.3811 36.1639 20.4017 36.1733 20.4195 36.1869C20.4373 36.2006 20.4516 36.2182 20.4615 36.2383C20.5925 36.233 20.7202 36.1949 20.8327 36.1277C20.9161 36.0835 20.9877 36.0203 21.0419 35.9431C21.096 35.8659 21.1311 35.777 21.1443 35.6836Z" fill="#B16668"/>
<path d="M20.9311 36.2166C20.9311 36.2245 20.9288 36.2323 20.9244 36.2389C20.9201 36.2455 20.9139 36.2507 20.9066 36.2539C20.8993 36.257 20.8913 36.258 20.8834 36.2566C20.8756 36.2553 20.8684 36.2517 20.8626 36.2463C20.8568 36.2409 20.8527 36.2339 20.8508 36.2262C20.8489 36.2185 20.8493 36.2104 20.8519 36.2029C20.8546 36.1954 20.8594 36.1889 20.8657 36.184C20.872 36.1792 20.8796 36.1764 20.8875 36.1758C20.893 36.1756 20.8985 36.1765 20.9037 36.1785C20.9089 36.1804 20.9137 36.1833 20.9178 36.1871C20.9218 36.1909 20.9251 36.1955 20.9274 36.2005C20.9297 36.2056 20.931 36.211 20.9311 36.2166Z" fill="#263238"/>
<path d="M20.942 36.4941L21.0366 36.5233C21.0349 36.5298 21.032 36.5358 21.0279 36.5412C21.0238 36.5465 21.0186 36.5509 21.0128 36.5542C21.0069 36.5574 21.0005 36.5595 20.9938 36.5602C20.9871 36.5609 20.9804 36.5602 20.974 36.5582C20.9613 36.5539 20.9508 36.5447 20.9448 36.5328C20.9388 36.5208 20.9378 36.5069 20.942 36.4941Z" fill="#9A4A4D"/>
<path d="M21.2685 36.0884L21.1855 36.0316C21.1888 36.0258 21.1932 36.0208 21.1986 36.0169C21.2039 36.013 21.21 36.0102 21.2165 36.0088C21.2229 36.0075 21.2296 36.0075 21.2361 36.0089C21.2426 36.0103 21.2487 36.0131 21.254 36.017C21.2652 36.0247 21.273 36.0364 21.2757 36.0498C21.2784 36.0631 21.2758 36.0769 21.2685 36.0884Z" fill="#263238"/>
<path d="M21.2497 36.1921C21.2509 36.1982 21.2507 36.2045 21.2491 36.2105C21.2476 36.2165 21.2447 36.2221 21.2407 36.2269C21.2368 36.2317 21.2318 36.2355 21.2262 36.2382C21.2206 36.2408 21.2144 36.2422 21.2082 36.2422C21.202 36.2422 21.1959 36.2408 21.1903 36.2382C21.1847 36.2355 21.1797 36.2317 21.1757 36.2269C21.1718 36.2221 21.1689 36.2165 21.1674 36.2105C21.1658 36.2045 21.1656 36.1982 21.1667 36.1921C21.1663 36.1867 21.1671 36.1812 21.1688 36.176C21.1706 36.1708 21.1734 36.166 21.1771 36.1619C21.1808 36.1579 21.1852 36.1546 21.1902 36.1522C21.1952 36.1499 21.2006 36.1486 21.2061 36.1485C21.2118 36.1483 21.2176 36.1493 21.223 36.1514C21.2284 36.1535 21.2333 36.1567 21.2374 36.1608C21.2415 36.1649 21.2447 36.1698 21.2468 36.1752C21.2489 36.1806 21.2499 36.1863 21.2497 36.1921Z" fill="#263238"/>
<path d="M21.0547 36.1621L21.062 36.4096L21.1915 36.3703L21.0547 36.1621Z" fill="#9A4A4D"/>
<path d="M20.8748 36.7222C20.7685 36.7076 20.553 36.645 20.5195 36.5605C20.5325 36.6041 20.559 36.6424 20.5952 36.6697C20.6827 36.7214 20.7767 36.761 20.8748 36.7877V36.7222Z" fill="#9A4A4D"/>
<path d="M20.1289 38.0801L20.4172 38.4703L20.2381 38.3815L20.1289 38.0801Z" fill="#263238"/>
<path d="M20.2224 35.338C20.277 35.369 20.3209 35.416 20.348 35.4726C20.3751 35.5293 20.3842 35.5929 20.3741 35.6549C20.3639 35.7169 20.335 35.7743 20.2912 35.8194C20.2474 35.8644 20.1909 35.895 20.1292 35.9069C20.0675 35.9188 20.0037 35.9115 19.9462 35.8861C19.8888 35.8606 19.8406 35.8181 19.8081 35.7643C19.7755 35.7106 19.7603 35.6482 19.7643 35.5855C19.7684 35.5228 19.7915 35.4628 19.8307 35.4137C19.8741 35.3536 19.9388 35.3123 20.0115 35.2983C20.0843 35.2842 20.1597 35.2984 20.2224 35.338Z" fill="#263238"/>
<path d="M19.9779 37.002C19.9182 37.0165 19.7653 37.002 19.6867 37.3048C19.6081 37.6076 19.5586 37.8988 19.5586 37.8988C19.6116 37.9595 19.6811 38.0035 19.7586 38.0255C19.8362 38.0474 19.9184 38.0464 19.9954 38.0226C19.9954 38.0226 20.0944 37.7197 20.1585 37.5203C20.2225 37.3208 20.1876 37.0748 19.9779 37.002Z" fill="#263238"/>
<path d="M9.9196 32.0466C9.85867 31.7076 9.84106 31.3622 9.86718 31.0187C9.86753 31.0104 9.87061 31.0024 9.87595 30.996C9.88129 30.9896 9.88858 30.9852 9.89671 30.9833C9.90484 30.9815 9.91334 30.9824 9.9209 30.9859C9.92846 30.9894 9.93465 30.9953 9.93852 31.0027L10.2021 31.4904C10.2021 31.4904 10.2326 31.8486 10.2661 32.0932C10.2892 32.3156 10.3345 32.5351 10.4015 32.7484C10.4132 32.7789 10.4354 32.8042 10.4641 32.8197C10.5276 32.857 10.585 32.9036 10.6345 32.9581C10.6811 33.0003 10.7189 33.009 10.7146 33.0236C10.7072 33.0399 10.694 33.0529 10.6777 33.0602C10.6613 33.0675 10.6428 33.0684 10.6257 33.0629C10.5876 33.0511 10.551 33.035 10.5165 33.0148C10.5473 33.0791 10.5881 33.1381 10.6374 33.1895C10.751 33.3089 10.7611 33.3861 10.5529 33.4036C10.4219 33.4152 10.3127 33.3424 10.1919 33.0629C10.1462 32.9602 10.1073 32.8547 10.0754 32.7469C10.004 32.4659 9.95454 32.2184 9.9196 32.0466Z" fill="#FFA8A7"/>
<path d="M9.58008 30.8672C9.77955 30.8672 10.0169 30.9313 10.1159 31.1147C10.201 31.3499 10.2581 31.5942 10.2862 31.8427C10.2862 31.8427 10.2105 32.0058 9.93097 31.9883L9.58008 30.8672Z" fill="#240076"/>
<path opacity="0.2" d="M9.58008 30.8672C9.77955 30.8672 10.0169 30.9313 10.1159 31.1147C10.201 31.3499 10.2581 31.5942 10.2862 31.8427C10.2862 31.8427 10.2105 32.0058 9.93097 31.9883L9.58008 30.8672Z" fill="black"/>
<path d="M7.98551 35.7829C7.93601 35.7582 7.90398 35.8208 7.85884 35.8717C7.81966 35.9084 7.78972 35.9538 7.77148 36.0042C7.77251 36.044 7.78216 36.0831 7.79975 36.1188C7.81735 36.1545 7.84247 36.1859 7.8734 36.211C7.90981 36.2335 7.94141 36.2629 7.9664 36.2976C7.99139 36.3324 8.00926 36.3717 8.019 36.4134C8.02426 36.4658 8.04449 36.5157 8.07727 36.557C8.11005 36.5983 8.15401 36.6293 8.20391 36.6463C8.26109 36.6703 8.32246 36.6826 8.38445 36.6826C8.44644 36.6826 8.50781 36.6703 8.56499 36.6463C8.63487 36.6012 8.56499 36.5517 8.47326 36.4119C8.34659 36.2299 8.24759 36.0989 8.24759 35.9285L7.98551 35.7829Z" fill="#263238"/>
<path d="M8.08701 35.6348L7.98218 35.7876C7.97101 35.8033 7.96304 35.821 7.95875 35.8397C7.95446 35.8585 7.95392 35.8779 7.95717 35.8968C7.96042 35.9158 7.96739 35.9339 7.97768 35.9502C7.98797 35.9664 8.00137 35.9804 8.01712 35.9915C8.04884 36.0104 8.08621 36.0176 8.12268 36.0117C8.15915 36.0059 8.1924 35.9874 8.21659 35.9594L8.38111 35.7818L8.08701 35.6348Z" fill="#FFA8A7"/>
<path d="M10.012 32.6367C10.012 32.8333 9.96254 33.6239 9.82713 33.9733C9.69173 34.3227 9.61456 34.5411 9.57234 34.6139C9.53011 34.6867 8.30419 35.8806 8.30419 35.8806C8.24579 35.8757 8.19059 35.8518 8.14697 35.8127C8.10335 35.7735 8.0737 35.7212 8.0625 35.6637C8.0625 35.6637 8.56481 34.809 8.67401 34.6343C8.81741 34.4644 8.98349 34.315 9.16758 34.1902L9.13264 32.66L10.012 32.6367Z" fill="#37474F"/>
<path d="M9.74352 36.8066L10.002 36.748L9.91635 36.3703L9.65792 36.4289L9.74352 36.8066Z" fill="#FFA8A7"/>
<path d="M10.0128 32.6367H8.7694C8.74271 32.8186 8.72715 33.0019 8.72281 33.1856C8.71262 33.7243 9.21493 34.7027 9.21493 34.7027C9.19001 34.9205 9.20083 35.1408 9.24696 35.355C9.36272 35.7473 9.49929 36.1332 9.65608 36.5111C9.70603 36.5185 9.75699 36.515 9.80549 36.501C9.85399 36.4869 9.89887 36.4625 9.93709 36.4295C9.93709 36.4295 9.77111 34.9546 9.72597 34.5761C9.67792 34.1669 9.55417 33.42 9.55417 33.42C9.63619 33.338 9.71074 33.2488 9.77693 33.1536C9.89196 33.0004 9.97243 32.824 10.0128 32.6367Z" fill="#37474F"/>
<path d="M8.27617 32.348C8.33295 31.7729 8.54116 31.3507 8.56737 31.2051L8.73771 31.9185C8.67836 32.1073 8.62975 32.2993 8.59212 32.4936C8.5501 32.7134 8.52962 32.9367 8.53097 33.1604C8.53381 33.1926 8.5483 33.2227 8.57173 33.2449C8.62274 33.2986 8.66499 33.36 8.69695 33.4269C8.73043 33.4808 8.76392 33.4997 8.75519 33.5113C8.74377 33.5252 8.72753 33.5343 8.70971 33.5367C8.69189 33.5392 8.67381 33.5348 8.65909 33.5244C8.62614 33.5017 8.59585 33.4753 8.56882 33.4458C8.57913 33.5163 8.60077 33.5846 8.63288 33.6482C8.70714 33.7938 8.69549 33.8724 8.48729 33.8287C8.35916 33.8011 8.27472 33.7006 8.24123 33.3919C8.22642 33.2805 8.21961 33.1681 8.22085 33.0556C8.23686 32.7746 8.26016 32.5227 8.27617 32.348Z" fill="#FFA8A7"/>
<path d="M9.1696 30.8788C8.93082 30.9371 8.60614 31.0113 8.51151 31.269C8.43398 31.5151 8.36886 31.7648 8.31641 32.0174C8.36854 32.0672 8.43174 32.1041 8.50082 32.1248C8.5699 32.1455 8.64291 32.1497 8.71389 32.1368L8.76921 31.9432V32.6362C8.95558 32.84 9.60494 32.9347 10.0126 32.6362V31.3418C10.0166 31.2817 10.0082 31.2213 9.98818 31.1644C9.96812 31.1075 9.93672 31.0553 9.89588 31.011C9.85504 30.9666 9.80561 30.931 9.75059 30.9062C9.69558 30.8815 9.63612 30.8682 9.57582 30.8672L9.1696 30.8788Z" fill="#240076"/>
<path opacity="0.2" d="M8.76953 31.944L8.88892 31.5684L8.76953 32.1129V31.944Z" fill="black"/>
<path d="M10.056 30.009C10.0568 30.0829 10.0357 30.1554 9.9953 30.2172C9.95487 30.2791 9.89696 30.3276 9.82894 30.3564C9.76091 30.3853 9.68584 30.3933 9.61325 30.3794C9.54066 30.3656 9.47384 30.3304 9.42127 30.2785C9.36871 30.2265 9.33277 30.1601 9.31804 30.0877C9.3033 30.0153 9.31042 29.9401 9.3385 29.8717C9.36657 29.8034 9.41434 29.7449 9.47573 29.7038C9.53711 29.6626 9.60935 29.6406 9.68325 29.6406C9.78135 29.6406 9.8755 29.6793 9.94527 29.7482C10.0151 29.8172 10.0548 29.9109 10.056 30.009Z" fill="#263238"/>
<path d="M9.0782 29.8211C9.05699 29.8189 9.03556 29.8214 9.01543 29.8285C8.9953 29.8355 8.97697 29.8469 8.96173 29.8618C8.91077 29.9142 8.92241 30.0074 8.96173 30.2273L9.11751 30.2462L9.0782 29.8211Z" fill="#263238"/>
<path d="M9.15202 30.2471C9.13018 30.2602 9.09669 30.2165 9.06757 30.1859C9.0563 30.1733 9.04202 30.1637 9.02605 30.1581C9.01008 30.1524 8.99295 30.1509 8.97625 30.1537C8.95954 30.1565 8.94381 30.1634 8.9305 30.1739C8.91719 30.1843 8.90675 30.198 8.90014 30.2136C8.85355 30.3126 8.95983 30.4451 9.02389 30.4888C9.04116 30.5042 9.06295 30.5137 9.08603 30.5158C9.10911 30.5179 9.13225 30.5125 9.15202 30.5004L9.16949 30.8804C9.19737 30.9414 9.23986 30.9946 9.29319 31.0352C9.34652 31.0758 9.40905 31.1027 9.47524 31.1134C9.69946 31.1439 9.65287 30.959 9.58007 30.8688V30.7305C9.63602 30.7425 9.69354 30.7454 9.75042 30.7392C9.81517 30.6916 9.86555 30.6271 9.89602 30.5528C9.99121 30.364 10.0125 30.1465 9.95571 29.9428C9.87564 29.6021 9.50873 29.5919 9.29034 29.7287C9.07194 29.8656 9.15202 30.2471 9.15202 30.2471Z" fill="#FFA8A7"/>
<path d="M9.15157 30.284C9.14138 30.284 9.09625 30.2112 9.06713 30.185C9.03801 30.1588 9.07877 29.821 9.07877 29.821C9.06804 29.786 9.066 29.7488 9.07285 29.7128C9.0797 29.6768 9.09523 29.643 9.11809 29.6143C9.19671 29.5313 9.34958 29.5458 9.46024 29.5415C9.62725 29.533 9.79466 29.5369 9.96109 29.5531C9.98918 29.5524 10.0164 29.5629 10.0368 29.5822C10.0436 29.5935 10.0479 29.6061 10.0494 29.6192C10.0509 29.6322 10.0496 29.6454 10.0455 29.658C10.0301 29.7311 9.99137 29.7972 9.93522 29.8466C9.87907 29.8959 9.80847 29.9258 9.73396 29.9317C9.58595 29.9312 9.43881 29.9091 9.29717 29.8662C9.25495 29.8662 9.24621 29.9011 9.22292 30.0118C9.19962 30.1224 9.19088 30.284 9.15157 30.284Z" fill="#263238"/>
<path d="M9.08114 29.8463L8.93555 29.772C8.94004 29.7628 8.94633 29.7545 8.95407 29.7477C8.96181 29.7409 8.97083 29.7357 8.98059 29.7325C8.99036 29.7292 9.00069 29.728 9.01095 29.7287C9.02122 29.7295 9.03123 29.7324 9.04038 29.7371C9.06016 29.7463 9.07553 29.7629 9.08316 29.7833C9.09079 29.8038 9.09006 29.8264 9.08114 29.8463Z" fill="#263238"/>
<path d="M9.57777 30.7299C9.48286 30.7116 9.38979 30.6848 9.29968 30.6498C9.25677 30.628 9.22167 30.5934 9.19922 30.5508C9.20994 30.5931 9.22927 30.6327 9.256 30.6673C9.30842 30.7357 9.57777 30.7852 9.57777 30.7852V30.7299Z" fill="#F28F8F"/>
<path d="M9.58567 30.2375C9.58682 30.2436 9.58661 30.2499 9.58505 30.2559C9.5835 30.2619 9.58064 30.2675 9.57668 30.2723C9.57271 30.2771 9.56775 30.2809 9.56213 30.2836C9.55651 30.2862 9.55038 30.2876 9.54418 30.2876C9.53797 30.2876 9.53184 30.2862 9.52622 30.2836C9.52061 30.2809 9.51564 30.2771 9.51168 30.2723C9.50771 30.2675 9.50485 30.2619 9.5033 30.2559C9.50174 30.2499 9.50153 30.2436 9.50268 30.2375C9.50153 30.2314 9.50174 30.2252 9.5033 30.2191C9.50485 30.2131 9.50771 30.2075 9.51168 30.2028C9.51564 30.198 9.52061 30.1941 9.52622 30.1915C9.53184 30.1889 9.53797 30.1875 9.54418 30.1875C9.55038 30.1875 9.55651 30.1889 9.56213 30.1915C9.56775 30.1941 9.57271 30.198 9.57668 30.2028C9.58064 30.2075 9.5835 30.2131 9.58505 30.2191C9.58661 30.2252 9.58682 30.2314 9.58567 30.2375Z" fill="#263238"/>
<path d="M9.5422 30.0768L9.45339 30.1263C9.44699 30.1141 9.44555 30.0998 9.44934 30.0866C9.45313 30.0733 9.46188 30.062 9.47377 30.055C9.47966 30.0517 9.48615 30.0497 9.49283 30.0491C9.49952 30.0484 9.50628 30.0491 9.51268 30.0512C9.51908 30.0532 9.525 30.0565 9.53008 30.0609C9.53515 30.0654 9.53928 30.0707 9.5422 30.0768Z" fill="#263238"/>
<path d="M9.56044 30.5137L9.65508 30.5486C9.65295 30.5551 9.64955 30.561 9.64509 30.5662C9.64062 30.5713 9.63517 30.5754 9.62907 30.5784C9.62296 30.5814 9.61632 30.5831 9.60954 30.5835C9.60275 30.5839 9.59596 30.5829 9.58956 30.5806C9.5832 30.5782 9.57738 30.5746 9.57245 30.5699C9.56752 30.5652 9.56358 30.5595 9.56087 30.5533C9.55815 30.5471 9.55672 30.5403 9.55664 30.5335C9.55657 30.5267 9.55786 30.52 9.56044 30.5137Z" fill="#F28F8F"/>
<path d="M9.95458 30.1158L9.87305 30.0532C9.87682 30.0476 9.88171 30.0428 9.88741 30.0391C9.89311 30.0354 9.8995 30.033 9.90619 30.0319C9.91288 30.0308 9.91972 30.0311 9.92629 30.0328C9.93286 30.0344 9.93902 30.0374 9.94439 30.0415C9.95482 30.0506 9.9616 30.0631 9.96348 30.0768C9.96535 30.0904 9.96219 30.1043 9.95458 30.1158Z" fill="#263238"/>
<path d="M9.93333 30.2219C9.93447 30.228 9.93426 30.2343 9.93271 30.2403C9.93115 30.2463 9.92829 30.2519 9.92433 30.2567C9.92037 30.2614 9.9154 30.2653 9.90979 30.2679C9.90417 30.2706 9.89804 30.2719 9.89183 30.2719C9.88563 30.2719 9.8795 30.2706 9.87388 30.2679C9.86826 30.2653 9.86329 30.2614 9.85933 30.2567C9.85537 30.2519 9.85251 30.2463 9.85096 30.2403C9.8494 30.2343 9.84919 30.228 9.85034 30.2219C9.84919 30.2158 9.8494 30.2095 9.85096 30.2035C9.85251 30.1975 9.85537 30.1919 9.85933 30.1871C9.86329 30.1824 9.86826 30.1785 9.87388 30.1759C9.8795 30.1732 9.88563 30.1719 9.89183 30.1719C9.89804 30.1719 9.90417 30.1732 9.90979 30.1759C9.9154 30.1785 9.92037 30.1824 9.92433 30.1871C9.92829 30.1919 9.93115 30.1975 9.93271 30.2035C9.93426 30.2095 9.93447 30.2158 9.93333 30.2219Z" fill="#263238"/>
<path d="M9.73462 30.2207L9.69531 30.4668L9.83217 30.4507L9.73462 30.2207Z" fill="#F28F8F"/>
<path d="M9.97105 36.6199L9.96231 36.582C9.98997 36.582 10.1079 36.78 10.2215 36.8645C10.335 36.9489 10.4573 37.0101 10.5127 37.0523C10.568 37.0945 10.4792 37.2212 10.2928 37.2314C10.1841 37.2378 10.0759 37.2125 9.98124 37.1586C9.92882 37.1106 9.89097 37.029 9.8502 36.9926C9.80943 36.9562 9.72644 36.9271 9.7046 36.882C9.68695 36.8356 9.68143 36.7855 9.68859 36.7364C9.68859 36.6883 9.68859 36.6344 9.70752 36.6359V36.6636C9.75619 36.6882 9.81025 36.7002 9.86476 36.6985C9.91135 36.7029 9.99289 36.6927 9.97105 36.6199Z" fill="#263238"/>
<path d="M9.69247 34.3264C9.69247 34.3264 9.58182 33.5431 9.54688 33.4208C9.63547 33.3731 9.71766 33.3144 9.79148 33.2461C9.74025 33.3195 9.68432 33.3896 9.62404 33.4558L9.69247 34.3264Z" fill="#263238"/>
<path d="M9.02734 34.2988C9.08088 34.4371 9.14312 34.5718 9.21371 34.7021C9.21371 34.7021 9.19915 34.954 9.20206 35.005L9.13217 35.0647C9.13047 34.9508 9.14072 34.8371 9.16275 34.7254C9.10237 34.5885 9.05698 34.4455 9.02734 34.2988Z" fill="#263238"/>
</svg>
