<svg width="64" height="64" viewBox="0 0 64 64" fill="none" xmlns="http://www.w3.org/2000/svg">
<path d="M17.1528 26.5703C17.1526 26.4723 17.1233 26.3767 17.0687 26.2954C17.0141 26.2141 16.9367 26.1508 16.8461 26.1135C16.7556 26.0762 16.6561 26.0666 16.56 26.0858C16.464 26.1051 16.3759 26.1524 16.3067 26.2217C16.2376 26.291 16.1905 26.3793 16.1715 26.4754C16.1525 26.5714 16.1624 26.671 16.1999 26.7614C16.2375 26.8518 16.301 26.9291 16.3824 26.9835C16.4638 27.0379 16.5596 27.0669 16.6575 27.0669C16.7226 27.0669 16.7871 27.054 16.8473 27.0291C16.9075 27.0041 16.9622 26.9675 17.0082 26.9214C17.0542 26.8752 17.0907 26.8205 17.1155 26.7602C17.1403 26.7 17.153 26.6354 17.1528 26.5703Z" fill="#C9C9C9"/>
<path d="M20.9093 26.5689C20.9093 26.4706 20.8801 26.3746 20.8255 26.2929C20.7709 26.2112 20.6932 26.1475 20.6024 26.1099C20.5116 26.0724 20.4117 26.0626 20.3153 26.0819C20.2189 26.1012 20.1304 26.1486 20.061 26.2182C19.9916 26.2878 19.9444 26.3764 19.9254 26.4728C19.9064 26.5692 19.9164 26.6691 19.9542 26.7598C19.992 26.8506 20.0558 26.928 20.1377 26.9825C20.2195 27.0369 20.3157 27.0658 20.4139 27.0655C20.4791 27.0655 20.5436 27.0527 20.6038 27.0277C20.664 27.0027 20.7186 26.9661 20.7647 26.92C20.8107 26.8739 20.8471 26.8191 20.872 26.7589C20.8968 26.6986 20.9095 26.6341 20.9093 26.5689Z" fill="#C9C9C9"/>
<path d="M18.9542 28.7759C18.9542 28.6777 18.9251 28.5816 18.8704 28.4999C18.8158 28.4182 18.7382 28.3545 18.6473 28.317C18.5565 28.2794 18.4566 28.2697 18.3602 28.2889C18.2638 28.3082 18.1754 28.3556 18.1059 28.4252C18.0365 28.4948 17.9893 28.5834 17.9703 28.6798C17.9513 28.7763 17.9613 28.8762 17.9991 28.9669C18.0369 29.0576 18.1008 29.1351 18.1826 29.1895C18.2644 29.2439 18.3606 29.2728 18.4589 29.2726C18.524 29.2726 18.5885 29.2597 18.6487 29.2347C18.7089 29.2098 18.7636 29.1732 18.8096 29.127C18.8556 29.0809 18.8921 29.0261 18.9169 28.9659C18.9417 28.9056 18.9544 28.8411 18.9542 28.7759Z" fill="#C9C9C9"/>
<path d="M22.4132 28.7759C22.4132 28.6777 22.3841 28.5817 22.3295 28.5C22.2749 28.4183 22.1974 28.3547 22.1066 28.3171C22.0159 28.2795 21.916 28.2697 21.8197 28.2888C21.7233 28.308 21.6348 28.3553 21.5654 28.4248C21.4959 28.4942 21.4486 28.5827 21.4295 28.679C21.4103 28.7754 21.4201 28.8752 21.4577 28.966C21.4953 29.0567 21.559 29.1343 21.6406 29.1889C21.7223 29.2435 21.8183 29.2726 21.9166 29.2726C22.0483 29.2726 22.1746 29.2203 22.2677 29.1271C22.3609 29.034 22.4132 28.9077 22.4132 28.7759Z" fill="#C9C9C9"/>
<path d="M22.4132 32.1835C22.4135 32.0852 22.3845 31.989 22.3301 31.9072C22.2757 31.8254 22.1982 31.7615 22.1075 31.7237C22.0168 31.6859 21.9169 31.6759 21.8205 31.6949C21.724 31.714 21.6354 31.7612 21.5658 31.8306C21.4963 31.9 21.4488 31.9885 21.4296 32.0848C21.4103 32.1812 21.4201 32.2811 21.4576 32.3719C21.4952 32.4628 21.5588 32.5404 21.6405 32.595C21.7222 32.6497 21.8183 32.6788 21.9166 32.6788C22.0481 32.6788 22.1742 32.6267 22.2673 32.5338C22.3604 32.441 22.4129 32.315 22.4132 32.1835Z" fill="#C9C9C9"/>
<path d="M15.3878 32.1835C15.3881 32.0851 15.3591 31.9889 15.3046 31.9071C15.2502 31.8252 15.1726 31.7613 15.0818 31.7236C14.991 31.6858 14.8911 31.6759 14.7946 31.695C14.6981 31.7141 14.6095 31.7615 14.54 31.831C14.4705 31.9005 14.4231 31.9892 14.404 32.0856C14.3849 32.1821 14.3948 32.282 14.4326 32.3728C14.4703 32.4636 14.5342 32.5412 14.6161 32.5957C14.6979 32.6501 14.7941 32.6791 14.8924 32.6788C15.0237 32.6785 15.1495 32.6262 15.2423 32.5334C15.3352 32.4405 15.3875 32.3147 15.3878 32.1835Z" fill="#C9C9C9"/>
<path d="M25.5714 28.7759C25.5714 28.6777 25.5423 28.5817 25.4877 28.5C25.4331 28.4183 25.3556 28.3547 25.2648 28.3171C25.1741 28.2795 25.0742 28.2697 24.9779 28.2888C24.8815 28.308 24.793 28.3553 24.7236 28.4248C24.6541 28.4942 24.6068 28.5827 24.5877 28.679C24.5685 28.7754 24.5783 28.8752 24.6159 28.966C24.6535 29.0567 24.7172 29.1343 24.7988 29.1889C24.8805 29.2435 24.9765 29.2726 25.0748 29.2726C25.2065 29.2726 25.3328 29.2203 25.4259 29.1271C25.5191 29.034 25.5714 28.9077 25.5714 28.7759Z" fill="#C9C9C9"/>
<path d="M25.5714 32.0318C25.5714 31.9336 25.5423 31.8376 25.4877 31.7559C25.4331 31.6742 25.3556 31.6106 25.2648 31.573C25.1741 31.5354 25.0742 31.5255 24.9779 31.5447C24.8815 31.5639 24.793 31.6112 24.7236 31.6806C24.6541 31.7501 24.6068 31.8386 24.5877 31.9349C24.5685 32.0312 24.5783 32.1311 24.6159 32.2219C24.6535 32.3126 24.7172 32.3902 24.7988 32.4447C24.8805 32.4993 24.9765 32.5284 25.0748 32.5284C25.2065 32.5284 25.3328 32.4761 25.4259 32.383C25.5191 32.2898 25.5714 32.1635 25.5714 32.0318Z" fill="#C9C9C9"/>
<path d="M25.5714 37.2596C25.5717 37.1614 25.5427 37.0652 25.4883 36.9834C25.4339 36.9015 25.3564 36.8377 25.2657 36.7999C25.175 36.7621 25.0751 36.7521 24.9787 36.7711C24.8822 36.7901 24.7936 36.8373 24.724 36.9067C24.6545 36.9761 24.607 37.0646 24.5878 37.161C24.5685 37.2574 24.5783 37.3573 24.6158 37.4481C24.6534 37.5389 24.717 37.6166 24.7987 37.6712C24.8804 37.7258 24.9765 37.755 25.0748 37.755C25.2063 37.755 25.3324 37.7029 25.4255 37.61C25.5186 37.5171 25.5711 37.3911 25.5714 37.2596Z" fill="#C9C9C9"/>
<path d="M25.1579 32.0516L24.9083 31.9966L24.9467 31.8187V28.9028H18.3982L16.3848 26.4414H20.4142V26.6974H16.9249L18.5198 28.6468H25.2027L25.2001 31.8596L25.1579 32.0516Z" fill="#C9C9C9"/>
<path d="M25.3036 37.4243H11.998V37.1684H25.0476V32.312H21.7888V28.7754H22.0448V32.056H25.3036V37.4243Z" fill="#C9C9C9"/>
<path d="M14.9767 37.297H14.7207V32.0566H21.9169V32.3126H14.9767V37.297Z" fill="#C9C9C9"/>
<path d="M58.6674 37.6758H38.7852V38.87H58.6674V37.6758Z" fill="#C9C9C9"/>
<path d="M53.2821 38.3301H52.3887V49.8309H53.2821V38.3301Z" fill="#C9C9C9"/>
<path d="M30.6205 37.6758H10.7383V38.87H30.6205V37.6758Z" fill="#C9C9C9"/>
<path d="M25.2352 38.3301H24.3418V49.8309H25.2352V38.3301Z" fill="#C9C9C9"/>
<path d="M13.4794 38.3301H12.5859V49.8309H13.4794V38.3301Z" fill="#C9C9C9"/>
<path d="M49.047 36.9767L47.7452 34.6599V33.0675C47.7928 33.0488 47.8323 33.014 47.8571 32.9693C47.8818 32.9245 47.8902 32.8726 47.8808 32.8223C47.8714 32.7721 47.8449 32.7266 47.8056 32.6938C47.7664 32.661 47.717 32.6429 47.6658 32.6426H46.3039C46.2528 32.6429 46.2034 32.661 46.1641 32.6938C46.1249 32.7266 46.0983 32.7721 46.0889 32.8223C46.0795 32.8726 46.0879 32.9245 46.1127 32.9693C46.1374 33.014 46.177 33.0488 46.2246 33.0675V34.6035L44.9177 36.9933C44.8709 37.0841 44.8483 37.1854 44.852 37.2875C44.8556 37.3895 44.8855 37.4889 44.9388 37.5761C44.992 37.6633 45.0668 37.7353 45.1559 37.7852C45.245 37.8351 45.3455 37.8613 45.4476 37.8611H48.5196C48.6237 37.862 48.7263 37.8356 48.817 37.7846C48.9078 37.7335 48.9836 37.6596 49.037 37.5701C49.0903 37.4807 49.1193 37.3789 49.121 37.2747C49.1228 37.1706 49.0972 37.0678 49.047 36.9767Z" fill="#C9C9C9"/>
<path d="M42.5502 36.9767L41.2472 34.6599V33.0675C41.2947 33.0488 41.3343 33.014 41.359 32.9693C41.3838 32.9245 41.3922 32.8726 41.3828 32.8223C41.3734 32.7721 41.3468 32.7266 41.3076 32.6938C41.2684 32.661 41.2189 32.6429 41.1678 32.6426H39.8084C39.7572 32.6426 39.7076 32.6605 39.6681 32.6932C39.6287 32.7259 39.6018 32.7713 39.5923 32.8217C39.5827 32.872 39.591 32.9241 39.6158 32.969C39.6405 33.0139 39.6801 33.0487 39.7278 33.0675V34.6035L38.4196 36.9933C38.3728 37.0841 38.3502 37.1854 38.3539 37.2875C38.3576 37.3895 38.3875 37.4889 38.4407 37.5761C38.494 37.6633 38.5687 37.7353 38.6578 37.7852C38.747 37.8351 38.8474 37.8613 38.9496 37.8611H42.0216C42.1258 37.8622 42.2285 37.836 42.3194 37.785C42.4104 37.7341 42.4864 37.6602 42.5399 37.5707C42.5933 37.4812 42.6224 37.3793 42.6243 37.2751C42.6261 37.1708 42.6005 37.0679 42.5502 36.9767Z" fill="#C9C9C9"/>
<path d="M47.0526 33.319H47.0296C47.0122 33.3166 46.9954 33.3106 46.9804 33.3014C46.9654 33.2922 46.9525 33.28 46.9424 33.2656C46.9323 33.2512 46.9253 33.2349 46.9218 33.2176C46.9183 33.2004 46.9184 33.1826 46.9221 33.1654C47.0501 32.4153 46.6661 31.5014 45.9467 30.8806C45.2696 30.2931 44.4542 30.0972 43.7093 30.3404C43.383 30.4467 43.1046 30.6647 42.9234 30.9561H42.9682C43.7989 30.8512 44.1586 31.1481 44.3134 31.4156C44.5285 31.7881 44.4619 32.3372 44.1496 32.7494C43.8936 33.0899 43.5352 33.2409 43.1909 33.1552C42.7147 33.0348 42.4062 32.5792 42.3845 31.9673C42.3789 31.7508 42.4078 31.5347 42.4702 31.3273C40.9752 31.7356 40.7986 32.8928 40.7909 32.9465C40.7863 32.9813 40.7681 33.0129 40.7402 33.0342C40.7124 33.0556 40.6772 33.065 40.6424 33.0604C40.6076 33.0559 40.5761 33.0376 40.5547 33.0098C40.5333 32.9819 40.5239 32.9468 40.5285 32.912C40.5285 32.8966 40.7435 31.4336 42.5867 31.0252C42.6875 30.8075 42.8318 30.6127 43.0108 30.4528C43.1898 30.293 43.3996 30.1715 43.6274 30.096C44.4619 29.8233 45.3707 30.0384 46.1208 30.6886C46.9144 31.3747 47.3317 32.368 47.1832 33.2192C47.1766 33.2485 47.1599 33.2745 47.1361 33.2928C47.1122 33.3111 47.0827 33.3203 47.0526 33.319ZM42.7749 31.248C42.685 31.4715 42.6415 31.711 42.6469 31.952C42.6597 32.336 42.8261 32.7827 43.2523 32.8902C43.5928 32.976 43.8424 32.7046 43.9333 32.583C44.1445 32.304 44.2622 31.8572 44.0792 31.5424C43.9154 31.2582 43.5403 31.1443 42.9976 31.2134C42.9199 31.2262 42.8457 31.2377 42.7749 31.248Z" fill="#C9C9C9"/>
<path d="M27.2701 49.5725C27.2192 49.5725 27.1704 49.5523 27.1344 49.5163C27.0984 49.4802 27.0781 49.4314 27.0781 49.3805V17.4752C27.0781 17.4243 27.0984 17.3754 27.1344 17.3394C27.1704 17.3034 27.2192 17.2832 27.2701 17.2832C27.321 17.2832 27.3699 17.3034 27.4059 17.3394C27.4419 17.3754 27.4621 17.4243 27.4621 17.4752V49.3805C27.4621 49.4314 27.4419 49.4802 27.4059 49.5163C27.3699 49.5523 27.321 49.5725 27.2701 49.5725Z" fill="#C9C9C9"/>
<path d="M28.9833 24.9461C28.7657 24.9458 28.5571 24.8593 28.4031 24.7055C28.2491 24.5518 28.1623 24.3433 28.1616 24.1257V20.8117H27.3795C27.3286 20.8117 27.2797 20.7915 27.2437 20.7555C27.2077 20.7195 27.1875 20.6707 27.1875 20.6197C27.1875 20.5688 27.2077 20.52 27.2437 20.484C27.2797 20.448 27.3286 20.4277 27.3795 20.4277H28.3536C28.4045 20.4277 28.4533 20.448 28.4893 20.484C28.5254 20.52 28.5456 20.5688 28.5456 20.6197V24.1257C28.5516 24.2375 28.6003 24.3428 28.6816 24.4198C28.763 24.4968 28.8707 24.5398 28.9827 24.5398C29.0947 24.5398 29.2025 24.4968 29.2838 24.4198C29.3651 24.3428 29.4138 24.2375 29.4198 24.1257V20.6236C29.4198 20.5727 29.44 20.5238 29.4761 20.4878C29.5121 20.4518 29.5609 20.4316 29.6118 20.4316H30.7805C30.8314 20.4316 30.8802 20.4518 30.9162 20.4878C30.9522 20.5238 30.9725 20.5727 30.9725 20.6236C30.9725 20.6745 30.9522 20.7233 30.9162 20.7593C30.8802 20.7953 30.8314 20.8156 30.7805 20.8156H29.8038V24.1257C29.8035 24.3432 29.7169 24.5517 29.5631 24.7054C29.4093 24.8592 29.2008 24.9458 28.9833 24.9461Z" fill="#C9C9C9"/>
<path d="M31.6578 24.9461C31.4403 24.9458 31.2318 24.8592 31.078 24.7054C30.9243 24.5517 30.8377 24.3432 30.8374 24.1257V20.8117H30.0553C30.0044 20.8117 29.9555 20.7915 29.9195 20.7555C29.8835 20.7195 29.8633 20.6707 29.8633 20.6197C29.8633 20.5688 29.8835 20.52 29.9195 20.484C29.9555 20.448 30.0044 20.4277 30.0553 20.4277H31.0294C31.0803 20.4277 31.1291 20.448 31.1651 20.484C31.2011 20.52 31.2214 20.5688 31.2214 20.6197V24.1257C31.2274 24.2375 31.2761 24.3428 31.3574 24.4198C31.4387 24.4968 31.5465 24.5398 31.6585 24.5398C31.7705 24.5398 31.8782 24.4968 31.9595 24.4198C32.0409 24.3428 32.0895 24.2375 32.0956 24.1257V20.6236C32.0956 20.5727 32.1158 20.5238 32.1518 20.4878C32.1878 20.4518 32.2367 20.4316 32.2876 20.4316H33.4562C33.5072 20.4316 33.556 20.4518 33.592 20.4878C33.628 20.5238 33.6482 20.5727 33.6482 20.6236C33.6482 20.6745 33.628 20.7233 33.592 20.7593C33.556 20.7953 33.5072 20.8156 33.4562 20.8156H32.4796V24.1257C32.4789 24.3433 32.3921 24.5518 32.2381 24.7055C32.0841 24.8593 31.8755 24.9458 31.6578 24.9461Z" fill="#C9C9C9"/>
<path d="M34.3317 24.9461C34.1142 24.9458 33.9057 24.8592 33.7519 24.7054C33.5981 24.5517 33.5115 24.3432 33.5112 24.1257V20.8117H32.7291C32.6782 20.8117 32.6294 20.7915 32.5933 20.7555C32.5573 20.7195 32.5371 20.6707 32.5371 20.6197C32.5371 20.5688 32.5573 20.52 32.5933 20.484C32.6294 20.448 32.6782 20.4277 32.7291 20.4277H33.7032C33.7541 20.4277 33.8029 20.448 33.839 20.484C33.875 20.52 33.8952 20.5688 33.8952 20.6197V24.1257C33.9012 24.2375 33.9499 24.3428 34.0312 24.4198C34.1126 24.4968 34.2203 24.5398 34.3323 24.5398C34.4443 24.5398 34.5521 24.4968 34.6334 24.4198C34.7147 24.3428 34.7634 24.2375 34.7694 24.1257V20.6236C34.7694 20.5727 34.7897 20.5238 34.8257 20.4878C34.8617 20.4518 34.9105 20.4316 34.9614 20.4316H36.1301C36.181 20.4316 36.2298 20.4518 36.2658 20.4878C36.3018 20.5238 36.3221 20.5727 36.3221 20.6236C36.3221 20.6745 36.3018 20.7233 36.2658 20.7593C36.2298 20.7953 36.181 20.8156 36.1301 20.8156H35.1534V24.1257C35.1528 24.3433 35.0659 24.5518 34.9119 24.7055C34.7579 24.8593 34.5493 24.9458 34.3317 24.9461Z" fill="#C9C9C9"/>
<path d="M37.0074 24.9461C36.7899 24.9458 36.5815 24.8592 36.4277 24.7054C36.2739 24.5517 36.1873 24.3432 36.187 24.1257V20.8117H35.4049C35.354 20.8117 35.3051 20.7915 35.2691 20.7555C35.2331 20.7195 35.2129 20.6707 35.2129 20.6197C35.2129 20.5688 35.2331 20.52 35.2691 20.484C35.3051 20.448 35.354 20.4277 35.4049 20.4277H36.379C36.4299 20.4277 36.4787 20.448 36.5147 20.484C36.5507 20.52 36.571 20.5688 36.571 20.6197V24.1257C36.577 24.2375 36.6257 24.3428 36.707 24.4198C36.7883 24.4968 36.8961 24.5398 37.0081 24.5398C37.1201 24.5398 37.2278 24.4968 37.3092 24.4198C37.3905 24.3428 37.4392 24.2375 37.4452 24.1257V20.6236C37.4452 20.5727 37.4654 20.5238 37.5014 20.4878C37.5375 20.4518 37.5863 20.4316 37.6372 20.4316H42.7201C42.771 20.4316 42.8198 20.4518 42.8559 20.4878C42.8919 20.5238 42.9121 20.5727 42.9121 20.6236C42.9121 20.6745 42.8919 20.7233 42.8559 20.7593C42.8198 20.7953 42.771 20.8156 42.7201 20.8156H37.8292V24.1257C37.8285 24.3433 37.7417 24.5518 37.5877 24.7055C37.4337 24.8593 37.2251 24.9458 37.0074 24.9461Z" fill="#C9C9C9"/>
<path d="M42.2626 22.4437V20.0834H42.2703C42.3319 20.0789 42.3896 20.0513 42.4317 20.006C42.4737 19.9608 42.4971 19.9013 42.4971 19.8395C42.4971 19.7778 42.4737 19.7183 42.4317 19.673C42.3896 19.6278 42.3319 19.6002 42.2703 19.5957H40.7228C40.6612 19.6002 40.6035 19.6278 40.5615 19.673C40.5194 19.7183 40.496 19.7778 40.496 19.8395C40.496 19.9013 40.5194 19.9608 40.5615 20.006C40.6035 20.0513 40.6612 20.0789 40.7228 20.0834H40.7305V22.4437C40.1209 22.6279 39.5978 23.0251 39.2567 23.5629C38.9156 24.1007 38.7792 24.7431 38.8723 25.3731C38.9654 26.0031 39.2819 26.5786 39.764 26.9946C40.2461 27.4107 40.8617 27.6396 41.4985 27.6396C42.1353 27.6396 42.7509 27.4107 43.233 26.9946C43.7151 26.5786 44.0315 26.0031 44.1247 25.3731C44.2178 24.7431 44.0813 24.1007 43.7402 23.5629C43.3991 23.0251 42.8761 22.6279 42.2665 22.4437H42.2626Z" fill="#C9C9C9"/>
<path d="M15.9109 46.3848L14.4786 48.6888C14.437 48.7556 14.4141 48.8324 14.4122 48.9111C14.4103 48.9898 14.4295 49.0675 14.4678 49.1363C14.506 49.2051 14.5619 49.2624 14.6298 49.3023C14.6976 49.3422 14.7749 49.3633 14.8536 49.3633H17.7797C17.7011 49.3634 17.6238 49.3425 17.556 49.3027C17.4882 49.263 17.4322 49.2058 17.3938 49.1372C17.3555 49.0685 17.3361 48.9909 17.3378 48.9123C17.3395 48.8337 17.3621 48.757 17.4034 48.69L18.7896 46.4321L15.9109 46.3848Z" fill="white" stroke="#259C77" stroke-linecap="round" stroke-linejoin="round"/>
<path d="M23.4574 36.5625H11.9643C11.7586 36.5625 11.5918 36.7293 11.5918 36.935V46.526C11.5918 46.7317 11.7586 46.8985 11.9643 46.8985H23.4574C23.6631 46.8985 23.8299 46.7317 23.8299 46.526V36.935C23.8299 36.7293 23.6631 36.5625 23.4574 36.5625Z" fill="white" stroke="#259C77" stroke-linecap="round" stroke-linejoin="round"/>
<path d="M23.9203 36.5625H12.4272C12.2215 36.5625 12.0547 36.7293 12.0547 36.935V46.526C12.0547 46.7317 12.2215 46.8985 12.4272 46.8985H23.9203C24.126 46.8985 24.2928 46.7317 24.2928 46.526V36.935C24.2928 36.7293 24.126 36.5625 23.9203 36.5625Z" fill="white" stroke="#259C77" stroke-linecap="round" stroke-linejoin="round"/>
<path d="M23.8819 36.5625H12.4656C12.3566 36.5625 12.2521 36.6058 12.175 36.6828C12.098 36.7599 12.0547 36.8644 12.0547 36.9734V45.0463H24.2928V36.9734C24.2928 36.8644 24.2495 36.7599 24.1724 36.6828C24.0954 36.6058 23.9909 36.5625 23.8819 36.5625Z" fill="#259C77" stroke="#259C77" stroke-linecap="round" stroke-linejoin="round"/>
<path d="M23.7806 36.9727H12.5703V44.4799H23.7806V36.9727Z" fill="white" stroke="#259C77" stroke-linecap="round" stroke-linejoin="round"/>
<path d="M22.4954 39.8261V38.189L21.0784 37.3711L19.6602 38.189V39.8261L21.0784 40.6453L22.4954 39.8261Z" fill="#92E3A9" stroke="#259C77" stroke-linecap="round" stroke-linejoin="round"/>
<path d="M18.4535 41.3488V40.01L17.2951 39.3418L16.1367 40.01V41.3488L17.2951 42.017L18.4535 41.3488Z" fill="#92E3A9" stroke="#259C77" stroke-linecap="round" stroke-linejoin="round"/>
<path d="M17.0785 39.2512V37.9136L15.9201 37.2441L14.7617 37.9136V39.2512L15.9201 39.9193L17.0785 39.2512Z" fill="#92E3A9" stroke="#259C77" stroke-linecap="round" stroke-linejoin="round"/>
<path d="M17.0785 43.4101V42.0725L15.9201 41.4043L14.7617 42.0725V43.4101L15.9201 44.0795L17.0785 43.4101Z" fill="#92E3A9" stroke="#259C77" stroke-linecap="round" stroke-linejoin="round"/>
<path d="M15.6703 41.3488V40.01L14.5119 39.3418L13.3535 40.01V41.3488L14.5119 42.017L15.6703 41.3488Z" fill="#92E3A9" stroke="#259C77" stroke-linecap="round" stroke-linejoin="round"/>
<path d="M19.8398 41.4961H22.3218" stroke="#259C77" stroke-linecap="round" stroke-linejoin="round"/>
<path d="M19.8398 42.002H22.3218" stroke="#259C77" stroke-linecap="round" stroke-linejoin="round"/>
<path d="M19.8398 42.5059H22.3218" stroke="#259C77" stroke-linecap="round" stroke-linejoin="round"/>
<path d="M54.7308 27.9759L48.3948 28.0283C48.3948 28.0283 47.975 27.9759 47.8713 28.2843C47.8713 28.2843 46.7705 31.0594 46.7193 32.0552C46.6681 33.0511 46.9292 32.8923 46.5107 34.2018C46.0921 35.5112 44.8864 38.6011 44.2067 41.1138C43.4732 43.8197 43.175 46.6575 43.0547 49.4722H51.0278C51.0368 46.7739 51.2134 44.0962 52.167 41.4274C52.8569 39.492 53.6505 37.4491 54.2368 35.4242C54.823 33.3992 54.9254 31.2962 55.3081 29.2251C55.5692 27.8197 54.7308 27.9759 54.7308 27.9759Z" fill="#00451A"/>
<path d="M55.3518 28.603C55.2891 27.8721 54.731 27.9758 54.731 27.9758L48.395 28.0282C48.395 28.0282 47.9752 27.9758 47.8715 28.2842C47.8715 28.2842 46.7707 31.0593 46.7195 32.0551C46.7058 32.3181 46.7135 32.5818 46.7425 32.8436L46.8705 33.0497C46.8705 33.0497 47.0805 34.8826 49.5944 34.9876C52.1083 35.0926 53.5214 33.9393 54.0449 32.8398C54.5685 31.7402 54.7784 29.9598 55.1969 28.9127C55.2429 28.8067 55.2946 28.7033 55.3518 28.603Z" fill="#6E6E6E"/>
<path d="M54.9936 28.0059L54.9872 28.0135C54.5112 28.8422 54.1417 29.7277 53.8877 30.6491C53.4628 32.1787 53.7175 32.6036 53.2925 35.2379C52.8676 37.8721 51.3277 40.8481 50.7376 43.5681C50.4816 44.7201 50.3869 47.0881 50.3613 49.4791H51.0256C51.0346 46.7809 51.2112 44.1031 52.1648 41.4343C52.8548 39.499 53.6484 37.4561 54.2346 35.4311C54.8208 33.4062 54.9232 31.3031 55.306 29.2321C55.4672 28.363 55.2138 28.0891 54.9936 28.0059Z" fill="#6E6E6E"/>
<path d="M30.8717 37.4346C30.8717 37.4346 30.4033 36.5386 30.3188 35.9869C30.2343 35.4352 29.8503 33.8109 29.5085 33.0429C29.1668 32.2749 27.5066 31.297 27.2045 31.3392C26.9025 31.3815 26.2676 33.0032 26.3085 33.6829C26.3495 34.3626 27.1188 35.2586 27.3325 35.5568C27.5463 35.8551 28.057 37.4768 28.3975 37.9888C28.738 38.5008 28.7815 38.7133 28.7815 38.7133L30.8717 37.4346Z" fill="#92E3A9"/>
<mask id="mask0_1218_2188" style="mask-type:luminance" maskUnits="userSpaceOnUse" x="26" y="31" width="5" height="8">
<path d="M30.8717 37.4346C30.8717 37.4346 30.4033 36.5386 30.3188 35.9869C30.2343 35.4352 29.8503 33.8109 29.5085 33.0429C29.1668 32.2749 27.5066 31.297 27.2045 31.3392C26.9025 31.3815 26.2676 33.0032 26.3085 33.6829C26.3495 34.3626 27.1188 35.2586 27.3325 35.5568C27.5463 35.8551 28.057 37.4768 28.3975 37.9888C28.738 38.5008 28.7815 38.7133 28.7815 38.7133L30.8717 37.4346Z" fill="white"/>
</mask>
<g mask="url(#mask0_1218_2188)">
<path opacity="0.3" d="M29.1982 36.4811C29.2827 36.0971 28.7285 36.3531 28.4725 36.1393C28.2165 35.9255 28.5147 35.8411 28.6005 35.5428C28.6862 35.2446 27.7045 35.8411 27.5342 35.7988C27.5027 35.7883 27.4722 35.7745 27.4434 35.7579C27.6904 36.2916 28.109 37.5499 28.4021 37.9889C28.5211 38.1681 28.603 38.3089 28.6581 38.4177L29.5797 38.1873C29.5797 38.1873 29.1125 36.8651 29.1982 36.4811Z" fill="black"/>
</g>
<path d="M30.8717 37.4346C30.8717 37.4346 30.4033 36.5386 30.3188 35.9869C30.2343 35.4352 29.8503 33.8109 29.5085 33.0429C29.1668 32.2749 27.5066 31.297 27.2045 31.3392C26.9025 31.3815 26.2676 33.0032 26.3085 33.6829C26.3495 34.3626 27.1188 35.2586 27.3325 35.5568C27.5463 35.8551 28.057 37.4768 28.3975 37.9888C28.738 38.5008 28.7815 38.7133 28.7815 38.7133L30.8717 37.4346Z" stroke="#6C54A3" stroke-linecap="round" stroke-linejoin="round"/>
<path d="M26.9114 33.2597C26.9114 33.2597 25.6314 32.9192 25.2935 33.0037C24.9556 33.0882 25.122 33.5157 25.5917 33.6437C25.8449 33.7048 26.0843 33.8134 26.297 33.9637L26.7232 34.6037" fill="#92E3A9"/>
<path d="M26.9114 33.2597C26.9114 33.2597 25.6314 32.9192 25.2935 33.0037C24.9556 33.0882 25.122 33.5157 25.5917 33.6437C25.8449 33.7048 26.0843 33.8134 26.297 33.9637L26.7232 34.6037" stroke="#6C54A3" stroke-linecap="round" stroke-linejoin="round"/>
<path d="M27.209 30.7891H28.233V34.9785C28.233 35.0326 28.2223 35.0862 28.2016 35.1362C28.1809 35.1862 28.1505 35.2317 28.1123 35.2699C28.074 35.3082 28.0286 35.3386 27.9786 35.3593C27.9285 35.38 27.8749 35.3907 27.8208 35.3907H27.6224C27.5683 35.3907 27.5147 35.38 27.4647 35.3593C27.4147 35.3386 27.3693 35.3082 27.331 35.2699C27.2927 35.2317 27.2623 35.1862 27.2416 35.1362C27.2209 35.0862 27.2103 35.0326 27.2103 34.9785V30.7891H27.209Z" fill="white" stroke="#6C54A3" stroke-linecap="round" stroke-linejoin="round"/>
<path d="M28.423 30.6191H27.0176V31.0031H28.423V30.6191Z" fill="white" stroke="#6C54A3" stroke-linecap="round" stroke-linejoin="round"/>
<path d="M27.0161 30.6182C27.0161 30.6182 26.4414 30.4902 26.4414 31.0445C26.4414 31.5987 26.8676 31.7267 27.2094 31.3427C27.5512 30.9587 27.3361 30.576 27.0161 30.6182Z" fill="#92E3A9" stroke="#6C54A3" stroke-linecap="round" stroke-linejoin="round"/>
<path d="M29.9773 34.4098C29.9773 34.4098 29.6368 32.8342 29.3821 32.1954C29.1274 31.5567 28.4016 30.9602 28.2301 30.7874C28.0586 30.6146 27.8896 31.2994 28.0176 31.5106C28.1456 31.7218 28.4016 32.2351 28.4016 32.2351C28.4016 32.2351 27.9754 34.0668 28.5296 34.493" fill="#92E3A9"/>
<path d="M29.9773 34.4098C29.9773 34.4098 29.6368 32.8342 29.3821 32.1954C29.1274 31.5567 28.4016 30.9602 28.2301 30.7874C28.0586 30.6146 27.8896 31.2994 28.0176 31.5106C28.1456 31.7218 28.4016 32.2351 28.4016 32.2351C28.4016 32.2351 27.9754 34.0668 28.5296 34.493" stroke="#6C54A3" stroke-linecap="round" stroke-linejoin="round"/>
<path d="M27.039 32.4075C27.039 32.4075 26.1865 32.3231 26.102 32.6213C26.0176 32.9195 26.1865 33.0898 26.4425 33.0898C26.6985 33.0898 27.3385 33.2178 27.3795 32.9195C27.4204 32.6213 27.3372 32.3653 27.039 32.4075Z" fill="#92E3A9" stroke="#6C54A3" stroke-linecap="round" stroke-linejoin="round"/>
<path d="M27.1246 31.6829C27.1246 31.6829 26.2721 31.5984 26.1864 31.8967C26.1006 32.1949 26.2721 32.3652 26.5281 32.3652C26.7841 32.3652 27.4241 32.4932 27.4651 32.1949C27.5061 31.8967 27.4229 31.6407 27.1246 31.6829Z" fill="#92E3A9" stroke="#6C54A3" stroke-linecap="round" stroke-linejoin="round"/>
<path d="M30.7874 36.8809L28.2734 38.3708C28.2734 38.3708 29.2104 40.0757 29.7224 41.5234C30.2344 42.9711 31.2584 45.6988 32.9595 45.6553C34.6606 45.6117 36.2402 43.4409 36.2402 43.4409L34.2805 37.7321L32.5333 40.118L30.7874 36.8809Z" fill="white"/>
<mask id="mask1_1218_2188" style="mask-type:luminance" maskUnits="userSpaceOnUse" x="28" y="36" width="9" height="10">
<path d="M30.7874 36.8809L28.2734 38.3708C28.2734 38.3708 29.2104 40.0757 29.7224 41.5234C30.2344 42.9711 31.2584 45.6988 32.9595 45.6553C34.6606 45.6117 36.2402 43.4409 36.2402 43.4409L34.2805 37.7321L32.5333 40.118L30.7874 36.8809Z" fill="white"/>
</mask>
<g mask="url(#mask1_1218_2188)">
<path d="M30.7874 36.8809L28.2734 38.3708C28.2734 38.3708 29.2104 40.0757 29.7224 41.5234C30.2344 42.9711 31.2584 45.6988 32.9595 45.6553C34.6606 45.6117 36.2402 43.4409 36.2402 43.4409L34.2805 37.7321L32.5333 40.118L30.7874 36.8809Z" fill="#92E3A9" stroke="#6C54A3" stroke-linecap="round" stroke-linejoin="round"/>
<path opacity="0.5" d="M30.7874 36.8809L28.2734 38.3708C28.2734 38.3708 29.2104 40.0757 29.7224 41.5234C30.2344 42.9711 31.2584 45.6988 32.9595 45.6553C34.6606 45.6117 36.2402 43.4409 36.2402 43.4409L34.2805 37.7321L32.5333 40.118L30.7874 36.8809Z" fill="white"/>
</g>
<path d="M30.7874 36.8809L28.2734 38.3708C28.2734 38.3708 29.2104 40.0757 29.7224 41.5234C30.2344 42.9711 31.2584 45.6988 32.9595 45.6553C34.6606 45.6117 36.2402 43.4409 36.2402 43.4409L34.2805 37.7321L32.5333 40.118L30.7874 36.8809Z" stroke="#6C54A3" stroke-linecap="round" stroke-linejoin="round"/>
<path d="M38.8756 32.6155C38.8756 32.6155 40.866 32.9713 42.0167 33.5243C43.1674 34.0772 44.761 35.1345 45.442 37.2644C46.1229 39.3943 45.7824 49.4615 45.7824 49.4615H35.2186C35.2186 49.4615 35.7306 45.0596 35.2608 43.0615C34.7911 41.0635 34.2778 41.0455 33.9988 39.5799C33.1668 35.2241 35.5104 32.147 38.8756 32.6155Z" fill="white"/>
<mask id="mask2_1218_2188" style="mask-type:luminance" maskUnits="userSpaceOnUse" x="33" y="32" width="13" height="18">
<path d="M38.8756 32.6155C38.8756 32.6155 40.866 32.9713 42.0167 33.5243C43.1674 34.0772 44.761 35.1345 45.442 37.2644C46.1229 39.3943 45.7824 49.4615 45.7824 49.4615H35.2186C35.2186 49.4615 35.7306 45.0596 35.2608 43.0615C34.7911 41.0635 34.2778 41.0455 33.9988 39.5799C33.1668 35.2241 35.5104 32.147 38.8756 32.6155Z" fill="white"/>
</mask>
<g mask="url(#mask2_1218_2188)">
<path d="M42.1485 49.5373C42.7156 48.0435 43.6628 44.5069 43.6628 44.5069C43.6628 44.5069 40.377 43.6953 39.9072 42.2029C39.4375 40.7104 40.4628 37.5053 40.4628 37.5053C40.4628 37.5053 37.9872 41.3453 37.6468 41.943C37.3063 42.5408 35.4272 35.9693 34.7872 34.4333C34.7848 34.4266 34.7818 34.4202 34.7783 34.4141C33.9386 35.6659 33.5956 37.4707 33.9988 39.5763C34.2778 41.0419 34.7924 41.056 35.2608 43.0579C35.7293 45.0598 35.2186 49.5334 35.2186 49.5334L42.1485 49.5373Z" fill="#92E3A9"/>
<path opacity="0.5" d="M42.1485 49.5373C42.7156 48.0435 43.6628 44.5069 43.6628 44.5069C43.6628 44.5069 40.377 43.6953 39.9072 42.2029C39.4375 40.7104 40.4628 37.5053 40.4628 37.5053C40.4628 37.5053 37.9872 41.3453 37.6468 41.943C37.3063 42.5408 35.4272 35.9693 34.7872 34.4333C34.7848 34.4266 34.7818 34.4202 34.7783 34.4141C33.9386 35.6659 33.5956 37.4707 33.9988 39.5763C34.2778 41.0419 34.7924 41.056 35.2608 43.0579C35.7293 45.0598 35.2186 49.5334 35.2186 49.5334L42.1485 49.5373Z" fill="white"/>
</g>
<path d="M38.8756 32.6155C38.8756 32.6155 40.866 32.9713 42.0167 33.5243C43.1674 34.0772 44.761 35.1345 45.442 37.2644C46.1229 39.3943 45.7824 49.4615 45.7824 49.4615H35.2186C35.2186 49.4615 35.7306 45.0596 35.2608 43.0615C34.7911 41.0635 34.2778 41.0455 33.9988 39.5799C33.1668 35.2241 35.5104 32.147 38.8756 32.6155Z" stroke="#6C54A3" stroke-linecap="round" stroke-linejoin="round"/>
<path d="M34.4734 37.9678L34.8996 38.2507L34.5681 38.9611C34.5681 38.9611 34.9521 40.2859 35.3719 41.0897C35.7918 41.8936 36.2231 42.604 36.2231 42.604C36.2231 42.604 37.5953 41.0897 38.2097 40.1438C38.8241 39.1979 39.3937 38.0625 39.3937 38.0625L38.8254 37.5889L40.0081 36.8312C40.0081 36.8312 40.4561 34.3659 40.2641 32.9246C39.5076 32.7275 38.8753 32.6148 38.8753 32.6148C36.9028 32.3396 35.5191 33.0782 34.7025 34.0344L34.5207 34.5604C34.3764 35.1807 34.3127 35.817 34.3313 36.4536C34.3524 36.9604 34.3998 37.4659 34.4734 37.9678Z" stroke="#6C54A3" stroke-linecap="round" stroke-linejoin="round"/>
<path d="M35.0195 34.8826C35.0195 34.8826 34.9734 37.1508 35.2 38.3309C35.4265 39.5111 36.2892 41.3248 36.2892 41.3248C36.2892 41.3248 37.6972 38.5575 38.286 37.0151C38.8748 35.4727 38.8748 32.6144 38.8748 32.6144L35.6992 32.3418L35.0195 34.8826Z" fill="white" stroke="#6C54A3" stroke-linecap="round" stroke-linejoin="round"/>
<path d="M35.4473 37.5752L36.0834 38.5813L35.766 40.0111L36.2882 41.3269L36.8245 40.0111L36.6133 38.6351L37.2482 37.3103L36.2421 36.1992L35.4473 37.5752Z" fill="#6C54A3" stroke="#6C54A3" stroke-linecap="round" stroke-linejoin="round"/>
<path d="M36.2355 37.3307L37.7715 38.3547C37.7715 38.3547 38.7955 36.0187 38.9235 34.7489C39.0099 34.0395 38.9944 33.3214 38.8775 32.6164L36.8333 32.3848L35.0195 34.8795L35.2 38.3316L36.2355 37.3307Z" fill="white" stroke="#6C54A3" stroke-linecap="round" stroke-linejoin="round"/>
<path d="M34.2031 34.9746L36.2358 37.3311L37.5158 32.9791L36.8348 30.9375C36.8348 30.9375 36.3817 32.9343 35.565 33.6153C35.0708 34.0262 34.615 34.4812 34.2031 34.9746Z" fill="white" stroke="#6C54A3" stroke-linecap="round" stroke-linejoin="round"/>
<path d="M30.0875 43.8827L28.3621 40.8107V38.7026C28.4257 38.6782 28.4787 38.6323 28.5119 38.5728C28.5452 38.5134 28.5564 38.4441 28.5438 38.3772C28.5311 38.3103 28.4953 38.2499 28.4427 38.2067C28.3901 38.1635 28.324 38.1401 28.2559 38.1406H26.4536C26.3855 38.1401 26.3194 38.1635 26.2668 38.2067C26.2141 38.2499 26.1784 38.3103 26.1657 38.3772C26.1531 38.4441 26.1643 38.5134 26.1975 38.5728C26.2307 38.6323 26.2838 38.6782 26.3474 38.7026V40.7378L24.6181 43.8955C24.5555 44.0159 24.5251 44.1505 24.5298 44.2861C24.5344 44.4217 24.574 44.5538 24.6446 44.6697C24.7153 44.7855 24.8147 44.8811 24.9331 44.9473C25.0516 45.0135 25.1851 45.048 25.3208 45.0475H29.3938C29.5304 45.0473 29.6646 45.0117 29.7833 44.9441C29.902 44.8765 30.0011 44.7792 30.071 44.6619C30.1409 44.5445 30.1792 44.411 30.1821 44.2745C30.185 44.1379 30.1524 44.0029 30.0875 43.8827Z" fill="white" stroke="#6C54A3" stroke-linecap="round" stroke-linejoin="round"/>
<path d="M29.118 42.7894C28.4511 42.9981 27.6281 43.1158 26.9561 42.7805C26.5936 42.5845 26.1992 42.4545 25.7913 42.3965L25.0681 43.7162C25.0168 43.8166 24.9922 43.9285 24.9966 44.0411C25.0009 44.1538 25.0341 44.2634 25.0929 44.3596C25.1517 44.4558 25.2342 44.5352 25.3325 44.5904C25.4308 44.6456 25.5416 44.6747 25.6543 44.6749H29.0553C29.169 44.6748 29.2808 44.6452 29.3797 44.5891C29.4786 44.533 29.5613 44.4523 29.6198 44.3547C29.6783 44.2572 29.7106 44.1462 29.7135 44.0325C29.7164 43.9188 29.6898 43.8063 29.6364 43.7059L29.118 42.7894Z" fill="white" stroke="#6C54A3" stroke-linecap="round" stroke-linejoin="round"/>
<path d="M30.0875 43.8827L28.3621 40.8107V38.7026C28.4257 38.6782 28.4787 38.6323 28.5119 38.5728C28.5452 38.5134 28.5564 38.4441 28.5438 38.3772C28.5311 38.3103 28.4953 38.2499 28.4427 38.2067C28.3901 38.1635 28.324 38.1401 28.2559 38.1406H26.4536C26.3855 38.1401 26.3194 38.1635 26.2668 38.2067C26.2141 38.2499 26.1784 38.3103 26.1657 38.3772C26.1531 38.4441 26.1643 38.5134 26.1975 38.5728C26.2307 38.6323 26.2838 38.6782 26.3474 38.7026V40.7378L24.6181 43.8955C24.5555 44.0159 24.5251 44.1505 24.5298 44.2861C24.5344 44.4217 24.574 44.5538 24.6446 44.6697C24.7153 44.7855 24.8147 44.8811 24.9331 44.9473C25.0516 45.0135 25.1851 45.048 25.3208 45.0475H29.3938C29.5304 45.0473 29.6646 45.0117 29.7833 44.9441C29.902 44.8765 30.0011 44.7792 30.071 44.6619C30.1409 44.5445 30.1792 44.411 30.1821 44.2745C30.185 44.1379 30.1524 44.0029 30.0875 43.8827Z" fill="white" stroke="#6C54A3" stroke-linecap="round" stroke-linejoin="round"/>
<path d="M29.118 42.7894C28.4511 42.9981 27.6281 43.1158 26.9561 42.7805C26.5936 42.5845 26.1992 42.4545 25.7913 42.3965L25.0681 43.7162C25.0168 43.8166 24.9922 43.9285 24.9966 44.0411C25.0009 44.1538 25.0341 44.2634 25.0929 44.3596C25.1517 44.4558 25.2342 44.5352 25.3325 44.5904C25.4308 44.6456 25.5416 44.6747 25.6543 44.6749H29.0553C29.169 44.6748 29.2808 44.6452 29.3797 44.5891C29.4786 44.533 29.5613 44.4523 29.6198 44.3547C29.6783 44.2572 29.7106 44.1462 29.7135 44.0325C29.7164 43.9188 29.6898 43.8063 29.6364 43.7059L29.118 42.7894Z" fill="#6C54A3" stroke="#6C54A3" stroke-linecap="round" stroke-linejoin="round"/>
<path d="M33.2159 42.5897L31.8527 41.2701C31.8527 41.2701 31.7669 40.7581 31.5967 40.6301C31.448 40.5096 31.3057 40.3814 31.1704 40.2461C31.1704 40.2461 30.1464 38.1981 29.7228 37.6041C29.5637 37.3693 29.3468 37.1794 29.093 37.0527C28.8392 36.926 28.5571 36.8669 28.2738 36.8809C27.8898 36.9232 26.2258 37.0512 26.0594 37.4339C26.0069 37.5517 26.2296 37.9024 26.2296 37.9024C26.2296 37.9024 25.8034 38.1161 25.8892 38.4989C25.9749 38.8816 26.1452 38.9251 26.1452 38.9251C26.1452 38.9251 25.6332 39.3091 25.8047 39.6073C25.8477 39.6909 25.9079 39.7645 25.9814 39.8232C26.0548 39.8818 26.1399 39.9243 26.2309 39.9478C26.2309 39.9478 25.8904 40.3318 26.2732 40.4598C26.5389 40.5453 26.8089 40.6166 27.0821 40.6736C27.0821 40.6736 27.5506 41.8653 27.9781 41.9088C28.2936 41.9463 28.6065 42.0031 28.9151 42.079C28.9151 42.079 29.7676 43.8249 30.4511 44.639C31.1346 45.4531 32.3711 45.535 32.3711 45.535L33.2159 42.5897Z" fill="#92E3A9"/>
<mask id="mask3_1218_2188" style="mask-type:luminance" maskUnits="userSpaceOnUse" x="25" y="36" width="9" height="10">
<path d="M33.2159 42.5897L31.8527 41.2701C31.8527 41.2701 31.7669 40.7581 31.5967 40.6301C31.448 40.5096 31.3057 40.3814 31.1704 40.2461C31.1704 40.2461 30.1464 38.1981 29.7228 37.6041C29.5637 37.3693 29.3468 37.1794 29.093 37.0527C28.8392 36.926 28.5571 36.8669 28.2738 36.8809C27.8898 36.9232 26.2258 37.0512 26.0594 37.4339C26.0069 37.5517 26.2296 37.9024 26.2296 37.9024C26.2296 37.9024 25.8034 38.1161 25.8892 38.4989C25.9749 38.8816 26.1452 38.9251 26.1452 38.9251C26.1452 38.9251 25.6332 39.3091 25.8047 39.6073C25.8477 39.6909 25.9079 39.7645 25.9814 39.8232C26.0548 39.8818 26.1399 39.9243 26.2309 39.9478C26.2309 39.9478 25.8904 40.3318 26.2732 40.4598C26.5389 40.5453 26.8089 40.6166 27.0821 40.6736C27.0821 40.6736 27.5506 41.8653 27.9781 41.9088C28.2936 41.9463 28.6065 42.0031 28.9151 42.079C28.9151 42.079 29.7676 43.8249 30.4511 44.639C31.1346 45.4531 32.3711 45.535 32.3711 45.535L33.2159 42.5897Z" fill="white"/>
</mask>
<g mask="url(#mask3_1218_2188)">
<path opacity="0.3" d="M30.05 42.9235C29.922 42.9235 29.9656 42.5395 30.0936 42.2412C30.2216 41.943 29.794 42.2412 29.666 42.1555C29.538 42.0697 29.666 42.1555 29.666 41.687C29.666 41.2185 28.9838 41.559 28.4718 41.4732C27.9598 41.3875 27.5758 40.4492 27.5758 40.4492L26.2715 40.4595C26.5372 40.5449 26.8072 40.6163 27.0804 40.6732C27.0804 40.6732 27.5489 41.8649 27.9764 41.9084C28.292 41.9459 28.6049 42.0028 28.9134 42.0787C28.9134 42.0787 29.7659 43.8246 30.4494 44.6387C30.7687 44.9923 31.1806 45.2495 31.6385 45.3811C31.7896 45.0675 31.8945 44.8051 31.8945 44.8051C31.8945 44.8051 30.178 42.9235 30.05 42.9235Z" fill="black"/>
</g>
<path d="M33.2159 42.5897L31.8527 41.2701C31.8527 41.2701 31.7669 40.7581 31.5967 40.6301C31.448 40.5096 31.3057 40.3814 31.1704 40.2461C31.1704 40.2461 30.1464 38.1981 29.7228 37.6041C29.5637 37.3693 29.3468 37.1794 29.093 37.0527C28.8392 36.926 28.5571 36.8669 28.2738 36.8809C27.8898 36.9232 26.2258 37.0512 26.0594 37.4339C26.0069 37.5517 26.2296 37.9024 26.2296 37.9024C26.2296 37.9024 25.8034 38.1161 25.8892 38.4989C25.9749 38.8816 26.1452 38.9251 26.1452 38.9251C26.1452 38.9251 25.6332 39.3091 25.8047 39.6073C25.8477 39.6909 25.9079 39.7645 25.9814 39.8232C26.0548 39.8818 26.1399 39.9243 26.2309 39.9478C26.2309 39.9478 25.8904 40.3318 26.2732 40.4598C26.5389 40.5453 26.8089 40.6166 27.0821 40.6736C27.0821 40.6736 27.5506 41.8653 27.9781 41.9088C28.2936 41.9463 28.6065 42.0031 28.9151 42.079C28.9151 42.079 29.7676 43.8249 30.4511 44.639C31.1346 45.4531 32.3711 45.535 32.3711 45.535L33.2159 42.5897Z" stroke="#6C54A3" stroke-linecap="round" stroke-linejoin="round"/>
<path d="M26.2305 37.9028L27.7639 37.8184" stroke="#6C54A3" stroke-linecap="round" stroke-linejoin="round"/>
<path d="M26.1445 38.9263L27.3797 38.8418" stroke="#6C54A3" stroke-linecap="round" stroke-linejoin="round"/>
<path d="M26.2305 39.949L27.1674 39.8633" stroke="#6C54A3" stroke-linecap="round" stroke-linejoin="round"/>
<path d="M41.1822 35.2617C41.1822 35.2617 40.5012 36.7529 40.3732 37.9497C40.2452 39.1465 38.6273 43.7212 38.6273 43.7212C38.6273 43.7212 35.3466 42.806 34.4097 42.55C33.7737 42.3613 33.1626 42.097 32.5895 41.7628L30.6836 45.2048C30.6836 45.2048 35.9866 48.3036 38.3713 48.6864C40.7559 49.0691 41.1463 49.1523 42.297 48.1283C43.4478 47.1043 45.2295 40.2883 45.2295 40.2883" fill="white"/>
<mask id="mask4_1218_2188" style="mask-type:luminance" maskUnits="userSpaceOnUse" x="30" y="35" width="16" height="14">
<path d="M41.1822 35.2617C41.1822 35.2617 40.5012 36.7529 40.3732 37.9497C40.2452 39.1465 38.6273 43.7212 38.6273 43.7212C38.6273 43.7212 35.3466 42.806 34.4097 42.55C33.7737 42.3613 33.1626 42.097 32.5895 41.7628L30.6836 45.2048C30.6836 45.2048 35.9866 48.3036 38.3713 48.6864C40.7559 49.0691 41.1463 49.1523 42.297 48.1283C43.4478 47.1043 45.2295 40.2883 45.2295 40.2883" fill="white"/>
</mask>
<g mask="url(#mask4_1218_2188)">
<path d="M41.4433 47.1894C40.633 47.4454 40.8033 45.7814 40.1633 45.5254C39.5233 45.2694 40.633 47.3174 39.993 47.6156C39.353 47.9139 38.0308 47.2739 36.665 46.8054C35.6154 46.4444 32.5281 45.0019 31.1534 44.3516L30.6836 45.2003C30.6836 45.2003 35.9866 48.2991 38.3713 48.6819C40.7559 49.0646 41.1463 49.1516 42.297 48.1276C43.0151 47.4876 43.979 44.5923 44.601 42.5059C44.0826 42.758 42.1614 46.9628 41.4433 47.1894Z" fill="#92E3A9"/>
<path opacity="0.5" d="M41.4433 47.1894C40.633 47.4454 40.8033 45.7814 40.1633 45.5254C39.5233 45.2694 40.633 47.3174 39.993 47.6156C39.353 47.9139 38.0308 47.2739 36.665 46.8054C35.6154 46.4444 32.5281 45.0019 31.1534 44.3516L30.6836 45.2003C30.6836 45.2003 35.9866 48.2991 38.3713 48.6819C40.7559 49.0646 41.1463 49.1516 42.297 48.1276C43.0151 47.4876 43.979 44.5923 44.601 42.5059C44.0826 42.758 42.1614 46.9628 41.4433 47.1894Z" fill="white"/>
</g>
<path d="M41.1822 35.2617C41.1822 35.2617 40.5012 36.7529 40.3732 37.9497C40.2452 39.1465 38.6273 43.7212 38.6273 43.7212C38.6273 43.7212 35.3466 42.806 34.4097 42.55C33.7737 42.3613 33.1626 42.097 32.5895 41.7628L30.6836 45.2048C30.6836 45.2048 35.9866 48.3036 38.3713 48.6864C40.7559 49.0691 41.1463 49.1523 42.297 48.1283C43.4478 47.1043 45.2295 40.2883 45.2295 40.2883" stroke="#6C54A3" stroke-linecap="round" stroke-linejoin="round"/>
<path d="M31.7067 28.5769C31.7067 28.5769 31.4801 30.392 31.8424 32.0252C32.2046 33.6585 32.8868 35.7462 33.386 35.791C33.8852 35.8358 36.4708 34.1129 36.6526 33.2502C36.8344 32.3875 36.8331 32.0252 36.8331 30.936C36.8442 30.0418 36.7989 29.1479 36.6974 28.2595C36.6065 27.5785 36.1982 26.8515 34.9732 27.0345C33.7483 27.2176 32.1598 27.7155 31.7067 28.5769Z" fill="white"/>
<mask id="mask5_1218_2188" style="mask-type:luminance" maskUnits="userSpaceOnUse" x="31" y="27" width="6" height="9">
<path d="M31.7067 28.5769C31.7067 28.5769 31.4801 30.392 31.8424 32.0252C32.2046 33.6585 32.8868 35.7462 33.386 35.791C33.8852 35.8358 36.4708 34.1129 36.6526 33.2502C36.8344 32.3875 36.8331 32.0252 36.8331 30.936C36.8442 30.0418 36.7989 29.1479 36.6974 28.2595C36.6065 27.5785 36.1982 26.8515 34.9732 27.0345C33.7483 27.2176 32.1598 27.7155 31.7067 28.5769Z" fill="white"/>
</mask>
<g mask="url(#mask5_1218_2188)">
<path d="M34.9732 27.0335C33.7483 27.2153 32.1572 27.7145 31.7067 28.5759C31.7067 28.5759 31.4801 30.391 31.8424 32.0243C32.17 33.495 32.7537 35.3318 33.2312 35.7171C33.0404 34.7417 32.6424 32.8102 32.4824 32.8102C32.2699 32.8102 32.0984 32.5542 31.9793 32.4326C31.8603 32.311 32.5681 31.4086 32.5681 31.4086L32.4824 29.0559L35.6542 27.9411L35.571 27.0207C35.3721 26.9973 35.1709 27.0016 34.9732 27.0335Z" fill="#92E3A9"/>
<path opacity="0.5" d="M34.9732 27.0335C33.7483 27.2153 32.1572 27.7145 31.7067 28.5759C31.7067 28.5759 31.4801 30.391 31.8424 32.0243C32.17 33.495 32.7537 35.3318 33.2312 35.7171C33.0404 34.7417 32.6424 32.8102 32.4824 32.8102C32.2699 32.8102 32.0984 32.5542 31.9793 32.4326C31.8603 32.311 32.5681 31.4086 32.5681 31.4086L32.4824 29.0559L35.6542 27.9411L35.571 27.0207C35.3721 26.9973 35.1709 27.0016 34.9732 27.0335Z" fill="white"/>
</g>
<path d="M31.7067 28.5769C31.7067 28.5769 31.4801 30.392 31.8424 32.0252C32.2046 33.6585 32.8868 35.7462 33.386 35.791C33.8852 35.8358 36.4708 34.1129 36.6526 33.2502C36.8344 32.3875 36.8331 32.0252 36.8331 30.936C36.8442 30.0418 36.7989 29.1479 36.6974 28.2595C36.6065 27.5785 36.1982 26.8515 34.9732 27.0345C33.7483 27.2176 32.1598 27.7155 31.7067 28.5769Z" stroke="#6C54A3" stroke-linecap="round" stroke-linejoin="round"/>
<path d="M34.2928 25.7646C32.7965 25.9451 30.9353 27.0805 30.1187 27.851C29.3021 28.6216 31.5715 28.1237 31.5715 28.1237L30.9315 29.2577C30.9315 29.2577 31.8851 28.8942 32.7017 28.532C33.5184 28.1697 35.6457 27.9419 35.6457 27.9419L34.7382 28.9403L36.0989 29.2129C36.0989 29.2129 35.8889 30.0565 36.0861 30.2881C36.0656 31.2456 36.0118 32.5281 35.8723 32.7509C35.6457 33.1144 35.2323 33.1144 33.6963 32.9774C32.4163 32.8648 32.1987 33.1873 32.1603 33.3025C32.5277 34.5825 33.0038 35.7576 33.3776 35.7909C33.8755 35.8369 36.4624 34.1128 36.6441 33.2501C36.8259 32.3873 36.8246 32.0251 36.8246 30.9358C36.8246 30.5761 36.8246 30.2395 36.8093 29.9221C36.8707 29.8529 36.9219 29.8017 36.9616 29.8017C37.0973 29.8017 37.3699 29.9835 37.3699 29.9835C37.3699 29.9835 37.5965 28.3502 37.5965 27.3979C37.5965 26.4456 35.7904 25.5829 34.2928 25.7646Z" fill="#6C54A3" stroke="#6C54A3" stroke-linecap="round" stroke-linejoin="round"/>
<path d="M32.75 33.8408L33.6575 33.7051" stroke="white" stroke-linecap="round" stroke-linejoin="round"/>
<path d="M32.4321 31.5723C32.4321 31.5723 31.8421 32.5246 32.0699 32.7063C32.2977 32.8881 33.067 32.842 33.067 32.842" fill="white"/>
<path d="M32.4321 31.5723C32.4321 31.5723 31.8421 32.5246 32.0699 32.7063C32.2977 32.8881 33.067 32.842 33.067 32.842" stroke="#6C54A3" stroke-linecap="round" stroke-linejoin="round"/>
<path d="M31.4807 30.619C31.4807 30.619 31.1172 31.1182 31.1172 31.4356C31.1172 31.753 31.9799 32.434 31.9799 32.434C31.9799 32.434 32.2513 31.3908 32.6199 31.6174C32.9885 31.8439 33.073 32.2574 33.4813 32.2574C33.8897 32.2574 35.2055 31.9399 35.4333 31.5316C35.6612 31.1233 35.7508 30.3527 35.7508 30.3527L37.1114 30.0353L37.0666 29.627L31.4807 30.619Z" fill="white" stroke="#6C54A3" stroke-linecap="round" stroke-linejoin="round"/>
<path d="M37.0605 29.6211L31.5245 30.3891C31.5245 30.3891 31.2071 30.6157 31.4797 30.6157C31.7523 30.6157 37.0605 29.6211 37.0605 29.6211Z" fill="#6C54A3" stroke="#6C54A3" stroke-linecap="round" stroke-linejoin="round"/>
<path d="M33.52 31.4409C33.5872 31.4409 33.6416 31.316 33.6416 31.1619C33.6416 31.0077 33.5872 30.8828 33.52 30.8828C33.4529 30.8828 33.3984 31.0077 33.3984 31.1619C33.3984 31.316 33.4529 31.4409 33.52 31.4409Z" fill="#6C54A3"/>
<path d="M32.1978 31.5327C32.2649 31.5327 32.3194 31.4078 32.3194 31.2537C32.3194 31.0995 32.2649 30.9746 32.1978 30.9746C32.1306 30.9746 32.0762 31.0995 32.0762 31.2537C32.0762 31.4078 32.1306 31.5327 32.1978 31.5327Z" fill="#6C54A3"/>
<path d="M33.1523 29.8751C33.1523 29.8751 33.3751 29.4092 34.0279 29.5026" stroke="#6C54A3" stroke-linecap="round" stroke-linejoin="round"/>
<path d="M32.3742 30.005C32.2795 29.9525 32.1725 29.9266 32.0643 29.93C31.9562 29.9334 31.8509 29.9659 31.7598 30.0242" stroke="#6C54A3" stroke-linecap="round" stroke-linejoin="round"/>
<path d="M36.4707 30.7086C36.4707 30.7086 36.4707 29.0753 37.1504 29.3006C37.8301 29.5259 37.4691 31.0709 37.3321 31.3883C37.1952 31.7057 36.6064 31.6609 36.6064 31.6609" fill="white"/>
<path d="M36.4707 30.7086C36.4707 30.7086 36.4707 29.0753 37.1504 29.3006C37.8301 29.5259 37.4691 31.0709 37.3321 31.3883C37.1952 31.7057 36.6064 31.6609 36.6064 31.6609" stroke="#6C54A3" stroke-linecap="round" stroke-linejoin="round"/>
<path d="M37.3415 29.8792C37.3245 29.8473 37.3007 29.8194 37.2718 29.7977C37.2429 29.7759 37.2096 29.7608 37.1741 29.7533C37.1387 29.7459 37.1021 29.7463 37.0669 29.7546C37.0317 29.7628 36.9987 29.7787 36.9703 29.8011C36.7271 29.9611 36.8884 30.5282 36.8884 30.5282C36.8884 30.5282 37.234 30.4629 37.1904 30.7227C37.1469 30.9826 36.992 30.9378 36.992 30.9378" stroke="#6C54A3" stroke-linecap="round" stroke-linejoin="round"/>
<path d="M56.4037 49.4824H9.04883" stroke="#263238" stroke-linecap="round" stroke-linejoin="round"/>
<path d="M53.2801 45.8965H45.4746V50.7528H53.2801V45.8965Z" fill="white" stroke="#BCAEEC" stroke-linecap="round" stroke-linejoin="round"/>
<mask id="path-107-inside-1_1218_2188" fill="white">
<path d="M49.9199 44.7598H51.0348V49.3281C51.0348 49.4472 50.9875 49.5615 50.9032 49.6458C50.819 49.73 50.7047 49.7774 50.5855 49.7774H50.3692C50.25 49.7774 50.1358 49.73 50.0515 49.6458C49.9673 49.5615 49.9199 49.4472 49.9199 49.3281V44.7598Z"/>
</mask>
<path d="M49.9199 44.7598H51.0348V49.3281C51.0348 49.4472 50.9875 49.5615 50.9032 49.6458C50.819 49.73 50.7047 49.7774 50.5855 49.7774H50.3692C50.25 49.7774 50.1358 49.73 50.0515 49.6458C49.9673 49.5615 49.9199 49.4472 49.9199 49.3281V44.7598Z" fill="white"/>
<path d="M49.9199 44.7598V43.7598H48.9199V44.7598H49.9199ZM51.0348 44.7598H52.0348V43.7598H51.0348V44.7598ZM49.9199 45.7598H51.0348V43.7598H49.9199V45.7598ZM50.0348 44.7598V49.3281H52.0348V44.7598H50.0348ZM50.0348 49.3281C50.0348 49.182 50.0928 49.0419 50.1961 48.9387L51.6103 50.3529C51.8821 50.0811 52.0348 49.7125 52.0348 49.3281H50.0348ZM50.1961 48.9387C50.2994 48.8354 50.4394 48.7774 50.5855 48.7774V50.7774C50.9699 50.7774 51.3385 50.6247 51.6103 50.3529L50.1961 48.9387ZM50.5855 48.7774H50.3692V50.7774H50.5855V48.7774ZM50.3692 48.7774C50.5153 48.7774 50.6553 48.8354 50.7586 48.9387L49.3444 50.3529C49.6162 50.6247 49.9848 50.7774 50.3692 50.7774V48.7774ZM50.7586 48.9387C50.8619 49.0419 50.9199 49.182 50.9199 49.3281H48.9199C48.9199 49.7125 49.0726 50.0811 49.3444 50.3529L50.7586 48.9387ZM50.9199 49.3281V44.7598H48.9199V49.3281H50.9199Z" fill="#BCAEEC" mask="url(#path-107-inside-1_1218_2188)"/>
<mask id="mask6_1218_2188" style="mask-type:luminance" maskUnits="userSpaceOnUse" x="49" y="44" width="3" height="6">
<mask id="path-109-inside-2_1218_2188" fill="white">
<path d="M49.9199 44.7598H51.0348V49.3281C51.0348 49.4472 50.9875 49.5615 50.9032 49.6458C50.819 49.73 50.7047 49.7774 50.5855 49.7774H50.3692C50.25 49.7774 50.1358 49.73 50.0515 49.6458C49.9673 49.5615 49.9199 49.4472 49.9199 49.3281V44.7598Z"/>
</mask>
<path d="M49.9199 44.7598H51.0348V49.3281C51.0348 49.4472 50.9875 49.5615 50.9032 49.6458C50.819 49.73 50.7047 49.7774 50.5855 49.7774H50.3692C50.25 49.7774 50.1358 49.73 50.0515 49.6458C49.9673 49.5615 49.9199 49.4472 49.9199 49.3281V44.7598Z" fill="white"/>
<path d="M49.9199 44.7598V43.7598H48.9199V44.7598H49.9199ZM51.0348 44.7598H52.0348V43.7598H51.0348V44.7598ZM49.9199 45.7598H51.0348V43.7598H49.9199V45.7598ZM50.0348 44.7598V49.3281H52.0348V44.7598H50.0348ZM50.0348 49.3281C50.0348 49.182 50.0928 49.0419 50.1961 48.9387L51.6103 50.3529C51.8821 50.0811 52.0348 49.7125 52.0348 49.3281H50.0348ZM50.1961 48.9387C50.2994 48.8354 50.4394 48.7774 50.5855 48.7774V50.7774C50.9699 50.7774 51.3385 50.6247 51.6103 50.3529L50.1961 48.9387ZM50.5855 48.7774H50.3692V50.7774H50.5855V48.7774ZM50.3692 48.7774C50.5153 48.7774 50.6553 48.8354 50.7586 48.9387L49.3444 50.3529C49.6162 50.6247 49.9848 50.7774 50.3692 50.7774V48.7774ZM50.7586 48.9387C50.8619 49.0419 50.9199 49.182 50.9199 49.3281H48.9199C48.9199 49.7125 49.0726 50.0811 49.3444 50.3529L50.7586 48.9387ZM50.9199 49.3281V44.7598H48.9199V49.3281H50.9199Z" fill="white" mask="url(#path-109-inside-2_1218_2188)"/>
</mask>
<g mask="url(#mask6_1218_2188)">
<mask id="path-111-inside-3_1218_2188" fill="white">
<path d="M50.3705 49.7767H50.5881C50.707 49.7764 50.821 49.7289 50.9049 49.6447C50.9889 49.5605 51.0361 49.4464 51.0361 49.3274V46.7969H49.9199V49.3274C49.9199 49.3865 49.9316 49.4451 49.9542 49.4997C49.9769 49.5543 50.0101 49.6038 50.052 49.6456C50.0938 49.6873 50.1435 49.7204 50.1982 49.7429C50.2528 49.7654 50.3114 49.7769 50.3705 49.7767Z"/>
</mask>
<path d="M50.3705 49.7767H50.5881C50.707 49.7764 50.821 49.7289 50.9049 49.6447C50.9889 49.5605 51.0361 49.4464 51.0361 49.3274V46.7969H49.9199V49.3274C49.9199 49.3865 49.9316 49.4451 49.9542 49.4997C49.9769 49.5543 50.0101 49.6038 50.052 49.6456C50.0938 49.6873 50.1435 49.7204 50.1982 49.7429C50.2528 49.7654 50.3114 49.7769 50.3705 49.7767Z" fill="#92E3A9"/>
<path d="M50.3705 49.7767V48.7767L50.3676 48.7767L50.3705 49.7767ZM50.5881 49.7767V50.7767L50.5909 50.7767L50.5881 49.7767ZM51.0361 49.3274H50.0361V49.3274L51.0361 49.3274ZM51.0361 46.7969H52.0361V45.7969H51.0361V46.7969ZM49.9199 46.7969V45.7969H48.9199V46.7969H49.9199ZM49.9199 49.3274L50.9199 49.3274V49.3274H49.9199ZM50.3705 50.7767H50.5881V48.7767H50.3705V50.7767ZM50.5909 50.7767C50.9746 50.7756 51.3422 50.6224 51.6131 50.3508L50.1968 48.9386C50.2998 48.8353 50.4394 48.7771 50.5852 48.7767L50.5909 50.7767ZM51.6131 50.3508C51.884 50.0791 52.0361 49.7111 52.0361 49.3274L50.0361 49.3274C50.0361 49.1817 50.0939 49.0418 50.1968 48.9386L51.6131 50.3508ZM52.0361 49.3274V46.7969H50.0361V49.3274H52.0361ZM51.0361 45.7969H49.9199V47.7969H51.0361V45.7969ZM48.9199 46.7969V49.3274H50.9199V46.7969H48.9199ZM48.9199 49.3274C48.9199 49.5181 48.9575 49.7069 49.0306 49.883L50.8779 49.1163C50.9056 49.1833 50.9199 49.255 50.9199 49.3274L48.9199 49.3274ZM49.0306 49.883C49.1037 50.0591 49.2109 50.2191 49.3459 50.3537L50.7581 48.9375C50.8094 48.9886 50.8501 49.0494 50.8779 49.1163L49.0306 49.883ZM49.3459 50.3537C49.4809 50.4883 49.6411 50.595 49.8174 50.6676L50.5789 48.8182C50.6459 48.8458 50.7068 48.8863 50.7581 48.9375L49.3459 50.3537ZM49.8174 50.6676C49.9937 50.7402 50.1827 50.7773 50.3733 50.7767L50.3676 48.7767C50.4401 48.7765 50.5119 48.7906 50.5789 48.8182L49.8174 50.6676Z" fill="#BCAEEC" mask="url(#path-111-inside-3_1218_2188)"/>
</g>
<path d="M49.9199 44.7598H51.0348V49.3281C51.0348 49.4472 50.9875 49.5615 50.9032 49.6458C50.819 49.73 50.7047 49.7774 50.5855 49.7774H50.3692C50.25 49.7774 50.1358 49.73 50.0515 49.6458C49.9673 49.5615 49.9199 49.4472 49.9199 49.3281V44.7598Z" stroke="#BCAEEC" stroke-linecap="round" stroke-linejoin="round"/>
<path d="M51.2444 44.5723H49.7109V44.9908H51.2444V44.5723Z" fill="white" stroke="#BCAEEC" stroke-linecap="round" stroke-linejoin="round"/>
<mask id="path-115-inside-4_1218_2188" fill="white">
<path d="M48.127 44.7598H49.2418V49.3281C49.2418 49.4472 49.1945 49.5615 49.1102 49.6458C49.026 49.73 48.9117 49.7774 48.7926 49.7774H48.5762C48.4571 49.7774 48.3428 49.73 48.2585 49.6458C48.1743 49.5615 48.127 49.4472 48.127 49.3281V44.7598Z"/>
</mask>
<path d="M48.127 44.7598H49.2418V49.3281C49.2418 49.4472 49.1945 49.5615 49.1102 49.6458C49.026 49.73 48.9117 49.7774 48.7926 49.7774H48.5762C48.4571 49.7774 48.3428 49.73 48.2585 49.6458C48.1743 49.5615 48.127 49.4472 48.127 49.3281V44.7598Z" fill="white"/>
<path d="M48.127 44.7598V43.7598H47.127V44.7598H48.127ZM49.2418 44.7598H50.2418V43.7598H49.2418V44.7598ZM49.2418 49.3281H50.2418H49.2418ZM48.127 45.7598H49.2418V43.7598H48.127V45.7598ZM48.2418 44.7598V49.3281H50.2418V44.7598H48.2418ZM48.2418 49.3281C48.2418 49.182 48.2999 49.0419 48.4031 48.9387L49.8173 50.3529C50.0891 50.0811 50.2418 49.7125 50.2418 49.3281H48.2418ZM48.4031 48.9387C48.5064 48.8354 48.6465 48.7774 48.7926 48.7774V50.7774C49.1769 50.7774 49.5456 50.6247 49.8173 50.3529L48.4031 48.9387ZM48.7926 48.7774H48.5762V50.7774H48.7926V48.7774ZM48.5762 48.7774C48.7223 48.7774 48.8624 48.8354 48.9656 48.9387L47.5514 50.3529C47.8232 50.6247 48.1919 50.7774 48.5762 50.7774V48.7774ZM48.9656 48.9387C49.0689 49.0419 49.127 49.182 49.127 49.3281H47.127C47.127 49.7125 47.2796 50.0811 47.5514 50.3529L48.9656 48.9387ZM49.127 49.3281V44.7598H47.127V49.3281H49.127Z" fill="#BCAEEC" mask="url(#path-115-inside-4_1218_2188)"/>
<mask id="mask7_1218_2188" style="mask-type:luminance" maskUnits="userSpaceOnUse" x="48" y="44" width="2" height="6">
<mask id="path-117-inside-5_1218_2188" fill="white">
<path d="M48.127 44.7598H49.2418V49.3281C49.2418 49.4472 49.1945 49.5615 49.1102 49.6458C49.026 49.73 48.9117 49.7774 48.7926 49.7774H48.5762C48.4571 49.7774 48.3428 49.73 48.2585 49.6458C48.1743 49.5615 48.127 49.4472 48.127 49.3281V44.7598Z"/>
</mask>
<path d="M48.127 44.7598H49.2418V49.3281C49.2418 49.4472 49.1945 49.5615 49.1102 49.6458C49.026 49.73 48.9117 49.7774 48.7926 49.7774H48.5762C48.4571 49.7774 48.3428 49.73 48.2585 49.6458C48.1743 49.5615 48.127 49.4472 48.127 49.3281V44.7598Z" fill="white"/>
<path d="M48.127 44.7598V43.7598H47.127V44.7598H48.127ZM49.2418 44.7598H50.2418V43.7598H49.2418V44.7598ZM49.2418 49.3281H50.2418H49.2418ZM48.127 45.7598H49.2418V43.7598H48.127V45.7598ZM48.2418 44.7598V49.3281H50.2418V44.7598H48.2418ZM48.2418 49.3281C48.2418 49.182 48.2999 49.0419 48.4031 48.9387L49.8173 50.3529C50.0891 50.0811 50.2418 49.7125 50.2418 49.3281H48.2418ZM48.4031 48.9387C48.5064 48.8354 48.6465 48.7774 48.7926 48.7774V50.7774C49.1769 50.7774 49.5456 50.6247 49.8173 50.3529L48.4031 48.9387ZM48.7926 48.7774H48.5762V50.7774H48.7926V48.7774ZM48.5762 48.7774C48.7223 48.7774 48.8624 48.8354 48.9656 48.9387L47.5514 50.3529C47.8232 50.6247 48.1919 50.7774 48.5762 50.7774V48.7774ZM48.9656 48.9387C49.0689 49.0419 49.127 49.182 49.127 49.3281H47.127C47.127 49.7125 47.2796 50.0811 47.5514 50.3529L48.9656 48.9387ZM49.127 49.3281V44.7598H47.127V49.3281H49.127Z" fill="white" mask="url(#path-117-inside-5_1218_2188)"/>
</mask>
<g mask="url(#mask7_1218_2188)">
<mask id="path-119-inside-6_1218_2188" fill="white">
<path d="M49.2431 49.3274V46.7969H48.127V49.3274C48.127 49.4466 48.1743 49.5609 48.2585 49.6451C48.3428 49.7294 48.4571 49.7767 48.5762 49.7767H48.7926C48.8517 49.7769 48.9102 49.7654 48.9649 49.7429C49.0195 49.7204 49.0692 49.6873 49.1111 49.6456C49.1529 49.6038 49.1861 49.5543 49.2088 49.4997C49.2315 49.4451 49.2431 49.3865 49.2431 49.3274Z"/>
</mask>
<path d="M49.2431 49.3274V46.7969H48.127V49.3274C48.127 49.4466 48.1743 49.5609 48.2585 49.6451C48.3428 49.7294 48.4571 49.7767 48.5762 49.7767H48.7926C48.8517 49.7769 48.9102 49.7654 48.9649 49.7429C49.0195 49.7204 49.0692 49.6873 49.1111 49.6456C49.1529 49.6038 49.1861 49.5543 49.2088 49.4997C49.2315 49.4451 49.2431 49.3865 49.2431 49.3274Z" fill="#92E3A9"/>
<path d="M49.2431 49.3274H48.2431V49.3274L49.2431 49.3274ZM49.2431 46.7969H50.2431V45.7969H49.2431V46.7969ZM48.127 46.7969V45.7969H47.127V46.7969H48.127ZM48.7926 49.7767L48.7954 48.7767H48.7926V49.7767ZM50.2431 49.3274V46.7969H48.2431V49.3274H50.2431ZM49.2431 45.7969H48.127V47.7969H49.2431V45.7969ZM47.127 46.7969V49.3274H49.127V46.7969H47.127ZM47.127 49.3274C47.127 49.7118 47.2796 50.0804 47.5514 50.3522L48.9656 48.938C49.0689 49.0413 49.127 49.1814 49.127 49.3274H47.127ZM47.5514 50.3522C47.8232 50.624 48.1919 50.7767 48.5762 50.7767V48.7767C48.7223 48.7767 48.8624 48.8347 48.9656 48.938L47.5514 50.3522ZM48.5762 50.7767H48.7926V48.7767H48.5762V50.7767ZM48.7897 50.7767C48.9804 50.7773 49.1693 50.7402 49.3456 50.6676L48.5842 48.8182C48.6512 48.7906 48.7229 48.7765 48.7954 48.7767L48.7897 50.7767ZM49.3456 50.6676C49.5219 50.595 49.6822 50.4883 49.8172 50.3537L48.405 48.9375C48.4563 48.8863 48.5172 48.8458 48.5842 48.8182L49.3456 50.6676ZM49.8172 50.3537C49.9522 50.2191 50.0593 50.0591 50.1324 49.883L48.2852 49.1163C48.313 49.0494 48.3537 48.9886 48.405 48.9375L49.8172 50.3537ZM50.1324 49.883C50.2055 49.7069 50.2431 49.5181 50.2431 49.3274L48.2431 49.3274C48.2431 49.255 48.2574 49.1833 48.2852 49.1163L50.1324 49.883Z" fill="#BCAEEC" mask="url(#path-119-inside-6_1218_2188)"/>
</g>
<path d="M48.127 44.7598H49.2418V49.3281C49.2418 49.4472 49.1945 49.5615 49.1102 49.6458C49.026 49.73 48.9117 49.7774 48.7926 49.7774H48.5762C48.4571 49.7774 48.3428 49.73 48.2585 49.6458C48.1743 49.5615 48.127 49.4472 48.127 49.3281V44.7598Z" stroke="#BCAEEC" stroke-linecap="round" stroke-linejoin="round"/>
<path d="M49.4534 44.5723H47.9199V44.9908H49.4534V44.5723Z" fill="white" stroke="#BCAEEC" stroke-linecap="round" stroke-linejoin="round"/>
<mask id="path-123-inside-7_1218_2188" fill="white">
<path d="M46.3359 44.7598H47.4508V49.3281C47.4508 49.4472 47.4035 49.5615 47.3192 49.6458C47.235 49.73 47.1207 49.7774 47.0015 49.7774H46.7852C46.6661 49.7774 46.5518 49.73 46.4675 49.6458C46.3833 49.5615 46.3359 49.4472 46.3359 49.3281V44.7598Z"/>
</mask>
<path d="M46.3359 44.7598H47.4508V49.3281C47.4508 49.4472 47.4035 49.5615 47.3192 49.6458C47.235 49.73 47.1207 49.7774 47.0015 49.7774H46.7852C46.6661 49.7774 46.5518 49.73 46.4675 49.6458C46.3833 49.5615 46.3359 49.4472 46.3359 49.3281V44.7598Z" fill="white"/>
<path d="M46.3359 44.7598V43.7598H45.3359V44.7598H46.3359ZM47.4508 44.7598H48.4508V43.7598H47.4508V44.7598ZM46.3359 45.7598H47.4508V43.7598H46.3359V45.7598ZM46.4508 44.7598V49.3281H48.4508V44.7598H46.4508ZM46.4508 49.3281C46.4508 49.182 46.5088 49.0419 46.6121 48.9387L48.0263 50.3529C48.2981 50.0811 48.4508 49.7125 48.4508 49.3281H46.4508ZM46.6121 48.9387C46.7154 48.8354 46.8555 48.7774 47.0015 48.7774V50.7774C47.3859 50.7774 47.7546 50.6247 48.0263 50.3529L46.6121 48.9387ZM47.0015 48.7774H46.7852V50.7774H47.0015V48.7774ZM46.7852 48.7774C46.9313 48.7774 47.0714 48.8354 47.1746 48.9387L45.7604 50.3529C46.0322 50.6247 46.4008 50.7774 46.7852 50.7774V48.7774ZM47.1746 48.9387C47.2779 49.0419 47.3359 49.182 47.3359 49.3281H45.3359C45.3359 49.7125 45.4886 50.0811 45.7604 50.3529L47.1746 48.9387ZM47.3359 49.3281V44.7598H45.3359V49.3281H47.3359Z" fill="#BCAEEC" mask="url(#path-123-inside-7_1218_2188)"/>
<mask id="mask8_1218_2188" style="mask-type:luminance" maskUnits="userSpaceOnUse" x="46" y="44" width="2" height="6">
<mask id="path-125-inside-8_1218_2188" fill="white">
<path d="M46.3359 44.7598H47.4508V49.3281C47.4508 49.4472 47.4035 49.5615 47.3192 49.6458C47.235 49.73 47.1207 49.7774 47.0015 49.7774H46.7852C46.6661 49.7774 46.5518 49.73 46.4675 49.6458C46.3833 49.5615 46.3359 49.4472 46.3359 49.3281V44.7598Z"/>
</mask>
<path d="M46.3359 44.7598H47.4508V49.3281C47.4508 49.4472 47.4035 49.5615 47.3192 49.6458C47.235 49.73 47.1207 49.7774 47.0015 49.7774H46.7852C46.6661 49.7774 46.5518 49.73 46.4675 49.6458C46.3833 49.5615 46.3359 49.4472 46.3359 49.3281V44.7598Z" fill="white"/>
<path d="M46.3359 44.7598V43.7598H45.3359V44.7598H46.3359ZM47.4508 44.7598H48.4508V43.7598H47.4508V44.7598ZM46.3359 45.7598H47.4508V43.7598H46.3359V45.7598ZM46.4508 44.7598V49.3281H48.4508V44.7598H46.4508ZM46.4508 49.3281C46.4508 49.182 46.5088 49.0419 46.6121 48.9387L48.0263 50.3529C48.2981 50.0811 48.4508 49.7125 48.4508 49.3281H46.4508ZM46.6121 48.9387C46.7154 48.8354 46.8555 48.7774 47.0015 48.7774V50.7774C47.3859 50.7774 47.7546 50.6247 48.0263 50.3529L46.6121 48.9387ZM47.0015 48.7774H46.7852V50.7774H47.0015V48.7774ZM46.7852 48.7774C46.9313 48.7774 47.0714 48.8354 47.1746 48.9387L45.7604 50.3529C46.0322 50.6247 46.4008 50.7774 46.7852 50.7774V48.7774ZM47.1746 48.9387C47.2779 49.0419 47.3359 49.182 47.3359 49.3281H45.3359C45.3359 49.7125 45.4886 50.0811 45.7604 50.3529L47.1746 48.9387ZM47.3359 49.3281V44.7598H45.3359V49.3281H47.3359Z" fill="white" mask="url(#path-125-inside-8_1218_2188)"/>
</mask>
<g mask="url(#mask8_1218_2188)">
<path d="M46.9508 49.2767H46.8359V47.2969H46.9508V49.2767Z" fill="#92E3A9" stroke="#BCAEEC"/>
</g>
<path d="M46.3359 44.7598H47.4508V49.3281C47.4508 49.4472 47.4035 49.5615 47.3192 49.6458C47.235 49.73 47.1207 49.7774 47.0015 49.7774H46.7852C46.6661 49.7774 46.5518 49.73 46.4675 49.6458C46.3833 49.5615 46.3359 49.4472 46.3359 49.3281V44.7598Z" stroke="#BCAEEC" stroke-linecap="round" stroke-linejoin="round"/>
<path d="M47.6604 44.5723H46.127V44.9908H47.6604V44.5723Z" fill="white" stroke="#BCAEEC" stroke-linecap="round" stroke-linejoin="round"/>
<path d="M53.2801 45.7227H45.4746V46.0695H53.2801V45.7227Z" fill="white" stroke="#BCAEEC" stroke-linecap="round" stroke-linejoin="round"/>
<path d="M53.2801 49.8281H45.4746V50.7536H53.2801V49.8281Z" fill="white" stroke="#BCAEEC" stroke-linecap="round" stroke-linejoin="round"/>
<path d="M45.6457 44.0469H45.1836V50.8693H45.6457V44.0469Z" fill="white" stroke="#BCAEEC" stroke-linecap="round" stroke-linejoin="round"/>
<path d="M53.3371 44.0469H52.875V50.8693H53.3371V44.0469Z" fill="white" stroke="#BCAEEC" stroke-linecap="round" stroke-linejoin="round"/>
<path d="M26.3663 49.5547L24.486 46.2062V43.9022C24.555 43.8752 24.6124 43.825 24.6483 43.7602C24.6841 43.6954 24.6962 43.62 24.6823 43.5473C24.6685 43.4745 24.6297 43.4088 24.5725 43.3617C24.5154 43.3145 24.4436 43.2888 24.3695 43.2891H22.4047C22.3306 43.2888 22.2588 43.3145 22.2017 43.3617C22.1445 43.4088 22.1057 43.4745 22.0919 43.5473C22.078 43.62 22.0901 43.6954 22.126 43.7602C22.1618 43.825 22.2192 43.8752 22.2882 43.9022V46.1217L20.4028 49.5649C20.3357 49.6963 20.3035 49.8427 20.3092 49.9901C20.315 50.1375 20.3585 50.281 20.4356 50.4067C20.5126 50.5325 20.6207 50.6364 20.7495 50.7084C20.8782 50.7804 21.0233 50.8182 21.1708 50.818H25.6111C25.759 50.8169 25.904 50.7777 26.0324 50.7042C26.1607 50.6308 26.2679 50.5255 26.3438 50.3986C26.4197 50.2717 26.4616 50.1274 26.4655 49.9796C26.4695 49.8318 26.4353 49.6854 26.3663 49.5547Z" fill="white" stroke="#BCAEEC" stroke-linecap="round" stroke-linejoin="round"/>
<path d="M25.0054 47.8711H21.7491L20.903 49.4071C20.847 49.5164 20.82 49.6383 20.8248 49.7611C20.8295 49.8838 20.8658 50.0033 20.9301 50.108C20.9944 50.2127 21.0845 50.299 21.1919 50.3588C21.2992 50.4185 21.4202 50.4496 21.543 50.449H25.2384C25.3621 50.4491 25.4837 50.4171 25.5913 50.3561C25.699 50.2951 25.789 50.2073 25.8525 50.1012C25.9161 49.9951 25.9511 49.8743 25.954 49.7506C25.957 49.6269 25.9278 49.5046 25.8694 49.3956L25.0054 47.8711Z" fill="#92E3A9" stroke="#BCAEEC" stroke-linecap="round" stroke-linejoin="round"/>
<path d="M9.90248 48.9697C9.83459 48.9697 9.76947 48.9427 9.72146 48.8947C9.67346 48.8467 9.64648 48.7816 9.64648 48.7137V29.7697C9.64648 29.7018 9.67346 29.6367 9.72146 29.5887C9.76947 29.5406 9.83459 29.5137 9.90248 29.5137C9.97038 29.5137 10.0355 29.5406 10.0835 29.5887C10.1315 29.6367 10.1585 29.7018 10.1585 29.7697V48.7137C10.1585 48.7816 10.1315 48.8467 10.0835 48.8947C10.0355 48.9427 9.97038 48.9697 9.90248 48.9697Z" fill="white" stroke="#BCAEEC" stroke-linecap="round" stroke-linejoin="round"/>
<path d="M18.1755 31.0374H9.39467C9.32678 31.0374 9.26166 31.0104 9.21365 30.9624C9.16564 30.9144 9.13867 30.8493 9.13867 30.7814C9.13867 30.7135 9.16564 30.6484 9.21365 30.6004C9.26166 30.5524 9.32678 30.5254 9.39467 30.5254H18.1755C18.2434 30.5254 18.3085 30.5524 18.3565 30.6004C18.4045 30.6484 18.4315 30.7135 18.4315 30.7814C18.4315 30.8493 18.4045 30.9144 18.3565 30.9624C18.3085 31.0104 18.2434 31.0374 18.1755 31.0374Z" fill="white" stroke="#BCAEEC" stroke-linecap="round" stroke-linejoin="round"/>
<path d="M17.3125 48.6406H8.9477C8.7533 48.6406 8.5957 48.7982 8.5957 48.9926V50.247C8.5957 50.4414 8.7533 50.599 8.9477 50.599H17.3125C17.5069 50.599 17.6645 50.4414 17.6645 50.247V48.9926C17.6645 48.7982 17.5069 48.6406 17.3125 48.6406Z" fill="#263238" stroke="#BCAEEC" stroke-linecap="round" stroke-linejoin="round"/>
<path d="M10.2141 30.4141H9.56641V31.0976H10.2141V30.4141Z" fill="#263238" stroke="#BCAEEC" stroke-linecap="round" stroke-linejoin="round"/>
<path d="M19.6033 32.0591V29.3711H18.1953V32.0591C17.5933 32.2291 17.0731 32.6111 16.7309 33.1347C16.3886 33.6583 16.2473 34.2881 16.3331 34.9077C16.4189 35.5273 16.726 36.095 17.1977 36.5058C17.6694 36.9167 18.2738 37.143 18.8993 37.143C19.5249 37.143 20.1293 36.9167 20.601 36.5058C21.0727 36.095 21.3798 35.5273 21.4656 34.9077C21.5514 34.2881 21.4101 33.6583 21.0678 33.1347C20.7255 32.6111 20.2053 32.2291 19.6033 32.0591Z" fill="white" stroke="#BCAEEC" stroke-linecap="round" stroke-linejoin="round"/>
<path d="M19.6759 29.5862H18.1284C18.0808 29.5859 18.0352 29.5667 18.0016 29.5329C17.9681 29.4991 17.9492 29.4534 17.9492 29.4058C17.9492 29.3582 17.9681 29.3127 18.0017 29.279C18.0353 29.2454 18.0809 29.2266 18.1284 29.2266H19.6759C19.7235 29.2266 19.769 29.2454 19.8027 29.279C19.8363 29.3127 19.8551 29.3582 19.8551 29.4058C19.8551 29.4534 19.8363 29.4991 19.8027 29.5329C19.7692 29.5667 19.7236 29.5859 19.6759 29.5862Z" fill="white" stroke="#BCAEEC" stroke-linecap="round" stroke-linejoin="round"/>
<path d="M16.9442 33.4355C16.7511 33.7749 16.6505 34.159 16.6524 34.5494C16.6542 34.9398 16.7585 35.3229 16.9548 35.6604C17.1511 35.9979 17.4325 36.278 17.7709 36.4727C18.1094 36.6673 18.493 36.7698 18.8834 36.7698C19.2738 36.7698 19.6574 36.6673 19.9958 36.4727C20.3343 36.278 20.6157 35.9979 20.812 35.6604C21.0082 35.3229 21.1125 34.9398 21.1144 34.5494C21.1163 34.159 21.0156 33.7749 20.8226 33.4355H16.9442Z" fill="#92E3A9" stroke="#BCAEEC" stroke-linecap="round" stroke-linejoin="round"/>
<path d="M18.7192 34.8798C18.9136 34.8798 19.0712 34.7222 19.0712 34.5278C19.0712 34.3334 18.9136 34.1758 18.7192 34.1758C18.5248 34.1758 18.3672 34.3334 18.3672 34.5278C18.3672 34.7222 18.5248 34.8798 18.7192 34.8798Z" stroke="#BCAEEC" stroke-linecap="round" stroke-linejoin="round"/>
<path d="M19.6151 34.4958C19.7034 34.4958 19.7751 34.4241 19.7751 34.3358C19.7751 34.2474 19.7034 34.1758 19.6151 34.1758C19.5267 34.1758 19.4551 34.2474 19.4551 34.3358C19.4551 34.4241 19.5267 34.4958 19.6151 34.4958Z" stroke="#BCAEEC" stroke-linecap="round" stroke-linejoin="round"/>
<path d="M18.2606 35.2738C18.2606 35.3141 18.2486 35.3535 18.2262 35.387C18.2037 35.4205 18.1719 35.4466 18.1346 35.462C18.0974 35.4774 18.0564 35.4813 18.0169 35.4733C17.9773 35.4654 17.9411 35.4459 17.9127 35.4173C17.8843 35.3887 17.865 35.3523 17.8573 35.3128C17.8496 35.2732 17.8538 35.2322 17.8694 35.1951C17.885 35.1579 17.9113 35.1262 17.9449 35.104C17.9785 35.0818 18.018 35.0701 18.0583 35.0703C18.085 35.0703 18.1114 35.0756 18.136 35.0858C18.1606 35.0961 18.183 35.1111 18.2018 35.13C18.2206 35.1489 18.2354 35.1714 18.2455 35.1961C18.2556 35.2207 18.2607 35.2472 18.2606 35.2738Z" stroke="#BCAEEC" stroke-linecap="round" stroke-linejoin="round"/>
<path d="M19.9986 30.1602H17.8047V31.4555H19.9986V30.1602Z" fill="#263238" stroke="#BCAEEC" stroke-linecap="round" stroke-linejoin="round"/>
</svg>
