<svg width="64" height="65" viewBox="0 0 64 65" fill="none" xmlns="http://www.w3.org/2000/svg">
<path d="M54.9362 34.0507C42.9051 27.1055 23.4654 27.1055 11.5128 34.0507C-0.43975 40.9958 -0.375826 52.2585 11.654 59.2036C23.6838 66.1488 43.1262 66.1501 55.0787 59.2036C67.0313 52.2572 66.966 40.9971 54.9362 34.0507Z" fill="#F5F5F5"/>
<path d="M30.1576 59.0743L12.1602 48.6812L15.7572 46.5957L33.7587 56.9954L30.1576 59.0743Z" fill="#E6E6E6"/>
<path d="M48.712 49.1385V49.1372L38.3775 43.1709H38.3788L28.0444 37.2046L17.7099 31.2383L7.44336 37.2046L17.7765 43.1709L28.111 49.1372V49.1385L38.4454 55.1048H38.4441L48.7786 61.0711L59.0465 55.1048L48.712 49.1385Z" fill="#E6E6E6"/>
<path d="M56.5159 54.4098L55.9006 53.9038C55.862 52.9342 55.8247 51.9061 55.9858 50.9539C56.147 50.0017 56.5185 49.0495 57.2084 48.361C57.4947 48.072 57.8503 47.8283 58.2552 47.7803C58.66 47.7324 59.1102 47.9375 59.25 48.3197C59.3898 48.7019 59.1754 49.1547 58.941 49.5103C58.4429 50.2681 57.8476 50.9592 57.3589 51.7237C56.8447 52.5285 56.5537 53.4555 56.5159 54.4098Z" fill="#C6D7BC"/>
<path d="M56.5153 54.541L57.1305 55.047C57.586 54.0868 58.2133 53.1959 59.0802 52.5806C59.3894 52.3881 59.6785 52.165 59.9432 51.9147C60.1909 51.6484 60.364 51.2808 60.2921 50.9252C60.2002 50.4671 59.7141 50.1648 59.2467 50.1621C58.7792 50.1595 58.3424 50.3965 57.9815 50.6948C56.8668 51.5991 56.2356 53.136 56.5153 54.541Z" fill="#C6D7BC"/>
<path opacity="0.3" d="M56.5153 54.541L57.1305 55.047C57.586 54.0868 58.2133 53.1959 59.0802 52.5806C59.3894 52.3881 59.6785 52.165 59.9432 51.9147C60.1909 51.6484 60.364 51.2808 60.2921 50.9252C60.2002 50.4671 59.7141 50.1648 59.2467 50.1621C58.7792 50.1595 58.3424 50.3965 57.9815 50.6948C56.8668 51.5991 56.2356 53.136 56.5153 54.541Z" fill="black"/>
<path d="M56.1666 54.1772C56.1523 54.1768 56.1388 54.1709 56.1288 54.1607C56.1188 54.1505 56.1133 54.1368 56.1133 54.1226C56.1386 52.6843 56.4622 50.0261 58.3426 48.396C58.348 48.3914 58.3542 48.3878 58.3609 48.3856C58.3676 48.3833 58.3747 48.3824 58.3817 48.3829C58.3888 48.3834 58.3956 48.3853 58.402 48.3885C58.4083 48.3916 58.4139 48.396 58.4186 48.4013C58.4232 48.4067 58.4267 48.4129 58.429 48.4196C58.4312 48.4263 58.4321 48.4333 58.4316 48.4404C58.4311 48.4474 58.4292 48.4543 58.4261 48.4606C58.4229 48.467 58.4186 48.4726 58.4132 48.4772C57.6142 49.1658 56.2824 50.8171 56.2198 54.1292C56.2185 54.1424 56.2123 54.1546 56.2025 54.1635C56.1926 54.1724 56.1798 54.1772 56.1666 54.1772Z" fill="white"/>
<path d="M56.8139 54.8403C56.8069 54.8396 56.8 54.8376 56.7938 54.8343C56.7876 54.831 56.7821 54.8265 56.7777 54.821C56.7732 54.8156 56.7699 54.8093 56.7679 54.8025C56.7658 54.7958 56.7652 54.7887 56.7659 54.7817C56.8911 53.4886 57.4558 51.7067 59.4294 50.5653C59.4419 50.5585 59.4564 50.5568 59.4701 50.5605C59.4838 50.5642 59.4955 50.5731 59.5027 50.5853C59.5062 50.5914 59.5085 50.5982 59.5095 50.6052C59.5104 50.6122 59.5099 50.6193 59.508 50.6261C59.5062 50.6329 59.503 50.6393 59.4986 50.6449C59.4943 50.6505 59.4889 50.6551 59.4827 50.6586C57.549 51.7759 56.995 53.5232 56.8711 54.787C56.8714 54.7944 56.87 54.8018 56.8671 54.8086C56.8643 54.8155 56.86 54.8216 56.8546 54.8267C56.8492 54.8317 56.8427 54.8355 56.8357 54.8379C56.8287 54.8402 56.8212 54.8411 56.8139 54.8403Z" fill="white"/>
<path d="M8.2788 31.0022C8.03775 30.7719 7.76207 30.5201 7.74609 30.1872C7.74695 30.0381 7.79331 29.8927 7.87898 29.7706C7.96466 29.6486 8.08556 29.5555 8.22553 29.504C8.36679 29.4561 8.51626 29.4372 8.665 29.4485C8.81373 29.4597 8.95868 29.5008 9.09117 29.5693C9.355 29.7084 9.59 29.8964 9.78369 30.1233C10.3673 30.7716 10.7898 31.5485 11.0168 32.3908C11.2438 33.2331 11.2689 34.1171 11.0901 34.9709C11.0847 35.0287 11.0668 35.0846 11.0376 35.1347C11.0084 35.1848 10.9686 35.228 10.921 35.2612C10.7599 35.3464 10.5761 35.196 10.4669 35.0508C10.2263 34.7308 10.0458 34.3698 9.93418 33.9854C9.83696 33.6618 9.88091 33.3062 9.75972 33.0012C9.46273 32.2581 8.85279 31.5509 8.2788 31.0022Z" fill="#C6D7BC"/>
<path d="M10.7884 34.8253C10.78 34.8255 10.7716 34.824 10.7637 34.8208C10.7559 34.8177 10.7488 34.813 10.7428 34.807C10.7368 34.801 10.7321 34.7939 10.729 34.7861C10.7258 34.7782 10.7243 34.7698 10.7245 34.7614C10.7166 33.8262 10.5007 32.9045 10.0926 32.0631C9.68439 31.2217 9.09415 30.4816 8.36459 29.8965C8.35789 29.8913 8.35228 29.8848 8.34811 29.8774C8.34393 29.87 8.34127 29.8618 8.34028 29.8534C8.33929 29.845 8.33999 29.8364 8.34233 29.8283C8.34468 29.8201 8.34862 29.8125 8.35394 29.8059C8.35902 29.7992 8.36539 29.7937 8.37266 29.7895C8.37994 29.7853 8.38798 29.7827 8.3963 29.7817C8.40462 29.7807 8.41306 29.7814 8.42111 29.7837C8.42916 29.786 8.43666 29.79 8.44317 29.7952C9.18839 30.3921 9.79128 31.1475 10.208 32.0065C10.6247 32.8656 10.8448 33.8066 10.8523 34.7614C10.8525 34.7698 10.851 34.7782 10.8478 34.7861C10.8447 34.7939 10.84 34.801 10.834 34.807C10.828 34.813 10.8209 34.8177 10.8131 34.8208C10.8052 34.824 10.7968 34.8255 10.7884 34.8253Z" fill="white"/>
<path d="M9.99527 37.3819C9.59575 37.5151 9.07902 37.4272 8.84463 37.0716C8.56763 36.6534 8.74075 36.0062 8.37052 35.6706C8.1641 35.4815 7.85913 35.4628 7.58479 35.4042C7.31044 35.3456 7.00414 35.1965 6.96418 34.9181C6.90958 34.5506 7.36371 34.2456 7.29846 33.878C7.2332 33.5105 6.73645 33.4039 6.58863 33.0683C6.45545 32.7633 6.69251 32.3931 7.0068 32.2786C7.3211 32.1641 7.67268 32.2426 7.98431 32.3598C8.29595 32.477 8.60225 32.6262 8.93386 32.6701C9.26547 32.7141 9.67698 32.6448 9.93135 32.8819C10.2696 33.1988 10.0765 33.8035 10.3375 34.1857C10.5133 34.4427 10.8449 34.5319 11.098 34.7184C11.2554 34.8324 11.3831 34.9824 11.4704 35.156C11.5578 35.3296 11.6023 35.5216 11.6 35.7159C11.5921 36.138 11.3697 36.4417 11.0527 36.6841C10.7144 36.9371 10.4121 37.2474 9.99527 37.3819Z" fill="#C6D7BC"/>
<path opacity="0.2" d="M9.99527 37.3819C9.59575 37.5151 9.07902 37.4272 8.84463 37.0716C8.56763 36.6534 8.74075 36.0062 8.37052 35.6706C8.1641 35.4815 7.85913 35.4628 7.58479 35.4042C7.31044 35.3456 7.00414 35.1965 6.96418 34.9181C6.90958 34.5506 7.36371 34.2456 7.29846 33.878C7.2332 33.5105 6.73645 33.4039 6.58863 33.0683C6.45545 32.7633 6.69251 32.3931 7.0068 32.2786C7.3211 32.1641 7.67268 32.2426 7.98431 32.3598C8.29595 32.477 8.60225 32.6262 8.93386 32.6701C9.26547 32.7141 9.67698 32.6448 9.93135 32.8819C10.2696 33.1988 10.0765 33.8035 10.3375 34.1857C10.5133 34.4427 10.8449 34.5319 11.098 34.7184C11.2554 34.8324 11.3831 34.9824 11.4704 35.156C11.5578 35.3296 11.6023 35.5216 11.6 35.7159C11.5921 36.138 11.3697 36.4417 11.0527 36.6841C10.7144 36.9371 10.4121 37.2474 9.99527 37.3819Z" fill="black"/>
<path d="M9.81105 34.5032V34.4965C9.74979 34.4086 9.6872 34.322 9.62061 34.2381C9.01998 33.4944 8.20557 32.9528 7.28736 32.6866C7.27923 32.684 7.27065 32.6831 7.26215 32.6839C7.25364 32.6847 7.2454 32.6872 7.23791 32.6913C7.23042 32.6955 7.22386 32.7011 7.21862 32.7078C7.21339 32.7146 7.20959 32.7223 7.20746 32.7306C7.2029 32.747 7.20494 32.7646 7.21316 32.7795C7.22137 32.7944 7.2351 32.8055 7.2514 32.8105C8.14291 33.0695 8.93326 33.5962 9.5154 34.3194C9.53404 34.342 9.55002 34.366 9.56734 34.3886C8.8402 34.1223 8.1024 34.2741 7.70287 34.5924C7.69626 34.5977 7.69077 34.6042 7.68672 34.6117C7.68267 34.6191 7.68014 34.6273 7.67927 34.6357C7.6784 34.6441 7.67922 34.6527 7.68167 34.6608C7.68412 34.6689 7.68816 34.6764 7.69355 34.683C7.69934 34.6905 7.7068 34.6966 7.71536 34.7008C7.72391 34.7049 7.73331 34.707 7.74282 34.7069C7.75783 34.7067 7.77234 34.7016 7.78411 34.6923C8.17565 34.3766 8.98269 34.2368 9.7165 34.5911C10.1746 35.2622 10.4437 36.0442 10.4956 36.8551C10.4966 36.8713 10.5038 36.8866 10.5157 36.8977C10.5275 36.9088 10.5432 36.915 10.5595 36.915C10.5679 36.9145 10.5761 36.9123 10.5837 36.9086C10.5912 36.9049 10.598 36.8998 10.6036 36.8935C10.6091 36.8872 10.6134 36.8798 10.6161 36.8718C10.6188 36.8639 10.62 36.8555 10.6194 36.8471C10.5665 36.0071 10.2872 35.1972 9.81105 34.5032Z" fill="white"/>
<path d="M17.8485 28.4277L9.43839 33.3153L9.42773 37.4225L17.8924 42.3087L26.3012 37.4225L26.3131 33.3153L17.8485 28.4277Z" fill="#C6D7BC"/>
<path opacity="0.2" d="M26.3123 33.3153L17.8476 28.4277L9.4375 33.3153L17.9022 38.2015L26.3123 33.3153Z" fill="white"/>
<path opacity="0.3" d="M17.9032 38.2026L17.8926 42.3098L26.3013 37.4236L26.3133 33.3164L17.9032 38.2026Z" fill="black"/>
<path d="M27.8973 28.9824L19.4872 33.87L19.4766 43.2243L27.9412 48.1118L36.3513 43.2243L36.362 33.87L27.8973 28.9824Z" fill="#C6D7BC"/>
<path opacity="0.2" d="M36.3611 33.87L27.8964 28.9824L19.4863 33.87L27.951 38.7576L36.3611 33.87Z" fill="white"/>
<path opacity="0.3" d="M27.9521 38.7567L27.9414 48.111L36.3515 43.2234L36.3621 33.8691L27.9521 38.7567Z" fill="black"/>
<path d="M38.1864 29.5781L29.7763 34.4644L29.7656 49.139L38.2303 54.0266L46.639 49.139L46.651 34.4644L38.1864 29.5781Z" fill="#C6D7BC"/>
<path opacity="0.2" d="M46.6521 34.4644L38.1874 29.5781L29.7773 34.4644L38.242 39.3519L46.6521 34.4644Z" fill="white"/>
<path opacity="0.3" d="M38.2411 39.3524L38.2305 54.0271L46.6392 49.1395L46.6512 34.4648L38.2411 39.3524Z" fill="black"/>
<path d="M38.1922 29.5391L29.7821 34.4253L29.7715 49.1186L38.2362 54.0062L46.6449 49.1186L46.6569 34.4253L38.1922 29.5391Z" fill="#C6D7BC"/>
<path opacity="0.2" d="M46.658 34.4253L38.1933 29.5391L29.7832 34.4253L38.2479 39.3129L46.658 34.4253Z" fill="white"/>
<path opacity="0.3" d="M38.247 39.3133L38.2363 54.0067L46.6451 49.1191L46.6571 34.4258L38.247 39.3133Z" fill="black"/>
<path d="M48.7157 28.1035L40.3069 32.9911L40.2949 55.2209L48.7596 60.1084L57.1697 55.2209L57.1803 32.9911L48.7157 28.1035Z" fill="#C6D7BC"/>
<path opacity="0.2" d="M57.1801 32.9911L48.7154 28.1035L40.3066 32.9911L48.7713 37.8786L57.1801 32.9911Z" fill="white"/>
<path opacity="0.3" d="M48.7718 37.8778L48.7598 60.1076L57.1698 55.22L57.1805 32.9902L48.7718 37.8778Z" fill="black"/>
<path d="M33.3418 33.9631L32.7612 33.5742L28.3797 42.4677L28.955 42.8566L31.528 41.3717C31.4161 45.5521 30.2561 47.6483 29.1308 48.8522L28.951 48.8975L28.8458 48.9214L28.6354 48.9667L28.5408 48.9867L28.3797 49.016L28.2612 49.036L28.0907 49.0626L27.9775 49.0799C27.9149 49.0892 27.8443 49.0959 27.787 49.1039L27.6872 49.1172L27.4208 49.1438H27.3928C27.2956 49.1532 27.1971 49.1598 27.0985 49.1665C26.9733 49.1758 26.8468 49.1811 26.719 49.1865H26.6044H26.3261H26.2129C26.0598 49.1865 25.9053 49.1865 25.7508 49.1785H25.6709C25.527 49.1785 25.3832 49.1652 25.2381 49.1558H25.1648C25.017 49.1452 24.8692 49.1332 24.72 49.1172L24.6135 49.1066C24.4803 49.0919 24.3471 49.0773 24.2139 49.0599L24.1354 49.0493C23.9902 49.0293 23.845 49.008 23.6985 48.984L23.5933 48.9654C23.4735 48.9454 23.3549 48.9241 23.2351 48.9015L23.1232 48.8802C22.9807 48.8522 22.8369 48.8216 22.6917 48.7896L22.6265 48.7749C22.5026 48.747 22.3774 48.7163 22.2522 48.6857L22.1191 48.6538L21.7848 48.5659L21.6823 48.5379C21.5398 48.4979 21.3959 48.4567 21.2521 48.4127L21.1522 48.3821C21.0421 48.3492 20.9316 48.3146 20.8206 48.2782L20.6874 48.2329L20.3638 48.1224L20.2506 48.0838C20.1086 48.0332 19.9661 47.9812 19.8231 47.928L19.7459 47.8973C19.6273 47.8534 19.5088 47.8068 19.3903 47.7641L19.2571 47.7082L18.9508 47.5817L18.8176 47.5244L18.4181 47.3526L18.3808 47.3366C18.237 47.2714 18.0918 47.2035 17.948 47.1369L17.8148 47.077C17.7109 47.0277 17.6057 46.9771 17.5019 46.9251L17.358 46.8545C17.2475 46.7999 17.1383 46.744 17.0277 46.6867L16.9172 46.6308L16.4817 46.3991C16.4018 46.3578 16.3232 46.3139 16.2447 46.2659C16.2034 46.2433 16.1621 46.222 16.1221 46.198L15.7692 45.9996L15.7586 45.9929L12.1602 48.0944V48.6791C16.2487 51.0323 20.2533 52.1523 23.7465 51.9206C25.4072 51.8114 26.8242 51.4052 27.9775 50.7127C27.9495 50.73 27.9216 50.7486 27.8923 50.7646L31.5013 48.6671C31.8217 48.4814 32.1264 48.2698 32.4123 48.0345C32.4509 48.0039 32.4908 47.9706 32.5294 47.9373L32.5641 47.908L32.656 47.8267L32.6879 47.7988L32.8091 47.6882L32.8291 47.6683L32.9316 47.571L32.9689 47.5351L33.0701 47.4325L33.0941 47.4072C33.1354 47.3646 33.1767 47.322 33.218 47.2741C33.2273 47.2621 33.2379 47.2514 33.2486 47.2394C33.2806 47.2048 33.3125 47.1688 33.3445 47.1316L33.3804 47.0889C33.4204 47.0437 33.459 46.997 33.4976 46.9491L33.5056 46.9398C33.5469 46.8892 33.5882 46.8372 33.6282 46.784C33.6401 46.768 33.6521 46.7533 33.6628 46.7374C33.6947 46.6961 33.7254 46.6535 33.7573 46.6108L33.7906 46.5642L33.9105 46.3884C33.9167 46.3803 33.9225 46.3719 33.9278 46.3631L34.0037 46.2473L34.0264 46.21L34.0836 46.1154C34.1076 46.0768 34.1316 46.0382 34.1542 45.9982L34.2115 45.8983L34.2794 45.7758L34.3366 45.6693C34.358 45.6267 34.3806 45.584 34.4019 45.5361L34.4578 45.4256C34.4672 45.4043 34.4765 45.3856 34.4871 45.3656C34.4978 45.3457 34.5204 45.2937 34.5364 45.2564L34.5604 45.2058C34.595 45.1286 34.6296 45.0487 34.6643 44.9674C34.6709 44.9501 34.6789 44.9302 34.6869 44.9128C34.7135 44.8449 34.7415 44.7797 34.7681 44.7077L34.7934 44.6398C34.7934 44.6238 34.8054 44.6092 34.8121 44.5946L34.8401 44.5133C34.8667 44.4401 34.892 44.3668 34.9173 44.2922C34.9319 44.2496 34.9466 44.2057 34.9599 44.1591C34.9839 44.0845 35.0079 44.0099 35.0305 43.9327C35.0385 43.9047 35.0478 43.8794 35.0558 43.8514C35.0638 43.8235 35.0665 43.8101 35.0731 43.7902C35.0904 43.7289 35.1077 43.665 35.1251 43.6011C35.1424 43.5371 35.153 43.4945 35.1677 43.4399C35.1823 43.3853 35.1996 43.3067 35.2156 43.2401C35.2263 43.2002 35.2356 43.1616 35.2449 43.1203C35.2449 43.1043 35.2529 43.0857 35.2556 43.0697C35.2689 43.0111 35.2809 42.9525 35.2942 42.8939L35.3341 42.6995C35.3461 42.6382 35.3568 42.5769 35.3674 42.5157C35.3781 42.4544 35.3861 42.4238 35.3941 42.3825C35.3941 42.3599 35.4007 42.3372 35.4047 42.3146L35.4327 42.1414C35.4447 42.0682 35.4553 41.9936 35.466 41.9177C35.4766 41.8418 35.4833 41.7978 35.4913 41.7366C35.4913 41.6953 35.5033 41.6553 35.5086 41.6127L35.5206 41.5022C35.5272 41.4423 35.5352 41.3837 35.5406 41.3224C35.5499 41.2412 35.5579 41.1573 35.5659 41.0747C35.5725 41.0134 35.5779 40.9522 35.5832 40.8896L35.5912 40.8044C35.5912 40.7444 35.6005 40.6818 35.6045 40.6206C35.6085 40.5593 35.6138 40.5034 35.6165 40.4434C35.6165 40.3436 35.6285 40.241 35.6338 40.1385C35.6338 40.0852 35.6338 40.0333 35.6418 39.98C35.6418 39.9693 35.6418 39.9587 35.6418 39.948C35.6418 39.8149 35.6511 39.6724 35.6551 39.5325V39.4992C35.6551 39.3461 35.6551 39.1889 35.6551 39.0304C35.6551 39.0145 35.6551 38.9998 35.6551 38.9838L37.7526 37.7733L33.3418 33.9631Z" fill="#455A64"/>
<path d="M33.3424 33.9631L28.961 42.8566L28.3856 42.4677L32.7618 33.5742L33.3424 33.9631ZM28.1845 50.5808C28.2631 50.5302 28.339 50.4783 28.4149 50.4237L28.5055 50.3597C28.6054 50.2865 28.7039 50.2119 28.7998 50.1333L28.9157 50.0348L28.9503 50.0055L29.0275 49.9389L29.0422 49.9256L29.0742 49.8976C29.1141 49.8617 29.1554 49.8244 29.1953 49.7858L29.2166 49.7658L29.2486 49.7365L29.3192 49.6686L29.3552 49.6326C29.3631 49.6246 29.3711 49.6153 29.3805 49.6073L29.4564 49.5314L29.4803 49.5061L29.5642 49.4169L29.6042 49.3742L29.6348 49.3409L29.7307 49.2317L29.768 49.1891L29.8053 49.1452L29.8852 49.0493C29.8858 49.0462 29.8858 49.043 29.8852 49.04C29.8972 49.0266 29.9078 49.012 29.9185 48.9987C29.9491 48.9614 29.9784 48.9228 30.009 48.8842L30.0437 48.8389L30.1143 48.7417L30.1369 48.711L30.1702 48.6644L30.2381 48.5659L30.2914 48.49C30.2964 48.4806 30.3022 48.4717 30.3087 48.4633L30.3526 48.3927C30.3713 48.3661 30.3886 48.3381 30.4059 48.3102C30.4232 48.2822 30.4445 48.2476 30.4645 48.2156C30.4845 48.1836 30.5111 48.1384 30.5338 48.0984C30.5564 48.0585 30.5724 48.0318 30.5924 47.9985L30.6363 47.9186L30.6603 47.876L30.7162 47.7695C30.7309 47.7428 30.7442 47.7149 30.7588 47.6869L30.7828 47.6403C30.8014 47.6043 30.8188 47.567 30.8374 47.5297L30.8467 47.5098L30.9173 47.3619C30.9253 47.3446 30.932 47.3273 30.9399 47.3113C30.9626 47.2621 30.9839 47.2101 31.0065 47.1595C31.0185 47.1302 31.0318 47.1023 31.0438 47.073C31.0558 47.0437 31.0598 47.0343 31.0665 47.0157C31.0944 46.9491 31.1211 46.8825 31.1477 46.8133C31.157 46.7893 31.165 46.7667 31.1743 46.744C31.1837 46.7214 31.1943 46.6894 31.205 46.6614L31.2209 46.6175C31.2463 46.5442 31.2729 46.471 31.2969 46.3964C31.3088 46.3645 31.3195 46.3298 31.3302 46.2965L31.3408 46.2659C31.3648 46.1913 31.3874 46.1167 31.4114 46.0395V46.0302C31.4247 45.9862 31.438 45.9423 31.45 45.897C31.462 45.8517 31.4846 45.7718 31.502 45.7079C31.502 45.7079 31.502 45.6972 31.502 45.6906C31.5139 45.6426 31.5273 45.596 31.5392 45.5468C31.5566 45.4815 31.5725 45.4136 31.5885 45.347L31.6285 45.1765C31.6418 45.1193 31.6538 45.0593 31.6658 45.0007C31.6737 44.9648 31.6804 44.9288 31.6884 44.8929C31.6964 44.8569 31.7004 44.8356 31.7057 44.8063C31.7177 44.745 31.7297 44.6838 31.7403 44.6225C31.751 44.5652 31.7616 44.508 31.771 44.4494C31.771 44.4387 31.771 44.4281 31.771 44.4161C31.7816 44.3588 31.7909 44.3016 31.7989 44.243C31.8109 44.1697 31.8229 44.0951 31.8336 44.0206L31.8575 43.8381C31.8682 43.7609 31.8788 43.6823 31.8882 43.6037L31.9081 43.4253C31.9175 43.3427 31.9255 43.2601 31.9334 43.1762C31.9334 43.115 31.9454 43.0537 31.9508 42.9924C31.9574 42.9032 31.9654 42.8126 31.9707 42.7261C31.9707 42.6675 31.9801 42.6089 31.984 42.549C31.9907 42.4491 31.996 42.3465 32.0014 42.244C32.0014 42.1907 32.0014 42.1401 32.0094 42.0855C32.016 41.939 32.02 41.7885 32.024 41.6367C32.024 41.626 32.024 41.6154 32.024 41.6047C32.024 41.4343 32.024 41.2585 32.024 41.08L31.5086 41.377C31.3967 45.5574 30.2368 47.6536 29.1114 48.8575C28.883 49.1006 28.6392 49.3288 28.3816 49.5407C28.0893 49.7798 27.7775 49.9941 27.4494 50.1813C27.3908 50.2146 27.3309 50.2465 27.2709 50.2785L27.1551 50.3398C27.0912 50.3731 27.0219 50.4037 26.9593 50.4343L26.8501 50.4863C26.7689 50.5236 26.685 50.5582 26.6011 50.5928L26.5691 50.6061C26.4506 50.6541 26.3321 50.6993 26.2109 50.7393C26.1469 50.7619 26.0777 50.7819 26.0164 50.8032L25.9032 50.8405C25.822 50.8658 25.7381 50.8898 25.6542 50.9124L25.529 50.9457C25.4597 50.9644 25.3878 50.983 25.3159 50.999L25.1694 51.0323C25.0904 51.0509 25.0105 51.0682 24.9297 51.0842L24.8671 51.0949L24.6088 51.1415L24.4969 51.1588L24.2758 51.1894L24.1533 51.2054L23.9256 51.2307L23.8124 51.2427C23.7005 51.2534 23.5873 51.2627 23.4728 51.2693C23.3582 51.276 23.2131 51.284 23.0826 51.2893H22.9773C22.8855 51.2893 22.7936 51.2893 22.7003 51.2893H22.5858C22.4327 51.2893 22.2795 51.2893 22.1237 51.2813H22.101C21.9386 51.2813 21.7761 51.2667 21.6136 51.256H21.5417C21.3899 51.2454 21.2367 51.232 21.0836 51.2161H21.0596C20.9078 51.2001 20.7546 51.1828 20.6002 51.1628L20.5216 51.1521C20.3484 51.1282 20.1753 51.1015 20.0009 51.0722H19.9796L19.6213 51.0083L19.5108 50.987C19.3669 50.959 19.2231 50.9284 19.0793 50.8964L19.014 50.8818C18.8888 50.8538 18.7637 50.8245 18.6385 50.7926L18.5053 50.7606C18.3948 50.7326 18.2829 50.7033 18.1723 50.6727H18.1617C17.9886 50.6248 17.8141 50.5755 17.6396 50.5236L17.5384 50.4916C17.4053 50.4516 17.2721 50.4104 17.1389 50.3677C17.0057 50.3251 16.8726 50.2812 16.7394 50.2346L16.6262 50.1959C16.4797 50.144 16.3319 50.0894 16.1854 50.0348L16.1201 50.0095L15.7659 49.8763L15.6327 49.8204C15.4995 49.7658 15.3663 49.7085 15.2252 49.6512L15.2105 49.6446C15.0773 49.5873 14.9362 49.5274 14.799 49.4661L14.783 49.4368C14.6392 49.3716 14.4954 49.3037 14.3515 49.2384L14.2183 49.1771C14.1145 49.1283 14.0106 49.0777 13.9067 49.0253L13.7616 48.9547C13.6404 48.8948 13.5192 48.8322 13.398 48.7696L13.3207 48.731C13.1756 48.6551 13.0304 48.5792 12.8853 48.5006L12.6455 48.3674L12.527 48.3022C12.4058 48.2343 12.2833 48.169 12.1621 48.0957V48.6804C16.2506 51.0336 20.2552 52.1536 23.7484 51.9219C25.4091 51.8127 26.8261 51.4065 27.9794 50.714C28.0154 50.694 28.05 50.6727 28.0847 50.6501C28.1193 50.6274 28.1499 50.6035 28.1845 50.5808Z" fill="#37474F"/>
<path opacity="0.2" d="M12.6436 48.3708L12.8833 48.504C13.0285 48.5826 13.1736 48.6585 13.3188 48.7344L13.396 48.773C13.5172 48.8356 13.6384 48.8982 13.7596 48.9581L13.9048 49.0287C14.0086 49.0802 14.1125 49.1308 14.2164 49.1805L14.3496 49.2418C14.4934 49.3097 14.6372 49.375 14.7811 49.4402L14.817 49.4562C14.9502 49.5175 15.0914 49.5774 15.2285 49.6346L15.2432 49.6413C15.3764 49.6986 15.5095 49.7558 15.6507 49.8104L15.7839 49.8664L16.1381 49.9996L16.2034 50.0249C16.3499 50.0795 16.4977 50.1341 16.6442 50.186L16.7574 50.2246C16.8906 50.2712 17.0238 50.3152 17.1569 50.3578C17.2901 50.4004 17.4233 50.4417 17.5565 50.4816L17.6577 50.5136C17.8321 50.5655 18.0066 50.6148 18.1797 50.6628H18.1904C18.3009 50.6934 18.4128 50.7227 18.5233 50.7507L18.6565 50.7826C18.7817 50.8146 18.9069 50.8439 19.032 50.8719L19.0973 50.8865C19.2411 50.9185 19.385 50.9491 19.5288 50.9771L19.6393 50.9984L19.9976 51.0623H20.0189C20.1933 51.0916 20.3665 51.1182 20.5396 51.1422L20.6182 51.1529C20.7727 51.1728 20.9258 51.1901 21.0776 51.2061H21.1016C21.2548 51.2221 21.4079 51.2354 21.5597 51.2461H21.6316C21.7941 51.2567 21.9566 51.2661 22.1191 51.2714H22.1417C22.2975 51.2714 22.4507 51.2794 22.6038 51.2794H22.7184C22.8116 51.2794 22.9035 51.2794 22.9954 51.2794H23.1006C23.2338 51.2794 23.3669 51.2687 23.4908 51.2594C23.6146 51.2501 23.7185 51.2434 23.8304 51.2328L23.9436 51.2208L24.1713 51.1955L24.2938 51.1795L24.5149 51.1489L24.6268 51.1315L24.8851 51.0849L24.9477 51.0743C25.0285 51.0583 25.1084 51.041 25.1874 51.0223L25.3339 50.989C25.4059 50.9731 25.4778 50.9544 25.547 50.9358L25.6722 50.9025C25.7561 50.8798 25.84 50.8559 25.9212 50.8306L26.0344 50.7933C26.0997 50.772 26.1676 50.752 26.2289 50.7294C26.3501 50.6867 26.4686 50.6415 26.5871 50.5962L26.6191 50.5829C26.703 50.5482 26.7869 50.5136 26.8681 50.4763L26.9773 50.4244C27.0426 50.3938 27.1105 50.3631 27.1731 50.3298L27.289 50.2686C27.3489 50.2366 27.4088 50.2046 27.4674 50.1713C27.7955 49.9842 28.1073 49.7699 28.3997 49.5308C28.6572 49.3188 28.901 49.0906 29.1295 48.8476L28.9497 48.8929L28.8445 48.9168L28.634 48.9621L28.5395 48.9821L28.3783 49.0114L28.2598 49.0314L28.0894 49.058L27.9762 49.0753C27.9136 49.0846 27.843 49.0913 27.7857 49.0993L27.6858 49.1126L27.4195 49.1392H27.3915C27.2943 49.1486 27.1957 49.1552 27.0972 49.1619C26.972 49.1712 26.8455 49.1765 26.7176 49.1818H26.6031H26.3248H26.2116C26.0584 49.1818 25.9039 49.1818 25.7495 49.1739H25.6695C25.5257 49.1739 25.3819 49.1605 25.2367 49.1512H25.1635C25.0157 49.1406 24.8678 49.1286 24.7187 49.1126L24.6121 49.1019C24.479 49.0873 24.3458 49.0726 24.2126 49.0553L24.134 49.0447C23.9889 49.0247 23.8437 49.0034 23.6972 48.9794L23.592 48.9608C23.4721 48.9408 23.3536 48.9195 23.2338 48.8969L23.1219 48.8755C22.9794 48.8476 22.8356 48.8169 22.6904 48.785L22.6251 48.7703C22.5013 48.7424 22.3761 48.7117 22.2509 48.6811L22.1177 48.6491L21.7835 48.5612L21.6809 48.5333C21.5384 48.4933 21.3946 48.452 21.2508 48.4081L21.1509 48.3775C21.0408 48.3446 20.9303 48.31 20.8193 48.2736L20.6861 48.2283L20.3625 48.1178L20.2493 48.0791C20.1072 48.0285 19.9647 47.9766 19.8218 47.9233L19.7445 47.8927C19.626 47.8488 19.5075 47.8021 19.389 47.7595L19.2558 47.7036L18.9495 47.5771L18.8163 47.5198L18.4168 47.348L18.3795 47.332C18.2357 47.2668 18.0905 47.1989 17.9467 47.1323L17.8135 47.0723C17.7096 47.0231 17.6044 46.9725 17.5005 46.9205L17.3567 46.8499C17.2462 46.7953 17.1369 46.7394 17.0264 46.6821L16.9159 46.6262L16.4804 46.3945C16.4005 46.3532 16.3219 46.3092 16.2433 46.2613C16.2021 46.2387 16.1608 46.2173 16.1208 46.1934L15.7679 45.9949L15.7572 45.9883L12.1602 48.0938C12.2813 48.1644 12.4039 48.227 12.5251 48.3002L12.6436 48.3708Z" fill="white"/>
<path d="M9.56745 11.2675C10.1588 10.9266 10.6582 11.0944 10.818 11.6244C10.9594 11.3333 11.1789 11.0871 11.4519 10.9133C11.9154 10.6469 12.2922 10.8613 12.2936 11.3927V11.6377L12.9168 11.2782C13.2418 11.0917 13.5055 11.2422 13.5068 11.6151C13.4958 11.8182 13.437 12.0159 13.3352 12.192C13.2334 12.3681 13.0914 12.5177 12.9208 12.6286L7.65638 15.6703C7.33143 15.8568 7.06774 15.7076 7.06641 15.3347C7.07696 15.1313 7.13557 14.9333 7.23742 14.7569C7.33928 14.5805 7.48148 14.4307 7.65238 14.3199L8.27431 13.9603V13.5115C8.27032 12.6872 8.85097 11.683 9.56745 11.2675Z" fill="#E6E6E6"/>
<path d="M14.7301 13.2606C15.155 13.0169 15.5132 13.1367 15.6277 13.5176C15.7299 13.3078 15.8886 13.1308 16.0859 13.0062C16.4175 12.8144 16.6892 12.9689 16.6892 13.3511V13.5269L17.1353 13.2686C17.3684 13.1354 17.5575 13.2419 17.5575 13.5096C17.5501 13.6556 17.5083 13.7977 17.4353 13.9243C17.3624 14.0509 17.2605 14.1585 17.138 14.2381L13.3571 16.4208C13.124 16.554 12.9349 16.4475 12.9336 16.1798C12.9417 16.0339 12.9841 15.8919 13.0572 15.7654C13.1303 15.6388 13.2321 15.5313 13.3544 15.4513L13.8006 15.1943V14.8707C13.8176 14.548 13.9107 14.234 14.0723 13.9542C14.2338 13.6743 14.4593 13.4367 14.7301 13.2606Z" fill="#E6E6E6"/>
<path d="M57.7238 12.6199C57.299 12.3749 56.9407 12.4948 56.8262 12.8756C56.724 12.6663 56.5653 12.4896 56.3681 12.3656C56.0365 12.1738 55.7648 12.3283 55.7648 12.7105V12.885L55.3187 12.6279C55.0856 12.4948 54.8965 12.6013 54.8965 12.869C54.9038 13.0149 54.9457 13.157 55.0186 13.2837C55.0915 13.4103 55.1935 13.5178 55.316 13.5975L59.0969 15.7802C59.3299 15.9134 59.519 15.8069 59.5204 15.5392C59.5122 15.3933 59.4699 15.2513 59.3968 15.1248C59.3237 14.9982 59.2219 14.8906 59.0995 14.8107L58.6534 14.5523V14.23C58.6359 13.9075 58.5426 13.5936 58.3811 13.3139C58.2196 13.0341 57.9944 12.7964 57.7238 12.6199Z" fill="#E6E6E6"/>
<path d="M34.3026 8.82058C34.3028 8.80241 34.298 8.78454 34.2889 8.76884C34.2798 8.75314 34.2666 8.74019 34.2507 8.73135L33.7899 8.47432C33.7747 8.46555 33.7575 8.46094 33.74 8.46094C33.7224 8.46094 33.7052 8.46555 33.69 8.47432L30.5298 10.2988C30.4715 10.3305 30.4248 10.38 30.3966 10.44C30.3791 10.4799 30.37 10.523 30.37 10.5665V11.7411L29.2752 12.8731C29.178 12.9743 29.1674 13.1275 29.2433 13.1515L29.6801 13.3912C29.6873 13.3993 29.6965 13.4054 29.7068 13.4089C29.717 13.4124 29.728 13.4132 29.7387 13.4112L30.374 13.3339V14.1969C30.3739 14.2147 30.3786 14.2322 30.3875 14.2476C30.3963 14.2631 30.4091 14.2759 30.4246 14.2848L30.884 14.5392H30.8907C30.9051 14.5466 30.9211 14.5505 30.9373 14.5505C30.9535 14.5505 30.9695 14.5466 30.9839 14.5392L34.1442 12.7133C34.191 12.6864 34.23 12.6476 34.2571 12.6009C34.2842 12.5541 34.2986 12.501 34.2987 12.447L34.3026 8.82058Z" fill="#C6D7BC"/>
<path opacity="0.1" d="M30.8436 14.452C30.8437 14.4695 30.8482 14.4866 30.8569 14.5018C30.8655 14.517 30.8779 14.5297 30.8929 14.5386L30.4334 14.2802C30.418 14.2713 30.4052 14.2585 30.3963 14.2431C30.3874 14.2277 30.3828 14.2102 30.3828 14.1924V13.3294L30.8449 13.2734L30.8436 14.452Z" fill="black"/>
<path opacity="0.2" d="M30.525 10.2969L33.6853 8.47237C33.7005 8.4636 33.7177 8.45898 33.7353 8.45898C33.7528 8.45898 33.77 8.4636 33.7852 8.47237L34.246 8.7294C34.2304 8.72026 34.2127 8.71545 34.1947 8.71545C34.1767 8.71545 34.159 8.72026 34.1434 8.7294L30.9872 10.5512C30.9275 10.5848 30.8806 10.6373 30.854 10.7004L30.3945 10.4341C30.4228 10.3759 30.4684 10.328 30.525 10.2969Z" fill="white"/>
<path opacity="0.1" d="M30.375 11.7386V10.564C30.3751 10.5205 30.3842 10.4774 30.4016 10.4375L30.8611 10.7039C30.8456 10.7414 30.8378 10.7817 30.8385 10.8224V11.9983L30.3763 11.74L30.375 11.7386Z" fill="black"/>
<path opacity="0.05" d="M29.2811 12.8703L30.3758 11.7383L30.8379 11.9966L29.7446 13.1273C29.6593 13.2139 29.6407 13.3404 29.686 13.3937L29.2491 13.1539C29.1732 13.1246 29.1839 12.9715 29.2811 12.8703Z" fill="white"/>
<path d="M32.72 10.3872C32.73 10.3793 32.7425 10.375 32.7553 10.375C32.768 10.375 32.7805 10.3793 32.7905 10.3872L33.4098 10.9798C33.4538 11.0211 33.4098 11.1409 33.3406 11.1822L32.9983 11.3793L33.0063 12.787L32.4576 13.104L32.4496 11.6963L32.1073 11.8934C32.0354 11.936 31.9941 11.8641 32.0368 11.7735L32.6494 10.4684C32.6649 10.4353 32.6894 10.4072 32.72 10.3872Z" fill="white"/>
<path opacity="0.1" d="M32.3139 32.9646C32.1048 32.4758 31.6693 32.0124 31.0087 31.6328C29.0843 30.5208 25.9747 30.5208 24.0623 31.6328C22.1499 32.7449 22.1605 34.5454 24.0849 35.6561C25.6298 36.5484 27.939 36.7215 29.7782 36.1821V34.4642L32.3139 32.9646Z" fill="black"/>
<path d="M20.7441 20.6335L22.9882 18.8809L23.2066 19.2751L20.9293 21.061L20.7441 20.6335Z" fill="#263238"/>
<path d="M24.8716 22.2102L26.1314 22.0957C25.9716 22.8948 25.6906 24.0028 25.6906 24.0028L24.5293 23.257L24.8716 22.2102Z" fill="#455A64"/>
<path d="M17.9602 27.3657C17.9588 27.0773 18.0524 26.7965 18.2266 26.5666C18.3652 26.4082 18.5119 26.2571 18.666 26.1138C18.7763 26.0077 18.8603 25.8773 18.9111 25.7329C18.9599 25.567 19.0326 25.4091 19.1268 25.2641C19.2318 25.0966 19.3965 24.9752 19.5876 24.9245C19.625 24.9157 19.6639 24.9146 19.7017 24.9215C19.7395 24.9284 19.7755 24.943 19.8074 24.9645L19.7701 24.9179C19.7369 24.8761 19.6924 24.8446 19.6419 24.8274C19.5913 24.8102 19.5369 24.8078 19.4851 24.8207C19.2894 24.8715 19.1209 24.996 19.015 25.1683C18.9174 25.315 18.8429 25.4758 18.7939 25.645C18.7436 25.7963 18.6577 25.9333 18.5435 26.0446C18.3863 26.1906 18.237 26.3449 18.096 26.5067C17.9179 26.7405 17.8215 27.0264 17.8217 27.3204C17.817 27.381 17.8244 27.4419 17.8436 27.4995C17.8628 27.5572 17.8934 27.6104 17.9336 27.656C17.9807 27.6978 18.04 27.7235 18.1027 27.7292C18.0903 27.7215 18.0787 27.7126 18.0681 27.7026C18.0279 27.6568 17.9976 27.6033 17.9791 27.5454C17.9605 27.4874 17.9541 27.4262 17.9602 27.3657Z" fill="black"/>
<path d="M19.8689 25.0122C19.8518 24.9911 19.8316 24.9727 19.8089 24.9576C19.777 24.9362 19.7411 24.9215 19.7032 24.9146C19.6654 24.9078 19.6266 24.9088 19.5892 24.9177C19.3981 24.9683 19.2333 25.0897 19.1284 25.2573C19.0331 25.4042 18.9599 25.5644 18.9113 25.7327C18.8618 25.8804 18.7778 26.0142 18.6663 26.1229C18.5121 26.2662 18.3654 26.4173 18.2268 26.5757C18.0527 26.8056 17.9591 27.0864 17.9604 27.3748C17.9556 27.4341 17.9628 27.4938 17.9816 27.5504C18.0003 27.6069 18.0303 27.659 18.0696 27.7037C18.0803 27.7137 18.0919 27.7227 18.1043 27.7304C18.1486 27.7569 18.1982 27.7731 18.2496 27.778C18.301 27.7828 18.3528 27.7761 18.4012 27.7583C18.512 27.7151 18.6087 27.6423 18.6809 27.5479C18.7568 27.4587 18.8141 27.3588 18.8953 27.2682C19.0251 27.1241 19.1702 26.9946 19.3282 26.882L19.7557 26.5544L19.9501 25.1294C19.9501 25.1294 19.9141 25.0668 19.8689 25.0122Z" fill="#263238"/>
<path d="M22.9175 24.7715L22.8523 26.5307C22.0532 25.721 19.973 24.9659 19.973 24.9659C19.1846 25.5466 19.3604 26.2138 19.656 26.5307C21.2861 27.4177 23.1479 28.611 23.5741 28.5124C24.0003 28.4139 24.5649 27.7666 24.9791 26.5467L24.18 25.175L22.9175 24.7715Z" fill="#37474F"/>
<path d="M28.5576 34.2188C28.5403 34.2548 28.5159 34.2868 28.486 34.3132C28.456 34.3395 28.421 34.3595 28.3831 34.372C28.3079 34.397 28.2294 34.4109 28.1501 34.4133C27.9786 34.4313 27.8055 34.4286 27.6347 34.4053C27.4633 34.3825 27.3016 34.3129 27.1672 34.2042C27.0516 34.0912 26.9514 33.9636 26.8689 33.8246C26.6486 33.5023 26.3752 33.2195 26.0605 32.9883C26.0688 33.0457 26.0803 33.1026 26.0952 33.1587C26.3979 33.3825 26.6596 33.6569 26.8689 33.9698C26.9517 34.109 27.0519 34.237 27.1672 34.3507C27.3019 34.4589 27.4635 34.5284 27.6347 34.5518C27.8056 34.5737 27.9785 34.5764 28.1501 34.5598C28.2294 34.5569 28.3079 34.5426 28.3831 34.5171C28.421 34.5046 28.456 34.4846 28.486 34.4583C28.5159 34.432 28.5403 34.3999 28.5576 34.364C28.5799 34.3099 28.5832 34.2498 28.5669 34.1935C28.5644 34.2022 28.5613 34.2106 28.5576 34.2188Z" fill="#263238"/>
<path d="M28.488 33.8967C28.409 33.8142 28.3195 33.7425 28.2216 33.6836C27.7877 33.3878 27.464 32.9564 27.3014 32.457L26.0788 32.5263C26.0246 32.6742 26.0186 32.8355 26.0615 32.9871C26.3762 33.2183 26.6495 33.501 26.8699 33.8234C26.9523 33.9624 27.0526 34.09 27.1682 34.203C27.3026 34.3117 27.4643 34.3813 27.6357 34.4041C27.8065 34.4274 27.9795 34.4301 28.151 34.4121C28.2303 34.4097 28.3088 34.3958 28.3841 34.3708C28.422 34.3583 28.4569 34.3383 28.4869 34.3119C28.5169 34.2856 28.5413 34.2536 28.5586 34.2176C28.5623 34.2094 28.5654 34.201 28.5679 34.1923C28.5794 34.1402 28.5782 34.0862 28.5643 34.0347C28.5504 33.9832 28.5242 33.9358 28.488 33.8967Z" fill="#37474F"/>
<path d="M22.0749 21.9707C21.8085 23.2625 21.9111 23.8352 22.9179 24.7674C23.9247 25.6996 25.5814 27.0314 25.5814 27.0314C25.1819 28.3458 25.7785 30.0758 25.8012 30.743C25.8238 31.4102 25.9876 32.5382 25.9876 32.5382C26.9065 33.031 27.3993 32.5382 27.3993 32.5382V26.7437C27.3997 26.2354 27.2156 25.7442 26.8812 25.3614L24.8716 23.0694V22.2144L22.0749 21.9707Z" fill="#455A64"/>
<path d="M29.1585 18.5619C29.3327 18.6199 29.5186 18.6331 29.6992 18.6005C29.6992 18.2516 29.6992 17.8614 29.7272 17.354C29.7925 16.2593 29.4968 15.656 29.2531 15.4376C29.0094 15.2192 28.5872 15.2152 28.4314 15.3537C28.2756 15.4922 28.6578 15.9956 28.7124 16.4338C28.494 16.1781 28.3834 16.0915 28.1797 16.2473C28.2999 16.387 28.3905 16.5497 28.446 16.7254C28.49 16.9452 28.7244 17.0983 28.7896 17.2794C28.8402 17.4206 28.7896 17.8721 28.7057 18.2596C28.8286 18.3971 28.9844 18.5011 29.1585 18.5619Z" fill="#F28F8F"/>
<path opacity="0.2" d="M29.1585 18.5619C29.3327 18.6199 29.5186 18.6331 29.6992 18.6005C29.6992 18.2516 29.6992 17.8614 29.7272 17.354C29.7925 16.2593 29.4968 15.656 29.2531 15.4376C29.0094 15.2192 28.5872 15.2152 28.4314 15.3537C28.2756 15.4922 28.6578 15.9956 28.7124 16.4338C28.494 16.1781 28.3834 16.0915 28.1797 16.2473C28.2999 16.387 28.3905 16.5497 28.446 16.7254C28.49 16.9452 28.7244 17.0983 28.7896 17.2794C28.8402 17.4206 28.7896 17.8721 28.7057 18.2596C28.8286 18.3971 28.9844 18.5011 29.1585 18.5619Z" fill="black"/>
<path d="M29.1574 18.5621C28.9819 18.5019 28.8246 18.3979 28.7006 18.2598C28.6766 18.3757 28.65 18.4862 28.6234 18.5794C28.6234 18.5794 27.7777 17.4195 27.5873 17.1997C27.3968 16.98 27.2224 16.4566 26.3887 16.3594L26.4886 18.405C26.4886 18.405 28.1679 20.316 28.7432 20.6383C29.3185 20.9606 29.5103 20.5424 29.6275 19.7687C29.6799 19.3817 29.7022 18.9912 29.6941 18.6007C29.5148 18.6327 29.3303 18.6194 29.1574 18.5621Z" fill="#455A64"/>
<path opacity="0.3" d="M28.4998 19.8185C28.3667 19.343 28.5651 18.753 28.633 18.5799L28.4892 18.3828C28.3839 18.6078 28.3302 18.8535 28.3321 19.1018C28.3339 19.3502 28.3912 19.5951 28.4998 19.8185Z" fill="black"/>
<path d="M23.9137 16.3163C23.4316 16.2511 22.9175 16.3323 22.3915 16.4202C22.2946 17.5639 22.2946 18.7138 22.3915 19.8575L21.9746 22.0908C23.606 23.0764 25.6862 22.6382 26.1031 22.3572C26.7596 19.7962 26.9234 17.3764 26.3934 16.3643L25.0963 16.1445L23.9137 16.3163Z" fill="#37474F"/>
<path d="M24.9531 17.312L24.5723 17.0097C24.6922 16.9514 24.817 16.9037 24.9452 16.8672L25.0956 16.9418L24.9531 17.312Z" fill="#C6D7BC"/>
<path d="M25.3621 17.28L25.446 17.2281L25.5872 16.9218L25.4234 16.8672L25.3262 16.9418L25.3621 17.28Z" fill="#C6D7BC"/>
<path d="M25.055 17.5228C24.7674 18.6655 23.4276 19.4099 22.3236 19.33C22.1669 19.3155 22.0101 19.356 21.8801 19.4445C21.7178 19.5616 21.5737 19.7021 21.4526 19.8614C21.4368 19.8827 21.426 19.9073 21.421 19.9334C21.4161 19.9595 21.4171 19.9864 21.424 20.012C21.431 20.0376 21.4436 20.0613 21.461 20.0814C21.4784 20.1014 21.5001 20.1173 21.5245 20.1277C21.7689 20.2257 22.021 20.3033 22.2783 20.3595C22.5469 20.4218 22.827 20.4144 23.092 20.3382C25.099 19.7575 25.3773 18.4737 25.3227 17.5215L25.055 17.5228Z" fill="#C6D7BC"/>
<path opacity="0.3" d="M25.3269 17.5721C25.3269 17.5548 25.3269 17.5375 25.3269 17.5215H25.0605C25.0605 17.5215 25.0605 17.5321 25.0605 17.5375C25.0984 17.5691 25.1447 17.589 25.1937 17.5947C25.2393 17.5988 25.2852 17.591 25.3269 17.5721Z" fill="black"/>
<path d="M25.0956 16.9426C25.1719 16.9306 25.2496 16.9306 25.3259 16.9426C25.3911 17.0254 25.4325 17.1244 25.4458 17.2289C25.4261 17.3345 25.3843 17.4348 25.3233 17.5232C25.254 17.5752 25.0569 17.5232 25.0569 17.5232C25.0061 17.456 24.9615 17.3842 24.9238 17.3088C24.9122 17.2854 24.9062 17.2597 24.9062 17.2336C24.9062 17.2075 24.9122 17.1817 24.9238 17.1583C24.9646 17.0748 25.0233 17.0011 25.0956 16.9426Z" fill="#C6D7BC"/>
<path opacity="0.3" d="M25.8214 22.7539C25.6167 23.0029 25.3294 23.1702 25.0117 23.2253L25.6896 24.0004C25.6184 23.7548 25.5038 23.5239 25.3513 23.3186C25.5659 23.1872 25.7312 22.9888 25.8214 22.7539Z" fill="black"/>
<path d="M25.1992 16.9067C25.5082 16.8242 25.7053 17.1731 25.7053 17.1731C25.7239 16.4153 25.3311 16.125 25.3311 16.125L25.1992 16.9067Z" fill="#455A64"/>
<path d="M23.8829 13.1629C23.7498 13.071 23.6073 12.9804 23.4688 12.8899C23.5034 12.8479 23.5469 12.8142 23.5962 12.7911C23.6455 12.7681 23.6993 12.7563 23.7537 12.7567C23.8158 12.7616 23.8735 12.7902 23.9149 12.8366C23.9552 12.8845 23.9757 12.9459 23.9722 13.0084C23.9855 12.7607 24.1986 12.5383 24.421 12.4304C24.6501 12.3328 24.9007 12.2966 25.1481 12.3252C25.3945 12.3412 25.6395 12.3891 25.8859 12.3971C26.1717 12.4079 26.4572 12.3678 26.7289 12.2786C26.7589 12.2685 26.7911 12.2668 26.822 12.2736C26.8529 12.2804 26.8814 12.2955 26.9044 12.3173C26.9274 12.339 26.944 12.3666 26.9525 12.3971C26.961 12.4276 26.9611 12.4598 26.9526 12.4904C26.9051 12.6476 26.8253 12.7932 26.7182 12.9179C26.7753 12.9341 26.8348 12.9404 26.894 12.9365C26.9261 12.9343 26.9581 12.9411 26.9866 12.9559C27.0151 12.9708 27.0389 12.9933 27.0554 13.0208C27.0719 13.0484 27.0805 13.0799 27.0803 13.112C27.08 13.1442 27.0708 13.1756 27.0539 13.2029C26.9451 13.3622 26.7918 13.4859 26.613 13.5584C25.9565 14.5945 24.1866 15.5201 24.1866 15.5201C24.1267 15.5122 24.0696 15.4899 24.0202 15.4551C23.9708 15.4203 23.9306 15.3741 23.9029 15.3204C23.8502 15.2114 23.8164 15.0944 23.803 14.9741C23.7267 14.5204 23.6641 14.0645 23.6152 13.6064C23.5978 13.5099 23.6019 13.4108 23.6272 13.3161C23.6411 13.2706 23.6689 13.2306 23.7066 13.2017C23.7443 13.1728 23.7901 13.1565 23.8376 13.1549" fill="#263238"/>
<path d="M24.0566 14.767C24.0086 15.1945 23.9141 15.9323 23.9141 15.9323C24.287 16.4357 25.0088 16.5462 25.2005 16.9071C25.3244 16.5062 25.4052 16.0932 25.4416 15.6752L24.2097 14.707L24.0566 14.767Z" fill="#F28F8F"/>
<path opacity="0.2" d="M24.0566 14.767C24.0086 15.1945 23.9141 15.9323 23.9141 15.9323C24.287 16.4357 25.0088 16.5462 25.2005 16.9071C25.3244 16.5062 25.4052 16.0932 25.4416 15.6752L24.2097 14.707L24.0566 14.767Z" fill="black"/>
<path opacity="0.3" d="M24.2091 14.707L24.1772 14.719C24.1617 15.0633 24.2765 15.4008 24.4986 15.6644C24.7207 15.9279 25.0338 16.0982 25.3757 16.1413C25.425 15.8523 25.4357 15.6752 25.4357 15.6752L24.2091 14.707Z" fill="black"/>
<path d="M26.6142 13.5607C26.707 14.2727 26.628 14.9964 26.3838 15.6716C26.3524 15.7553 26.2962 15.8274 26.2226 15.8781C26.149 15.9288 26.0616 15.9557 25.9723 15.9552C25.04 15.9552 24.2996 15.6356 24.1704 14.8046C24.1234 14.8644 24.0583 14.9074 23.9848 14.9271C23.9114 14.9468 23.8335 14.9421 23.7629 14.9138C23.6305 14.8528 23.5243 14.7465 23.4632 14.6142C23.4238 14.5455 23.3976 14.4701 23.386 14.3918C23.3746 14.3125 23.3941 14.2319 23.4406 14.1667C23.4839 14.1184 23.5412 14.085 23.6046 14.0711C23.6679 14.0573 23.734 14.0637 23.7935 14.0894C23.9143 14.1438 24.0097 14.2425 24.0599 14.3651C24.0798 14.4104 24.1065 14.465 24.1557 14.4663C24.205 14.4677 24.2356 14.4104 24.2516 14.3625C24.3107 14.1671 24.3363 13.9631 24.3275 13.7592C24.4752 13.7873 24.628 13.7582 24.755 13.6779C24.8782 13.5934 24.9641 13.4646 24.9947 13.3184C25.0343 13.3934 25.0911 13.458 25.1606 13.5066C25.2301 13.5552 25.3102 13.5866 25.3943 13.598C25.4761 13.6092 25.5594 13.6006 25.6372 13.5731C25.7151 13.5455 25.7852 13.4997 25.8417 13.4395C25.9378 13.5376 26.063 13.6021 26.1987 13.6233C26.3403 13.643 26.4846 13.6212 26.6142 13.5607Z" fill="#F28F8F"/>
<path opacity="0.2" d="M26.6142 13.5607C26.707 14.2727 26.628 14.9964 26.3838 15.6716C26.3524 15.7553 26.2962 15.8274 26.2226 15.8781C26.149 15.9288 26.0616 15.9557 25.9723 15.9552C25.04 15.9552 24.2996 15.6356 24.1704 14.8046C24.1234 14.8644 24.0583 14.9074 23.9848 14.9271C23.9114 14.9468 23.8335 14.9421 23.7629 14.9138C23.6305 14.8528 23.5243 14.7465 23.4632 14.6142C23.4238 14.5455 23.3976 14.4701 23.386 14.3918C23.3746 14.3125 23.3941 14.2319 23.4406 14.1667C23.4839 14.1184 23.5412 14.085 23.6046 14.0711C23.6679 14.0573 23.734 14.0637 23.7935 14.0894C23.9143 14.1438 24.0097 14.2425 24.0599 14.3651C24.0798 14.4104 24.1065 14.465 24.1557 14.4663C24.205 14.4677 24.2356 14.4104 24.2516 14.3625C24.3107 14.1671 24.3363 13.9631 24.3275 13.7592C24.4752 13.7873 24.628 13.7582 24.755 13.6779C24.8782 13.5934 24.9641 13.4646 24.9947 13.3184C25.0343 13.3934 25.0911 13.458 25.1606 13.5066C25.2301 13.5552 25.3102 13.5866 25.3943 13.598C25.4761 13.6092 25.5594 13.6006 25.6372 13.5731C25.7151 13.5455 25.7852 13.4997 25.8417 13.4395C25.9378 13.5376 26.063 13.6021 26.1987 13.6233C26.3403 13.643 26.4846 13.6212 26.6142 13.5607Z" fill="black"/>
<path d="M25.7637 14.3691L26.1912 14.9085L25.7863 15.043L25.7637 14.3691Z" fill="#F28F8F"/>
<path opacity="0.3" d="M25.7637 14.3691L26.1912 14.9085L25.7863 15.043L25.7637 14.3691Z" fill="black"/>
<path d="M25.4124 15.2988L25.7493 15.4094C25.7271 15.449 25.6926 15.4803 25.6511 15.4985C25.6095 15.5168 25.5631 15.521 25.5189 15.5106C25.4797 15.4927 25.4478 15.462 25.4284 15.4235C25.409 15.385 25.4034 15.341 25.4124 15.2988Z" fill="#F28F8F"/>
<path opacity="0.3" d="M25.4124 15.2988L25.7493 15.4094C25.7271 15.449 25.6926 15.4803 25.6511 15.4985C25.6095 15.5168 25.5631 15.521 25.5189 15.5106C25.4797 15.4927 25.4478 15.462 25.4284 15.4235C25.409 15.385 25.4034 15.341 25.4124 15.2988Z" fill="black"/>
<path d="M25.6292 15.5036C25.5931 15.5142 25.5547 15.5142 25.5186 15.5036C25.4876 15.4908 25.461 15.4693 25.4421 15.4416C25.4231 15.4139 25.4127 15.3813 25.4121 15.3478C25.4582 15.3412 25.5052 15.3506 25.5453 15.3744C25.5671 15.3894 25.5857 15.4085 25.6001 15.4306C25.6145 15.4528 25.6244 15.4776 25.6292 15.5036Z" fill="#F28F8F"/>
<path d="M25.17 14.4741C25.1704 14.4899 25.1739 14.5055 25.1803 14.5199C25.1868 14.5344 25.196 14.5474 25.2076 14.5582C25.2191 14.569 25.2327 14.5773 25.2475 14.5828C25.2623 14.5883 25.2781 14.5907 25.2939 14.59C25.318 14.5895 25.3413 14.5817 25.361 14.5679C25.3807 14.554 25.3958 14.5346 25.4043 14.5121C25.4129 14.4896 25.4146 14.465 25.4092 14.4416C25.4038 14.4181 25.3915 14.3968 25.3739 14.3803C25.3563 14.3639 25.3342 14.3531 25.3105 14.3492C25.2867 14.3454 25.2623 14.3487 25.2405 14.3588C25.2186 14.3688 25.2002 14.3852 25.1877 14.4057C25.1751 14.4263 25.169 14.4501 25.17 14.4741Z" fill="#263238"/>
<path d="M26.1739 14.3999C26.1757 14.4317 26.1897 14.4616 26.2131 14.4832C26.2364 14.5048 26.2673 14.5165 26.2991 14.5157C26.3231 14.5149 26.3464 14.507 26.3658 14.493C26.3853 14.4789 26.4002 14.4594 26.4086 14.4369C26.417 14.4144 26.4185 14.3899 26.4129 14.3665C26.4073 14.3432 26.395 14.322 26.3773 14.3057C26.3597 14.2894 26.3376 14.2787 26.3139 14.2749C26.2902 14.2712 26.2659 14.2746 26.2441 14.2847C26.2223 14.2948 26.204 14.3111 26.1915 14.3316C26.179 14.3521 26.1729 14.3759 26.1739 14.3999Z" fill="#263238"/>
<path d="M26.2734 13.9175L26.5464 14.0933C26.5571 14.0597 26.5572 14.0237 26.5467 13.9902C26.5362 13.9566 26.5157 13.927 26.4879 13.9055C26.4545 13.8875 26.4168 13.8791 26.379 13.8812C26.3411 13.8833 26.3046 13.8959 26.2734 13.9175Z" fill="#263238"/>
<path d="M25.2427 13.9376L24.9763 14.1307C24.9637 14.098 24.9614 14.0622 24.9698 14.0282C24.9781 13.9941 24.9966 13.9635 25.0229 13.9403C25.0553 13.9186 25.0934 13.9067 25.1324 13.9063C25.1714 13.9058 25.2097 13.9167 25.2427 13.9376Z" fill="#263238"/>
<path d="M23.9126 15.9329L23.9366 15.7438C23.9206 15.7417 23.9045 15.7417 23.8886 15.7438C23.7554 15.8143 23.5117 16.1992 23.5117 16.1992C23.5983 16.4043 24.0151 17.0422 24.3427 17.2646C24.7223 17.0742 24.9966 16.8078 25.1991 16.9051C25.1205 16.4642 23.9126 15.9329 23.9126 15.9329Z" fill="#455A64"/>
<path d="M23.1719 22.9459C24.0841 21.6674 26.0911 18.7069 25.9686 16.2871L26.3828 16.3564C26.5545 18.7389 24.6661 21.8459 23.3517 23.4573L23.1719 22.9459Z" fill="#263238"/>
<path d="M22.8896 23.9618L20.1089 21.6152L19.6174 23.3465C19.6146 23.3576 19.6145 23.3691 19.6171 23.3803C19.6196 23.3914 19.6248 23.4017 19.6321 23.4104L19.6414 23.4184L22.3875 25.8742C22.3783 25.865 22.3717 25.8534 22.3684 25.8408C22.3651 25.8281 22.3653 25.8149 22.3689 25.8023L22.8896 23.9618Z" fill="#C6D7BC"/>
<path opacity="0.15" d="M22.8896 23.9618L20.1089 21.6152L19.6174 23.3465C19.6146 23.3576 19.6145 23.3691 19.6171 23.3803C19.6196 23.3914 19.6248 23.4017 19.6321 23.4104L19.6414 23.4184L22.3875 25.8742C22.3783 25.865 22.3717 25.8534 22.3684 25.8408C22.3651 25.8281 22.3653 25.8149 22.3689 25.8023L22.8896 23.9618Z" fill="black"/>
<path d="M22.7695 24.384L23.2063 22.8418L22.7695 24.384Z" fill="#C6D7BC"/>
<path d="M23.5072 22.681L23.5059 22.6797L23.5072 22.6824V22.681Z" fill="#C6D7BC"/>
<path d="M22.3861 25.8822H22.3874L22.3848 25.8809L22.3861 25.8822Z" fill="#C6D7BC"/>
<path d="M23.5352 22.7642C23.5371 22.7494 23.5355 22.7344 23.5307 22.7203C23.5258 22.7062 23.5178 22.6934 23.5072 22.6829C23.4962 22.6725 23.4828 22.6648 23.4683 22.6604C23.4537 22.6561 23.4383 22.6551 23.4233 22.6576C23.3736 22.6661 23.3274 22.6885 23.2899 22.7222C23.2524 22.7559 23.2252 22.7995 23.2116 22.8481L22.7734 24.3849L22.3739 25.8099C22.3703 25.8225 22.3702 25.8358 22.3734 25.8484C22.3767 25.8611 22.3833 25.8726 22.3926 25.8818C22.4016 25.8908 22.413 25.8972 22.4254 25.9003C22.4379 25.9033 22.4509 25.9029 22.4631 25.8991L23.0078 25.734C23.0487 25.722 23.0852 25.6983 23.1128 25.6659C23.1405 25.6335 23.1582 25.5938 23.1636 25.5516L23.5352 22.7642Z" fill="#C6D7BC"/>
<path opacity="0.3" d="M23.5352 22.7642C23.5371 22.7494 23.5355 22.7344 23.5307 22.7203C23.5258 22.7062 23.5178 22.6934 23.5072 22.6829C23.4962 22.6725 23.4828 22.6648 23.4683 22.6604C23.4537 22.6561 23.4383 22.6551 23.4233 22.6576C23.3736 22.6661 23.3274 22.6885 23.2899 22.7222C23.2524 22.7559 23.2252 22.7995 23.2116 22.8481L22.7734 24.3849L22.3739 25.8099C22.3703 25.8225 22.3702 25.8358 22.3734 25.8484C22.3767 25.8611 22.3833 25.8726 22.3926 25.8818C22.4016 25.8908 22.413 25.8972 22.4254 25.9003C22.4379 25.9033 22.4509 25.9029 22.4631 25.8991L23.0078 25.734C23.0487 25.722 23.0852 25.6983 23.1128 25.6659C23.1405 25.6335 23.1582 25.5938 23.1636 25.5516L23.5352 22.7642Z" fill="black"/>
<path d="M21.9127 22.9609L21.4199 24.7269L21.4972 24.8014L21.9739 23.0488L21.9127 22.9609Z" fill="#C6D7BC"/>
<path d="M20.8664 22.0254L20.375 23.7926L20.4522 23.8672L20.929 22.1146L20.8664 22.0254Z" fill="#C6D7BC"/>
<path d="M20.752 20.2205C20.7411 20.2107 20.7281 20.2035 20.7141 20.1993C20.7 20.1952 20.6852 20.1942 20.6707 20.1965C20.621 20.205 20.5748 20.2274 20.5373 20.2611C20.4998 20.2948 20.4726 20.3384 20.459 20.387L20.0821 21.7187C20.0603 21.7975 20.0612 21.8808 20.0848 21.959C20.1084 22.0373 20.1536 22.1073 20.2153 22.1609L20.5056 22.4126L22.4819 24.1345C22.5128 24.1615 22.5499 24.1802 22.5899 24.1889C22.6299 24.1976 22.6715 24.196 22.7107 24.1843C22.7499 24.1726 22.7855 24.1511 22.8142 24.1219C22.8429 24.0928 22.8638 24.0568 22.8748 24.0174L23.2077 22.8454C23.2214 22.7969 23.2485 22.7532 23.286 22.7195C23.3235 22.6858 23.3698 22.6634 23.4195 22.655C23.4345 22.6524 23.4499 22.6534 23.4644 22.6578C23.479 22.6622 23.4923 22.6699 23.5034 22.6803L20.752 20.2205Z" fill="#C6D7BC"/>
<path opacity="0.2" d="M20.752 20.2205C20.7411 20.2107 20.7281 20.2035 20.7141 20.1993C20.7 20.1952 20.6852 20.1942 20.6707 20.1965C20.621 20.205 20.5748 20.2274 20.5373 20.2611C20.4998 20.2948 20.4726 20.3384 20.459 20.387L20.0821 21.7187C20.0603 21.7975 20.0612 21.8808 20.0848 21.959C20.1084 22.0373 20.1536 22.1073 20.2153 22.1609L20.5056 22.4126L22.4819 24.1345C22.5128 24.1615 22.5499 24.1802 22.5899 24.1889C22.6299 24.1976 22.6715 24.196 22.7107 24.1843C22.7499 24.1726 22.7855 24.1511 22.8142 24.1219C22.8429 24.0928 22.8638 24.0568 22.8748 24.0174L23.2077 22.8454C23.2214 22.7969 23.2485 22.7532 23.286 22.7195C23.3235 22.6858 23.3698 22.6634 23.4195 22.655C23.4345 22.6524 23.4499 22.6534 23.4644 22.6578C23.479 22.6622 23.4923 22.6699 23.5034 22.6803L20.752 20.2205Z" fill="white"/>
<path d="M19.0449 20.3503L19.1341 21.6967C19.3246 23.0391 19.5723 23.2509 20.1862 23.428C20.8002 23.6051 20.4406 22.8381 20.3607 22.6956C20.3019 22.5684 20.2603 22.4341 20.2368 22.296C20.5392 22.5704 20.6164 22.5411 20.7363 22.4572C20.7842 22.4199 20.5578 22.2228 20.5578 22.2228C20.4379 21.9649 20.2818 21.7255 20.0944 21.5116L20.1649 20.3477L19.0449 20.3503Z" fill="#F28F8F"/>
<path opacity="0.2" d="M19.0449 20.3503L19.1341 21.6967C19.3246 23.0391 19.5723 23.2509 20.1862 23.428C20.8002 23.6051 20.4406 22.8381 20.3607 22.6956C20.3019 22.5684 20.2603 22.4341 20.2368 22.296C20.5392 22.5704 20.6164 22.5411 20.7363 22.4572C20.7842 22.4199 20.5578 22.2228 20.5578 22.2228C20.4379 21.9649 20.2818 21.7255 20.0944 21.5116L20.1649 20.3477L19.0449 20.3503Z" fill="black"/>
<path d="M23.0386 16.3239C22.1743 16.1787 21.6057 16.6142 21.2115 16.8672C20.9265 17.051 19.8797 17.8394 19.323 18.2616C19.2129 18.3452 19.1241 18.4537 19.0639 18.5782C19.0037 18.7028 18.9738 18.8398 18.9768 18.9781L19.0074 20.4017C19.1913 20.4986 19.3975 20.5452 19.6051 20.5367C19.8128 20.5283 20.0146 20.4652 20.19 20.3538L20.2912 19.3097C20.2912 19.3097 21.5058 18.7184 22.3221 18.3468C23.1385 17.9752 23.2371 16.9325 23.0386 16.3239Z" fill="#455A64"/>
<path opacity="0.1" d="M19.5083 34.0513C19.2851 33.9764 19.0512 33.9386 18.8158 33.9395C18.0727 33.9395 17.4707 34.2844 17.4707 34.7092C17.4707 35.1341 18.0727 35.4803 18.8158 35.4803C19.0513 35.4814 19.2854 35.4432 19.5083 35.3671V34.0513Z" fill="black"/>
<path opacity="0.1" d="M52.1005 30.834C54.0249 31.946 54.0343 33.7465 52.1232 34.8586C50.2121 35.9706 47.1011 35.9692 45.1767 34.8586C43.2523 33.7479 43.2417 31.946 45.1541 30.834C47.0665 29.722 50.1761 29.7273 52.1005 30.834Z" fill="black"/>
<path d="M54.549 18.2458L54.3359 18.1406C54.8154 18.4895 55.6397 20.3687 55.9474 21.1331C55.9513 21.143 55.9589 21.1509 55.9687 21.1552C55.9784 21.1594 55.9894 21.1596 55.9993 21.1557C56.0092 21.1518 56.0171 21.1442 56.0214 21.1345C56.0256 21.1247 56.0258 21.1137 56.0219 21.1038C55.9194 20.8481 55.143 18.925 54.549 18.2458Z" fill="#E0E0E0"/>
<path d="M51.2362 31.4853L51.4267 31.159L51.179 31.0018C51.1354 30.9805 51.0868 30.9714 51.0384 30.9756C50.9901 30.9798 50.9438 30.9972 50.9046 31.0258C50.7938 31.0973 50.7016 31.1941 50.6356 31.3083C50.5696 31.4224 50.5317 31.5507 50.5251 31.6824C50.5196 31.7304 50.5279 31.779 50.5488 31.8226C50.5698 31.8662 50.6026 31.903 50.6436 31.9287L50.886 32.0832L51.0871 31.7396C51.1502 31.6635 51.2006 31.5776 51.2362 31.4853Z" fill="#37474F"/>
<path d="M51.151 31.181C51.3601 31.0598 51.5319 31.1571 51.5319 31.3994C51.5251 31.5311 51.4871 31.6592 51.4211 31.7734C51.3551 31.8875 51.263 31.9844 51.1524 32.056C50.9433 32.1772 50.7715 32.08 50.7715 31.8389C50.7783 31.7071 50.8163 31.5787 50.8823 31.4644C50.9482 31.3501 51.0403 31.2529 51.151 31.181Z" fill="#455A64"/>
<path d="M47.0791 31.3915L46.8887 31.0652L47.1364 30.9081C47.18 30.8867 47.2285 30.8776 47.2769 30.8819C47.3252 30.8861 47.3715 30.9035 47.4107 30.9321C47.5214 31.0037 47.6135 31.1006 47.6795 31.2147C47.7455 31.3288 47.7834 31.457 47.7903 31.5886C47.7957 31.6367 47.7875 31.6853 47.7665 31.7289C47.7455 31.7725 47.7127 31.8092 47.6717 31.835L47.4294 31.9908L47.2283 31.6472C47.165 31.5707 47.1146 31.4843 47.0791 31.3915Z" fill="#37474F"/>
<path d="M47.1635 31.0895C46.953 30.9683 46.7812 31.0642 46.7812 31.3066C46.7881 31.4382 46.8261 31.5664 46.892 31.6805C46.958 31.7946 47.0501 31.8915 47.1608 31.9631C47.3699 32.0843 47.5417 31.9871 47.5417 31.7461C47.535 31.6145 47.4972 31.4865 47.4315 31.3723C47.3657 31.2582 47.2739 31.1613 47.1635 31.0895Z" fill="#455A64"/>
<path d="M48.4434 30.584H49.1492V31.7999C49.1464 31.8312 49.1353 31.8611 49.1171 31.8866C49.0988 31.9122 49.074 31.9323 49.0453 31.945C48.968 31.9845 48.8824 32.005 48.7956 32.005C48.7088 32.005 48.6232 31.9845 48.5459 31.945C48.5174 31.9323 48.4928 31.912 48.4748 31.8865C48.4567 31.861 48.4459 31.831 48.4434 31.7999V30.584Z" fill="#EBEBEB"/>
<path d="M50.9983 30.9238V31.2128L49.1484 31.6803V31.0663L50.9983 30.9238Z" fill="#E0E0E0"/>
<path d="M50.9983 30.9248L50.8691 30.8809L49.1484 30.9714V31.0673L50.9983 30.9248Z" fill="#F5F5F5"/>
<path d="M51.184 33.5526L50.9922 33.2263L51.2399 33.0692C51.2835 33.0474 51.3323 33.0379 51.3809 33.0419C51.4295 33.0459 51.4761 33.0632 51.5156 33.0918C51.6261 33.1639 51.7181 33.261 51.7841 33.3754C51.85 33.4897 51.8881 33.6179 51.8951 33.7497C51.8995 33.7977 51.8908 33.8459 51.8699 33.8893C51.849 33.9326 51.8168 33.9696 51.7766 33.9961L51.5382 34.1519L51.3371 33.8083C51.2723 33.7321 51.2206 33.6457 51.184 33.5526Z" fill="#37474F"/>
<path d="M51.2728 33.2494C51.0624 33.1282 50.892 33.2254 50.8906 33.4665C50.8983 33.5981 50.9369 33.726 51.0033 33.8399C51.0697 33.9537 51.1621 34.0503 51.2728 34.1217C51.4833 34.2429 51.6537 34.1457 51.6551 33.9033C51.6472 33.772 51.6085 33.6443 51.5421 33.5307C51.4757 33.4171 51.3834 33.3207 51.2728 33.2494Z" fill="#455A64"/>
<path d="M48.7215 34.3885L48.912 34.0623L48.6642 33.9051C48.6206 33.8833 48.5719 33.8739 48.5232 33.8778C48.4746 33.8818 48.428 33.8991 48.3886 33.9278C48.2783 33.9998 48.1865 34.0967 48.1205 34.2108C48.0546 34.3248 48.0164 34.4528 48.009 34.5843C48.0044 34.6325 48.013 34.681 48.0339 34.7246C48.0548 34.7683 48.0872 34.8054 48.1275 34.832L48.3713 34.9865L48.5724 34.6429C48.6351 34.5664 48.6854 34.4806 48.7215 34.3885Z" fill="#37474F"/>
<path d="M48.6354 34.0795C48.8458 33.9583 49.0163 34.0555 49.0176 34.2966C49.0105 34.4282 48.9724 34.5562 48.9064 34.6703C48.8405 34.7843 48.7485 34.8813 48.6381 34.9531C48.4277 35.0743 48.2572 34.9771 48.2559 34.7361C48.263 34.6045 48.3011 34.4764 48.3671 34.3624C48.433 34.2483 48.525 34.1514 48.6354 34.0795Z" fill="#455A64"/>
<path d="M46.0503 33.101L46.2407 32.7748L45.993 32.6176C45.9495 32.596 45.901 32.5868 45.8527 32.5907C45.8043 32.5947 45.758 32.6119 45.7187 32.6403C45.608 32.7119 45.5159 32.8087 45.4499 32.9229C45.3839 33.037 45.3459 33.1652 45.3391 33.2968C45.3345 33.345 45.3431 33.3935 45.364 33.4371C45.3849 33.4808 45.4172 33.5179 45.4576 33.5445L45.7 33.699L45.9011 33.3554C45.9643 33.2793 46.0147 33.1934 46.0503 33.101Z" fill="#37474F"/>
<path d="M45.9655 32.7982C46.1746 32.6771 46.3464 32.7743 46.3464 33.0153C46.3395 33.1468 46.3016 33.2748 46.2359 33.3889C46.1702 33.503 46.0784 33.5999 45.9682 33.6719C45.7577 33.7931 45.5859 33.6959 45.5859 33.4548C45.5928 33.3232 45.6308 33.195 45.6967 33.0809C45.7627 32.9667 45.8548 32.8699 45.9655 32.7982Z" fill="#455A64"/>
<path d="M51.4439 32.847V33.3171L48.9668 31.9786V31.3301L51.4439 32.847Z" fill="#E0E0E0"/>
<path d="M51.5877 32.7659L49.1093 31.293L48.9668 31.3289L51.4439 32.8458L51.5877 32.7659Z" fill="#F5F5F5"/>
<path d="M51.5872 33.2344L51.4434 33.3156V32.8455L51.5872 32.7656V33.2344Z" fill="#F0F0F0"/>
<path d="M48.8004 31.3301L48.498 33.7246V34.1534L48.8004 32.0053V31.3301Z" fill="#E0E0E0"/>
<path d="M48.4967 33.7246H48.3223V34.1521H48.4967V33.7246Z" fill="#F0F0F0"/>
<path d="M48.3223 33.7246L48.5966 31.3301H48.799L48.4967 33.7246H48.3223Z" fill="#F5F5F5"/>
<path d="M45.8672 32.398V32.8468L48.4428 31.8V31.25L45.8672 32.398Z" fill="#E0E0E0"/>
<path d="M45.7676 32.7795L45.8675 32.8461V32.3973L45.7676 32.332V32.7795Z" fill="#F0F0F0"/>
<path d="M46.1738 32.2603L45.8675 32.3975L45.7676 32.3322L48.4431 31.127V31.2495L46.1738 32.2603Z" fill="#F5F5F5"/>
<path d="M47.1387 30.6797V30.974L47.8898 31.3762L48.4425 31.1272V31.006L47.1387 30.6797Z" fill="#E0E0E0"/>
<path d="M47.1387 30.6802L47.1986 30.6562L48.4425 30.9253V31.0065L47.1387 30.6802Z" fill="#F5F5F5"/>
<path d="M48.2168 28.4141H49.3728V30.4117C49.3672 30.4626 49.3484 30.5111 49.3183 30.5525C49.2881 30.5938 49.2477 30.6266 49.201 30.6474C49.0745 30.7118 48.9347 30.7453 48.7928 30.7453C48.6509 30.7453 48.5111 30.7118 48.3846 30.6474C48.3382 30.6262 48.2982 30.5931 48.2688 30.5515C48.2393 30.5099 48.2214 30.4612 48.2168 30.4104V28.4141Z" fill="#E0E0E0"/>
<path d="M55.6674 19.4151C55.5969 19.4164 55.5266 19.4056 55.4597 19.3831L55.3798 19.3592L55.4424 19.1288L55.2852 18.9397C55.1694 18.9015 55.0504 18.8739 54.9297 18.8571C54.5634 18.8078 54.1572 18.8917 53.9069 19.1647C53.6565 19.4377 53.6099 19.8146 53.5992 20.1742C53.5806 20.7921 53.6565 21.4074 53.6938 22.0253C53.7522 22.6428 53.7045 23.2658 53.5526 23.8672C53.3781 24.4598 53.0199 25.0192 52.4739 25.3175C52.2585 25.431 52.0286 25.5148 51.7907 25.5665L49.9023 24.0749L47.2987 23.2559L43.888 25.0058C43.7991 25.0581 43.7238 25.1307 43.6683 25.2176C43.4019 25.6171 43.4485 26.3389 43.9173 26.6066L48.6251 29.1063C48.7809 29.189 48.9542 29.2331 49.1305 29.235C49.3069 29.2368 49.4811 29.1964 49.6386 29.117L52.936 27.447C53.1447 27.3411 53.3288 27.1927 53.4766 27.0112C53.6243 26.8298 53.7323 26.6193 53.7937 26.3935L55.6821 19.4178L55.6674 19.4151Z" fill="#37474F"/>
<path d="M43.8877 25.0019L47.2984 23.252L49.9019 24.071L51.7904 25.5626C51.6439 25.5985 51.4947 25.6278 51.3482 25.6571C50.9573 25.7138 50.5795 25.8391 50.2322 26.0273C49.8966 26.2338 49.6263 26.5867 49.6236 26.9809L49.7435 27.9131L49.6383 27.9651C49.481 28.045 49.3068 28.0859 49.1304 28.0842C48.954 28.0826 48.7806 28.0385 48.6248 27.9557L43.917 25.456C43.8167 25.3975 43.7314 25.3163 43.668 25.219C43.7228 25.1301 43.7982 25.0557 43.8877 25.0019Z" fill="#455A64"/>
<path opacity="0.1" d="M43.8877 25.0019L47.2984 23.252L49.9019 24.071L51.7904 25.5626C51.6439 25.5985 51.4947 25.6278 51.3482 25.6571C50.9573 25.7138 50.5795 25.8391 50.2322 26.0273C49.8966 26.2338 49.6263 26.5867 49.6236 26.9809L49.7435 27.9131L49.6383 27.9651C49.481 28.045 49.3068 28.0859 49.1304 28.0842C48.954 28.0826 48.7806 28.0385 48.6248 27.9557L43.917 25.456C43.8167 25.3975 43.7314 25.3163 43.668 25.219C43.7228 25.1301 43.7982 25.0557 43.8877 25.0019Z" fill="black"/>
<path d="M44.3828 22.0761C44.3828 22.0761 47.1209 22.8752 47.8454 22.1707C48.747 21.2864 48.3688 19.057 48.2622 18.1847C48.1557 17.3124 48.2622 16.7078 48.5033 16.4534C48.7443 16.1991 49.0946 15.8222 50.2346 16.2923C49.0879 16.8823 49.4355 19.9027 49.7938 21.0294C48.8948 21.9536 48.462 23.1748 48.4474 23.8407C48.4474 23.8407 46.1074 24.412 44.8862 25.0819L44.3828 22.0761Z" fill="#455A64"/>
<path opacity="0.1" d="M44.3828 22.0761C44.3828 22.0761 47.1209 22.8752 47.8454 22.1707C48.747 21.2864 48.3688 19.057 48.2622 18.1847C48.1557 17.3124 48.2622 16.7078 48.5033 16.4534C48.7443 16.1991 49.0946 15.8222 50.2346 16.2923C49.0879 16.8823 49.2384 19.9027 49.6007 21.0294C48.7017 21.9536 48.4647 23.1748 48.4474 23.8407C48.4474 23.8407 46.1074 24.412 44.8862 25.0819L44.3828 22.0761Z" fill="white"/>
<path d="M44.8806 25.082L44.3199 24.7797C44.3199 23.2402 44.0935 23.392 43.6687 22.7821C43.2439 22.1722 43.8951 21.8033 44.3839 22.0709C44.8726 22.3386 45.0724 23.1523 44.8806 25.082Z" fill="#455A64"/>
<path opacity="0.2" d="M44.8806 25.082L44.3199 24.7797C44.3199 23.2402 44.0935 23.392 43.6687 22.7821C43.2439 22.1722 43.8951 21.8033 44.3839 22.0709C44.8726 22.3386 45.0724 23.1523 44.8806 25.082Z" fill="white"/>
<path d="M50.2279 16.293C50.2279 16.293 53.291 17.6247 54.7879 18.3599L54.6787 18.9046L49.7871 16.6832C49.9026 16.5214 50.0533 16.3879 50.2279 16.293Z" fill="#455A64"/>
<path opacity="0.1" d="M50.2279 16.293C50.2279 16.293 53.291 17.6247 54.7879 18.3599L54.6787 18.9046L49.7871 16.6832C49.9026 16.5214 50.0533 16.3879 50.2279 16.293Z" fill="white"/>
<path d="M49.2964 20.816C48.9861 19.8531 49.05 17.669 49.7878 16.6875L54.6794 18.9089L53.562 24.5116L51.7908 25.5677L48.4414 23.8404C48.4587 23.1745 48.3975 21.7362 49.2964 20.816Z" fill="#455A64"/>
<path d="M52.3243 21.9386C52.2417 21.8906 52.1738 21.9292 52.1738 22.0251C52.1765 22.0769 52.1914 22.1273 52.2173 22.1723C52.2432 22.2172 52.2794 22.2553 52.323 22.2835C52.4056 22.3314 52.4735 22.2941 52.4735 22.1982C52.471 22.1462 52.4562 22.0955 52.4303 22.0504C52.4044 22.0052 52.368 21.9669 52.3243 21.9386Z" fill="#455A64"/>
<path d="M51.5678 21.4932C51.4839 21.4453 51.4173 21.4839 51.416 21.5798C51.4191 21.6316 51.4343 21.682 51.4605 21.7269C51.4866 21.7718 51.5229 21.8099 51.5665 21.8382C51.6491 21.8861 51.717 21.8488 51.717 21.7529C51.7142 21.701 51.6993 21.6504 51.6734 21.6053C51.6475 21.5602 51.6113 21.5218 51.5678 21.4932Z" fill="#455A64"/>
<path d="M50.8087 21.0499C50.7261 21.0019 50.6582 21.0406 50.6582 21.1364C50.6611 21.1882 50.676 21.2385 50.7019 21.2834C50.7279 21.3283 50.764 21.3665 50.8074 21.3948C50.8913 21.4428 50.9578 21.4055 50.9592 21.3096C50.9562 21.2575 50.941 21.2069 50.9149 21.1618C50.8887 21.1167 50.8524 21.0784 50.8087 21.0499Z" fill="#455A64"/>
<path d="M50.0528 20.6046C49.9689 20.5566 49.9023 20.5952 49.9023 20.6911C49.905 20.7429 49.9199 20.7934 49.9458 20.8383C49.9717 20.8832 50.008 20.9213 50.0515 20.9495C50.1341 20.9974 50.202 20.9602 50.202 20.8643C50.1992 20.8123 50.1843 20.7617 50.1584 20.7166C50.1325 20.6715 50.0963 20.6331 50.0528 20.6046Z" fill="#455A64"/>
<g opacity="0.2">
<path d="M52.3243 21.9386C52.2417 21.8906 52.1738 21.9292 52.1738 22.0251C52.1765 22.0769 52.1914 22.1273 52.2173 22.1723C52.2432 22.2172 52.2794 22.2553 52.323 22.2835C52.4056 22.3314 52.4735 22.2941 52.4735 22.1982C52.471 22.1462 52.4562 22.0955 52.4303 22.0504C52.4044 22.0052 52.368 21.9669 52.3243 21.9386Z" fill="white"/>
<path d="M51.5678 21.4932C51.4839 21.4453 51.4173 21.4839 51.416 21.5798C51.4191 21.6316 51.4343 21.682 51.4605 21.7269C51.4866 21.7718 51.5229 21.8099 51.5665 21.8382C51.6491 21.8861 51.717 21.8488 51.717 21.7529C51.7142 21.701 51.6993 21.6504 51.6734 21.6053C51.6475 21.5602 51.6113 21.5218 51.5678 21.4932Z" fill="white"/>
<path d="M50.8087 21.0499C50.7261 21.0019 50.6582 21.0406 50.6582 21.1364C50.6611 21.1882 50.676 21.2385 50.7019 21.2834C50.7279 21.3283 50.764 21.3665 50.8074 21.3948C50.8913 21.4428 50.9578 21.4055 50.9592 21.3096C50.9562 21.2575 50.941 21.2069 50.9149 21.1618C50.8887 21.1167 50.8524 21.0784 50.8087 21.0499Z" fill="white"/>
<path d="M50.0528 20.6046C49.9689 20.5566 49.9023 20.5952 49.9023 20.6911C49.905 20.7429 49.9199 20.7934 49.9458 20.8383C49.9717 20.8832 50.008 20.9213 50.0515 20.9495C50.1341 20.9974 50.202 20.9602 50.202 20.8643C50.1992 20.8123 50.1843 20.7617 50.1584 20.7166C50.1325 20.6715 50.0963 20.6331 50.0528 20.6046Z" fill="white"/>
</g>
<path d="M50.2318 26.028C50.579 25.8398 50.9569 25.7145 51.3478 25.6578C51.4943 25.6285 51.6434 25.5992 51.7899 25.5632C52.0279 25.5115 52.2577 25.4277 52.4731 25.3142C53.0138 25.0159 53.3774 24.4565 53.5518 23.8639C53.7034 23.2634 53.7511 22.6414 53.693 22.0247C53.6557 21.4068 53.5798 20.7915 53.5984 20.1736C53.6091 19.814 53.6637 19.4291 53.9061 19.1641C54.1485 18.8991 54.5626 18.8072 54.9289 18.8565C55.0496 18.8733 55.1687 18.9009 55.2845 18.9391L55.4469 19.1295L55.3843 19.3599L53.7929 25.237C53.6826 25.6451 53.4212 25.996 53.0617 26.2185C53.0205 26.2438 52.9792 26.2691 52.9352 26.2904L49.739 27.9085L49.6191 26.9762C49.6258 26.5874 49.8961 26.2344 50.2318 26.028Z" fill="#37474F"/>
<path d="M50.2285 25.3952C51.3965 25.0623 52.5431 25.0197 52.9666 24.1806C53.3901 23.3416 53.4194 22.183 53.2077 20.1707C53.1815 19.9112 53.1877 19.6495 53.2263 19.3916C53.3515 18.6392 53.8043 18.3169 54.325 18.3089C54.8404 18.2999 55.34 18.4875 55.722 18.8336C55.7962 18.8955 55.8554 18.9734 55.8952 19.0613C55.9137 19.1047 55.9204 19.1522 55.9145 19.199C55.9087 19.2458 55.8905 19.2902 55.8619 19.3277C55.8145 19.3768 55.7502 19.4059 55.6821 19.4089H55.6674C55.5969 19.4103 55.5266 19.3995 55.4597 19.377L55.3798 19.353C55.2373 19.3077 55.0961 19.2545 54.9509 19.2198C54.7771 19.1686 54.5921 19.1686 54.4182 19.2198C54.3365 19.252 54.2635 19.3028 54.205 19.3682C54.1465 19.4337 54.1041 19.5119 54.0813 19.5967C53.5885 21.2055 54.2145 22.9341 53.6591 24.2579C53.2063 25.4658 51.6402 25.9679 50.5362 26.3261C50.6437 26.2837 50.7386 26.2145 50.8118 26.125C50.8669 26.0399 50.8924 25.939 50.8845 25.8379C50.8765 25.7368 50.8355 25.6412 50.7679 25.5657C50.6986 25.4956 50.6132 25.4435 50.5193 25.4138C50.4253 25.3841 50.3255 25.3777 50.2285 25.3952Z" fill="#455A64"/>
<path opacity="0.1" d="M50.2285 25.3952C51.3965 25.0623 52.5431 25.0197 52.9666 24.1806C53.3901 23.3416 53.4194 22.183 53.2077 20.1707C53.1815 19.9112 53.1877 19.6495 53.2263 19.3916C53.3515 18.6392 53.8043 18.3169 54.325 18.3089C54.8404 18.2999 55.34 18.4875 55.722 18.8336C55.7962 18.8955 55.8554 18.9734 55.8952 19.0613C55.9137 19.1047 55.9204 19.1522 55.9145 19.199C55.9087 19.2458 55.8905 19.2902 55.8619 19.3277C55.8145 19.3768 55.7502 19.4059 55.6821 19.4089H55.6674C55.5969 19.4103 55.5266 19.3995 55.4597 19.377L55.3798 19.353C55.2373 19.3077 55.0961 19.2545 54.9509 19.2198C54.7771 19.1686 54.5921 19.1686 54.4182 19.2198C54.3365 19.252 54.2635 19.3028 54.205 19.3682C54.1465 19.4337 54.1041 19.5119 54.0813 19.5967C53.5885 21.2055 54.2145 22.9341 53.6591 24.2579C53.2063 25.4658 51.6402 25.9679 50.5362 26.3261C50.6437 26.2837 50.7386 26.2145 50.8118 26.125C50.8669 26.0399 50.8924 25.939 50.8845 25.8379C50.8765 25.7368 50.8355 25.6412 50.7679 25.5657C50.6986 25.4956 50.6132 25.4435 50.5193 25.4138C50.4253 25.3841 50.3255 25.3777 50.2285 25.3952Z" fill="white"/>
<path d="M49.4185 26.2219C49.4869 26.0314 49.5878 25.8543 49.7168 25.6985C49.8476 25.5419 50.0281 25.4347 50.2282 25.3949C50.3278 25.3765 50.4305 25.3833 50.5268 25.4147C50.6231 25.4461 50.71 25.5011 50.7796 25.5746C50.8473 25.6501 50.8882 25.7458 50.8962 25.8469C50.9041 25.948 50.8786 26.0488 50.8235 26.134C50.7503 26.2235 50.6554 26.2927 50.5479 26.3351C50.4598 26.3721 50.3739 26.4144 50.2908 26.4616C50.0728 26.6087 49.9161 26.8303 49.85 27.0849C49.7845 27.3372 49.75 27.5966 49.7475 27.8573V27.9079L49.2001 27.6042C49.1749 27.1332 49.2493 26.6622 49.4185 26.2219Z" fill="#455A64"/>
<path opacity="0.2" d="M49.4185 26.2219C49.4869 26.0314 49.5878 25.8543 49.7168 25.6985C49.8476 25.5419 50.0281 25.4347 50.2282 25.3949C50.3278 25.3765 50.4305 25.3833 50.5268 25.4147C50.6231 25.4461 50.71 25.5011 50.7796 25.5746C50.8473 25.6501 50.8882 25.7458 50.8962 25.8469C50.9041 25.948 50.8786 26.0488 50.8235 26.134C50.7503 26.2235 50.6554 26.2927 50.5479 26.3351C50.4598 26.3721 50.3739 26.4144 50.2908 26.4616C50.0728 26.6087 49.9161 26.8303 49.85 27.0849C49.7845 27.3372 49.75 27.5966 49.7475 27.8573V27.9079L49.2001 27.6042C49.1749 27.1332 49.2493 26.6622 49.4185 26.2219Z" fill="white"/>
<path d="M56.8191 20.8635L56.7312 20.7676L51.4961 22.8824L51.9835 24.647L52.0714 24.7416L57.3052 22.628L56.8191 20.8635Z" fill="#C6D7BC"/>
<path opacity="0.2" d="M51.4961 22.8828L51.9835 24.6474L52.0714 24.742L51.584 22.9787L51.4961 22.8828Z" fill="black"/>
<path opacity="0.2" d="M56.8191 20.8635L56.7312 20.7676L51.4961 22.8824L51.584 22.9783L56.8191 20.8635Z" fill="white"/>
<path d="M54.3122 23.2726L54.1058 22.5228C54.1031 22.5127 54.0981 22.5033 54.0911 22.4954C54.0842 22.4876 54.0755 22.4814 54.0658 22.4775H54.0525H54.0379C54.0281 22.4763 54.0183 22.4763 54.0086 22.4775C53.9971 22.4813 53.9866 22.4876 53.9779 22.4961C53.9691 22.5035 53.9619 22.5125 53.9566 22.5228C53.9534 22.5296 53.9507 22.5368 53.9486 22.5441C53.9482 22.5476 53.9482 22.5512 53.9486 22.5547C53.9459 22.5657 53.9459 22.5771 53.9486 22.588L54.0312 22.8877L53.5651 23.0688L53.4825 22.7691C53.4793 22.7565 53.4724 22.7451 53.4627 22.7363C53.4529 22.7275 53.4409 22.7218 53.4279 22.7199H53.4026C53.393 22.718 53.383 22.718 53.3733 22.7199C53.3618 22.725 53.351 22.7317 53.3414 22.7398C53.3328 22.7474 53.3256 22.7564 53.3201 22.7665C53.3168 22.7733 53.3141 22.7805 53.3121 22.7878C53.3121 22.7878 53.3121 22.7958 53.3121 22.7984C53.31 22.8095 53.31 22.8207 53.3121 22.8317L53.5198 23.5815C53.5225 23.5918 53.5275 23.6014 53.5345 23.6095C53.5388 23.6134 53.5438 23.6165 53.5491 23.6188C53.5517 23.6194 53.5545 23.6194 53.5571 23.6188C53.5637 23.6201 53.5705 23.6201 53.5771 23.6188H53.5891C53.601 23.6186 53.6128 23.6159 53.6237 23.6108C53.6457 23.603 53.6641 23.5875 53.6755 23.5672C53.687 23.5469 53.6908 23.5232 53.6863 23.5003L53.6024 23.1953L54.0565 23.0115L54.1404 23.3165C54.1461 23.3339 54.1579 23.3486 54.1737 23.3578C54.1737 23.3578 54.1737 23.3578 54.1804 23.3578C54.187 23.3592 54.1938 23.3592 54.2004 23.3578H54.211C54.2172 23.3585 54.2235 23.3585 54.2296 23.3578H54.2456C54.2638 23.3516 54.2798 23.3403 54.2917 23.3251C54.3035 23.31 54.3106 23.2917 54.3122 23.2726Z" fill="white"/>
<path d="M53.3092 23.5774C53.3063 23.5683 53.3014 23.5599 53.295 23.5528C53.2886 23.5457 53.2807 23.54 53.2719 23.5361H53.2453C53.2374 23.5349 53.2293 23.5349 53.2213 23.5361C53.2117 23.5402 53.2028 23.5456 53.1947 23.5521C53.1877 23.5585 53.1815 23.5657 53.1761 23.5734L53.1614 23.5934C53.1546 23.6041 53.147 23.6144 53.1388 23.624L53.1321 23.6334L53.1055 23.66C53.1009 23.6664 53.0955 23.6722 53.0895 23.6773C53.0828 23.684 53.0735 23.6893 53.0655 23.696L53.0402 23.7146L53.0109 23.7292L52.9736 23.7479L52.931 23.7612H52.9204H52.9084C52.8365 23.7772 52.7613 23.7642 52.699 23.725C52.6366 23.6859 52.5922 23.6238 52.5754 23.5521C52.564 23.5087 52.5609 23.4635 52.5661 23.4189C52.5685 23.3973 52.5729 23.3759 52.5794 23.355C52.5789 23.3497 52.5789 23.3444 52.5794 23.339C52.5847 23.3229 52.5914 23.3074 52.5994 23.2924C52.6079 23.2753 52.6177 23.2588 52.6287 23.2432L52.6354 23.2352C52.6473 23.2193 52.6606 23.2046 52.6753 23.1912L52.69 23.1806C52.7212 23.1535 52.7567 23.1318 52.7952 23.1166C52.8741 23.0831 52.9624 23.0788 53.0442 23.1047C53.062 23.1102 53.081 23.1102 53.0988 23.1047C53.1209 23.097 53.1395 23.0816 53.151 23.0612C53.1626 23.0409 53.1662 23.017 53.1614 22.9941C53.1575 22.982 53.1506 22.971 53.1414 22.9622C53.1336 22.9555 53.1246 22.9505 53.1148 22.9475C53.1025 22.9442 53.0901 22.9415 53.0775 22.9395H53.0509H53.0309C53.0061 22.9368 52.9811 22.9368 52.9563 22.9395C52.9225 22.9412 52.8891 22.9466 52.8564 22.9555C52.8237 22.9635 52.7916 22.9742 52.7605 22.9875C52.7252 23.0008 52.6912 23.0178 52.6593 23.0381C52.6305 23.0566 52.6029 23.0771 52.5768 23.0993C52.5772 23.1015 52.5772 23.1038 52.5768 23.106C52.5541 23.1273 52.5328 23.15 52.5128 23.1739L52.5035 23.1859C52.4847 23.2103 52.4677 23.2361 52.4529 23.2631C52.4436 23.2791 52.4383 23.2978 52.4303 23.3137C52.4223 23.3297 52.4183 23.3417 52.413 23.355C52.4081 23.3712 52.4046 23.3876 52.4023 23.4043C52.3975 23.4195 52.3939 23.4351 52.3916 23.4509C52.3903 23.4726 52.3903 23.4944 52.3916 23.5162C52.391 23.5268 52.391 23.5375 52.3916 23.5481C52.393 23.5806 52.3984 23.6128 52.4076 23.644C52.417 23.6762 52.4295 23.7074 52.4449 23.7372C52.4504 23.7462 52.4566 23.7547 52.4636 23.7625C52.474 23.7809 52.486 23.7983 52.4995 23.8145C52.5104 23.8258 52.522 23.8365 52.5341 23.8464L52.5555 23.8664L52.5701 23.8771H52.5808C52.5951 23.8868 52.6102 23.8953 52.626 23.9024L52.6367 23.909C52.6978 23.9336 52.7633 23.9457 52.8291 23.9446C52.895 23.9434 52.96 23.9291 53.0202 23.9024C53.1521 23.8522 53.2626 23.7581 53.3332 23.636C53.3333 23.6252 53.3312 23.6144 53.3271 23.6043C53.3229 23.5943 53.3169 23.5851 53.3092 23.5774Z" fill="white"/>
<path d="M54.7349 23.1019L54.5285 22.3521C54.5251 22.3405 54.5188 22.33 54.5102 22.3216C54.5015 22.3132 54.4909 22.3072 54.4792 22.3042C54.473 22.3035 54.4667 22.3035 54.4605 22.3042H54.4525C54.4433 22.3023 54.4338 22.3023 54.4246 22.3042C54.413 22.3093 54.4023 22.316 54.3926 22.3241C54.3844 22.3321 54.3772 22.341 54.3713 22.3508C54.3679 22.3576 54.3652 22.3647 54.3633 22.3721C54.3627 22.3756 54.3627 22.3792 54.3633 22.3827C54.3607 22.3937 54.3607 22.4051 54.3633 22.416L54.5697 23.1645C54.5737 23.1788 54.5823 23.1915 54.594 23.2006C54.6058 23.2097 54.6201 23.2148 54.635 23.2151H54.6417C54.6535 23.2142 54.6652 23.2115 54.6763 23.2071C54.6966 23.1989 54.7135 23.184 54.7242 23.1648C54.7348 23.1457 54.7386 23.1235 54.7349 23.1019Z" fill="white"/>
<path d="M55.0944 23.0359L55.2755 22.964L55.6564 22.8095C55.676 22.8018 55.6922 22.7874 55.7022 22.7689C55.7122 22.7504 55.7153 22.7289 55.711 22.7083C55.7069 22.6948 55.6984 22.6829 55.6868 22.6747C55.6752 22.6665 55.6612 22.6624 55.6471 22.663C55.6378 22.6611 55.6283 22.6611 55.6191 22.663L55.1397 22.8575L55.0744 22.6178L55.4846 22.4526C55.504 22.445 55.5202 22.4308 55.5303 22.4126C55.5405 22.3944 55.5441 22.3733 55.5405 22.3527C55.5381 22.3434 55.5337 22.3347 55.5274 22.3273C55.5212 22.3199 55.5134 22.3141 55.5046 22.3101H55.4913H55.4766C55.4673 22.3089 55.4579 22.3089 55.4486 22.3101L55.0385 22.4753L54.9745 22.2435L55.446 22.0531C55.4562 22.0489 55.4657 22.0431 55.4739 22.0358C55.4857 22.0259 55.4947 22.013 55.4998 21.9985C55.505 21.984 55.5061 21.9683 55.5032 21.9532C55.5007 21.9469 55.4971 21.941 55.4926 21.9359C55.4867 21.9291 55.4794 21.9237 55.4713 21.9199H55.446C55.4359 21.9204 55.426 21.9226 55.4167 21.9266L54.8627 22.1503C54.8511 22.1554 54.8404 22.1622 54.8307 22.1703C54.8221 22.1779 54.8149 22.1869 54.8094 22.1969C54.8058 22.2035 54.8035 22.2108 54.8027 22.2182V22.2289C54.8001 22.2398 54.8001 22.2512 54.8027 22.2622L55.0052 22.9973C55.0083 23.0081 55.0138 23.0181 55.0211 23.0266H55.0278L55.0411 23.0359H55.0504H55.0691H55.0877H55.0944Z" fill="white"/>
<path d="M56.3957 21.9541C56.3862 21.9551 56.3768 21.9573 56.3678 21.9608L55.9563 22.1272L55.8883 21.8822L56.3611 21.6917C56.3812 21.6845 56.398 21.6703 56.4085 21.6518C56.419 21.6332 56.4225 21.6115 56.4184 21.5905C56.416 21.5812 56.4115 21.5725 56.4053 21.5651C56.3991 21.5577 56.3913 21.5518 56.3824 21.5479C56.3741 21.5465 56.3655 21.5465 56.3571 21.5479C56.3475 21.5489 56.3381 21.5511 56.3292 21.5546L55.7725 21.7796C55.761 21.7834 55.7505 21.7898 55.7419 21.7983C55.7334 21.8055 55.7262 21.814 55.7205 21.8236C55.7171 21.8298 55.7149 21.8366 55.7139 21.8436C55.7133 21.8475 55.7133 21.8516 55.7139 21.8556C55.7126 21.8648 55.7126 21.8742 55.7139 21.8835L55.919 22.6266C55.9217 22.6373 55.9272 22.6469 55.935 22.6546H55.943C55.9467 22.658 55.9507 22.6612 55.9549 22.6639C55.9629 22.6654 55.971 22.6654 55.9789 22.6639H55.9949H56.0069H56.0189L56.0308 22.6559H56.0388H56.0455C56.0587 22.645 56.0685 22.6306 56.0739 22.6144C56.0793 22.5981 56.0801 22.5807 56.0761 22.5641L55.9962 22.2724L56.4064 22.1059C56.4271 22.0989 56.4445 22.0847 56.4555 22.0658C56.4665 22.047 56.4704 22.0248 56.4663 22.0034C56.4626 21.988 56.4533 21.9745 56.4403 21.9655C56.4273 21.9564 56.4115 21.9524 56.3957 21.9541Z" fill="white"/>
<path d="M54.2016 18.0078H54.1936C54.1582 18.01 54.1229 18.0153 54.0884 18.0238C53.3972 18.1996 52.742 19.7977 52.196 22.6357C52.195 22.6408 52.1951 22.6461 52.1962 22.6513C52.1973 22.6564 52.1993 22.6613 52.2023 22.6656C52.2053 22.6699 52.2091 22.6736 52.2135 22.6765C52.2179 22.6794 52.2228 22.6813 52.228 22.6823H52.2359C52.2454 22.6822 52.2546 22.6788 52.2618 22.6727C52.2691 22.6667 52.2741 22.6583 52.2759 22.649C52.5982 20.971 53.2814 18.129 54.1976 18.0864H54.2256C54.2664 18.0957 54.3046 18.1139 54.3375 18.1397L54.5492 18.2409C54.4187 18.097 54.2988 18.0078 54.2016 18.0078Z" fill="#E6E6E6"/>
</svg>
