<svg width="24" height="24" viewBox="0 0 24 24" fill="none" xmlns="http://www.w3.org/2000/svg">
<rect width="24" height="24" rx="12" fill="#BCAEEC"/>
<path d="M7.9 14.7293V15.2293H8.4H9.7V20.229C6.12643 19.2211 3.5 15.9316 3.5 12.0226C3.5 7.31707 7.30932 3.5 12 3.5C16.6907 3.5 20.5 7.31707 20.5 12.0226C20.5 16.2559 17.4248 19.7622 13.4 20.4297V15.2293H15.6H16.1V14.7293V12.0226V11.5226H15.6H13.4V10.218C13.4 9.99677 13.5823 9.81579 13.8 9.81579H15.6H16.1V9.31579V6.60902V6.10902H15.6H13.35C11.3357 6.10902 9.7 7.7506 9.7 9.76692V11.5226H8.4H7.9V12.0226V14.7293Z" fill="white" stroke="#857E7F"/>
</svg>
