<svg width="24" height="24" viewBox="0 0 24 24" fill="none" xmlns="http://www.w3.org/2000/svg">
<rect width="24" height="24" rx="12" fill="#BCAEEC"/>
<mask id="path-2-inside-1_892_833" fill="white">
<path d="M12.9252 3C13.9377 3.0027 14.4515 3.0081 14.8952 3.0207L15.0698 3.027C15.2714 3.0342 15.4703 3.0432 15.7106 3.054C16.6681 3.099 17.3215 3.25019 17.8948 3.47249C18.4887 3.70108 18.9891 4.01068 19.4895 4.51016C19.9471 4.96006 20.3012 5.50427 20.5271 6.10493C20.7494 6.67821 20.9006 7.3316 20.9456 8.29008C20.9564 8.52947 20.9654 8.72837 20.9726 8.93086L20.978 9.10546C20.9915 9.54825 20.9969 10.0621 20.9987 11.0746L20.9996 11.746V12.925C21.0018 13.5814 20.9949 14.2379 20.9789 14.8941L20.9735 15.0687C20.9663 15.2712 20.9573 15.4701 20.9465 15.7095C20.9015 16.668 20.7485 17.3205 20.5271 17.8947C20.3018 18.4956 19.9477 19.04 19.4895 19.4894C19.0395 19.9469 18.4953 20.301 17.8948 20.5271C17.3215 20.7494 16.6681 20.9006 15.7106 20.9456C15.497 20.9556 15.2834 20.9646 15.0698 20.9726L14.8952 20.978C14.4515 20.9906 13.9377 20.9969 12.9252 20.9987L12.2538 20.9996H11.0758C10.4191 21.0018 9.76234 20.9949 9.10581 20.9789L8.93122 20.9735C8.71758 20.9654 8.50398 20.9561 8.29045 20.9456C7.3329 20.9006 6.67953 20.7494 6.10536 20.5271C5.50479 20.3015 4.96081 19.9474 4.51154 19.4894C4.05351 19.0397 3.69909 18.4954 3.473 17.8947C3.25071 17.3214 3.09951 16.668 3.05452 15.7095C3.04449 15.496 3.03549 15.2824 3.02752 15.0687L3.02302 14.8941C3.00643 14.2379 2.99893 13.5814 3.00052 12.925V11.0746C2.99801 10.4182 3.00461 9.76172 3.02032 9.10546L3.02662 8.93086C3.03382 8.72837 3.04282 8.52947 3.05362 8.29008C3.09861 7.3316 3.24981 6.67911 3.4721 6.10493C3.69809 5.50366 4.05321 4.95928 4.51244 4.51016C4.9616 4.0525 5.50522 3.69837 6.10536 3.47249C6.67953 3.25019 7.332 3.099 8.29045 3.054C8.52984 3.0432 8.72963 3.0342 8.93122 3.027L9.10581 3.0216C9.76205 3.00561 10.4185 2.99871 11.0749 3.0009L12.9252 3ZM12.0001 7.4999C10.8066 7.4999 9.66211 7.97399 8.81824 8.81788C7.97437 9.66178 7.50029 10.8063 7.50029 11.9998C7.50029 13.1932 7.97437 14.3378 8.81824 15.1817C9.66211 16.0256 10.8066 16.4997 12.0001 16.4997C13.1935 16.4997 14.338 16.0256 15.1819 15.1817C16.0257 14.3378 16.4998 13.1932 16.4998 11.9998C16.4998 10.8063 16.0257 9.66178 15.1819 8.81788C14.338 7.97399 13.1935 7.4999 12.0001 7.4999ZM12.0001 9.29985C12.3546 9.29979 12.7057 9.36957 13.0333 9.5052C13.3609 9.64083 13.6585 9.83966 13.9093 10.0903C14.16 10.341 14.3589 10.6386 14.4947 10.9662C14.6304 11.2937 14.7003 11.6448 14.7004 11.9993C14.7004 12.3539 14.6307 12.705 14.495 13.0326C14.3594 13.3602 14.1606 13.6579 13.9099 13.9086C13.6593 14.1594 13.3617 14.3583 13.0341 14.494C12.7066 14.6298 12.3555 14.6997 12.001 14.6997C11.2849 14.6997 10.5982 14.4153 10.0919 13.9089C9.58555 13.4026 9.3011 12.7159 9.3011 11.9998C9.3011 11.2837 9.58555 10.597 10.0919 10.0906C10.5982 9.58431 11.2849 9.29985 12.001 9.29985M16.7257 6.14993C16.4274 6.14993 16.1412 6.26845 15.9303 6.47942C15.7193 6.6904 15.6008 6.97654 15.6008 7.2749C15.6008 7.57326 15.7193 7.8594 15.9303 8.07038C16.1412 8.28135 16.4274 8.39987 16.7257 8.39987C17.0241 8.39987 17.3102 8.28135 17.5212 8.07038C17.7321 7.8594 17.8507 7.57326 17.8507 7.2749C17.8507 6.97654 17.7321 6.6904 17.5212 6.47942C17.3102 6.26845 17.0241 6.14993 16.7257 6.14993Z"/>
</mask>
<path d="M12.9252 3C13.9377 3.0027 14.4515 3.0081 14.8952 3.0207L15.0698 3.027C15.2714 3.0342 15.4703 3.0432 15.7106 3.054C16.6681 3.099 17.3215 3.25019 17.8948 3.47249C18.4887 3.70108 18.9891 4.01068 19.4895 4.51016C19.9471 4.96006 20.3012 5.50427 20.5271 6.10493C20.7494 6.67821 20.9006 7.3316 20.9456 8.29008C20.9564 8.52947 20.9654 8.72837 20.9726 8.93086L20.978 9.10546C20.9915 9.54825 20.9969 10.0621 20.9987 11.0746L20.9996 11.746V12.925C21.0018 13.5814 20.9949 14.2379 20.9789 14.8941L20.9735 15.0687C20.9663 15.2712 20.9573 15.4701 20.9465 15.7095C20.9015 16.668 20.7485 17.3205 20.5271 17.8947C20.3018 18.4956 19.9477 19.04 19.4895 19.4894C19.0395 19.9469 18.4953 20.301 17.8948 20.5271C17.3215 20.7494 16.6681 20.9006 15.7106 20.9456C15.497 20.9556 15.2834 20.9646 15.0698 20.9726L14.8952 20.978C14.4515 20.9906 13.9377 20.9969 12.9252 20.9987L12.2538 20.9996H11.0758C10.4191 21.0018 9.76234 20.9949 9.10581 20.9789L8.93122 20.9735C8.71758 20.9654 8.50398 20.9561 8.29045 20.9456C7.3329 20.9006 6.67953 20.7494 6.10536 20.5271C5.50479 20.3015 4.96081 19.9474 4.51154 19.4894C4.05351 19.0397 3.69909 18.4954 3.473 17.8947C3.25071 17.3214 3.09951 16.668 3.05452 15.7095C3.04449 15.496 3.03549 15.2824 3.02752 15.0687L3.02302 14.8941C3.00643 14.2379 2.99893 13.5814 3.00052 12.925V11.0746C2.99801 10.4182 3.00461 9.76172 3.02032 9.10546L3.02662 8.93086C3.03382 8.72837 3.04282 8.52947 3.05362 8.29008C3.09861 7.3316 3.24981 6.67911 3.4721 6.10493C3.69809 5.50366 4.05321 4.95928 4.51244 4.51016C4.9616 4.0525 5.50522 3.69837 6.10536 3.47249C6.67953 3.25019 7.332 3.099 8.29045 3.054C8.52984 3.0432 8.72963 3.0342 8.93122 3.027L9.10581 3.0216C9.76205 3.00561 10.4185 2.99871 11.0749 3.0009L12.9252 3ZM12.0001 7.4999C10.8066 7.4999 9.66211 7.97399 8.81824 8.81788C7.97437 9.66178 7.50029 10.8063 7.50029 11.9998C7.50029 13.1932 7.97437 14.3378 8.81824 15.1817C9.66211 16.0256 10.8066 16.4997 12.0001 16.4997C13.1935 16.4997 14.338 16.0256 15.1819 15.1817C16.0257 14.3378 16.4998 13.1932 16.4998 11.9998C16.4998 10.8063 16.0257 9.66178 15.1819 8.81788C14.338 7.97399 13.1935 7.4999 12.0001 7.4999ZM12.0001 9.29985C12.3546 9.29979 12.7057 9.36957 13.0333 9.5052C13.3609 9.64083 13.6585 9.83966 13.9093 10.0903C14.16 10.341 14.3589 10.6386 14.4947 10.9662C14.6304 11.2937 14.7003 11.6448 14.7004 11.9993C14.7004 12.3539 14.6307 12.705 14.495 13.0326C14.3594 13.3602 14.1606 13.6579 13.9099 13.9086C13.6593 14.1594 13.3617 14.3583 13.0341 14.494C12.7066 14.6298 12.3555 14.6997 12.001 14.6997C11.2849 14.6997 10.5982 14.4153 10.0919 13.9089C9.58555 13.4026 9.3011 12.7159 9.3011 11.9998C9.3011 11.2837 9.58555 10.597 10.0919 10.0906C10.5982 9.58431 11.2849 9.29985 12.001 9.29985M16.7257 6.14993C16.4274 6.14993 16.1412 6.26845 15.9303 6.47942C15.7193 6.6904 15.6008 6.97654 15.6008 7.2749C15.6008 7.57326 15.7193 7.8594 15.9303 8.07038C16.1412 8.28135 16.4274 8.39987 16.7257 8.39987C17.0241 8.39987 17.3102 8.28135 17.5212 8.07038C17.7321 7.8594 17.8507 7.57326 17.8507 7.2749C17.8507 6.97654 17.7321 6.6904 17.5212 6.47942C17.3102 6.26845 17.0241 6.14993 16.7257 6.14993Z" fill="white"/>
<path d="M12.9252 3L12.9279 2L12.9247 2L12.9252 3ZM14.8952 3.0207L14.9313 2.02132L14.9236 2.0211L14.8952 3.0207ZM15.0698 3.027L15.0337 4.02635L15.0341 4.02636L15.0698 3.027ZM15.7106 3.054L15.7575 2.0551L15.7555 2.05501L15.7106 3.054ZM17.8948 3.47249L17.5332 4.40485L17.5356 4.40576L17.8948 3.47249ZM19.4895 4.51016L18.783 5.21792L18.7884 5.22326L19.4895 4.51016ZM20.5271 6.10493L19.5911 6.457L19.5948 6.46645L20.5271 6.10493ZM20.9456 8.29008L21.9446 8.24501L21.9445 8.24318L20.9456 8.29008ZM20.9726 8.93086L21.9721 8.89995L21.972 8.89533L20.9726 8.93086ZM20.978 9.10546L21.9775 9.07499L21.9775 9.07454L20.978 9.10546ZM20.9987 11.0746L21.9987 11.0733V11.0728L20.9987 11.0746ZM20.9996 11.746H21.9996L21.9996 11.7447L20.9996 11.746ZM20.9996 12.925H19.9996L19.9996 12.9283L20.9996 12.925ZM20.9789 14.8941L21.9784 14.925L21.9786 14.9185L20.9789 14.8941ZM20.9735 15.0687L21.9729 15.1043L21.973 15.0996L20.9735 15.0687ZM20.9465 15.7095L21.9454 15.7564L21.9455 15.7546L20.9465 15.7095ZM20.5271 17.8947L19.594 17.5349L19.5907 17.5437L20.5271 17.8947ZM19.4895 19.4894L18.7892 18.7755L18.7828 18.7818L18.7766 18.7881L19.4895 19.4894ZM17.8948 20.5271L17.5424 19.5912L17.5332 19.5947L17.8948 20.5271ZM15.7106 20.9456L15.6636 19.9467L15.6635 19.9467L15.7106 20.9456ZM15.0698 20.9726L15.1007 21.9721L15.107 21.9719L15.0698 20.9726ZM14.8952 20.978L14.9236 21.9776L14.9261 21.9775L14.8952 20.978ZM12.9252 20.9987L12.9266 21.9987L12.927 21.9987L12.9252 20.9987ZM12.2538 20.9996V21.9996L12.2552 21.9996L12.2538 20.9996ZM11.0758 20.9996V19.9996L11.0724 19.9996L11.0758 20.9996ZM9.10581 20.9789L9.0749 21.9784L9.08135 21.9786L9.10581 20.9789ZM8.93122 20.9735L8.89336 21.9728L8.90031 21.973L8.93122 20.9735ZM8.29045 20.9456L8.33959 19.9468L8.33739 19.9467L8.29045 20.9456ZM6.10536 20.5271L6.46642 19.5945L6.45696 19.5909L6.10536 20.5271ZM4.51154 19.4894L5.22538 18.7891L5.21883 18.7824L5.21215 18.7759L4.51154 19.4894ZM3.473 17.8947L4.40896 17.5424L4.40536 17.5331L3.473 17.8947ZM3.05452 15.7095L4.05342 15.6626L4.05342 15.6626L3.05452 15.7095ZM3.02752 15.0687L2.02778 15.0945L2.02821 15.106L3.02752 15.0687ZM3.02302 14.8941L2.02334 14.9194L2.02335 14.9199L3.02302 14.8941ZM3.00052 12.925L4.00052 12.9274V12.925H3.00052ZM3.00052 11.0746H4.00053L4.00051 11.0708L3.00052 11.0746ZM3.02032 9.10546L2.0209 9.0694L2.0206 9.08153L3.02032 9.10546ZM3.02662 8.93086L4.02597 8.96692L4.02599 8.96639L3.02662 8.93086ZM3.05362 8.29008L2.05472 8.24318L2.05463 8.24501L3.05362 8.29008ZM3.4721 6.10493L4.4047 6.46597L4.40816 6.45675L3.4721 6.10493ZM4.51244 4.51016L5.21163 5.2251L5.21896 5.21793L5.22615 5.21061L4.51244 4.51016ZM6.10536 3.47249L6.45763 4.40843L6.4664 4.40504L6.10536 3.47249ZM8.29045 3.054L8.24538 2.05501L8.24355 2.0551L8.29045 3.054ZM8.93122 3.027L8.9003 2.02747L8.89552 2.02764L8.93122 3.027ZM9.10581 3.0216L9.08145 2.02187L9.07489 2.02208L9.10581 3.0216ZM11.0749 3.0009L11.0716 4.0009L11.0754 4.0009L11.0749 3.0009ZM12.0001 7.4999V6.4999V7.4999ZM7.50029 11.9998H6.50029H7.50029ZM12.0001 16.4997V15.4997V16.4997ZM16.4998 11.9998H15.4998H16.4998ZM12.001 14.6997V15.6997H12.0011L12.001 14.6997ZM12.9225 4C13.9344 4.00269 14.4371 4.00809 14.8668 4.0203L14.9236 2.0211C14.466 2.00811 13.9409 2.00271 12.9279 2L12.9225 4ZM14.8591 4.02005L15.0337 4.02635L15.1059 2.02765L14.9313 2.02135L14.8591 4.02005ZM15.0341 4.02636C15.2302 4.03336 15.4241 4.04213 15.6657 4.05299L15.7555 2.05501C15.5164 2.04426 15.3126 2.03503 15.1055 2.02764L15.0341 4.02636ZM15.6636 4.0529C16.5278 4.0935 17.0731 4.22643 17.5332 4.40485L18.2563 2.54013C17.5699 2.27396 16.8085 2.10449 15.7575 2.0551L15.6636 4.0529ZM17.5356 4.40576C18.0051 4.58644 18.3856 4.82126 18.783 5.2179L20.196 3.80243C19.5926 3.2001 18.9724 2.81573 18.2539 2.53922L17.5356 4.40576ZM18.7884 5.22326C19.1424 5.57131 19.4164 5.99231 19.5911 6.45699L21.4631 5.75287C21.186 5.01623 20.7518 4.34882 20.1905 3.79706L18.7884 5.22326ZM19.5948 6.46645C19.7731 6.92652 19.9061 7.47187 19.9467 8.33697L21.9445 8.24318C21.8951 7.19133 21.7257 6.42991 21.4595 5.74341L19.5948 6.46645ZM19.9466 8.33514C19.9575 8.57563 19.9662 8.76956 19.9732 8.96639L21.972 8.89533C21.9646 8.68718 21.9553 8.48331 21.9446 8.24501L19.9466 8.33514ZM19.9731 8.96178L19.9785 9.13637L21.9775 9.07454L21.9721 8.89995L19.9731 8.96178ZM19.9785 9.13593C19.9915 9.56314 19.9969 10.0645 19.9987 11.0764L21.9987 11.0728C21.9969 10.0597 21.9915 9.53336 21.9775 9.07499L19.9785 9.13593ZM19.9987 11.076L19.9996 11.7473L21.9996 11.7447L21.9987 11.0733L19.9987 11.076ZM19.9996 11.746V12.925H21.9996V11.746H19.9996ZM19.9996 12.9283C20.0018 13.5755 19.995 14.2227 19.9792 14.8697L21.9786 14.9185C21.9948 14.253 22.0018 13.5873 21.9996 12.9216L19.9996 12.9283ZM19.9794 14.8632L19.974 15.0378L21.973 15.0996L21.9784 14.925L19.9794 14.8632ZM19.9741 15.0332C19.9671 15.23 19.9584 15.4239 19.9475 15.6644L21.9455 15.7546C21.9562 15.5163 21.9655 15.3124 21.9729 15.1042L19.9741 15.0332ZM19.9476 15.6626C19.9071 16.5256 19.7729 17.0711 19.5941 17.5349L21.4602 18.2544C21.7241 17.5698 21.8959 16.8104 21.9454 15.7564L19.9476 15.6626ZM19.5907 17.5437C19.4167 18.0079 19.1431 18.4284 18.7892 18.7755L20.1897 20.2033C20.7522 19.6516 21.187 18.9834 21.4635 18.2457L19.5907 17.5437ZM18.7766 18.7881C18.4283 19.1422 18.0072 19.4162 17.5424 19.5912L18.2471 21.463C18.9834 21.1857 19.6506 20.7516 20.2024 20.1907L18.7766 18.7881ZM17.5332 19.5947C17.0731 19.7731 16.5278 19.9061 15.6636 19.9467L15.7575 21.9445C16.8085 21.8951 17.5699 21.7256 18.2563 21.4594L17.5332 19.5947ZM15.6635 19.9467C15.4533 19.9566 15.243 19.9654 15.0326 19.9733L15.107 21.9719C15.3239 21.9638 15.5408 21.9547 15.7576 21.9445L15.6635 19.9467ZM15.0389 19.9731L14.8643 19.9785L14.9261 21.9775L15.1007 21.9721L15.0389 19.9731ZM14.8668 19.9784C14.4367 19.9906 13.9335 19.9969 12.9234 19.9987L12.927 21.9987C13.9418 21.9969 14.4663 21.9906 14.9236 21.9776L14.8668 19.9784ZM12.9239 19.9987L12.2525 19.9996L12.2552 21.9996L12.9266 21.9987L12.9239 19.9987ZM12.2538 19.9996H11.0758V21.9996H12.2538V19.9996ZM11.0724 19.9996C10.4249 20.0018 9.7775 19.995 9.13027 19.9792L9.08135 21.9786C9.74718 21.9949 10.4132 22.0019 11.0793 21.9996L11.0724 19.9996ZM9.13671 19.9794L8.96212 19.974L8.90031 21.973L9.0749 21.9784L9.13671 19.9794ZM8.96907 19.9742C8.75919 19.9662 8.54937 19.9571 8.33959 19.9468L8.2413 21.9444C8.4586 21.9551 8.67596 21.9645 8.89336 21.9728L8.96907 19.9742ZM8.33739 19.9467C7.47338 19.9061 6.9278 19.7732 6.4664 19.5945L5.74432 21.4596C6.43126 21.7256 7.19242 21.8951 8.24351 21.9445L8.33739 19.9467ZM6.45696 19.5909C5.99289 19.4166 5.57254 19.143 5.22538 18.7891L3.7977 20.1897C4.34908 20.7518 5.0167 21.1864 5.75376 21.4632L6.45696 19.5909ZM5.21215 18.7759C4.8579 18.428 4.58378 18.0071 4.40892 17.5424L2.53707 18.2469C2.81439 18.9838 3.24911 19.6513 3.81093 20.203L5.21215 18.7759ZM4.40536 17.5331C4.22697 17.0731 4.09403 16.5277 4.05342 15.6626L2.05562 15.7564C2.105 16.8083 2.27444 17.5697 2.54063 18.2562L4.40536 17.5331ZM4.05342 15.6626C4.04354 15.4523 4.03468 15.2419 4.02682 15.0314L2.02821 15.106C2.03631 15.3229 2.04544 15.5397 2.05562 15.7564L4.05342 15.6626ZM4.02719 15.043L4.02269 14.8684L2.02335 14.9199L2.02785 15.0945L4.02719 15.043ZM4.0227 14.8689C4.00635 14.2218 3.99895 13.5746 4.00052 12.9274L2.00052 12.9226C1.99891 13.5882 2.00652 14.2539 2.02334 14.9194L4.0227 14.8689ZM4.00052 12.925V11.0746H2.00052V12.925H4.00052ZM4.00051 11.0708C3.99804 10.4236 4.00454 9.7764 4.02003 9.12939L2.0206 9.08153C2.00467 9.74704 1.99798 10.4127 2.00053 11.0784L4.00051 11.0708ZM4.01967 9.14152L4.02597 8.96692L2.02727 8.8948L2.02097 9.0694L4.01967 9.14152ZM4.02599 8.96639C4.03298 8.76956 4.04175 8.57563 4.0526 8.33514L2.05463 8.24501C2.04388 8.48331 2.03465 8.68718 2.02725 8.89533L4.02599 8.96639ZM4.05252 8.33697C4.09312 7.47216 4.22599 6.92745 4.40465 6.46595L2.53954 5.7439C2.27363 6.43077 2.10411 7.19104 2.05472 8.24318L4.05252 8.33697ZM4.40816 6.45675C4.5827 5.99238 4.85696 5.57195 5.21163 5.2251L3.81325 3.79523C3.24946 4.3466 2.81348 5.01493 2.53603 5.7531L4.40816 6.45675ZM5.22615 5.21061C5.57339 4.85679 5.99366 4.58302 6.45762 4.40839L5.7531 2.53659C5.01678 2.81372 4.34981 3.24821 3.79874 3.80972L5.22615 5.21061ZM6.4664 4.40504C6.92789 4.22637 7.47257 4.0935 8.33735 4.0529L8.24355 2.0551C7.19143 2.1045 6.43118 2.27402 5.74432 2.53994L6.4664 4.40504ZM8.33552 4.05298C8.57581 4.04214 8.77083 4.03337 8.96691 4.02636L8.89552 2.02764C8.68842 2.03503 8.48386 2.04426 8.24538 2.05501L8.33552 4.05298ZM8.96213 4.02652L9.13672 4.02112L9.07489 2.02208L8.9003 2.02748L8.96213 4.02652ZM9.13017 4.0213C9.77717 4.00554 10.4244 3.99873 11.0716 4.00089L11.0782 2.00091C10.4126 1.99868 9.74692 2.00568 9.08145 2.0219L9.13017 4.0213ZM11.0754 4.0009L12.9257 4L12.9247 2L11.0744 2.0009L11.0754 4.0009ZM12.0001 6.4999C10.5414 6.4999 9.14253 7.07935 8.11112 8.11079L9.52536 9.52498C10.1817 8.86863 11.0719 8.4999 12.0001 8.4999V6.4999ZM8.11112 8.11079C7.07972 9.14222 6.50029 10.5411 6.50029 11.9998H8.50029C8.50029 11.0716 8.86902 10.1813 9.52536 9.52498L8.11112 8.11079ZM6.50029 11.9998C6.50029 13.4584 7.07972 14.8574 8.11112 15.8888L9.52536 14.4746C8.86902 13.8182 8.50029 12.928 8.50029 11.9998H6.50029ZM8.11112 15.8888C9.14253 16.9202 10.5414 17.4997 12.0001 17.4997V15.4997C11.0719 15.4997 10.1817 15.131 9.52536 14.4746L8.11112 15.8888ZM12.0001 17.4997C13.4587 17.4997 14.8576 16.9202 15.889 15.8888L14.4748 14.4746C13.8184 15.131 12.9282 15.4997 12.0001 15.4997V17.4997ZM15.889 15.8888C16.9204 14.8574 17.4998 13.4584 17.4998 11.9998H15.4998C15.4998 12.928 15.1311 13.8182 14.4748 14.4746L15.889 15.8888ZM17.4998 11.9998C17.4998 10.5411 16.9204 9.14222 15.889 8.11079L14.4748 9.52498C15.1311 10.1813 15.4998 11.0716 15.4998 11.9998H17.4998ZM15.889 8.11079C14.8576 7.07935 13.4587 6.4999 12.0001 6.4999V8.4999C12.9282 8.4999 13.8184 8.86863 14.4748 9.52498L15.889 8.11079ZM12.0002 10.2999C12.2234 10.2998 12.4445 10.3437 12.6507 10.4291L13.4158 8.58126C12.9669 8.3954 12.4858 8.29977 11.9999 8.29985L12.0002 10.2999ZM12.6507 10.4291C12.857 10.5145 13.0444 10.6397 13.2023 10.7975L14.6163 9.38311C14.2727 9.0396 13.8647 8.76713 13.4158 8.58126L12.6507 10.4291ZM13.2023 10.7975C13.3602 10.9554 13.4854 11.1427 13.5709 11.349L15.4185 10.5833C15.2325 10.1345 14.9599 9.72663 14.6163 9.38311L13.2023 10.7975ZM13.5709 11.349C13.6563 11.5552 13.7003 11.7763 13.7004 11.9995L15.7004 11.9992C15.7003 11.5133 15.6045 11.0322 15.4185 10.5833L13.5709 11.349ZM13.7004 11.9995C13.7004 12.2228 13.6565 12.4438 13.5711 12.6501L15.419 13.4151C15.6048 12.9662 15.7005 12.4851 15.7004 11.9992L13.7004 11.9995ZM13.5711 12.6501C13.4857 12.8563 13.3605 13.0438 13.2027 13.2016L14.6172 14.6156C14.9607 14.272 15.2331 13.864 15.419 13.4151L13.5711 12.6501ZM13.2027 13.2016C13.0449 13.3595 12.8575 13.4848 12.6513 13.5702L13.417 15.4178C13.8658 15.2318 14.2736 14.9592 14.6172 14.6156L13.2027 13.2016ZM12.6513 13.5702C12.445 13.6557 12.224 13.6997 12.0008 13.6997L12.0011 15.6997C12.487 15.6996 12.9681 15.6039 13.417 15.4178L12.6513 13.5702ZM12.001 13.6997C11.5501 13.6997 11.1178 13.5206 10.799 13.2018L9.38475 14.616C10.0786 15.3099 11.0197 15.6997 12.001 15.6997V13.6997ZM10.799 13.2018C10.4802 12.883 10.3011 12.4507 10.3011 11.9998H8.3011C8.3011 12.9811 8.6909 13.9222 9.38475 14.616L10.799 13.2018ZM10.3011 11.9998C10.3011 11.5489 10.4802 11.1165 10.799 10.7977L9.38475 9.38355C8.6909 10.0774 8.3011 11.0185 8.3011 11.9998H10.3011ZM10.799 10.7977C11.1178 10.4789 11.5501 10.2999 12.001 10.2999V8.29985C11.0197 8.29985 10.0786 8.68967 9.38475 9.38355L10.799 10.7977ZM16.7257 5.14993C16.1621 5.14993 15.6216 5.37381 15.2231 5.77233L16.6374 7.18652C16.6608 7.16309 16.6926 7.14993 16.7257 7.14993V5.14993ZM15.2231 5.77233C14.8246 6.17084 14.6008 6.71133 14.6008 7.2749H16.6008C16.6008 7.24175 16.6139 7.20996 16.6374 7.18652L15.2231 5.77233ZM14.6008 7.2749C14.6008 7.83847 14.8246 8.37896 15.2231 8.77747L16.6374 7.36328C16.6139 7.33984 16.6008 7.30805 16.6008 7.2749H14.6008ZM15.2231 8.77747C15.6216 9.17599 16.1621 9.39987 16.7257 9.39987V7.39987C16.6926 7.39987 16.6608 7.38671 16.6374 7.36328L15.2231 8.77747ZM16.7257 9.39987C17.2893 9.39987 17.8298 9.17599 18.2283 8.77747L16.8141 7.36328C16.7906 7.38671 16.7588 7.39987 16.7257 7.39987V9.39987ZM18.2283 8.77747C18.6268 8.37896 18.8507 7.83847 18.8507 7.2749H16.8507C16.8507 7.30806 16.8375 7.33985 16.8141 7.36328L18.2283 8.77747ZM18.8507 7.2749C18.8507 6.71133 18.6268 6.17084 18.2283 5.77233L16.8141 7.18652C16.8375 7.20995 16.8507 7.24174 16.8507 7.2749H18.8507ZM18.2283 5.77233C17.8298 5.37381 17.2893 5.14993 16.7257 5.14993V7.14993C16.7588 7.14993 16.7906 7.16309 16.8141 7.18652L18.2283 5.77233Z" fill="#857E7F" mask="url(#path-2-inside-1_892_833)"/>
</svg>
