<svg width="24" height="24" viewBox="0 0 24 24" fill="none" xmlns="http://www.w3.org/2000/svg">
<g clip-path="url(#clip0_892_829)">
<rect width="24" height="24" rx="12" fill="#BCAEEC"/>
<path d="M14.1489 11.8197L14.1382 11.8163C13.968 11.7625 13.6476 11.7886 13.4345 11.8794C13.0701 12.0353 12.7327 12.2792 12.5 12.5033V15.5556C12.5 15.9239 12.3537 16.2772 12.0932 16.5376C11.8327 16.7981 11.4795 16.9444 11.1111 16.9444C10.7428 16.9444 10.3895 16.7981 10.129 16.5376C9.96246 16.3711 9.84258 16.1666 9.77778 15.9444C9.71298 16.1666 9.5931 16.3711 9.42654 16.5376C9.16607 16.7981 8.8128 16.9444 8.44444 16.9444C8.07609 16.9444 7.72282 16.7981 7.46235 16.5376C7.20188 16.2772 7.05556 15.9239 7.05556 15.5556V11.1111C7.05556 10.7428 7.20189 10.3895 7.46235 10.129C7.62891 9.96246 7.83342 9.84257 8.05555 9.77778C7.83342 9.71298 7.62891 9.5931 7.46235 9.42654C7.20189 9.16607 7.05556 8.8128 7.05556 8.44444C7.05556 8.07609 7.20189 7.72282 7.46235 7.46235C7.72282 7.20189 8.07609 7.05556 8.44444 7.05556C8.8128 7.05556 9.16607 7.20189 9.42654 7.46235C9.687 7.72282 9.83333 8.07609 9.83333 8.44444C9.83333 8.8128 9.687 9.16607 9.42654 9.42654C9.25998 9.5931 9.05547 9.71298 8.83334 9.77778C9.05547 9.84257 9.25998 9.96246 9.42654 10.129C9.55343 10.2559 9.65323 10.4048 9.72222 10.5668V10.2222C9.72222 9.85387 9.86855 9.5006 10.129 9.24013C10.3895 8.97968 10.7427 8.83335 11.111 8.83333L14.1489 11.8197ZM14.1489 11.8197C14.1565 11.8491 14.1667 11.9059 14.1667 12V15.5556C14.1667 15.9239 14.313 16.2772 14.5735 16.5376C14.8339 16.7981 15.1872 16.9444 15.5556 16.9444C15.9239 16.9444 16.2772 16.7981 16.5377 16.5376C16.7981 16.2772 16.9444 15.9239 16.9444 15.5556V12C16.9444 11.3196 16.771 10.6796 16.3805 10.1522L16.3805 10.1522L16.3784 10.1494C16.0253 9.67963 15.5315 9.33494 14.9689 9.16553C14.0295 8.87184 13.0183 9.03649 12.3425 9.32624C12.3004 9.34425 12.2586 9.36276 12.217 9.38178M14.1489 11.8197L12.217 9.38178M12.217 9.38178C12.1541 9.2991 12.0818 9.2232 12.001 9.15578C11.7513 8.94742 11.4364 8.8333 11.1111 8.83333L12.217 9.38178ZM17.3333 4.5C17.908 4.5 18.4591 4.72827 18.8654 5.1346C19.2717 5.54093 19.5 6.09203 19.5 6.66667V17.3333C19.5 17.908 19.2717 18.4591 18.8654 18.8654C18.4591 19.2717 17.908 19.5 17.3333 19.5H6.66667C6.09203 19.5 5.54093 19.2717 5.1346 18.8654C4.72827 18.4591 4.5 17.908 4.5 17.3333V6.66667C4.5 6.09203 4.72827 5.54093 5.1346 5.1346C5.54093 4.72827 6.09203 4.5 6.66667 4.5H17.3333Z" fill="white" stroke="#857E7F"/>
</g>
<defs>
<clipPath id="clip0_892_829">
<rect width="24" height="24" rx="12" fill="white"/>
</clipPath>
</defs>
</svg>
