<svg width="24" height="24" viewBox="0 0 24 24" fill="none" xmlns="http://www.w3.org/2000/svg">
<rect width="24" height="24" rx="12" fill="#BCAEEC"/>
<path d="M17.8648 7.3508L18.7025 6.5H17.5085H15.6H15.3904L15.2434 6.6495L12.4846 9.45614L10.1187 6.67596L9.96899 6.5H9.73795H5.80045H4.71059L5.42144 7.32612L9.82621 12.4452L5.68915 16.6493L4.85203 17.5H6.04554H7.95402H8.16337L8.31027 17.3508L11.3723 14.2415L14.0235 17.3259L14.1731 17.5H14.4027H18.2438H19.3259L18.6245 16.6759L14.0154 11.2603L17.8648 7.3508ZM3.5 6.28571C3.5 5.35488 4.37228 4.5 5.57143 4.5H18.4286C19.6277 4.5 20.5 5.35488 20.5 6.28571V17.7143C20.5 18.6451 19.6277 19.5 18.4286 19.5H5.57143C4.37228 19.5 3.5 18.6451 3.5 17.7143V6.28571Z" fill="white" stroke="#857E7F"/>
</svg>
