<svg width="24" height="24" viewBox="0 0 24 24" fill="none" xmlns="http://www.w3.org/2000/svg">
<g clip-path="url(#clip0_892_825)">
<rect width="24" height="24" rx="12" fill="#BCAEEC"/>
<path d="M17.599 4.78614L17.5997 4.7862C18.2704 4.84324 18.9118 5.16187 19.4074 5.7013C19.9037 6.24159 20.2195 6.96731 20.2885 7.75357C20.2885 7.75391 20.2886 7.75425 20.2886 7.75458L20.3241 8.17299L20.3245 8.1782L20.3913 9.07933C20.3914 9.07995 20.3914 9.08057 20.3914 9.0812C20.4539 10.0169 20.5 11.0324 20.5 12C20.5 12.9676 20.4539 13.9831 20.3914 14.9188C20.3914 14.9194 20.3914 14.92 20.3913 14.9207L20.3243 15.8241C20.3243 15.8246 20.3242 15.8252 20.3242 15.8257C20.3126 15.9704 20.3011 16.1087 20.2888 16.2435L20.2886 16.2454C20.2197 17.0322 19.9038 17.7584 19.4071 18.299C18.9114 18.8384 18.2698 19.1569 17.599 19.2138L17.5987 19.2138L16.8629 19.2766L16.0577 19.3383L15.1977 19.3949L14.2997 19.4426C14.2993 19.4426 14.2989 19.4426 14.2985 19.4426C13.5327 19.4796 12.7664 19.4987 12 19.5C11.2336 19.4987 10.4672 19.4796 9.70153 19.4426C9.70113 19.4426 9.70072 19.4426 9.70031 19.4426L8.80228 19.3949L7.94325 19.3383L7.13794 19.2766L6.40033 19.2138L6.40027 19.2138C5.72959 19.1568 5.08819 18.8381 4.59264 18.2987C4.09622 17.7583 3.78041 17.0325 3.71145 16.2461C3.71144 16.2459 3.71142 16.2456 3.7114 16.2454L3.67574 15.8244L3.60858 14.9191C3.60856 14.9187 3.60853 14.9184 3.60851 14.9181C3.54053 13.9468 3.50433 12.9731 3.5 11.9989C3.50004 11.0316 3.5461 10.0165 3.60857 9.08115L3.67582 8.17446C3.68742 8.02977 3.69891 7.89134 3.71123 7.75646L3.71123 7.75646L3.7114 7.75458C3.7802 6.96807 4.09594 6.24206 4.59234 5.70155C5.08774 5.16214 5.72897 4.84341 6.39952 4.78619L6.40015 4.78614L7.13625 4.72238L7.9411 4.66177L8.80139 4.60513L9.6994 4.55742C9.6998 4.5574 9.7002 4.55738 9.70061 4.55736C10.4668 4.52041 11.2335 4.50129 12.0004 4.5C12.7601 4.50001 13.5407 4.52172 14.2988 4.55738C14.2993 4.5574 14.2998 4.55742 14.3003 4.55745L15.1977 4.60513L16.0571 4.66176L16.862 4.72238L17.599 4.78614ZM11.2792 15.3663L11.28 15.3658L15.0594 12.9412C15.2194 12.8389 15.346 12.6957 15.4316 12.5311C15.5172 12.3668 15.5606 12.1837 15.5606 12C15.5606 11.8163 15.5172 11.6332 15.4316 11.4689C15.346 11.3043 15.2194 11.1611 15.0594 11.0588L11.28 8.63515C11.1197 8.53236 10.9333 8.47558 10.7398 8.47562C10.5464 8.47565 10.3599 8.53249 10.1997 8.63534C10.0401 8.73783 9.9138 8.88105 9.82843 9.04552L10.2722 9.27587L9.82843 9.04553C9.74335 9.20945 9.7001 9.39185 9.7 9.575C9.7 9.57533 9.7 9.57567 9.7 9.576C9.7 9.5761 9.7 9.57619 9.7 9.57629V14.425C9.7 14.823 9.89643 15.1707 10.2001 15.3654C10.5087 15.5633 10.9221 15.5945 11.2792 15.3663Z" fill="white" stroke="#8C898A"/>
</g>
<defs>
<clipPath id="clip0_892_825">
<rect width="24" height="24" rx="12" fill="white"/>
</clipPath>
</defs>
</svg>
