<svg width="40" height="41" viewBox="0 0 40 41" fill="none" xmlns="http://www.w3.org/2000/svg">
<path d="M10 5.40625V10.4062H5V5.40625H10ZM2.5 2.90625V12.9062H12.5V2.90625H2.5ZM22.5 9.15625V14.1562H17.5V9.15625H22.5ZM15 6.65625V16.6562H25V6.65625H15ZM10 20.4062V25.4062H5V20.4062H10ZM2.5 17.9062V27.9062H12.5V17.9062H2.5Z" fill="#240C76"/>
<path d="M27.5 12.9062V20.4062H20V27.9062H12.5V37.9062H37.5V12.9062H27.5ZM22.5 22.9062H27.5V27.9062H22.5V22.9062ZM20 35.4062H15V30.4062H20V35.4062ZM27.5 35.4062H22.5V30.4062H27.5V35.4062ZM35 35.4062H30V30.4062H35V35.4062ZM35 27.9062H30V22.9062H35V27.9062ZM30 20.4062V15.4062H35V20.4062H30Z" fill="#240C76"/>
</svg>
