<svg width="1243" height="2000" viewBox="0 0 1243 2000" fill="none" xmlns="http://www.w3.org/2000/svg">
<path d="M234.969 1654.72C304.524 1654.72 360.909 1638.44 360.909 1618.36C360.909 1598.28 304.524 1582 234.969 1582C165.415 1582 109.029 1598.28 109.029 1618.36C109.029 1638.44 165.415 1654.72 234.969 1654.72Z" fill="#240076"/>
<path opacity="0.5" d="M234.969 1654.72C304.524 1654.72 360.909 1638.44 360.909 1618.36C360.909 1598.28 304.524 1582 234.969 1582C165.415 1582 109.029 1598.28 109.029 1618.36C109.029 1638.44 165.415 1654.72 234.969 1654.72Z" fill="white"/>
<path d="M691.929 1654.72C761.484 1654.72 817.869 1638.44 817.869 1618.36C817.869 1598.28 761.484 1582 691.929 1582C622.375 1582 565.989 1598.28 565.989 1618.36C565.989 1638.44 622.375 1654.72 691.929 1654.72Z" fill="#240076"/>
<path opacity="0.5" d="M691.929 1654.72C761.484 1654.72 817.869 1638.44 817.869 1618.36C817.869 1598.28 761.484 1582 691.929 1582C622.375 1582 565.989 1598.28 565.989 1618.36C565.989 1638.44 622.375 1654.72 691.929 1654.72Z" fill="white"/>
<path d="M480.549 954.52C485.624 958.755 489.961 964.387 493.269 971.039C497.049 980.199 512.889 986.159 512.889 986.159H518.739L521.139 1022.84C515.108 1023.1 509.096 1023.88 503.139 1025.16C499.628 1026.19 496.053 1026.8 492.459 1026.96C492.459 1026.96 473.889 995.8 470.799 989.84C467.709 983.88 467.379 971.52 468.759 969.2C470.139 966.88 480.549 954.52 480.549 954.52Z" fill="white" stroke="#263238" stroke-width="0.75" stroke-linecap="round" stroke-linejoin="round"/>
<path d="M455.799 1016.88C455.799 1016.88 445.479 1021.48 449.949 1025.16C452.248 1026.52 454.807 1026.9 457.273 1026.24C459.74 1025.58 461.992 1023.92 463.719 1021.48C465.429 1017.8 459.999 1015.04 455.799 1016.88Z" fill="white" stroke="#263238" stroke-width="0.75" stroke-linecap="round" stroke-linejoin="round"/>
<path d="M444.459 974.719C444.459 974.719 475.059 960.04 476.439 961.4C477.819 962.76 480.219 975.159 480.219 975.159C480.219 975.159 501.519 992.12 503.259 998.56C504.638 1008.56 504.638 1018.8 503.259 1028.8C502.209 1031.12 496.389 1033.84 494.259 1034.76C492.111 1035.47 489.866 1035.47 487.719 1034.76C486.699 1034.32 470.169 1018.76 470.169 1018.76C470.169 1018.76 453.339 1021.04 449.559 1021.04C445.779 1021.04 441.969 1020.6 441.969 1020.6L444.459 974.719Z" fill="white" stroke="#263238" stroke-width="0.75" stroke-linecap="round" stroke-linejoin="round"/>
<path d="M482.619 992C482.619 992 493.959 1000.28 496.389 1004.84C498.819 1009.4 501.189 1029.16 501.189 1029.16" stroke="#263238" stroke-width="0.75" stroke-linecap="round" stroke-linejoin="round"/>
<path d="M477.82 1000.4C477.82 1000.4 491.23 1010 492.58 1014.6C493.864 1020.47 494.866 1026.44 495.58 1032.48" stroke="#263238" stroke-width="0.75" stroke-linecap="round" stroke-linejoin="round"/>
<path d="M484.689 963.24C484.689 963.24 469.899 985.24 466.449 987.56C462.999 989.88 462.339 987.08 460.449 985.24C458.559 983.4 471.459 958.68 471.129 956.84C472.931 955.066 475.126 954.146 477.366 954.225C479.605 954.305 481.76 955.38 483.489 957.28" fill="white"/>
<path d="M484.689 963.24C484.689 963.24 469.899 985.24 466.449 987.56C462.999 989.88 462.339 987.08 460.449 985.24C458.559 983.4 471.459 958.68 471.129 956.84C472.931 955.066 475.126 954.146 477.366 954.225C479.605 954.305 481.76 955.38 483.489 957.28" stroke="#263238" stroke-width="0.75" stroke-linecap="round" stroke-linejoin="round"/>
<path d="M463 1012L462.46 1014.48C461.373 1018.86 460.738 1023.43 460.57 1028.04C461.26 1029.88 465.4 1031.72 466.78 1028.96C468.16 1026.2 470.89 1012.48 470.2 1010.64C469.51 1008.8 466.81 1000.84 463 1012Z" fill="white" stroke="#263238" stroke-width="0.75" stroke-linecap="round" stroke-linejoin="round"/>
<path d="M476.079 1010C474.999 1011.8 470.079 1031.56 471.279 1034C472.479 1036.44 477.459 1037.24 478.839 1034.48C480.219 1031.72 485.019 1014.48 483.639 1010.48C482.259 1006.48 480.999 1002.2 476.079 1010Z" fill="white" stroke="#263238" stroke-width="0.75" stroke-linecap="round" stroke-linejoin="round"/>
<path d="M484.69 1014.12L484.18 1015.72C482.68 1020.48 478.39 1034.84 479.53 1037.52C480.67 1040.2 487.42 1041.52 488.8 1037.08C490.18 1032.64 495.01 1015.52 491.8 1011.4C491.297 1010.6 490.631 1010.01 489.882 1009.71C489.134 1009.41 488.335 1009.4 487.583 1009.68C486.831 1009.97 486.158 1010.54 485.645 1011.33C485.131 1012.12 484.8 1013.09 484.69 1014.12Z" fill="white" stroke="#263238" stroke-width="0.75" stroke-linecap="round" stroke-linejoin="round"/>
<path d="M248.02 628.56C248.02 628.56 249.82 643.32 247.75 649.2C245.68 655.08 242.59 667.4 242.59 667.4L288.25 721.4C288.25 721.4 302.17 698 304.75 693.4C307.33 688.8 310.75 682.72 310.75 682.72C310.75 682.72 288.31 663.8 283.75 650.04C279.19 636.28 281.44 618.76 271.75 616C262.06 613.24 250.87 620.32 248.02 628.56Z" fill="white" stroke="#263238" stroke-width="0.75" stroke-linecap="round" stroke-linejoin="round"/>
<path d="M334.928 537.44C334.928 537.44 354.008 537.08 350.138 512.68C346.268 488.28 301.658 483.08 293.408 494.44C285.158 505.8 286.448 510.44 286.448 510.44C286.448 510.44 248.018 509.08 238.208 536.92C228.398 564.76 232.808 600.92 239.258 619.799C245.708 638.68 256.538 640.759 262.208 638.359C267.878 635.96 271.988 631.479 271.988 624.599C271.988 617.719 275.618 601.24 279.998 605.36C284.378 609.48 288.998 610.84 296.768 600.88C304.538 590.92 315.578 578.52 311.468 568.56C307.358 558.6 300.368 558.24 304.238 553.76C308.108 549.28 330.038 545.76 332.078 542.76C333.215 541.177 334.174 539.386 334.928 537.44Z" fill="#263238" stroke="#263238" stroke-width="0.75" stroke-linecap="round" stroke-linejoin="round"/>
<path d="M333.999 522.799C333.999 522.799 336.699 530.039 311.018 539.039C285.338 548.039 242.019 549.839 240.729 571.479" stroke="white" stroke-width="0.75" stroke-linecap="round" stroke-linejoin="round"/>
<path d="M284.049 564.279C284.049 564.279 252.968 576.879 246.188 591.319C239.408 605.759 248.918 618.319 248.918 618.319" stroke="white" stroke-width="0.75" stroke-linecap="round" stroke-linejoin="round"/>
<path d="M334.929 537.439C334.929 537.439 342.159 570.079 342.159 576.639C342.159 583.199 336.999 589.679 339.309 596.919C341.619 604.159 349.359 618.239 349.359 622.719C349.359 627.199 338.019 631.639 338.019 631.639C338.019 631.639 328.479 679.639 326.409 685.639C324.339 691.639 317.409 692.519 309.129 689.639C300.849 686.759 278.979 671.399 273.129 659.399C267.279 647.399 271.569 627.039 271.569 627.039C271.569 627.039 259.569 619.839 257.139 604.719C254.709 589.599 263.589 579.599 271.329 583.039C273.504 583.898 275.522 585.351 277.252 587.307C278.982 589.263 280.388 591.679 281.379 594.399C281.379 594.399 282.159 598.159 284.379 597.159C286.599 596.159 288.759 589.919 290.829 589.559C292.899 589.199 307.599 582.359 305.829 574.799C304.059 567.239 285.699 566.799 286.989 558.279C288.279 549.759 334.929 537.439 334.929 537.439Z" fill="white" stroke="#263238" stroke-width="0.75" stroke-linecap="round" stroke-linejoin="round"/>
<path d="M311.98 624.76L304.51 631.64" stroke="#263238" stroke-width="0.75" stroke-linecap="round" stroke-linejoin="round"/>
<path d="M309.129 629.24C309.129 629.24 311.469 637.48 321.129 640.24L309.129 629.24Z" fill="white"/>
<path d="M309.129 629.24C309.129 629.24 311.469 637.48 321.129 640.24" stroke="#263238" stroke-width="0.75" stroke-linecap="round" stroke-linejoin="round"/>
<path d="M309.399 631.639C309.399 631.639 305.019 647.639 310.419 651.239C315.819 654.839 318.159 639.919 318.159 639.919L309.399 631.639Z" fill="black"/>
<path d="M338.529 599.52C338.229 607.88 336.639 614.56 334.989 614.44C333.339 614.32 332.289 607.48 332.619 599.12C332.949 590.76 334.509 584.12 336.159 584.2C337.809 584.28 338.859 591.16 338.529 599.52Z" fill="white" stroke="#263238" stroke-width="0.75" stroke-linecap="round" stroke-linejoin="round"/>
<path d="M332.62 591.08H280" stroke="#263238" stroke-width="0.75" stroke-linecap="round" stroke-linejoin="round"/>
<path d="M328.99 581.799C329.383 579.924 330.101 578.197 331.086 576.759C332.071 575.321 333.295 574.211 334.66 573.519C339.07 571.799 339.82 574.919 339.82 574.919" fill="white"/>
<path d="M328.99 581.799C329.383 579.924 330.101 578.197 331.086 576.759C332.071 575.321 333.295 574.211 334.66 573.519C339.07 571.799 339.82 574.919 339.82 574.919" stroke="#263238" stroke-width="0.75" stroke-linecap="round" stroke-linejoin="round"/>
<path d="M150.099 1164.52L309.999 1158.12C309.999 1158.12 319.959 1305.72 317.559 1308.96C315.159 1312.2 156.639 1320.96 156.639 1320.96C156.639 1320.96 144.369 1322.12 142.629 1314.8C140.889 1307.48 150.099 1164.52 150.099 1164.52Z" fill="white" stroke="#263238" stroke-width="0.75" stroke-linecap="round" stroke-linejoin="round"/>
<path d="M150.099 1164.52C150.099 1164.52 135.099 1310.76 137.709 1314.92C140.319 1319.08 152.709 1322.08 156.639 1320.88C160.239 1320 150.099 1164.52 150.099 1164.52Z" fill="white" stroke="#263238" stroke-width="0.75" stroke-linecap="round" stroke-linejoin="round"/>
<path d="M197.199 1565.24C188.409 1572.4 184.149 1584.48 186.219 1594.12C188.289 1603.76 188.949 1604.68 194.469 1606.12C199.989 1607.56 224.709 1602.44 251.469 1596.48C278.229 1590.52 282.099 1589.16 284.469 1584.12C286.839 1579.08 291.009 1574.04 264.519 1568.12C238.029 1562.2 235.629 1555.72 235.629 1555.72C235.629 1555.72 211.299 1553.76 197.199 1565.24Z" fill="#240076" stroke="#263238" stroke-width="0.75" stroke-linecap="round" stroke-linejoin="round"/>
<path d="M283.75 1574.76C281.95 1579.68 276.31 1588.52 258.58 1591.36C239.83 1594.36 205.9 1598.88 187.99 1600.92C189.22 1604.32 190.72 1604.92 194.47 1606.04C199.96 1607.4 224.71 1602.36 251.47 1596.4C278.23 1590.44 282.1 1589.08 284.47 1584.04C286 1581 288.07 1577.96 283.75 1574.76Z" fill="#263238" stroke="#263238" stroke-width="0.75" stroke-linecap="round" stroke-linejoin="round"/>
<path d="M244.66 1577.6C244.66 1577.6 272.17 1595.04 287.32 1599.16C302.47 1603.28 306.22 1603.76 304.51 1610.16C302.8 1616.56 302.44 1618.44 279.4 1625.76C256.36 1633.08 231.25 1624.84 220.24 1622.08C209.23 1619.32 205.81 1623.48 201.01 1620.72C196.21 1617.96 197.56 1604.2 197.56 1604.2L244.66 1577.6Z" fill="#240076" stroke="#263238" stroke-width="0.75" stroke-linecap="round" stroke-linejoin="round"/>
<path d="M279.399 1625.76C298.749 1619.6 302.079 1617.32 303.669 1612.92C282.669 1624.92 254.829 1619.96 233.589 1616.72C219.909 1614.6 206.859 1612.72 197.589 1611.72C197.54 1613.5 197.838 1615.26 198.454 1616.84C199.069 1618.41 199.98 1619.75 201.099 1620.72C205.899 1623.48 209.349 1619.36 220.329 1622.08C231.309 1624.8 256.359 1633.08 279.399 1625.76Z" fill="#263238" stroke="#263238" stroke-width="0.75" stroke-linecap="round" stroke-linejoin="round"/>
<path d="M213.73 1240.64C213.73 1240.64 208.9 1292.88 199.27 1315.36C189.64 1337.84 176.59 1353.4 174.52 1385.96C172.45 1418.52 179.32 1551.48 180.01 1562.96C180.7 1574.44 177.01 1578.08 180.7 1585.4C183.012 1589.89 185.537 1594.18 188.26 1598.24L199.63 1584.96C199.63 1584.96 207.88 1549.64 205.81 1482.24C203.74 1414.84 204.1 1369.48 213.04 1324.52C221.98 1279.56 223.69 1267.68 219.55 1250.24C215.41 1232.8 213.73 1240.64 213.73 1240.64Z" fill="#263238" stroke="#263238" stroke-width="0.75" stroke-linecap="round" stroke-linejoin="round"/>
<path d="M192.069 1132.32C192.069 1132.32 203.409 1160.84 205.989 1168.32C208.569 1175.8 214.479 1262.56 209.859 1291.44C205.239 1320.32 187.239 1369.4 188.859 1412.48C190.479 1455.56 191.859 1569.76 191.859 1571.12C190.824 1577.93 190.824 1584.95 191.859 1591.76C193.569 1604.12 198.729 1607.76 198.729 1607.76C207.483 1602.32 216.565 1597.88 225.879 1594.48C242.739 1588.04 247.539 1578.88 247.539 1578.88C246.067 1572.94 244.345 1567.12 242.379 1561.44C239.979 1555.04 235.869 1544.96 236.559 1541.72C237.249 1538.48 241.719 1433.08 250.659 1398.24C259.599 1363.4 264.729 1326.72 272.319 1294.6C279.909 1262.48 297.999 1176.44 297.999 1154.44V1127.4L190.719 1124.64L192.069 1132.32Z" fill="#263238" stroke="#263238" stroke-width="0.75" stroke-linecap="round" stroke-linejoin="round"/>
<path d="M200.919 1337.76C197.919 1350.04 194.589 1363.8 192.069 1374.72C186.069 1400.72 192.069 1546.72 192.069 1546.72C192.725 1557.36 192.915 1568.05 192.639 1578.72C192.069 1591.96 192.639 1597.2 195.099 1600.76" stroke="white" stroke-width="0.75" stroke-linecap="round" stroke-linejoin="round"/>
<path d="M208.569 1306.72C208.569 1306.72 206.349 1315.56 203.379 1327.68" stroke="white" stroke-width="0.75" stroke-linecap="round" stroke-linejoin="round"/>
<path d="M239.26 655.039C239.26 655.039 251.26 660.519 269.26 681.519C287.26 702.519 305.62 722.439 301.75 729.519C297.88 736.599 290.65 761.519 290.65 761.519C290.65 761.519 283.96 746.719 264.1 725.519C244.24 704.319 229 685.279 229 685.279C229 685.279 237.19 659.519 239.26 655.039Z" fill="white" stroke="#263238" stroke-width="0.75" stroke-linecap="round" stroke-linejoin="round"/>
<path d="M223.27 688.719C223.27 688.719 184.84 725.159 178.27 760.239C171.7 795.319 168.97 812.519 169.51 879.559C170.05 946.599 173.11 988.919 173.11 991.999C173.11 995.079 163 1119.6 163 1120.96C163 1122.32 181 1144.36 231.34 1145.72C265.504 1146.01 299.625 1142.45 333.34 1135.08L311.41 893.679C311.41 893.679 302.89 790.839 294.13 771.599C285.37 752.359 223.27 688.719 223.27 688.719Z" fill="#240076" stroke="#263238" stroke-width="0.75" stroke-linecap="round" stroke-linejoin="round"/>
<path d="M245.439 1023.32C245.439 1023.32 277.419 1031.92 299.439 1021.24" stroke="#263238" stroke-width="0.75" stroke-linecap="round" stroke-linejoin="round"/>
<path d="M245.439 1036C245.439 1036 277.419 1044.6 299.439 1033.96" stroke="#263238" stroke-width="0.75" stroke-linecap="round" stroke-linejoin="round"/>
<path d="M438.939 967.84L446.859 972.88L442.029 1020.56L434.139 1018.72L438.939 967.84Z" fill="white" stroke="#263238" stroke-width="0.75" stroke-linecap="round" stroke-linejoin="round"/>
<path d="M257.379 751.439C252.878 753.334 248.846 756.817 245.709 761.519C240.549 769.519 212.709 815.599 214.749 835.799C216.789 855.999 252.999 929.759 264.999 952.719C279.773 981.815 301.052 1003.96 325.809 1016C356.079 1030.68 434.829 1023.36 434.829 1023.36L438.999 966.439C438.999 966.439 396.039 948.119 366.459 936.199C350.008 929.713 333.918 921.693 318.309 912.199C318.309 912.199 311.439 889.719 306.609 886.079C301.779 882.439 301.119 880.119 301.119 880.119C301.119 880.119 291.849 812.719 287.019 790.679C282.189 768.639 275.679 763.199 275.679 763.199" fill="#240076"/>
<path d="M257.379 751.439C252.878 753.334 248.846 756.817 245.709 761.519C240.549 769.519 212.709 815.599 214.749 835.799C216.789 855.999 252.999 929.759 264.999 952.719C279.773 981.815 301.052 1003.96 325.809 1016C356.079 1030.68 434.829 1023.36 434.829 1023.36L438.999 966.439C438.999 966.439 396.039 948.119 366.459 936.199C350.008 929.713 333.918 921.693 318.309 912.199C318.309 912.199 311.439 889.719 306.609 886.079C301.779 882.439 301.119 880.119 301.119 880.119C301.119 880.119 291.849 812.719 287.019 790.679C282.189 768.639 275.679 763.199 275.679 763.199" stroke="#263238" stroke-width="0.75" stroke-linecap="round" stroke-linejoin="round"/>
<path d="M659.38 1554.6C647.114 1564.04 634.362 1572.32 621.22 1579.36C603.67 1588.08 599.53 1591.36 602.98 1596.32C606.43 1601.28 636.34 1605.04 653.17 1600.32C670 1595.6 676.57 1592.56 684.13 1593C691.69 1593.44 702.13 1596.2 705.79 1589.32C709.45 1582.44 710.95 1581.08 708.19 1569.6C705.43 1558.12 659.38 1554.6 659.38 1554.6Z" fill="#240076" stroke="#263238" stroke-width="0.75" stroke-linecap="round" stroke-linejoin="round"/>
<path d="M653.169 1600.44C670.029 1595.88 676.569 1592.68 684.129 1593.12C691.689 1593.56 702.129 1596.32 705.789 1589.44C708.489 1584.52 709.959 1582.4 709.569 1577.44C697.329 1576.08 673.719 1581.24 645.579 1589.44C631.337 1594.06 616.57 1595.07 602.049 1592.4C601.885 1593.11 601.886 1593.88 602.052 1594.59C602.218 1595.3 602.541 1595.93 602.979 1596.4C606.429 1601.36 636.339 1605.04 653.169 1600.44Z" fill="#263238" stroke="#263238" stroke-width="0.75" stroke-linecap="round" stroke-linejoin="round"/>
<path d="M724.359 1584.88C717.472 1594.81 710.127 1604.16 702.369 1612.88C690.999 1625.24 671.409 1642.24 673.479 1649.56C675.549 1656.88 689.619 1663.76 719.199 1653.56C738.13 1646.66 756.037 1635.5 772.149 1620.56C775.453 1619.74 778.402 1617.28 780.399 1613.68C782.829 1608.16 780.069 1599.48 780.069 1599.48L724.359 1584.88Z" fill="#240076" stroke="#263238" stroke-width="0.75" stroke-linecap="round" stroke-linejoin="round"/>
<path d="M719.199 1653.64C738.129 1646.74 756.037 1635.58 772.149 1620.64C775.453 1619.82 778.402 1617.36 780.399 1613.76C781.709 1609.53 781.709 1604.79 780.399 1600.56C737.619 1643.72 697.599 1652.56 676.419 1653.84C681.999 1658.96 695.739 1661.64 719.199 1653.64Z" fill="#263238" stroke="#263238" stroke-width="0.75" stroke-linecap="round" stroke-linejoin="round"/>
<path d="M672.999 1050.72C672.999 1050.72 654.789 1053.96 641.709 1047.52C628.629 1041.08 616.269 1036.08 616.269 1036.08C616.269 1036.08 609.039 1161.24 616.959 1211.68C624.879 1262.12 645.849 1323.68 646.179 1337.76C646.599 1354.7 648.094 1371.56 650.649 1388.16C653.049 1401 664.749 1500.16 665.439 1511.04C665.898 1516.53 665.898 1522.07 665.439 1527.56C665.439 1527.56 657.189 1531.24 657.189 1534.44V1557.8C663.993 1562.57 671.139 1566.42 678.519 1569.28C691.239 1574.32 709.119 1578.44 709.119 1578.44C710.654 1569.2 711.796 1559.85 712.539 1550.44C712.539 1544.04 709.539 1527.08 709.539 1517.88C709.539 1508.68 711.279 1398.68 711.279 1398.68C711.279 1398.68 728.109 1492.68 728.109 1523.84C728.109 1555 727.779 1565.12 727.779 1565.12C727.779 1565.12 720.219 1561.92 720.219 1568.8C720.219 1575.68 719.859 1592.16 719.859 1592.16C719.859 1592.16 746.679 1601.32 759.399 1606.36C766.983 1609.41 774.999 1610.04 782.799 1608.2C782.799 1608.2 789.669 1573.36 788.979 1561.92C788.289 1550.48 779.709 1540.8 779.709 1534.4C779.709 1528 784.179 1464.72 777.639 1409.68C771.099 1354.64 753.909 1329.44 753.219 1302.4C752.529 1275.36 756.219 1178.16 756.669 1162.4C757.119 1146.64 769.029 1113.8 770.769 1099.12C772.509 1084.44 771.099 1040.92 771.099 1040.92C771.099 1040.92 693.999 1055.76 672.999 1050.72Z" fill="#263238" stroke="#263238" stroke-width="0.75" stroke-linecap="round" stroke-linejoin="round"/>
<path d="M640.119 1113.56L658.689 1129.6" stroke="white" stroke-width="0.75" stroke-linecap="round" stroke-linejoin="round"/>
<path d="M707.14 1384.64C709.72 1393.56 711.31 1398.72 711.31 1398.72" stroke="white" stroke-width="0.75" stroke-linecap="round" stroke-linejoin="round"/>
<path d="M652.51 1125.48C652.51 1125.48 664.87 1222.2 679.66 1282.72C687.25 1313.76 695.38 1343.52 701.5 1365.08" stroke="white" stroke-width="0.75" stroke-linecap="round" stroke-linejoin="round"/>
<path d="M512.89 979.76C513.22 981.12 514.93 1031.12 514.93 1031.12L613.63 1019.12L611.59 954.48L512.89 979.76Z" fill="#263238" stroke="#263238" stroke-width="0.75" stroke-linecap="round" stroke-linejoin="round"/>
<path d="M706.479 717.879C706.479 717.879 684.129 728.399 679.659 735.759C675.189 743.119 648.699 867.319 639.999 903.999C631.299 940.679 628.659 1051.64 628.659 1051.64C633.469 1054.01 638.415 1055.86 643.449 1057.16C648.403 1058.27 653.428 1058.73 658.449 1058.52C658.449 1058.52 687.339 928.759 701.439 884.319C715.539 839.879 739.239 776.119 748.209 751.359C757.179 726.599 765.039 721.999 764.019 710.079C762.999 698.159 758.859 693.559 753.699 692.639C748.539 691.719 706.479 717.879 706.479 717.879Z" fill="white" stroke="#263238" stroke-width="0.75" stroke-linecap="round" stroke-linejoin="round"/>
<path d="M709.269 714.24C709.269 714.24 686.919 724.76 682.449 732.12C677.979 739.48 651.519 863.68 642.999 900.36C634.479 937.04 631.569 1048 631.569 1048C636.379 1050.37 641.325 1052.22 646.359 1053.52C651.315 1054.61 656.338 1055.07 661.359 1054.88C661.359 1054.88 690.249 925.12 704.349 880.64C718.449 836.16 742.179 772.64 751.119 747.68C760.059 722.72 767.949 718.36 766.929 706.44C765.909 694.52 761.769 689.92 756.609 689C751.449 688.08 709.269 714.24 709.269 714.24Z" fill="#240076" stroke="#263238" stroke-width="0.75" stroke-linecap="round" stroke-linejoin="round"/>
<path d="M739.48 729.319C725.464 761.286 713.172 794.544 702.7 828.839C688.6 877.439 677.26 920.839 662.8 985.639C654.109 1025.65 651.197 1067.5 654.22 1108.96C654.22 1108.96 661.09 1124.56 701.68 1126.4C742.27 1128.24 793.15 1110.8 793.15 1110.8C793.15 1110.8 786.25 1055.76 785.56 1023.24C784.87 990.719 804.49 876.519 812.74 846.719C820.99 816.919 838.87 787.119 821.74 758.239C804.61 729.359 763.63 696.799 763.63 696.799C763.63 696.799 743.95 719.239 739.48 729.319Z" fill="#263238" stroke="#263238" stroke-width="0.75" stroke-linecap="round" stroke-linejoin="round"/>
<path d="M693.07 728.879C693.07 728.879 682.42 746.759 672.79 784.879C663.16 822.999 645.28 924.279 637.03 967.359C628.78 1010.44 624.64 1106.28 624.64 1106.28C624.64 1106.28 620.17 1105.84 610.9 1105.84C604.792 1105.6 598.8 1103.56 593.35 1099.88C593.35 1099.88 599.89 1005.88 605.74 961.879C611.59 917.879 628.78 839.439 631.87 808.719C634.96 777.999 635.98 770.239 640.12 766.079C644.26 761.919 676.57 735.839 683.11 729.879C689.65 723.919 693.07 728.879 693.07 728.879Z" fill="#263238" stroke="#263238" stroke-width="0.75" stroke-linecap="round" stroke-linejoin="round"/>
<path d="M774.219 706.879C774.219 706.879 754.629 758.679 749.469 768.319C746.478 773.821 743.829 779.641 741.549 785.719L724.359 794.439L731.229 809.119C731.229 809.119 696.519 891.999 687.579 919.599C678.639 947.199 669.579 976.919 669.579 976.919" stroke="white" stroke-width="0.75" stroke-linecap="round" stroke-linejoin="round"/>
<path d="M632.949 940.279C632.319 949.439 632.199 953.079 632.199 953.079" stroke="white" stroke-width="0.75" stroke-linecap="round" stroke-linejoin="round"/>
<path d="M675.549 744.92L656.289 784.36L660.759 793.52L650.079 810.96C650.079 810.96 638.739 873.76 635.649 907.68C635.049 914.28 634.539 920.04 634.149 925.04" stroke="white" stroke-width="0.75" stroke-linecap="round" stroke-linejoin="round"/>
<path d="M679.33 727.959L675.55 752.239L695.14 734.839L679.33 727.959Z" fill="white" stroke="#263238" stroke-width="0.75" stroke-linecap="round" stroke-linejoin="round"/>
<path d="M695.829 708.719C695.469 710.079 679.329 727.959 679.329 727.959L697.539 738.039L701.319 718.319L695.829 708.719Z" fill="white" stroke="#263238" stroke-width="0.75" stroke-linecap="round" stroke-linejoin="round"/>
<path d="M689.29 525.76C681.528 532.207 675.41 541.633 671.74 552.8C665.56 571.6 660.76 579.4 662.14 585.36C663.13 589.392 663.813 593.546 664.18 597.76C664.18 599.12 649.75 617.48 649.39 622.96C649.03 628.44 658.69 638.56 658.69 638.56C658.69 638.56 659.71 670.2 659.71 672.96C659.71 675.72 660.4 689.92 670.39 693.56C677.184 695.649 684.259 695.498 691 693.12L697.54 738.04C697.54 738.04 743.29 700.44 748.09 697.24C752.89 694.04 758.74 689.92 759.1 684.88C759.46 679.84 756.34 651.84 756.34 651.84C756.34 651.84 780.76 622.04 780.34 587.2C779.92 552.36 766 530.36 740.53 520C715.06 509.64 689.29 525.76 689.29 525.76Z" fill="white" stroke="#263238" stroke-width="0.75" stroke-linecap="round" stroke-linejoin="round"/>
<path d="M780.399 587.2C780.069 552.36 765.969 530.36 740.529 519.8C715.089 509.24 689.289 525.76 689.289 525.76C687.279 527.366 685.39 529.228 683.649 531.32C692.049 529.32 705.879 527.92 715.779 536.32C730.779 549.16 721.269 562 716.109 568.88C710.949 575.76 709.929 578.48 713.709 584.88C717.489 591.28 724.719 591.28 722.979 597.24C721.239 603.2 716.109 611.48 720.249 613.76C724.389 616.04 728.139 611 729.879 604.12C731.619 597.24 740.169 597.24 743.619 611.48C744.869 616.835 744.845 622.574 743.551 627.91C742.256 633.245 739.755 637.916 736.389 641.28C733.619 644.016 730.195 645.31 726.759 644.92C732.667 648.92 738.897 652.006 745.329 654.12C749.062 654.536 752.821 654.144 756.459 652.96C756.459 652.24 756.459 651.8 756.459 651.8C756.459 651.8 780.759 622.04 780.399 587.2Z" fill="#263238" stroke="#263238" stroke-width="0.75" stroke-linecap="round" stroke-linejoin="round"/>
<path d="M680.349 605.08C680.349 608.64 679.509 611.52 678.459 611.52C677.409 611.52 676.569 608.64 676.569 605.08C676.569 601.52 677.409 598.68 678.459 598.68C679.509 598.68 680.349 601.56 680.349 605.08Z" fill="black"/>
<path d="M671.409 585.839C671.409 585.839 672.789 579.399 680.409 579.879C688.029 580.359 688.329 587.679 688.329 587.679" fill="white"/>
<path d="M671.409 585.839C671.409 585.839 672.789 579.399 680.409 579.879C688.029 580.359 688.329 587.679 688.329 587.679" stroke="#263238" stroke-width="0.75" stroke-linecap="round" stroke-linejoin="round"/>
<path d="M658.689 638.56C660.791 639.572 663.044 639.894 665.259 639.497C667.473 639.1 669.583 637.996 671.409 636.28C676.899 630.32 672.429 625.24 672.429 625.24" fill="white"/>
<path d="M658.689 638.56C660.791 639.572 663.044 639.894 665.259 639.497C667.473 639.1 669.583 637.996 671.409 636.28C676.899 630.32 672.429 625.24 672.429 625.24" stroke="#263238" stroke-width="0.75" stroke-linecap="round" stroke-linejoin="round"/>
<path d="M660.069 645.879C660.069 645.879 678.279 633.879 686.529 633.519C694.779 633.159 703.389 651.999 699.999 667.999C696.609 683.999 692.799 691.999 681.099 698.279C669.399 704.559 658.389 703.319 656.349 692.759C654.309 682.199 663.549 667.119 668.019 664.359C672.489 661.599 675.939 661.159 675.249 666.199C674.559 671.239 672.489 674.879 681.099 672.599C689.709 670.319 694.509 667.119 694.839 654.719C695.169 642.319 691.839 637.759 682.839 639.599C673.839 641.439 660.489 651.039 660.489 651.039L660.069 645.879Z" fill="#263238" stroke="#263238" stroke-width="0.75" stroke-linecap="round" stroke-linejoin="round"/>
<path d="M667.27 655.519C667.27 655.519 681.73 654.599 686.89 646.799L667.27 655.519Z" fill="white"/>
<path d="M667.27 655.519C667.27 655.519 681.73 654.599 686.89 646.799" stroke="#263238" stroke-width="0.75" stroke-linecap="round" stroke-linejoin="round"/>
<path d="M725.41 644.52C725.431 648.284 724.823 652.007 723.63 655.418C722.436 658.83 720.687 661.843 718.51 664.24" fill="white"/>
<path d="M725.41 644.52C725.431 648.284 724.823 652.007 723.63 655.418C722.436 658.83 720.687 661.843 718.51 664.24" stroke="#263238" stroke-width="0.75" stroke-linecap="round" stroke-linejoin="round"/>
<path d="M697.539 738.039L707.529 768.759C707.529 768.759 745.329 731.159 754.629 716.479C763.929 701.799 771.129 694.479 765.969 684.479C760.809 674.479 753.249 682.639 751.869 683.559C750.489 684.479 697.539 738.039 697.539 738.039Z" fill="white" stroke="#263238" stroke-width="0.75" stroke-linecap="round" stroke-linejoin="round"/>
<path d="M621.999 1009C617.717 990.427 614.281 971.526 611.709 952.4C609.639 934.84 608.709 916.96 608.709 916.96C592.098 914.942 575.861 909.208 560.679 900C537.999 885.36 533.169 880 533.169 880C533.169 880 563.769 1012.96 569.979 1040.92C576.189 1068.88 577.539 1074.84 577.539 1074.84C587.352 1081.32 597.746 1086.11 608.469 1089.08C616.984 1091.2 625.61 1092.41 634.269 1092.72L621.999 1009Z" fill="white" stroke="#263238" stroke-width="0.75" stroke-linecap="round" stroke-linejoin="round"/>
<path d="M656.289 1009C649.017 1007.2 641.955 1004.12 635.289 999.84C630.288 995.973 624.831 993.268 619.149 991.84H617.769L621.879 1008.8C616.805 1010.3 611.626 1011.07 606.429 1011.12C598.179 1011.12 580.959 1007.44 580.299 1008.8C579.661 1012.09 579.428 1015.49 579.609 1018.88C579.609 1022.12 591.969 1041.84 599.199 1048.72C606.429 1055.6 612.939 1060.16 619.479 1060.16C626.019 1060.16 661.089 1053.76 661.089 1053.76L656.289 1009Z" fill="white" stroke="#263238" stroke-width="0.75" stroke-linecap="round" stroke-linejoin="round"/>
<path d="M756.34 830.199C756.34 830.199 758.05 881.559 759.1 918.679C760.15 955.799 761.86 959.039 761.86 959.039C761.86 959.039 684.82 997.559 673.12 1000.76C661.42 1003.96 652.51 1007.64 652.51 1007.64L657.67 1057.6C682.879 1060.44 708.266 1057.34 732.67 1048.44C770.17 1033.76 827.92 1019.08 828.97 1012.24C830.02 1005.4 828.97 984.719 828.97 980.239C828.97 975.759 827.92 877.079 827.92 833.079C827.92 789.079 830.32 778.959 826.21 769.799C822.1 760.639 801.1 756.039 789.07 765.199" fill="#263238"/>
<path d="M756.34 830.199C756.34 830.199 758.05 881.559 759.1 918.679C760.15 955.799 761.86 959.039 761.86 959.039C761.86 959.039 684.82 997.559 673.12 1000.76C661.42 1003.96 652.51 1007.64 652.51 1007.64L657.67 1057.6C682.879 1060.44 708.266 1057.34 732.67 1048.44C770.17 1033.76 827.92 1019.08 828.97 1012.24C830.02 1005.4 828.97 984.719 828.97 980.239C828.97 975.759 827.92 877.079 827.92 833.079C827.92 789.079 830.32 778.959 826.21 769.799C822.1 760.639 801.1 756.039 789.07 765.199" stroke="#263238" stroke-width="0.75" stroke-linecap="round" stroke-linejoin="round"/>
<path d="M698.169 988.519L761.859 959.039L756.219 845.879" stroke="white" stroke-width="0.75" stroke-linecap="round" stroke-linejoin="round"/>
<path d="M680.289 996.799L689.499 992.559" stroke="white" stroke-width="0.75" stroke-linecap="round" stroke-linejoin="round"/>
<path d="M778.299 788.839C778.299 788.839 802.299 748.839 826.149 769.679" stroke="white" stroke-width="0.75" stroke-linecap="round" stroke-linejoin="round"/>
<path d="M580.959 1013.6C580.959 1013.6 596.799 1027.8 607.449 1030.12" stroke="#263238" stroke-width="0.75" stroke-linecap="round" stroke-linejoin="round"/>
<path d="M583.72 1027.36C588.387 1032.84 593.738 1037.18 599.53 1040.2L606.76 1042.92" stroke="#263238" stroke-width="0.75" stroke-linecap="round" stroke-linejoin="round"/>
<path d="M600.999 1050.28C605.092 1052.28 609.372 1053.52 613.719 1053.96" stroke="#263238" stroke-width="0.75" stroke-linecap="round" stroke-linejoin="round"/>
<path d="M308.978 878.599C308.978 878.599 304.238 813.999 298.658 768.479C295.658 743.319 284.228 721.879 272.288 702.679C262.418 686.679 247.508 672.039 239.288 655.039C236.438 649.199 221.498 691.439 221.468 691.479C218.468 700.479 254.018 728.999 258.818 735.479C265.118 743.879 270.818 753.799 276.548 762.839C279.158 766.839 286.028 782.079 289.958 783.359L296.318 785.479L291.548 804.559L308.978 878.599Z" fill="#240076" stroke="#263238" stroke-width="0.75" stroke-linecap="round" stroke-linejoin="round"/>
</svg>
