<svg width="877" height="1300" viewBox="0 0 877 1300" fill="none" xmlns="http://www.w3.org/2000/svg">
<path d="M133.66 1095.51C202.376 1095.51 258.08 1053.7 258.08 1002.12C258.08 950.54 202.376 908.727 133.66 908.727C64.945 908.727 9.24023 950.54 9.24023 1002.12C9.24023 1053.7 64.945 1095.51 133.66 1095.51Z" fill="#E0E0E0"/>
<path d="M539.64 1148.32C535.072 1148.39 530.568 1146.93 526.56 1144.08L192.88 893.621C190.413 892.082 188.331 889.667 186.874 886.657C185.417 883.646 184.644 880.161 184.644 876.604C184.644 873.047 185.417 869.562 186.874 866.551C188.331 863.541 190.413 861.126 192.88 859.587L394.22 708.475C398.247 705.676 402.743 704.211 407.31 704.211C411.877 704.211 416.373 705.676 420.4 708.475L754.08 958.907C759.32 962.833 765.9 966.577 765.9 975.937C765.9 985.297 759.32 988.937 754.08 992.941L552.74 1144C548.731 1146.88 544.219 1148.36 539.64 1148.32Z" fill="#E0E0E0"/>
<path d="M535.179 1122.91L201.499 872.456C199.082 870.408 197.071 867.648 195.629 864.4C194.187 861.152 193.354 857.507 193.199 853.762V796.9C193.354 793.155 194.187 789.51 195.629 786.262C197.071 783.014 199.082 780.254 201.499 778.206L402.839 627.094C405.409 625.389 408.254 624.5 411.139 624.5C414.025 624.5 416.869 625.389 419.439 627.094L753.119 877.526C755.536 879.574 757.547 882.334 758.99 885.582C760.432 888.83 761.264 892.475 761.419 896.22V953.082C761.264 956.827 760.432 960.472 758.99 963.72C757.547 966.968 755.536 969.728 753.119 971.776L551.779 1122.91C549.206 1124.61 546.363 1125.49 543.479 1125.49C540.595 1125.49 537.752 1124.61 535.179 1122.91Z" fill="#240076"/>
<path opacity="0.2" d="M761.419 896.221V953.108C761.263 956.85 760.43 960.49 758.988 963.734C757.545 966.977 755.535 969.733 753.12 971.777L551.78 1122.89C549.23 1124.67 546.372 1125.56 543.479 1125.49V1043.69C546.371 1043.76 549.227 1042.86 551.78 1041.09L753.12 889.98C757.42 886.756 757.7 881.687 753.96 878.229C756.145 880.329 757.947 883.03 759.237 886.14C760.526 889.251 761.272 892.693 761.419 896.221Z" fill="black"/>
<path opacity="0.1" d="M543.479 1043.69V1125.49C540.587 1125.56 537.728 1124.67 535.179 1122.89L201.499 872.456C199.082 870.416 197.069 867.661 195.627 864.416C194.184 861.172 193.353 857.53 193.199 853.788V796.874C193.354 793.352 194.103 789.917 195.392 786.812C196.681 783.708 198.479 781.009 200.659 778.908C196.939 782.366 197.239 787.436 201.499 790.66L535.199 1041.12C537.747 1042.87 540.596 1043.76 543.479 1043.69Z" fill="black"/>
<path d="M753.12 889.98L551.78 1041.12C549.207 1042.81 546.363 1043.69 543.479 1043.69C540.596 1043.69 537.752 1042.81 535.179 1041.12L201.499 790.66C196.919 787.228 196.919 781.638 201.499 778.206L402.84 627.094C405.41 625.389 408.254 624.5 411.139 624.5C414.025 624.5 416.869 625.389 419.439 627.094L753.12 877.526C757.7 880.958 757.7 886.6 753.12 889.98Z" fill="#240076"/>
<path d="M323.14 883.559C318.76 880.257 314.68 880.127 311.36 882.649C310.24 883.481 305.58 886.913 304.38 887.849C300.76 890.761 298.1 896.897 297.06 905.633C295.875 903.277 294.449 901.143 292.82 899.289L294.02 898.405C296.42 896.585 297.56 892.009 297.56 885.847C297.56 870.819 292.2 861.719 285.4 856.623L273.16 847.601L267.42 851.891V843.285L258.42 836.551L251.7 841.595V859.795L242.64 824.643L233.64 817.909L227 822.849V831.377C223.56 816.687 217.2 803.973 209.9 798.487C208.218 796.98 206.255 796.091 204.217 795.912C202.179 795.734 200.142 796.273 198.32 797.473L198.06 797.655L191.48 802.569C188.06 804.753 183.26 812.631 183.26 829.557C183.26 852.619 191.5 876.695 203.26 885.457C207.8 888.863 211.86 889.045 215.12 886.575C216.24 885.717 220.6 882.441 221.68 881.661C224.104 879.747 225.995 876.878 227.08 873.471V901.915L236.08 908.649L242.8 903.605V885.405L251.7 920.401L260.7 927.135L266.44 922.845V931.451L281.42 942.683C285.1 945.465 288.08 945.881 290.24 944.295C291.42 943.463 295.96 940.005 297.08 939.095C297.876 938.514 298.56 937.705 299.08 936.729C302.34 951.575 308.64 964.445 316.5 970.373C320.88 973.649 324.82 973.909 328.02 971.725C329.28 970.867 333.82 967.331 334.9 966.525C339.92 962.963 343.08 953.239 343.08 939.173C343 916.267 334.1 891.801 323.14 883.559ZM211.8 864.059C211.104 863.78 210.434 863.405 209.8 862.941C202.44 857.403 199.62 843.519 199.62 831.741C199.532 827.664 200.048 823.604 201.14 819.781C201.84 820.031 202.512 820.398 203.14 820.873C210.12 826.073 213.28 840.269 213.28 852.073C213.354 856.152 212.852 860.215 211.8 864.059ZM282.16 919.335V911.899C283.831 914.57 284.761 917.895 284.8 921.337L282.16 919.335ZM325.12 949.131C324.421 948.853 323.749 948.469 323.12 947.987C315.76 942.475 312.94 928.565 312.94 916.787C312.852 912.71 313.368 908.65 314.46 904.827C315.154 905.101 315.824 905.466 316.46 905.919C323.46 911.119 326.6 925.315 326.6 937.119C326.674 941.207 326.172 945.278 325.12 949.131Z" fill="#240076"/>
<path d="M528.5 1073.8L535.06 1068.96L541 1060.54C537.56 1049.62 532.74 1040.81 525.8 1035.61C521.66 1032.51 517.94 1032.28 514.9 1034.36C513.64 1035.24 508.9 1038.8 507.78 1039.69C505.457 1041.65 503.649 1044.49 502.6 1047.83V1019.64L493.6 1012.88L486.88 1017.93V1036.13L477.76 1001L468.76 994.267L463 998.608V989.977L454.02 983.243L447.3 988.261V997.335C443.8 982.957 437.3 970.736 430.14 965.303L418.7 956.723L412 961.767V1018.81L403.8 992.967L407 990.601C409.78 988.573 411.48 983.321 411.48 974.741C411.48 959.141 405.92 947.103 398.6 941.617L384.5 931.035L377.76 936.001V979.213L367 917.801L358.68 911.561L351.96 916.605L335.96 983.658L345.62 990.913L352.34 985.869L353.4 980.929L363.56 988.573L366.48 1006.54L376.14 1013.79L377.68 1012.65V1014.96L386.68 1021.7L393.4 1016.65V1012.93L398.72 1030.74L410.16 1039.32L411.94 1038V1040.6L423.36 1049.2C427.84 1052.56 432.02 1052.87 435.36 1050.48L442.32 1045.28C444.465 1043.52 446.168 1040.98 447.22 1037.97V1067.2L456.2 1073.93L461.94 1069.64V1078.25L470.94 1085.01L477.66 1079.96V1061.76L486.72 1096.89L495.72 1103.65L502.44 1098.6V1090.21C505.8 1104.64 511.9 1117.22 518.92 1122.5C522.92 1125.51 527.14 1126.35 530.52 1123.85C531.66 1123.02 535.96 1119.69 537.04 1118.94C540.26 1116.73 542.8 1111.6 543.86 1102.58V1085.45L528.5 1073.8ZM394.5 973.545L393.46 972.739V964.601C394.712 967.473 395.328 970.739 395.24 974.039V974.273L394.5 973.545ZM427.7 992.108C431.624 999.577 433.715 1008.41 433.7 1017.46C433.784 1021.35 433.218 1025.22 432.04 1028.79C431.027 1028.52 430.054 1028.04 429.16 1027.36L427.78 1026.3L427.7 992.108ZM528.08 1097.49C528.096 1099.04 527.962 1100.58 527.68 1102.09C527.178 1101.87 526.696 1101.58 526.24 1101.23C523.521 1098.8 521.386 1095.42 520.08 1091.48L528.08 1097.49ZM525.72 1071.72L519 1076.84V1088.36C517.176 1082.34 516.227 1075.93 516.2 1069.46C516.087 1065 516.722 1060.57 518.06 1056.46C518.566 1056.67 519.055 1056.94 519.52 1057.26C522.96 1059.86 525.94 1064.8 528.22 1073.62L525.72 1071.72Z" fill="#240076"/>
<path opacity="0.2" d="M316.42 888.603C327.38 896.819 336.28 921.311 336.28 944.373C336.28 958.439 333.12 968.163 328.08 971.725C329.5 970.737 333.78 967.435 334.82 966.681C339.84 963.119 343 953.395 343 939.329C343 916.267 334.1 891.775 323.14 883.559C318.76 880.257 314.68 880.127 311.36 882.649C310.24 883.481 305.58 886.913 304.38 887.849C307.7 885.171 311.9 885.197 316.42 888.603Z" fill="black"/>
<path opacity="0.3" d="M282.16 919.335V911.899C281.015 910.253 279.662 908.872 278.16 907.817L275.34 905.711V924.379L278.16 926.485C282.42 929.683 284.76 928.851 284.76 922.637C284.76 922.169 284.76 921.753 284.76 921.311L282.16 919.335Z" fill="black"/>
<path opacity="0.2" d="M251.619 890.396L251.699 890.474V859.69L242.639 824.564L233.639 817.83L226.939 822.874L235.919 829.608L251.619 890.396Z" fill="black"/>
<path opacity="0.1" d="M235.92 829.608L242.64 824.564L251.7 859.69V890.474L235.92 829.608Z" fill="black"/>
<path opacity="0.3" d="M282.14 886.21C282.164 883.595 281.612 881.025 280.549 878.804C279.486 876.583 277.956 874.805 276.14 873.678L275.42 873.158V890.188L276.14 890.734C280.02 893.646 282.14 892.814 282.14 886.21Z" fill="black"/>
<path opacity="0.2" d="M296.999 905.685C295.833 903.319 294.412 901.182 292.779 899.341L294.019 898.405C296.379 896.585 297.519 892.035 297.519 885.899C297.519 870.871 292.159 861.771 285.359 856.675L273.159 847.601L267.419 851.891V843.285L258.419 836.551L251.699 841.595L260.699 848.329V927.317L266.439 923.027V852.515L278.679 861.719C285.479 866.919 290.839 875.889 290.839 890.943C290.839 898.197 289.259 903.241 285.899 904.177C290.839 909.611 294.319 917.671 294.319 930.411C294.319 937.639 292.859 942.501 290.179 944.399C291.359 943.567 295.899 940.109 297.019 939.199C297.816 938.618 298.5 937.809 299.019 936.833C297.411 929.589 296.583 922.09 296.559 914.551C296.533 911.585 296.68 908.621 296.999 905.685Z" fill="black"/>
<path opacity="0.3" d="M323.139 947.987C315.779 942.475 312.959 928.565 312.959 916.787C312.871 912.71 313.387 908.65 314.479 904.827C314.779 904.957 315.079 905.087 315.399 905.269C309.179 901.707 306.239 910.677 306.239 921.831C306.239 933.609 309.059 947.519 316.419 953.031C320.799 956.307 323.599 954.045 325.119 949.131C324.427 948.851 323.763 948.467 323.139 947.987Z" fill="black"/>
<path opacity="0.2" d="M209.82 798.486C205.52 795.262 201.54 795.08 198.26 797.42L197.88 797.706L191.46 802.49C192.555 801.694 193.756 801.174 195 800.956C197.86 800.63 200.722 801.544 203.14 803.556C214.08 811.798 222.98 836.264 222.98 859.352C222.98 873.288 219.86 882.96 214.98 886.6C216.1 885.742 220.44 882.466 221.52 881.686C223.95 879.774 225.849 876.905 226.94 873.496V831.35C223.48 816.66 217.1 803.946 209.82 798.486Z" fill="black"/>
<path opacity="0.3" d="M199.64 831.74C199.552 827.663 200.068 823.603 201.16 819.78C201.466 819.895 201.767 820.034 202.06 820.196C195.84 816.66 192.92 825.604 192.92 836.784C192.92 848.562 195.74 862.446 203.1 867.984C207.46 871.26 210.26 868.972 211.8 864.058C211.105 863.778 210.434 863.404 209.8 862.94C202.46 857.402 199.64 843.518 199.64 831.74Z" fill="black"/>
<path opacity="0.2" d="M403.82 992.965L407 990.599C409.78 988.571 411.48 983.319 411.48 974.739C411.48 959.139 405.92 947.101 398.6 941.615L384.5 931.033L377.76 935.999L391.88 946.581C399.18 952.067 404.74 964.183 404.74 979.705C404.74 991.561 401.48 997.073 396.74 996.501L410.32 1039.35L412.1 1038.02V1018.73L403.82 992.965Z" fill="black"/>
<path opacity="0.3" d="M518.08 1056.51L518.74 1056.82C513.58 1053.94 509.5 1061.48 509.5 1074.5C509.5 1087.53 514 1102.19 519.5 1106.35C523.02 1108.95 526.5 1107.89 527.66 1102.17C527.159 1101.95 526.676 1101.66 526.22 1101.31C523.501 1098.88 521.366 1095.5 520.06 1091.56L518.98 1090.73V1088.36C517.156 1082.34 516.207 1075.93 516.18 1069.46C516.085 1065.01 516.734 1060.6 518.08 1056.51Z" fill="black"/>
<path opacity="0.2" d="M430.159 965.303L418.719 956.723L412.02 961.767L423.44 970.347C434.26 978.459 443.34 1001.75 443.34 1024.74C443.34 1038.83 439.959 1047.88 434.859 1050.97L435.46 1050.63L442.419 1045.43C444.565 1043.67 446.268 1041.13 447.32 1038.13V997.335C443.82 982.957 437.379 970.737 430.159 965.303Z" fill="black"/>
<path opacity="0.3" d="M427.72 1026.38V992.185C426.32 989.547 424.507 987.323 422.4 985.659L421 984.619V1031.42L422.4 1032.46C426.68 1035.68 430.08 1033.99 431.98 1028.87C430.967 1028.6 429.994 1028.12 429.1 1027.44L427.72 1026.38Z" fill="black"/>
<path opacity="0.3" d="M386.76 1021.8L393.48 1016.76V1013.04L386.76 990.6V1021.8Z" fill="black"/>
<path opacity="0.2" d="M471.039 1006.07L486.719 1066.88L486.819 1066.96V1036.18L477.759 1001.03L468.759 994.292L463.019 998.608V989.976L454.039 983.242L447.319 988.286L456.299 995.02V1074.01L462.039 1069.72V999.336L471.039 1006.07Z" fill="black"/>
<path opacity="0.3" d="M348.619 977.393L345.699 990.991L352.419 985.973L353.479 981.033L348.619 977.393Z" fill="black"/>
<path opacity="0.3" d="M356.08 944.217L351.68 963.899L360.58 970.581L356.18 944.295L356.08 944.217Z" fill="black"/>
<path opacity="0.3" d="M471.04 1036.05V1085.06V1085.08L477.76 1080.04V1061.79L471.14 1036.13L471.04 1036.05Z" fill="black"/>
<path opacity="0.2" d="M502.539 1047.8V1019.64L493.539 1012.88L486.819 1017.93L495.819 1024.69V1103.67L502.539 1098.63V1090.23C500.766 1082.77 499.843 1075.01 499.799 1067.2C499.638 1060.55 500.572 1053.94 502.539 1047.8Z" fill="black"/>
<path opacity="0.2" d="M367.019 917.93L358.679 911.664L351.979 916.708L360.299 922.948L376.219 1013.9L377.759 1012.75V979.29L367.019 917.93Z" fill="black"/>
<path opacity="0.3" d="M393.48 972.816V964.6C392.052 961.83 390.094 959.59 387.8 958.1L386.76 957.32V978.12L387.8 978.9C391.16 981.5 395.18 984.1 395.26 974.402L394.52 973.882L393.48 972.816Z" fill="black"/>
<path opacity="0.2" d="M528.5 1073.8L535.06 1068.96L541 1060.54C537.56 1049.62 532.74 1040.81 525.8 1035.61C521.66 1032.51 517.94 1032.28 514.9 1034.36C513.76 1035.16 509.76 1038.18 508.18 1039.38C511.24 1037.3 514.94 1037.56 519.08 1040.65C526.02 1045.85 530.84 1054.66 534.28 1065.56L528.4 1074.09C528.357 1073.95 528.324 1073.81 528.3 1073.67L525.8 1071.8L519 1076.84L537.22 1090.52V1107.6C536.18 1116.54 533.66 1121.67 530.48 1123.9H530.6C531.74 1123.07 536.04 1119.74 537.12 1118.99C540.34 1116.78 542.88 1111.66 543.94 1102.63V1085.5L528.5 1073.8Z" fill="black"/>
<path opacity="0.1" d="M227 873.418V831.35C226.56 829.426 226.04 827.528 225.5 825.682L218.78 830.674C221.524 839.791 222.968 849.483 223.04 859.274C223.04 873.21 219.92 882.882 215.04 886.522C216.16 885.664 220.52 882.388 221.6 881.608C224.024 879.693 225.916 876.824 227 873.418Z" fill="black"/>
<path opacity="0.1" d="M260.699 848.198L267.419 843.154V851.76L266.439 852.514V922.87L260.699 927.186V848.198Z" fill="black"/>
<path opacity="0.1" d="M360.3 922.948L367.02 917.93L377.76 979.29V1012.75L376.22 1013.9L360.3 922.948Z" fill="black"/>
<path opacity="0.1" d="M403.819 992.967L400.399 995.567C399.296 996.507 397.962 996.877 396.659 996.607L410.239 1039.45L412.019 1038.13V1018.84L403.819 992.967Z" fill="black"/>
<path opacity="0.1" d="M463.02 989.977L456.3 995.021V1074.01L462.04 1069.72V999.336L463.02 998.609V989.977Z" fill="black"/>
<path opacity="0.1" d="M471.04 1006.07L477.76 1001.03L486.82 1036.18V1066.96L471.04 1006.07Z" fill="black"/>
<path opacity="0.1" d="M534.22 1065.56L540.94 1060.51L535.06 1069.04L528.34 1074.09L534.22 1065.56Z" fill="black"/>
<path opacity="0.1" d="M537.24 1107.6C536.2 1116.54 533.68 1121.67 530.5 1123.9H530.62C531.76 1123.07 536.06 1119.74 537.14 1118.99C540.36 1116.78 542.9 1111.66 543.96 1102.63V1085.5L537.24 1090.54V1107.6Z" fill="black"/>
<path opacity="0.1" d="M443.339 1024.74C443.339 1038.83 439.959 1047.88 434.859 1050.97L435.459 1050.63L442.419 1045.43C444.565 1043.67 446.268 1041.13 447.319 1038.13V997.334C446.939 995.8 446.539 994.292 446.099 992.836L439.379 997.854C441.94 1006.43 443.281 1015.54 443.339 1024.74Z" fill="black"/>
<path opacity="0.1" d="M343 939.329C342.914 929.918 341.56 920.599 339 911.795L332.28 916.839C334.84 925.643 336.194 934.962 336.28 944.373C336.28 958.439 333.12 968.163 328.08 971.725C329.5 970.737 333.78 967.435 334.82 966.681C339.84 963.119 343 953.395 343 939.329Z" fill="black"/>
<path opacity="0.1" d="M294.32 930.41C294.32 937.638 292.86 942.5 290.18 944.398C291.36 943.566 295.9 940.108 297.02 939.198C297.816 938.617 298.5 937.808 299.02 936.832C297.411 929.588 296.584 922.089 296.56 914.55C296.554 911.582 296.721 908.618 297.06 905.684C295.894 903.318 294.473 901.182 292.84 899.34L287.42 903.422H287.22C287.133 903.498 287.039 903.559 286.94 903.604C286.621 903.828 286.277 903.986 285.92 904.072C290.84 909.61 294.32 917.8 294.32 930.41Z" fill="black"/>
<path opacity="0.3" d="M235.92 859.586V908.596L242.64 903.552V885.326L236.02 859.638L235.92 859.586Z" fill="black"/>
<path opacity="0.1" d="M495.819 1024.69V1103.67L502.539 1098.63V1090.23C500.766 1082.77 499.843 1075.01 499.799 1067.2C499.64 1060.56 500.575 1053.96 502.539 1047.83V1019.64L495.819 1024.69Z" fill="black"/>
<path d="M203.1 803.531C214.06 811.773 222.96 836.239 222.96 859.327C222.96 882.415 214.44 893.907 203.1 885.327C191.44 876.565 183.1 852.489 183.1 829.427C183.1 806.365 192.24 795.393 203.1 803.531ZM203.1 867.985C210.28 873.367 213.24 863.825 213.24 852.047C213.24 840.269 210.08 826.047 203.1 820.847C196.12 815.647 192.92 824.981 192.92 836.759C192.92 848.537 195.74 862.447 203.1 867.985Z" fill="#240076"/>
<path d="M235.92 908.596L226.92 901.862V822.848L235.92 829.608L251.6 890.396V841.464L260.6 848.198V927.186L251.6 920.452L235.92 859.638V908.596Z" fill="#240076"/>
<path d="M278.679 861.718C285.479 866.918 290.839 875.888 290.839 890.942C290.839 898.196 289.259 903.24 285.899 904.176C290.839 909.61 294.319 917.67 294.319 930.41C294.319 943.15 289.599 948.896 281.419 942.734L266.439 931.502V852.514L278.679 861.718ZM276.159 890.734C280.019 893.646 282.159 892.814 282.159 886.21C282.184 883.594 281.632 881.024 280.569 878.804C279.505 876.583 277.975 874.804 276.159 873.678L275.439 873.158V890.188L276.159 890.734ZM278.159 926.484C282.419 929.682 284.759 928.85 284.759 922.636C284.891 919.598 284.336 916.576 283.164 913.943C281.991 911.31 280.251 909.18 278.159 907.816L275.339 905.71V924.378L278.159 926.484Z" fill="#240076"/>
<path d="M316.42 888.601C327.38 896.817 336.28 921.309 336.28 944.371C336.28 967.433 327.76 978.977 316.42 970.371C304.76 961.635 296.54 937.533 296.54 914.471C296.54 891.409 305.58 880.437 316.42 888.601ZM316.42 953.029C323.6 958.411 326.56 948.869 326.56 937.091C326.56 925.313 323.42 911.091 316.42 905.891C309.42 900.691 306.24 910.025 306.24 921.803C306.24 933.581 309 947.517 316.42 953.029Z" fill="#240076"/>
<path d="M376.22 1014L366.56 1006.75L363.64 988.78L348.62 977.496L345.7 991.121L336.04 983.867L352.04 916.812L360.36 923.052L376.22 1014ZM356.22 944.399H356.12L351.72 964.08L360.62 970.763L356.22 944.399Z" fill="#240076"/>
<path d="M391.88 946.66C399.18 952.146 404.74 964.262 404.74 979.784C404.74 991.64 401.48 997.152 396.74 996.58L410.32 1039.43L398.88 1030.85L386.88 990.6V1021.8L377.88 1015.07V936L391.88 946.66ZM387.88 978.64C391.28 981.24 395.34 983.84 395.34 973.908C395.34 963.976 391.34 960.518 387.88 957.97L386.84 957.19V977.99L387.88 978.64Z" fill="#240076"/>
<path d="M423.44 970.346C434.26 978.458 443.34 1001.75 443.34 1024.74C443.34 1047.72 434.3 1057.5 423.44 1049.33L412.02 1040.75V961.766L423.44 970.346ZM422.4 1032.46C429.04 1037.45 433.58 1030.72 433.64 1017.54C433.7 1004.35 429 990.6 422.4 985.66L421 984.62V1031.42L422.4 1032.46Z" fill="#240076"/>
<path d="M456.299 1074.01L447.319 1067.27V988.26L456.299 995.02V1074.01Z" fill="#240076"/>
<path d="M471 1085.08L462 1078.32V999.336L471 1006.2L486.68 1067.01H486.78V1017.93L495.78 1024.69V1103.67L486.78 1096.91L471.1 1036.13H471V1085.08Z" fill="#240076"/>
<path d="M537.24 1107.6C535.08 1126.01 526.76 1128.4 519.02 1122.47C508.4 1114.49 499.8 1089.74 499.8 1067.14C499.8 1044.55 507.92 1032.28 519.02 1040.6C525.96 1045.8 530.78 1054.61 534.22 1065.51L528.34 1074.03C526.04 1064.93 523.04 1059.89 519.54 1057.26C514 1053.1 509.54 1060.75 509.54 1074.45C509.54 1088.15 514.04 1102.14 519.54 1106.3C523.86 1109.52 528.1 1107.16 528.1 1097.49L519 1090.73V1076.84L537.22 1090.52L537.24 1107.6Z" fill="#240076"/>
<path opacity="0.1" d="M360.3 857.091C412.679 857.091 455.14 825.219 455.14 785.903C455.14 746.587 412.679 714.715 360.3 714.715C307.921 714.715 265.46 746.587 265.46 785.903C265.46 825.219 307.921 857.091 360.3 857.091Z" fill="black"/>
<path opacity="0.1" d="M537.22 993.356C596.082 993.356 643.8 957.538 643.8 913.354C643.8 869.17 596.082 833.352 537.22 833.352C478.357 833.352 430.64 869.17 430.64 913.354C430.64 957.538 478.357 993.356 537.22 993.356Z" fill="black"/>
<path d="M183.92 64.6095L255 117.754C255.827 118.454 256.515 119.399 257.008 120.51C257.502 121.621 257.787 122.868 257.84 124.15V250.327C257.786 251.605 257.499 252.846 257.001 253.95C256.504 255.053 255.811 255.986 254.98 256.672L244.84 264.082C243.954 264.652 242.979 264.949 241.99 264.949C241.002 264.949 240.026 264.652 239.14 264.082L168.08 210.886C167.25 210.189 166.56 209.246 166.066 208.134C165.572 207.021 165.289 205.772 165.24 204.49V78.3115C165.294 77.0373 165.579 75.7978 166.072 74.6949C166.566 73.5919 167.254 72.6572 168.08 71.9675L178.24 64.5575C179.124 63.9894 180.099 63.6982 181.085 63.7072C182.071 63.7163 183.042 64.0253 183.92 64.6095Z" fill="#240076"/>
<path d="M241.88 261.898V135.72C241.824 134.437 241.534 133.19 241.033 132.082C240.532 130.975 239.835 130.038 239 129.35L168.08 76.18C166.5 75.01 165.24 75.972 165.24 78.312V204.49C165.289 205.773 165.572 207.022 166.066 208.134C166.56 209.246 167.25 210.19 168.08 210.886L239 264.03C240.62 265.2 241.88 264.264 241.88 261.898Z" fill="#240076"/>
<path opacity="0.2" d="M239 264.029C239.887 264.594 240.862 264.887 241.85 264.887C242.838 264.887 243.813 264.594 244.7 264.029L254.84 256.619C255.671 255.934 256.364 255.001 256.861 253.897C257.359 252.794 257.646 251.552 257.7 250.275V124.123C257.65 122.796 257.34 121.507 256.8 120.379L241 132.105C241.516 133.195 241.806 134.44 241.84 135.719V261.897C241.88 264.055 240.72 265.199 239 264.029Z" fill="black"/>
<path opacity="0.4" d="M165.28 77.6353C165.5 75.7893 166.66 75.0353 168.08 76.1793L239 129.349C239.84 130.026 240.529 130.976 241 132.105L256.82 120.379C256.33 119.31 255.643 118.416 254.82 117.779L183.92 64.5833C183.039 64.0071 182.067 63.707 181.08 63.707C180.094 63.707 179.121 64.0071 178.24 64.5833L168.08 71.9933C167.331 72.6194 166.693 73.4468 166.21 74.42C165.727 75.3932 165.41 76.4895 165.28 77.6353Z" fill="white"/>
<path d="M265.5 217.723C267.28 216.345 280.62 206.569 281.06 206.257C281.386 205.991 281.663 205.636 281.872 205.216C282.081 204.796 282.217 204.322 282.27 203.826C282.324 203.331 282.293 202.826 282.181 202.348C282.068 201.87 281.877 201.429 281.62 201.057L257.5 161.875L241.88 173.393L266 212.549C266.247 212.921 266.431 213.356 266.541 213.827C266.65 214.298 266.682 214.793 266.635 215.281C266.588 215.768 266.463 216.238 266.267 216.659C266.072 217.079 265.81 217.442 265.5 217.723Z" fill="#240076"/>
<path opacity="0.4" d="M265.5 217.723C267.28 216.345 280.62 206.569 281.06 206.257C281.386 205.991 281.663 205.636 281.872 205.216C282.081 204.796 282.217 204.322 282.27 203.826C282.324 203.331 282.293 202.826 282.181 202.348C282.068 201.87 281.877 201.429 281.62 201.057L257.5 161.875L241.88 173.393L266 212.549C266.247 212.921 266.431 213.356 266.541 213.827C266.65 214.298 266.682 214.793 266.635 215.281C266.588 215.768 266.463 216.238 266.267 216.659C266.072 217.079 265.81 217.442 265.5 217.723Z" fill="white"/>
<path d="M241.88 173.42L266 212.42C266.348 212.867 266.589 213.436 266.694 214.057C266.799 214.678 266.764 215.326 266.593 215.922C266.422 216.518 266.122 217.037 265.729 217.416C265.337 217.796 264.868 218.02 264.38 218.062L241.88 221.234V173.42Z" fill="#240076"/>
<path d="M196.46 149.734C196.46 142.454 199.42 138.762 203.06 141.492C206.7 144.222 209.64 152.334 209.64 159.692C209.64 167.05 206.7 170.664 203.06 167.934C199.42 165.204 196.46 157.014 196.46 149.734Z" fill="#FAFAFA"/>
<path d="M211 214.395L195 202.383C193.766 201.09 192.794 199.423 192.17 197.529C191.546 195.634 191.288 193.569 191.42 191.515L192.18 180.283C192.72 172.171 196.36 168.505 200.66 171.729L205.34 175.239C209.64 178.489 213.34 187.589 213.82 196.533L214.58 208.909C215 213.433 213.24 216.033 211 214.395Z" fill="#FAFAFA"/>
<path d="M213.601 148.641C213.601 140.633 216.841 136.577 220.841 139.593C224.841 142.609 228.081 151.527 228.081 159.509C228.081 167.491 224.841 171.573 220.841 168.583C216.841 165.593 213.601 156.649 213.601 148.641Z" fill="#FAFAFA"/>
<path d="M229.18 219.335L218.6 211.379L217.84 199.055C217.281 190.003 214.695 181.362 210.4 174.199C210.785 173.428 211.288 172.769 211.877 172.262C212.466 171.754 213.128 171.409 213.824 171.248C214.52 171.087 215.233 171.114 215.921 171.326C216.608 171.539 217.255 171.932 217.82 172.483L223 176.357C227.72 179.919 231.7 189.903 232.3 199.757L233.14 213.329C233.44 218.399 231.58 221.129 229.18 219.335Z" fill="#FAFAFA"/>
<path d="M193.54 136.499C193.54 128.881 190.46 120.405 186.66 117.571C182.86 114.737 179.78 118.559 179.78 126.177C179.78 133.795 182.86 142.245 186.66 145.105C190.46 147.965 193.54 144.117 193.54 136.499Z" fill="#FAFAFA"/>
<path d="M196.58 165.386C192.84 165.594 190.04 170.352 189.5 178.386L188.78 188.994L178.78 181.454C177.47 180.115 176.438 178.373 175.778 176.384C175.118 174.395 174.851 172.223 175 170.066L175.8 158.392C176.36 149.89 180.16 146.094 184.64 149.448L189.54 153.14C192.846 156.122 195.317 160.42 196.58 165.386Z" fill="#FAFAFA"/>
<path d="M683.86 295.933V259.195L660 256.595C659.654 256.541 659.304 256.632 659 256.855C658.08 257.505 638.86 271.883 638.56 272.117C638.337 272.29 638.147 272.526 638.004 272.807C637.86 273.088 637.767 273.407 637.73 273.741C637.694 274.075 637.715 274.416 637.793 274.737C637.871 275.059 638.003 275.354 638.18 275.601L663.46 311.273L683.86 295.933Z" fill="#240076"/>
<path d="M663.46 311.169L638.18 275.601C637.94 275.267 637.784 274.846 637.732 274.394C637.68 273.942 637.734 273.481 637.888 273.07C638.042 272.659 638.288 272.318 638.593 272.092C638.899 271.867 639.25 271.766 639.6 271.805L663.46 274.405V311.169Z" fill="#240076"/>
<path d="M683.84 259.195L663.46 274.431L639.6 271.831C639.321 271.8 639.041 271.853 638.78 271.986C640.68 270.53 658.14 257.479 659 256.881C659.304 256.658 659.654 256.567 660 256.62L683.84 259.195Z" fill="#240076"/>
<path opacity="0.5" d="M683.84 259.195L663.46 274.431L639.6 271.831C639.321 271.8 639.041 271.853 638.78 271.986C640.68 270.53 658.14 257.479 659 256.881C659.304 256.658 659.654 256.567 660 256.62L683.84 259.195Z" fill="white"/>
<path d="M681.86 209.819L752.84 262.963C753.664 263.669 754.349 264.614 754.842 265.725C755.335 266.835 755.622 268.079 755.68 269.359V395.537C755.63 396.815 755.343 398.059 754.846 399.163C754.348 400.267 753.653 401.199 752.82 401.881L742.66 409.291C741.778 409.861 740.806 410.158 739.82 410.158C738.835 410.158 737.863 409.861 736.98 409.291L666 356.199C665.176 355.501 664.49 354.561 663.996 353.454C663.503 352.348 663.217 351.106 663.16 349.829V223.599C663.216 222.323 663.504 221.082 664.001 219.979C664.499 218.875 665.191 217.942 666.02 217.255L676.18 209.871C677.058 209.287 678.029 208.978 679.015 208.969C680.002 208.96 680.976 209.251 681.86 209.819Z" fill="#240076"/>
<path d="M739.82 407.135V280.931C739.766 279.657 739.482 278.416 738.993 277.31C738.503 276.204 737.821 275.262 737 274.561L666 221.391C664.44 220.221 663.16 221.183 663.16 223.523V349.727C663.204 351.022 663.485 352.284 663.979 353.41C664.473 354.536 665.166 355.492 666 356.201L737 409.267C738.54 410.437 739.82 409.475 739.82 407.135Z" fill="#240076"/>
<path opacity="0.2" d="M737 409.266C737.885 409.825 738.856 410.115 739.84 410.115C740.824 410.115 741.795 409.825 742.68 409.266L752.84 401.856C753.667 401.172 754.357 400.242 754.854 399.144C755.352 398.046 755.641 396.81 755.7 395.538V269.36C755.657 268.019 755.339 266.718 754.78 265.59L739 277.316C739.516 278.406 739.806 279.651 739.84 280.93V407.108C739.82 409.266 738.64 410.514 737 409.266Z" fill="black"/>
<path opacity="0.4" d="M663.2 222.872C663.42 221 664.6 220.272 666 221.39L737 274.56C737.831 275.251 738.518 276.198 739 277.316L754.8 265.59C754.311 264.52 753.624 263.626 752.8 262.99L681.86 209.82C680.978 209.25 680.006 208.953 679.02 208.953C678.035 208.953 677.063 209.25 676.18 209.82L666.02 217.23C665.27 217.857 664.63 218.685 664.144 219.657C663.658 220.63 663.336 221.726 663.2 222.872Z" fill="white"/>
<path d="M672.42 304.747L675.4 317.747C675.513 318.11 675.692 318.433 675.922 318.687C676.151 318.94 676.425 319.117 676.72 319.203L682.6 321.049C683.221 321.262 683.757 321.773 684.1 322.479C685.033 324.949 686.088 327.337 687.26 329.629C687.568 330.223 687.69 330.949 687.6 331.657L685.7 340.055C685.661 340.41 685.688 340.772 685.779 341.111C685.869 341.45 686.02 341.757 686.22 342.005L693.1 351.469C693.21 351.667 693.368 351.813 693.549 351.884C693.73 351.954 693.923 351.945 694.1 351.859C694.156 351.812 694.204 351.75 694.24 351.677L697.46 345.307C697.68 344.839 698.26 344.891 698.78 345.307C699.3 345.723 700.06 346.373 700.68 346.841C701.3 347.309 702 347.803 702.68 348.219C703.273 348.577 703.758 349.18 704.06 349.935L707.44 361.765C707.575 362.1 707.772 362.386 708.013 362.599C708.253 362.812 708.53 362.945 708.82 362.987L715.08 363.793C715.266 363.89 715.474 363.89 715.66 363.793C715.764 363.713 715.846 363.591 715.893 363.446C715.94 363.301 715.949 363.14 715.92 362.987L713.92 351.339C713.878 351.034 713.922 350.719 714.043 350.452C714.164 350.185 714.354 349.983 714.58 349.883C715.567 349.384 716.485 348.682 717.3 347.803C717.527 347.646 717.787 347.591 718.041 347.648C718.294 347.704 718.526 347.868 718.7 348.115L725.1 355.707C725.284 355.96 725.533 356.117 725.8 356.149H726.04C726.108 356.09 726.163 356.009 726.2 355.915L729.06 347.725C729.123 347.388 729.122 347.036 729.055 346.701C728.989 346.365 728.86 346.056 728.68 345.801L722.68 336.337C722.307 335.762 722.101 335.035 722.1 334.283C722.25 332.051 722.25 329.806 722.1 327.575C722.097 327.421 722.118 327.269 722.163 327.126C722.207 326.984 722.274 326.855 722.358 326.748C722.443 326.641 722.543 326.557 722.654 326.503C722.764 326.448 722.882 326.424 723 326.431L728.38 326.041C728.92 326.041 729.26 325.469 729.1 324.871L726.14 311.871C726.024 311.512 725.844 311.195 725.614 310.946C725.385 310.697 725.112 310.524 724.82 310.441L718.94 308.595C718.316 308.373 717.78 307.853 717.44 307.139C716.507 304.677 715.451 302.297 714.28 300.015C713.975 299.418 713.854 298.694 713.94 297.987L715.94 289.563C715.96 289.203 715.923 288.841 715.83 288.501C715.737 288.161 715.59 287.849 715.4 287.587L708.52 278.149C708.12 277.603 707.6 277.499 707.36 277.967L704.16 284.311C703.94 284.779 703.36 284.727 702.82 284.311C701.594 283.203 700.303 282.221 698.96 281.373C698.362 281.023 697.875 280.417 697.58 279.657L694.2 267.827C694.064 267.492 693.867 267.205 693.627 266.992C693.386 266.779 693.109 266.646 692.82 266.605L686.56 265.799C686.372 265.716 686.168 265.716 685.98 265.799C685.866 265.867 685.776 265.986 685.724 266.134C685.673 266.282 685.664 266.449 685.7 266.605L687.7 278.253C687.739 278.554 687.696 278.864 687.579 279.129C687.463 279.394 687.279 279.599 687.06 279.709C686.065 280.201 685.139 280.904 684.32 281.789C684.094 281.95 683.832 282.007 683.578 281.951C683.324 281.894 683.092 281.727 682.92 281.477L676.52 273.885C676.18 273.495 675.84 273.365 675.6 273.521C675.522 273.571 675.459 273.653 675.42 273.755L672.58 281.945C672.517 282.284 672.517 282.637 672.58 282.976C672.642 283.315 672.766 283.63 672.94 283.895L678.94 293.307C679.311 293.893 679.516 294.627 679.52 295.387C679.52 296.505 679.4 297.675 679.4 298.845C679.4 300.015 679.4 301.003 679.54 302.095C679.54 302.249 679.516 302.403 679.469 302.545C679.423 302.687 679.354 302.816 679.268 302.923C679.182 303.03 679.08 303.113 678.969 303.167C678.857 303.221 678.739 303.246 678.62 303.239L673.26 303.629C673.134 303.599 673.005 303.599 672.88 303.629C672.792 303.661 672.711 303.717 672.64 303.791C672.57 303.865 672.511 303.957 672.468 304.061C672.425 304.166 672.399 304.28 672.391 304.398C672.382 304.515 672.392 304.634 672.42 304.747ZM695.98 328.511C689.56 319.723 686.52 306.385 689.18 298.767C689.571 297.41 690.233 296.214 691.098 295.3C691.962 294.386 692.999 293.788 694.1 293.567H694.34H694.56H694.84C696.374 293.528 697.895 293.955 699.28 294.815C699.824 295.114 700.352 295.462 700.86 295.855C702.613 297.221 704.208 298.901 705.6 300.847C710.223 307.103 712.974 315.3 713.36 323.961C713.368 324.751 713.335 325.542 713.26 326.327C713.142 327.797 712.852 329.235 712.4 330.591C711.935 332.131 711.123 333.452 710.07 334.38C709.017 335.308 707.772 335.8 706.5 335.791H705.92H705.26L704.72 335.661H704.46H704.12C700.943 334.32 698.122 331.842 695.98 328.511Z" fill="white"/>
<path d="M512.8 317.85C499.6 321.23 491.06 330.278 488.22 357.162C484.84 389.454 479.44 439.088 479.44 439.088C479.44 439.088 461.9 503.698 452.96 518.206C450.389 522.081 447.535 525.625 444.44 528.788C436.22 542.178 417.1 551.096 425.78 558.636C432.44 564.408 442.5 565.552 452.02 558.636C464.88 549.328 470.14 538.59 476.52 524.836C484.52 507.702 511.98 443.586 511.98 443.586L512.8 317.85Z" fill="#B16668"/>
<path d="M456.14 511.836C454.44 515.528 448.58 516.438 443 517.894C437.42 519.35 433.14 523.614 429.26 524.654C425.92 525.538 426.88 530.712 432.84 531.128C438.8 531.544 445.82 525.642 446.98 531.128C448.14 536.614 459.16 521.664 456.14 511.836Z" fill="#B16668"/>
<path d="M467.8 476.789L464.24 487.553C469.94 488.047 483.8 497.043 486.24 503.153L491.14 492.077L467.8 476.789Z" fill="#EBEBEB"/>
<path d="M512.8 317.85C512.8 317.85 499.38 317.304 492.9 332.28C486.42 347.256 478.4 438.88 478.4 438.88L465.46 481.546C470.92 481.052 487.64 492.128 489.8 498.862L512.36 450.814L512.8 317.85Z" fill="#37474F"/>
<path d="M594.04 875.031H574.46V918.607H594.04V875.031Z" fill="#B16668"/>
<path d="M515.98 856.284L496.42 857.142L495.44 811.044L515.98 810.16V856.284Z" fill="#B16668"/>
<path d="M593.321 506.688C593.321 530.998 592.561 729.611 592.561 729.611C593.021 736.605 598.201 749.06 598.561 774.254C599.161 810.654 594.841 896.817 594.841 896.817C591.46 898.979 587.756 900.151 583.989 900.25C580.223 900.349 576.485 899.372 573.041 897.389C573.041 897.389 557.661 775.658 554.141 739.518C551.081 707.953 542.561 566.41 542.561 566.41L527.581 701.038C529.854 714.307 530.675 727.926 530.021 741.494C529.101 758.212 517.181 841.983 517.181 841.983C513.771 844.491 509.98 845.993 506.074 846.384C502.169 846.775 498.245 846.045 494.581 844.245C494.581 844.245 493.421 712.738 493.181 697.398C492.921 679.9 496.001 501.436 496.001 501.436L593.321 506.688Z" fill="#37474F"/>
<path d="M574.46 906.048V902.408C573.4 902.408 572.76 903.734 572.36 907.01C572.06 909.35 571.8 911.144 571.2 914.212C570.337 918.66 569.193 923.009 567.78 927.212C565.02 936.078 562.7 939.38 556.36 949.754C554.222 952.629 552.218 955.667 550.36 958.854C549.18 961.584 548.76 969.254 550.76 970.97C558.16 977.366 569.38 977.548 577.32 974.506C580.283 973.44 582.948 971.287 584.994 968.303C587.041 965.32 588.383 961.633 588.86 957.684C589.14 955.344 589.04 952.926 589.24 950.56C589.935 945.197 591.616 940.13 594.14 935.792C595.617 933.288 596.885 930.586 597.92 927.732C599.56 922.532 598.24 916.63 597.18 911.404C596.28 906.906 595.3 901.966 594.12 902.382C594.12 902.928 594.12 905.164 594.12 905.164C592.7 907.218 588.76 909.246 584.32 909.454C581.38 909.636 574.44 908.882 574.46 906.048Z" fill="#263238"/>
<path d="M496.22 849.29C496.22 849.966 494.4 852.046 492.22 854.49C490.075 856.899 487.831 859.155 485.5 861.25C480.733 865.776 475.728 869.859 470.52 873.47C464.34 877.89 458.76 880.568 451.36 884.91C450.604 885.32 449.922 885.931 449.36 886.704C448.905 887.387 448.595 888.211 448.46 889.096C448.241 890.912 448.415 892.771 448.963 894.465C449.51 896.16 450.409 897.622 451.56 898.69C453.875 900.803 456.505 902.265 459.28 902.98C465.555 905.28 472.169 905.539 478.54 903.734C483.785 901.693 488.737 898.548 493.2 894.426C497.168 890.784 501.678 888.26 506.44 887.016C510.6 886.236 515.7 886.496 519.3 883.272C523.3 879.684 521.7 872.04 520.58 865.462C519.34 858.286 517.8 847.08 515.96 847.574V850.174C513.62 854.802 501.46 856.7 496.3 853.294L496.22 849.29Z" fill="#263238"/>
<path d="M542.6 566.41C532.47 562.278 523.158 555.311 515.32 546C515.32 546 520.58 558.818 536.24 570.726L528.66 693.576L542.6 566.41Z" fill="#263238"/>
<path d="M559.36 320.217C566.02 322.297 579.46 325.157 582.46 342.421C586.08 363.221 587.26 408.253 587.26 408.253L588.5 508.665C575.02 521.431 522.7 528.373 494.32 501.437C494.32 501.437 500.58 380.875 500.58 362.103C500.58 343.331 508.58 320.815 530.76 319.125L559.36 320.217Z" fill="#F5F5F5"/>
<path d="M531.001 317.2C525.873 325.367 522.125 334.846 520.001 345.02C517.321 360.204 514.781 532.532 514.781 532.532C514.781 532.532 499.641 530.14 493.161 523.536C493.161 523.536 491.841 382.694 494.541 360.802C499.361 322.088 499.001 318.24 531.001 314.6V317.2Z" fill="#455A64"/>
<path d="M565.201 314.6C565.201 314.6 546.741 329.342 546.541 388.076C546.361 438.828 546.961 539.812 546.961 539.812C546.961 539.812 577.601 542.412 596.961 527.254C596.961 527.254 592.961 463.138 592.661 427.284C600.661 376.376 607.661 326.742 596.401 322.712C585.141 318.682 565.201 314.6 565.201 314.6Z" fill="#455A64"/>
<path d="M567.26 346.789L558.82 360.387L563.04 375.883L551.94 412.881L565.34 375.883L560.64 361.271L567.26 346.789Z" fill="#37474F"/>
<path d="M507.66 342.42L509.5 356.486L502.18 368.862L512.36 410.54L504.48 369.33L511.24 357.76L507.66 342.42Z" fill="#37474F"/>
<path d="M554.6 232.259C554.604 239.182 553.028 245.95 550.073 251.709C547.117 257.467 542.914 261.957 537.995 264.61C533.077 267.262 527.663 267.959 522.44 266.612C517.217 265.264 512.418 261.933 508.652 257.04C504.885 252.147 502.319 245.911 501.279 239.122C500.238 232.333 500.77 225.295 502.807 218.899C504.844 212.502 508.294 207.035 512.722 203.189C517.149 199.342 522.355 197.289 527.68 197.289C534.816 197.289 541.66 200.973 546.708 207.53C551.756 214.087 554.594 222.982 554.6 232.259Z" fill="#263238"/>
<path d="M574.2 257.141C574.2 257.141 569.84 283.765 568.08 288.133C566.92 290.842 565 292.864 562.72 293.775L563.04 275.029L574.2 257.141Z" fill="#263238"/>
<path d="M568.72 218.973C570.233 218.76 571.763 218.993 573.196 219.655C574.63 220.317 575.93 221.39 577 222.795C580.6 227.579 578.58 242.503 574.12 257.141L565.9 258.363L568.72 218.973Z" fill="#263238"/>
<path d="M563.521 258.363C565.161 259.637 567.521 255.529 569.521 252.773C571.521 250.017 578.181 246.247 581.521 255.373C584.861 264.499 578.601 276.797 573.381 278.929C564.381 282.595 563.041 275.107 563.041 275.107L562.361 322.869C556.141 333.269 542.181 345.437 534.661 343.669C528.661 342.265 527.341 329.083 533.081 320.451V303.317C529.09 304.174 525.04 304.471 521.001 304.201C514.381 302.875 510.201 296.089 508.221 286.781C505.181 272.559 504.221 256.595 506.501 230.335C509.321 198.069 538.341 197.783 553.901 210.523C569.461 223.263 563.521 258.363 563.521 258.363Z" fill="#B16668"/>
<path d="M563.52 261.976C564.34 261.976 567.52 255.19 569.52 252.772C572.36 249.418 568.7 218.972 568.7 218.972C569.676 216.294 570.007 213.295 569.651 210.368C569.294 207.44 568.265 204.721 566.7 202.566C562.82 196.976 557.38 190.19 539.74 192.894C527.14 194.844 513.44 199.94 502.38 192.894C501.359 197.585 501.438 202.565 502.606 207.196C503.775 211.828 505.98 215.901 508.94 218.894C508.94 218.894 512.94 222.248 523.48 223.912C533.209 224.867 542.986 224.623 552.68 223.184C555.74 222.664 556.38 226.512 558.04 237.016C559.54 246.246 560.74 261.898 563.52 261.976Z" fill="#263238"/>
<path d="M568.701 221.338L578.701 214.396C578.382 213.524 577.931 212.745 577.375 212.107C576.818 211.469 576.167 210.984 575.462 210.683C574.757 210.381 574.012 210.269 573.273 210.353C572.533 210.437 571.815 210.716 571.161 211.172C569.835 212.144 568.844 213.736 568.387 215.623C567.93 217.511 568.042 219.553 568.701 221.338Z" fill="#263238"/>
<path d="M533.101 303.264C533.101 303.264 547.881 299.39 553.101 295.828C556.13 293.771 558.612 290.572 560.221 286.65C559.459 290.568 558.099 294.247 556.221 297.466C552.441 303.732 533.201 308.75 533.201 308.75L533.101 303.264Z" fill="#9A4A4D"/>
<path d="M531.7 252.487C531.727 253.239 531.924 253.965 532.265 254.573C532.607 255.181 533.078 255.646 533.621 255.91C534.163 256.173 534.754 256.224 535.318 256.056C535.883 255.887 536.397 255.507 536.797 254.962C537.197 254.418 537.466 253.732 537.569 252.991C537.672 252.25 537.606 251.486 537.379 250.793C537.151 250.101 536.772 249.51 536.289 249.095C535.806 248.68 535.239 248.458 534.66 248.457C533.857 248.484 533.095 248.923 532.541 249.678C531.986 250.434 531.684 251.443 531.7 252.487Z" fill="#263238"/>
<path d="M534.24 241.203L540.56 245.753C541.009 244.612 541.096 243.288 540.805 242.064C540.514 240.841 539.866 239.813 539 239.201C538.588 238.919 538.136 238.748 537.672 238.696C537.207 238.645 536.74 238.714 536.296 238.901C535.853 239.087 535.443 239.387 535.09 239.782C534.737 240.177 534.448 240.66 534.24 241.203Z" fill="#263238"/>
<path d="M534.441 280.15L527.681 283.4C527.829 283.99 528.067 284.535 528.38 285.003C528.694 285.471 529.077 285.852 529.506 286.124C529.935 286.395 530.402 286.552 530.879 286.584C531.355 286.617 531.832 286.524 532.281 286.312C533.177 285.836 533.899 284.933 534.301 283.788C534.702 282.643 534.752 281.342 534.441 280.15Z" fill="#9A4A4D"/>
<path d="M507.62 244.063L514.26 240.163C514.096 239.578 513.841 239.044 513.511 238.593C513.182 238.141 512.784 237.783 512.344 237.539C511.903 237.295 511.429 237.172 510.95 237.176C510.471 237.18 509.998 237.312 509.56 237.563C508.645 238.098 507.928 239.08 507.565 240.296C507.202 241.512 507.222 242.865 507.62 244.063Z" fill="#263238"/>
<path d="M509.001 252.487C509.028 253.239 509.225 253.965 509.566 254.573C509.908 255.181 510.379 255.646 510.922 255.91C511.464 256.173 512.054 256.224 512.619 256.056C513.184 255.887 513.698 255.507 514.098 254.962C514.498 254.418 514.766 253.732 514.87 252.991C514.973 252.25 514.907 251.486 514.679 250.793C514.452 250.101 514.073 249.51 513.59 249.095C513.106 248.68 512.54 248.458 511.961 248.457C511.158 248.484 510.396 248.923 509.841 249.678C509.287 250.434 508.984 251.443 509.001 252.487Z" fill="#263238"/>
<path d="M523.06 250.406L522.1 273.546L512.8 269.412L523.06 250.406Z" fill="#9A4A4D"/>
<path d="M523.9 340.965C525.72 346.555 529.06 348.765 535.14 349.727C538.19 350.008 541.252 349.479 544.14 348.174C547.028 346.869 549.682 344.815 551.94 342.135L546.2 334.699L534.8 341.745L531.7 332.281L523.9 340.965Z" fill="#37474F"/>
<path d="M528.66 338C527.787 341.342 527.447 344.881 527.66 348.4C527.946 351.58 528.878 354.604 530.36 357.162C531.319 357.96 532.406 358.458 533.538 358.616C534.669 358.774 535.814 358.588 536.88 358.072C538.829 355.902 540.393 353.211 541.467 350.181C542.541 347.152 543.098 343.857 543.1 340.522L534.8 341.744L528.66 338Z" fill="#455A64"/>
<path d="M530.36 357.162C523.9 390.078 520 446.082 520.78 451.724C521.56 457.366 526.42 477.724 530.16 477.724C533.9 477.724 540.48 457.574 539.98 452.426C539.04 442.624 535.32 357.11 536.88 357.994L530.36 357.162Z" fill="#455A64"/>
<path d="M536.881 358.072C535.828 358.677 534.671 358.912 533.527 358.752C532.382 358.592 531.29 358.044 530.361 357.162L530.141 358.254C530.951 359.354 531.98 360.139 533.115 360.52C534.249 360.901 535.442 360.864 536.561 360.412L536.881 358.072Z" fill="#37474F"/>
<path d="M534.8 341.744C546.52 334.074 560.68 322.868 562.56 310.544L562.66 303.68C562.66 303.68 567.26 305.578 568.46 315.64C567.46 330.72 559.4 346.216 548.92 353.99L543.1 340.6L534.8 341.744Z" fill="#E0E0E0"/>
<path d="M533.12 307.996C531.231 309.005 529.596 310.68 528.4 312.832C521.38 325 522.04 345.8 522.04 345.8L528.66 338L534.8 341.848C532.509 335.147 531.907 327.675 533.08 320.502L533.12 307.996Z" fill="#E0E0E0"/>
<path d="M596.381 322.816C605.541 325.884 611.601 326.846 617.881 342.42C623.341 355.966 648.541 412.62 653.881 426.218C656.561 432.952 659.221 440.648 652.141 449.982C646.461 457.418 609.081 503.048 602.981 510.848C598.594 516.894 592.634 520.601 586.261 521.248C576.761 522.34 572.121 517.972 570.441 515.294C560.441 499.2 579.641 496.756 586.261 491.426C589.325 488.989 592.067 485.925 594.381 482.352L593.981 473.824C593.981 473.824 600.981 473.824 603.221 471.51C605.461 469.196 625.401 435.5 625.401 435.5C625.401 435.5 596.881 386.698 593.221 376.48C589.561 366.262 585.401 330.668 596.381 322.816Z" fill="#B16668"/>
<path d="M608.341 461.682L603.761 469.846C603.579 475.05 604.907 480.153 607.48 484.146C610.139 488.585 613.565 492.148 617.48 494.546L623.48 487.032L608.341 461.682Z" fill="#EBEBEB"/>
<path d="M605.701 464.803C605.701 464.803 607.181 486.175 621.361 492.077C621.361 492.077 655.081 450.243 658.241 444.575C661.401 438.907 659.201 432.953 652.421 417.483C645.641 402.013 619.001 338.859 614.581 332.281C610.161 325.703 603.021 324.481 592.761 321.621C587.744 333.574 586.231 347.485 588.501 360.777C592.501 382.149 596.161 387.817 596.161 387.817L622.341 436.047L605.701 464.803Z" fill="#37474F"/>
<path d="M338.02 737.646C338.141 740.334 337.617 743.005 336.52 745.29C333.768 751.237 330.522 756.774 326.84 761.8C321.66 769.054 313.9 777.608 308.34 783.9C305.26 787.41 305.14 792.714 309.56 794.56C317.794 797.19 326.49 795.618 333.86 790.166C339.38 786.318 347.24 768.508 351.86 765.804C357.12 762.71 360.08 761.15 361.86 758.004C364.52 753.272 365.2 749.736 362.92 744.224C360.44 738.218 356.7 728.936 355.16 729.95L355.64 731.874C354.44 736.788 344.14 742.508 338.86 741.13L338.02 737.646Z" fill="#37474F"/>
<path d="M378.34 770.926V767.624C377.84 772.642 372.72 788.06 365.72 796.38C360.14 802.984 352.54 810.602 350.6 817.96C348.66 825.318 359.58 828.672 366.78 827.736C373.78 826.619 380.228 822.23 384.92 815.386C389.5 808.574 389.42 803.894 391.56 800.15C393.7 796.406 398.62 792.168 399.78 787.826C400.42 785.434 399.66 780.208 398.76 775.788C397.86 771.368 397.06 767.26 396 767.624V770.224C393.481 772.791 390.361 774.159 387.16 774.098C384.58 774.15 378.32 773.474 378.34 770.926Z" fill="#37474F"/>
<path d="M407.3 530.399C409.88 497.509 415.06 445.327 409.3 408.485C380.06 402.739 351.1 397.591 321.54 392.885C314.42 440.621 311.02 567.761 314.76 585.571C325.12 640.171 330.42 680.939 336.6 735.383C337.172 739.024 336.688 742.812 335.24 746.017C332.897 751.323 330.092 756.261 326.88 760.733C324.4 764.165 322.06 767.987 319.38 771.341C319.113 771.675 318.905 772.08 318.77 772.529C318.636 772.978 318.577 773.46 318.6 773.941C319.1 779.141 324.88 778.309 328.92 776.541C334.036 774.049 338.464 769.632 341.64 763.853C344.34 759.381 349.64 751.295 352.44 746.511C353.556 744.679 354.534 742.711 355.36 740.635C356.303 737.907 356.494 734.84 355.9 731.951C355.79 731.194 355.709 730.43 355.66 729.663C355.5 722.201 361.22 640.977 359.52 622.439C357.66 602.315 355.52 596.595 350.34 579.773C353.98 545.115 357.42 508.351 360.98 473.173C361.6 511.185 361.72 554.553 365.48 591.031C368.48 620.229 369.94 640.431 372.32 669.031C374.6 696.461 377.36 747.031 377.62 754.545C377.842 759.288 377.735 764.048 377.3 768.767C375.548 779.282 371.54 788.937 365.74 796.613C364.4 798.199 362.94 799.837 361.48 801.501C358.52 805.791 359.36 809.535 366.32 810.315C373.28 811.095 379.42 805.635 384.7 797.315C387.06 793.571 396 774.383 396 770.483C396 769.339 396 768.273 396 767.337C396.055 760.191 396.543 753.062 397.46 746.017C400.38 723.553 406.66 683.045 407.7 665.079C409.36 636.479 407.7 622.673 402.12 600.079C404.24 571.999 404.78 562.353 407.3 530.399Z" fill="#FFA8A7"/>
<path d="M325.5 372.734C320.509 397.198 317.13 422.171 315.4 447.38C312.86 487.316 310.2 568.54 311.4 576.548C312.6 584.556 330.62 685.02 330.62 685.02C335.389 688.049 340.772 689.04 346 687.854C350.382 686.626 354.521 684.236 358.16 680.834C358.16 680.834 362.04 635.152 360.6 617.342C359.16 599.532 352.3 578.342 352.3 578.342L361 473.016C361 473.016 359.92 535.676 362.6 572.31C365.28 608.944 374.2 694.302 374.2 694.302C375.931 696.782 378.052 698.746 380.42 700.061C382.788 701.375 385.346 702.01 387.92 701.92C393.617 701.823 399.215 699.979 404.26 696.538C404.26 696.538 407.42 677.506 408.74 662.478C410.603 641.943 408.964 621.127 403.94 601.508C403.94 601.508 410.6 501.616 412.94 479.802C415.28 457.988 421.32 418.858 402.14 382.64C400.28 381.626 325.5 372.734 325.5 372.734Z" fill="#37474F"/>
<path d="M361 473.018V468.312C361 468.312 343 460.98 334.34 446.498C334.34 446.498 338.48 460.252 356.34 473.018C356.34 473.018 355.96 534.69 356 534.04C356.04 533.39 361 473.018 361 473.018Z" fill="#263238"/>
<path d="M315.54 271.413C309.12 295.983 298.4 366.573 298.4 366.573C298.4 366.573 278.4 404.507 271.56 415.401C268.14 420.887 260.74 431.781 260.74 431.781L277.48 448.889C289.6 430.689 307.88 406.535 315.48 394.003C319.08 387.997 322.08 382.849 323.04 377.571L330.66 314.781C330.66 314.781 330.66 264.601 336.66 257.997C342.66 251.393 344.26 250.041 344.26 250.041C336.52 249.339 320.58 252.199 315.54 271.413Z" fill="#FFA8A7"/>
<path d="M347.6 249.339C337.16 247.779 323.8 248.039 317.28 263.223C310.76 278.407 299.9 356.615 299.9 356.615C299.9 356.615 310.16 367.015 321.26 366.833L347.6 249.339Z" fill="#455A64"/>
<path d="M318.58 322.398C320.467 334.086 321.2 346.038 320.76 357.966C319.92 373.566 311.34 402.426 311.34 402.426C311.34 402.426 318.1 410.408 336.5 406.664C351.46 403.622 346.18 344.914 337.58 333.552C332.564 326.836 325.772 322.848 318.58 322.398Z" fill="#37474F"/>
<path d="M374.34 250.457C374.34 250.457 399.34 254.201 402.34 255.943C378.9 277.367 397.88 325.077 397.88 325.077L388.9 361.659C394.66 371.279 399.98 378.611 404.46 386.645C407.951 392.698 410.772 399.359 412.84 406.431C418.84 426.789 351.94 459.133 315.42 421.641C316.88 409.863 319.2 397.617 321.28 386.645C324.14 371.435 326.58 358.617 325.76 352.663C315.26 310.621 314.62 303.055 316.48 293.669C321.72 267.279 342.48 249.469 347.52 249.469L374.34 250.457Z" fill="#240076"/>
<path d="M374.34 250.457C374.34 250.457 397.741 253.057 402.341 255.943C406.941 258.829 414.56 275.911 407.72 300.845C400.88 325.779 394.701 355.055 395.401 360.957C396.101 366.859 412.401 397.357 412.401 397.357C407.661 401.335 402.641 405.469 397.401 406.717L389 382.927L391 408.121C391 408.121 375.98 412.853 365.24 411.657C365.22 411.657 357.28 314.989 374.34 250.457Z" fill="#455A64"/>
<path d="M315 241.383H353.72C359.777 241.383 365.774 239.832 371.369 236.819C376.965 233.806 382.049 229.39 386.332 223.823C390.614 218.255 394.012 211.646 396.329 204.371C398.647 197.097 399.84 189.301 399.84 181.427C399.835 166.804 395.364 152.781 387.41 142.441C379.455 132.1 368.669 126.288 357.42 126.281C351.849 126.281 346.333 127.708 341.187 130.479C336.04 133.25 331.364 137.312 327.425 142.433C323.485 147.554 320.361 153.633 318.229 160.324C316.097 167.014 315 174.185 315 181.427V241.383Z" fill="#263238"/>
<path d="M331.22 151.189C326.72 154.621 321.22 169.389 321.74 199.991C322.2 225.991 328.7 232.439 331.96 234.311C335.22 236.183 341.5 235.039 347.6 233.713V249.313C347.6 249.313 339.16 262.053 339.6 269.229C340.04 276.405 351.78 278.069 359.6 271.075C367.42 264.081 374.16 250.431 374.16 250.431L374.04 214.525C374.04 214.525 377.62 219.049 383.72 212.133C388.76 206.413 390.46 196.767 386.54 191.567C385.522 190.327 384.292 189.42 382.95 188.921C381.609 188.423 380.195 188.347 378.826 188.7C377.458 189.054 376.174 189.826 375.081 190.953C373.987 192.08 373.117 193.53 372.54 195.181C372.54 195.181 369.14 182.935 355.06 176.981C342.56 171.599 335.66 165.359 331.22 151.189Z" fill="#FFA8A7"/>
<path d="M344.641 192.399C344.637 193.042 344.779 193.671 345.049 194.209C345.318 194.747 345.704 195.171 346.157 195.427C346.61 195.682 347.111 195.759 347.597 195.648C348.084 195.537 348.535 195.242 348.893 194.8C349.252 194.359 349.503 193.79 349.615 193.164C349.727 192.539 349.695 191.884 349.523 191.282C349.351 190.68 349.047 190.157 348.649 189.778C348.25 189.398 347.774 189.18 347.281 189.149C346.6 189.128 345.94 189.458 345.445 190.067C344.951 190.676 344.662 191.514 344.641 192.399Z" fill="#263238"/>
<path d="M343.42 215.514L337.58 217.932C337.683 218.442 337.865 218.92 338.114 219.336C338.364 219.753 338.675 220.099 339.031 220.354C339.386 220.609 339.777 220.768 340.181 220.821C340.585 220.874 340.993 220.82 341.38 220.662C342.168 220.316 342.821 219.586 343.202 218.625C343.583 217.664 343.661 216.548 343.42 215.514Z" fill="#F28F8F"/>
<path d="M324.261 184.6L329.361 179.998C329.148 179.552 328.868 179.168 328.537 178.868C328.206 178.568 327.831 178.36 327.436 178.255C327.041 178.151 326.633 178.152 326.239 178.259C325.844 178.367 325.47 178.578 325.141 178.88C324.458 179.505 323.987 180.447 323.823 181.512C323.659 182.576 323.816 183.681 324.261 184.6Z" fill="#263238"/>
<path d="M351.42 185.821L346.32 181.219C346.537 180.775 346.82 180.393 347.153 180.096C347.486 179.798 347.861 179.59 348.257 179.486C348.653 179.382 349.061 179.382 349.457 179.488C349.853 179.594 350.228 179.802 350.56 180.101C351.239 180.73 351.707 181.674 351.867 182.738C352.027 183.802 351.867 184.905 351.42 185.821Z" fill="#263238"/>
<path d="M325.601 191.671C325.597 192.312 325.739 192.94 326.008 193.478C326.277 194.015 326.661 194.438 327.113 194.694C327.565 194.951 328.065 195.029 328.551 194.92C329.037 194.81 329.487 194.518 329.846 194.079C330.206 193.64 330.458 193.073 330.572 192.45C330.686 191.826 330.657 191.173 330.488 190.57C330.32 189.968 330.018 189.443 329.622 189.061C329.227 188.679 328.753 188.457 328.261 188.421C327.578 188.4 326.916 188.729 326.418 189.337C325.92 189.945 325.627 190.784 325.601 191.671Z" fill="#263238"/>
<path d="M337.74 189.201L337.34 208.909L329.36 205.685L337.74 189.201Z" fill="#F28F8F"/>
<path d="M347.601 233.713C354.041 232.595 367.301 227.655 369.361 220.713C368.53 224.154 366.912 227.184 364.721 229.397C360.721 233.817 347.601 238.783 347.601 238.783V233.713Z" fill="#F28F8F"/>
<path d="M433.98 369.2C435.82 354.848 433.98 350.168 430.08 336.102L408.38 352.586C408.38 352.586 411.56 363.168 411.3 369.2C411.12 373.308 406.8 414.414 402.72 428.74C401.983 431.267 400.56 433.357 398.72 434.616C393.78 438.048 391.66 441.818 387.86 446.342C384.86 449.878 382.44 450.606 382.74 451.854C383.208 453.232 384.06 454.331 385.124 454.928C386.188 455.526 387.387 455.579 388.48 455.078C390.916 454.067 393.252 452.688 395.44 450.97C393.503 456.378 390.91 461.347 387.76 465.686C380.58 475.644 379.94 482.118 393.32 483.47C401.68 484.302 408.74 478.27 416.3 454.87C418.655 446.265 420.592 437.477 422.1 428.558C426.14 407.94 432.12 383.604 433.98 369.2Z" fill="#FFA8A7"/>
<path d="M402.321 255.943C411.741 261.455 414.921 272.037 419.781 288.651C424.321 304.251 434.381 351.909 434.381 351.909C434.381 351.909 422.981 366.547 409.901 362.309L393.221 309.399C393.221 309.399 385.381 274.819 402.321 255.943Z" fill="#37474F"/>
<path d="M64.3806 958.256C62.9606 958.958 62.1406 962.468 61.5006 971.022C61.1006 976.222 59.7206 983.32 65.9406 987.61C68.2142 989.135 70.7397 989.915 73.298 989.883C75.8562 989.852 78.3698 989.009 80.6206 987.428C86.0006 983.086 87.6806 973.18 94.0006 966.628C99.5406 960.986 108.441 955.344 111.541 946.634C114.101 939.458 114.101 929.188 104.921 929.734C93.7406 930.41 87.4006 941.876 79.8206 942.11C75.5806 942.318 65.8206 957.58 64.3806 958.256Z" fill="#263238"/>
<path d="M64.4004 954.042V962.674C64.4004 966.886 78.2004 973.074 82.0604 963.532C82.3604 962.7 83.8604 950.896 83.8604 950.896L64.4004 954.042Z" fill="#FFBDA7"/>
<path d="M128.341 1008.49C128.341 1008.49 125.721 1008.49 124.701 1022.4C124.301 1027.6 123.321 1038.57 124.701 1042.52C126.081 1046.47 133.641 1048.19 142.101 1049.18C148.421 1049.9 154.101 1053.88 159.961 1058.17C165.5 1062.23 171.722 1064.47 178.081 1064.67C186.081 1064.67 192.861 1063.63 198.561 1057.76C201.601 1054.64 205.441 1048.06 202.561 1043.12C201.389 1041.61 199.9 1040.59 198.281 1040.18C194.721 1038.46 191.141 1036.88 187.501 1035.4C182.076 1033.32 176.781 1030.71 171.661 1027.6C164.201 1022.81 155.881 1017.46 150.241 1009.27L128.341 1008.49Z" fill="#263238"/>
<path d="M128.38 1001.29C128.38 1001.29 128.38 1007.68 128.38 1011.35C128.38 1015.01 131.66 1020.47 140.26 1020.14C146.26 1019.9 150.52 1017.82 150.26 1011.35V1002.01L128.38 1001.29Z" fill="#FFBDA7"/>
<path d="M60.5398 839.539C62.0637 824.275 64.7434 809.243 68.5398 794.664C68.5398 794.664 66.3198 755.871 65.3398 719.107C64.4531 681.439 65.2611 643.735 67.7598 606.189C67.7598 606.189 163.76 594.333 165.42 640.249C167.08 686.165 164.72 802.932 163.42 823.081C162.12 843.232 160.94 862.082 157.66 899.626C154.84 931.918 150.28 1002.01 150.28 1002.01C146.852 1004.26 143.048 1005.37 139.209 1005.25C135.371 1005.12 131.616 1003.76 128.28 1001.29C128.28 1001.29 121.04 907.165 120.28 883.921C119.2 853.761 124.62 837.121 124.62 837.121C124.62 837.121 122.62 818.167 118.98 779.167C116.46 751.607 113.1 720.226 113.1 720.226C113.1 720.226 109.82 759.069 107.82 780.727C105.98 800.799 102.84 816.659 98.1998 854.073C94.1998 886.547 83.2198 955.24 83.2198 955.24C71.9198 963.039 64.3598 954.044 64.3598 954.044C64.3598 954.044 57.3798 867.697 60.5398 839.539Z" fill="#37474F"/>
<path d="M113.14 720.2L108.6 681.876C108.6 681.876 89.8999 674.076 80.3799 659.672C80.3799 659.672 85.4599 676.52 102.88 685.672L109.86 717.964L111.06 744.614L113.14 720.2Z" fill="#263238"/>
<path d="M87.5202 452.4C72.5402 447.694 63.0602 457.132 57.5202 483.6C52.7802 506.324 45.8402 553.332 43.1402 570.882C42.1402 577.382 40.1802 584.844 50.7002 593.034C65.9556 604.51 81.701 614.849 97.8602 624L103.62 595.998L80.3802 534.04L87.5202 452.4Z" fill="#240076"/>
<path opacity="0.25" d="M87.5202 452.4C72.5402 447.694 63.0602 457.132 57.5202 483.6C52.7802 506.324 45.8402 553.332 43.1402 570.882C42.1402 577.382 40.1802 584.844 50.7002 593.034C65.9556 604.51 81.701 614.849 97.8602 624L103.62 595.998L80.3802 534.04L87.5202 452.4Z" fill="black"/>
<path d="M128.921 439.945L124.441 480.947L96.0605 479.673L98.8006 431.781L128.921 439.945Z" fill="#FFBDA7"/>
<path d="M149.28 389.35C149.28 389.35 156.9 403.858 156.06 405.314C155.22 406.77 149.78 408.174 149.78 408.174L149.28 389.35Z" fill="#F0997A"/>
<path d="M137.38 386.957C137.352 384.576 137.869 382.239 138.863 380.24C139.857 378.24 141.286 376.669 142.967 375.725C144.648 374.781 146.507 374.506 148.308 374.936C150.11 375.365 151.773 376.479 153.087 378.136C154.401 379.794 155.308 381.921 155.693 384.249C156.077 386.577 155.922 389.001 155.247 391.214C154.572 393.427 153.407 395.33 151.9 396.683C150.393 398.035 148.611 398.777 146.78 398.813C145.564 398.837 144.356 398.549 143.225 397.967C142.095 397.384 141.064 396.517 140.191 395.416C139.318 394.315 138.62 393.001 138.138 391.55C137.656 390.099 137.398 388.538 137.38 386.957ZM139.38 386.957C139.404 388.808 139.849 390.608 140.66 392.13C141.471 393.651 142.611 394.826 143.935 395.506C145.26 396.186 146.71 396.339 148.101 395.948C149.493 395.557 150.764 394.638 151.754 393.307C152.744 391.976 153.408 390.294 153.663 388.473C153.918 386.651 153.751 384.773 153.184 383.075C152.618 381.376 151.676 379.935 150.479 378.932C149.282 377.929 147.884 377.41 146.46 377.441C144.564 377.502 142.764 378.533 141.449 380.31C140.135 382.087 139.413 384.466 139.44 386.931L139.38 386.957Z" fill="#263238"/>
<path d="M128.16 349.206C143.24 353.028 147.7 361.53 149.48 392.574C151.36 424.996 148.94 435.24 145.72 439.686C143.54 442.676 131.24 443.456 125 441.376C117.2 438.776 99.5398 430.976 91.1198 414.856C81.1198 395.85 78.3598 369.876 88.5798 358.982C103 343.642 122.02 347.672 128.16 349.206Z" fill="#FFBDA7"/>
<path d="M128.68 442.207C135.18 443.117 143.9 442.207 145.72 439.607C138.46 440.205 129.56 435.473 129.56 435.473L128.68 442.207Z" fill="#F0997A"/>
<path d="M151.82 357.031L151.36 357.655C148.38 361.451 144.54 363.895 141.36 367.483C137.969 371.478 135.549 376.675 134.4 382.433C133.42 387.165 133.08 392.833 129.16 395.017C129.16 395.017 126.52 382.511 118.4 384.253C110.28 385.995 109.3 399.619 114.56 407.653C119.82 415.687 124.56 412.515 124.56 412.515C124.56 412.515 124.56 430.481 118.56 440.751C118.56 440.751 111.64 443.819 98.7997 440.543C90.7997 438.515 79.6197 425.983 74.7997 412.541C64.5597 384.097 63.5597 358.357 77.5197 350.323C78.8797 337.115 86.7997 331.031 95.8797 328.119C109.46 323.777 122.34 334.021 135.76 329.835C138.58 328.951 141.3 327.573 144.16 327.053C144.48 326.935 144.819 326.935 145.14 327.053C145.84 327.495 145.8 328.769 145.62 329.653C144.933 333.179 143.61 336.441 141.76 339.169C146.929 339.462 152.096 338.51 157 336.361C157.361 340.09 157.084 343.876 156.189 347.45C155.293 351.023 153.801 354.295 151.82 357.031Z" fill="#263238"/>
<path d="M79.5605 356.824L70.4805 350.116C70.8193 349.341 71.2722 348.66 71.8134 348.113C72.3546 347.565 72.9734 347.162 73.6345 346.925C74.2957 346.688 74.9862 346.624 75.6667 346.734C76.3472 346.844 77.0043 347.128 77.6005 347.568C78.1967 348.009 78.7203 348.597 79.1415 349.301C79.5626 350.004 79.8731 350.809 80.0551 351.668C80.2371 352.528 80.2871 353.426 80.2022 354.31C80.1173 355.195 79.8993 356.049 79.5605 356.824Z" fill="#263238"/>
<path d="M129.36 402.037L128.92 388.465C129.605 388.427 130.29 388.566 130.934 388.872C131.579 389.178 132.17 389.647 132.675 390.25C133.181 390.854 133.589 391.581 133.878 392.39C134.167 393.199 134.331 394.074 134.36 394.965C134.389 395.856 134.282 396.746 134.047 397.584C133.811 398.421 133.451 399.19 132.987 399.847C132.522 400.504 131.963 401.035 131.341 401.411C130.719 401.787 130.045 401.999 129.36 402.037Z" fill="#263238"/>
<path d="M155 384.098L127.08 389.376L128.24 391.898L155.04 386.828L155 384.098Z" fill="#263238"/>
<path d="M64.74 473.849C68.06 457.001 72.74 451.515 84 451.125C89.8123 451.639 95.5958 452.603 101.32 454.011C102.5 461.109 116.64 465.945 130.94 462.097C135.2 463.709 146.46 467.713 149.98 469.377C160.1 474.135 165.02 487.811 165.68 531.179C165.68 531.179 167.68 634.035 165.68 651.793C140.16 664.793 113.68 664.143 99.04 659.905C68.6 651.039 65.04 634.581 65.04 634.581C65.04 634.581 66.64 593.293 67.66 561.911C66.14 541.917 63.84 526.889 63.02 510.925C62.27 498.522 62.8489 486.045 64.74 473.849Z" fill="#240076"/>
<path d="M237.46 466.752C239.92 458.64 243.46 444.184 249.34 434.304C255.22 424.424 257.34 417.17 259.6 421.486C262.64 427.206 255.78 438.646 257.3 439.686C258.82 440.726 264.54 455.884 265.12 464.256C265.7 472.628 248.64 493.688 248.64 493.688L237.46 466.752Z" fill="#FFBDA7"/>
<path d="M149.98 469.377C155.193 470.678 160.069 473.665 164.16 478.061C171.26 485.861 207.1 522.261 207.1 522.261L239.3 461.551L255.06 485.133C255.06 485.133 231.46 543.529 221.58 565.369C218.5 572.207 210.7 573.481 197.24 563.393C186.04 554.995 149.24 524.965 149.24 524.965C149.24 524.965 140.06 490.255 149.98 469.377Z" fill="#FFBDA7"/>
<path d="M148.04 468.52C151.76 468.796 155.399 470.042 158.74 472.186C164.08 475.722 207.1 521.222 207.1 521.222L218.08 501.644C226.94 504.556 233.44 509.834 240.24 521.456C240.24 521.456 228.24 554.762 223.2 565.968C218.16 577.174 213.8 574.756 204.24 569.4C194.68 564.044 155.26 534.04 155.26 534.04C155.26 534.04 144.04 524.082 142.28 507.442C139 475.8 148.04 468.52 148.04 468.52Z" fill="#240076"/>
<path opacity="0.1" d="M148.04 468.52C151.76 468.796 155.399 470.042 158.74 472.186C164.08 475.722 207.1 521.222 207.1 521.222L218.08 501.644C226.94 504.556 233.44 509.834 240.24 521.456C240.24 521.456 228.24 554.762 223.2 565.968C218.16 577.174 213.8 574.756 204.24 569.4C194.68 564.044 155.26 534.04 155.26 534.04C155.26 534.04 144.04 524.082 142.28 507.442C139 475.8 148.04 468.52 148.04 468.52Z" fill="black"/>
<path opacity="0.1" d="M207.101 521.222C210.309 525.279 213.346 529.558 216.201 534.04C216.201 534.04 215.961 526.032 209.001 517.842L207.101 521.222Z" fill="black"/>
<path d="M218.08 501.644L223.68 491.088C228.329 492.038 232.748 494.359 236.6 497.874C240.156 500.784 243.087 504.819 245.12 509.6L240.24 521.456C234.291 512.479 226.657 505.654 218.08 501.644Z" fill="#240076"/>
<path opacity="0.25" d="M218.08 501.644L223.68 491.088C228.329 492.038 232.748 494.359 236.6 497.874C240.156 500.784 243.087 504.819 245.12 509.6L240.24 521.456C234.291 512.479 226.657 505.654 218.08 501.644Z" fill="black"/>
<path d="M241.74 510.925C241.74 511.442 241.582 511.938 241.301 512.303C241.02 512.669 240.638 512.875 240.24 512.875C239.842 512.875 239.461 512.669 239.18 512.303C238.898 511.938 238.74 511.442 238.74 510.925C238.74 510.407 238.898 509.911 239.18 509.546C239.461 509.18 239.842 508.975 240.24 508.975C240.638 508.975 241.02 509.18 241.301 509.546C241.582 509.911 241.74 510.407 241.74 510.925Z" fill="#455A64"/>
<path d="M98.1406 443.352L97.9006 447.304C97.9006 447.304 99.4006 452.868 107.901 454.948C122.381 458.458 127.441 452.608 127.441 452.608L127.801 449.228C127.801 449.228 129.201 448.474 131.541 450.814C135.103 455.64 138.442 460.736 141.541 466.076C141.541 466.076 138.781 465.01 129.741 470.028C120.713 474.592 110.766 475.077 101.501 471.406C98.9206 470.287 96.6115 468.309 94.804 465.667C92.9966 463.025 91.754 459.813 91.2006 456.352C91.0006 452.92 95.6406 442 98.1406 443.352Z" fill="#240076"/>
<path opacity="0.25" d="M98.1406 443.352L97.9006 447.304C97.9006 447.304 99.4006 452.868 107.901 454.948C122.381 458.458 127.441 452.608 127.441 452.608L127.801 449.228C127.801 449.228 129.201 448.474 131.541 450.814C135.103 455.64 138.442 460.736 141.541 466.076C141.541 466.076 138.781 465.01 129.741 470.028C120.713 474.592 110.766 475.077 101.501 471.406C98.9206 470.287 96.6115 468.309 94.804 465.667C92.9966 463.025 91.754 459.813 91.2006 456.352C91.0006 452.92 95.6406 442 98.1406 443.352Z" fill="black"/>
<path d="M256.82 438.489C256.82 438.489 277.44 436.175 280.46 438.489C283.48 440.803 282.56 452.399 280.46 459.523C278.36 466.647 267.84 471.275 258.08 479.855C258.06 478.581 256.82 438.489 256.82 438.489Z" fill="#FFBDA7"/>
<path d="M258.08 479.802C262.08 475.98 262.08 471.3 262.92 463.838C263.76 456.376 279.46 448.238 279.96 453.906C280.46 459.574 281.96 464.124 277.04 470.858C272.12 477.592 265.3 484.82 258.08 479.802Z" fill="#FFA8A7"/>
<path d="M259.18 431.781C255.42 438.125 254.78 445.612 252.8 449.746C250.82 453.88 247.8 458.639 252.16 459.393C256.52 460.146 261.82 452.763 264.16 446.029C265.372 442.24 267.645 439.192 270.52 437.501C268.52 436.591 269.54 425.905 268.1 424.501C268.16 424.449 260.74 428.375 259.18 431.781Z" fill="#FFA8A7"/>
</svg>
