<svg width="40" height="41" viewBox="0 0 40 41" fill="none" xmlns="http://www.w3.org/2000/svg">
<path d="M8.88255 5.86039C9.92246 5.48955 11.0463 5.42144 12.1233 5.66398C13.2004 5.90651 14.1866 6.44972 14.9671 7.23049C15.7477 8.01126 16.2907 8.99752 16.533 10.0747C16.7753 11.1518 16.707 12.2756 16.3359 13.3154L34.4109 31.3904L30.8742 34.9254L12.7992 16.8521C11.7591 17.2231 10.6351 17.2913 9.55779 17.0487C8.48048 16.8061 7.49415 16.2628 6.71348 15.4817C5.93281 14.7007 5.38987 13.7141 5.14777 12.6367C4.90568 11.5593 4.97438 10.4353 5.34588 9.39539L9.07255 13.1237C9.54406 13.5791 10.1756 13.8311 10.8311 13.8254C11.4865 13.8197 12.1136 13.5568 12.5771 13.0933C13.0406 12.6297 13.3035 12.0027 13.3092 11.3472C13.3149 10.6917 13.0629 10.0602 12.6076 9.58872L8.88255 5.86039ZM26.1609 8.99872L31.4642 6.05206L33.8209 8.41039L30.8742 13.7121L27.9276 14.3021L24.3942 17.8371L22.0359 15.4804L25.5709 11.9454L26.1609 8.99872ZM14.3759 21.9621L17.9109 25.4987L9.66088 33.7487C9.20595 34.1994 8.59541 34.4583 7.95519 34.4721C7.31496 34.4859 6.69386 34.2534 6.21997 33.8227C5.74609 33.392 5.45555 32.7959 5.40827 32.1572C5.36099 31.5186 5.56058 30.8862 5.96588 30.3904L6.12755 30.2121L14.3759 21.9621Z" fill="#240C76"/>
</svg>
