<svg width="40" height="41" viewBox="0 0 40 41" fill="none" xmlns="http://www.w3.org/2000/svg">
<path d="M19.9998 3.35938C19.0959 3.35938 18.229 3.71847 17.5898 4.35765C16.9506 4.99684 16.5915 5.86376 16.5915 6.76771C16.5915 7.67165 16.9506 8.53858 17.5898 9.17776C18.229 9.81695 19.0959 10.176 19.9998 10.176C20.9038 10.176 21.7707 9.81695 22.4099 9.17776C23.0491 8.53858 23.4082 7.67165 23.4082 6.76771C23.4082 5.86376 23.0491 4.99684 22.4099 4.35765C21.7707 3.71847 20.9038 3.35938 19.9998 3.35938ZM12.2732 9.49438C11.3872 9.52208 10.5469 9.89349 9.92998 10.53C9.3131 11.1664 8.96814 12.018 8.96814 12.9044C8.96814 13.7907 9.3131 14.6423 9.92998 15.2788C10.5469 15.9153 11.3872 16.2867 12.2732 16.3144C13.1776 16.3144 14.0449 15.9551 14.6844 15.3156C15.3239 14.6761 15.6832 13.8088 15.6832 12.9044C15.6832 12 15.3239 11.1326 14.6844 10.4931C14.0449 9.85364 13.1776 9.49438 12.2732 9.49438ZM27.7282 9.49438C26.8422 9.52208 26.0019 9.89349 25.385 10.53C24.7681 11.1664 24.4231 12.018 24.4231 12.9044C24.4231 13.7907 24.7681 14.6423 25.385 15.2788C26.0019 15.9153 26.8422 16.2867 27.7282 16.3144C28.6326 16.3144 29.4999 15.9551 30.1394 15.3156C30.7789 14.6761 31.1382 13.8088 31.1382 12.9044C31.1382 12 30.7789 11.1326 30.1394 10.4931C29.4999 9.85364 28.6326 9.49438 27.7282 9.49438ZM2.24484 13.1344C1.6696 13.124 1.11318 13.3394 0.694844 13.7344C0.296957 14.1088 0.0520218 14.6175 0.00738526 15.1621C-0.0372513 15.7067 0.12158 16.2484 0.453178 16.6827C1.55318 18.1227 3.77484 21.0227 4.87318 22.4577C6.07544 24.0284 6.72679 25.9514 6.72651 27.9294C6.72651 30.461 7.90984 32.8727 9.97484 34.331C11.2657 35.2428 12.6762 35.9719 14.1665 36.4977V29.9427C14.1665 28.956 14.4848 27.9927 14.9532 27.1894C14.7834 25.615 14.0786 24.1466 12.9565 23.0294L3.90318 13.916C3.69574 13.6777 3.44109 13.4851 3.15536 13.3502C2.86962 13.2154 2.55901 13.1413 2.24318 13.1327M37.7598 13.1327C37.185 13.1414 36.6365 13.3747 36.2315 13.7827L28.6565 21.4077L27.0432 23.031C25.9222 24.148 25.2171 25.6147 25.0448 27.1877C25.4865 27.946 25.8015 28.8427 25.8315 29.7694V36.501C27.3227 35.9738 28.7338 35.243 30.0248 34.3294C32.0882 32.871 33.2732 30.4577 33.2732 27.926C33.2717 25.9471 33.9225 24.0228 35.1248 22.451L39.5448 16.681C39.8764 16.2466 40.0353 15.7047 39.991 15.16C39.9467 14.6152 39.7023 14.1062 39.3048 13.731C39.0991 13.5343 38.8566 13.3801 38.5912 13.2771C38.3258 13.1742 38.0428 13.1246 37.7582 13.131M19.9998 15.631C19.1139 15.6587 18.2735 16.0302 17.6567 16.6666C17.0398 17.3031 16.6948 18.1547 16.6948 19.041C16.6948 19.9274 17.0398 20.779 17.6567 21.4155C18.2735 22.0519 19.1139 22.4233 19.9998 22.451C20.9042 22.451 21.7716 22.0918 22.4111 21.4523C23.0506 20.8128 23.4098 19.9454 23.4098 19.041C23.4098 18.1367 23.0506 17.2693 22.4111 16.6298C21.7716 15.9903 20.9042 15.631 19.9998 15.631ZM20.0032 25.1777C17.2398 25.1777 14.9998 27.311 14.9998 29.9444V36.7627C18.27 37.6807 21.7297 37.6807 24.9998 36.7627V29.796C24.9182 27.2327 22.7148 25.1794 20.0032 25.1794" fill="#240C76"/>
</svg>
